<svg id="Layer_1" data-name="Layer 1" xmlns="http://www.w3.org/2000/svg" viewBox="0 0 547.27 773.24"><defs><style>.cls-1{fill:#fff;}.cls-1,.cls-12,.cls-47,.cls-48,.cls-61,.cls-62,.cls-71,.cls-72{stroke:#231f20;stroke-miterlimit:10;}.cls-2{font-size:11px;}.cls-13,.cls-14,.cls-2,.cls-26,.cls-30,.cls-36,.cls-59,.cls-75{fill:#231f20;}.cls-14,.cls-2,.cls-26,.cls-30,.cls-36,.cls-59,.cls-75{font-family:MyriadPro-Regular, Myriad Pro;}.cls-3{letter-spacing:-0.01em;}.cls-4{letter-spacing:-0.01em;}.cls-5{letter-spacing:0em;}.cls-6{letter-spacing:-0.01em;}.cls-7{letter-spacing:0em;}.cls-8{letter-spacing:-0.01em;}.cls-9{letter-spacing:-0.01em;}.cls-10{letter-spacing:-0.02em;}.cls-11{letter-spacing:-0.01em;}.cls-12,.cls-47,.cls-48,.cls-61,.cls-62,.cls-71,.cls-72{fill:none;}.cls-14{font-size:10px;}.cls-15{letter-spacing:-0.01em;}.cls-16{letter-spacing:-0.01em;}.cls-17{letter-spacing:0em;}.cls-18{letter-spacing:-0.01em;}.cls-19{letter-spacing:0.01em;}.cls-20{letter-spacing:0em;}.cls-21{letter-spacing:-0.01em;}.cls-22{letter-spacing:0.01em;}.cls-23{letter-spacing:0.01em;}.cls-24{letter-spacing:-0.03em;}.cls-25{letter-spacing:-0.08em;}.cls-26{font-size:13px;}.cls-27{letter-spacing:0em;}.cls-28{letter-spacing:-0.02em;}.cls-29{letter-spacing:-0.01em;}.cls-30{font-size:9px;}.cls-31{letter-spacing:-0.06em;}.cls-32{letter-spacing:0em;}.cls-33{letter-spacing:-0.01em;}.cls-34{letter-spacing:0.01em;}.cls-35{letter-spacing:-0.01em;}.cls-36{font-size:15px;}.cls-37{letter-spacing:0em;}.cls-38{letter-spacing:-0.01em;}.cls-39{letter-spacing:0em;}.cls-40{letter-spacing:-0.01em;}.cls-41{letter-spacing:-0.03em;}.cls-42{letter-spacing:0em;}.cls-43{letter-spacing:0.01em;}.cls-44{letter-spacing:-0.04em;}.cls-45{letter-spacing:-0.05em;}.cls-46{letter-spacing:0em;}.cls-47{stroke-dasharray:11.77 11.77;}.cls-48{stroke-dasharray:12.1 12.1;}.cls-49{letter-spacing:0.01em;}.cls-50{letter-spacing:0em;}.cls-51{letter-spacing:-0.01em;}.cls-52{letter-spacing:-0.01em;}.cls-53{letter-spacing:-0.01em;}.cls-54{letter-spacing:-0.04em;}.cls-55{letter-spacing:-0.01em;}.cls-56{letter-spacing:-0.01em;}.cls-57{letter-spacing:-0.01em;}.cls-58{letter-spacing:-0.01em;}.cls-59{font-size:16px;}.cls-60{letter-spacing:0em;}.cls-61{stroke-dasharray:11.82 11.82;}.cls-62{stroke-dasharray:12.59 12.59;}.cls-63{letter-spacing:0.01em;}.cls-64{letter-spacing:0em;}.cls-65{letter-spacing:-0.01em;}.cls-66{letter-spacing:-0.01em;}.cls-67{letter-spacing:0em;}.cls-68{letter-spacing:0.01em;}.cls-69{letter-spacing:0.03em;}.cls-70{letter-spacing:0.01em;}.cls-71{stroke-dasharray:12.03 12.03;}.cls-72{stroke-dasharray:14.36 14.36;}.cls-73{letter-spacing:-0.01em;}.cls-74{letter-spacing:0em;}.cls-75{font-size:12px;}.cls-76{letter-spacing:-0.01em;}.cls-77{letter-spacing:0.01em;}.cls-78{letter-spacing:-0.01em;}.cls-79{letter-spacing:0em;}.cls-80{letter-spacing:-0.01em;}.cls-81{letter-spacing:-0.01em;}.cls-82{letter-spacing:0em;}.cls-83{letter-spacing:-0.04em;}.cls-84{letter-spacing:0em;}.cls-85{letter-spacing:0.01em;}.cls-86{letter-spacing:0.01em;}.cls-87{letter-spacing:-0.01em;}.cls-88{letter-spacing:-0.02em;}.cls-89{letter-spacing:-0.01em;}.cls-90{letter-spacing:-0.02em;}.cls-91{letter-spacing:-0.01em;}</style></defs><title>ULC_Process_Flow</title><rect class="cls-1" x="120.08" y="527.56" width="245.68" height="121.8"/><rect class="cls-1" x="120.41" y="465.96" width="134.45" height="47.91"/><rect class="cls-1" x="143.1" y="135.59" width="64.97" height="26.16"/><text class="cls-2" transform="translate(144.38 144.97)">most <tspan class="cls-3" x="25.54" y="0">r</tspan><tspan x="29.03" y="0">e</tspan><tspan class="cls-4" x="34.54" y="0">c</tspan><tspan x="39.4" y="0">e</tspan><tspan class="cls-5" x="44.91" y="0">n</tspan><tspan x="50.97" y="0">t </tspan><tspan x="0" y="13.2">num</tspan><tspan class="cls-6" x="21.34" y="13.2">p</tspan><tspan x="27.52" y="13.2">y a</tspan><tspan class="cls-7" x="40.34" y="13.2">r</tspan><tspan class="cls-8" x="43.98" y="13.2">r</tspan><tspan class="cls-9" x="47.52" y="13.2">a</tspan><tspan x="52.73" y="13.2">y</tspan></text><rect class="cls-1" x="50.34" y="135.59" width="64.97" height="26.16"/><text class="cls-2" transform="translate(54.63 151.97)">R<tspan class="cls-10" x="5.92" y="0">P</tspan><tspan x="11.59" y="0">i HQ </tspan><tspan class="cls-11" x="33.58" y="0">C</tspan><tspan x="39.89" y="0">am</tspan></text><line class="cls-12" x1="115.31" y1="148.67" x2="137.07" y2="148.67"/><path class="cls-13" d="M148.45,154.68a30.34,30.34,0,0,0-8.55,4.76l1.72-4.76-1.72-4.75A30.31,30.31,0,0,0,148.45,154.68Z" transform="translate(-5.35 -6.02)"/><rect class="cls-1" x="236.39" y="136.6" width="75.39" height="26.16"/><text class="cls-14" transform="translate(239.99 146.26)"><tspan class="cls-15">A</tspan><tspan x="6.06" y="0">ssess </tspan><tspan class="cls-15" x="29.03" y="0">c</tspan><tspan x="33.45" y="0">oarse </tspan><tspan x="0" y="12">image </tspan><tspan class="cls-16" x="28.22" y="12">f</tspan><tspan x="31.01" y="12">e</tspan><tspan class="cls-17" x="36.02" y="12">a</tspan><tspan x="40.8" y="12">tu</tspan><tspan class="cls-18" x="49.62" y="12">r</tspan><tspan x="52.79" y="12">es</tspan></text><line class="cls-12" x1="208.07" y1="148.67" x2="229.82" y2="148.67"/><path class="cls-13" d="M241.21,154.68a30.34,30.34,0,0,0-8.55,4.76l1.72-4.76-1.72-4.75A30.31,30.31,0,0,0,241.21,154.68Z" transform="translate(-5.35 -6.02)"/><rect class="cls-1" x="441.72" y="135.98" width="92.33" height="40.19"/><text class="cls-2" transform="translate(447.13 146.58)">a<tspan class="cls-19" x="5.3" y="0">c</tspan><tspan x="10.37" y="0">tu</tspan><tspan class="cls-20" x="20.08" y="0">a</tspan><tspan class="cls-4" x="25.33" y="0">t</tspan><tspan x="28.91" y="0">e </tspan><tspan class="cls-21" x="36.75" y="0">f</tspan><tspan x="39.82" y="0">ocus </tspan><tspan class="cls-4" x="0" y="13.2">c</tspan><tspan x="4.86" y="13.2">o</tspan><tspan class="cls-7" x="10.9" y="13.2">r</tspan><tspan class="cls-3" x="14.54" y="13.2">r</tspan><tspan x="18.03" y="13.2">e</tspan><tspan class="cls-22" x="23.54" y="13.2">c</tspan><tspan x="28.61" y="13.2">tion, change </tspan><tspan x="0" y="26.4">lig</tspan><tspan class="cls-5" x="11.32" y="26.4">h</tspan><tspan x="17.38" y="26.4">t i</tspan><tspan class="cls-5" x="25.93" y="26.4">n</tspan><tspan class="cls-4" x="31.99" y="26.4">t</tspan><tspan x="35.56" y="26.4">ensi</tspan><tspan class="cls-23" x="54.11" y="26.4">t</tspan><tspan x="57.85" y="26.4">y</tspan></text><line class="cls-12" x1="312.31" y1="148.67" x2="334.06" y2="148.67"/><path class="cls-13" d="M345.45,154.68a30.2,30.2,0,0,0-8.55,4.76l1.72-4.76-1.72-4.75A30.18,30.18,0,0,0,345.45,154.68Z" transform="translate(-5.35 -6.02)"/><line class="cls-12" x1="128.65" y1="107.95" x2="128.65" y2="139.76"/><path class="cls-13" d="M134,151.82a30.2,30.2,0,0,0-4.76-8.55L134,145l4.75-1.72A30.18,30.18,0,0,0,134,151.82Z" transform="translate(-5.35 -6.02)"/><rect class="cls-1" x="340.63" y="135.59" width="51.28" height="26.16"/><text class="cls-2" transform="translate(343.88 145.19)"><tspan class="cls-24">F</tspan><tspan x="5.02" y="0">eedback </tspan><tspan x="0" y="13.2">decisions</tspan></text><line class="cls-12" x1="392.44" y1="148.18" x2="435.69" y2="148.18"/><path class="cls-13" d="M447.07,154.2a29.91,29.91,0,0,0-8.54,4.76l1.72-4.76-1.72-4.76A29.91,29.91,0,0,0,447.07,154.2Z" transform="translate(-5.35 -6.02)"/><text class="cls-2" transform="translate(419.52 141.78)"><tspan class="cls-25">Y</tspan><tspan x="5.11" y="0">es</tspan></text><line class="cls-12" x1="409.97" y1="113.99" x2="409.97" y2="147.86"/><path class="cls-13" d="M415.32,114a30.12,30.12,0,0,1-4.75,8.54l4.75-1.72,4.76,1.72A30.39,30.39,0,0,1,415.32,114Z" transform="translate(-5.35 -6.02)"/><line class="cls-12" x1="409.97" y1="107.95" x2="128.65" y2="107.95"/><text class="cls-2" transform="translate(391.91 124.67)">No</text><line class="cls-12" x1="480.62" y1="107.95" x2="480.62" y2="135.59"/><line class="cls-12" x1="480.62" y1="107.95" x2="409.97" y2="107.95"/><line class="cls-12" x1="175.59" y1="245.66" x2="175.59" y2="162.76"/><path class="cls-13" d="M180.94,257.71a30.31,30.31,0,0,1,4.75-8.55l-4.75,1.72-4.76-1.72A30.34,30.34,0,0,1,180.94,257.71Z" transform="translate(-5.35 -6.02)"/><rect class="cls-1" x="140.77" y="372.11" width="68.47" height="28.52"/><text class="cls-2" transform="translate(153.5 383.41)">Obje<tspan class="cls-19" x="22.02" y="0">c</tspan><tspan x="27.09" y="0">t </tspan><tspan x="0" y="13.2">de</tspan><tspan class="cls-4" x="11.71" y="13.2">t</tspan><tspan x="15.29" y="13.2">e</tspan><tspan class="cls-22" x="20.8" y="13.2">c</tspan><tspan x="25.87" y="13.2">tion</tspan></text><text class="cls-26" transform="translate(33.16 90.64)"><tspan class="cls-27">R</tspan><tspan x="7.05" y="0">ealtime loo</tspan><tspan class="cls-28" x="67.69" y="0">p</tspan><tspan x="74.77" y="0">, minimal del</tspan><tspan class="cls-29" x="144.21" y="0">a</tspan><tspan x="150.37" y="0">y</tspan></text><rect class="cls-1" x="329.76" y="290.53" width="64.97" height="26.16"/><text class="cls-30" transform="translate(331.05 301.5)"><tspan class="cls-31">T</tspan><tspan x="3.9" y="0">abul</tspan><tspan class="cls-32" x="20.44" y="0">a</tspan><tspan class="cls-33" x="24.74" y="0">t</tspan><tspan x="27.67" y="0">e </tspan><tspan x="0" y="10.8">de</tspan><tspan class="cls-33" x="9.58" y="10.8">t</tspan><tspan x="12.51" y="10.8">e</tspan><tspan class="cls-34" x="17.02" y="10.8">c</tspan><tspan x="21.17" y="10.8">tion </tspan><tspan class="cls-35" x="38.1" y="10.8">r</tspan><tspan x="40.95" y="10.8">esults</tspan></text><rect class="cls-1" x="23.48" y="476.48" width="75.39" height="26.16"/><text class="cls-14" transform="translate(27.08 486.14)"><tspan class="cls-15">A</tspan><tspan x="6.06" y="0">ssess </tspan><tspan class="cls-15" x="29.03" y="0">c</tspan><tspan x="33.45" y="0">oarse </tspan><tspan x="0" y="12">image </tspan><tspan class="cls-16" x="28.22" y="12">f</tspan><tspan x="31.01" y="12">e</tspan><tspan class="cls-17" x="36.02" y="12">a</tspan><tspan x="40.8" y="12">tu</tspan><tspan class="cls-18" x="49.62" y="12">r</tspan><tspan x="52.79" y="12">es</tspan></text><text class="cls-36" transform="translate(107.8 494.19)">=</text><text class="cls-14" transform="translate(126.36 478.57)">- <tspan class="cls-15" x="5.19" y="0">A</tspan><tspan x="11.25" y="0">ssess image </tspan><tspan class="cls-37" x="62.44" y="0">e</tspan><tspan x="67.42" y="0">xposu</tspan><tspan class="cls-38" x="92.7" y="0">r</tspan><tspan x="95.87" y="0">e</tspan><tspan x="0" y="12">- </tspan><tspan class="cls-39" x="5.19" y="12">Q</tspan><tspan x="12.11" y="12">ua</tspan><tspan class="cls-17" x="22.44" y="12">n</tspan><tspan x="27.95" y="12">tify </tspan><tspan class="cls-16" x="43.35" y="12">f</tspan><tspan x="46.14" y="12">ocus o</tspan><tspan class="cls-40" x="73.19" y="12">ff</tspan><tspan x="78.93" y="12">set</tspan><tspan x="0" y="24">- </tspan><tspan class="cls-41" x="5.19" y="24">F</tspan><tspan class="cls-42" x="9.8" y="24">r</tspan><tspan x="13.02" y="24">ame quali</tspan><tspan class="cls-43" x="53.97" y="24">t</tspan><tspan x="57.37" y="24">y </tspan><tspan class="cls-15" x="64.2" y="24">c</tspan><tspan x="68.62" y="24">o</tspan><tspan class="cls-17" x="74.11" y="24">n</tspan><tspan x="79.62" y="24">t</tspan><tspan class="cls-38" x="82.93" y="24">r</tspan><tspan x="86.1" y="24">ol:</tspan><tspan class="cls-44" x="96.02" y="24"> </tspan><tspan x="97.73" y="24">TBD</tspan></text><rect class="cls-1" x="236.89" y="255.08" width="64.97" height="26.16"/><text class="cls-2" transform="translate(244.11 270.66)"><tspan class="cls-45">T</tspan><tspan class="cls-46" x="4.97" y="0">r</tspan><tspan x="8.51" y="0">ack </tspan><tspan class="cls-4" x="26.24" y="0">c</tspan><tspan x="31.1" y="0">ells</tspan></text><polyline class="cls-12" points="546.77 190.02 546.77 196.02 540.77 196.02"/><line class="cls-47" x1="529" y1="196.02" x2="40.59" y2="196.02"/><polyline class="cls-12" points="34.71 196.02 28.71 196.02 28.71 190.02"/><line class="cls-48" x1="28.71" y1="177.93" x2="28.71" y2="87.2"/><polyline class="cls-12" points="28.71 81.15 28.71 75.15 34.71 75.15"/><line class="cls-47" x1="46.48" y1="75.15" x2="534.88" y2="75.15"/><polyline class="cls-12" points="540.77 75.15 546.77 75.15 546.77 81.15"/><line class="cls-48" x1="546.77" y1="93.25" x2="546.77" y2="183.98"/><rect class="cls-1" x="23.48" y="536.44" width="64.97" height="26.16"/><text class="cls-2" transform="translate(30.7 552.01)"><tspan class="cls-45">T</tspan><tspan class="cls-46" x="4.97" y="0">r</tspan><tspan x="8.51" y="0">ack </tspan><tspan class="cls-4" x="26.24" y="0">c</tspan><tspan x="31.1" y="0">ells</tspan></text><text class="cls-36" transform="translate(106.14 553.38)">=</text><text class="cls-14" transform="translate(124.7 538.7)">- <tspan class="cls-37" x="5.19" y="0">S</tspan><tspan class="cls-15" x="10.09" y="0">t</tspan><tspan x="13.34" y="0">o</tspan><tspan class="cls-38" x="18.83" y="0">r</tspan><tspan x="22" y="0">e </tspan><tspan class="cls-15" x="29.13" y="0">c</tspan><tspan x="33.55" y="0">ell positions</tspan><tspan x="0" y="24">- </tspan><tspan class="cls-49" x="5.19" y="24">I</tspan><tspan x="7.68" y="24">mpleme</tspan><tspan class="cls-17" x="42.43" y="24">n</tspan><tspan x="47.94" y="24">t algo</tspan><tspan class="cls-50" x="71.63" y="24">r</tspan><tspan x="74.94" y="24">ithm th</tspan><tspan class="cls-17" x="105.46" y="24">a</tspan><tspan x="110.24" y="24">t uses cu</tspan><tspan class="cls-50" x="146.22" y="24">r</tspan><tspan class="cls-38" x="149.53" y="24">r</tspan><tspan x="152.7" y="24">e</tspan><tspan class="cls-17" x="157.71" y="24">n</tspan><tspan x="163.22" y="24">t </tspan><tspan class="cls-15" x="168.65" y="24">c</tspan><tspan x="173.07" y="24">ell position </tspan><tspan x="0" y="36">and </tspan><tspan class="cls-38" x="18.13" y="36">v</tspan><tspan x="22.84" y="36">eloci</tspan><tspan class="cls-43" x="42.52" y="36">t</tspan><tspan x="45.92" y="36">y of the fl</tspan><tspan class="cls-51" x="84.5" y="36">o</tspan><tspan x="89.92" y="36">w st</tspan><tspan class="cls-18" x="106.67" y="36">r</tspan><tspan x="109.84" y="36">eam </tspan><tspan class="cls-15" x="130.13" y="36">t</tspan><tspan x="133.38" y="36">o assi</tspan><tspan class="cls-15" x="156.07" y="36">g</tspan><tspan x="161.6" y="36">n </tspan><tspan class="cls-15" x="169.27" y="36">c</tspan><tspan x="173.69" y="36">ell ide</tspan><tspan class="cls-17" x="198.53" y="36">n</tspan><tspan x="204.04" y="36">ti</tspan><tspan class="cls-43" x="209.69" y="36">t</tspan><tspan x="213.09" y="36">y </tspan><tspan x="0" y="48">(i</tspan><tspan class="cls-52" x="5.18" y="48">e</tspan><tspan x="10.07" y="48">. is this a new </tspan><tspan class="cls-53" x="66.94" y="48">c</tspan><tspan x="71.36" y="48">ell th</tspan><tspan class="cls-17" x="92.07" y="48">a</tspan><tspan x="96.85" y="48">t just e</tspan><tspan class="cls-17" x="124.62" y="48">n</tspan><tspan class="cls-15" x="130.13" y="48">t</tspan><tspan x="133.38" y="48">e</tspan><tspan class="cls-38" x="138.39" y="48">r</tspan><tspan x="141.56" y="48">ed the vie</tspan><tspan class="cls-54" x="182.48" y="48">w</tspan><tspan x="189.45" y="48">, or do </tspan><tspan class="cls-38" x="0" y="60">w</tspan><tspan x="7.26" y="60">e h</tspan><tspan class="cls-55" x="19.94" y="60">a</tspan><tspan class="cls-38" x="24.68" y="60">v</tspan><tspan x="29.39" y="60">e other images of this </tspan><tspan class="cls-15" x="121.26" y="60">c</tspan><tspan x="125.68" y="60">ell?)</tspan><tspan x="0" y="84">- </tspan><tspan class="cls-56" x="5.19" y="84">C</tspan><tspan x="10.88" y="84">ompu</tspan><tspan class="cls-15" x="35.91" y="84">t</tspan><tspan x="39.16" y="84">e upd</tspan><tspan class="cls-17" x="63.13" y="84">a</tspan><tspan class="cls-53" x="67.91" y="84">t</tspan><tspan x="71.16" y="84">ed fl</tspan><tspan class="cls-57" x="89.16" y="84">o</tspan><tspan x="94.58" y="84">w </tspan><tspan class="cls-18" x="104.06" y="84">v</tspan><tspan x="108.77" y="84">eloci</tspan><tspan class="cls-43" x="128.45" y="84">t</tspan><tspan x="131.85" y="84">y estim</tspan><tspan class="cls-17" x="161.64" y="84">a</tspan><tspan class="cls-15" x="166.42" y="84">t</tspan><tspan x="169.67" y="84">e</tspan></text><line class="cls-12" x1="302.06" y1="267.61" x2="323.81" y2="267.61"/><path class="cls-13" d="M335.19,273.62a30.39,30.39,0,0,0-8.54,4.76l1.72-4.76-1.72-4.75A30.12,30.12,0,0,0,335.19,273.62Z" transform="translate(-5.35 -6.02)"/><rect class="cls-1" x="329.44" y="255.35" width="64.97" height="26.16"/><text class="cls-2" transform="translate(332.66 265.93)"><tspan class="cls-58">A</tspan><tspan x="6.6" y="0">djust fl</tspan><tspan class="cls-11" x="37.62" y="0">o</tspan><tspan x="43.58" y="0">w</tspan><tspan x="0" y="13.2"> </tspan><tspan class="cls-3" x="2.33" y="13.2">v</tspan><tspan x="7.51" y="13.2">eloci</tspan><tspan class="cls-23" x="29.16" y="13.2">t</tspan><tspan x="32.9" y="13.2">y</tspan></text><line class="cls-12" x1="322.4" y1="303.61" x2="310.54" y2="303.61"/><path class="cls-13" d="M333.79,309.62a30.18,30.18,0,0,1-8.55-4.75l1.72,4.75-1.72,4.76A30.2,30.2,0,0,1,333.79,309.62Z" transform="translate(-5.35 -6.02)"/><line class="cls-12" x1="310.54" y1="303.61" x2="310.54" y2="267.61"/><text class="cls-59" transform="translate(20.64 454.21)"><tspan class="cls-60">D</tspan><tspan x="10.72" y="0">efinitions</tspan></text><polyline class="cls-12" points="546.77 329.54 546.77 335.54 540.77 335.54"/><line class="cls-61" x1="528.95" y1="335.54" x2="38.61" y2="335.54"/><polyline class="cls-12" points="32.71 335.54 26.71 335.54 26.71 329.54"/><line class="cls-62" x1="26.71" y1="316.95" x2="26.71" y2="222.52"/><polyline class="cls-12" points="26.71 216.23 26.71 210.23 32.71 210.23"/><line class="cls-61" x1="44.52" y1="210.23" x2="534.86" y2="210.23"/><polyline class="cls-12" points="540.77 210.23 546.77 210.23 546.77 216.23"/><line class="cls-62" x1="546.77" y1="228.82" x2="546.77" y2="323.25"/><text class="cls-26" transform="translate(30.03 331.24)"><tspan class="cls-63">I</tspan><tspan x="3.24" y="0">nstrume</tspan><tspan class="cls-64" x="48.67" y="0">n</tspan><tspan x="55.83" y="0">t </tspan><tspan class="cls-65" x="62.89" y="0">c</tspan><tspan x="68.64" y="0">o</tspan><tspan class="cls-66" x="75.78" y="0">r</tspan><tspan x="79.9" y="0">e</tspan></text><rect class="cls-1" x="95.25" y="258.52" width="27.82" height="16.66"/><text class="cls-2" transform="translate(99.39 269.41)">Run</text><rect class="cls-1" x="120.41" y="667.92" width="245.35" height="104.82"/><rect class="cls-1" x="23.48" y="678.43" width="75.39" height="26.16"/><text class="cls-14" transform="translate(27.08 694.1)">Upd<tspan class="cls-17" x="17.8" y="0">a</tspan><tspan class="cls-15" x="22.58" y="0">t</tspan><tspan x="25.83" y="0">e displ</tspan><tspan class="cls-55" x="52.95" y="0">a</tspan><tspan x="57.69" y="0">y</tspan></text><text class="cls-36" transform="translate(107.8 696.15)">=</text><text class="cls-14" transform="translate(126.36 680.53)">- Upd<tspan class="cls-17" x="22.99" y="0">a</tspan><tspan class="cls-15" x="27.77" y="0">t</tspan><tspan x="31.02" y="0">e image axis with most </tspan><tspan class="cls-18" x="128.14" y="0">r</tspan><tspan x="131.31" y="0">e</tspan><tspan class="cls-15" x="136.32" y="0">c</tspan><tspan x="140.74" y="0">e</tspan><tspan class="cls-17" x="145.75" y="0">n</tspan><tspan x="151.26" y="0">t annot</tspan><tspan class="cls-17" x="181.41" y="0">a</tspan><tspan class="cls-15" x="186.19" y="0">t</tspan><tspan x="189.44" y="0">ed image</tspan><tspan x="0" y="24">- Upd</tspan><tspan class="cls-17" x="22.99" y="24">a</tspan><tspan class="cls-15" x="27.77" y="24">t</tspan><tspan x="31.02" y="24">e bar plot with a</tspan><tspan class="cls-53" x="98.52" y="24">c</tspan><tspan class="cls-67" x="102.94" y="24">cumul</tspan><tspan class="cls-17" x="129.14" y="24">a</tspan><tspan class="cls-15" x="133.92" y="24">t</tspan><tspan x="137.17" y="24">ed </tspan><tspan class="cls-15" x="149.94" y="24">c</tspan><tspan x="154.36" y="24">ou</tspan><tspan class="cls-17" x="165.36" y="24">n</tspan><tspan x="170.87" y="24">ting st</tspan><tspan class="cls-17" x="197.05" y="24">a</tspan><tspan x="201.83" y="24">ts </tspan><tspan x="0" y="36">(number of each pa</tspan><tspan class="cls-42" x="81.35" y="36">r</tspan><tspan x="84.57" y="36">asi</tspan><tspan class="cls-15" x="95.69" y="36">t</tspan><tspan x="98.94" y="36">e stage de</tspan><tspan class="cls-15" x="141.53" y="36">t</tspan><tspan x="144.78" y="36">e</tspan><tspan class="cls-68" x="149.79" y="36">c</tspan><tspan class="cls-15" x="154.4" y="36">t</tspan><tspan x="157.65" y="36">e</tspan><tspan class="cls-18" x="162.66" y="36">d</tspan><tspan x="168.2" y="36">, </tspan><tspan class="cls-15" x="172.39" y="36">t</tspan><tspan x="175.64" y="36">otal number </tspan><tspan x="0" y="48">of </tspan><tspan class="cls-15" x="10.53" y="48">c</tspan><tspan x="14.95" y="48">ells)</tspan><tspan x="0" y="72">- Upd</tspan><tspan class="cls-17" x="22.99" y="72">a</tspan><tspan class="cls-15" x="27.77" y="72">t</tspan><tspan x="31.02" y="72">e in</tspan><tspan class="cls-16" x="46.04" y="72">f</tspan><tspan x="48.83" y="72">o panel with summa</tspan><tspan class="cls-69" x="133.64" y="72">r</tspan><tspan x="137.16" y="72">y of </tspan><tspan class="cls-18" x="154.52" y="72">r</tspan><tspan x="157.69" y="72">esult</tspan><tspan class="cls-56" x="177.84" y="72">s</tspan><tspan x="181.69" y="72">, 95% and </tspan><tspan x="0" y="84">99% </tspan><tspan class="cls-15" x="20.3" y="84">c</tspan><tspan x="24.72" y="84">onfiden</tspan><tspan class="cls-15" x="57.19" y="84">c</tspan><tspan x="61.61" y="84">e wind</tspan><tspan class="cls-51" x="89.63" y="84">o</tspan><tspan class="cls-15" x="95.05" y="84">w</tspan><tspan x="102.35" y="84">s of the dia</tspan><tspan class="cls-53" x="147.75" y="84">g</tspan><tspan x="153.28" y="84">nostic</tspan></text><rect class="cls-1" x="415.83" y="290.53" width="75.39" height="26.16"/><text class="cls-14" transform="translate(420.43 306.19)">Upd<tspan class="cls-17" x="17.8" y="0">a</tspan><tspan class="cls-15" x="22.58" y="0">t</tspan><tspan x="25.83" y="0">e displ</tspan><tspan class="cls-55" x="52.95" y="0">a</tspan><tspan x="57.69" y="0">y</tspan></text><rect class="cls-1" x="44.8" y="258.3" width="34.89" height="16.66"/><text class="cls-2" transform="translate(48.95 269.19)"><tspan class="cls-70">S</tspan><tspan x="5.49" y="0">etup</tspan></text><polyline class="cls-12" points="338.94 406.16 338.94 412.16 332.94 412.16"/><line class="cls-71" x1="320.91" y1="412.16" x2="110.4" y2="412.16"/><polyline class="cls-12" points="104.38 412.16 98.38 412.16 98.38 406.16"/><line class="cls-72" x1="98.38" y1="391.8" x2="98.38" y2="370.26"/><polyline class="cls-12" points="98.38 363.08 98.38 357.08 104.38 357.08"/><line class="cls-71" x1="116.41" y1="357.08" x2="326.92" y2="357.08"/><polyline class="cls-12" points="332.94 357.08 338.94 357.08 338.94 363.08"/><line class="cls-72" x1="338.94" y1="377.44" x2="338.94" y2="398.98"/><text class="cls-26" transform="translate(101.05 369.82)"><tspan class="cls-73">C</tspan><tspan x="7.4" y="0">o</tspan><tspan class="cls-74" x="14.53" y="0">r</tspan><tspan x="18.72" y="0">al</tspan></text><line class="cls-12" x1="63.01" y1="173.79" x2="63.01" y2="252.64"/><path class="cls-13" d="M68.36,173.77a30.1,30.1,0,0,1-4.76,8.55l4.76-1.72,4.76,1.72A30.1,30.1,0,0,1,68.36,173.77Z" transform="translate(-5.35 -6.02)"/><line class="cls-12" x1="409.26" y1="303.61" x2="396.4" y2="303.61"/><path class="cls-13" d="M420.65,309.62a30.18,30.18,0,0,1-8.55-4.75l1.72,4.75-1.72,4.76A30.2,30.2,0,0,1,420.65,309.62Z" transform="translate(-5.35 -6.02)"/><rect class="cls-1" x="147.49" y="254.09" width="64.97" height="26.16"/><text class="cls-2" transform="translate(148.77 263.48)">most <tspan class="cls-3" x="25.54" y="0">r</tspan><tspan x="29.03" y="0">e</tspan><tspan class="cls-4" x="34.54" y="0">c</tspan><tspan x="39.4" y="0">e</tspan><tspan class="cls-5" x="44.91" y="0">n</tspan><tspan x="50.97" y="0">t </tspan><tspan x="0" y="13.2">num</tspan><tspan class="cls-6" x="21.34" y="13.2">p</tspan><tspan x="27.52" y="13.2">y a</tspan><tspan class="cls-7" x="40.34" y="13.2">r</tspan><tspan class="cls-8" x="43.98" y="13.2">r</tspan><tspan class="cls-9" x="47.52" y="13.2">a</tspan><tspan x="52.73" y="13.2">y</tspan></text><line class="cls-12" x1="105.34" y1="173.82" x2="105.34" y2="252.67"/><path class="cls-13" d="M110.69,173.8a30,30,0,0,1-4.76,8.55l4.76-1.72,4.75,1.72A30.18,30.18,0,0,1,110.69,173.8Z" transform="translate(-5.35 -6.02)"/><line class="cls-12" x1="175.59" y1="362.75" x2="175.59" y2="282.57"/><path class="cls-13" d="M180.94,374.8a30.31,30.31,0,0,1,4.75-8.55L180.94,368l-4.76-1.72A30.34,30.34,0,0,1,180.94,374.8Z" transform="translate(-5.35 -6.02)"/><line class="cls-12" x1="209.24" y1="386.93" x2="230.99" y2="386.93"/><path class="cls-13" d="M242.38,393a30.18,30.18,0,0,0-8.55,4.75l1.72-4.75-1.72-4.76A30.2,30.2,0,0,0,242.38,393Z" transform="translate(-5.35 -6.02)"/><text class="cls-75" transform="translate(177.42 306.27)">Run <tspan x="0" y="14.4">de</tspan><tspan class="cls-76" x="12.78" y="14.4">t</tspan><tspan x="16.68" y="14.4">e</tspan><tspan class="cls-77" x="22.69" y="14.4">c</tspan><tspan x="28.22" y="14.4">tion?</tspan></text><rect class="cls-1" x="238.17" y="373.85" width="64.97" height="26.16"/><text class="cls-2" transform="translate(240.84 383.41)">BB<tspan class="cls-78" x="11.92" y="0">s</tspan><tspan class="cls-79" x="16.16" y="0">,</tspan><tspan class="cls-80" x="0" y="13.2">C</tspan><tspan x="6.26" y="13.2">onfiden</tspan><tspan class="cls-81" x="41.98" y="13.2">c</tspan><tspan x="46.84" y="13.2">es</tspan></text><line class="cls-12" x1="269.37" y1="287.54" x2="269.37" y2="368.78"/><path class="cls-13" d="M274.72,287.52a30,30,0,0,1-4.76,8.55l4.76-1.72,4.76,1.72A30,30,0,0,1,274.72,287.52Z" transform="translate(-5.35 -6.02)"/><line class="cls-12" x1="310.54" y1="267.61" x2="310.54" y2="231.61"/><line class="cls-12" x1="322.4" y1="231.61" x2="310.54" y2="231.61"/><path class="cls-13" d="M333.79,237.62a30.18,30.18,0,0,1-8.55-4.75l1.72,4.75-1.72,4.76A30.2,30.2,0,0,1,333.79,237.62Z" transform="translate(-5.35 -6.02)"/><rect class="cls-1" x="329.44" y="223.45" width="64.97" height="26.16"/><text class="cls-2" transform="translate(332.66 234.03)"><tspan class="cls-82">S</tspan><tspan class="cls-9" x="5.46" y="0">a</tspan><tspan class="cls-3" x="10.67" y="0">v</tspan><tspan x="15.85" y="0">e RBC </tspan><tspan x="0" y="13.2">thumbnails</tspan></text><text class="cls-59" transform="translate(0 13.39)">U<tspan class="cls-83" x="10.35" y="0">L</tspan><tspan class="cls-84" x="17.28" y="0">C </tspan><tspan class="cls-85" x="29.95" y="0">M</tspan><tspan x="42.91" y="0">ala</tspan><tspan class="cls-60" x="62.11" y="0">r</tspan><tspan x="67.41" y="0">ia </tspan><tspan class="cls-86" x="82.25" y="0">S</tspan><tspan class="cls-76" x="90.24" y="0">c</tspan><tspan x="97.31" y="0">op</tspan><tspan class="cls-87" x="115.2" y="0">e</tspan><tspan x="123.02" y="0">, </tspan><tspan class="cls-88" x="129.72" y="0">P</tspan><tspan class="cls-38" x="137.98" y="0">r</tspan><tspan class="cls-84" x="143.05" y="0">o</tspan><tspan class="cls-89" x="151.84" y="0">c</tspan><tspan x="158.91" y="0">ess </tspan><tspan class="cls-90" x="182.99" y="0">F</tspan><tspan x="190.51" y="0">l</tspan><tspan class="cls-91" x="194.28" y="0">o</tspan><tspan x="202.95" y="0">w</tspan></text></svg>