M48
; DRILL file {KiCad (5.1.10-1-10_14)} date Wednesday, April 27, 2022 at 11:01:36 AM
; FORMAT={-:-/ absolute / inch / decimal}
; #@! TF.CreationDate,2022-04-27T11:01:36-07:00
; #@! TF.GenerationSoftware,Kicad,Pcbnew,(5.1.10-1-10_14)
FMAT,2
INCH
T1C0.0118
T2C0.0157
T3C0.0197
T4C0.0236
T5C0.0276
T6C0.0315
T7C0.0394
T8C0.0598
T9C0.0630
T10C0.0728
T11C0.1063
T12C0.1260
T13C0.0413
T14C0.0890
T15C0.1000
T16C0.1063
T17C0.1571
%
G90
G05
T1
X9.7113Y-4.3112
X9.7113Y-4.3624
X9.7113Y-4.4135
X9.7624Y-4.3112
X9.7624Y-4.3624
X9.7624Y-4.4135
X9.8136Y-4.3112
X9.8136Y-4.3624
X9.8136Y-4.4135
X9.8648Y-4.3112
X9.8648Y-4.3624
X9.8648Y-4.4135
X9.916Y-4.3112
X9.916Y-4.3624
X9.916Y-4.4135
X9.9672Y-4.3112
X9.9672Y-4.3624
X9.9672Y-4.4135
X10.0183Y-4.3112
X10.0183Y-4.3624
X10.0183Y-4.4135
X11.0099Y-5.2011
X11.0099Y-5.2247
X11.0099Y-5.2483
X11.0099Y-5.2719
X11.0099Y-5.2955
X11.0413Y-5.2011
X11.0413Y-5.2247
X11.0413Y-5.2483
X11.0413Y-5.2719
X11.0413Y-5.2955
T2
X8.504Y-4.3395
X9.755Y-4.1845
X9.791Y-4.1845
X9.7999Y-4.554
X9.7999Y-4.587
X9.8205Y-4.611
X9.8553Y-4.5709
X9.8555Y-4.604
X9.8839Y-4.551
X9.8839Y-4.584
X9.9075Y-4.7046
X9.93Y-4.6061
X9.9455Y-4.547
X9.9467Y-4.5758
X10.075Y-4.602
X10.913Y-5.4246
X10.913Y-5.464
X10.9177Y-5.0641
X10.9177Y-5.1035
X10.9523Y-5.4246
X10.9523Y-5.464
X10.957Y-5.0641
X10.957Y-5.1035
X10.9917Y-5.4246
X10.9917Y-5.464
X10.9964Y-5.0641
X10.9964Y-5.1035
X11.0311Y-5.4246
X11.0311Y-5.464
X11.0358Y-5.0641
X11.0358Y-5.1035
X11.0704Y-5.4246
X11.0704Y-5.464
X11.0751Y-5.0641
X11.0751Y-5.1035
X11.1098Y-5.4246
X11.1098Y-5.464
X11.1145Y-5.0641
X11.1145Y-5.1035
T3
X8.7522Y-6.5583
X8.8014Y-6.5583
X8.9535Y-5.081
X9.0027Y-5.081
X10.9388Y-3.8394
X10.939Y-4.1064
X10.943Y-4.3464
X10.988Y-3.8394
X10.9883Y-4.1064
X10.9923Y-4.3464
X11.2328Y-3.8394
X11.282Y-3.8394
X11.731Y-4.5674
X11.7803Y-4.5674
T4
X8.219Y-5.3895
X8.422Y-4.9715
X8.5189Y-6.5376
X8.531Y-5.5605
X8.5354Y-4.3701
X8.554Y-5.7275
X8.5589Y-6.5811
X8.591Y-4.8215
X8.594Y-4.8705
X8.6299Y-4.3189
X8.64Y-6.122
X8.686Y-4.4855
X8.7488Y-4.4277
X8.864Y-4.4405
X8.936Y-6.1045
X8.939Y-4.8655
X9.038Y-4.4495
X9.0605Y-4.175
X9.1395Y-4.567
X9.1415Y-4.1815
X9.173Y-4.3895
X9.218Y-4.1805
X9.274Y-4.3885
X9.307Y-4.8985
X9.363Y-4.6635
X9.428Y-4.6495
X9.4445Y-4.532
X9.4811Y-4.3754
X9.5158Y-5.6908
X9.836Y-4.0465
X9.9525Y-4.1875
X10.555Y-5.2148
X10.555Y-5.2739
X10.555Y-5.333
X10.555Y-5.392
X10.555Y-5.4511
X10.555Y-5.5101
X10.614Y-5.2148
X10.614Y-5.2739
X10.614Y-5.333
X10.614Y-5.392
X10.614Y-5.4511
X10.614Y-5.5101
X10.6731Y-5.2148
X10.6731Y-5.2739
X10.6731Y-5.333
X10.6731Y-5.392
X10.6731Y-5.4511
X10.6731Y-5.5101
X10.7321Y-5.2739
X10.7321Y-5.333
X10.7321Y-5.392
X10.7321Y-5.4511
X10.7321Y-5.5101
X10.7321Y-5.5692
X10.7321Y-5.6282
X10.7321Y-5.6873
X10.7361Y-4.7896
X10.7361Y-4.8487
X10.7361Y-4.9078
X10.7912Y-5.333
X10.7912Y-5.392
X10.7912Y-5.4511
X10.7912Y-5.5101
X10.7912Y-5.5692
X10.7912Y-5.6282
X10.7912Y-5.6873
X10.7951Y-4.7896
X10.8503Y-5.1558
X10.8503Y-5.2148
X10.8503Y-5.333
X10.8503Y-5.392
X10.8503Y-5.4511
X10.8503Y-5.5101
X10.8503Y-5.5692
X10.8503Y-5.6282
X10.8503Y-5.6873
X10.8542Y-4.7896
X10.9093Y-5.5101
X10.9093Y-5.5692
X10.9093Y-5.6282
X10.9093Y-5.6873
X10.9133Y-4.7896
X10.9133Y-4.8487
X10.9133Y-4.9078
X10.9133Y-4.9668
X10.9684Y-5.5101
X10.9684Y-5.5692
X10.9684Y-5.6282
X10.9684Y-5.6873
X10.9723Y-4.7896
X10.9723Y-4.8487
X10.9723Y-4.9078
X10.9723Y-4.9668
X11.0274Y-5.5101
X11.0274Y-5.5692
X11.0274Y-5.6282
X11.0274Y-5.6873
X11.0314Y-4.7896
X11.0314Y-4.8487
X11.0314Y-4.9078
X11.0314Y-4.9668
X11.0865Y-5.5101
X11.0865Y-5.5692
X11.0865Y-5.6282
X11.0865Y-5.6873
X11.0904Y-4.7896
X11.0904Y-4.8487
X11.0904Y-4.9078
X11.0904Y-4.9668
X11.1455Y-5.5101
X11.1455Y-5.5692
X11.1455Y-5.6282
X11.1455Y-5.6873
X11.1495Y-4.7896
X11.1495Y-4.8487
X11.1495Y-4.9078
X11.2046Y-5.333
X11.2046Y-5.5692
X11.2046Y-5.6282
X11.2046Y-5.6873
X11.2085Y-4.7896
X11.2085Y-4.8487
X11.2085Y-4.9078
X11.2109Y-4.0399
X11.216Y-4.3504
X11.2268Y-4.1902
X11.2636Y-5.2148
X11.2636Y-5.2739
X11.2636Y-5.333
X11.2636Y-5.5692
X11.2636Y-5.6282
X11.2636Y-5.6873
X11.2676Y-4.7896
X11.2676Y-4.8487
X11.2676Y-4.9078
X11.3227Y-5.1558
X11.3227Y-5.2148
X11.3227Y-5.2739
X11.3227Y-5.333
X11.3227Y-5.392
X11.3227Y-5.4511
X11.3227Y-5.5101
X11.3227Y-5.5692
X11.3227Y-5.6282
X11.3227Y-5.6873
X11.3266Y-4.7896
X11.3809Y-4.1899
X11.3818Y-4.9786
X11.3818Y-5.0377
X11.3818Y-5.0967
X11.3818Y-5.1558
X11.3818Y-5.2148
X11.3818Y-5.2739
X11.3818Y-5.333
X11.3818Y-5.392
X11.3818Y-5.4511
X11.3818Y-5.5101
X11.4408Y-4.9786
X11.4408Y-5.0377
X11.4408Y-5.0967
X11.4408Y-5.1558
X11.4408Y-5.333
X11.4408Y-5.392
X11.4408Y-5.4511
X11.4408Y-5.5101
X11.4999Y-4.9786
X11.4999Y-5.0377
X11.4999Y-5.0967
X11.4999Y-5.1558
X11.4999Y-5.333
X11.4999Y-5.392
X11.4999Y-5.4511
X11.4999Y-5.5101
X11.702Y-4.0299
T5
X7.879Y-5.2985
X7.915Y-5.5135
X8.057Y-5.5138
X8.171Y-4.6405
X8.1909Y-6.4846
X8.2019Y-6.1516
X8.212Y-5.3005
X8.2329Y-6.4846
X8.26Y-4.8185
X8.2643Y-6.1524
X8.265Y-4.9195
X8.399Y-4.5045
X8.4185Y-4.3146
X8.423Y-5.1175
X8.4449Y-4.0472
X8.4449Y-4.1496
X8.491Y-4.6835
X8.5006Y-6.1692
X8.506Y-6.373
X8.506Y-6.4242
X8.5532Y-6.373
X8.5532Y-6.4242
X8.5539Y-6.3243
X8.554Y-5.9775
X8.564Y-4.017
X8.604Y-4.233
X8.611Y-5.5875
X8.632Y-4.4505
X8.678Y-5.8945
X8.69Y-5.5625
X8.732Y-5.5075
X8.746Y-6.3086
X8.804Y-4.1695
X8.894Y-4.2865
X8.911Y-5.4945
X8.957Y-5.8215
X9.065Y-4.9545
X9.102Y-5.6855
X9.119Y-6.061
X9.122Y-5.3881
X9.1234Y-5.4795
X9.154Y-5.1745
X9.208Y-6.244
X9.2095Y-6.0595
X9.2105Y-6.153
X9.2115Y-5.8945
X9.216Y-5.5711
X9.2185Y-5.4801
X9.222Y-5.3866
X9.266Y-5.7775
X9.3Y-4.1775
X9.367Y-4.9575
X9.3845Y-5.2156
X9.407Y-6.0505
X9.4345Y-4.8175
X9.444Y-5.1005
X9.464Y-5.7575
X9.5Y-5.9855
X9.591Y-4.6179
X9.618Y-4.238
X9.6355Y-4.66
X9.6825Y-4.937
X9.8625Y-4.7045
X10.0454Y-4.6726
X10.0725Y-4.247
X10.1175Y-4.467
T6
X9.8835Y-4.7746
X9.8835Y-4.8533
X10.245Y-4.09
X10.245Y-4.29
X10.345Y-4.19
T7
X8.2035Y-3.7886
X8.2035Y-3.8886
X8.2146Y-4.0709
X8.2146Y-4.1709
X8.2146Y-4.2709
X8.2146Y-4.3709
X8.2146Y-4.4709
X8.3035Y-3.7886
X8.3035Y-3.8886
X8.4035Y-3.7886
X8.4035Y-3.8886
X8.5035Y-3.7886
X8.5035Y-3.8886
X8.6035Y-3.7886
X8.6035Y-3.8886
X8.7035Y-3.7886
X8.7035Y-3.8886
X8.8035Y-3.7886
X8.8035Y-3.8886
X8.9035Y-3.7886
X8.9035Y-3.8886
X9.0035Y-3.7886
X9.0035Y-3.8886
X9.1035Y-3.7886
X9.1035Y-3.8886
X9.2035Y-3.7886
X9.2035Y-3.8886
X9.3035Y-3.7886
X9.3035Y-3.8886
X9.4035Y-3.7886
X9.4035Y-3.8886
X9.5035Y-3.7886
X9.5035Y-3.8886
X9.6035Y-3.7886
X9.6035Y-3.8886
X9.7035Y-3.7886
X9.7035Y-3.8886
X9.8035Y-3.7886
X9.8035Y-3.8886
X9.9035Y-3.7886
X9.9035Y-3.8886
X10.0035Y-3.7886
X10.0035Y-3.8886
X10.1035Y-3.7886
X10.1035Y-3.8886
X11.5434Y-3.8349
X11.6434Y-3.8349
X11.7434Y-3.8349
T8
X9.8477Y-5.1812
X9.8477Y-5.3812
T9
X8.0051Y-6.012
X8.0057Y-6.2056
X8.0098Y-4.1201
X8.0098Y-4.311
X9.0016Y-6.5635
X9.2129Y-6.5645
X9.4253Y-6.5665
X10.277Y-4.4505
T10
X9.7027Y-6.338
X10.2224Y-6.338
T11
X8.0118Y-3.8386
X8.0118Y-5.7677
X10.2953Y-3.8386
X10.2953Y-5.7677
T12
X8.0118Y-6.5157
T13
X10.8091Y-4.8772
X11.4587Y-5.2522
T14
X10.6122Y-4.8585
X10.6122Y-5.6459
X11.439Y-4.8585
X11.439Y-5.6459
T15
X9.9477Y-5.2812
T16
X10.6337Y-3.8386
X10.6337Y-4.5472
X12.366Y-3.8386
X12.366Y-4.5472
T17
X10.2477Y-5.1312
X10.2477Y-5.4312
T0
M30
