G04 #@! TF.GenerationSoftware,KiCad,Pcbnew,(5.1.10-1-10_14)*
G04 #@! TF.CreationDate,2022-04-27T11:01:26-07:00*
G04 #@! TF.ProjectId,ulc-mm,756c632d-6d6d-42e6-9b69-6361645f7063,rev?*
G04 #@! TF.SameCoordinates,Original*
G04 #@! TF.FileFunction,Copper,L4,Bot*
G04 #@! TF.FilePolarity,Positive*
%FSLAX46Y46*%
G04 Gerber Fmt 4.6, Leading zero omitted, Abs format (unit mm)*
G04 Created by KiCad (PCBNEW (5.1.10-1-10_14)) date 2022-04-27 11:01:26*
%MOMM*%
%LPD*%
G01*
G04 APERTURE LIST*
G04 #@! TA.AperFunction,ComponentPad*
%ADD10R,1.700000X1.700000*%
G04 #@! TD*
G04 #@! TA.AperFunction,ComponentPad*
%ADD11O,1.700000X1.700000*%
G04 #@! TD*
G04 #@! TA.AperFunction,ComponentPad*
%ADD12O,0.800000X1.300000*%
G04 #@! TD*
G04 #@! TA.AperFunction,ComponentPad*
%ADD13C,2.800000*%
G04 #@! TD*
G04 #@! TA.AperFunction,ComponentPad*
%ADD14C,0.300000*%
G04 #@! TD*
G04 #@! TA.AperFunction,ComponentPad*
%ADD15C,3.960000*%
G04 #@! TD*
G04 #@! TA.AperFunction,ComponentPad*
%ADD16R,1.600000X1.600000*%
G04 #@! TD*
G04 #@! TA.AperFunction,ComponentPad*
%ADD17C,1.600000*%
G04 #@! TD*
G04 #@! TA.AperFunction,SMDPad,CuDef*
%ADD18R,1.470000X3.000000*%
G04 #@! TD*
G04 #@! TA.AperFunction,SMDPad,CuDef*
%ADD19R,4.400000X3.400000*%
G04 #@! TD*
G04 #@! TA.AperFunction,ComponentPad*
%ADD20C,1.440000*%
G04 #@! TD*
G04 #@! TA.AperFunction,ComponentPad*
%ADD21R,2.280000X2.280000*%
G04 #@! TD*
G04 #@! TA.AperFunction,ComponentPad*
%ADD22C,2.280000*%
G04 #@! TD*
G04 #@! TA.AperFunction,SMDPad,CuDef*
%ADD23R,0.700000X0.450000*%
G04 #@! TD*
G04 #@! TA.AperFunction,SMDPad,CuDef*
%ADD24R,0.500000X3.300000*%
G04 #@! TD*
G04 #@! TA.AperFunction,SMDPad,CuDef*
%ADD25R,1.300000X3.300000*%
G04 #@! TD*
G04 #@! TA.AperFunction,ComponentPad*
%ADD26C,5.400000*%
G04 #@! TD*
G04 #@! TA.AperFunction,ComponentPad*
%ADD27C,6.400000*%
G04 #@! TD*
G04 #@! TA.AperFunction,ViaPad*
%ADD28C,1.000000*%
G04 #@! TD*
G04 #@! TA.AperFunction,ViaPad*
%ADD29C,0.600000*%
G04 #@! TD*
G04 #@! TA.AperFunction,ViaPad*
%ADD30C,0.900000*%
G04 #@! TD*
G04 #@! TA.AperFunction,Conductor*
%ADD31C,0.500000*%
G04 #@! TD*
G04 #@! TA.AperFunction,Conductor*
%ADD32C,0.750000*%
G04 #@! TD*
G04 #@! TA.AperFunction,Conductor*
%ADD33C,0.200000*%
G04 #@! TD*
G04 #@! TA.AperFunction,Conductor*
%ADD34C,0.350000*%
G04 #@! TD*
G04 APERTURE END LIST*
D10*
X208370000Y-98770000D03*
D11*
X208370000Y-96230000D03*
X210910000Y-98770000D03*
X210910000Y-96230000D03*
X213450000Y-98770000D03*
X213450000Y-96230000D03*
X215990000Y-98770000D03*
X215990000Y-96230000D03*
X218530000Y-98770000D03*
X218530000Y-96230000D03*
X221070000Y-98770000D03*
X221070000Y-96230000D03*
X223610000Y-98770000D03*
X223610000Y-96230000D03*
X226150000Y-98770000D03*
X226150000Y-96230000D03*
X228690000Y-98770000D03*
X228690000Y-96230000D03*
X231230000Y-98770000D03*
X231230000Y-96230000D03*
X233770000Y-98770000D03*
X233770000Y-96230000D03*
X236310000Y-98770000D03*
X236310000Y-96230000D03*
X238850000Y-98770000D03*
X238850000Y-96230000D03*
X241390000Y-98770000D03*
X241390000Y-96230000D03*
X243930000Y-98770000D03*
X243930000Y-96230000D03*
X246470000Y-98770000D03*
X246470000Y-96230000D03*
X249010000Y-98770000D03*
X249010000Y-96230000D03*
X251550000Y-98770000D03*
X251550000Y-96230000D03*
X254090000Y-98770000D03*
X254090000Y-96230000D03*
X256630000Y-98770000D03*
X256630000Y-96230000D03*
D12*
X222305960Y-166581120D03*
G04 #@! TA.AperFunction,ComponentPad*
G36*
G01*
X223955960Y-166131120D02*
X223955960Y-167031120D01*
G75*
G02*
X223755960Y-167231120I-200000J0D01*
G01*
X223355960Y-167231120D01*
G75*
G02*
X223155960Y-167031120I0J200000D01*
G01*
X223155960Y-166131120D01*
G75*
G02*
X223355960Y-165931120I200000J0D01*
G01*
X223755960Y-165931120D01*
G75*
G02*
X223955960Y-166131120I0J-200000D01*
G01*
G37*
G04 #@! TD.AperFunction*
D13*
X228639800Y-166714000D03*
X261036200Y-113043000D03*
X203450000Y-109500000D03*
X234008600Y-166739400D03*
X203450000Y-104650000D03*
X203345180Y-157622540D03*
X239402800Y-166790200D03*
X203329940Y-152705100D03*
G04 #@! TA.AperFunction,SMDPad,CuDef*
G36*
G01*
X211190600Y-111161000D02*
X211190600Y-110861000D01*
G75*
G02*
X211340600Y-110711000I150000J0D01*
G01*
X213090600Y-110711000D01*
G75*
G02*
X213240600Y-110861000I0J-150000D01*
G01*
X213240600Y-111161000D01*
G75*
G02*
X213090600Y-111311000I-150000J0D01*
G01*
X211340600Y-111311000D01*
G75*
G02*
X211190600Y-111161000I0J150000D01*
G01*
G37*
G04 #@! TD.AperFunction*
G04 #@! TA.AperFunction,SMDPad,CuDef*
G36*
G01*
X211190600Y-109891000D02*
X211190600Y-109591000D01*
G75*
G02*
X211340600Y-109441000I150000J0D01*
G01*
X213090600Y-109441000D01*
G75*
G02*
X213240600Y-109591000I0J-150000D01*
G01*
X213240600Y-109891000D01*
G75*
G02*
X213090600Y-110041000I-150000J0D01*
G01*
X211340600Y-110041000D01*
G75*
G02*
X211190600Y-109891000I0J150000D01*
G01*
G37*
G04 #@! TD.AperFunction*
G04 #@! TA.AperFunction,SMDPad,CuDef*
G36*
G01*
X211190600Y-108621000D02*
X211190600Y-108321000D01*
G75*
G02*
X211340600Y-108171000I150000J0D01*
G01*
X213090600Y-108171000D01*
G75*
G02*
X213240600Y-108321000I0J-150000D01*
G01*
X213240600Y-108621000D01*
G75*
G02*
X213090600Y-108771000I-150000J0D01*
G01*
X211340600Y-108771000D01*
G75*
G02*
X211190600Y-108621000I0J150000D01*
G01*
G37*
G04 #@! TD.AperFunction*
G04 #@! TA.AperFunction,SMDPad,CuDef*
G36*
G01*
X211190600Y-107351000D02*
X211190600Y-107051000D01*
G75*
G02*
X211340600Y-106901000I150000J0D01*
G01*
X213090600Y-106901000D01*
G75*
G02*
X213240600Y-107051000I0J-150000D01*
G01*
X213240600Y-107351000D01*
G75*
G02*
X213090600Y-107501000I-150000J0D01*
G01*
X211340600Y-107501000D01*
G75*
G02*
X211190600Y-107351000I0J150000D01*
G01*
G37*
G04 #@! TD.AperFunction*
G04 #@! TA.AperFunction,SMDPad,CuDef*
G36*
G01*
X211190600Y-106081000D02*
X211190600Y-105781000D01*
G75*
G02*
X211340600Y-105631000I150000J0D01*
G01*
X213090600Y-105631000D01*
G75*
G02*
X213240600Y-105781000I0J-150000D01*
G01*
X213240600Y-106081000D01*
G75*
G02*
X213090600Y-106231000I-150000J0D01*
G01*
X211340600Y-106231000D01*
G75*
G02*
X211190600Y-106081000I0J150000D01*
G01*
G37*
G04 #@! TD.AperFunction*
G04 #@! TA.AperFunction,SMDPad,CuDef*
G36*
G01*
X211190600Y-104811000D02*
X211190600Y-104511000D01*
G75*
G02*
X211340600Y-104361000I150000J0D01*
G01*
X213090600Y-104361000D01*
G75*
G02*
X213240600Y-104511000I0J-150000D01*
G01*
X213240600Y-104811000D01*
G75*
G02*
X213090600Y-104961000I-150000J0D01*
G01*
X211340600Y-104961000D01*
G75*
G02*
X211190600Y-104811000I0J150000D01*
G01*
G37*
G04 #@! TD.AperFunction*
G04 #@! TA.AperFunction,SMDPad,CuDef*
G36*
G01*
X211190600Y-103541000D02*
X211190600Y-103241000D01*
G75*
G02*
X211340600Y-103091000I150000J0D01*
G01*
X213090600Y-103091000D01*
G75*
G02*
X213240600Y-103241000I0J-150000D01*
G01*
X213240600Y-103541000D01*
G75*
G02*
X213090600Y-103691000I-150000J0D01*
G01*
X211340600Y-103691000D01*
G75*
G02*
X211190600Y-103541000I0J150000D01*
G01*
G37*
G04 #@! TD.AperFunction*
G04 #@! TA.AperFunction,SMDPad,CuDef*
G36*
G01*
X211190600Y-102271000D02*
X211190600Y-101971000D01*
G75*
G02*
X211340600Y-101821000I150000J0D01*
G01*
X213090600Y-101821000D01*
G75*
G02*
X213240600Y-101971000I0J-150000D01*
G01*
X213240600Y-102271000D01*
G75*
G02*
X213090600Y-102421000I-150000J0D01*
G01*
X211340600Y-102421000D01*
G75*
G02*
X211190600Y-102271000I0J150000D01*
G01*
G37*
G04 #@! TD.AperFunction*
G04 #@! TA.AperFunction,SMDPad,CuDef*
G36*
G01*
X220490600Y-102271000D02*
X220490600Y-101971000D01*
G75*
G02*
X220640600Y-101821000I150000J0D01*
G01*
X222390600Y-101821000D01*
G75*
G02*
X222540600Y-101971000I0J-150000D01*
G01*
X222540600Y-102271000D01*
G75*
G02*
X222390600Y-102421000I-150000J0D01*
G01*
X220640600Y-102421000D01*
G75*
G02*
X220490600Y-102271000I0J150000D01*
G01*
G37*
G04 #@! TD.AperFunction*
G04 #@! TA.AperFunction,SMDPad,CuDef*
G36*
G01*
X220490600Y-103541000D02*
X220490600Y-103241000D01*
G75*
G02*
X220640600Y-103091000I150000J0D01*
G01*
X222390600Y-103091000D01*
G75*
G02*
X222540600Y-103241000I0J-150000D01*
G01*
X222540600Y-103541000D01*
G75*
G02*
X222390600Y-103691000I-150000J0D01*
G01*
X220640600Y-103691000D01*
G75*
G02*
X220490600Y-103541000I0J150000D01*
G01*
G37*
G04 #@! TD.AperFunction*
G04 #@! TA.AperFunction,SMDPad,CuDef*
G36*
G01*
X220490600Y-104811000D02*
X220490600Y-104511000D01*
G75*
G02*
X220640600Y-104361000I150000J0D01*
G01*
X222390600Y-104361000D01*
G75*
G02*
X222540600Y-104511000I0J-150000D01*
G01*
X222540600Y-104811000D01*
G75*
G02*
X222390600Y-104961000I-150000J0D01*
G01*
X220640600Y-104961000D01*
G75*
G02*
X220490600Y-104811000I0J150000D01*
G01*
G37*
G04 #@! TD.AperFunction*
G04 #@! TA.AperFunction,SMDPad,CuDef*
G36*
G01*
X220490600Y-106081000D02*
X220490600Y-105781000D01*
G75*
G02*
X220640600Y-105631000I150000J0D01*
G01*
X222390600Y-105631000D01*
G75*
G02*
X222540600Y-105781000I0J-150000D01*
G01*
X222540600Y-106081000D01*
G75*
G02*
X222390600Y-106231000I-150000J0D01*
G01*
X220640600Y-106231000D01*
G75*
G02*
X220490600Y-106081000I0J150000D01*
G01*
G37*
G04 #@! TD.AperFunction*
G04 #@! TA.AperFunction,SMDPad,CuDef*
G36*
G01*
X220490600Y-107351000D02*
X220490600Y-107051000D01*
G75*
G02*
X220640600Y-106901000I150000J0D01*
G01*
X222390600Y-106901000D01*
G75*
G02*
X222540600Y-107051000I0J-150000D01*
G01*
X222540600Y-107351000D01*
G75*
G02*
X222390600Y-107501000I-150000J0D01*
G01*
X220640600Y-107501000D01*
G75*
G02*
X220490600Y-107351000I0J150000D01*
G01*
G37*
G04 #@! TD.AperFunction*
G04 #@! TA.AperFunction,SMDPad,CuDef*
G36*
G01*
X220490600Y-108621000D02*
X220490600Y-108321000D01*
G75*
G02*
X220640600Y-108171000I150000J0D01*
G01*
X222390600Y-108171000D01*
G75*
G02*
X222540600Y-108321000I0J-150000D01*
G01*
X222540600Y-108621000D01*
G75*
G02*
X222390600Y-108771000I-150000J0D01*
G01*
X220640600Y-108771000D01*
G75*
G02*
X220490600Y-108621000I0J150000D01*
G01*
G37*
G04 #@! TD.AperFunction*
G04 #@! TA.AperFunction,SMDPad,CuDef*
G36*
G01*
X220490600Y-109891000D02*
X220490600Y-109591000D01*
G75*
G02*
X220640600Y-109441000I150000J0D01*
G01*
X222390600Y-109441000D01*
G75*
G02*
X222540600Y-109591000I0J-150000D01*
G01*
X222540600Y-109891000D01*
G75*
G02*
X222390600Y-110041000I-150000J0D01*
G01*
X220640600Y-110041000D01*
G75*
G02*
X220490600Y-109891000I0J150000D01*
G01*
G37*
G04 #@! TD.AperFunction*
G04 #@! TA.AperFunction,SMDPad,CuDef*
G36*
G01*
X220490600Y-111161000D02*
X220490600Y-110861000D01*
G75*
G02*
X220640600Y-110711000I150000J0D01*
G01*
X222390600Y-110711000D01*
G75*
G02*
X222540600Y-110861000I0J-150000D01*
G01*
X222540600Y-111161000D01*
G75*
G02*
X222390600Y-111311000I-150000J0D01*
G01*
X220640600Y-111311000D01*
G75*
G02*
X220490600Y-111161000I0J150000D01*
G01*
G37*
G04 #@! TD.AperFunction*
G04 #@! TA.AperFunction,ComponentPad*
G36*
G01*
X227019300Y-129507700D02*
X227019300Y-128607700D01*
G75*
G02*
X227219300Y-128407700I200000J0D01*
G01*
X227619300Y-128407700D01*
G75*
G02*
X227819300Y-128607700I0J-200000D01*
G01*
X227819300Y-129507700D01*
G75*
G02*
X227619300Y-129707700I-200000J0D01*
G01*
X227219300Y-129707700D01*
G75*
G02*
X227019300Y-129507700I0J200000D01*
G01*
G37*
G04 #@! TD.AperFunction*
D12*
X228669300Y-129057700D03*
G04 #@! TA.AperFunction,SMDPad,CuDef*
G36*
G01*
X251759400Y-118480850D02*
X251759400Y-117968350D01*
G75*
G02*
X251978150Y-117749600I218750J0D01*
G01*
X252415650Y-117749600D01*
G75*
G02*
X252634400Y-117968350I0J-218750D01*
G01*
X252634400Y-118480850D01*
G75*
G02*
X252415650Y-118699600I-218750J0D01*
G01*
X251978150Y-118699600D01*
G75*
G02*
X251759400Y-118480850I0J218750D01*
G01*
G37*
G04 #@! TD.AperFunction*
G04 #@! TA.AperFunction,SMDPad,CuDef*
G36*
G01*
X253334400Y-118480850D02*
X253334400Y-117968350D01*
G75*
G02*
X253553150Y-117749600I218750J0D01*
G01*
X253990650Y-117749600D01*
G75*
G02*
X254209400Y-117968350I0J-218750D01*
G01*
X254209400Y-118480850D01*
G75*
G02*
X253990650Y-118699600I-218750J0D01*
G01*
X253553150Y-118699600D01*
G75*
G02*
X253334400Y-118480850I0J218750D01*
G01*
G37*
G04 #@! TD.AperFunction*
D14*
X250565900Y-110804100D03*
X251865900Y-110804100D03*
X253165900Y-110804100D03*
X249265900Y-110804100D03*
X247965900Y-110804100D03*
X246665900Y-109504100D03*
X247965900Y-109504100D03*
X249265900Y-109504100D03*
X250565900Y-109504100D03*
X251865900Y-109504100D03*
X253165900Y-109504100D03*
X254465900Y-109504100D03*
X246665900Y-110804100D03*
X246665900Y-112104100D03*
X247965900Y-112104100D03*
X249265900Y-112104100D03*
X250565900Y-112104100D03*
X251865900Y-112104100D03*
X253165900Y-112104100D03*
X254465900Y-112104100D03*
X254465900Y-110804100D03*
D15*
X259647900Y-160985500D03*
X246447900Y-160985500D03*
G04 #@! TA.AperFunction,SMDPad,CuDef*
G36*
G01*
X211195600Y-113248450D02*
X211195600Y-112735950D01*
G75*
G02*
X211414350Y-112517200I218750J0D01*
G01*
X211851850Y-112517200D01*
G75*
G02*
X212070600Y-112735950I0J-218750D01*
G01*
X212070600Y-113248450D01*
G75*
G02*
X211851850Y-113467200I-218750J0D01*
G01*
X211414350Y-113467200D01*
G75*
G02*
X211195600Y-113248450I0J218750D01*
G01*
G37*
G04 #@! TD.AperFunction*
G04 #@! TA.AperFunction,SMDPad,CuDef*
G36*
G01*
X212770600Y-113248450D02*
X212770600Y-112735950D01*
G75*
G02*
X212989350Y-112517200I218750J0D01*
G01*
X213426850Y-112517200D01*
G75*
G02*
X213645600Y-112735950I0J-218750D01*
G01*
X213645600Y-113248450D01*
G75*
G02*
X213426850Y-113467200I-218750J0D01*
G01*
X212989350Y-113467200D01*
G75*
G02*
X212770600Y-113248450I0J218750D01*
G01*
G37*
G04 #@! TD.AperFunction*
D16*
X251041900Y-121274100D03*
D17*
X251041900Y-123274100D03*
G04 #@! TA.AperFunction,SMDPad,CuDef*
G36*
G01*
X241599700Y-149302450D02*
X241599700Y-150214950D01*
G75*
G02*
X241355950Y-150458700I-243750J0D01*
G01*
X240868450Y-150458700D01*
G75*
G02*
X240624700Y-150214950I0J243750D01*
G01*
X240624700Y-149302450D01*
G75*
G02*
X240868450Y-149058700I243750J0D01*
G01*
X241355950Y-149058700D01*
G75*
G02*
X241599700Y-149302450I0J-243750D01*
G01*
G37*
G04 #@! TD.AperFunction*
G04 #@! TA.AperFunction,SMDPad,CuDef*
G36*
G01*
X243474700Y-149302450D02*
X243474700Y-150214950D01*
G75*
G02*
X243230950Y-150458700I-243750J0D01*
G01*
X242743450Y-150458700D01*
G75*
G02*
X242499700Y-150214950I0J243750D01*
G01*
X242499700Y-149302450D01*
G75*
G02*
X242743450Y-149058700I243750J0D01*
G01*
X243230950Y-149058700D01*
G75*
G02*
X243474700Y-149302450I0J-243750D01*
G01*
G37*
G04 #@! TD.AperFunction*
D18*
X238138100Y-136454200D03*
X238138100Y-129154200D03*
G04 #@! TA.AperFunction,SMDPad,CuDef*
G36*
G01*
X228503900Y-147360602D02*
X228503900Y-144460598D01*
G75*
G02*
X228753898Y-144210600I249998J0D01*
G01*
X229378902Y-144210600D01*
G75*
G02*
X229628900Y-144460598I0J-249998D01*
G01*
X229628900Y-147360602D01*
G75*
G02*
X229378902Y-147610600I-249998J0D01*
G01*
X228753898Y-147610600D01*
G75*
G02*
X228503900Y-147360602I0J249998D01*
G01*
G37*
G04 #@! TD.AperFunction*
G04 #@! TA.AperFunction,SMDPad,CuDef*
G36*
G01*
X232778900Y-147360602D02*
X232778900Y-144460598D01*
G75*
G02*
X233028898Y-144210600I249998J0D01*
G01*
X233653902Y-144210600D01*
G75*
G02*
X233903900Y-144460598I0J-249998D01*
G01*
X233903900Y-147360602D01*
G75*
G02*
X233653902Y-147610600I-249998J0D01*
G01*
X233028898Y-147610600D01*
G75*
G02*
X232778900Y-147360602I0J249998D01*
G01*
G37*
G04 #@! TD.AperFunction*
X237820600Y-158310900D03*
X237820600Y-151010900D03*
D10*
X208650000Y-103400000D03*
D11*
X208650000Y-105940000D03*
X208650000Y-108480000D03*
X208650000Y-111020000D03*
X208650000Y-113560000D03*
D19*
X212771440Y-159105900D03*
X222971440Y-159105900D03*
G04 #@! TA.AperFunction,SMDPad,CuDef*
G36*
G01*
X257368150Y-106762100D02*
X256855650Y-106762100D01*
G75*
G02*
X256636900Y-106543350I0J218750D01*
G01*
X256636900Y-106105850D01*
G75*
G02*
X256855650Y-105887100I218750J0D01*
G01*
X257368150Y-105887100D01*
G75*
G02*
X257586900Y-106105850I0J-218750D01*
G01*
X257586900Y-106543350D01*
G75*
G02*
X257368150Y-106762100I-218750J0D01*
G01*
G37*
G04 #@! TD.AperFunction*
G04 #@! TA.AperFunction,SMDPad,CuDef*
G36*
G01*
X257368150Y-108337100D02*
X256855650Y-108337100D01*
G75*
G02*
X256636900Y-108118350I0J218750D01*
G01*
X256636900Y-107680850D01*
G75*
G02*
X256855650Y-107462100I218750J0D01*
G01*
X257368150Y-107462100D01*
G75*
G02*
X257586900Y-107680850I0J-218750D01*
G01*
X257586900Y-108118350D01*
G75*
G02*
X257368150Y-108337100I-218750J0D01*
G01*
G37*
G04 #@! TD.AperFunction*
G04 #@! TA.AperFunction,SMDPad,CuDef*
G36*
G01*
X248062400Y-118031850D02*
X248062400Y-118544350D01*
G75*
G02*
X247843650Y-118763100I-218750J0D01*
G01*
X247406150Y-118763100D01*
G75*
G02*
X247187400Y-118544350I0J218750D01*
G01*
X247187400Y-118031850D01*
G75*
G02*
X247406150Y-117813100I218750J0D01*
G01*
X247843650Y-117813100D01*
G75*
G02*
X248062400Y-118031850I0J-218750D01*
G01*
G37*
G04 #@! TD.AperFunction*
G04 #@! TA.AperFunction,SMDPad,CuDef*
G36*
G01*
X249637400Y-118031850D02*
X249637400Y-118544350D01*
G75*
G02*
X249418650Y-118763100I-218750J0D01*
G01*
X248981150Y-118763100D01*
G75*
G02*
X248762400Y-118544350I0J218750D01*
G01*
X248762400Y-118031850D01*
G75*
G02*
X248981150Y-117813100I218750J0D01*
G01*
X249418650Y-117813100D01*
G75*
G02*
X249637400Y-118031850I0J-218750D01*
G01*
G37*
G04 #@! TD.AperFunction*
G04 #@! TA.AperFunction,SMDPad,CuDef*
G36*
G01*
X254159900Y-105336350D02*
X254159900Y-104823850D01*
G75*
G02*
X254378650Y-104605100I218750J0D01*
G01*
X254816150Y-104605100D01*
G75*
G02*
X255034900Y-104823850I0J-218750D01*
G01*
X255034900Y-105336350D01*
G75*
G02*
X254816150Y-105555100I-218750J0D01*
G01*
X254378650Y-105555100D01*
G75*
G02*
X254159900Y-105336350I0J218750D01*
G01*
G37*
G04 #@! TD.AperFunction*
G04 #@! TA.AperFunction,SMDPad,CuDef*
G36*
G01*
X252584900Y-105336350D02*
X252584900Y-104823850D01*
G75*
G02*
X252803650Y-104605100I218750J0D01*
G01*
X253241150Y-104605100D01*
G75*
G02*
X253459900Y-104823850I0J-218750D01*
G01*
X253459900Y-105336350D01*
G75*
G02*
X253241150Y-105555100I-218750J0D01*
G01*
X252803650Y-105555100D01*
G75*
G02*
X252584900Y-105336350I0J218750D01*
G01*
G37*
G04 #@! TD.AperFunction*
D20*
X260223400Y-103886300D03*
X262763400Y-106426300D03*
X260223400Y-108966300D03*
G04 #@! TA.AperFunction,SMDPad,CuDef*
G36*
G01*
X234114800Y-129363450D02*
X234114800Y-130275950D01*
G75*
G02*
X233871050Y-130519700I-243750J0D01*
G01*
X233383550Y-130519700D01*
G75*
G02*
X233139800Y-130275950I0J243750D01*
G01*
X233139800Y-129363450D01*
G75*
G02*
X233383550Y-129119700I243750J0D01*
G01*
X233871050Y-129119700D01*
G75*
G02*
X234114800Y-129363450I0J-243750D01*
G01*
G37*
G04 #@! TD.AperFunction*
G04 #@! TA.AperFunction,SMDPad,CuDef*
G36*
G01*
X232239800Y-129363450D02*
X232239800Y-130275950D01*
G75*
G02*
X231996050Y-130519700I-243750J0D01*
G01*
X231508550Y-130519700D01*
G75*
G02*
X231264800Y-130275950I0J243750D01*
G01*
X231264800Y-129363450D01*
G75*
G02*
X231508550Y-129119700I243750J0D01*
G01*
X231996050Y-129119700D01*
G75*
G02*
X232239800Y-129363450I0J-243750D01*
G01*
G37*
G04 #@! TD.AperFunction*
D21*
X250131980Y-131602780D03*
D22*
X250131980Y-136682780D03*
D23*
X216570200Y-116444300D03*
X216570200Y-117744300D03*
X214570200Y-117094300D03*
G04 #@! TA.AperFunction,SMDPad,CuDef*
G36*
G01*
X218646200Y-114313950D02*
X218646200Y-115226450D01*
G75*
G02*
X218402450Y-115470200I-243750J0D01*
G01*
X217914950Y-115470200D01*
G75*
G02*
X217671200Y-115226450I0J243750D01*
G01*
X217671200Y-114313950D01*
G75*
G02*
X217914950Y-114070200I243750J0D01*
G01*
X218402450Y-114070200D01*
G75*
G02*
X218646200Y-114313950I0J-243750D01*
G01*
G37*
G04 #@! TD.AperFunction*
G04 #@! TA.AperFunction,SMDPad,CuDef*
G36*
G01*
X216771200Y-114313950D02*
X216771200Y-115226450D01*
G75*
G02*
X216527450Y-115470200I-243750J0D01*
G01*
X216039950Y-115470200D01*
G75*
G02*
X215796200Y-115226450I0J243750D01*
G01*
X215796200Y-114313950D01*
G75*
G02*
X216039950Y-114070200I243750J0D01*
G01*
X216527450Y-114070200D01*
G75*
G02*
X216771200Y-114313950I0J-243750D01*
G01*
G37*
G04 #@! TD.AperFunction*
G04 #@! TA.AperFunction,SMDPad,CuDef*
G36*
G01*
X215818400Y-113223050D02*
X215818400Y-112710550D01*
G75*
G02*
X216037150Y-112491800I218750J0D01*
G01*
X216474650Y-112491800D01*
G75*
G02*
X216693400Y-112710550I0J-218750D01*
G01*
X216693400Y-113223050D01*
G75*
G02*
X216474650Y-113441800I-218750J0D01*
G01*
X216037150Y-113441800D01*
G75*
G02*
X215818400Y-113223050I0J218750D01*
G01*
G37*
G04 #@! TD.AperFunction*
G04 #@! TA.AperFunction,SMDPad,CuDef*
G36*
G01*
X217393400Y-113223050D02*
X217393400Y-112710550D01*
G75*
G02*
X217612150Y-112491800I218750J0D01*
G01*
X218049650Y-112491800D01*
G75*
G02*
X218268400Y-112710550I0J-218750D01*
G01*
X218268400Y-113223050D01*
G75*
G02*
X218049650Y-113441800I-218750J0D01*
G01*
X217612150Y-113441800D01*
G75*
G02*
X217393400Y-113223050I0J218750D01*
G01*
G37*
G04 #@! TD.AperFunction*
D12*
X279203200Y-110398600D03*
G04 #@! TA.AperFunction,ComponentPad*
G36*
G01*
X277553200Y-110848600D02*
X277553200Y-109948600D01*
G75*
G02*
X277753200Y-109748600I200000J0D01*
G01*
X278153200Y-109748600D01*
G75*
G02*
X278353200Y-109948600I0J-200000D01*
G01*
X278353200Y-110848600D01*
G75*
G02*
X278153200Y-111048600I-200000J0D01*
G01*
X277753200Y-111048600D01*
G75*
G02*
X277553200Y-110848600I0J200000D01*
G01*
G37*
G04 #@! TD.AperFunction*
G04 #@! TA.AperFunction,ComponentPad*
G36*
G01*
X297568400Y-116462000D02*
X297568400Y-115562000D01*
G75*
G02*
X297768400Y-115362000I200000J0D01*
G01*
X298168400Y-115362000D01*
G75*
G02*
X298368400Y-115562000I0J-200000D01*
G01*
X298368400Y-116462000D01*
G75*
G02*
X298168400Y-116662000I-200000J0D01*
G01*
X297768400Y-116662000D01*
G75*
G02*
X297568400Y-116462000I0J200000D01*
G01*
G37*
G04 #@! TD.AperFunction*
X299218400Y-116012000D03*
G04 #@! TA.AperFunction,ComponentPad*
G36*
G01*
X277451600Y-104752600D02*
X277451600Y-103852600D01*
G75*
G02*
X277651600Y-103652600I200000J0D01*
G01*
X278051600Y-103652600D01*
G75*
G02*
X278251600Y-103852600I0J-200000D01*
G01*
X278251600Y-104752600D01*
G75*
G02*
X278051600Y-104952600I-200000J0D01*
G01*
X277651600Y-104952600D01*
G75*
G02*
X277451600Y-104752600I0J200000D01*
G01*
G37*
G04 #@! TD.AperFunction*
X279101600Y-104302600D03*
X277846200Y-97520800D03*
G04 #@! TA.AperFunction,ComponentPad*
G36*
G01*
X279496200Y-97070800D02*
X279496200Y-97970800D01*
G75*
G02*
X279296200Y-98170800I-200000J0D01*
G01*
X278896200Y-98170800D01*
G75*
G02*
X278696200Y-97970800I0J200000D01*
G01*
X278696200Y-97070800D01*
G75*
G02*
X278896200Y-96870800I200000J0D01*
G01*
X279296200Y-96870800D01*
G75*
G02*
X279496200Y-97070800I0J-200000D01*
G01*
G37*
G04 #@! TD.AperFunction*
G04 #@! TA.AperFunction,ComponentPad*
G36*
G01*
X286963800Y-97070800D02*
X286963800Y-97970800D01*
G75*
G02*
X286763800Y-98170800I-200000J0D01*
G01*
X286363800Y-98170800D01*
G75*
G02*
X286163800Y-97970800I0J200000D01*
G01*
X286163800Y-97070800D01*
G75*
G02*
X286363800Y-96870800I200000J0D01*
G01*
X286763800Y-96870800D01*
G75*
G02*
X286963800Y-97070800I0J-200000D01*
G01*
G37*
G04 #@! TD.AperFunction*
X285313800Y-97520800D03*
D10*
X293203600Y-97406500D03*
D11*
X295743600Y-97406500D03*
X298283600Y-97406500D03*
G04 #@! TA.AperFunction,SMDPad,CuDef*
G36*
G01*
X268330000Y-126510000D02*
X269330000Y-126510000D01*
G75*
G02*
X269830000Y-127010000I0J-500000D01*
G01*
X269830000Y-130010000D01*
G75*
G02*
X269330000Y-130510000I-500000J0D01*
G01*
X268330000Y-130510000D01*
G75*
G02*
X267830000Y-130010000I0J500000D01*
G01*
X267830000Y-127010000D01*
G75*
G02*
X268330000Y-126510000I500000J0D01*
G01*
G37*
G04 #@! TD.AperFunction*
G04 #@! TA.AperFunction,SMDPad,CuDef*
G36*
G01*
X273630000Y-126510000D02*
X274630000Y-126510000D01*
G75*
G02*
X275130000Y-127010000I0J-500000D01*
G01*
X275130000Y-130010000D01*
G75*
G02*
X274630000Y-130510000I-500000J0D01*
G01*
X273630000Y-130510000D01*
G75*
G02*
X273130000Y-130010000I0J500000D01*
G01*
X273130000Y-127010000D01*
G75*
G02*
X273630000Y-126510000I500000J0D01*
G01*
G37*
G04 #@! TD.AperFunction*
G04 #@! TA.AperFunction,SMDPad,CuDef*
G36*
G01*
X270960000Y-126520000D02*
X271960000Y-126520000D01*
G75*
G02*
X272460000Y-127020000I0J-500000D01*
G01*
X272460000Y-130020000D01*
G75*
G02*
X271960000Y-130520000I-500000J0D01*
G01*
X270960000Y-130520000D01*
G75*
G02*
X270460000Y-130020000I0J500000D01*
G01*
X270460000Y-127020000D01*
G75*
G02*
X270960000Y-126520000I500000J0D01*
G01*
G37*
G04 #@! TD.AperFunction*
D14*
X279650251Y-134506811D03*
X279650251Y-133906811D03*
X280450251Y-134506811D03*
X280450251Y-133906811D03*
X280450251Y-133306811D03*
X279650251Y-133306811D03*
X280450251Y-132706811D03*
X279650251Y-132706811D03*
X279650251Y-132106811D03*
X280450251Y-132106811D03*
D24*
X278650251Y-133406811D03*
X281450251Y-133406811D03*
D25*
X280050251Y-133406811D03*
D26*
X203500000Y-97500000D03*
X261500000Y-97500000D03*
X203500000Y-146500000D03*
X261500000Y-146500000D03*
D27*
X203500000Y-165500000D03*
D28*
X217526000Y-102032100D03*
X213830000Y-109590000D03*
X207543800Y-117869000D03*
X240386000Y-146240800D03*
X209804400Y-122390200D03*
X234239200Y-136818700D03*
X231699200Y-136856800D03*
X234086800Y-141505000D03*
X233883600Y-158597900D03*
X233921700Y-153911600D03*
X233947100Y-156286500D03*
X231623000Y-153949700D03*
X217251460Y-161875340D03*
X217251460Y-163175340D03*
X217269460Y-160637520D03*
X236220400Y-106108800D03*
X217272000Y-151828800D03*
X218719800Y-141922800D03*
X220726400Y-141287800D03*
D29*
X216002000Y-110223600D03*
D28*
X213335000Y-114414600D03*
X219253200Y-113043000D03*
X230251400Y-125844600D03*
X237922200Y-125920800D03*
X220421600Y-149720600D03*
X231191200Y-144412000D03*
X201041400Y-140043200D03*
X200127000Y-134582200D03*
X208585200Y-134633000D03*
X213944600Y-129984800D03*
X226339800Y-139560600D03*
X241300400Y-152032000D03*
X209931400Y-124955600D03*
X215671800Y-118961200D03*
X223622000Y-105905600D03*
X232512000Y-131432600D03*
X255151900Y-118684100D03*
X244742100Y-118364300D03*
X208049260Y-164709140D03*
X209116060Y-164709140D03*
X231733690Y-139178618D03*
D29*
X251651180Y-119496565D03*
D28*
X218542000Y-107518500D03*
X204648200Y-140050820D03*
X233972500Y-149720600D03*
X256984900Y-113462100D03*
X244297600Y-107645500D03*
X250507900Y-119494600D03*
X216051460Y-163175340D03*
X216051460Y-161875340D03*
X214500000Y-105400000D03*
X214500000Y-102800000D03*
X234150300Y-139193600D03*
X225908000Y-108877400D03*
X245935900Y-125400100D03*
X243611900Y-117294100D03*
X208328660Y-156250940D03*
X221793200Y-139890800D03*
X235356800Y-146748800D03*
X209913620Y-156271260D03*
D30*
X219456400Y-155499100D03*
D28*
X255841900Y-107874100D03*
X239636700Y-122364800D03*
X239878000Y-129553000D03*
D30*
X216380460Y-166055340D03*
D28*
X215915640Y-156697980D03*
X238366700Y-132475300D03*
X227508200Y-147866400D03*
X238938200Y-153683000D03*
D30*
X222220001Y-112463799D03*
X218211800Y-122466400D03*
X220624800Y-113932000D03*
X218288000Y-123711000D03*
X229565600Y-113017600D03*
X232143700Y-116002100D03*
D29*
X251050890Y-116433900D03*
X251050890Y-115595700D03*
D30*
X237820600Y-118453200D03*
D29*
X252646672Y-116225528D03*
X252616100Y-115494100D03*
D30*
X227051000Y-123584000D03*
D29*
X250323566Y-116100707D03*
X250330100Y-116941900D03*
D30*
X239471600Y-118097600D03*
D29*
X248917290Y-116510100D03*
X248917290Y-115671900D03*
D30*
X216800000Y-111000000D03*
X232194500Y-106210400D03*
X219200000Y-109700000D03*
X230137100Y-106045300D03*
X216687800Y-141237000D03*
X252793900Y-106362800D03*
X249834800Y-102781400D03*
X239890700Y-115113100D03*
X236398200Y-124422200D03*
X217396460Y-167160240D03*
X240820340Y-111135460D03*
X241701720Y-144546620D03*
X225146000Y-112789000D03*
X217272000Y-145478800D03*
X226974800Y-155054600D03*
X208763000Y-136893600D03*
D29*
X255905400Y-116891100D03*
X249441100Y-117119700D03*
X252221900Y-116994100D03*
X247777400Y-106286600D03*
D30*
X235560000Y-111468200D03*
D29*
X248691800Y-106286600D03*
D30*
X232994600Y-111493600D03*
X234137600Y-106185000D03*
X284887400Y-110500200D03*
X297231800Y-102359500D03*
X285160600Y-106430000D03*
X284758100Y-102613500D03*
D28*
X222148800Y-160238740D03*
D30*
X213919200Y-126276400D03*
X289076100Y-106423500D03*
X272696600Y-121657000D03*
D29*
X282188960Y-138785660D03*
X281188960Y-138785660D03*
X280188960Y-138785660D03*
X279188960Y-138785660D03*
X278188960Y-138785660D03*
X277188960Y-138785660D03*
X282188960Y-137785660D03*
X281188960Y-137785660D03*
X280188960Y-137785660D03*
X279188960Y-137785660D03*
X278188960Y-137785660D03*
X282308340Y-129628960D03*
X281308340Y-129628960D03*
X280308340Y-129628960D03*
X279308340Y-129628960D03*
X278308340Y-129628960D03*
X277308340Y-129628960D03*
X282308340Y-128628960D03*
X281308340Y-128628960D03*
X280308340Y-128628960D03*
X279308340Y-128628960D03*
X278308340Y-128628960D03*
X277308340Y-128628960D03*
X277188960Y-137785660D03*
D30*
X274196600Y-121657000D03*
X275696600Y-121657000D03*
X277196600Y-121657000D03*
X278696600Y-121657000D03*
X280196600Y-121657000D03*
X281696600Y-121657000D03*
X283196600Y-121657000D03*
X284696600Y-121657000D03*
X286196600Y-121657000D03*
X287696600Y-121657000D03*
X272696600Y-123157000D03*
X272696600Y-124657000D03*
X277196600Y-123157000D03*
X277196600Y-124657000D03*
X278696600Y-123157000D03*
X280196600Y-123157000D03*
X281696600Y-123157000D03*
X283196600Y-123157000D03*
X284696600Y-123157000D03*
X286196600Y-123157000D03*
X278696600Y-124657000D03*
X280196600Y-124657000D03*
X281696600Y-124657000D03*
X283196600Y-124657000D03*
X284696600Y-124657000D03*
X286196600Y-124657000D03*
X289096600Y-126457000D03*
X290596600Y-126457000D03*
X292096600Y-126457000D03*
X287596600Y-132457000D03*
X287596600Y-133957000D03*
X287596600Y-135457000D03*
X287596600Y-136957000D03*
X287596600Y-138457000D03*
X287596600Y-139957000D03*
X287596600Y-141457000D03*
X287596600Y-142957000D03*
X287596600Y-144457000D03*
X289096600Y-127957000D03*
X289096600Y-129457000D03*
X289096600Y-130957000D03*
X289096600Y-132457000D03*
X289096600Y-133957000D03*
X289096600Y-135457000D03*
X289096600Y-136957000D03*
X289096600Y-138457000D03*
X289096600Y-139957000D03*
X290596600Y-127957000D03*
X290596600Y-129457000D03*
X290596600Y-130957000D03*
X290596600Y-135457000D03*
X290596600Y-136957000D03*
X290596600Y-138457000D03*
X290596600Y-139957000D03*
X292096600Y-127957000D03*
X292096600Y-129457000D03*
X292096600Y-130957000D03*
X292096600Y-135457000D03*
X292096600Y-136957000D03*
X292096600Y-138457000D03*
X292096600Y-139957000D03*
X286096600Y-132457000D03*
X286096600Y-133957000D03*
X286096600Y-135457000D03*
X286096600Y-141457000D03*
X286096600Y-142957000D03*
X286096600Y-144457000D03*
X284596600Y-141457000D03*
X283096600Y-141457000D03*
X281596600Y-141457000D03*
X280096600Y-141457000D03*
X278596600Y-141457000D03*
X277096600Y-141457000D03*
X275596600Y-141457000D03*
X274096600Y-141457000D03*
X272596600Y-141457000D03*
X284596600Y-142957000D03*
X283096600Y-142957000D03*
X281596600Y-142957000D03*
X280096600Y-142957000D03*
X278596600Y-142957000D03*
X277096600Y-142957000D03*
X275596600Y-142957000D03*
X274096600Y-142957000D03*
X272596600Y-142957000D03*
X284596600Y-144457000D03*
X283096600Y-144457000D03*
X281596600Y-144457000D03*
X280096600Y-144457000D03*
X278596600Y-144457000D03*
X277096600Y-144457000D03*
X275596600Y-144457000D03*
X274096600Y-144457000D03*
X272596600Y-144457000D03*
X272596600Y-139957000D03*
X272596600Y-138457000D03*
X272596600Y-136957000D03*
X272596600Y-135457000D03*
X272596600Y-133957000D03*
X274096600Y-139957000D03*
X275596600Y-139957000D03*
X277096600Y-139957000D03*
X278596600Y-139957000D03*
X280096600Y-139957000D03*
X281596600Y-139957000D03*
X283096600Y-139957000D03*
X284596600Y-135457000D03*
X274096600Y-138457000D03*
X274096600Y-136957000D03*
X274096600Y-135457000D03*
X275596600Y-138457000D03*
X275596600Y-136957000D03*
X275596600Y-135457000D03*
X275596600Y-132457000D03*
X275596600Y-130957000D03*
X271096600Y-139957000D03*
X269596600Y-139957000D03*
X268096600Y-139957000D03*
X271096600Y-138457000D03*
X269596600Y-138457000D03*
X268096600Y-138457000D03*
X271096600Y-136957000D03*
X269596600Y-136957000D03*
X268096600Y-136957000D03*
X271096600Y-135457000D03*
X269596600Y-135457000D03*
X268096600Y-135457000D03*
X271096600Y-133957000D03*
X269596600Y-133957000D03*
X268096600Y-133957000D03*
X269596600Y-132457000D03*
X268096600Y-132457000D03*
X271096600Y-132457000D03*
X287596600Y-130957000D03*
X281696600Y-126157000D03*
X280196600Y-126157000D03*
X278696600Y-126157000D03*
X277196600Y-126157000D03*
D31*
X210300000Y-111494000D02*
X210300000Y-110600000D01*
X210300000Y-110600000D02*
X210300000Y-115112800D01*
X210300000Y-115112800D02*
X207543800Y-117869000D01*
X211159000Y-109741000D02*
X210300000Y-110600000D01*
X212215600Y-109741000D02*
X211159000Y-109741000D01*
X212215600Y-109741000D02*
X213821501Y-109741000D01*
X211633100Y-112827100D02*
X210300000Y-111494000D01*
X242987200Y-153144300D02*
X237820600Y-158310900D01*
X237820600Y-162927400D02*
X234008600Y-166739400D01*
X237820600Y-158310900D02*
X237820600Y-162927400D01*
X242987200Y-149758700D02*
X242987200Y-153144300D01*
X242987200Y-148842000D02*
X240386000Y-146240800D01*
X242987200Y-149758700D02*
X242987200Y-148842000D01*
X231752300Y-129819700D02*
X231752300Y-130672900D01*
X231752300Y-130672900D02*
X232512000Y-131432600D01*
X221515600Y-105931000D02*
X223596600Y-105931000D01*
X223596600Y-105931000D02*
X223622000Y-105905600D01*
X216570200Y-117744300D02*
X216570200Y-118062800D01*
X216570200Y-118062800D02*
X215671800Y-118961200D01*
X241112200Y-149758700D02*
X241112200Y-151843800D01*
X241112200Y-151843800D02*
X241300400Y-152032000D01*
X219253200Y-113043000D02*
X217907100Y-113043000D01*
X213208100Y-112992200D02*
X213208100Y-114287700D01*
X213208100Y-114287700D02*
X213335000Y-114414600D01*
X213258900Y-114338500D02*
X213335000Y-114414600D01*
X249199900Y-118288100D02*
X249301400Y-118288100D01*
X249301400Y-118288100D02*
X250507900Y-119494600D01*
X250417410Y-119404110D02*
X250507900Y-119494600D01*
X252196900Y-118950845D02*
X251651180Y-119496565D01*
X252196900Y-118224600D02*
X252196900Y-118950845D01*
X221515600Y-107201000D02*
X220701000Y-107201000D01*
X212215600Y-105931000D02*
X213969000Y-105931000D01*
X213969000Y-105931000D02*
X214500000Y-105400000D01*
X212215600Y-102121000D02*
X213821000Y-102121000D01*
X213821000Y-102121000D02*
X214500000Y-102800000D01*
X221515600Y-107201000D02*
X221515600Y-102121000D01*
X212215600Y-102121000D02*
X212215600Y-105931000D01*
X221515600Y-108471000D02*
X225501600Y-108471000D01*
X225501600Y-108471000D02*
X225908000Y-108877400D01*
D32*
X209913620Y-156271260D02*
X208348980Y-156271260D01*
D31*
X208348980Y-156271260D02*
X208328660Y-156250940D01*
D32*
X219456400Y-155499100D02*
X210685780Y-155499100D01*
X210685780Y-155499100D02*
X209913620Y-156271260D01*
X219456400Y-155499100D02*
X219075400Y-155118100D01*
X219075400Y-145301000D02*
X222047200Y-142329200D01*
X219075400Y-155118100D02*
X219075400Y-145301000D01*
X222047200Y-142329200D02*
X222047200Y-140144800D01*
D31*
X243611900Y-118961300D02*
X245924700Y-121274100D01*
X245924700Y-121274100D02*
X251041900Y-121274100D01*
X243611900Y-117294100D02*
X243611900Y-118961300D01*
X233341400Y-145910600D02*
X234518600Y-145910600D01*
X234518600Y-145910600D02*
X235356800Y-146748800D01*
X222047200Y-140144800D02*
X221793200Y-139890800D01*
X219456400Y-155577100D02*
X219456400Y-155499100D01*
X254597400Y-105080100D02*
X254597400Y-105359600D01*
X255841900Y-106604100D02*
X255841900Y-107874100D01*
X254597400Y-105359600D02*
X255841900Y-106604100D01*
X257314900Y-108102600D02*
X257111900Y-107899600D01*
X257111900Y-107899600D02*
X255867400Y-107899600D01*
X255867400Y-107899600D02*
X255841900Y-107874100D01*
X238138100Y-129154200D02*
X239479200Y-129154200D01*
X239479200Y-129154200D02*
X239878000Y-129553000D01*
X233627300Y-129819700D02*
X237472600Y-129819700D01*
X237472600Y-129819700D02*
X238138100Y-129154200D01*
D33*
X212771440Y-159105900D02*
X213507720Y-159105900D01*
X213507720Y-159105900D02*
X215915640Y-156697980D01*
X213551460Y-158725340D02*
X213551460Y-163226340D01*
X213551460Y-163226340D02*
X216380460Y-166055340D01*
D31*
X238138100Y-136454200D02*
X238138100Y-132703900D01*
X238138100Y-132703900D02*
X238366700Y-132475300D01*
X229066400Y-145910600D02*
X229066400Y-146308200D01*
X229066400Y-146308200D02*
X227508200Y-147866400D01*
X237820600Y-151010900D02*
X237820600Y-152565400D01*
X237820600Y-152565400D02*
X238938200Y-153683000D01*
D33*
X222220001Y-112463799D02*
X220975401Y-112463799D01*
X220975401Y-112463799D02*
X219608800Y-113830400D01*
X219608800Y-113830400D02*
X219608800Y-121069400D01*
X219608800Y-121069400D02*
X218211800Y-122466400D01*
X220624800Y-113932000D02*
X220624800Y-121374200D01*
X220624800Y-121374200D02*
X218288000Y-123711000D01*
X229565600Y-113017600D02*
X235229800Y-107353400D01*
X240106600Y-98166099D02*
X240749099Y-97523600D01*
X235229800Y-107353400D02*
X235229800Y-105473800D01*
X235229800Y-105473800D02*
X240106600Y-100597000D01*
X240106600Y-100597000D02*
X240106600Y-98166099D01*
X240749099Y-97523600D02*
X245176400Y-97523600D01*
X245176400Y-97523600D02*
X246470000Y-96230000D01*
D34*
X250323566Y-116100707D02*
X250323566Y-114598566D01*
X250323566Y-114598566D02*
X249758600Y-114033600D01*
X236601400Y-114033600D02*
X227051000Y-123584000D01*
X249758600Y-114033600D02*
X236601400Y-114033600D01*
X250323566Y-116935366D02*
X250330100Y-116941900D01*
D33*
X221515600Y-111011000D02*
X230746700Y-111011000D01*
X230746700Y-111011000D02*
X232194500Y-109563200D01*
X232194500Y-109563200D02*
X232194500Y-106210400D01*
X219211000Y-111011000D02*
X216811000Y-111011000D01*
X216811000Y-111011000D02*
X216800000Y-111000000D01*
X221515600Y-111011000D02*
X219211000Y-111011000D01*
X221515600Y-109741000D02*
X222061700Y-110287100D01*
X222061700Y-110287100D02*
X228803600Y-110287100D01*
X228803600Y-110287100D02*
X230137100Y-108953600D01*
X230137100Y-108953600D02*
X230137100Y-106045300D01*
X221515600Y-109741000D02*
X219241000Y-109741000D01*
X219241000Y-109741000D02*
X219200000Y-109700000D01*
X216687800Y-141237000D02*
X216687800Y-141237000D01*
X208407400Y-132956600D02*
X216687800Y-141237000D01*
X208407400Y-122142098D02*
X208407400Y-132956600D01*
X214960600Y-108826600D02*
X214960600Y-115588898D01*
X214960600Y-115588898D02*
X208407400Y-122142098D01*
X215990000Y-107797200D02*
X214960600Y-108826600D01*
X215990000Y-98770000D02*
X215990000Y-107797200D01*
X253022400Y-105080100D02*
X253022400Y-106134300D01*
X253022400Y-106134300D02*
X252793900Y-106362800D01*
X253022400Y-105080100D02*
X253022400Y-105105600D01*
X236398200Y-124422200D02*
X236398200Y-117386400D01*
X238671500Y-115113100D02*
X239890700Y-115113100D01*
X236398200Y-117386400D02*
X238671500Y-115113100D01*
X239890700Y-115113100D02*
X239928800Y-115075000D01*
X217396460Y-167160240D02*
X217396460Y-167579340D01*
X249010000Y-99429300D02*
X249010000Y-98770000D01*
X225146000Y-112789000D02*
X225146000Y-112789000D01*
X225146000Y-134074200D02*
X225146000Y-112789000D01*
X217272000Y-141948200D02*
X225146000Y-134074200D01*
X217272000Y-145478800D02*
X217272000Y-141948200D01*
X215990000Y-96230000D02*
X214732000Y-97488000D01*
X205867400Y-133998000D02*
X206146800Y-134277400D01*
X213436600Y-100927200D02*
X208509000Y-100927200D01*
X214732000Y-97488000D02*
X214732000Y-99631800D01*
X214732000Y-99631800D02*
X213436600Y-100927200D01*
X205867400Y-103568800D02*
X205867400Y-133998000D01*
X206146800Y-134277400D02*
X208763000Y-136893600D01*
X208509000Y-100927200D02*
X205867400Y-103568800D01*
X257111900Y-106324600D02*
X257785100Y-106324600D01*
X257785100Y-106324600D02*
X260223400Y-103886300D01*
X255905400Y-116891100D02*
X256476900Y-116891100D01*
X256476900Y-116891100D02*
X259905900Y-113462100D01*
X249441100Y-117119700D02*
X248793300Y-117119700D01*
X248793300Y-117119700D02*
X247624900Y-118288100D01*
X253771900Y-118224600D02*
X253452400Y-118224600D01*
X253452400Y-118224600D02*
X252221900Y-116994100D01*
X247777400Y-106286600D02*
X247523400Y-106032600D01*
X235560000Y-110477600D02*
X235560000Y-111468200D01*
X247523400Y-106032600D02*
X240005000Y-106032600D01*
X240005000Y-106032600D02*
X235560000Y-110477600D01*
X248691800Y-106286600D02*
X248691800Y-106032600D01*
X248691800Y-106032600D02*
X248234600Y-105575400D01*
X248234600Y-105575400D02*
X238912800Y-105575400D01*
X238912800Y-105575400D02*
X232994600Y-111493600D01*
X234200000Y-99200000D02*
X233770000Y-98770000D01*
X223610000Y-98770000D02*
X227215000Y-102375000D01*
X227215000Y-102375000D02*
X230327600Y-102375000D01*
X230327600Y-102375000D02*
X234137600Y-106185000D01*
X226150000Y-98770000D02*
X226733500Y-99353500D01*
X295743600Y-98105000D02*
X295743600Y-97406500D01*
X286980600Y-100391000D02*
X293457600Y-100391000D01*
X284758100Y-102613500D02*
X286980600Y-100391000D01*
X297968400Y-113841322D02*
X297968400Y-116012000D01*
X286740578Y-102613500D02*
X297968400Y-113841322D01*
X284758100Y-102613500D02*
X286740578Y-102613500D01*
X293457600Y-100391000D02*
X295743600Y-98105000D01*
X216570200Y-116444300D02*
X216570200Y-116358700D01*
X216570200Y-116358700D02*
X218158700Y-114770200D01*
D31*
X222971440Y-159105900D02*
X222971440Y-159416100D01*
X222971440Y-159416100D02*
X222148800Y-160238740D01*
X222471060Y-157571740D02*
X222471060Y-159916480D01*
X222471060Y-159916480D02*
X222148800Y-160238740D01*
X222471060Y-157571740D02*
X222077360Y-157965440D01*
X221435060Y-158607740D02*
X222471060Y-157571740D01*
X283733189Y-133406811D02*
X281450251Y-133406811D01*
X287730000Y-126810000D02*
X287730000Y-129410000D01*
X286730000Y-125810000D02*
X287730000Y-126810000D01*
X282330000Y-127410000D02*
X283930000Y-125810000D01*
X275230000Y-127410000D02*
X282330000Y-127410000D01*
X287730000Y-129410000D02*
X283733189Y-133406811D01*
X283930000Y-125810000D02*
X286730000Y-125810000D01*
X274130000Y-128510000D02*
X275230000Y-127410000D01*
X274126811Y-133406811D02*
X278650251Y-133406811D01*
X271230000Y-130510000D02*
X274126811Y-133406811D01*
X271230000Y-128510000D02*
X271230000Y-130510000D01*
D33*
X213919200Y-126276400D02*
X213919200Y-117742000D01*
X213919200Y-117742000D02*
X214528800Y-117132400D01*
X216255900Y-112966800D02*
X216255900Y-114742400D01*
X279203200Y-110398600D02*
X283490400Y-110398600D01*
X287465500Y-106423500D02*
X289076100Y-106423500D01*
X283490400Y-110398600D02*
X287465500Y-106423500D01*
D32*
X268830000Y-131723600D02*
X268096600Y-132457000D01*
X268830000Y-128510000D02*
X268830000Y-131723600D01*
X268096600Y-132457000D02*
X268096600Y-139957000D01*
M02*
