G04 #@! TF.GenerationSoftware,KiCad,Pcbnew,(5.1.10-1-10_14)*
G04 #@! TF.CreationDate,2022-08-11T16:17:27-07:00*
G04 #@! TF.ProjectId,ulc-mm,756c632d-6d6d-42e6-9b69-6361645f7063,rev?*
G04 #@! TF.SameCoordinates,Original*
G04 #@! TF.FileFunction,Legend,Bot*
G04 #@! TF.FilePolarity,Positive*
%FSLAX46Y46*%
G04 Gerber Fmt 4.6, Leading zero omitted, Abs format (unit mm)*
G04 Created by KiCad (PCBNEW (5.1.10-1-10_14)) date 2022-08-11 16:17:27*
%MOMM*%
%LPD*%
G01*
G04 APERTURE LIST*
%ADD10C,0.100000*%
%ADD11C,0.130000*%
%ADD12C,0.150000*%
%ADD13C,0.010000*%
%ADD14C,0.120000*%
G04 APERTURE END LIST*
D10*
X304246485Y-137730085D02*
X304175057Y-137753895D01*
X304151247Y-137777704D01*
X304127438Y-137825323D01*
X304127438Y-137896752D01*
X304151247Y-137944371D01*
X304175057Y-137968180D01*
X304222676Y-137991990D01*
X304413152Y-137991990D01*
X304413152Y-137491990D01*
X304246485Y-137491990D01*
X304198866Y-137515800D01*
X304175057Y-137539609D01*
X304151247Y-137587228D01*
X304151247Y-137634847D01*
X304175057Y-137682466D01*
X304198866Y-137706276D01*
X304246485Y-137730085D01*
X304413152Y-137730085D01*
X303913152Y-137991990D02*
X303913152Y-137658657D01*
X303913152Y-137491990D02*
X303936961Y-137515800D01*
X303913152Y-137539609D01*
X303889342Y-137515800D01*
X303913152Y-137491990D01*
X303913152Y-137539609D01*
X303603628Y-137991990D02*
X303651247Y-137968180D01*
X303675057Y-137944371D01*
X303698866Y-137896752D01*
X303698866Y-137753895D01*
X303675057Y-137706276D01*
X303651247Y-137682466D01*
X303603628Y-137658657D01*
X303532200Y-137658657D01*
X303484580Y-137682466D01*
X303460771Y-137706276D01*
X303436961Y-137753895D01*
X303436961Y-137896752D01*
X303460771Y-137944371D01*
X303484580Y-137968180D01*
X303532200Y-137991990D01*
X303603628Y-137991990D01*
X303032200Y-137968180D02*
X303079819Y-137991990D01*
X303175057Y-137991990D01*
X303222676Y-137968180D01*
X303246485Y-137920561D01*
X303246485Y-137730085D01*
X303222676Y-137682466D01*
X303175057Y-137658657D01*
X303079819Y-137658657D01*
X303032200Y-137682466D01*
X303008390Y-137730085D01*
X303008390Y-137777704D01*
X303246485Y-137825323D01*
X302794104Y-137658657D02*
X302794104Y-137991990D01*
X302794104Y-137706276D02*
X302770295Y-137682466D01*
X302722676Y-137658657D01*
X302651247Y-137658657D01*
X302603628Y-137682466D01*
X302579819Y-137730085D01*
X302579819Y-137991990D01*
X302127438Y-137658657D02*
X302127438Y-138063419D01*
X302151247Y-138111038D01*
X302175057Y-138134847D01*
X302222676Y-138158657D01*
X302294104Y-138158657D01*
X302341723Y-138134847D01*
X302127438Y-137968180D02*
X302175057Y-137991990D01*
X302270295Y-137991990D01*
X302317914Y-137968180D01*
X302341723Y-137944371D01*
X302365533Y-137896752D01*
X302365533Y-137753895D01*
X302341723Y-137706276D01*
X302317914Y-137682466D01*
X302270295Y-137658657D01*
X302175057Y-137658657D01*
X302127438Y-137682466D01*
X301889342Y-137991990D02*
X301889342Y-137658657D01*
X301889342Y-137491990D02*
X301913152Y-137515800D01*
X301889342Y-137539609D01*
X301865533Y-137515800D01*
X301889342Y-137491990D01*
X301889342Y-137539609D01*
X301651247Y-137658657D02*
X301651247Y-137991990D01*
X301651247Y-137706276D02*
X301627438Y-137682466D01*
X301579819Y-137658657D01*
X301508390Y-137658657D01*
X301460771Y-137682466D01*
X301436961Y-137730085D01*
X301436961Y-137991990D01*
X301008390Y-137968180D02*
X301056009Y-137991990D01*
X301151247Y-137991990D01*
X301198866Y-137968180D01*
X301222676Y-137920561D01*
X301222676Y-137730085D01*
X301198866Y-137682466D01*
X301151247Y-137658657D01*
X301056009Y-137658657D01*
X301008390Y-137682466D01*
X300984580Y-137730085D01*
X300984580Y-137777704D01*
X301222676Y-137825323D01*
X300579819Y-137968180D02*
X300627438Y-137991990D01*
X300722676Y-137991990D01*
X300770295Y-137968180D01*
X300794104Y-137920561D01*
X300794104Y-137730085D01*
X300770295Y-137682466D01*
X300722676Y-137658657D01*
X300627438Y-137658657D01*
X300579819Y-137682466D01*
X300556009Y-137730085D01*
X300556009Y-137777704D01*
X300794104Y-137825323D01*
X300341723Y-137991990D02*
X300341723Y-137658657D01*
X300341723Y-137753895D02*
X300317914Y-137706276D01*
X300294104Y-137682466D01*
X300246485Y-137658657D01*
X300198866Y-137658657D01*
X300032200Y-137991990D02*
X300032200Y-137658657D01*
X300032200Y-137491990D02*
X300056009Y-137515800D01*
X300032200Y-137539609D01*
X300008390Y-137515800D01*
X300032200Y-137491990D01*
X300032200Y-137539609D01*
X299794104Y-137658657D02*
X299794104Y-137991990D01*
X299794104Y-137706276D02*
X299770295Y-137682466D01*
X299722676Y-137658657D01*
X299651247Y-137658657D01*
X299603628Y-137682466D01*
X299579819Y-137730085D01*
X299579819Y-137991990D01*
X299127438Y-137658657D02*
X299127438Y-138063419D01*
X299151247Y-138111038D01*
X299175057Y-138134847D01*
X299222676Y-138158657D01*
X299294104Y-138158657D01*
X299341723Y-138134847D01*
X299127438Y-137968180D02*
X299175057Y-137991990D01*
X299270295Y-137991990D01*
X299317914Y-137968180D01*
X299341723Y-137944371D01*
X299365533Y-137896752D01*
X299365533Y-137753895D01*
X299341723Y-137706276D01*
X299317914Y-137682466D01*
X299270295Y-137658657D01*
X299175057Y-137658657D01*
X299127438Y-137682466D01*
X298508390Y-137991990D02*
X298508390Y-137491990D01*
X298317914Y-137491990D01*
X298270295Y-137515800D01*
X298246485Y-137539609D01*
X298222676Y-137587228D01*
X298222676Y-137658657D01*
X298246485Y-137706276D01*
X298270295Y-137730085D01*
X298317914Y-137753895D01*
X298508390Y-137753895D01*
X297936961Y-137991990D02*
X297984580Y-137968180D01*
X298008390Y-137920561D01*
X298008390Y-137491990D01*
X297532200Y-137991990D02*
X297532200Y-137730085D01*
X297556009Y-137682466D01*
X297603628Y-137658657D01*
X297698866Y-137658657D01*
X297746485Y-137682466D01*
X297532200Y-137968180D02*
X297579819Y-137991990D01*
X297698866Y-137991990D01*
X297746485Y-137968180D01*
X297770295Y-137920561D01*
X297770295Y-137872942D01*
X297746485Y-137825323D01*
X297698866Y-137801514D01*
X297579819Y-137801514D01*
X297532200Y-137777704D01*
X297365533Y-137658657D02*
X297175057Y-137658657D01*
X297294104Y-137491990D02*
X297294104Y-137920561D01*
X297270295Y-137968180D01*
X297222676Y-137991990D01*
X297175057Y-137991990D01*
X297079819Y-137658657D02*
X296889342Y-137658657D01*
X297008390Y-137991990D02*
X297008390Y-137563419D01*
X296984580Y-137515800D01*
X296936961Y-137491990D01*
X296889342Y-137491990D01*
X296651247Y-137991990D02*
X296698866Y-137968180D01*
X296722676Y-137944371D01*
X296746485Y-137896752D01*
X296746485Y-137753895D01*
X296722676Y-137706276D01*
X296698866Y-137682466D01*
X296651247Y-137658657D01*
X296579819Y-137658657D01*
X296532200Y-137682466D01*
X296508390Y-137706276D01*
X296484580Y-137753895D01*
X296484580Y-137896752D01*
X296508390Y-137944371D01*
X296532200Y-137968180D01*
X296579819Y-137991990D01*
X296651247Y-137991990D01*
X296270295Y-137991990D02*
X296270295Y-137658657D01*
X296270295Y-137753895D02*
X296246485Y-137706276D01*
X296222676Y-137682466D01*
X296175057Y-137658657D01*
X296127438Y-137658657D01*
X295960771Y-137991990D02*
X295960771Y-137658657D01*
X295960771Y-137706276D02*
X295936961Y-137682466D01*
X295889342Y-137658657D01*
X295817914Y-137658657D01*
X295770295Y-137682466D01*
X295746485Y-137730085D01*
X295746485Y-137991990D01*
X295746485Y-137730085D02*
X295722676Y-137682466D01*
X295675057Y-137658657D01*
X295603628Y-137658657D01*
X295556009Y-137682466D01*
X295532200Y-137730085D01*
X295532200Y-137991990D01*
X304127438Y-138794371D02*
X304151247Y-138818180D01*
X304222676Y-138841990D01*
X304270295Y-138841990D01*
X304341723Y-138818180D01*
X304389342Y-138770561D01*
X304413152Y-138722942D01*
X304436961Y-138627704D01*
X304436961Y-138556276D01*
X304413152Y-138461038D01*
X304389342Y-138413419D01*
X304341723Y-138365800D01*
X304270295Y-138341990D01*
X304222676Y-138341990D01*
X304151247Y-138365800D01*
X304127438Y-138389609D01*
X303913152Y-138841990D02*
X303913152Y-138341990D01*
X303698866Y-138841990D02*
X303698866Y-138580085D01*
X303722676Y-138532466D01*
X303770295Y-138508657D01*
X303841723Y-138508657D01*
X303889342Y-138532466D01*
X303913152Y-138556276D01*
X303246485Y-138841990D02*
X303246485Y-138580085D01*
X303270295Y-138532466D01*
X303317914Y-138508657D01*
X303413152Y-138508657D01*
X303460771Y-138532466D01*
X303246485Y-138818180D02*
X303294104Y-138841990D01*
X303413152Y-138841990D01*
X303460771Y-138818180D01*
X303484580Y-138770561D01*
X303484580Y-138722942D01*
X303460771Y-138675323D01*
X303413152Y-138651514D01*
X303294104Y-138651514D01*
X303246485Y-138627704D01*
X303008390Y-138508657D02*
X303008390Y-138841990D01*
X303008390Y-138556276D02*
X302984580Y-138532466D01*
X302936961Y-138508657D01*
X302865533Y-138508657D01*
X302817914Y-138532466D01*
X302794104Y-138580085D01*
X302794104Y-138841990D01*
X302222676Y-138341990D02*
X301889342Y-138341990D01*
X302222676Y-138841990D01*
X301889342Y-138841990D01*
X301484580Y-138508657D02*
X301484580Y-138841990D01*
X301698866Y-138508657D02*
X301698866Y-138770561D01*
X301675057Y-138818180D01*
X301627438Y-138841990D01*
X301556009Y-138841990D01*
X301508390Y-138818180D01*
X301484580Y-138794371D01*
X301032200Y-138818180D02*
X301079819Y-138841990D01*
X301175057Y-138841990D01*
X301222676Y-138818180D01*
X301246485Y-138794371D01*
X301270295Y-138746752D01*
X301270295Y-138603895D01*
X301246485Y-138556276D01*
X301222676Y-138532466D01*
X301175057Y-138508657D01*
X301079819Y-138508657D01*
X301032200Y-138532466D01*
X300817914Y-138841990D02*
X300817914Y-138341990D01*
X300770295Y-138651514D02*
X300627438Y-138841990D01*
X300627438Y-138508657D02*
X300817914Y-138699133D01*
X300222676Y-138818180D02*
X300270295Y-138841990D01*
X300365533Y-138841990D01*
X300413152Y-138818180D01*
X300436961Y-138770561D01*
X300436961Y-138580085D01*
X300413152Y-138532466D01*
X300365533Y-138508657D01*
X300270295Y-138508657D01*
X300222676Y-138532466D01*
X300198866Y-138580085D01*
X300198866Y-138627704D01*
X300436961Y-138675323D01*
X299984580Y-138841990D02*
X299984580Y-138508657D01*
X299984580Y-138603895D02*
X299960771Y-138556276D01*
X299936961Y-138532466D01*
X299889342Y-138508657D01*
X299841723Y-138508657D01*
X299675057Y-138841990D02*
X299675057Y-138341990D01*
X299675057Y-138532466D02*
X299627438Y-138508657D01*
X299532200Y-138508657D01*
X299484580Y-138532466D01*
X299460771Y-138556276D01*
X299436961Y-138603895D01*
X299436961Y-138746752D01*
X299460771Y-138794371D01*
X299484580Y-138818180D01*
X299532200Y-138841990D01*
X299627438Y-138841990D01*
X299675057Y-138818180D01*
X299032200Y-138818180D02*
X299079819Y-138841990D01*
X299175057Y-138841990D01*
X299222676Y-138818180D01*
X299246485Y-138770561D01*
X299246485Y-138580085D01*
X299222676Y-138532466D01*
X299175057Y-138508657D01*
X299079819Y-138508657D01*
X299032200Y-138532466D01*
X299008390Y-138580085D01*
X299008390Y-138627704D01*
X299246485Y-138675323D01*
X298794104Y-138841990D02*
X298794104Y-138508657D01*
X298794104Y-138603895D02*
X298770295Y-138556276D01*
X298746485Y-138532466D01*
X298698866Y-138508657D01*
X298651247Y-138508657D01*
X298270295Y-138508657D02*
X298270295Y-138913419D01*
X298294104Y-138961038D01*
X298317914Y-138984847D01*
X298365533Y-139008657D01*
X298436961Y-139008657D01*
X298484580Y-138984847D01*
X298270295Y-138818180D02*
X298317914Y-138841990D01*
X298413152Y-138841990D01*
X298460771Y-138818180D01*
X298484580Y-138794371D01*
X298508390Y-138746752D01*
X298508390Y-138603895D01*
X298484580Y-138556276D01*
X298460771Y-138532466D01*
X298413152Y-138508657D01*
X298317914Y-138508657D01*
X298270295Y-138532466D01*
X297484580Y-138580085D02*
X297413152Y-138603895D01*
X297389342Y-138627704D01*
X297365533Y-138675323D01*
X297365533Y-138746752D01*
X297389342Y-138794371D01*
X297413152Y-138818180D01*
X297460771Y-138841990D01*
X297651247Y-138841990D01*
X297651247Y-138341990D01*
X297484580Y-138341990D01*
X297436961Y-138365800D01*
X297413152Y-138389609D01*
X297389342Y-138437228D01*
X297389342Y-138484847D01*
X297413152Y-138532466D01*
X297436961Y-138556276D01*
X297484580Y-138580085D01*
X297651247Y-138580085D01*
X297151247Y-138841990D02*
X297151247Y-138508657D01*
X297151247Y-138341990D02*
X297175057Y-138365800D01*
X297151247Y-138389609D01*
X297127438Y-138365800D01*
X297151247Y-138341990D01*
X297151247Y-138389609D01*
X296841723Y-138841990D02*
X296889342Y-138818180D01*
X296913152Y-138794371D01*
X296936961Y-138746752D01*
X296936961Y-138603895D01*
X296913152Y-138556276D01*
X296889342Y-138532466D01*
X296841723Y-138508657D01*
X296770295Y-138508657D01*
X296722676Y-138532466D01*
X296698866Y-138556276D01*
X296675057Y-138603895D01*
X296675057Y-138746752D01*
X296698866Y-138794371D01*
X296722676Y-138818180D01*
X296770295Y-138841990D01*
X296841723Y-138841990D01*
X296460771Y-138841990D02*
X296460771Y-138341990D01*
X296246485Y-138841990D02*
X296246485Y-138580085D01*
X296270295Y-138532466D01*
X296317914Y-138508657D01*
X296389342Y-138508657D01*
X296436961Y-138532466D01*
X296460771Y-138556276D01*
X295794104Y-138508657D02*
X295794104Y-138841990D01*
X296008390Y-138508657D02*
X296008390Y-138770561D01*
X295984580Y-138818180D01*
X295936961Y-138841990D01*
X295865533Y-138841990D01*
X295817914Y-138818180D01*
X295794104Y-138794371D01*
X295556009Y-138841990D02*
X295556009Y-138341990D01*
X295556009Y-138532466D02*
X295508390Y-138508657D01*
X295413152Y-138508657D01*
X295365533Y-138532466D01*
X295341723Y-138556276D01*
X295317914Y-138603895D01*
X295317914Y-138746752D01*
X295341723Y-138794371D01*
X295365533Y-138818180D01*
X295413152Y-138841990D01*
X295508390Y-138841990D01*
X295556009Y-138818180D01*
X304175057Y-139691990D02*
X304413152Y-139691990D01*
X304413152Y-139191990D01*
X303794104Y-139691990D02*
X303794104Y-139430085D01*
X303817914Y-139382466D01*
X303865533Y-139358657D01*
X303960771Y-139358657D01*
X304008390Y-139382466D01*
X303794104Y-139668180D02*
X303841723Y-139691990D01*
X303960771Y-139691990D01*
X304008390Y-139668180D01*
X304032200Y-139620561D01*
X304032200Y-139572942D01*
X304008390Y-139525323D01*
X303960771Y-139501514D01*
X303841723Y-139501514D01*
X303794104Y-139477704D01*
X303556009Y-139691990D02*
X303556009Y-139191990D01*
X303556009Y-139382466D02*
X303508390Y-139358657D01*
X303413152Y-139358657D01*
X303365533Y-139382466D01*
X303341723Y-139406276D01*
X303317914Y-139453895D01*
X303317914Y-139596752D01*
X303341723Y-139644371D01*
X303365533Y-139668180D01*
X303413152Y-139691990D01*
X303508390Y-139691990D01*
X303556009Y-139668180D01*
X302913152Y-139668180D02*
X302960771Y-139691990D01*
X303056009Y-139691990D01*
X303103628Y-139668180D01*
X303127438Y-139620561D01*
X303127438Y-139430085D01*
X303103628Y-139382466D01*
X303056009Y-139358657D01*
X302960771Y-139358657D01*
X302913152Y-139382466D01*
X302889342Y-139430085D01*
X302889342Y-139477704D01*
X303127438Y-139525323D01*
X302603628Y-139691990D02*
X302651247Y-139668180D01*
X302675057Y-139620561D01*
X302675057Y-139191990D01*
X301865533Y-139430085D02*
X302032200Y-139430085D01*
X302032200Y-139691990D02*
X302032200Y-139191990D01*
X301794104Y-139191990D01*
X301603628Y-139691990D02*
X301603628Y-139358657D01*
X301603628Y-139453895D02*
X301579819Y-139406276D01*
X301556009Y-139382466D01*
X301508390Y-139358657D01*
X301460771Y-139358657D01*
X301103628Y-139668180D02*
X301151247Y-139691990D01*
X301246485Y-139691990D01*
X301294104Y-139668180D01*
X301317914Y-139620561D01*
X301317914Y-139430085D01*
X301294104Y-139382466D01*
X301246485Y-139358657D01*
X301151247Y-139358657D01*
X301103628Y-139382466D01*
X301079819Y-139430085D01*
X301079819Y-139477704D01*
X301317914Y-139525323D01*
X300675057Y-139668180D02*
X300722676Y-139691990D01*
X300817914Y-139691990D01*
X300865533Y-139668180D01*
X300889342Y-139620561D01*
X300889342Y-139430085D01*
X300865533Y-139382466D01*
X300817914Y-139358657D01*
X300722676Y-139358657D01*
X300675057Y-139382466D01*
X300651247Y-139430085D01*
X300651247Y-139477704D01*
X300889342Y-139525323D01*
X300056009Y-139691990D02*
X300056009Y-139191990D01*
X299889342Y-139549133D01*
X299722676Y-139191990D01*
X299722676Y-139691990D01*
X299270295Y-139691990D02*
X299270295Y-139430085D01*
X299294104Y-139382466D01*
X299341723Y-139358657D01*
X299436961Y-139358657D01*
X299484580Y-139382466D01*
X299270295Y-139668180D02*
X299317914Y-139691990D01*
X299436961Y-139691990D01*
X299484580Y-139668180D01*
X299508390Y-139620561D01*
X299508390Y-139572942D01*
X299484580Y-139525323D01*
X299436961Y-139501514D01*
X299317914Y-139501514D01*
X299270295Y-139477704D01*
X298960771Y-139691990D02*
X299008390Y-139668180D01*
X299032200Y-139620561D01*
X299032200Y-139191990D01*
X298556009Y-139691990D02*
X298556009Y-139430085D01*
X298579819Y-139382466D01*
X298627438Y-139358657D01*
X298722676Y-139358657D01*
X298770295Y-139382466D01*
X298556009Y-139668180D02*
X298603628Y-139691990D01*
X298722676Y-139691990D01*
X298770295Y-139668180D01*
X298794104Y-139620561D01*
X298794104Y-139572942D01*
X298770295Y-139525323D01*
X298722676Y-139501514D01*
X298603628Y-139501514D01*
X298556009Y-139477704D01*
X298317914Y-139691990D02*
X298317914Y-139358657D01*
X298317914Y-139453895D02*
X298294104Y-139406276D01*
X298270295Y-139382466D01*
X298222676Y-139358657D01*
X298175057Y-139358657D01*
X298008390Y-139691990D02*
X298008390Y-139358657D01*
X298008390Y-139191990D02*
X298032200Y-139215800D01*
X298008390Y-139239609D01*
X297984580Y-139215800D01*
X298008390Y-139191990D01*
X298008390Y-139239609D01*
X297556009Y-139691990D02*
X297556009Y-139430085D01*
X297579819Y-139382466D01*
X297627438Y-139358657D01*
X297722676Y-139358657D01*
X297770295Y-139382466D01*
X297556009Y-139668180D02*
X297603628Y-139691990D01*
X297722676Y-139691990D01*
X297770295Y-139668180D01*
X297794104Y-139620561D01*
X297794104Y-139572942D01*
X297770295Y-139525323D01*
X297722676Y-139501514D01*
X297603628Y-139501514D01*
X297556009Y-139477704D01*
X296960771Y-139668180D02*
X296889342Y-139691990D01*
X296770295Y-139691990D01*
X296722676Y-139668180D01*
X296698866Y-139644371D01*
X296675057Y-139596752D01*
X296675057Y-139549133D01*
X296698866Y-139501514D01*
X296722676Y-139477704D01*
X296770295Y-139453895D01*
X296865533Y-139430085D01*
X296913152Y-139406276D01*
X296936961Y-139382466D01*
X296960771Y-139334847D01*
X296960771Y-139287228D01*
X296936961Y-139239609D01*
X296913152Y-139215800D01*
X296865533Y-139191990D01*
X296746485Y-139191990D01*
X296675057Y-139215800D01*
X296246485Y-139668180D02*
X296294104Y-139691990D01*
X296389342Y-139691990D01*
X296436961Y-139668180D01*
X296460771Y-139644371D01*
X296484580Y-139596752D01*
X296484580Y-139453895D01*
X296460771Y-139406276D01*
X296436961Y-139382466D01*
X296389342Y-139358657D01*
X296294104Y-139358657D01*
X296246485Y-139382466D01*
X295960771Y-139691990D02*
X296008390Y-139668180D01*
X296032200Y-139644371D01*
X296056009Y-139596752D01*
X296056009Y-139453895D01*
X296032200Y-139406276D01*
X296008390Y-139382466D01*
X295960771Y-139358657D01*
X295889342Y-139358657D01*
X295841723Y-139382466D01*
X295817914Y-139406276D01*
X295794104Y-139453895D01*
X295794104Y-139596752D01*
X295817914Y-139644371D01*
X295841723Y-139668180D01*
X295889342Y-139691990D01*
X295960771Y-139691990D01*
X295579819Y-139358657D02*
X295579819Y-139858657D01*
X295579819Y-139382466D02*
X295532200Y-139358657D01*
X295436961Y-139358657D01*
X295389342Y-139382466D01*
X295365533Y-139406276D01*
X295341723Y-139453895D01*
X295341723Y-139596752D01*
X295365533Y-139644371D01*
X295389342Y-139668180D01*
X295436961Y-139691990D01*
X295532200Y-139691990D01*
X295579819Y-139668180D01*
X294936961Y-139668180D02*
X294984580Y-139691990D01*
X295079819Y-139691990D01*
X295127438Y-139668180D01*
X295151247Y-139620561D01*
X295151247Y-139430085D01*
X295127438Y-139382466D01*
X295079819Y-139358657D01*
X294984580Y-139358657D01*
X294936961Y-139382466D01*
X294913152Y-139430085D01*
X294913152Y-139477704D01*
X295151247Y-139525323D01*
X304175057Y-140041990D02*
X304413152Y-140041990D01*
X304436961Y-140280085D01*
X304413152Y-140256276D01*
X304365533Y-140232466D01*
X304246485Y-140232466D01*
X304198866Y-140256276D01*
X304175057Y-140280085D01*
X304151247Y-140327704D01*
X304151247Y-140446752D01*
X304175057Y-140494371D01*
X304198866Y-140518180D01*
X304246485Y-140541990D01*
X304365533Y-140541990D01*
X304413152Y-140518180D01*
X304436961Y-140494371D01*
X303936961Y-140351514D02*
X303556009Y-140351514D01*
X303222676Y-140041990D02*
X303175057Y-140041990D01*
X303127438Y-140065800D01*
X303103628Y-140089609D01*
X303079819Y-140137228D01*
X303056009Y-140232466D01*
X303056009Y-140351514D01*
X303079819Y-140446752D01*
X303103628Y-140494371D01*
X303127438Y-140518180D01*
X303175057Y-140541990D01*
X303222676Y-140541990D01*
X303270295Y-140518180D01*
X303294104Y-140494371D01*
X303317914Y-140446752D01*
X303341723Y-140351514D01*
X303341723Y-140232466D01*
X303317914Y-140137228D01*
X303294104Y-140089609D01*
X303270295Y-140065800D01*
X303222676Y-140041990D01*
X302746485Y-140041990D02*
X302698866Y-140041990D01*
X302651247Y-140065800D01*
X302627438Y-140089609D01*
X302603628Y-140137228D01*
X302579819Y-140232466D01*
X302579819Y-140351514D01*
X302603628Y-140446752D01*
X302627438Y-140494371D01*
X302651247Y-140518180D01*
X302698866Y-140541990D01*
X302746485Y-140541990D01*
X302794104Y-140518180D01*
X302817914Y-140494371D01*
X302841723Y-140446752D01*
X302865533Y-140351514D01*
X302865533Y-140232466D01*
X302841723Y-140137228D01*
X302817914Y-140089609D01*
X302794104Y-140065800D01*
X302746485Y-140041990D01*
X302270295Y-140041990D02*
X302222676Y-140041990D01*
X302175057Y-140065800D01*
X302151247Y-140089609D01*
X302127438Y-140137228D01*
X302103628Y-140232466D01*
X302103628Y-140351514D01*
X302127438Y-140446752D01*
X302151247Y-140494371D01*
X302175057Y-140518180D01*
X302222676Y-140541990D01*
X302270295Y-140541990D01*
X302317914Y-140518180D01*
X302341723Y-140494371D01*
X302365533Y-140446752D01*
X302389342Y-140351514D01*
X302389342Y-140232466D01*
X302365533Y-140137228D01*
X302341723Y-140089609D01*
X302317914Y-140065800D01*
X302270295Y-140041990D01*
X301865533Y-140541990D02*
X301770295Y-140541990D01*
X301722676Y-140518180D01*
X301698866Y-140494371D01*
X301651247Y-140422942D01*
X301627438Y-140327704D01*
X301627438Y-140137228D01*
X301651247Y-140089609D01*
X301675057Y-140065800D01*
X301722676Y-140041990D01*
X301817914Y-140041990D01*
X301865533Y-140065800D01*
X301889342Y-140089609D01*
X301913152Y-140137228D01*
X301913152Y-140256276D01*
X301889342Y-140303895D01*
X301865533Y-140327704D01*
X301817914Y-140351514D01*
X301722676Y-140351514D01*
X301675057Y-140327704D01*
X301651247Y-140303895D01*
X301627438Y-140256276D01*
X301032200Y-140541990D02*
X301032200Y-140041990D01*
X300865533Y-140399133D01*
X300698866Y-140041990D01*
X300698866Y-140541990D01*
X300460771Y-140541990D02*
X300460771Y-140041990D01*
X300270295Y-140041990D01*
X300222676Y-140065800D01*
X300198866Y-140089609D01*
X300175057Y-140137228D01*
X300175057Y-140208657D01*
X300198866Y-140256276D01*
X300222676Y-140280085D01*
X300270295Y-140303895D01*
X300460771Y-140303895D01*
X299675057Y-140541990D02*
X299841723Y-140303895D01*
X299960771Y-140541990D02*
X299960771Y-140041990D01*
X299770295Y-140041990D01*
X299722676Y-140065800D01*
X299698866Y-140089609D01*
X299675057Y-140137228D01*
X299675057Y-140208657D01*
X299698866Y-140256276D01*
X299722676Y-140280085D01*
X299770295Y-140303895D01*
X299960771Y-140303895D01*
X298913152Y-140280085D02*
X298841723Y-140303895D01*
X298817914Y-140327704D01*
X298794104Y-140375323D01*
X298794104Y-140446752D01*
X298817914Y-140494371D01*
X298841723Y-140518180D01*
X298889342Y-140541990D01*
X299079819Y-140541990D01*
X299079819Y-140041990D01*
X298913152Y-140041990D01*
X298865533Y-140065800D01*
X298841723Y-140089609D01*
X298817914Y-140137228D01*
X298817914Y-140184847D01*
X298841723Y-140232466D01*
X298865533Y-140256276D01*
X298913152Y-140280085D01*
X299079819Y-140280085D01*
X298508390Y-140541990D02*
X298556009Y-140518180D01*
X298579819Y-140494371D01*
X298603628Y-140446752D01*
X298603628Y-140303895D01*
X298579819Y-140256276D01*
X298556009Y-140232466D01*
X298508390Y-140208657D01*
X298436961Y-140208657D01*
X298389342Y-140232466D01*
X298365533Y-140256276D01*
X298341723Y-140303895D01*
X298341723Y-140446752D01*
X298365533Y-140494371D01*
X298389342Y-140518180D01*
X298436961Y-140541990D01*
X298508390Y-140541990D01*
X297913152Y-140541990D02*
X297913152Y-140280085D01*
X297936961Y-140232466D01*
X297984580Y-140208657D01*
X298079819Y-140208657D01*
X298127438Y-140232466D01*
X297913152Y-140518180D02*
X297960771Y-140541990D01*
X298079819Y-140541990D01*
X298127438Y-140518180D01*
X298151247Y-140470561D01*
X298151247Y-140422942D01*
X298127438Y-140375323D01*
X298079819Y-140351514D01*
X297960771Y-140351514D01*
X297913152Y-140327704D01*
X297675057Y-140541990D02*
X297675057Y-140208657D01*
X297675057Y-140303895D02*
X297651247Y-140256276D01*
X297627438Y-140232466D01*
X297579819Y-140208657D01*
X297532200Y-140208657D01*
X297151247Y-140541990D02*
X297151247Y-140041990D01*
X297151247Y-140518180D02*
X297198866Y-140541990D01*
X297294104Y-140541990D01*
X297341723Y-140518180D01*
X297365533Y-140494371D01*
X297389342Y-140446752D01*
X297389342Y-140303895D01*
X297365533Y-140256276D01*
X297341723Y-140232466D01*
X297294104Y-140208657D01*
X297198866Y-140208657D01*
X297151247Y-140232466D01*
X304413152Y-141130085D02*
X304246485Y-141130085D01*
X304175057Y-141391990D02*
X304413152Y-141391990D01*
X304413152Y-140891990D01*
X304175057Y-140891990D01*
X303960771Y-141391990D02*
X303960771Y-141058657D01*
X303960771Y-141106276D02*
X303936961Y-141082466D01*
X303889342Y-141058657D01*
X303817914Y-141058657D01*
X303770295Y-141082466D01*
X303746485Y-141130085D01*
X303746485Y-141391990D01*
X303746485Y-141130085D02*
X303722676Y-141082466D01*
X303675057Y-141058657D01*
X303603628Y-141058657D01*
X303556009Y-141082466D01*
X303532200Y-141130085D01*
X303532200Y-141391990D01*
X303294104Y-141391990D02*
X303294104Y-141058657D01*
X303294104Y-140891990D02*
X303317914Y-140915800D01*
X303294104Y-140939609D01*
X303270295Y-140915800D01*
X303294104Y-140891990D01*
X303294104Y-140939609D01*
X302984580Y-141391990D02*
X303032200Y-141368180D01*
X303056009Y-141320561D01*
X303056009Y-140891990D01*
X302841723Y-141058657D02*
X302722676Y-141391990D01*
X302603628Y-141058657D02*
X302722676Y-141391990D01*
X302770295Y-141511038D01*
X302794104Y-141534847D01*
X302841723Y-141558657D01*
X302032200Y-141391990D02*
X302032200Y-140891990D01*
X302032200Y-141130085D02*
X301746485Y-141130085D01*
X301746485Y-141391990D02*
X301746485Y-140891990D01*
X301294104Y-141058657D02*
X301294104Y-141391990D01*
X301508390Y-141058657D02*
X301508390Y-141320561D01*
X301484580Y-141368180D01*
X301436961Y-141391990D01*
X301365533Y-141391990D01*
X301317914Y-141368180D01*
X301294104Y-141344371D01*
X301103628Y-141058657D02*
X300984580Y-141391990D01*
X300865533Y-141058657D02*
X300984580Y-141391990D01*
X301032200Y-141511038D01*
X301056009Y-141534847D01*
X301103628Y-141558657D01*
X300675057Y-141058657D02*
X300675057Y-141391990D01*
X300675057Y-141106276D02*
X300651247Y-141082466D01*
X300603628Y-141058657D01*
X300532200Y-141058657D01*
X300484580Y-141082466D01*
X300460771Y-141130085D01*
X300460771Y-141391990D01*
X300222676Y-141391990D02*
X300222676Y-140891990D01*
X300008390Y-141391990D02*
X300008390Y-141130085D01*
X300032200Y-141082466D01*
X300079819Y-141058657D01*
X300151247Y-141058657D01*
X300198866Y-141082466D01*
X300222676Y-141106276D01*
X304341723Y-141956276D02*
X304389342Y-141932466D01*
X304413152Y-141908657D01*
X304436961Y-141861038D01*
X304436961Y-141837228D01*
X304413152Y-141789609D01*
X304389342Y-141765800D01*
X304341723Y-141741990D01*
X304246485Y-141741990D01*
X304198866Y-141765800D01*
X304175057Y-141789609D01*
X304151247Y-141837228D01*
X304151247Y-141861038D01*
X304175057Y-141908657D01*
X304198866Y-141932466D01*
X304246485Y-141956276D01*
X304341723Y-141956276D01*
X304389342Y-141980085D01*
X304413152Y-142003895D01*
X304436961Y-142051514D01*
X304436961Y-142146752D01*
X304413152Y-142194371D01*
X304389342Y-142218180D01*
X304341723Y-142241990D01*
X304246485Y-142241990D01*
X304198866Y-142218180D01*
X304175057Y-142194371D01*
X304151247Y-142146752D01*
X304151247Y-142051514D01*
X304175057Y-142003895D01*
X304198866Y-141980085D01*
X304246485Y-141956276D01*
X303579819Y-141718180D02*
X304008390Y-142361038D01*
X303436961Y-141789609D02*
X303413152Y-141765800D01*
X303365533Y-141741990D01*
X303246485Y-141741990D01*
X303198866Y-141765800D01*
X303175057Y-141789609D01*
X303151247Y-141837228D01*
X303151247Y-141884847D01*
X303175057Y-141956276D01*
X303460771Y-142241990D01*
X303151247Y-142241990D01*
X302841723Y-141741990D02*
X302794104Y-141741990D01*
X302746485Y-141765800D01*
X302722676Y-141789609D01*
X302698866Y-141837228D01*
X302675057Y-141932466D01*
X302675057Y-142051514D01*
X302698866Y-142146752D01*
X302722676Y-142194371D01*
X302746485Y-142218180D01*
X302794104Y-142241990D01*
X302841723Y-142241990D01*
X302889342Y-142218180D01*
X302913152Y-142194371D01*
X302936961Y-142146752D01*
X302960771Y-142051514D01*
X302960771Y-141932466D01*
X302936961Y-141837228D01*
X302913152Y-141789609D01*
X302889342Y-141765800D01*
X302841723Y-141741990D01*
X302484580Y-141789609D02*
X302460771Y-141765800D01*
X302413152Y-141741990D01*
X302294104Y-141741990D01*
X302246485Y-141765800D01*
X302222676Y-141789609D01*
X302198866Y-141837228D01*
X302198866Y-141884847D01*
X302222676Y-141956276D01*
X302508390Y-142241990D01*
X302198866Y-142241990D01*
X302008390Y-141789609D02*
X301984580Y-141765800D01*
X301936961Y-141741990D01*
X301817914Y-141741990D01*
X301770295Y-141765800D01*
X301746485Y-141789609D01*
X301722676Y-141837228D01*
X301722676Y-141884847D01*
X301746485Y-141956276D01*
X302032200Y-142241990D01*
X301722676Y-142241990D01*
X301127438Y-142051514D02*
X300746485Y-142051514D01*
X300127438Y-141908657D02*
X300127438Y-142408657D01*
X300127438Y-141932466D02*
X300079819Y-141908657D01*
X299984580Y-141908657D01*
X299936961Y-141932466D01*
X299913152Y-141956276D01*
X299889342Y-142003895D01*
X299889342Y-142146752D01*
X299913152Y-142194371D01*
X299936961Y-142218180D01*
X299984580Y-142241990D01*
X300079819Y-142241990D01*
X300127438Y-142218180D01*
X299460771Y-142218180D02*
X299508390Y-142241990D01*
X299603628Y-142241990D01*
X299651247Y-142218180D01*
X299675057Y-142194371D01*
X299698866Y-142146752D01*
X299698866Y-142003895D01*
X299675057Y-141956276D01*
X299651247Y-141932466D01*
X299603628Y-141908657D01*
X299508390Y-141908657D01*
X299460771Y-141932466D01*
X299246485Y-142241990D02*
X299246485Y-141741990D01*
X299246485Y-141932466D02*
X299198866Y-141908657D01*
X299103628Y-141908657D01*
X299056009Y-141932466D01*
X299032200Y-141956276D01*
X299008390Y-142003895D01*
X299008390Y-142146752D01*
X299032200Y-142194371D01*
X299056009Y-142218180D01*
X299103628Y-142241990D01*
X299198866Y-142241990D01*
X299246485Y-142218180D01*
X298413152Y-142051514D02*
X298032200Y-142051514D01*
X297484580Y-141741990D02*
X297317914Y-142241990D01*
X297151247Y-141741990D01*
X297008390Y-141789609D02*
X296984580Y-141765800D01*
X296936961Y-141741990D01*
X296817914Y-141741990D01*
X296770295Y-141765800D01*
X296746485Y-141789609D01*
X296722676Y-141837228D01*
X296722676Y-141884847D01*
X296746485Y-141956276D01*
X297032200Y-142241990D01*
X296722676Y-142241990D01*
X296508390Y-142194371D02*
X296484580Y-142218180D01*
X296508390Y-142241990D01*
X296532200Y-142218180D01*
X296508390Y-142194371D01*
X296508390Y-142241990D01*
X296008390Y-142241990D02*
X296294104Y-142241990D01*
X296151247Y-142241990D02*
X296151247Y-141741990D01*
X296198866Y-141813419D01*
X296246485Y-141861038D01*
X296294104Y-141884847D01*
D11*
X300179485Y-135351428D02*
X300179485Y-135815714D01*
X300465200Y-135565714D01*
X300465200Y-135672857D01*
X300500914Y-135744285D01*
X300536628Y-135780000D01*
X300608057Y-135815714D01*
X300786628Y-135815714D01*
X300858057Y-135780000D01*
X300893771Y-135744285D01*
X300929485Y-135672857D01*
X300929485Y-135458571D01*
X300893771Y-135387142D01*
X300858057Y-135351428D01*
X300179485Y-136030000D02*
X300929485Y-136280000D01*
X300179485Y-136530000D01*
X300179485Y-136708571D02*
X300179485Y-137172857D01*
X300465200Y-136922857D01*
X300465200Y-137030000D01*
X300500914Y-137101428D01*
X300536628Y-137137142D01*
X300608057Y-137172857D01*
X300786628Y-137172857D01*
X300858057Y-137137142D01*
X300893771Y-137101428D01*
X300929485Y-137030000D01*
X300929485Y-136815714D01*
X300893771Y-136744285D01*
X300858057Y-136708571D01*
X301505200Y-135818571D02*
X301469485Y-135747142D01*
X301469485Y-135640000D01*
X301505200Y-135532857D01*
X301576628Y-135461428D01*
X301648057Y-135425714D01*
X301790914Y-135390000D01*
X301898057Y-135390000D01*
X302040914Y-135425714D01*
X302112342Y-135461428D01*
X302183771Y-135532857D01*
X302219485Y-135640000D01*
X302219485Y-135711428D01*
X302183771Y-135818571D01*
X302148057Y-135854285D01*
X301898057Y-135854285D01*
X301898057Y-135711428D01*
X302219485Y-136175714D02*
X301469485Y-136175714D01*
X302219485Y-136604285D01*
X301469485Y-136604285D01*
X302219485Y-136961428D02*
X301469485Y-136961428D01*
X301469485Y-137140000D01*
X301505200Y-137247142D01*
X301576628Y-137318571D01*
X301648057Y-137354285D01*
X301790914Y-137390000D01*
X301898057Y-137390000D01*
X302040914Y-137354285D01*
X302112342Y-137318571D01*
X302183771Y-137247142D01*
X302219485Y-137140000D01*
X302219485Y-136961428D01*
X306079485Y-135999285D02*
X305722342Y-135749285D01*
X306079485Y-135570714D02*
X305329485Y-135570714D01*
X305329485Y-135856428D01*
X305365200Y-135927857D01*
X305400914Y-135963571D01*
X305472342Y-135999285D01*
X305579485Y-135999285D01*
X305650914Y-135963571D01*
X305686628Y-135927857D01*
X305722342Y-135856428D01*
X305722342Y-135570714D01*
X306043771Y-136285000D02*
X306079485Y-136392142D01*
X306079485Y-136570714D01*
X306043771Y-136642142D01*
X306008057Y-136677857D01*
X305936628Y-136713571D01*
X305865200Y-136713571D01*
X305793771Y-136677857D01*
X305758057Y-136642142D01*
X305722342Y-136570714D01*
X305686628Y-136427857D01*
X305650914Y-136356428D01*
X305615200Y-136320714D01*
X305543771Y-136285000D01*
X305472342Y-136285000D01*
X305400914Y-136320714D01*
X305365200Y-136356428D01*
X305329485Y-136427857D01*
X305329485Y-136606428D01*
X305365200Y-136713571D01*
X305329485Y-136927857D02*
X305329485Y-137356428D01*
X306079485Y-137142142D02*
X305329485Y-137142142D01*
X303363771Y-135507142D02*
X303399485Y-135614285D01*
X303399485Y-135792857D01*
X303363771Y-135864285D01*
X303328057Y-135900000D01*
X303256628Y-135935714D01*
X303185200Y-135935714D01*
X303113771Y-135900000D01*
X303078057Y-135864285D01*
X303042342Y-135792857D01*
X303006628Y-135650000D01*
X302970914Y-135578571D01*
X302935200Y-135542857D01*
X302863771Y-135507142D01*
X302792342Y-135507142D01*
X302720914Y-135542857D01*
X302685200Y-135578571D01*
X302649485Y-135650000D01*
X302649485Y-135828571D01*
X302685200Y-135935714D01*
X303328057Y-136685714D02*
X303363771Y-136650000D01*
X303399485Y-136542857D01*
X303399485Y-136471428D01*
X303363771Y-136364285D01*
X303292342Y-136292857D01*
X303220914Y-136257142D01*
X303078057Y-136221428D01*
X302970914Y-136221428D01*
X302828057Y-136257142D01*
X302756628Y-136292857D01*
X302685200Y-136364285D01*
X302649485Y-136471428D01*
X302649485Y-136542857D01*
X302685200Y-136650000D01*
X302720914Y-136685714D01*
X303399485Y-137364285D02*
X303399485Y-137007142D01*
X302649485Y-137007142D01*
X304733771Y-135479285D02*
X304769485Y-135586428D01*
X304769485Y-135765000D01*
X304733771Y-135836428D01*
X304698057Y-135872142D01*
X304626628Y-135907857D01*
X304555200Y-135907857D01*
X304483771Y-135872142D01*
X304448057Y-135836428D01*
X304412342Y-135765000D01*
X304376628Y-135622142D01*
X304340914Y-135550714D01*
X304305200Y-135515000D01*
X304233771Y-135479285D01*
X304162342Y-135479285D01*
X304090914Y-135515000D01*
X304055200Y-135550714D01*
X304019485Y-135622142D01*
X304019485Y-135800714D01*
X304055200Y-135907857D01*
X304769485Y-136229285D02*
X304019485Y-136229285D01*
X304019485Y-136407857D01*
X304055200Y-136515000D01*
X304126628Y-136586428D01*
X304198057Y-136622142D01*
X304340914Y-136657857D01*
X304448057Y-136657857D01*
X304590914Y-136622142D01*
X304662342Y-136586428D01*
X304733771Y-136515000D01*
X304769485Y-136407857D01*
X304769485Y-136229285D01*
X304555200Y-136943571D02*
X304555200Y-137300714D01*
X304769485Y-136872142D02*
X304019485Y-137122142D01*
X304769485Y-137372142D01*
X274103571Y-140217474D02*
X274103571Y-140788903D01*
X274389285Y-140503189D02*
X273817857Y-140503189D01*
X271635714Y-140456760D02*
X271064285Y-140456760D01*
D12*
X283495250Y-142500000D02*
G75*
G03*
X283495250Y-142500000I-3424999J0D01*
G01*
D13*
G36*
X308589707Y-136112039D02*
G01*
X308415778Y-136126317D01*
X308285723Y-136143856D01*
X308059408Y-136188754D01*
X307838809Y-136249296D01*
X307624584Y-136324967D01*
X307417394Y-136415251D01*
X307217896Y-136519632D01*
X307026750Y-136637594D01*
X306844613Y-136768621D01*
X306672145Y-136912197D01*
X306510005Y-137067807D01*
X306358851Y-137234935D01*
X306219342Y-137413064D01*
X306092136Y-137601679D01*
X305977893Y-137800263D01*
X305877271Y-138008302D01*
X305863052Y-138041089D01*
X305781085Y-138254351D01*
X305715396Y-138472230D01*
X305665976Y-138694764D01*
X305632819Y-138921988D01*
X305615918Y-139153936D01*
X305613548Y-139281200D01*
X305621805Y-139514806D01*
X305646428Y-139744723D01*
X305687199Y-139970369D01*
X305743899Y-140191162D01*
X305816307Y-140406521D01*
X305904205Y-140615865D01*
X306007374Y-140818613D01*
X306125593Y-141014184D01*
X306258644Y-141201995D01*
X306405836Y-141380933D01*
X306567307Y-141551082D01*
X306738476Y-141707455D01*
X306918870Y-141849813D01*
X307108016Y-141977918D01*
X307305440Y-142091533D01*
X307510671Y-142190420D01*
X307723236Y-142274340D01*
X307942661Y-142343057D01*
X308168474Y-142396332D01*
X308400202Y-142433927D01*
X308525734Y-142447456D01*
X308582220Y-142451162D01*
X308651374Y-142453601D01*
X308728982Y-142454803D01*
X308810827Y-142454795D01*
X308892694Y-142453608D01*
X308970368Y-142451269D01*
X309039634Y-142447808D01*
X309093000Y-142443587D01*
X309323627Y-142412140D01*
X309549007Y-142364897D01*
X309768505Y-142302325D01*
X309981481Y-142224894D01*
X310187296Y-142133070D01*
X310385313Y-142027324D01*
X310574893Y-141908122D01*
X310755398Y-141775934D01*
X310926189Y-141631227D01*
X311086628Y-141474470D01*
X311236077Y-141306131D01*
X311373897Y-141126679D01*
X311499450Y-140936581D01*
X311612098Y-140736307D01*
X311711202Y-140526323D01*
X311713349Y-140521310D01*
X311795316Y-140308048D01*
X311861005Y-140090169D01*
X311910425Y-139867635D01*
X311943582Y-139640411D01*
X311960483Y-139408463D01*
X311962853Y-139281200D01*
X311954729Y-139046684D01*
X311930354Y-138816913D01*
X311889719Y-138591850D01*
X311872055Y-138523433D01*
X311068298Y-138523433D01*
X311067904Y-138577107D01*
X311066387Y-138618663D01*
X311063244Y-138652905D01*
X311057973Y-138684636D01*
X311050073Y-138718661D01*
X311046432Y-138732609D01*
X311007131Y-138848912D01*
X310953940Y-138956581D01*
X310887897Y-139054659D01*
X310810038Y-139142188D01*
X310721399Y-139218211D01*
X310623017Y-139281768D01*
X310515929Y-139331903D01*
X310401171Y-139367656D01*
X310347075Y-139378839D01*
X310232610Y-139390558D01*
X310117990Y-139386371D01*
X310005033Y-139367040D01*
X309895552Y-139333328D01*
X309791366Y-139285998D01*
X309694290Y-139225811D01*
X309606140Y-139153532D01*
X309528733Y-139069923D01*
X309491500Y-139019538D01*
X309468145Y-138982255D01*
X309442995Y-138937440D01*
X309418678Y-138890238D01*
X309397818Y-138845792D01*
X309383041Y-138809245D01*
X309380886Y-138802833D01*
X309351765Y-138734117D01*
X309311032Y-138670700D01*
X309261284Y-138615445D01*
X309205122Y-138571213D01*
X309145144Y-138540865D01*
X309141873Y-138539686D01*
X309126197Y-138535152D01*
X309095888Y-138527309D01*
X309052823Y-138516610D01*
X308998878Y-138503509D01*
X308935930Y-138488458D01*
X308865855Y-138471911D01*
X308790531Y-138454321D01*
X308737496Y-138442047D01*
X308647684Y-138421416D01*
X308572702Y-138404402D01*
X308510912Y-138390694D01*
X308460673Y-138379977D01*
X308420347Y-138371939D01*
X308388292Y-138366265D01*
X308362871Y-138362643D01*
X308342442Y-138360760D01*
X308325367Y-138360301D01*
X308312278Y-138360797D01*
X308247230Y-138372293D01*
X308189276Y-138398376D01*
X308136662Y-138439932D01*
X308119151Y-138458333D01*
X308077976Y-138510025D01*
X308050577Y-138558619D01*
X308035286Y-138607965D01*
X308030436Y-138661911D01*
X308030434Y-138663133D01*
X308030434Y-138726633D01*
X308135325Y-138942533D01*
X308172177Y-139017958D01*
X308203066Y-139079976D01*
X308229144Y-139130544D01*
X308251565Y-139171621D01*
X308271483Y-139205163D01*
X308290050Y-139233128D01*
X308308420Y-139257474D01*
X308327747Y-139280160D01*
X308345501Y-139299298D01*
X308414376Y-139360954D01*
X308492296Y-139410414D01*
X308580933Y-139448566D01*
X308675968Y-139475012D01*
X308808413Y-139511878D01*
X308932169Y-139562486D01*
X309046433Y-139626234D01*
X309150399Y-139702524D01*
X309243261Y-139790754D01*
X309324215Y-139890325D01*
X309392455Y-140000637D01*
X309399608Y-140014289D01*
X309454559Y-140138162D01*
X309493335Y-140263494D01*
X309516292Y-140389158D01*
X309523781Y-140514027D01*
X309516157Y-140636974D01*
X309493774Y-140756873D01*
X309456986Y-140872597D01*
X309406145Y-140983018D01*
X309341606Y-141087010D01*
X309263722Y-141183446D01*
X309172848Y-141271200D01*
X309069337Y-141349144D01*
X308960711Y-141412521D01*
X308855973Y-141460627D01*
X308754114Y-141495749D01*
X308649649Y-141519623D01*
X308597701Y-141527503D01*
X308553838Y-141530943D01*
X308499294Y-141531893D01*
X308440114Y-141530499D01*
X308382345Y-141526908D01*
X308332033Y-141521262D01*
X308330965Y-141521102D01*
X308201110Y-141493315D01*
X308078417Y-141450183D01*
X307962889Y-141391708D01*
X307854527Y-141317892D01*
X307753336Y-141228736D01*
X307749960Y-141225373D01*
X307662046Y-141126047D01*
X307588800Y-141019336D01*
X307530336Y-140906512D01*
X307486770Y-140788845D01*
X307458214Y-140667608D01*
X307444783Y-140544070D01*
X307446592Y-140419503D01*
X307463754Y-140295178D01*
X307496385Y-140172366D01*
X307544597Y-140052339D01*
X307608506Y-139936367D01*
X307631019Y-139902173D01*
X307692289Y-139800938D01*
X307736895Y-139700163D01*
X307765062Y-139599035D01*
X307777011Y-139496737D01*
X307772966Y-139392457D01*
X307772190Y-139385878D01*
X307767355Y-139357002D01*
X307758706Y-139315981D01*
X307746982Y-139265579D01*
X307732925Y-139208561D01*
X307717276Y-139147689D01*
X307700774Y-139085729D01*
X307684161Y-139025444D01*
X307668176Y-138969598D01*
X307653562Y-138920955D01*
X307641057Y-138882279D01*
X307631404Y-138856335D01*
X307628774Y-138850653D01*
X307602445Y-138810907D01*
X307567743Y-138779968D01*
X307522106Y-138756181D01*
X307462973Y-138737891D01*
X307449451Y-138734780D01*
X307414960Y-138725042D01*
X307371920Y-138709760D01*
X307326741Y-138691327D01*
X307298405Y-138678376D01*
X307258058Y-138658157D01*
X307226404Y-138639783D01*
X307198492Y-138619671D01*
X307169372Y-138594240D01*
X307134095Y-138559908D01*
X307132583Y-138558397D01*
X307096691Y-138521405D01*
X307070003Y-138490611D01*
X307048912Y-138461142D01*
X307029810Y-138428121D01*
X307015879Y-138400666D01*
X306986078Y-138334504D01*
X306965589Y-138274682D01*
X306952622Y-138214756D01*
X306945385Y-138148282D01*
X306945274Y-138146666D01*
X306946401Y-138061795D01*
X306960016Y-137973736D01*
X306984500Y-137890911D01*
X307021042Y-137815211D01*
X307071809Y-137741557D01*
X307134102Y-137672616D01*
X307205224Y-137611057D01*
X307282477Y-137559546D01*
X307355998Y-137523585D01*
X307416790Y-137501278D01*
X307470943Y-137487217D01*
X307525332Y-137480223D01*
X307586835Y-137479119D01*
X307611115Y-137479899D01*
X307704999Y-137489141D01*
X307789087Y-137509466D01*
X307866328Y-137542200D01*
X307939670Y-137588664D01*
X308012062Y-137650183D01*
X308030434Y-137668147D01*
X308070273Y-137709850D01*
X308100485Y-137746250D01*
X308124890Y-137782340D01*
X308143901Y-137816466D01*
X308182778Y-137884143D01*
X308222644Y-137937389D01*
X308265960Y-137978642D01*
X308315185Y-138010340D01*
X308359403Y-138030053D01*
X308376978Y-138034360D01*
X308409295Y-138039914D01*
X308454225Y-138046484D01*
X308509643Y-138053840D01*
X308573419Y-138061755D01*
X308643428Y-138069997D01*
X308717541Y-138078338D01*
X308793631Y-138086547D01*
X308869571Y-138094396D01*
X308943233Y-138101655D01*
X309012490Y-138108093D01*
X309075215Y-138113483D01*
X309129280Y-138117593D01*
X309172558Y-138120195D01*
X309202850Y-138121059D01*
X309262049Y-138118491D01*
X309314119Y-138110250D01*
X309361913Y-138094915D01*
X309408282Y-138071061D01*
X309456077Y-138037266D01*
X309508152Y-137992106D01*
X309557592Y-137944043D01*
X309627461Y-137876929D01*
X309692237Y-137822263D01*
X309755374Y-137777879D01*
X309820322Y-137741605D01*
X309890536Y-137711273D01*
X309969468Y-137684714D01*
X309971129Y-137684215D01*
X310032526Y-137670200D01*
X310104628Y-137660756D01*
X310181770Y-137656116D01*
X310258287Y-137656517D01*
X310328514Y-137662191D01*
X310363901Y-137667945D01*
X310482385Y-137700269D01*
X310593479Y-137747665D01*
X310696424Y-137809740D01*
X310790465Y-137886106D01*
X310795056Y-137890421D01*
X310879024Y-137981104D01*
X310948473Y-138080478D01*
X311003492Y-138188696D01*
X311044172Y-138305910D01*
X311046432Y-138314257D01*
X311055418Y-138350318D01*
X311061591Y-138382330D01*
X311065453Y-138415098D01*
X311067506Y-138453425D01*
X311068253Y-138502115D01*
X311068298Y-138523433D01*
X311872055Y-138523433D01*
X311832818Y-138371461D01*
X311759644Y-138155709D01*
X311713349Y-138041089D01*
X311614879Y-137831643D01*
X311502687Y-137631571D01*
X311377431Y-137441390D01*
X311239771Y-137261615D01*
X311090364Y-137092763D01*
X310929870Y-136935349D01*
X310758947Y-136789889D01*
X310578253Y-136656900D01*
X310388449Y-136536896D01*
X310190192Y-136430394D01*
X309984142Y-136337909D01*
X309770956Y-136259958D01*
X309551294Y-136197056D01*
X309325815Y-136149720D01*
X309290678Y-136143856D01*
X309124604Y-136122562D01*
X308949098Y-136110161D01*
X308769140Y-136106653D01*
X308589707Y-136112039D01*
G37*
X308589707Y-136112039D02*
X308415778Y-136126317D01*
X308285723Y-136143856D01*
X308059408Y-136188754D01*
X307838809Y-136249296D01*
X307624584Y-136324967D01*
X307417394Y-136415251D01*
X307217896Y-136519632D01*
X307026750Y-136637594D01*
X306844613Y-136768621D01*
X306672145Y-136912197D01*
X306510005Y-137067807D01*
X306358851Y-137234935D01*
X306219342Y-137413064D01*
X306092136Y-137601679D01*
X305977893Y-137800263D01*
X305877271Y-138008302D01*
X305863052Y-138041089D01*
X305781085Y-138254351D01*
X305715396Y-138472230D01*
X305665976Y-138694764D01*
X305632819Y-138921988D01*
X305615918Y-139153936D01*
X305613548Y-139281200D01*
X305621805Y-139514806D01*
X305646428Y-139744723D01*
X305687199Y-139970369D01*
X305743899Y-140191162D01*
X305816307Y-140406521D01*
X305904205Y-140615865D01*
X306007374Y-140818613D01*
X306125593Y-141014184D01*
X306258644Y-141201995D01*
X306405836Y-141380933D01*
X306567307Y-141551082D01*
X306738476Y-141707455D01*
X306918870Y-141849813D01*
X307108016Y-141977918D01*
X307305440Y-142091533D01*
X307510671Y-142190420D01*
X307723236Y-142274340D01*
X307942661Y-142343057D01*
X308168474Y-142396332D01*
X308400202Y-142433927D01*
X308525734Y-142447456D01*
X308582220Y-142451162D01*
X308651374Y-142453601D01*
X308728982Y-142454803D01*
X308810827Y-142454795D01*
X308892694Y-142453608D01*
X308970368Y-142451269D01*
X309039634Y-142447808D01*
X309093000Y-142443587D01*
X309323627Y-142412140D01*
X309549007Y-142364897D01*
X309768505Y-142302325D01*
X309981481Y-142224894D01*
X310187296Y-142133070D01*
X310385313Y-142027324D01*
X310574893Y-141908122D01*
X310755398Y-141775934D01*
X310926189Y-141631227D01*
X311086628Y-141474470D01*
X311236077Y-141306131D01*
X311373897Y-141126679D01*
X311499450Y-140936581D01*
X311612098Y-140736307D01*
X311711202Y-140526323D01*
X311713349Y-140521310D01*
X311795316Y-140308048D01*
X311861005Y-140090169D01*
X311910425Y-139867635D01*
X311943582Y-139640411D01*
X311960483Y-139408463D01*
X311962853Y-139281200D01*
X311954729Y-139046684D01*
X311930354Y-138816913D01*
X311889719Y-138591850D01*
X311872055Y-138523433D01*
X311068298Y-138523433D01*
X311067904Y-138577107D01*
X311066387Y-138618663D01*
X311063244Y-138652905D01*
X311057973Y-138684636D01*
X311050073Y-138718661D01*
X311046432Y-138732609D01*
X311007131Y-138848912D01*
X310953940Y-138956581D01*
X310887897Y-139054659D01*
X310810038Y-139142188D01*
X310721399Y-139218211D01*
X310623017Y-139281768D01*
X310515929Y-139331903D01*
X310401171Y-139367656D01*
X310347075Y-139378839D01*
X310232610Y-139390558D01*
X310117990Y-139386371D01*
X310005033Y-139367040D01*
X309895552Y-139333328D01*
X309791366Y-139285998D01*
X309694290Y-139225811D01*
X309606140Y-139153532D01*
X309528733Y-139069923D01*
X309491500Y-139019538D01*
X309468145Y-138982255D01*
X309442995Y-138937440D01*
X309418678Y-138890238D01*
X309397818Y-138845792D01*
X309383041Y-138809245D01*
X309380886Y-138802833D01*
X309351765Y-138734117D01*
X309311032Y-138670700D01*
X309261284Y-138615445D01*
X309205122Y-138571213D01*
X309145144Y-138540865D01*
X309141873Y-138539686D01*
X309126197Y-138535152D01*
X309095888Y-138527309D01*
X309052823Y-138516610D01*
X308998878Y-138503509D01*
X308935930Y-138488458D01*
X308865855Y-138471911D01*
X308790531Y-138454321D01*
X308737496Y-138442047D01*
X308647684Y-138421416D01*
X308572702Y-138404402D01*
X308510912Y-138390694D01*
X308460673Y-138379977D01*
X308420347Y-138371939D01*
X308388292Y-138366265D01*
X308362871Y-138362643D01*
X308342442Y-138360760D01*
X308325367Y-138360301D01*
X308312278Y-138360797D01*
X308247230Y-138372293D01*
X308189276Y-138398376D01*
X308136662Y-138439932D01*
X308119151Y-138458333D01*
X308077976Y-138510025D01*
X308050577Y-138558619D01*
X308035286Y-138607965D01*
X308030436Y-138661911D01*
X308030434Y-138663133D01*
X308030434Y-138726633D01*
X308135325Y-138942533D01*
X308172177Y-139017958D01*
X308203066Y-139079976D01*
X308229144Y-139130544D01*
X308251565Y-139171621D01*
X308271483Y-139205163D01*
X308290050Y-139233128D01*
X308308420Y-139257474D01*
X308327747Y-139280160D01*
X308345501Y-139299298D01*
X308414376Y-139360954D01*
X308492296Y-139410414D01*
X308580933Y-139448566D01*
X308675968Y-139475012D01*
X308808413Y-139511878D01*
X308932169Y-139562486D01*
X309046433Y-139626234D01*
X309150399Y-139702524D01*
X309243261Y-139790754D01*
X309324215Y-139890325D01*
X309392455Y-140000637D01*
X309399608Y-140014289D01*
X309454559Y-140138162D01*
X309493335Y-140263494D01*
X309516292Y-140389158D01*
X309523781Y-140514027D01*
X309516157Y-140636974D01*
X309493774Y-140756873D01*
X309456986Y-140872597D01*
X309406145Y-140983018D01*
X309341606Y-141087010D01*
X309263722Y-141183446D01*
X309172848Y-141271200D01*
X309069337Y-141349144D01*
X308960711Y-141412521D01*
X308855973Y-141460627D01*
X308754114Y-141495749D01*
X308649649Y-141519623D01*
X308597701Y-141527503D01*
X308553838Y-141530943D01*
X308499294Y-141531893D01*
X308440114Y-141530499D01*
X308382345Y-141526908D01*
X308332033Y-141521262D01*
X308330965Y-141521102D01*
X308201110Y-141493315D01*
X308078417Y-141450183D01*
X307962889Y-141391708D01*
X307854527Y-141317892D01*
X307753336Y-141228736D01*
X307749960Y-141225373D01*
X307662046Y-141126047D01*
X307588800Y-141019336D01*
X307530336Y-140906512D01*
X307486770Y-140788845D01*
X307458214Y-140667608D01*
X307444783Y-140544070D01*
X307446592Y-140419503D01*
X307463754Y-140295178D01*
X307496385Y-140172366D01*
X307544597Y-140052339D01*
X307608506Y-139936367D01*
X307631019Y-139902173D01*
X307692289Y-139800938D01*
X307736895Y-139700163D01*
X307765062Y-139599035D01*
X307777011Y-139496737D01*
X307772966Y-139392457D01*
X307772190Y-139385878D01*
X307767355Y-139357002D01*
X307758706Y-139315981D01*
X307746982Y-139265579D01*
X307732925Y-139208561D01*
X307717276Y-139147689D01*
X307700774Y-139085729D01*
X307684161Y-139025444D01*
X307668176Y-138969598D01*
X307653562Y-138920955D01*
X307641057Y-138882279D01*
X307631404Y-138856335D01*
X307628774Y-138850653D01*
X307602445Y-138810907D01*
X307567743Y-138779968D01*
X307522106Y-138756181D01*
X307462973Y-138737891D01*
X307449451Y-138734780D01*
X307414960Y-138725042D01*
X307371920Y-138709760D01*
X307326741Y-138691327D01*
X307298405Y-138678376D01*
X307258058Y-138658157D01*
X307226404Y-138639783D01*
X307198492Y-138619671D01*
X307169372Y-138594240D01*
X307134095Y-138559908D01*
X307132583Y-138558397D01*
X307096691Y-138521405D01*
X307070003Y-138490611D01*
X307048912Y-138461142D01*
X307029810Y-138428121D01*
X307015879Y-138400666D01*
X306986078Y-138334504D01*
X306965589Y-138274682D01*
X306952622Y-138214756D01*
X306945385Y-138148282D01*
X306945274Y-138146666D01*
X306946401Y-138061795D01*
X306960016Y-137973736D01*
X306984500Y-137890911D01*
X307021042Y-137815211D01*
X307071809Y-137741557D01*
X307134102Y-137672616D01*
X307205224Y-137611057D01*
X307282477Y-137559546D01*
X307355998Y-137523585D01*
X307416790Y-137501278D01*
X307470943Y-137487217D01*
X307525332Y-137480223D01*
X307586835Y-137479119D01*
X307611115Y-137479899D01*
X307704999Y-137489141D01*
X307789087Y-137509466D01*
X307866328Y-137542200D01*
X307939670Y-137588664D01*
X308012062Y-137650183D01*
X308030434Y-137668147D01*
X308070273Y-137709850D01*
X308100485Y-137746250D01*
X308124890Y-137782340D01*
X308143901Y-137816466D01*
X308182778Y-137884143D01*
X308222644Y-137937389D01*
X308265960Y-137978642D01*
X308315185Y-138010340D01*
X308359403Y-138030053D01*
X308376978Y-138034360D01*
X308409295Y-138039914D01*
X308454225Y-138046484D01*
X308509643Y-138053840D01*
X308573419Y-138061755D01*
X308643428Y-138069997D01*
X308717541Y-138078338D01*
X308793631Y-138086547D01*
X308869571Y-138094396D01*
X308943233Y-138101655D01*
X309012490Y-138108093D01*
X309075215Y-138113483D01*
X309129280Y-138117593D01*
X309172558Y-138120195D01*
X309202850Y-138121059D01*
X309262049Y-138118491D01*
X309314119Y-138110250D01*
X309361913Y-138094915D01*
X309408282Y-138071061D01*
X309456077Y-138037266D01*
X309508152Y-137992106D01*
X309557592Y-137944043D01*
X309627461Y-137876929D01*
X309692237Y-137822263D01*
X309755374Y-137777879D01*
X309820322Y-137741605D01*
X309890536Y-137711273D01*
X309969468Y-137684714D01*
X309971129Y-137684215D01*
X310032526Y-137670200D01*
X310104628Y-137660756D01*
X310181770Y-137656116D01*
X310258287Y-137656517D01*
X310328514Y-137662191D01*
X310363901Y-137667945D01*
X310482385Y-137700269D01*
X310593479Y-137747665D01*
X310696424Y-137809740D01*
X310790465Y-137886106D01*
X310795056Y-137890421D01*
X310879024Y-137981104D01*
X310948473Y-138080478D01*
X311003492Y-138188696D01*
X311044172Y-138305910D01*
X311046432Y-138314257D01*
X311055418Y-138350318D01*
X311061591Y-138382330D01*
X311065453Y-138415098D01*
X311067506Y-138453425D01*
X311068253Y-138502115D01*
X311068298Y-138523433D01*
X311872055Y-138523433D01*
X311832818Y-138371461D01*
X311759644Y-138155709D01*
X311713349Y-138041089D01*
X311614879Y-137831643D01*
X311502687Y-137631571D01*
X311377431Y-137441390D01*
X311239771Y-137261615D01*
X311090364Y-137092763D01*
X310929870Y-136935349D01*
X310758947Y-136789889D01*
X310578253Y-136656900D01*
X310388449Y-136536896D01*
X310190192Y-136430394D01*
X309984142Y-136337909D01*
X309770956Y-136259958D01*
X309551294Y-136197056D01*
X309325815Y-136149720D01*
X309290678Y-136143856D01*
X309124604Y-136122562D01*
X308949098Y-136110161D01*
X308769140Y-136106653D01*
X308589707Y-136112039D01*
D12*
X207040000Y-94900000D02*
X207040000Y-97500000D01*
X207040000Y-94900000D02*
X257960000Y-94900000D01*
X257960000Y-94900000D02*
X257960000Y-100100000D01*
X209640000Y-100100000D02*
X257960000Y-100100000D01*
X209640000Y-97500000D02*
X209640000Y-100100000D01*
X207040000Y-97500000D02*
X209640000Y-97500000D01*
X207040000Y-100100000D02*
X208370000Y-100100000D01*
X207040000Y-98770000D02*
X207040000Y-100100000D01*
X216865600Y-101306000D02*
X220725600Y-101306000D01*
X220725600Y-101306000D02*
X220725600Y-101561000D01*
X216865600Y-101306000D02*
X213005600Y-101306000D01*
X213005600Y-101306000D02*
X213005600Y-101561000D01*
X216865600Y-111826000D02*
X220725600Y-111826000D01*
X220725600Y-111826000D02*
X220725600Y-111571000D01*
X216865600Y-111826000D02*
X213005600Y-111826000D01*
X213005600Y-111826000D02*
X213005600Y-111571000D01*
X213005600Y-111571000D02*
X211190600Y-111571000D01*
X252821621Y-118734600D02*
X253147179Y-118734600D01*
X252821621Y-117714600D02*
X253147179Y-117714600D01*
X212257821Y-113502200D02*
X212583379Y-113502200D01*
X212257821Y-112482200D02*
X212583379Y-112482200D01*
X242308278Y-150468700D02*
X241791122Y-150468700D01*
X242308278Y-149048700D02*
X241791122Y-149048700D01*
X234728100Y-129954200D02*
X234728100Y-135654200D01*
X240088100Y-136264200D02*
X240938100Y-136264200D01*
X241548100Y-135654200D02*
X241548100Y-130004200D01*
X240888100Y-129344200D02*
X240088100Y-129344200D01*
X235338100Y-136264200D02*
X236188100Y-136264200D01*
X236188100Y-129344200D02*
X235338100Y-129344200D01*
X240938100Y-136264200D02*
G75*
G03*
X241548100Y-135654200I0J610000D01*
G01*
X241548100Y-130004200D02*
G75*
G03*
X240888100Y-129344200I-660000J0D01*
G01*
X234728100Y-135654200D02*
G75*
G03*
X235338100Y-136264200I610000J0D01*
G01*
X235338100Y-129344200D02*
G75*
G03*
X234728100Y-129954200I0J-610000D01*
G01*
X229817648Y-147620600D02*
X232590152Y-147620600D01*
X229817648Y-144200600D02*
X232590152Y-144200600D01*
X239770600Y-158120900D02*
X240620600Y-158120900D01*
X240620600Y-151200900D02*
X239770600Y-151200900D01*
X235070600Y-158120900D02*
X235870600Y-158120900D01*
X234410600Y-151810900D02*
X234410600Y-157460900D01*
X235870600Y-151200900D02*
X235020600Y-151200900D01*
X241230600Y-157510900D02*
X241230600Y-151810900D01*
X240620600Y-158120900D02*
G75*
G03*
X241230600Y-157510900I0J610000D01*
G01*
X241230600Y-151810900D02*
G75*
G03*
X240620600Y-151200900I-610000J0D01*
G01*
X234410600Y-157460900D02*
G75*
G03*
X235070600Y-158120900I660000J0D01*
G01*
X235020600Y-151200900D02*
G75*
G03*
X234410600Y-151810900I0J-610000D01*
G01*
X223071440Y-156705900D02*
X223071440Y-153905900D01*
X223071440Y-153905900D02*
X214071440Y-153905900D01*
X214071440Y-153905900D02*
X212671440Y-155305900D01*
X212671440Y-155305900D02*
X212671440Y-156705900D01*
X212671440Y-161505900D02*
X212671440Y-164305900D01*
X212671440Y-164305900D02*
X223071440Y-164305900D01*
X223071440Y-164305900D02*
X223071440Y-161505900D01*
X256601900Y-107274879D02*
X256601900Y-106949321D01*
X257621900Y-107274879D02*
X257621900Y-106949321D01*
X248575179Y-118798100D02*
X248249621Y-118798100D01*
X248575179Y-117778100D02*
X248249621Y-117778100D01*
X253647121Y-104570100D02*
X253972679Y-104570100D01*
X253647121Y-105590100D02*
X253972679Y-105590100D01*
X232948378Y-129109700D02*
X232431222Y-129109700D01*
X232948378Y-130529700D02*
X232431222Y-130529700D01*
X214840200Y-117594300D02*
X214840200Y-118254300D01*
X214840200Y-115934300D02*
X214840200Y-116594300D01*
X214840200Y-115934300D02*
X216870200Y-115934300D01*
X216250200Y-118254300D02*
X214840200Y-118254300D01*
X218078578Y-114080000D02*
X217561422Y-114080000D01*
X218078578Y-115500000D02*
X217561422Y-115500000D01*
X216880621Y-113476800D02*
X217206179Y-113476800D01*
X216880621Y-112456800D02*
X217206179Y-112456800D01*
X281920251Y-144350000D02*
X281920251Y-143350000D01*
X279320251Y-144350000D02*
X281920251Y-144350000D01*
X281920251Y-140650000D02*
X281920251Y-141650000D01*
X279320251Y-140650000D02*
X281920251Y-140650000D01*
D14*
X299037000Y-134731002D02*
X299037000Y-131311002D01*
X299037000Y-131311002D02*
X307257000Y-131311002D01*
X307257000Y-131311002D02*
X307257000Y-134731002D01*
X307257000Y-134731002D02*
X299037000Y-134731002D01*
X303147000Y-131821002D02*
X299547000Y-131821002D01*
X299547000Y-131821002D02*
X299547000Y-132571002D01*
X299547000Y-132571002D02*
X299347000Y-132571002D01*
X299347000Y-132571002D02*
X299347000Y-133371002D01*
X299347000Y-133371002D02*
X299547000Y-133371002D01*
X299547000Y-133371002D02*
X299547000Y-134221002D01*
X299547000Y-134221002D02*
X303147000Y-134221002D01*
X303147000Y-131821002D02*
X306747000Y-131821002D01*
X306747000Y-131821002D02*
X306747000Y-132571002D01*
X306747000Y-132571002D02*
X306947000Y-132571002D01*
X306947000Y-132571002D02*
X306947000Y-133371002D01*
X306947000Y-133371002D02*
X306747000Y-133371002D01*
X306747000Y-133371002D02*
X306747000Y-134221002D01*
X306747000Y-134221002D02*
X303147000Y-134221002D01*
X298747000Y-131021002D02*
X298747000Y-132021002D01*
X298747000Y-131021002D02*
X299747000Y-131021002D01*
D11*
X207411571Y-101317285D02*
X207411571Y-100567285D01*
X207125857Y-100567285D01*
X207054428Y-100603000D01*
X207018714Y-100638714D01*
X206983000Y-100710142D01*
X206983000Y-100817285D01*
X207018714Y-100888714D01*
X207054428Y-100924428D01*
X207125857Y-100960142D01*
X207411571Y-100960142D01*
X206268714Y-101317285D02*
X206697285Y-101317285D01*
X206483000Y-101317285D02*
X206483000Y-100567285D01*
X206554428Y-100674428D01*
X206625857Y-100745857D01*
X206697285Y-100781571D01*
D12*
X219276314Y-100805285D02*
X219276314Y-100055285D01*
X219097742Y-100055285D01*
X218990600Y-100091000D01*
X218919171Y-100162428D01*
X218883457Y-100233857D01*
X218847742Y-100376714D01*
X218847742Y-100483857D01*
X218883457Y-100626714D01*
X218919171Y-100698142D01*
X218990600Y-100769571D01*
X219097742Y-100805285D01*
X219276314Y-100805285D01*
X218562028Y-100769571D02*
X218454885Y-100805285D01*
X218276314Y-100805285D01*
X218204885Y-100769571D01*
X218169171Y-100733857D01*
X218133457Y-100662428D01*
X218133457Y-100591000D01*
X218169171Y-100519571D01*
X218204885Y-100483857D01*
X218276314Y-100448142D01*
X218419171Y-100412428D01*
X218490600Y-100376714D01*
X218526314Y-100341000D01*
X218562028Y-100269571D01*
X218562028Y-100198142D01*
X218526314Y-100126714D01*
X218490600Y-100091000D01*
X218419171Y-100055285D01*
X218240600Y-100055285D01*
X218133457Y-100091000D01*
X217883457Y-100055285D02*
X217419171Y-100055285D01*
X217669171Y-100341000D01*
X217562028Y-100341000D01*
X217490600Y-100376714D01*
X217454885Y-100412428D01*
X217419171Y-100483857D01*
X217419171Y-100662428D01*
X217454885Y-100733857D01*
X217490600Y-100769571D01*
X217562028Y-100805285D01*
X217776314Y-100805285D01*
X217847742Y-100769571D01*
X217883457Y-100733857D01*
X217133457Y-100126714D02*
X217097742Y-100091000D01*
X217026314Y-100055285D01*
X216847742Y-100055285D01*
X216776314Y-100091000D01*
X216740600Y-100126714D01*
X216704885Y-100198142D01*
X216704885Y-100269571D01*
X216740600Y-100376714D01*
X217169171Y-100805285D01*
X216704885Y-100805285D01*
X216454885Y-100055285D02*
X215990600Y-100055285D01*
X216240600Y-100341000D01*
X216133457Y-100341000D01*
X216062028Y-100376714D01*
X216026314Y-100412428D01*
X215990600Y-100483857D01*
X215990600Y-100662428D01*
X216026314Y-100733857D01*
X216062028Y-100769571D01*
X216133457Y-100805285D01*
X216347742Y-100805285D01*
X216419171Y-100769571D01*
X216454885Y-100733857D01*
X215276314Y-100805285D02*
X215704885Y-100805285D01*
X215490600Y-100805285D02*
X215490600Y-100055285D01*
X215562028Y-100162428D01*
X215633457Y-100233857D01*
X215704885Y-100269571D01*
X214954885Y-100805285D02*
X214954885Y-100055285D01*
X214704885Y-100591000D01*
X214454885Y-100055285D01*
X214454885Y-100805285D01*
D11*
X253109400Y-119960885D02*
X253359400Y-119603742D01*
X253537971Y-119960885D02*
X253537971Y-119210885D01*
X253252257Y-119210885D01*
X253180828Y-119246600D01*
X253145114Y-119282314D01*
X253109400Y-119353742D01*
X253109400Y-119460885D01*
X253145114Y-119532314D01*
X253180828Y-119568028D01*
X253252257Y-119603742D01*
X253537971Y-119603742D01*
X252680828Y-119532314D02*
X252752257Y-119496600D01*
X252787971Y-119460885D01*
X252823685Y-119389457D01*
X252823685Y-119353742D01*
X252787971Y-119282314D01*
X252752257Y-119246600D01*
X252680828Y-119210885D01*
X252537971Y-119210885D01*
X252466542Y-119246600D01*
X252430828Y-119282314D01*
X252395114Y-119353742D01*
X252395114Y-119389457D01*
X252430828Y-119460885D01*
X252466542Y-119496600D01*
X252537971Y-119532314D01*
X252680828Y-119532314D01*
X252752257Y-119568028D01*
X252787971Y-119603742D01*
X252823685Y-119675171D01*
X252823685Y-119818028D01*
X252787971Y-119889457D01*
X252752257Y-119925171D01*
X252680828Y-119960885D01*
X252537971Y-119960885D01*
X252466542Y-119925171D01*
X252430828Y-119889457D01*
X252395114Y-119818028D01*
X252395114Y-119675171D01*
X252430828Y-119603742D01*
X252466542Y-119568028D01*
X252537971Y-119532314D01*
X214655000Y-113267857D02*
X214690714Y-113303571D01*
X214797857Y-113339285D01*
X214869285Y-113339285D01*
X214976428Y-113303571D01*
X215047857Y-113232142D01*
X215083571Y-113160714D01*
X215119285Y-113017857D01*
X215119285Y-112910714D01*
X215083571Y-112767857D01*
X215047857Y-112696428D01*
X214976428Y-112625000D01*
X214869285Y-112589285D01*
X214797857Y-112589285D01*
X214690714Y-112625000D01*
X214655000Y-112660714D01*
X213976428Y-112589285D02*
X214333571Y-112589285D01*
X214369285Y-112946428D01*
X214333571Y-112910714D01*
X214262142Y-112875000D01*
X214083571Y-112875000D01*
X214012142Y-112910714D01*
X213976428Y-112946428D01*
X213940714Y-113017857D01*
X213940714Y-113196428D01*
X213976428Y-113267857D01*
X214012142Y-113303571D01*
X214083571Y-113339285D01*
X214262142Y-113339285D01*
X214333571Y-113303571D01*
X214369285Y-113267857D01*
X242531842Y-148489857D02*
X242567557Y-148525571D01*
X242674700Y-148561285D01*
X242746128Y-148561285D01*
X242853271Y-148525571D01*
X242924700Y-148454142D01*
X242960414Y-148382714D01*
X242996128Y-148239857D01*
X242996128Y-148132714D01*
X242960414Y-147989857D01*
X242924700Y-147918428D01*
X242853271Y-147847000D01*
X242746128Y-147811285D01*
X242674700Y-147811285D01*
X242567557Y-147847000D01*
X242531842Y-147882714D01*
X241817557Y-148561285D02*
X242246128Y-148561285D01*
X242031842Y-148561285D02*
X242031842Y-147811285D01*
X242103271Y-147918428D01*
X242174700Y-147989857D01*
X242246128Y-148025571D01*
X241567557Y-147811285D02*
X241103271Y-147811285D01*
X241353271Y-148097000D01*
X241246128Y-148097000D01*
X241174700Y-148132714D01*
X241138985Y-148168428D01*
X241103271Y-148239857D01*
X241103271Y-148418428D01*
X241138985Y-148489857D01*
X241174700Y-148525571D01*
X241246128Y-148561285D01*
X241460414Y-148561285D01*
X241531842Y-148525571D01*
X241567557Y-148489857D01*
X242364428Y-132179200D02*
X242364428Y-131929200D01*
X242757285Y-131929200D02*
X242007285Y-131929200D01*
X242007285Y-132286342D01*
X242364428Y-132822057D02*
X242400142Y-132929200D01*
X242435857Y-132964914D01*
X242507285Y-133000628D01*
X242614428Y-133000628D01*
X242685857Y-132964914D01*
X242721571Y-132929200D01*
X242757285Y-132857771D01*
X242757285Y-132572057D01*
X242007285Y-132572057D01*
X242007285Y-132822057D01*
X242043000Y-132893485D01*
X242078714Y-132929200D01*
X242150142Y-132964914D01*
X242221571Y-132964914D01*
X242293000Y-132929200D01*
X242328714Y-132893485D01*
X242364428Y-132822057D01*
X242364428Y-132572057D01*
X242078714Y-133286342D02*
X242043000Y-133322057D01*
X242007285Y-133393485D01*
X242007285Y-133572057D01*
X242043000Y-133643485D01*
X242078714Y-133679200D01*
X242150142Y-133714914D01*
X242221571Y-133714914D01*
X242328714Y-133679200D01*
X242757285Y-133250628D01*
X242757285Y-133714914D01*
X231828900Y-143342428D02*
X232078900Y-143342428D01*
X232078900Y-143735285D02*
X232078900Y-142985285D01*
X231721757Y-142985285D01*
X231186042Y-143342428D02*
X231078900Y-143378142D01*
X231043185Y-143413857D01*
X231007471Y-143485285D01*
X231007471Y-143592428D01*
X231043185Y-143663857D01*
X231078900Y-143699571D01*
X231150328Y-143735285D01*
X231436042Y-143735285D01*
X231436042Y-142985285D01*
X231186042Y-142985285D01*
X231114614Y-143021000D01*
X231078900Y-143056714D01*
X231043185Y-143128142D01*
X231043185Y-143199571D01*
X231078900Y-143271000D01*
X231114614Y-143306714D01*
X231186042Y-143342428D01*
X231436042Y-143342428D01*
X230757471Y-142985285D02*
X230293185Y-142985285D01*
X230543185Y-143271000D01*
X230436042Y-143271000D01*
X230364614Y-143306714D01*
X230328900Y-143342428D01*
X230293185Y-143413857D01*
X230293185Y-143592428D01*
X230328900Y-143663857D01*
X230364614Y-143699571D01*
X230436042Y-143735285D01*
X230650328Y-143735285D01*
X230721757Y-143699571D01*
X230757471Y-143663857D01*
X233360128Y-154010500D02*
X233360128Y-153760500D01*
X233752985Y-153760500D02*
X233002985Y-153760500D01*
X233002985Y-154117642D01*
X233360128Y-154653357D02*
X233395842Y-154760500D01*
X233431557Y-154796214D01*
X233502985Y-154831928D01*
X233610128Y-154831928D01*
X233681557Y-154796214D01*
X233717271Y-154760500D01*
X233752985Y-154689071D01*
X233752985Y-154403357D01*
X233002985Y-154403357D01*
X233002985Y-154653357D01*
X233038700Y-154724785D01*
X233074414Y-154760500D01*
X233145842Y-154796214D01*
X233217271Y-154796214D01*
X233288700Y-154760500D01*
X233324414Y-154724785D01*
X233360128Y-154653357D01*
X233360128Y-154403357D01*
X233252985Y-155474785D02*
X233752985Y-155474785D01*
X232967271Y-155296214D02*
X233502985Y-155117642D01*
X233502985Y-155581928D01*
X217996440Y-165795185D02*
X218353582Y-165795185D01*
X218353582Y-165045185D01*
X217782154Y-165116614D02*
X217746440Y-165080900D01*
X217675011Y-165045185D01*
X217496440Y-165045185D01*
X217425011Y-165080900D01*
X217389297Y-165116614D01*
X217353582Y-165188042D01*
X217353582Y-165259471D01*
X217389297Y-165366614D01*
X217817868Y-165795185D01*
X217353582Y-165795185D01*
X257476585Y-104726500D02*
X257119442Y-104476500D01*
X257476585Y-104297928D02*
X256726585Y-104297928D01*
X256726585Y-104583642D01*
X256762300Y-104655071D01*
X256798014Y-104690785D01*
X256869442Y-104726500D01*
X256976585Y-104726500D01*
X257048014Y-104690785D01*
X257083728Y-104655071D01*
X257119442Y-104583642D01*
X257119442Y-104297928D01*
X256726585Y-104976500D02*
X256726585Y-105440785D01*
X257012300Y-105190785D01*
X257012300Y-105297928D01*
X257048014Y-105369357D01*
X257083728Y-105405071D01*
X257155157Y-105440785D01*
X257333728Y-105440785D01*
X257405157Y-105405071D01*
X257440871Y-105369357D01*
X257476585Y-105297928D01*
X257476585Y-105083642D01*
X257440871Y-105012214D01*
X257405157Y-104976500D01*
X248289400Y-117383885D02*
X248539400Y-117026742D01*
X248717971Y-117383885D02*
X248717971Y-116633885D01*
X248432257Y-116633885D01*
X248360828Y-116669600D01*
X248325114Y-116705314D01*
X248289400Y-116776742D01*
X248289400Y-116883885D01*
X248325114Y-116955314D01*
X248360828Y-116991028D01*
X248432257Y-117026742D01*
X248717971Y-117026742D01*
X248039400Y-116633885D02*
X247539400Y-116633885D01*
X247860828Y-117383885D01*
X253960300Y-104123985D02*
X254210300Y-103766842D01*
X254388871Y-104123985D02*
X254388871Y-103373985D01*
X254103157Y-103373985D01*
X254031728Y-103409700D01*
X253996014Y-103445414D01*
X253960300Y-103516842D01*
X253960300Y-103623985D01*
X253996014Y-103695414D01*
X254031728Y-103731128D01*
X254103157Y-103766842D01*
X254388871Y-103766842D01*
X253603157Y-104123985D02*
X253460300Y-104123985D01*
X253388871Y-104088271D01*
X253353157Y-104052557D01*
X253281728Y-103945414D01*
X253246014Y-103802557D01*
X253246014Y-103516842D01*
X253281728Y-103445414D01*
X253317442Y-103409700D01*
X253388871Y-103373985D01*
X253531728Y-103373985D01*
X253603157Y-103409700D01*
X253638871Y-103445414D01*
X253674585Y-103516842D01*
X253674585Y-103695414D01*
X253638871Y-103766842D01*
X253603157Y-103802557D01*
X253531728Y-103838271D01*
X253388871Y-103838271D01*
X253317442Y-103802557D01*
X253281728Y-103766842D01*
X253246014Y-103695414D01*
X232878300Y-128652457D02*
X232914014Y-128688171D01*
X233021157Y-128723885D01*
X233092585Y-128723885D01*
X233199728Y-128688171D01*
X233271157Y-128616742D01*
X233306871Y-128545314D01*
X233342585Y-128402457D01*
X233342585Y-128295314D01*
X233306871Y-128152457D01*
X233271157Y-128081028D01*
X233199728Y-128009600D01*
X233092585Y-127973885D01*
X233021157Y-127973885D01*
X232914014Y-128009600D01*
X232878300Y-128045314D01*
X232521157Y-128723885D02*
X232378300Y-128723885D01*
X232306871Y-128688171D01*
X232271157Y-128652457D01*
X232199728Y-128545314D01*
X232164014Y-128402457D01*
X232164014Y-128116742D01*
X232199728Y-128045314D01*
X232235442Y-128009600D01*
X232306871Y-127973885D01*
X232449728Y-127973885D01*
X232521157Y-128009600D01*
X232556871Y-128045314D01*
X232592585Y-128116742D01*
X232592585Y-128295314D01*
X232556871Y-128366742D01*
X232521157Y-128402457D01*
X232449728Y-128438171D01*
X232306871Y-128438171D01*
X232235442Y-128402457D01*
X232199728Y-128366742D01*
X232164014Y-128295314D01*
X213542514Y-117022871D02*
X213506800Y-116951442D01*
X213435371Y-116880014D01*
X213328228Y-116772871D01*
X213292514Y-116701442D01*
X213292514Y-116630014D01*
X213471085Y-116665728D02*
X213435371Y-116594300D01*
X213363942Y-116522871D01*
X213221085Y-116487157D01*
X212971085Y-116487157D01*
X212828228Y-116522871D01*
X212756800Y-116594300D01*
X212721085Y-116665728D01*
X212721085Y-116808585D01*
X212756800Y-116880014D01*
X212828228Y-116951442D01*
X212971085Y-116987157D01*
X213221085Y-116987157D01*
X213363942Y-116951442D01*
X213435371Y-116880014D01*
X213471085Y-116808585D01*
X213471085Y-116665728D01*
X212721085Y-117665728D02*
X212721085Y-117308585D01*
X213078228Y-117272871D01*
X213042514Y-117308585D01*
X213006800Y-117380014D01*
X213006800Y-117558585D01*
X213042514Y-117630014D01*
X213078228Y-117665728D01*
X213149657Y-117701442D01*
X213328228Y-117701442D01*
X213399657Y-117665728D01*
X213435371Y-117630014D01*
X213471085Y-117558585D01*
X213471085Y-117380014D01*
X213435371Y-117308585D01*
X213399657Y-117272871D01*
X221121542Y-115141985D02*
X221371542Y-114784842D01*
X221550114Y-115141985D02*
X221550114Y-114391985D01*
X221264400Y-114391985D01*
X221192971Y-114427700D01*
X221157257Y-114463414D01*
X221121542Y-114534842D01*
X221121542Y-114641985D01*
X221157257Y-114713414D01*
X221192971Y-114749128D01*
X221264400Y-114784842D01*
X221550114Y-114784842D01*
X220835828Y-114463414D02*
X220800114Y-114427700D01*
X220728685Y-114391985D01*
X220550114Y-114391985D01*
X220478685Y-114427700D01*
X220442971Y-114463414D01*
X220407257Y-114534842D01*
X220407257Y-114606271D01*
X220442971Y-114713414D01*
X220871542Y-115141985D01*
X220407257Y-115141985D01*
X219978685Y-114713414D02*
X220050114Y-114677700D01*
X220085828Y-114641985D01*
X220121542Y-114570557D01*
X220121542Y-114534842D01*
X220085828Y-114463414D01*
X220050114Y-114427700D01*
X219978685Y-114391985D01*
X219835828Y-114391985D01*
X219764400Y-114427700D01*
X219728685Y-114463414D01*
X219692971Y-114534842D01*
X219692971Y-114570557D01*
X219728685Y-114641985D01*
X219764400Y-114677700D01*
X219835828Y-114713414D01*
X219978685Y-114713414D01*
X220050114Y-114749128D01*
X220085828Y-114784842D01*
X220121542Y-114856271D01*
X220121542Y-114999128D01*
X220085828Y-115070557D01*
X220050114Y-115106271D01*
X219978685Y-115141985D01*
X219835828Y-115141985D01*
X219764400Y-115106271D01*
X219728685Y-115070557D01*
X219692971Y-114999128D01*
X219692971Y-114856271D01*
X219728685Y-114784842D01*
X219764400Y-114749128D01*
X219835828Y-114713414D01*
X220294142Y-113306085D02*
X220544142Y-112948942D01*
X220722714Y-113306085D02*
X220722714Y-112556085D01*
X220437000Y-112556085D01*
X220365571Y-112591800D01*
X220329857Y-112627514D01*
X220294142Y-112698942D01*
X220294142Y-112806085D01*
X220329857Y-112877514D01*
X220365571Y-112913228D01*
X220437000Y-112948942D01*
X220722714Y-112948942D01*
X220008428Y-112627514D02*
X219972714Y-112591800D01*
X219901285Y-112556085D01*
X219722714Y-112556085D01*
X219651285Y-112591800D01*
X219615571Y-112627514D01*
X219579857Y-112698942D01*
X219579857Y-112770371D01*
X219615571Y-112877514D01*
X220044142Y-113306085D01*
X219579857Y-113306085D01*
X219222714Y-113306085D02*
X219079857Y-113306085D01*
X219008428Y-113270371D01*
X218972714Y-113234657D01*
X218901285Y-113127514D01*
X218865571Y-112984657D01*
X218865571Y-112698942D01*
X218901285Y-112627514D01*
X218937000Y-112591800D01*
X219008428Y-112556085D01*
X219151285Y-112556085D01*
X219222714Y-112591800D01*
X219258428Y-112627514D01*
X219294142Y-112698942D01*
X219294142Y-112877514D01*
X219258428Y-112948942D01*
X219222714Y-112984657D01*
X219151285Y-113020371D01*
X219008428Y-113020371D01*
X218937000Y-112984657D01*
X218901285Y-112948942D01*
X218865571Y-112877514D01*
X269089285Y-138081760D02*
X269089285Y-137724617D01*
X268339285Y-137724617D01*
X268696428Y-138331760D02*
X268696428Y-138581760D01*
X269089285Y-138688903D02*
X269089285Y-138331760D01*
X268339285Y-138331760D01*
X268339285Y-138688903D01*
X269089285Y-139010331D02*
X268339285Y-139010331D01*
X268339285Y-139188903D01*
X268375000Y-139296046D01*
X268446428Y-139367474D01*
X268517857Y-139403189D01*
X268660714Y-139438903D01*
X268767857Y-139438903D01*
X268910714Y-139403189D01*
X268982142Y-139367474D01*
X269053571Y-139296046D01*
X269089285Y-139188903D01*
X269089285Y-139010331D01*
X269160714Y-139581760D02*
X269160714Y-140153189D01*
X268696428Y-140581760D02*
X268732142Y-140688903D01*
X268767857Y-140724617D01*
X268839285Y-140760331D01*
X268946428Y-140760331D01*
X269017857Y-140724617D01*
X269053571Y-140688903D01*
X269089285Y-140617474D01*
X269089285Y-140331760D01*
X268339285Y-140331760D01*
X268339285Y-140581760D01*
X268375000Y-140653189D01*
X268410714Y-140688903D01*
X268482142Y-140724617D01*
X268553571Y-140724617D01*
X268625000Y-140688903D01*
X268660714Y-140653189D01*
X268696428Y-140581760D01*
X268696428Y-140331760D01*
X269089285Y-141510331D02*
X268732142Y-141260331D01*
X269089285Y-141081760D02*
X268339285Y-141081760D01*
X268339285Y-141367474D01*
X268375000Y-141438903D01*
X268410714Y-141474617D01*
X268482142Y-141510331D01*
X268589285Y-141510331D01*
X268660714Y-141474617D01*
X268696428Y-141438903D01*
X268732142Y-141367474D01*
X268732142Y-141081760D01*
X269089285Y-141831760D02*
X268339285Y-141831760D01*
X268339285Y-142010331D01*
X268375000Y-142117474D01*
X268446428Y-142188903D01*
X268517857Y-142224617D01*
X268660714Y-142260331D01*
X268767857Y-142260331D01*
X268910714Y-142224617D01*
X268982142Y-142188903D01*
X269053571Y-142117474D01*
X269089285Y-142010331D01*
X269089285Y-141831760D01*
X269160714Y-142403189D02*
X269160714Y-142974617D01*
X268375000Y-143546046D02*
X268339285Y-143474617D01*
X268339285Y-143367474D01*
X268375000Y-143260331D01*
X268446428Y-143188903D01*
X268517857Y-143153189D01*
X268660714Y-143117474D01*
X268767857Y-143117474D01*
X268910714Y-143153189D01*
X268982142Y-143188903D01*
X269053571Y-143260331D01*
X269089285Y-143367474D01*
X269089285Y-143438903D01*
X269053571Y-143546046D01*
X269017857Y-143581760D01*
X268767857Y-143581760D01*
X268767857Y-143438903D01*
X269089285Y-143903189D02*
X268339285Y-143903189D01*
X269089285Y-144331760D01*
X268339285Y-144331760D01*
X269089285Y-144688903D02*
X268339285Y-144688903D01*
X268339285Y-144867474D01*
X268375000Y-144974617D01*
X268446428Y-145046046D01*
X268517857Y-145081760D01*
X268660714Y-145117474D01*
X268767857Y-145117474D01*
X268910714Y-145081760D01*
X268982142Y-145046046D01*
X269053571Y-144974617D01*
X269089285Y-144867474D01*
X269089285Y-144688903D01*
X280610222Y-138291406D02*
X280610222Y-137541406D01*
X280431651Y-137541406D01*
X280324508Y-137577121D01*
X280253079Y-137648549D01*
X280217365Y-137719978D01*
X280181651Y-137862835D01*
X280181651Y-137969978D01*
X280217365Y-138112835D01*
X280253079Y-138184263D01*
X280324508Y-138255692D01*
X280431651Y-138291406D01*
X280610222Y-138291406D01*
X279503079Y-137541406D02*
X279860222Y-137541406D01*
X279895936Y-137898549D01*
X279860222Y-137862835D01*
X279788793Y-137827121D01*
X279610222Y-137827121D01*
X279538793Y-137862835D01*
X279503079Y-137898549D01*
X279467365Y-137969978D01*
X279467365Y-138148549D01*
X279503079Y-138219978D01*
X279538793Y-138255692D01*
X279610222Y-138291406D01*
X279788793Y-138291406D01*
X279860222Y-138255692D01*
X279895936Y-138219978D01*
D12*
X307879380Y-132331478D02*
X308593666Y-132331478D01*
X308736523Y-132283859D01*
X308831761Y-132188621D01*
X308879380Y-132045763D01*
X308879380Y-131950525D01*
X308879380Y-133331478D02*
X308879380Y-132760049D01*
X308879380Y-133045763D02*
X307879380Y-133045763D01*
X308022238Y-132950525D01*
X308117476Y-132855287D01*
X308165095Y-132760049D01*
X308879380Y-133807668D02*
X308879380Y-133998144D01*
X308831761Y-134093382D01*
X308784142Y-134141002D01*
X308641285Y-134236240D01*
X308450809Y-134283859D01*
X308069857Y-134283859D01*
X307974619Y-134236240D01*
X307927000Y-134188621D01*
X307879380Y-134093382D01*
X307879380Y-133902906D01*
X307927000Y-133807668D01*
X307974619Y-133760049D01*
X308069857Y-133712430D01*
X308307952Y-133712430D01*
X308403190Y-133760049D01*
X308450809Y-133807668D01*
X308498428Y-133902906D01*
X308498428Y-134093382D01*
X308450809Y-134188621D01*
X308403190Y-134236240D01*
X308307952Y-134283859D01*
M02*
