M48
INCH,LZ
T1C0.0118
T2C0.0197
T3C0.0236
T4C0.0276
T5C0.0315
T6C0.0394
T7C0.0598
T8C0.0630
T9C0.0728
T10C0.1063
T11C0.1260
T12C0.0200
T13C0.0413
T14C0.0890
T15C0.1000
T16C0.1063
T17C0.1571
%
G90
G05
T1
X08504Y-043395
X097113Y-043112
X097113Y-043624
X097113Y-044135
X09755Y-041845
X097624Y-043112
X097624Y-043624
X097624Y-044135
X09791Y-041845
X097999Y-04554
X098136Y-043112
X098136Y-043624
X098136Y-044135
X098205Y-04611
X098553Y-045709
X098555Y-04604
X098648Y-043112
X098648Y-043624
X098648Y-044135
X098839Y-04551
X098839Y-04584
X09916Y-043112
X09916Y-043624
X09916Y-044135
X0993Y-046061
X099455Y-04547
X099672Y-043112
X099672Y-043624
X099672Y-044135
X100183Y-043112
X100183Y-043624
X100183Y-044135
X10075Y-04602
X10913Y-054246
X10913Y-05464
X109177Y-050641
X109177Y-051035
X109523Y-054246
X109523Y-05464
X10957Y-050641
X10957Y-051035
X109917Y-054246
X109917Y-05464
X109964Y-050641
X109964Y-051035
X110099Y-052011
X110099Y-052247
X110099Y-052483
X110099Y-052719
X110099Y-052955
X110311Y-054246
X110311Y-05464
X110358Y-050641
X110358Y-051035
X110413Y-052011
X110413Y-052247
X110413Y-052483
X110413Y-052719
X110413Y-052955
X110704Y-054246
X110704Y-05464
X110751Y-050641
X110751Y-051035
X111098Y-054246
X111098Y-05464
X111145Y-050641
X111145Y-051035
T2
X087522Y-065583
X088014Y-065583
X089535Y-05081
X090027Y-05081
X109388Y-038394
X10939Y-041064
X10943Y-043464
X10988Y-038394
X109883Y-041064
X109923Y-043464
X112328Y-038394
X11282Y-038394
X11731Y-045674
X117803Y-045674
T3
X07879Y-052985
X07915Y-055135
X08057Y-055138
X08171Y-046405
X081909Y-064846
X082019Y-061516
X08212Y-053005
X08219Y-053895
X082329Y-064846
X082571Y-048768
X082583Y-049764
X082643Y-061524
X08399Y-045045
X084185Y-043146
X084236Y-051287
X084248Y-05176
X084264Y-050295
X084449Y-040472
X084449Y-041496
X08491Y-046835
X085006Y-061692
X08506Y-06373
X08506Y-064242
X08513Y-043787
X085189Y-065376
X08531Y-055605
X085532Y-06373
X085532Y-064242
X085539Y-063243
X08554Y-057275
X08554Y-059775
X085589Y-065811
X08564Y-04017
X08604Y-04233
X08611Y-055875
X086146Y-049272
X086209Y-061169
X086299Y-043189
X08632Y-044505
X086457Y-048102
X08678Y-058945
X08686Y-044855
X0869Y-055625
X08732Y-055075
X08746Y-063086
X087488Y-044277
X08864Y-044405
X08894Y-042865
X08911Y-054945
X08936Y-061045
X08939Y-048655
X08957Y-058215
X09038Y-044495
X090605Y-04175
X09065Y-049545
X09102Y-056855
X09119Y-06061
X09122Y-053881
X091234Y-054795
X091395Y-04567
X091415Y-041815
X09154Y-051745
X09173Y-043895
X09208Y-06244
X092095Y-060595
X092105Y-06153
X09216Y-055711
X09218Y-041805
X092185Y-054801
X09222Y-053866
X09266Y-057775
X09274Y-043885
X093Y-041775
X09307Y-048985
X09363Y-046635
X09367Y-049575
X093845Y-052156
X09407Y-060505
X09428Y-046495
X094345Y-048175
X09444Y-051005
X094445Y-04532
X09464Y-057575
X094811Y-043754
X095Y-059855
X095158Y-056908
X09591Y-046179
X09618Y-04238
X096355Y-0466
X096825Y-04937
X09836Y-040465
X098625Y-047045
X099525Y-041875
X100441Y-046886
X100725Y-04247
X101175Y-04467
X10555Y-052148
X10555Y-052739
X10555Y-05333
X10555Y-05392
X10555Y-054511
X10555Y-055101
X10614Y-052148
X10614Y-052739
X10614Y-05333
X10614Y-05392
X10614Y-054511
X10614Y-055101
X106731Y-052148
X106731Y-052739
X106731Y-05333
X106731Y-05392
X106731Y-054511
X106731Y-055101
X107321Y-052739
X107321Y-05333
X107321Y-05392
X107321Y-054511
X107321Y-055101
X107321Y-055692
X107321Y-056282
X107321Y-056873
X107361Y-047896
X107361Y-048487
X107361Y-049078
X107912Y-05333
X107912Y-05392
X107912Y-054511
X107912Y-055101
X107912Y-055692
X107912Y-056282
X107912Y-056873
X107951Y-047896
X108503Y-051558
X108503Y-052148
X108503Y-05333
X108503Y-05392
X108503Y-054511
X108503Y-055101
X108503Y-055692
X108503Y-056282
X108503Y-056873
X108542Y-047896
X109093Y-055101
X109093Y-055692
X109093Y-056282
X109093Y-056873
X109133Y-047896
X109133Y-048487
X109133Y-049078
X109133Y-049668
X109684Y-055101
X109684Y-055692
X109684Y-056282
X109684Y-056873
X109723Y-047896
X109723Y-048487
X109723Y-049078
X109723Y-049668
X110274Y-055101
X110274Y-055692
X110274Y-056282
X110274Y-056873
X110314Y-047896
X110314Y-048487
X110314Y-049078
X110314Y-049668
X110865Y-055101
X110865Y-055692
X110865Y-056282
X110865Y-056873
X110904Y-047896
X110904Y-048487
X110904Y-049078
X110904Y-049668
X111455Y-055101
X111455Y-055692
X111455Y-056282
X111455Y-056873
X111495Y-047896
X111495Y-048487
X111495Y-049078
X112046Y-05333
X112046Y-055692
X112046Y-056282
X112046Y-056873
X112085Y-047896
X112085Y-048487
X112085Y-049078
X112109Y-040399
X11216Y-043504
X112268Y-041902
X112636Y-052148
X112636Y-052739
X112636Y-05333
X112636Y-055692
X112636Y-056282
X112636Y-056873
X112676Y-047896
X112676Y-048487
X112676Y-049078
X113227Y-051558
X113227Y-052148
X113227Y-052739
X113227Y-05333
X113227Y-05392
X113227Y-054511
X113227Y-055101
X113227Y-055692
X113227Y-056282
X113227Y-056873
X113266Y-047896
X113809Y-041899
X113818Y-049786
X113818Y-050377
X113818Y-050967
X113818Y-051558
X113818Y-052148
X113818Y-052739
X113818Y-05333
X113818Y-05392
X113818Y-054511
X113818Y-055101
X114408Y-049786
X114408Y-050377
X114408Y-050967
X114408Y-051558
X114408Y-05333
X114408Y-05392
X114408Y-054511
X114408Y-055101
X114999Y-049786
X114999Y-050377
X114999Y-050967
X114999Y-051558
X114999Y-05333
X114999Y-05392
X114999Y-054511
X114999Y-055101
X11702Y-040299
T4
X08804Y-041695
T5
X098835Y-047746
X098835Y-048533
X10245Y-0409
X10245Y-0429
X10345Y-0419
T6
X082035Y-037886
X082035Y-038886
X082146Y-040709
X082146Y-041709
X082146Y-042709
X082146Y-043709
X082146Y-044709
X083035Y-037886
X083035Y-038886
X084035Y-037886
X084035Y-038886
X085035Y-037886
X085035Y-038886
X086035Y-037886
X086035Y-038886
X087035Y-037886
X087035Y-038886
X088035Y-037886
X088035Y-038886
X089035Y-037886
X089035Y-038886
X090035Y-037886
X090035Y-038886
X091035Y-037886
X091035Y-038886
X092035Y-037886
X092035Y-038886
X093035Y-037886
X093035Y-038886
X094035Y-037886
X094035Y-038886
X095035Y-037886
X095035Y-038886
X096035Y-037886
X096035Y-038886
X097035Y-037886
X097035Y-038886
X098035Y-037886
X098035Y-038886
X099035Y-037886
X099035Y-038886
X100035Y-037886
X100035Y-038886
X101035Y-037886
X101035Y-038886
X115434Y-038349
X116434Y-038349
X117434Y-038349
T7
X098477Y-051812
X098477Y-053812
T8
X080051Y-06012
X080057Y-062056
X080098Y-041201
X080098Y-04311
X090016Y-065635
X092129Y-065645
X094253Y-065665
X10277Y-044505
T9
X097027Y-06338
X102224Y-06338
T10
X080118Y-038386
X080118Y-057677
X102953Y-038386
X102953Y-057677
T11
X080118Y-065157
T12
X104325Y-0421
X104325Y-042494
X104325Y-042887
X104329Y-052048
X104329Y-052441
X104329Y-052835
T13
X108091Y-048772
X114587Y-052522
T14
X106122Y-048585
X106122Y-056459
X11439Y-048585
X11439Y-056459
T15
X099477Y-052812
T16
X106337Y-038386
X106337Y-045472
X12366Y-038386
X12366Y-045472
T17
X102477Y-051312
X102477Y-054312
T0
M30
