G04 #@! TF.GenerationSoftware,KiCad,Pcbnew,(5.1.10-1-10_14)*
G04 #@! TF.CreationDate,2022-08-04T15:39:48-07:00*
G04 #@! TF.ProjectId,ulc-mm,756c632d-6d6d-42e6-9b69-6361645f7063,rev?*
G04 #@! TF.SameCoordinates,Original*
G04 #@! TF.FileFunction,Copper,L2,Inr*
G04 #@! TF.FilePolarity,Positive*
%FSLAX46Y46*%
G04 Gerber Fmt 4.6, Leading zero omitted, Abs format (unit mm)*
G04 Created by KiCad (PCBNEW (5.1.10-1-10_14)) date 2022-08-04 15:39:48*
%MOMM*%
%LPD*%
G01*
G04 APERTURE LIST*
G04 #@! TA.AperFunction,ComponentPad*
%ADD10C,3.960000*%
G04 #@! TD*
G04 #@! TA.AperFunction,ComponentPad*
%ADD11C,0.300000*%
G04 #@! TD*
G04 #@! TA.AperFunction,ComponentPad*
%ADD12R,1.700000X1.700000*%
G04 #@! TD*
G04 #@! TA.AperFunction,ComponentPad*
%ADD13O,1.700000X1.700000*%
G04 #@! TD*
G04 #@! TA.AperFunction,ComponentPad*
%ADD14O,0.900000X1.400000*%
G04 #@! TD*
G04 #@! TA.AperFunction,ComponentPad*
%ADD15C,2.800000*%
G04 #@! TD*
G04 #@! TA.AperFunction,ComponentPad*
%ADD16R,1.600000X1.600000*%
G04 #@! TD*
G04 #@! TA.AperFunction,ComponentPad*
%ADD17C,1.600000*%
G04 #@! TD*
G04 #@! TA.AperFunction,ComponentPad*
%ADD18C,1.440000*%
G04 #@! TD*
G04 #@! TA.AperFunction,ComponentPad*
%ADD19R,2.280000X2.280000*%
G04 #@! TD*
G04 #@! TA.AperFunction,ComponentPad*
%ADD20C,2.280000*%
G04 #@! TD*
G04 #@! TA.AperFunction,ComponentPad*
%ADD21C,5.400000*%
G04 #@! TD*
G04 #@! TA.AperFunction,ComponentPad*
%ADD22C,6.400000*%
G04 #@! TD*
G04 #@! TA.AperFunction,ComponentPad*
%ADD23O,1.300000X0.800000*%
G04 #@! TD*
G04 #@! TA.AperFunction,ComponentPad*
%ADD24O,1.740000X2.190000*%
G04 #@! TD*
G04 #@! TA.AperFunction,ViaPad*
%ADD25C,1.000000*%
G04 #@! TD*
G04 #@! TA.AperFunction,ViaPad*
%ADD26C,0.900000*%
G04 #@! TD*
G04 #@! TA.AperFunction,ViaPad*
%ADD27C,0.600000*%
G04 #@! TD*
G04 #@! TA.AperFunction,Conductor*
%ADD28C,0.500000*%
G04 #@! TD*
G04 #@! TA.AperFunction,Conductor*
%ADD29C,0.750000*%
G04 #@! TD*
G04 #@! TA.AperFunction,Conductor*
%ADD30C,0.350000*%
G04 #@! TD*
G04 #@! TA.AperFunction,Conductor*
%ADD31C,0.200000*%
G04 #@! TD*
G04 #@! TA.AperFunction,Conductor*
%ADD32C,0.254000*%
G04 #@! TD*
G04 #@! TA.AperFunction,Conductor*
%ADD33C,0.150000*%
G04 #@! TD*
G04 APERTURE END LIST*
D10*
X246447900Y-160985500D03*
X259647900Y-160985500D03*
D11*
X254465900Y-110804100D03*
X254465900Y-112104100D03*
X253165900Y-112104100D03*
X251865900Y-112104100D03*
X250565900Y-112104100D03*
X249265900Y-112104100D03*
X247965900Y-112104100D03*
X246665900Y-112104100D03*
X246665900Y-110804100D03*
X254465900Y-109504100D03*
X253165900Y-109504100D03*
X251865900Y-109504100D03*
X250565900Y-109504100D03*
X249265900Y-109504100D03*
X247965900Y-109504100D03*
X246665900Y-109504100D03*
X247965900Y-110804100D03*
X249265900Y-110804100D03*
X253165900Y-110804100D03*
X251865900Y-110804100D03*
X250565900Y-110804100D03*
D12*
X208370000Y-98770000D03*
D13*
X208370000Y-96230000D03*
X210910000Y-98770000D03*
X210910000Y-96230000D03*
X213450000Y-98770000D03*
X213450000Y-96230000D03*
X215990000Y-98770000D03*
X215990000Y-96230000D03*
X218530000Y-98770000D03*
X218530000Y-96230000D03*
X221070000Y-98770000D03*
X221070000Y-96230000D03*
X223610000Y-98770000D03*
X223610000Y-96230000D03*
X226150000Y-98770000D03*
X226150000Y-96230000D03*
X228690000Y-98770000D03*
X228690000Y-96230000D03*
X231230000Y-98770000D03*
X231230000Y-96230000D03*
X233770000Y-98770000D03*
X233770000Y-96230000D03*
X236310000Y-98770000D03*
X236310000Y-96230000D03*
X238850000Y-98770000D03*
X238850000Y-96230000D03*
X241390000Y-98770000D03*
X241390000Y-96230000D03*
X243930000Y-98770000D03*
X243930000Y-96230000D03*
X246470000Y-98770000D03*
X246470000Y-96230000D03*
X249010000Y-98770000D03*
X249010000Y-96230000D03*
X251550000Y-98770000D03*
X251550000Y-96230000D03*
X254090000Y-98770000D03*
X254090000Y-96230000D03*
X256630000Y-98770000D03*
X256630000Y-96230000D03*
D14*
X222305960Y-166581120D03*
G04 #@! TA.AperFunction,ComponentPad*
G36*
G01*
X224005960Y-166106120D02*
X224005960Y-167056120D01*
G75*
G02*
X223780960Y-167281120I-225000J0D01*
G01*
X223330960Y-167281120D01*
G75*
G02*
X223105960Y-167056120I0J225000D01*
G01*
X223105960Y-166106120D01*
G75*
G02*
X223330960Y-165881120I225000J0D01*
G01*
X223780960Y-165881120D01*
G75*
G02*
X224005960Y-166106120I0J-225000D01*
G01*
G37*
G04 #@! TD.AperFunction*
D15*
X228100000Y-166740000D03*
X261036200Y-113043000D03*
X203450000Y-109500000D03*
X232890000Y-166710000D03*
X203450000Y-104650000D03*
X203345180Y-157622540D03*
X203329940Y-152705100D03*
G04 #@! TA.AperFunction,ComponentPad*
G36*
G01*
X226969300Y-129532700D02*
X226969300Y-128582700D01*
G75*
G02*
X227194300Y-128357700I225000J0D01*
G01*
X227644300Y-128357700D01*
G75*
G02*
X227869300Y-128582700I0J-225000D01*
G01*
X227869300Y-129532700D01*
G75*
G02*
X227644300Y-129757700I-225000J0D01*
G01*
X227194300Y-129757700D01*
G75*
G02*
X226969300Y-129532700I0J225000D01*
G01*
G37*
G04 #@! TD.AperFunction*
D14*
X228669300Y-129057700D03*
D16*
X251041900Y-121274100D03*
D17*
X251041900Y-123274100D03*
D18*
X260223400Y-103886300D03*
X262763400Y-106426300D03*
X260223400Y-108966300D03*
D19*
X250131980Y-131602780D03*
D20*
X250131980Y-136682780D03*
D14*
X296220000Y-97620000D03*
G04 #@! TA.AperFunction,ComponentPad*
G36*
G01*
X297920000Y-97145000D02*
X297920000Y-98095000D01*
G75*
G02*
X297695000Y-98320000I-225000J0D01*
G01*
X297245000Y-98320000D01*
G75*
G02*
X297020000Y-98095000I0J225000D01*
G01*
X297020000Y-97145000D01*
G75*
G02*
X297245000Y-96920000I225000J0D01*
G01*
X297695000Y-96920000D01*
G75*
G02*
X297920000Y-97145000I0J-225000D01*
G01*
G37*
G04 #@! TD.AperFunction*
G04 #@! TA.AperFunction,ComponentPad*
G36*
G01*
X284680000Y-102445000D02*
X284680000Y-103395000D01*
G75*
G02*
X284455000Y-103620000I-225000J0D01*
G01*
X284005000Y-103620000D01*
G75*
G02*
X283780000Y-103395000I0J225000D01*
G01*
X283780000Y-102445000D01*
G75*
G02*
X284005000Y-102220000I225000J0D01*
G01*
X284455000Y-102220000D01*
G75*
G02*
X284680000Y-102445000I0J-225000D01*
G01*
G37*
G04 #@! TD.AperFunction*
X282980000Y-102920000D03*
G04 #@! TA.AperFunction,ComponentPad*
G36*
G01*
X291330000Y-97155000D02*
X291330000Y-98105000D01*
G75*
G02*
X291105000Y-98330000I-225000J0D01*
G01*
X290655000Y-98330000D01*
G75*
G02*
X290430000Y-98105000I0J225000D01*
G01*
X290430000Y-97155000D01*
G75*
G02*
X290655000Y-96930000I225000J0D01*
G01*
X291105000Y-96930000D01*
G75*
G02*
X291330000Y-97155000I0J-225000D01*
G01*
G37*
G04 #@! TD.AperFunction*
X289630000Y-97630000D03*
X275720000Y-97700000D03*
G04 #@! TA.AperFunction,ComponentPad*
G36*
G01*
X277420000Y-97225000D02*
X277420000Y-98175000D01*
G75*
G02*
X277195000Y-98400000I-225000J0D01*
G01*
X276745000Y-98400000D01*
G75*
G02*
X276520000Y-98175000I0J225000D01*
G01*
X276520000Y-97225000D01*
G75*
G02*
X276745000Y-97000000I225000J0D01*
G01*
X277195000Y-97000000D01*
G75*
G02*
X277420000Y-97225000I0J-225000D01*
G01*
G37*
G04 #@! TD.AperFunction*
G04 #@! TA.AperFunction,ComponentPad*
G36*
G01*
X284660000Y-97165000D02*
X284660000Y-98115000D01*
G75*
G02*
X284435000Y-98340000I-225000J0D01*
G01*
X283985000Y-98340000D01*
G75*
G02*
X283760000Y-98115000I0J225000D01*
G01*
X283760000Y-97165000D01*
G75*
G02*
X283985000Y-96940000I225000J0D01*
G01*
X284435000Y-96940000D01*
G75*
G02*
X284660000Y-97165000I0J-225000D01*
G01*
G37*
G04 #@! TD.AperFunction*
X282960000Y-97640000D03*
D12*
X277730000Y-108910000D03*
D13*
X280270000Y-108910000D03*
X282810000Y-108910000D03*
D11*
X280470251Y-155700000D03*
X279670251Y-155700000D03*
X279670251Y-156300000D03*
X280470251Y-156300000D03*
X279670251Y-156900000D03*
X280470251Y-156900000D03*
X280470251Y-157500000D03*
X280470251Y-158100000D03*
X279670251Y-157500000D03*
X279670251Y-158100000D03*
D21*
X203500000Y-97500000D03*
X261500000Y-97500000D03*
X203500000Y-146500000D03*
X261500000Y-146500000D03*
D22*
X203500000Y-165500000D03*
G04 #@! TA.AperFunction,ComponentPad*
G36*
G01*
X207950000Y-102960000D02*
X208850000Y-102960000D01*
G75*
G02*
X209050000Y-103160000I0J-200000D01*
G01*
X209050000Y-103560000D01*
G75*
G02*
X208850000Y-103760000I-200000J0D01*
G01*
X207950000Y-103760000D01*
G75*
G02*
X207750000Y-103560000I0J200000D01*
G01*
X207750000Y-103160000D01*
G75*
G02*
X207950000Y-102960000I200000J0D01*
G01*
G37*
G04 #@! TD.AperFunction*
D23*
X208400000Y-104610000D03*
X208400000Y-105860000D03*
X208400000Y-107110000D03*
X208400000Y-108360000D03*
G04 #@! TA.AperFunction,ComponentPad*
G36*
G01*
X237040000Y-167915001D02*
X237040000Y-166224999D01*
G75*
G02*
X237289999Y-165975000I249999J0D01*
G01*
X238530001Y-165975000D01*
G75*
G02*
X238780000Y-166224999I0J-249999D01*
G01*
X238780000Y-167915001D01*
G75*
G02*
X238530001Y-168165000I-249999J0D01*
G01*
X237289999Y-168165000D01*
G75*
G02*
X237040000Y-167915001I0J249999D01*
G01*
G37*
G04 #@! TD.AperFunction*
D24*
X240450000Y-167070000D03*
D25*
X217526000Y-102032100D03*
X214100000Y-110990000D03*
D26*
X240386000Y-146240800D03*
D25*
X209730000Y-123870000D03*
D26*
X238300000Y-103270000D03*
X211580000Y-114290000D03*
X252250000Y-164060000D03*
X253950000Y-164060000D03*
X213210000Y-169250000D03*
X223890000Y-145730000D03*
X226700000Y-146540000D03*
D25*
X213990000Y-131470000D03*
X234239200Y-136818700D03*
X231699200Y-136856800D03*
X234086800Y-141505000D03*
X233883600Y-158597900D03*
X233921700Y-153911600D03*
X233947100Y-156286500D03*
X231623000Y-153949700D03*
X217251460Y-161875340D03*
X217251460Y-163175340D03*
X217269460Y-160637520D03*
D26*
X217272000Y-151828800D03*
X218719800Y-141922800D03*
X220726400Y-141287800D03*
D27*
X216002000Y-110223600D03*
D26*
X213335000Y-114414600D03*
X219253200Y-113043000D03*
X230251400Y-125844600D03*
X237922200Y-125920800D03*
X220421600Y-149720600D03*
X231191200Y-144412000D03*
X201041400Y-140043200D03*
X200127000Y-134582200D03*
X208585200Y-134633000D03*
X226339800Y-139560600D03*
X241300400Y-152032000D03*
D25*
X209760000Y-126400000D03*
D26*
X217830000Y-116680000D03*
D25*
X219160000Y-105940000D03*
D26*
X232512000Y-131432600D03*
X255120000Y-119090000D03*
D25*
X244742100Y-118364300D03*
X208049260Y-164709140D03*
X208040000Y-165960000D03*
X231733690Y-139178618D03*
X218542000Y-107518500D03*
D26*
X204648200Y-140050820D03*
D25*
X256984900Y-113462100D03*
X244297600Y-107645500D03*
X250507900Y-119494600D03*
X216051460Y-163175340D03*
X216051460Y-161875340D03*
X214620000Y-104450000D03*
X214500000Y-102800000D03*
X234150300Y-139193600D03*
D26*
X225908000Y-108877400D03*
X245935900Y-125400100D03*
X243611900Y-117294100D03*
D25*
X208328660Y-156250940D03*
D26*
X221793200Y-139890800D03*
X235356800Y-146748800D03*
D25*
X209913620Y-156271260D03*
X218970000Y-155370000D03*
X255841900Y-107874100D03*
D26*
X239636700Y-122364800D03*
X239878000Y-129553000D03*
X216380460Y-166055340D03*
D25*
X215915640Y-156697980D03*
X213960000Y-130270000D03*
X238366700Y-132475300D03*
D26*
X227508200Y-147866400D03*
D25*
X238938200Y-153683000D03*
D26*
X222290000Y-113450000D03*
X219600000Y-122180000D03*
X218810000Y-125150000D03*
X220640000Y-114680000D03*
X230120000Y-113070000D03*
X232143700Y-116002100D03*
D27*
X251050890Y-116433900D03*
X251050890Y-115595700D03*
D26*
X237820600Y-118453200D03*
D27*
X252616100Y-115494100D03*
D26*
X227051000Y-123584000D03*
D27*
X250323566Y-116100707D03*
X250330100Y-116941900D03*
D26*
X239471600Y-118097600D03*
D27*
X248917290Y-115671900D03*
D25*
X216230000Y-111220000D03*
D26*
X235990000Y-103250000D03*
X234740000Y-103230000D03*
D25*
X219180000Y-110170000D03*
D26*
X216687800Y-141237000D03*
X252793900Y-106362800D03*
X249834800Y-102781400D03*
X239890700Y-115113100D03*
X236398200Y-124422200D03*
X217396460Y-167160240D03*
X240820340Y-111135460D03*
X241701720Y-144546620D03*
X225146000Y-112789000D03*
X217272000Y-145478800D03*
X226974800Y-155054600D03*
X208763000Y-136893600D03*
D27*
X255905400Y-116891100D03*
X249441100Y-117119700D03*
X252221900Y-116994100D03*
X247777400Y-106286600D03*
D26*
X235560000Y-111468200D03*
D27*
X248691800Y-106286600D03*
D26*
X232994600Y-111493600D03*
X280950000Y-113360000D03*
X287990000Y-116630000D03*
X237170000Y-103280000D03*
X293100000Y-125700000D03*
X288040000Y-125600000D03*
D25*
X281140000Y-111650000D03*
D26*
X232240000Y-101860000D03*
D25*
X222148800Y-160238740D03*
X210610000Y-168120000D03*
X214030000Y-127750000D03*
D26*
X226860000Y-107620000D03*
X223460000Y-112210000D03*
X290500000Y-121760000D03*
D25*
X272716600Y-145250189D03*
D27*
X282208960Y-162378849D03*
X281208960Y-162378849D03*
X280208960Y-162378849D03*
X279208960Y-162378849D03*
X278208960Y-162378849D03*
X277208960Y-162378849D03*
X282208960Y-161378849D03*
X281208960Y-161378849D03*
X280208960Y-161378849D03*
X279208960Y-161378849D03*
X278208960Y-161378849D03*
X282328340Y-153222149D03*
X281328340Y-153222149D03*
X280328340Y-153222149D03*
X279328340Y-153222149D03*
X278328340Y-153222149D03*
X277328340Y-153222149D03*
X282328340Y-152222149D03*
X281328340Y-152222149D03*
X280328340Y-152222149D03*
X279328340Y-152222149D03*
X278328340Y-152222149D03*
X277328340Y-152222149D03*
X277208960Y-161378849D03*
D25*
X274216600Y-145250189D03*
X275716600Y-145250189D03*
X277216600Y-145250189D03*
X278716600Y-145250189D03*
X280216600Y-145250189D03*
X281716600Y-145250189D03*
X283216600Y-145250189D03*
X284716600Y-145250189D03*
X286216600Y-145250189D03*
X287716600Y-145250189D03*
X272716600Y-146750189D03*
X272716600Y-148250189D03*
X277216600Y-146750189D03*
X277216600Y-148250189D03*
X278716600Y-146750189D03*
X280216600Y-146750189D03*
X281716600Y-146750189D03*
X283216600Y-146750189D03*
X284716600Y-146750189D03*
X286216600Y-146750189D03*
X278716600Y-148250189D03*
X280216600Y-148250189D03*
X281716600Y-148250189D03*
X283216600Y-148250189D03*
X284716600Y-148250189D03*
X286216600Y-148250189D03*
X289116600Y-150050189D03*
X290616600Y-150050189D03*
X292116600Y-150050189D03*
X287616600Y-156050189D03*
X287616600Y-157550189D03*
X287616600Y-159050189D03*
X287616600Y-160550189D03*
X287616600Y-162050189D03*
X287616600Y-163550189D03*
X287616600Y-165050189D03*
X287616600Y-166550189D03*
X287616600Y-168050189D03*
X289116600Y-151550189D03*
X289116600Y-153050189D03*
X289116600Y-154550189D03*
X289116600Y-156050189D03*
X289116600Y-157550189D03*
X289116600Y-159050189D03*
X289116600Y-160550189D03*
X289116600Y-162050189D03*
X289116600Y-163550189D03*
X290616600Y-151550189D03*
X290616600Y-153050189D03*
X290616600Y-154550189D03*
X290616600Y-159050189D03*
X290616600Y-160550189D03*
X290616600Y-162050189D03*
X290616600Y-163550189D03*
X292116600Y-151550189D03*
X292116600Y-153050189D03*
X292116600Y-154550189D03*
X292116600Y-159050189D03*
X292116600Y-160550189D03*
X292116600Y-162050189D03*
X292116600Y-163550189D03*
X286116600Y-156050189D03*
X286116600Y-157550189D03*
X286116600Y-159050189D03*
X286116600Y-165050189D03*
X286116600Y-166550189D03*
X286116600Y-168050189D03*
X284616600Y-165050189D03*
X283116600Y-165050189D03*
X281616600Y-165050189D03*
X280116600Y-165050189D03*
X278616600Y-165050189D03*
X277116600Y-165050189D03*
X275616600Y-165050189D03*
X274116600Y-165050189D03*
X272616600Y-165050189D03*
X284616600Y-166550189D03*
X283116600Y-166550189D03*
X281616600Y-166550189D03*
X280116600Y-166550189D03*
X278616600Y-166550189D03*
X277116600Y-166550189D03*
X275616600Y-166550189D03*
X274116600Y-166550189D03*
X272616600Y-166550189D03*
X284616600Y-168050189D03*
X283116600Y-168050189D03*
X281616600Y-168050189D03*
X280116600Y-168050189D03*
X278616600Y-168050189D03*
X277116600Y-168050189D03*
X275616600Y-168050189D03*
X274116600Y-168050189D03*
X272616600Y-168050189D03*
X272616600Y-163550189D03*
X272616600Y-162050189D03*
X272616600Y-160550189D03*
X272616600Y-159050189D03*
X272616600Y-157550189D03*
X274116600Y-163550189D03*
X275616600Y-163550189D03*
X277116600Y-163550189D03*
X278616600Y-163550189D03*
X280116600Y-163550189D03*
X281616600Y-163550189D03*
X283116600Y-163550189D03*
X284616600Y-159050189D03*
X274116600Y-162050189D03*
X274116600Y-160550189D03*
X274116600Y-159050189D03*
X275616600Y-162050189D03*
X275616600Y-160550189D03*
X275616600Y-159050189D03*
X275616600Y-156050189D03*
X275616600Y-154550189D03*
X271116600Y-163550189D03*
X269616600Y-163550189D03*
X268116600Y-163550189D03*
X271116600Y-162050189D03*
X269616600Y-162050189D03*
X268116600Y-162050189D03*
X271116600Y-160550189D03*
X269616600Y-160550189D03*
X268116600Y-160550189D03*
X271116600Y-159050189D03*
X269616600Y-159050189D03*
X268116600Y-159050189D03*
X271116600Y-157550189D03*
X269616600Y-157550189D03*
X268116600Y-157550189D03*
X269616600Y-156050189D03*
X268116600Y-156050189D03*
X271116600Y-156050189D03*
X287616600Y-154550189D03*
X281716600Y-149750189D03*
X280216600Y-149750189D03*
X278716600Y-149750189D03*
X277216600Y-149750189D03*
D26*
X217180000Y-100670000D03*
X227500000Y-116630000D03*
D28*
X208370000Y-100204000D02*
X209906000Y-101740000D01*
X208370000Y-98770000D02*
X208370000Y-100204000D01*
X217233900Y-101740000D02*
X217526000Y-102032100D01*
X209906000Y-101740000D02*
X217233900Y-101740000D01*
X213830000Y-106530000D02*
X213830000Y-110720000D01*
X208370000Y-98770000D02*
X208370000Y-103330000D01*
X210700000Y-103400000D02*
X213830000Y-106530000D01*
X208440000Y-103400000D02*
X210700000Y-103400000D01*
X213830000Y-110720000D02*
X214100000Y-110990000D01*
X208370000Y-103330000D02*
X208440000Y-103400000D01*
X211690000Y-121910000D02*
X209730000Y-123870000D01*
X217470000Y-121910000D02*
X211690000Y-121910000D01*
X240386000Y-146240800D02*
X240386000Y-139560600D01*
X229964400Y-134404400D02*
X217470000Y-121910000D01*
X235229800Y-134404400D02*
X229964400Y-134404400D01*
X240386000Y-139560600D02*
X235229800Y-134404400D01*
X246447900Y-160985500D02*
X246447900Y-151566100D01*
X243180000Y-129095800D02*
X225908000Y-111823800D01*
X246447900Y-151566100D02*
X243180000Y-148298200D01*
X243180000Y-148298200D02*
X243180000Y-129095800D01*
X225908000Y-111823800D02*
X225908000Y-108877400D01*
X259647900Y-160867900D02*
X259647900Y-160985500D01*
X249841800Y-154960000D02*
X253740000Y-154960000D01*
X253740000Y-154960000D02*
X259647900Y-160867900D01*
X246447900Y-151566100D02*
X249841800Y-154960000D01*
D29*
X248907700Y-121412300D02*
X245935900Y-124384100D01*
X245935900Y-124384100D02*
X245935900Y-125400100D01*
X251028600Y-121412300D02*
X248907700Y-121412300D01*
D28*
X228674060Y-166679740D02*
X228639800Y-166714000D01*
D29*
X235356800Y-146748800D02*
X228651200Y-146748800D01*
X228651200Y-146748800D02*
X221793200Y-139890800D01*
X228674060Y-166165940D02*
X228100000Y-166740000D01*
X228674060Y-161518900D02*
X228674060Y-166165940D01*
X222654260Y-155499100D02*
X228674060Y-161518900D01*
X219099100Y-155499100D02*
X222654260Y-155499100D01*
X218970000Y-155370000D02*
X219099100Y-155499100D01*
D28*
X255841900Y-107874100D02*
X255841900Y-115214700D01*
X244615100Y-127343200D02*
X239636700Y-122364800D01*
X255841900Y-115214700D02*
X257175400Y-116548200D01*
X257175400Y-121323400D02*
X251155600Y-127343200D01*
X251155600Y-127343200D02*
X244615100Y-127343200D01*
X257175400Y-116548200D02*
X257175400Y-121323400D01*
X208370000Y-96230000D02*
X210910000Y-96230000D01*
X238150800Y-129553000D02*
X239878000Y-129553000D01*
X227987800Y-119390000D02*
X238150800Y-129553000D01*
X227977800Y-119400000D02*
X227987800Y-119390000D01*
X206900000Y-116610000D02*
X209690000Y-119400000D01*
X208370000Y-96230000D02*
X208010000Y-96230000D01*
X209690000Y-119400000D02*
X227977800Y-119400000D01*
X206900000Y-97340000D02*
X206900000Y-116610000D01*
X208010000Y-96230000D02*
X206900000Y-97340000D01*
D30*
X232143700Y-116002100D02*
X232029400Y-115887800D01*
X236830000Y-120688400D02*
X232143700Y-116002100D01*
X244932600Y-120688400D02*
X236830000Y-120688400D01*
X247320200Y-118300800D02*
X244932600Y-120688400D01*
X250571400Y-118300800D02*
X247320200Y-118300800D01*
X251050890Y-117821310D02*
X250571400Y-118300800D01*
X251050890Y-116433900D02*
X251050890Y-117821310D01*
X242959700Y-113314100D02*
X237820600Y-118453200D01*
X250893300Y-113314100D02*
X242959700Y-113314100D01*
X250893300Y-113314100D02*
X252616100Y-115036900D01*
X252616100Y-115036900D02*
X252616100Y-115494100D01*
X250323566Y-116935366D02*
X250330100Y-116941900D01*
X241897300Y-115671900D02*
X239471600Y-118097600D01*
X248917290Y-115671900D02*
X241897300Y-115671900D01*
D31*
X215640000Y-111810000D02*
X216230000Y-111220000D01*
X211590000Y-111810000D02*
X215640000Y-111810000D01*
X209920000Y-106300000D02*
X209920000Y-110140000D01*
X209920000Y-110140000D02*
X211590000Y-111810000D01*
X209480000Y-105860000D02*
X209920000Y-106300000D01*
X208400000Y-105860000D02*
X209480000Y-105860000D01*
X252844700Y-106312000D02*
X252793900Y-106362800D01*
X249834800Y-102781400D02*
X249834800Y-101054200D01*
X249834800Y-101054200D02*
X251550000Y-99339000D01*
X251550000Y-99339000D02*
X251550000Y-98770000D01*
X239890700Y-115113100D02*
X240040560Y-114963240D01*
X240040560Y-114963240D02*
X240040560Y-102659440D01*
X240040560Y-102659440D02*
X243930000Y-98770000D01*
X241910000Y-169596100D02*
X219832320Y-169596100D01*
X219832320Y-169596100D02*
X217396460Y-167160240D01*
X243154600Y-168351500D02*
X241910000Y-169596100D01*
X243154600Y-150302260D02*
X243154600Y-168351500D01*
X241701720Y-148849380D02*
X243154600Y-150302260D01*
X241701720Y-144546620D02*
X241701720Y-148849380D01*
X249010000Y-98770000D02*
X248309000Y-98770000D01*
X248309000Y-98770000D02*
X240810180Y-106268820D01*
X240810180Y-106268820D02*
X240810180Y-111125300D01*
X240810180Y-111125300D02*
X240820340Y-111135460D01*
X226974800Y-155054600D02*
X226974800Y-154368800D01*
X218084800Y-145478800D02*
X217272000Y-145478800D01*
X226974800Y-154368800D02*
X218084800Y-145478800D01*
X224160000Y-101860000D02*
X221070000Y-98770000D01*
X224160000Y-111803000D02*
X224160000Y-101860000D01*
X225146000Y-112789000D02*
X224160000Y-111803000D01*
X228420000Y-98770000D02*
X228690000Y-98770000D01*
D28*
X204013200Y-158290560D02*
X203345180Y-157622540D01*
X210610000Y-168120000D02*
X210610000Y-168120000D01*
X210540000Y-168050000D02*
X210610000Y-168120000D01*
X210540000Y-164817360D02*
X210540000Y-168050000D01*
X203345180Y-157622540D02*
X210540000Y-164817360D01*
D31*
X224950000Y-105710000D02*
X226860000Y-107620000D01*
X224950000Y-97430000D02*
X224950000Y-105710000D01*
X226150000Y-96230000D02*
X224950000Y-97430000D01*
X227500000Y-116630000D02*
X227500000Y-116630000D01*
X226030000Y-118100000D02*
X227500000Y-116630000D01*
X213190000Y-118100000D02*
X226030000Y-118100000D01*
X208400000Y-113310000D02*
X213190000Y-118100000D01*
X208400000Y-108360000D02*
X208400000Y-113310000D01*
D32*
X291019267Y-144732312D02*
X291451181Y-144862714D01*
X291849536Y-145074524D01*
X292199165Y-145359675D01*
X292486748Y-145707303D01*
X292701337Y-146104177D01*
X292834749Y-146535161D01*
X292885251Y-147015654D01*
X292885252Y-166966484D01*
X292837939Y-167449015D01*
X292707538Y-167880926D01*
X292495731Y-168279279D01*
X292210576Y-168628913D01*
X291862948Y-168916496D01*
X291466076Y-169131084D01*
X291035085Y-169264499D01*
X290554587Y-169315000D01*
X269603755Y-169315000D01*
X269121235Y-169267688D01*
X268689324Y-169137287D01*
X268290971Y-168925480D01*
X267941337Y-168640325D01*
X267653754Y-168292697D01*
X267439166Y-167895825D01*
X267305751Y-167464834D01*
X267255260Y-166984429D01*
X267255348Y-166826133D01*
X267804951Y-166826133D01*
X267804951Y-167173867D01*
X267872790Y-167514919D01*
X268005862Y-167836183D01*
X268199053Y-168125313D01*
X268444938Y-168371198D01*
X268734068Y-168564389D01*
X269055332Y-168697461D01*
X269396384Y-168765300D01*
X269744118Y-168765300D01*
X270085170Y-168697461D01*
X270406434Y-168564389D01*
X270695564Y-168371198D01*
X270941449Y-168125313D01*
X271134640Y-167836183D01*
X271267712Y-167514919D01*
X271335551Y-167173867D01*
X271335551Y-166826133D01*
X288804951Y-166826133D01*
X288804951Y-167173867D01*
X288872790Y-167514919D01*
X289005862Y-167836183D01*
X289199053Y-168125313D01*
X289444938Y-168371198D01*
X289734068Y-168564389D01*
X290055332Y-168697461D01*
X290396384Y-168765300D01*
X290744118Y-168765300D01*
X291085170Y-168697461D01*
X291406434Y-168564389D01*
X291695564Y-168371198D01*
X291941449Y-168125313D01*
X292134640Y-167836183D01*
X292267712Y-167514919D01*
X292335551Y-167173867D01*
X292335551Y-166826133D01*
X292267712Y-166485081D01*
X292134640Y-166163817D01*
X291941449Y-165874687D01*
X291695564Y-165628802D01*
X291406434Y-165435611D01*
X291085170Y-165302539D01*
X290744118Y-165234700D01*
X290396384Y-165234700D01*
X290055332Y-165302539D01*
X289734068Y-165435611D01*
X289444938Y-165628802D01*
X289199053Y-165874687D01*
X289005862Y-166163817D01*
X288872790Y-166485081D01*
X288804951Y-166826133D01*
X271335551Y-166826133D01*
X271267712Y-166485081D01*
X271134640Y-166163817D01*
X270941449Y-165874687D01*
X270695564Y-165628802D01*
X270406434Y-165435611D01*
X270085170Y-165302539D01*
X269744118Y-165234700D01*
X269396384Y-165234700D01*
X269055332Y-165302539D01*
X268734068Y-165435611D01*
X268444938Y-165628802D01*
X268199053Y-165874687D01*
X268005862Y-166163817D01*
X267872790Y-166485081D01*
X267804951Y-166826133D01*
X267255348Y-166826133D01*
X267259818Y-158836737D01*
X267256453Y-158802374D01*
X267256453Y-158792161D01*
X267255454Y-158782649D01*
X267238324Y-158629933D01*
X267225418Y-158569214D01*
X267213357Y-158508304D01*
X267210529Y-158499167D01*
X267164063Y-158352687D01*
X267139611Y-158295637D01*
X267115946Y-158238221D01*
X267111397Y-158229808D01*
X267037364Y-158095143D01*
X267002286Y-158043913D01*
X266967932Y-157992206D01*
X266961836Y-157984837D01*
X266863057Y-157867116D01*
X266818699Y-157823677D01*
X266774949Y-157779621D01*
X266767537Y-157773576D01*
X266647773Y-157677284D01*
X266595809Y-157643280D01*
X266544356Y-157608574D01*
X266535911Y-157604084D01*
X266535909Y-157604083D01*
X266535906Y-157604081D01*
X266535903Y-157604080D01*
X266399725Y-157532887D01*
X266342168Y-157509632D01*
X266284923Y-157485569D01*
X266275767Y-157482804D01*
X266128346Y-157439416D01*
X266067316Y-157427774D01*
X266051182Y-157424462D01*
X266045119Y-156885750D01*
X289910251Y-156885750D01*
X289910251Y-157114250D01*
X289954829Y-157338360D01*
X290042272Y-157549466D01*
X290169220Y-157739457D01*
X290330794Y-157901031D01*
X290520785Y-158027979D01*
X290731891Y-158115422D01*
X290956001Y-158160000D01*
X291184501Y-158160000D01*
X291408611Y-158115422D01*
X291619717Y-158027979D01*
X291809708Y-157901031D01*
X291971282Y-157739457D01*
X292098230Y-157549466D01*
X292185673Y-157338360D01*
X292230251Y-157114250D01*
X292230251Y-156885750D01*
X292185673Y-156661640D01*
X292098230Y-156450534D01*
X291971282Y-156260543D01*
X291809708Y-156098969D01*
X291619717Y-155972021D01*
X291408611Y-155884578D01*
X291184501Y-155840000D01*
X290956001Y-155840000D01*
X290731891Y-155884578D01*
X290520785Y-155972021D01*
X290330794Y-156098969D01*
X290169220Y-156260543D01*
X290042272Y-156450534D01*
X289954829Y-156661640D01*
X289910251Y-156885750D01*
X266045119Y-156885750D01*
X266037159Y-156178496D01*
X266078171Y-156170077D01*
X266139135Y-156158447D01*
X266148291Y-156155683D01*
X266295092Y-156110240D01*
X266352329Y-156086179D01*
X266409890Y-156062923D01*
X266418330Y-156058435D01*
X266418335Y-156058433D01*
X266418339Y-156058430D01*
X266553512Y-155985342D01*
X266604956Y-155950643D01*
X266656930Y-155916632D01*
X266664342Y-155910587D01*
X266782750Y-155812632D01*
X266826498Y-155768577D01*
X266870856Y-155725139D01*
X266876953Y-155717770D01*
X266974079Y-155598682D01*
X267008450Y-155546948D01*
X267043511Y-155495744D01*
X267048060Y-155487331D01*
X267120206Y-155351645D01*
X267143866Y-155294240D01*
X267168324Y-155237176D01*
X267171153Y-155228039D01*
X267215569Y-155080924D01*
X267227631Y-155020006D01*
X267240535Y-154959297D01*
X267241535Y-154949785D01*
X267249954Y-154863926D01*
X267249966Y-154863885D01*
X267255453Y-154807839D01*
X267256531Y-154796845D01*
X267256531Y-154796828D01*
X267259819Y-154763243D01*
X267255271Y-147033306D01*
X267275584Y-146826134D01*
X267804951Y-146826134D01*
X267804951Y-147173868D01*
X267872790Y-147514920D01*
X268005862Y-147836184D01*
X268199053Y-148125314D01*
X268444938Y-148371199D01*
X268734068Y-148564390D01*
X269055332Y-148697462D01*
X269396384Y-148765301D01*
X269744118Y-148765301D01*
X270085170Y-148697462D01*
X270406434Y-148564390D01*
X270695564Y-148371199D01*
X270941449Y-148125314D01*
X271134640Y-147836184D01*
X271267712Y-147514920D01*
X271298632Y-147359471D01*
X273410251Y-147359471D01*
X273410251Y-147587971D01*
X273454829Y-147812081D01*
X273542272Y-148023187D01*
X273669220Y-148213178D01*
X273830794Y-148374752D01*
X274020785Y-148501700D01*
X274231891Y-148589143D01*
X274456001Y-148633721D01*
X274684501Y-148633721D01*
X274908611Y-148589143D01*
X275119717Y-148501700D01*
X275309708Y-148374752D01*
X275471282Y-148213178D01*
X275598230Y-148023187D01*
X275685673Y-147812081D01*
X275730251Y-147587971D01*
X275730251Y-147359471D01*
X275685673Y-147135361D01*
X275598230Y-146924255D01*
X275532667Y-146826133D01*
X288804951Y-146826133D01*
X288804951Y-147173867D01*
X288872790Y-147514919D01*
X289005862Y-147836183D01*
X289199053Y-148125313D01*
X289444938Y-148371198D01*
X289734068Y-148564389D01*
X290055332Y-148697461D01*
X290396384Y-148765300D01*
X290744118Y-148765300D01*
X291085170Y-148697461D01*
X291406434Y-148564389D01*
X291695564Y-148371198D01*
X291941449Y-148125313D01*
X292134640Y-147836183D01*
X292267712Y-147514919D01*
X292335551Y-147173867D01*
X292335551Y-146826133D01*
X292267712Y-146485081D01*
X292134640Y-146163817D01*
X291941449Y-145874687D01*
X291695564Y-145628802D01*
X291406434Y-145435611D01*
X291085170Y-145302539D01*
X290744118Y-145234700D01*
X290396384Y-145234700D01*
X290055332Y-145302539D01*
X289734068Y-145435611D01*
X289444938Y-145628802D01*
X289199053Y-145874687D01*
X289005862Y-146163817D01*
X288872790Y-146485081D01*
X288804951Y-146826133D01*
X275532667Y-146826133D01*
X275471282Y-146734264D01*
X275309708Y-146572690D01*
X275119717Y-146445742D01*
X274908611Y-146358299D01*
X274684501Y-146313721D01*
X274456001Y-146313721D01*
X274231891Y-146358299D01*
X274020785Y-146445742D01*
X273830794Y-146572690D01*
X273669220Y-146734264D01*
X273542272Y-146924255D01*
X273454829Y-147135361D01*
X273410251Y-147359471D01*
X271298632Y-147359471D01*
X271335551Y-147173868D01*
X271335551Y-146826134D01*
X271267712Y-146485082D01*
X271134640Y-146163818D01*
X270941449Y-145874688D01*
X270695564Y-145628803D01*
X270406434Y-145435612D01*
X270085170Y-145302540D01*
X269744118Y-145234701D01*
X269396384Y-145234701D01*
X269055332Y-145302540D01*
X268734068Y-145435612D01*
X268444938Y-145628803D01*
X268199053Y-145874688D01*
X268005862Y-146163818D01*
X267872790Y-146485082D01*
X267804951Y-146826134D01*
X267275584Y-146826134D01*
X267302563Y-146550985D01*
X267432965Y-146119071D01*
X267644775Y-145720716D01*
X267929926Y-145371087D01*
X268277554Y-145083504D01*
X268674428Y-144868915D01*
X269105412Y-144735503D01*
X269585905Y-144685001D01*
X290536735Y-144684999D01*
X291019267Y-144732312D01*
G04 #@! TA.AperFunction,Conductor*
D33*
G36*
X291019267Y-144732312D02*
G01*
X291451181Y-144862714D01*
X291849536Y-145074524D01*
X292199165Y-145359675D01*
X292486748Y-145707303D01*
X292701337Y-146104177D01*
X292834749Y-146535161D01*
X292885251Y-147015654D01*
X292885252Y-166966484D01*
X292837939Y-167449015D01*
X292707538Y-167880926D01*
X292495731Y-168279279D01*
X292210576Y-168628913D01*
X291862948Y-168916496D01*
X291466076Y-169131084D01*
X291035085Y-169264499D01*
X290554587Y-169315000D01*
X269603755Y-169315000D01*
X269121235Y-169267688D01*
X268689324Y-169137287D01*
X268290971Y-168925480D01*
X267941337Y-168640325D01*
X267653754Y-168292697D01*
X267439166Y-167895825D01*
X267305751Y-167464834D01*
X267255260Y-166984429D01*
X267255348Y-166826133D01*
X267804951Y-166826133D01*
X267804951Y-167173867D01*
X267872790Y-167514919D01*
X268005862Y-167836183D01*
X268199053Y-168125313D01*
X268444938Y-168371198D01*
X268734068Y-168564389D01*
X269055332Y-168697461D01*
X269396384Y-168765300D01*
X269744118Y-168765300D01*
X270085170Y-168697461D01*
X270406434Y-168564389D01*
X270695564Y-168371198D01*
X270941449Y-168125313D01*
X271134640Y-167836183D01*
X271267712Y-167514919D01*
X271335551Y-167173867D01*
X271335551Y-166826133D01*
X288804951Y-166826133D01*
X288804951Y-167173867D01*
X288872790Y-167514919D01*
X289005862Y-167836183D01*
X289199053Y-168125313D01*
X289444938Y-168371198D01*
X289734068Y-168564389D01*
X290055332Y-168697461D01*
X290396384Y-168765300D01*
X290744118Y-168765300D01*
X291085170Y-168697461D01*
X291406434Y-168564389D01*
X291695564Y-168371198D01*
X291941449Y-168125313D01*
X292134640Y-167836183D01*
X292267712Y-167514919D01*
X292335551Y-167173867D01*
X292335551Y-166826133D01*
X292267712Y-166485081D01*
X292134640Y-166163817D01*
X291941449Y-165874687D01*
X291695564Y-165628802D01*
X291406434Y-165435611D01*
X291085170Y-165302539D01*
X290744118Y-165234700D01*
X290396384Y-165234700D01*
X290055332Y-165302539D01*
X289734068Y-165435611D01*
X289444938Y-165628802D01*
X289199053Y-165874687D01*
X289005862Y-166163817D01*
X288872790Y-166485081D01*
X288804951Y-166826133D01*
X271335551Y-166826133D01*
X271267712Y-166485081D01*
X271134640Y-166163817D01*
X270941449Y-165874687D01*
X270695564Y-165628802D01*
X270406434Y-165435611D01*
X270085170Y-165302539D01*
X269744118Y-165234700D01*
X269396384Y-165234700D01*
X269055332Y-165302539D01*
X268734068Y-165435611D01*
X268444938Y-165628802D01*
X268199053Y-165874687D01*
X268005862Y-166163817D01*
X267872790Y-166485081D01*
X267804951Y-166826133D01*
X267255348Y-166826133D01*
X267259818Y-158836737D01*
X267256453Y-158802374D01*
X267256453Y-158792161D01*
X267255454Y-158782649D01*
X267238324Y-158629933D01*
X267225418Y-158569214D01*
X267213357Y-158508304D01*
X267210529Y-158499167D01*
X267164063Y-158352687D01*
X267139611Y-158295637D01*
X267115946Y-158238221D01*
X267111397Y-158229808D01*
X267037364Y-158095143D01*
X267002286Y-158043913D01*
X266967932Y-157992206D01*
X266961836Y-157984837D01*
X266863057Y-157867116D01*
X266818699Y-157823677D01*
X266774949Y-157779621D01*
X266767537Y-157773576D01*
X266647773Y-157677284D01*
X266595809Y-157643280D01*
X266544356Y-157608574D01*
X266535911Y-157604084D01*
X266535909Y-157604083D01*
X266535906Y-157604081D01*
X266535903Y-157604080D01*
X266399725Y-157532887D01*
X266342168Y-157509632D01*
X266284923Y-157485569D01*
X266275767Y-157482804D01*
X266128346Y-157439416D01*
X266067316Y-157427774D01*
X266051182Y-157424462D01*
X266045119Y-156885750D01*
X289910251Y-156885750D01*
X289910251Y-157114250D01*
X289954829Y-157338360D01*
X290042272Y-157549466D01*
X290169220Y-157739457D01*
X290330794Y-157901031D01*
X290520785Y-158027979D01*
X290731891Y-158115422D01*
X290956001Y-158160000D01*
X291184501Y-158160000D01*
X291408611Y-158115422D01*
X291619717Y-158027979D01*
X291809708Y-157901031D01*
X291971282Y-157739457D01*
X292098230Y-157549466D01*
X292185673Y-157338360D01*
X292230251Y-157114250D01*
X292230251Y-156885750D01*
X292185673Y-156661640D01*
X292098230Y-156450534D01*
X291971282Y-156260543D01*
X291809708Y-156098969D01*
X291619717Y-155972021D01*
X291408611Y-155884578D01*
X291184501Y-155840000D01*
X290956001Y-155840000D01*
X290731891Y-155884578D01*
X290520785Y-155972021D01*
X290330794Y-156098969D01*
X290169220Y-156260543D01*
X290042272Y-156450534D01*
X289954829Y-156661640D01*
X289910251Y-156885750D01*
X266045119Y-156885750D01*
X266037159Y-156178496D01*
X266078171Y-156170077D01*
X266139135Y-156158447D01*
X266148291Y-156155683D01*
X266295092Y-156110240D01*
X266352329Y-156086179D01*
X266409890Y-156062923D01*
X266418330Y-156058435D01*
X266418335Y-156058433D01*
X266418339Y-156058430D01*
X266553512Y-155985342D01*
X266604956Y-155950643D01*
X266656930Y-155916632D01*
X266664342Y-155910587D01*
X266782750Y-155812632D01*
X266826498Y-155768577D01*
X266870856Y-155725139D01*
X266876953Y-155717770D01*
X266974079Y-155598682D01*
X267008450Y-155546948D01*
X267043511Y-155495744D01*
X267048060Y-155487331D01*
X267120206Y-155351645D01*
X267143866Y-155294240D01*
X267168324Y-155237176D01*
X267171153Y-155228039D01*
X267215569Y-155080924D01*
X267227631Y-155020006D01*
X267240535Y-154959297D01*
X267241535Y-154949785D01*
X267249954Y-154863926D01*
X267249966Y-154863885D01*
X267255453Y-154807839D01*
X267256531Y-154796845D01*
X267256531Y-154796828D01*
X267259819Y-154763243D01*
X267255271Y-147033306D01*
X267275584Y-146826134D01*
X267804951Y-146826134D01*
X267804951Y-147173868D01*
X267872790Y-147514920D01*
X268005862Y-147836184D01*
X268199053Y-148125314D01*
X268444938Y-148371199D01*
X268734068Y-148564390D01*
X269055332Y-148697462D01*
X269396384Y-148765301D01*
X269744118Y-148765301D01*
X270085170Y-148697462D01*
X270406434Y-148564390D01*
X270695564Y-148371199D01*
X270941449Y-148125314D01*
X271134640Y-147836184D01*
X271267712Y-147514920D01*
X271298632Y-147359471D01*
X273410251Y-147359471D01*
X273410251Y-147587971D01*
X273454829Y-147812081D01*
X273542272Y-148023187D01*
X273669220Y-148213178D01*
X273830794Y-148374752D01*
X274020785Y-148501700D01*
X274231891Y-148589143D01*
X274456001Y-148633721D01*
X274684501Y-148633721D01*
X274908611Y-148589143D01*
X275119717Y-148501700D01*
X275309708Y-148374752D01*
X275471282Y-148213178D01*
X275598230Y-148023187D01*
X275685673Y-147812081D01*
X275730251Y-147587971D01*
X275730251Y-147359471D01*
X275685673Y-147135361D01*
X275598230Y-146924255D01*
X275532667Y-146826133D01*
X288804951Y-146826133D01*
X288804951Y-147173867D01*
X288872790Y-147514919D01*
X289005862Y-147836183D01*
X289199053Y-148125313D01*
X289444938Y-148371198D01*
X289734068Y-148564389D01*
X290055332Y-148697461D01*
X290396384Y-148765300D01*
X290744118Y-148765300D01*
X291085170Y-148697461D01*
X291406434Y-148564389D01*
X291695564Y-148371198D01*
X291941449Y-148125313D01*
X292134640Y-147836183D01*
X292267712Y-147514919D01*
X292335551Y-147173867D01*
X292335551Y-146826133D01*
X292267712Y-146485081D01*
X292134640Y-146163817D01*
X291941449Y-145874687D01*
X291695564Y-145628802D01*
X291406434Y-145435611D01*
X291085170Y-145302539D01*
X290744118Y-145234700D01*
X290396384Y-145234700D01*
X290055332Y-145302539D01*
X289734068Y-145435611D01*
X289444938Y-145628802D01*
X289199053Y-145874687D01*
X289005862Y-146163817D01*
X288872790Y-146485081D01*
X288804951Y-146826133D01*
X275532667Y-146826133D01*
X275471282Y-146734264D01*
X275309708Y-146572690D01*
X275119717Y-146445742D01*
X274908611Y-146358299D01*
X274684501Y-146313721D01*
X274456001Y-146313721D01*
X274231891Y-146358299D01*
X274020785Y-146445742D01*
X273830794Y-146572690D01*
X273669220Y-146734264D01*
X273542272Y-146924255D01*
X273454829Y-147135361D01*
X273410251Y-147359471D01*
X271298632Y-147359471D01*
X271335551Y-147173868D01*
X271335551Y-146826134D01*
X271267712Y-146485082D01*
X271134640Y-146163818D01*
X270941449Y-145874688D01*
X270695564Y-145628803D01*
X270406434Y-145435612D01*
X270085170Y-145302540D01*
X269744118Y-145234701D01*
X269396384Y-145234701D01*
X269055332Y-145302540D01*
X268734068Y-145435612D01*
X268444938Y-145628803D01*
X268199053Y-145874688D01*
X268005862Y-146163818D01*
X267872790Y-146485082D01*
X267804951Y-146826134D01*
X267275584Y-146826134D01*
X267302563Y-146550985D01*
X267432965Y-146119071D01*
X267644775Y-145720716D01*
X267929926Y-145371087D01*
X268277554Y-145083504D01*
X268674428Y-144868915D01*
X269105412Y-144735503D01*
X269585905Y-144685001D01*
X290536735Y-144684999D01*
X291019267Y-144732312D01*
G37*
G04 #@! TD.AperFunction*
M02*
