G04 #@! TF.GenerationSoftware,KiCad,Pcbnew,(5.1.10-1-10_14)*
G04 #@! TF.CreationDate,2022-08-23T22:17:00-07:00*
G04 #@! TF.ProjectId,ulc-mm,756c632d-6d6d-42e6-9b69-6361645f7063,rev?*
G04 #@! TF.SameCoordinates,Original*
G04 #@! TF.FileFunction,Copper,L4,Bot*
G04 #@! TF.FilePolarity,Positive*
%FSLAX46Y46*%
G04 Gerber Fmt 4.6, Leading zero omitted, Abs format (unit mm)*
G04 Created by KiCad (PCBNEW (5.1.10-1-10_14)) date 2022-08-23 22:17:00*
%MOMM*%
%LPD*%
G01*
G04 APERTURE LIST*
G04 #@! TA.AperFunction,ComponentPad*
%ADD10C,3.960000*%
G04 #@! TD*
G04 #@! TA.AperFunction,ComponentPad*
%ADD11C,0.300000*%
G04 #@! TD*
G04 #@! TA.AperFunction,ComponentPad*
%ADD12R,1.700000X1.700000*%
G04 #@! TD*
G04 #@! TA.AperFunction,ComponentPad*
%ADD13O,1.700000X1.700000*%
G04 #@! TD*
G04 #@! TA.AperFunction,ComponentPad*
%ADD14O,0.900000X1.400000*%
G04 #@! TD*
G04 #@! TA.AperFunction,ComponentPad*
%ADD15C,2.800000*%
G04 #@! TD*
G04 #@! TA.AperFunction,ComponentPad*
%ADD16R,1.600000X1.600000*%
G04 #@! TD*
G04 #@! TA.AperFunction,ComponentPad*
%ADD17C,1.600000*%
G04 #@! TD*
G04 #@! TA.AperFunction,SMDPad,CuDef*
%ADD18R,1.470000X3.000000*%
G04 #@! TD*
G04 #@! TA.AperFunction,SMDPad,CuDef*
%ADD19R,4.400000X3.400000*%
G04 #@! TD*
G04 #@! TA.AperFunction,ComponentPad*
%ADD20C,1.440000*%
G04 #@! TD*
G04 #@! TA.AperFunction,ComponentPad*
%ADD21R,2.280000X2.280000*%
G04 #@! TD*
G04 #@! TA.AperFunction,ComponentPad*
%ADD22C,2.280000*%
G04 #@! TD*
G04 #@! TA.AperFunction,SMDPad,CuDef*
%ADD23R,0.700000X0.450000*%
G04 #@! TD*
G04 #@! TA.AperFunction,SMDPad,CuDef*
%ADD24R,1.300000X3.300000*%
G04 #@! TD*
G04 #@! TA.AperFunction,SMDPad,CuDef*
%ADD25R,0.500000X3.300000*%
G04 #@! TD*
G04 #@! TA.AperFunction,ComponentPad*
%ADD26C,5.400000*%
G04 #@! TD*
G04 #@! TA.AperFunction,ComponentPad*
%ADD27C,6.400000*%
G04 #@! TD*
G04 #@! TA.AperFunction,ComponentPad*
%ADD28O,1.300000X0.800000*%
G04 #@! TD*
G04 #@! TA.AperFunction,ComponentPad*
%ADD29O,0.800000X1.300000*%
G04 #@! TD*
G04 #@! TA.AperFunction,ViaPad*
%ADD30C,1.000000*%
G04 #@! TD*
G04 #@! TA.AperFunction,ViaPad*
%ADD31C,0.900000*%
G04 #@! TD*
G04 #@! TA.AperFunction,ViaPad*
%ADD32C,0.600000*%
G04 #@! TD*
G04 #@! TA.AperFunction,Conductor*
%ADD33C,0.500000*%
G04 #@! TD*
G04 #@! TA.AperFunction,Conductor*
%ADD34C,0.750000*%
G04 #@! TD*
G04 #@! TA.AperFunction,Conductor*
%ADD35C,0.200000*%
G04 #@! TD*
G04 #@! TA.AperFunction,Conductor*
%ADD36C,0.350000*%
G04 #@! TD*
G04 #@! TA.AperFunction,Conductor*
%ADD37C,0.300000*%
G04 #@! TD*
G04 APERTURE END LIST*
D10*
X246447900Y-160985500D03*
X259647900Y-160985500D03*
D11*
X254465900Y-110804100D03*
X254465900Y-112104100D03*
X253165900Y-112104100D03*
X251865900Y-112104100D03*
X250565900Y-112104100D03*
X249265900Y-112104100D03*
X247965900Y-112104100D03*
X246665900Y-112104100D03*
X246665900Y-110804100D03*
X254465900Y-109504100D03*
X253165900Y-109504100D03*
X251865900Y-109504100D03*
X250565900Y-109504100D03*
X249265900Y-109504100D03*
X247965900Y-109504100D03*
X246665900Y-109504100D03*
X247965900Y-110804100D03*
X249265900Y-110804100D03*
X253165900Y-110804100D03*
X251865900Y-110804100D03*
X250565900Y-110804100D03*
D12*
X208370000Y-98770000D03*
D13*
X208370000Y-96230000D03*
X210910000Y-98770000D03*
X210910000Y-96230000D03*
X213450000Y-98770000D03*
X213450000Y-96230000D03*
X215990000Y-98770000D03*
X215990000Y-96230000D03*
X218530000Y-98770000D03*
X218530000Y-96230000D03*
X221070000Y-98770000D03*
X221070000Y-96230000D03*
X223610000Y-98770000D03*
X223610000Y-96230000D03*
X226150000Y-98770000D03*
X226150000Y-96230000D03*
X228690000Y-98770000D03*
X228690000Y-96230000D03*
X231230000Y-98770000D03*
X231230000Y-96230000D03*
X233770000Y-98770000D03*
X233770000Y-96230000D03*
X236310000Y-98770000D03*
X236310000Y-96230000D03*
X238850000Y-98770000D03*
X238850000Y-96230000D03*
X241390000Y-98770000D03*
X241390000Y-96230000D03*
X243930000Y-98770000D03*
X243930000Y-96230000D03*
X246470000Y-98770000D03*
X246470000Y-96230000D03*
X249010000Y-98770000D03*
X249010000Y-96230000D03*
X251550000Y-98770000D03*
X251550000Y-96230000D03*
X254090000Y-98770000D03*
X254090000Y-96230000D03*
X256630000Y-98770000D03*
X256630000Y-96230000D03*
D14*
X222305960Y-166581120D03*
G04 #@! TA.AperFunction,ComponentPad*
G36*
G01*
X224005960Y-166106120D02*
X224005960Y-167056120D01*
G75*
G02*
X223780960Y-167281120I-225000J0D01*
G01*
X223330960Y-167281120D01*
G75*
G02*
X223105960Y-167056120I0J225000D01*
G01*
X223105960Y-166106120D01*
G75*
G02*
X223330960Y-165881120I225000J0D01*
G01*
X223780960Y-165881120D01*
G75*
G02*
X224005960Y-166106120I0J-225000D01*
G01*
G37*
G04 #@! TD.AperFunction*
D15*
X227914600Y-166789400D03*
X261036200Y-113043000D03*
X203450000Y-109500000D03*
X203450000Y-104650000D03*
X203454400Y-158915400D03*
X203479800Y-152159000D03*
G04 #@! TA.AperFunction,SMDPad,CuDef*
G36*
G01*
X211190600Y-111161000D02*
X211190600Y-110861000D01*
G75*
G02*
X211340600Y-110711000I150000J0D01*
G01*
X213090600Y-110711000D01*
G75*
G02*
X213240600Y-110861000I0J-150000D01*
G01*
X213240600Y-111161000D01*
G75*
G02*
X213090600Y-111311000I-150000J0D01*
G01*
X211340600Y-111311000D01*
G75*
G02*
X211190600Y-111161000I0J150000D01*
G01*
G37*
G04 #@! TD.AperFunction*
G04 #@! TA.AperFunction,SMDPad,CuDef*
G36*
G01*
X211190600Y-109891000D02*
X211190600Y-109591000D01*
G75*
G02*
X211340600Y-109441000I150000J0D01*
G01*
X213090600Y-109441000D01*
G75*
G02*
X213240600Y-109591000I0J-150000D01*
G01*
X213240600Y-109891000D01*
G75*
G02*
X213090600Y-110041000I-150000J0D01*
G01*
X211340600Y-110041000D01*
G75*
G02*
X211190600Y-109891000I0J150000D01*
G01*
G37*
G04 #@! TD.AperFunction*
G04 #@! TA.AperFunction,SMDPad,CuDef*
G36*
G01*
X211190600Y-108621000D02*
X211190600Y-108321000D01*
G75*
G02*
X211340600Y-108171000I150000J0D01*
G01*
X213090600Y-108171000D01*
G75*
G02*
X213240600Y-108321000I0J-150000D01*
G01*
X213240600Y-108621000D01*
G75*
G02*
X213090600Y-108771000I-150000J0D01*
G01*
X211340600Y-108771000D01*
G75*
G02*
X211190600Y-108621000I0J150000D01*
G01*
G37*
G04 #@! TD.AperFunction*
G04 #@! TA.AperFunction,SMDPad,CuDef*
G36*
G01*
X211190600Y-107351000D02*
X211190600Y-107051000D01*
G75*
G02*
X211340600Y-106901000I150000J0D01*
G01*
X213090600Y-106901000D01*
G75*
G02*
X213240600Y-107051000I0J-150000D01*
G01*
X213240600Y-107351000D01*
G75*
G02*
X213090600Y-107501000I-150000J0D01*
G01*
X211340600Y-107501000D01*
G75*
G02*
X211190600Y-107351000I0J150000D01*
G01*
G37*
G04 #@! TD.AperFunction*
G04 #@! TA.AperFunction,SMDPad,CuDef*
G36*
G01*
X211190600Y-106081000D02*
X211190600Y-105781000D01*
G75*
G02*
X211340600Y-105631000I150000J0D01*
G01*
X213090600Y-105631000D01*
G75*
G02*
X213240600Y-105781000I0J-150000D01*
G01*
X213240600Y-106081000D01*
G75*
G02*
X213090600Y-106231000I-150000J0D01*
G01*
X211340600Y-106231000D01*
G75*
G02*
X211190600Y-106081000I0J150000D01*
G01*
G37*
G04 #@! TD.AperFunction*
G04 #@! TA.AperFunction,SMDPad,CuDef*
G36*
G01*
X211190600Y-104811000D02*
X211190600Y-104511000D01*
G75*
G02*
X211340600Y-104361000I150000J0D01*
G01*
X213090600Y-104361000D01*
G75*
G02*
X213240600Y-104511000I0J-150000D01*
G01*
X213240600Y-104811000D01*
G75*
G02*
X213090600Y-104961000I-150000J0D01*
G01*
X211340600Y-104961000D01*
G75*
G02*
X211190600Y-104811000I0J150000D01*
G01*
G37*
G04 #@! TD.AperFunction*
G04 #@! TA.AperFunction,SMDPad,CuDef*
G36*
G01*
X211190600Y-103541000D02*
X211190600Y-103241000D01*
G75*
G02*
X211340600Y-103091000I150000J0D01*
G01*
X213090600Y-103091000D01*
G75*
G02*
X213240600Y-103241000I0J-150000D01*
G01*
X213240600Y-103541000D01*
G75*
G02*
X213090600Y-103691000I-150000J0D01*
G01*
X211340600Y-103691000D01*
G75*
G02*
X211190600Y-103541000I0J150000D01*
G01*
G37*
G04 #@! TD.AperFunction*
G04 #@! TA.AperFunction,SMDPad,CuDef*
G36*
G01*
X211190600Y-102271000D02*
X211190600Y-101971000D01*
G75*
G02*
X211340600Y-101821000I150000J0D01*
G01*
X213090600Y-101821000D01*
G75*
G02*
X213240600Y-101971000I0J-150000D01*
G01*
X213240600Y-102271000D01*
G75*
G02*
X213090600Y-102421000I-150000J0D01*
G01*
X211340600Y-102421000D01*
G75*
G02*
X211190600Y-102271000I0J150000D01*
G01*
G37*
G04 #@! TD.AperFunction*
G04 #@! TA.AperFunction,SMDPad,CuDef*
G36*
G01*
X220490600Y-102271000D02*
X220490600Y-101971000D01*
G75*
G02*
X220640600Y-101821000I150000J0D01*
G01*
X222390600Y-101821000D01*
G75*
G02*
X222540600Y-101971000I0J-150000D01*
G01*
X222540600Y-102271000D01*
G75*
G02*
X222390600Y-102421000I-150000J0D01*
G01*
X220640600Y-102421000D01*
G75*
G02*
X220490600Y-102271000I0J150000D01*
G01*
G37*
G04 #@! TD.AperFunction*
G04 #@! TA.AperFunction,SMDPad,CuDef*
G36*
G01*
X220490600Y-103541000D02*
X220490600Y-103241000D01*
G75*
G02*
X220640600Y-103091000I150000J0D01*
G01*
X222390600Y-103091000D01*
G75*
G02*
X222540600Y-103241000I0J-150000D01*
G01*
X222540600Y-103541000D01*
G75*
G02*
X222390600Y-103691000I-150000J0D01*
G01*
X220640600Y-103691000D01*
G75*
G02*
X220490600Y-103541000I0J150000D01*
G01*
G37*
G04 #@! TD.AperFunction*
G04 #@! TA.AperFunction,SMDPad,CuDef*
G36*
G01*
X220490600Y-104811000D02*
X220490600Y-104511000D01*
G75*
G02*
X220640600Y-104361000I150000J0D01*
G01*
X222390600Y-104361000D01*
G75*
G02*
X222540600Y-104511000I0J-150000D01*
G01*
X222540600Y-104811000D01*
G75*
G02*
X222390600Y-104961000I-150000J0D01*
G01*
X220640600Y-104961000D01*
G75*
G02*
X220490600Y-104811000I0J150000D01*
G01*
G37*
G04 #@! TD.AperFunction*
G04 #@! TA.AperFunction,SMDPad,CuDef*
G36*
G01*
X220490600Y-106081000D02*
X220490600Y-105781000D01*
G75*
G02*
X220640600Y-105631000I150000J0D01*
G01*
X222390600Y-105631000D01*
G75*
G02*
X222540600Y-105781000I0J-150000D01*
G01*
X222540600Y-106081000D01*
G75*
G02*
X222390600Y-106231000I-150000J0D01*
G01*
X220640600Y-106231000D01*
G75*
G02*
X220490600Y-106081000I0J150000D01*
G01*
G37*
G04 #@! TD.AperFunction*
G04 #@! TA.AperFunction,SMDPad,CuDef*
G36*
G01*
X220490600Y-107351000D02*
X220490600Y-107051000D01*
G75*
G02*
X220640600Y-106901000I150000J0D01*
G01*
X222390600Y-106901000D01*
G75*
G02*
X222540600Y-107051000I0J-150000D01*
G01*
X222540600Y-107351000D01*
G75*
G02*
X222390600Y-107501000I-150000J0D01*
G01*
X220640600Y-107501000D01*
G75*
G02*
X220490600Y-107351000I0J150000D01*
G01*
G37*
G04 #@! TD.AperFunction*
G04 #@! TA.AperFunction,SMDPad,CuDef*
G36*
G01*
X220490600Y-108621000D02*
X220490600Y-108321000D01*
G75*
G02*
X220640600Y-108171000I150000J0D01*
G01*
X222390600Y-108171000D01*
G75*
G02*
X222540600Y-108321000I0J-150000D01*
G01*
X222540600Y-108621000D01*
G75*
G02*
X222390600Y-108771000I-150000J0D01*
G01*
X220640600Y-108771000D01*
G75*
G02*
X220490600Y-108621000I0J150000D01*
G01*
G37*
G04 #@! TD.AperFunction*
G04 #@! TA.AperFunction,SMDPad,CuDef*
G36*
G01*
X220490600Y-109891000D02*
X220490600Y-109591000D01*
G75*
G02*
X220640600Y-109441000I150000J0D01*
G01*
X222390600Y-109441000D01*
G75*
G02*
X222540600Y-109591000I0J-150000D01*
G01*
X222540600Y-109891000D01*
G75*
G02*
X222390600Y-110041000I-150000J0D01*
G01*
X220640600Y-110041000D01*
G75*
G02*
X220490600Y-109891000I0J150000D01*
G01*
G37*
G04 #@! TD.AperFunction*
G04 #@! TA.AperFunction,SMDPad,CuDef*
G36*
G01*
X220490600Y-111161000D02*
X220490600Y-110861000D01*
G75*
G02*
X220640600Y-110711000I150000J0D01*
G01*
X222390600Y-110711000D01*
G75*
G02*
X222540600Y-110861000I0J-150000D01*
G01*
X222540600Y-111161000D01*
G75*
G02*
X222390600Y-111311000I-150000J0D01*
G01*
X220640600Y-111311000D01*
G75*
G02*
X220490600Y-111161000I0J150000D01*
G01*
G37*
G04 #@! TD.AperFunction*
G04 #@! TA.AperFunction,ComponentPad*
G36*
G01*
X226969300Y-129532700D02*
X226969300Y-128582700D01*
G75*
G02*
X227194300Y-128357700I225000J0D01*
G01*
X227644300Y-128357700D01*
G75*
G02*
X227869300Y-128582700I0J-225000D01*
G01*
X227869300Y-129532700D01*
G75*
G02*
X227644300Y-129757700I-225000J0D01*
G01*
X227194300Y-129757700D01*
G75*
G02*
X226969300Y-129532700I0J225000D01*
G01*
G37*
G04 #@! TD.AperFunction*
D14*
X228669300Y-129057700D03*
G04 #@! TA.AperFunction,SMDPad,CuDef*
G36*
G01*
X251759400Y-118480850D02*
X251759400Y-117968350D01*
G75*
G02*
X251978150Y-117749600I218750J0D01*
G01*
X252415650Y-117749600D01*
G75*
G02*
X252634400Y-117968350I0J-218750D01*
G01*
X252634400Y-118480850D01*
G75*
G02*
X252415650Y-118699600I-218750J0D01*
G01*
X251978150Y-118699600D01*
G75*
G02*
X251759400Y-118480850I0J218750D01*
G01*
G37*
G04 #@! TD.AperFunction*
G04 #@! TA.AperFunction,SMDPad,CuDef*
G36*
G01*
X253334400Y-118480850D02*
X253334400Y-117968350D01*
G75*
G02*
X253553150Y-117749600I218750J0D01*
G01*
X253990650Y-117749600D01*
G75*
G02*
X254209400Y-117968350I0J-218750D01*
G01*
X254209400Y-118480850D01*
G75*
G02*
X253990650Y-118699600I-218750J0D01*
G01*
X253553150Y-118699600D01*
G75*
G02*
X253334400Y-118480850I0J218750D01*
G01*
G37*
G04 #@! TD.AperFunction*
G04 #@! TA.AperFunction,SMDPad,CuDef*
G36*
G01*
X211195600Y-113248450D02*
X211195600Y-112735950D01*
G75*
G02*
X211414350Y-112517200I218750J0D01*
G01*
X211851850Y-112517200D01*
G75*
G02*
X212070600Y-112735950I0J-218750D01*
G01*
X212070600Y-113248450D01*
G75*
G02*
X211851850Y-113467200I-218750J0D01*
G01*
X211414350Y-113467200D01*
G75*
G02*
X211195600Y-113248450I0J218750D01*
G01*
G37*
G04 #@! TD.AperFunction*
G04 #@! TA.AperFunction,SMDPad,CuDef*
G36*
G01*
X212770600Y-113248450D02*
X212770600Y-112735950D01*
G75*
G02*
X212989350Y-112517200I218750J0D01*
G01*
X213426850Y-112517200D01*
G75*
G02*
X213645600Y-112735950I0J-218750D01*
G01*
X213645600Y-113248450D01*
G75*
G02*
X213426850Y-113467200I-218750J0D01*
G01*
X212989350Y-113467200D01*
G75*
G02*
X212770600Y-113248450I0J218750D01*
G01*
G37*
G04 #@! TD.AperFunction*
D16*
X251041900Y-121274100D03*
D17*
X251041900Y-123274100D03*
G04 #@! TA.AperFunction,SMDPad,CuDef*
G36*
G01*
X241231400Y-149302450D02*
X241231400Y-150214950D01*
G75*
G02*
X240987650Y-150458700I-243750J0D01*
G01*
X240500150Y-150458700D01*
G75*
G02*
X240256400Y-150214950I0J243750D01*
G01*
X240256400Y-149302450D01*
G75*
G02*
X240500150Y-149058700I243750J0D01*
G01*
X240987650Y-149058700D01*
G75*
G02*
X241231400Y-149302450I0J-243750D01*
G01*
G37*
G04 #@! TD.AperFunction*
G04 #@! TA.AperFunction,SMDPad,CuDef*
G36*
G01*
X243106400Y-149302450D02*
X243106400Y-150214950D01*
G75*
G02*
X242862650Y-150458700I-243750J0D01*
G01*
X242375150Y-150458700D01*
G75*
G02*
X242131400Y-150214950I0J243750D01*
G01*
X242131400Y-149302450D01*
G75*
G02*
X242375150Y-149058700I243750J0D01*
G01*
X242862650Y-149058700D01*
G75*
G02*
X243106400Y-149302450I0J-243750D01*
G01*
G37*
G04 #@! TD.AperFunction*
D18*
X238138100Y-136454200D03*
X238138100Y-129154200D03*
G04 #@! TA.AperFunction,SMDPad,CuDef*
G36*
G01*
X228503900Y-147360603D02*
X228503900Y-144460597D01*
G75*
G02*
X228753897Y-144210600I249997J0D01*
G01*
X229378903Y-144210600D01*
G75*
G02*
X229628900Y-144460597I0J-249997D01*
G01*
X229628900Y-147360603D01*
G75*
G02*
X229378903Y-147610600I-249997J0D01*
G01*
X228753897Y-147610600D01*
G75*
G02*
X228503900Y-147360603I0J249997D01*
G01*
G37*
G04 #@! TD.AperFunction*
G04 #@! TA.AperFunction,SMDPad,CuDef*
G36*
G01*
X232778900Y-147360603D02*
X232778900Y-144460597D01*
G75*
G02*
X233028897Y-144210600I249997J0D01*
G01*
X233653903Y-144210600D01*
G75*
G02*
X233903900Y-144460597I0J-249997D01*
G01*
X233903900Y-147360603D01*
G75*
G02*
X233653903Y-147610600I-249997J0D01*
G01*
X233028897Y-147610600D01*
G75*
G02*
X232778900Y-147360603I0J249997D01*
G01*
G37*
G04 #@! TD.AperFunction*
X237820600Y-158310900D03*
X237820600Y-151010900D03*
D19*
X212771440Y-159105900D03*
X222971440Y-159105900D03*
G04 #@! TA.AperFunction,SMDPad,CuDef*
G36*
G01*
X257368150Y-106762100D02*
X256855650Y-106762100D01*
G75*
G02*
X256636900Y-106543350I0J218750D01*
G01*
X256636900Y-106105850D01*
G75*
G02*
X256855650Y-105887100I218750J0D01*
G01*
X257368150Y-105887100D01*
G75*
G02*
X257586900Y-106105850I0J-218750D01*
G01*
X257586900Y-106543350D01*
G75*
G02*
X257368150Y-106762100I-218750J0D01*
G01*
G37*
G04 #@! TD.AperFunction*
G04 #@! TA.AperFunction,SMDPad,CuDef*
G36*
G01*
X257368150Y-108337100D02*
X256855650Y-108337100D01*
G75*
G02*
X256636900Y-108118350I0J218750D01*
G01*
X256636900Y-107680850D01*
G75*
G02*
X256855650Y-107462100I218750J0D01*
G01*
X257368150Y-107462100D01*
G75*
G02*
X257586900Y-107680850I0J-218750D01*
G01*
X257586900Y-108118350D01*
G75*
G02*
X257368150Y-108337100I-218750J0D01*
G01*
G37*
G04 #@! TD.AperFunction*
G04 #@! TA.AperFunction,SMDPad,CuDef*
G36*
G01*
X248062400Y-118031850D02*
X248062400Y-118544350D01*
G75*
G02*
X247843650Y-118763100I-218750J0D01*
G01*
X247406150Y-118763100D01*
G75*
G02*
X247187400Y-118544350I0J218750D01*
G01*
X247187400Y-118031850D01*
G75*
G02*
X247406150Y-117813100I218750J0D01*
G01*
X247843650Y-117813100D01*
G75*
G02*
X248062400Y-118031850I0J-218750D01*
G01*
G37*
G04 #@! TD.AperFunction*
G04 #@! TA.AperFunction,SMDPad,CuDef*
G36*
G01*
X249637400Y-118031850D02*
X249637400Y-118544350D01*
G75*
G02*
X249418650Y-118763100I-218750J0D01*
G01*
X248981150Y-118763100D01*
G75*
G02*
X248762400Y-118544350I0J218750D01*
G01*
X248762400Y-118031850D01*
G75*
G02*
X248981150Y-117813100I218750J0D01*
G01*
X249418650Y-117813100D01*
G75*
G02*
X249637400Y-118031850I0J-218750D01*
G01*
G37*
G04 #@! TD.AperFunction*
G04 #@! TA.AperFunction,SMDPad,CuDef*
G36*
G01*
X254159900Y-105336350D02*
X254159900Y-104823850D01*
G75*
G02*
X254378650Y-104605100I218750J0D01*
G01*
X254816150Y-104605100D01*
G75*
G02*
X255034900Y-104823850I0J-218750D01*
G01*
X255034900Y-105336350D01*
G75*
G02*
X254816150Y-105555100I-218750J0D01*
G01*
X254378650Y-105555100D01*
G75*
G02*
X254159900Y-105336350I0J218750D01*
G01*
G37*
G04 #@! TD.AperFunction*
G04 #@! TA.AperFunction,SMDPad,CuDef*
G36*
G01*
X252584900Y-105336350D02*
X252584900Y-104823850D01*
G75*
G02*
X252803650Y-104605100I218750J0D01*
G01*
X253241150Y-104605100D01*
G75*
G02*
X253459900Y-104823850I0J-218750D01*
G01*
X253459900Y-105336350D01*
G75*
G02*
X253241150Y-105555100I-218750J0D01*
G01*
X252803650Y-105555100D01*
G75*
G02*
X252584900Y-105336350I0J218750D01*
G01*
G37*
G04 #@! TD.AperFunction*
D20*
X260223400Y-103886300D03*
X262763400Y-106426300D03*
X260223400Y-108966300D03*
G04 #@! TA.AperFunction,SMDPad,CuDef*
G36*
G01*
X234114800Y-129363450D02*
X234114800Y-130275950D01*
G75*
G02*
X233871050Y-130519700I-243750J0D01*
G01*
X233383550Y-130519700D01*
G75*
G02*
X233139800Y-130275950I0J243750D01*
G01*
X233139800Y-129363450D01*
G75*
G02*
X233383550Y-129119700I243750J0D01*
G01*
X233871050Y-129119700D01*
G75*
G02*
X234114800Y-129363450I0J-243750D01*
G01*
G37*
G04 #@! TD.AperFunction*
G04 #@! TA.AperFunction,SMDPad,CuDef*
G36*
G01*
X232239800Y-129363450D02*
X232239800Y-130275950D01*
G75*
G02*
X231996050Y-130519700I-243750J0D01*
G01*
X231508550Y-130519700D01*
G75*
G02*
X231264800Y-130275950I0J243750D01*
G01*
X231264800Y-129363450D01*
G75*
G02*
X231508550Y-129119700I243750J0D01*
G01*
X231996050Y-129119700D01*
G75*
G02*
X232239800Y-129363450I0J-243750D01*
G01*
G37*
G04 #@! TD.AperFunction*
D21*
X250131980Y-131602780D03*
D22*
X250131980Y-136682780D03*
D23*
X216570200Y-116444300D03*
X216570200Y-117744300D03*
X214570200Y-117094300D03*
G04 #@! TA.AperFunction,SMDPad,CuDef*
G36*
G01*
X219245000Y-114333750D02*
X219245000Y-115246250D01*
G75*
G02*
X219001250Y-115490000I-243750J0D01*
G01*
X218513750Y-115490000D01*
G75*
G02*
X218270000Y-115246250I0J243750D01*
G01*
X218270000Y-114333750D01*
G75*
G02*
X218513750Y-114090000I243750J0D01*
G01*
X219001250Y-114090000D01*
G75*
G02*
X219245000Y-114333750I0J-243750D01*
G01*
G37*
G04 #@! TD.AperFunction*
G04 #@! TA.AperFunction,SMDPad,CuDef*
G36*
G01*
X217370000Y-114333750D02*
X217370000Y-115246250D01*
G75*
G02*
X217126250Y-115490000I-243750J0D01*
G01*
X216638750Y-115490000D01*
G75*
G02*
X216395000Y-115246250I0J243750D01*
G01*
X216395000Y-114333750D01*
G75*
G02*
X216638750Y-114090000I243750J0D01*
G01*
X217126250Y-114090000D01*
G75*
G02*
X217370000Y-114333750I0J-243750D01*
G01*
G37*
G04 #@! TD.AperFunction*
G04 #@! TA.AperFunction,SMDPad,CuDef*
G36*
G01*
X215818400Y-113223050D02*
X215818400Y-112710550D01*
G75*
G02*
X216037150Y-112491800I218750J0D01*
G01*
X216474650Y-112491800D01*
G75*
G02*
X216693400Y-112710550I0J-218750D01*
G01*
X216693400Y-113223050D01*
G75*
G02*
X216474650Y-113441800I-218750J0D01*
G01*
X216037150Y-113441800D01*
G75*
G02*
X215818400Y-113223050I0J218750D01*
G01*
G37*
G04 #@! TD.AperFunction*
G04 #@! TA.AperFunction,SMDPad,CuDef*
G36*
G01*
X217393400Y-113223050D02*
X217393400Y-112710550D01*
G75*
G02*
X217612150Y-112491800I218750J0D01*
G01*
X218049650Y-112491800D01*
G75*
G02*
X218268400Y-112710550I0J-218750D01*
G01*
X218268400Y-113223050D01*
G75*
G02*
X218049650Y-113441800I-218750J0D01*
G01*
X217612150Y-113441800D01*
G75*
G02*
X217393400Y-113223050I0J218750D01*
G01*
G37*
G04 #@! TD.AperFunction*
D14*
X296220000Y-97620000D03*
G04 #@! TA.AperFunction,ComponentPad*
G36*
G01*
X297920000Y-97145000D02*
X297920000Y-98095000D01*
G75*
G02*
X297695000Y-98320000I-225000J0D01*
G01*
X297245000Y-98320000D01*
G75*
G02*
X297020000Y-98095000I0J225000D01*
G01*
X297020000Y-97145000D01*
G75*
G02*
X297245000Y-96920000I225000J0D01*
G01*
X297695000Y-96920000D01*
G75*
G02*
X297920000Y-97145000I0J-225000D01*
G01*
G37*
G04 #@! TD.AperFunction*
G04 #@! TA.AperFunction,ComponentPad*
G36*
G01*
X284680000Y-102445000D02*
X284680000Y-103395000D01*
G75*
G02*
X284455000Y-103620000I-225000J0D01*
G01*
X284005000Y-103620000D01*
G75*
G02*
X283780000Y-103395000I0J225000D01*
G01*
X283780000Y-102445000D01*
G75*
G02*
X284005000Y-102220000I225000J0D01*
G01*
X284455000Y-102220000D01*
G75*
G02*
X284680000Y-102445000I0J-225000D01*
G01*
G37*
G04 #@! TD.AperFunction*
X282980000Y-102920000D03*
G04 #@! TA.AperFunction,ComponentPad*
G36*
G01*
X291330000Y-97155000D02*
X291330000Y-98105000D01*
G75*
G02*
X291105000Y-98330000I-225000J0D01*
G01*
X290655000Y-98330000D01*
G75*
G02*
X290430000Y-98105000I0J225000D01*
G01*
X290430000Y-97155000D01*
G75*
G02*
X290655000Y-96930000I225000J0D01*
G01*
X291105000Y-96930000D01*
G75*
G02*
X291330000Y-97155000I0J-225000D01*
G01*
G37*
G04 #@! TD.AperFunction*
X289630000Y-97630000D03*
X275720000Y-97700000D03*
G04 #@! TA.AperFunction,ComponentPad*
G36*
G01*
X277420000Y-97225000D02*
X277420000Y-98175000D01*
G75*
G02*
X277195000Y-98400000I-225000J0D01*
G01*
X276745000Y-98400000D01*
G75*
G02*
X276520000Y-98175000I0J225000D01*
G01*
X276520000Y-97225000D01*
G75*
G02*
X276745000Y-97000000I225000J0D01*
G01*
X277195000Y-97000000D01*
G75*
G02*
X277420000Y-97225000I0J-225000D01*
G01*
G37*
G04 #@! TD.AperFunction*
G04 #@! TA.AperFunction,ComponentPad*
G36*
G01*
X284660000Y-97165000D02*
X284660000Y-98115000D01*
G75*
G02*
X284435000Y-98340000I-225000J0D01*
G01*
X283985000Y-98340000D01*
G75*
G02*
X283760000Y-98115000I0J225000D01*
G01*
X283760000Y-97165000D01*
G75*
G02*
X283985000Y-96940000I225000J0D01*
G01*
X284435000Y-96940000D01*
G75*
G02*
X284660000Y-97165000I0J-225000D01*
G01*
G37*
G04 #@! TD.AperFunction*
X282960000Y-97640000D03*
D12*
X277730000Y-108910000D03*
D13*
X280270000Y-108910000D03*
X282810000Y-108910000D03*
G04 #@! TA.AperFunction,SMDPad,CuDef*
G36*
G01*
X268350000Y-136803189D02*
X269350000Y-136803189D01*
G75*
G02*
X269850000Y-137303189I0J-500000D01*
G01*
X269850000Y-140303189D01*
G75*
G02*
X269350000Y-140803189I-500000J0D01*
G01*
X268350000Y-140803189D01*
G75*
G02*
X267850000Y-140303189I0J500000D01*
G01*
X267850000Y-137303189D01*
G75*
G02*
X268350000Y-136803189I500000J0D01*
G01*
G37*
G04 #@! TD.AperFunction*
G04 #@! TA.AperFunction,SMDPad,CuDef*
G36*
G01*
X273650000Y-136803189D02*
X274650000Y-136803189D01*
G75*
G02*
X275150000Y-137303189I0J-500000D01*
G01*
X275150000Y-140303189D01*
G75*
G02*
X274650000Y-140803189I-500000J0D01*
G01*
X273650000Y-140803189D01*
G75*
G02*
X273150000Y-140303189I0J500000D01*
G01*
X273150000Y-137303189D01*
G75*
G02*
X273650000Y-136803189I500000J0D01*
G01*
G37*
G04 #@! TD.AperFunction*
G04 #@! TA.AperFunction,SMDPad,CuDef*
G36*
G01*
X270980000Y-136813189D02*
X271980000Y-136813189D01*
G75*
G02*
X272480000Y-137313189I0J-500000D01*
G01*
X272480000Y-140313189D01*
G75*
G02*
X271980000Y-140813189I-500000J0D01*
G01*
X270980000Y-140813189D01*
G75*
G02*
X270480000Y-140313189I0J500000D01*
G01*
X270480000Y-137313189D01*
G75*
G02*
X270980000Y-136813189I500000J0D01*
G01*
G37*
G04 #@! TD.AperFunction*
D24*
X280070251Y-143700000D03*
D25*
X281470251Y-143700000D03*
X278670251Y-143700000D03*
D11*
X280470251Y-142400000D03*
X279670251Y-142400000D03*
X279670251Y-143000000D03*
X280470251Y-143000000D03*
X279670251Y-143600000D03*
X280470251Y-143600000D03*
X280470251Y-144200000D03*
X280470251Y-144800000D03*
X279670251Y-144200000D03*
X279670251Y-144800000D03*
D26*
X203500000Y-97500000D03*
X261500000Y-97500000D03*
X203500000Y-146500000D03*
X261500000Y-146500000D03*
D27*
X203500000Y-165500000D03*
D28*
X208390000Y-108310000D03*
X208390000Y-107060000D03*
X208390000Y-105810000D03*
X208390000Y-104560000D03*
G04 #@! TA.AperFunction,ComponentPad*
G36*
G01*
X207940000Y-102910000D02*
X208840000Y-102910000D01*
G75*
G02*
X209040000Y-103110000I0J-200000D01*
G01*
X209040000Y-103510000D01*
G75*
G02*
X208840000Y-103710000I-200000J0D01*
G01*
X207940000Y-103710000D01*
G75*
G02*
X207740000Y-103510000I0J200000D01*
G01*
X207740000Y-103110000D01*
G75*
G02*
X207940000Y-102910000I200000J0D01*
G01*
G37*
G04 #@! TD.AperFunction*
G04 #@! TA.AperFunction,ComponentPad*
G36*
G01*
X301245400Y-134221002D02*
X301245400Y-133321002D01*
G75*
G02*
X301445400Y-133121002I200000J0D01*
G01*
X301845400Y-133121002D01*
G75*
G02*
X302045400Y-133321002I0J-200000D01*
G01*
X302045400Y-134221002D01*
G75*
G02*
X301845400Y-134421002I-200000J0D01*
G01*
X301445400Y-134421002D01*
G75*
G02*
X301245400Y-134221002I0J200000D01*
G01*
G37*
G04 #@! TD.AperFunction*
D29*
X302895400Y-133771002D03*
X304145400Y-133771002D03*
X305395400Y-133771002D03*
X306645400Y-133771002D03*
D30*
X217526000Y-102032100D03*
X214100000Y-110990000D03*
X234163000Y-164859000D03*
D31*
X240386000Y-146240800D03*
D30*
X209730000Y-123870000D03*
D31*
X233528000Y-168719800D03*
X240157400Y-168669000D03*
X238300000Y-103270000D03*
X211580000Y-114290000D03*
X252250000Y-164060000D03*
X253950000Y-164060000D03*
X213210000Y-169250000D03*
X223890000Y-145730000D03*
X226700000Y-146540000D03*
D30*
X213990000Y-131470000D03*
X234239200Y-136818700D03*
X231699200Y-136856800D03*
X234086800Y-141505000D03*
X233883600Y-158597900D03*
X233921700Y-153911600D03*
X233947100Y-156286500D03*
X231623000Y-153949700D03*
X217251460Y-161875340D03*
X217251460Y-163175340D03*
X217269460Y-160637520D03*
D31*
X217272000Y-151828800D03*
X218719800Y-141922800D03*
X220726400Y-141287800D03*
D32*
X216002000Y-110223600D03*
D31*
X213335000Y-114414600D03*
X219253200Y-113043000D03*
X230251400Y-125844600D03*
X237922200Y-125920800D03*
X220421600Y-149720600D03*
X231191200Y-144412000D03*
X201041400Y-140043200D03*
X200127000Y-134582200D03*
X208585200Y-134633000D03*
X226339800Y-139560600D03*
X241300400Y-152032000D03*
D30*
X209760000Y-126400000D03*
D31*
X217830000Y-116680000D03*
D30*
X219160000Y-105940000D03*
D31*
X232512000Y-131432600D03*
X255120000Y-119090000D03*
D30*
X244742100Y-118364300D03*
X208049260Y-164709140D03*
X208040000Y-165960000D03*
X231733690Y-139178618D03*
X218542000Y-107518500D03*
D31*
X204648200Y-140050820D03*
D30*
X256984900Y-113462100D03*
X244297600Y-107645500D03*
X250507900Y-119494600D03*
X216051460Y-163175340D03*
X216051460Y-161875340D03*
X214620000Y-104450000D03*
X214500000Y-102800000D03*
X234150300Y-139193600D03*
D31*
X225908000Y-108877400D03*
X245935900Y-125400100D03*
X243611900Y-117294100D03*
D30*
X208328660Y-156250940D03*
D31*
X221793200Y-139890800D03*
X235356800Y-146748800D03*
D30*
X209913620Y-156271260D03*
X218970000Y-155370000D03*
X255841900Y-107874100D03*
D31*
X239636700Y-122364800D03*
X239878000Y-129553000D03*
D30*
X240944800Y-164655800D03*
D31*
X216380460Y-166055340D03*
D30*
X215915640Y-156697980D03*
X213960000Y-130270000D03*
X238366700Y-132475300D03*
D31*
X227508200Y-147866400D03*
D30*
X238938200Y-153683000D03*
D31*
X222290000Y-113450000D03*
X219600000Y-122180000D03*
X218810000Y-125150000D03*
X220640000Y-114680000D03*
X230120000Y-113070000D03*
X232143700Y-116002100D03*
D32*
X251050890Y-116433900D03*
X251050890Y-115595700D03*
D31*
X237820600Y-118453200D03*
D32*
X252616100Y-115494100D03*
D31*
X227051000Y-123584000D03*
D32*
X250323566Y-116100707D03*
X250330100Y-116941900D03*
D31*
X239471600Y-118097600D03*
D32*
X248917290Y-115671900D03*
D30*
X216230000Y-111220000D03*
D31*
X235990000Y-103250000D03*
X234740000Y-103230000D03*
D30*
X219180000Y-110170000D03*
D31*
X216687800Y-141237000D03*
X252793900Y-106362800D03*
X249834800Y-102781400D03*
X239890700Y-115113100D03*
X236398200Y-124422200D03*
X217396460Y-167160240D03*
X240820340Y-111135460D03*
X241701720Y-144546620D03*
X225146000Y-112789000D03*
X217272000Y-145478800D03*
X226974800Y-155054600D03*
X208763000Y-136893600D03*
D32*
X255905400Y-116891100D03*
X249441100Y-117119700D03*
X252221900Y-116994100D03*
X247777400Y-106286600D03*
D31*
X235560000Y-111468200D03*
D32*
X248691800Y-106286600D03*
D31*
X232994600Y-111493600D03*
X280950000Y-113360000D03*
X287990000Y-116630000D03*
X237170000Y-103280000D03*
X293100000Y-125700000D03*
X288040000Y-125600000D03*
D30*
X281140000Y-111650000D03*
D31*
X232240000Y-101860000D03*
D30*
X222148800Y-160238740D03*
X210610000Y-168120000D03*
X214030000Y-127750000D03*
D31*
X226860000Y-107620000D03*
X223460000Y-112210000D03*
X290500000Y-121760000D03*
D30*
X272716600Y-131950189D03*
D32*
X282208960Y-149078849D03*
X281208960Y-149078849D03*
X280208960Y-149078849D03*
X279208960Y-149078849D03*
X278208960Y-149078849D03*
X277208960Y-149078849D03*
X282208960Y-148078849D03*
X281208960Y-148078849D03*
X280208960Y-148078849D03*
X279208960Y-148078849D03*
X278208960Y-148078849D03*
X282328340Y-139922149D03*
X281328340Y-139922149D03*
X280328340Y-139922149D03*
X279328340Y-139922149D03*
X278328340Y-139922149D03*
X277328340Y-139922149D03*
X282328340Y-138922149D03*
X281328340Y-138922149D03*
X280328340Y-138922149D03*
X279328340Y-138922149D03*
X278328340Y-138922149D03*
X277328340Y-138922149D03*
X277208960Y-148078849D03*
D30*
X274216600Y-131950189D03*
X275716600Y-131950189D03*
X277216600Y-131950189D03*
X278716600Y-131950189D03*
X280216600Y-131950189D03*
X281716600Y-131950189D03*
X283216600Y-131950189D03*
X284716600Y-131950189D03*
X286216600Y-131950189D03*
X287716600Y-131950189D03*
X272716600Y-133450189D03*
X272716600Y-134950189D03*
X277216600Y-133450189D03*
X277216600Y-134950189D03*
X278716600Y-133450189D03*
X280216600Y-133450189D03*
X281716600Y-133450189D03*
X283216600Y-133450189D03*
X284716600Y-133450189D03*
X286216600Y-133450189D03*
X278716600Y-134950189D03*
X280216600Y-134950189D03*
X281716600Y-134950189D03*
X283216600Y-134950189D03*
X284716600Y-134950189D03*
X286216600Y-134950189D03*
X289116600Y-136750189D03*
X290616600Y-136750189D03*
X292116600Y-136750189D03*
X287616600Y-142750189D03*
X287616600Y-144250189D03*
X287616600Y-145750189D03*
X287616600Y-147250189D03*
X287616600Y-148750189D03*
X287616600Y-150250189D03*
X287616600Y-151750189D03*
X287616600Y-153250189D03*
X287616600Y-154750189D03*
X289116600Y-138250189D03*
X289116600Y-139750189D03*
X289116600Y-141250189D03*
X289116600Y-142750189D03*
X289116600Y-144250189D03*
X289116600Y-145750189D03*
X289116600Y-147250189D03*
X289116600Y-148750189D03*
X289116600Y-150250189D03*
X290616600Y-138250189D03*
X290616600Y-139750189D03*
X290616600Y-141250189D03*
X290616600Y-145750189D03*
X290616600Y-147250189D03*
X290616600Y-148750189D03*
X290616600Y-150250189D03*
X292116600Y-138250189D03*
X292116600Y-139750189D03*
X292116600Y-141250189D03*
X292116600Y-145750189D03*
X292116600Y-147250189D03*
X292116600Y-148750189D03*
X292116600Y-150250189D03*
X286116600Y-142750189D03*
X286116600Y-144250189D03*
X286116600Y-145750189D03*
X286116600Y-151750189D03*
X286116600Y-153250189D03*
X286116600Y-154750189D03*
X284616600Y-151750189D03*
X283116600Y-151750189D03*
X281616600Y-151750189D03*
X280116600Y-151750189D03*
X278616600Y-151750189D03*
X277116600Y-151750189D03*
X275616600Y-151750189D03*
X274116600Y-151750189D03*
X272616600Y-151750189D03*
X284616600Y-153250189D03*
X283116600Y-153250189D03*
X281616600Y-153250189D03*
X280116600Y-153250189D03*
X278616600Y-153250189D03*
X277116600Y-153250189D03*
X275616600Y-153250189D03*
X274116600Y-153250189D03*
X272616600Y-153250189D03*
X284616600Y-154750189D03*
X283116600Y-154750189D03*
X281616600Y-154750189D03*
X280116600Y-154750189D03*
X278616600Y-154750189D03*
X277116600Y-154750189D03*
X275616600Y-154750189D03*
X274116600Y-154750189D03*
X272616600Y-154750189D03*
X272616600Y-150250189D03*
X272616600Y-148750189D03*
X272616600Y-147250189D03*
X272616600Y-145750189D03*
X272616600Y-144250189D03*
X274116600Y-150250189D03*
X275616600Y-150250189D03*
X277116600Y-150250189D03*
X278616600Y-150250189D03*
X280116600Y-150250189D03*
X281616600Y-150250189D03*
X283116600Y-150250189D03*
X284616600Y-145750189D03*
X274116600Y-148750189D03*
X274116600Y-147250189D03*
X274116600Y-145750189D03*
X275616600Y-148750189D03*
X275616600Y-147250189D03*
X275616600Y-145750189D03*
X275616600Y-142750189D03*
X275616600Y-141250189D03*
X271116600Y-150250189D03*
X269616600Y-150250189D03*
X268116600Y-150250189D03*
X271116600Y-148750189D03*
X269616600Y-148750189D03*
X268116600Y-148750189D03*
X271116600Y-147250189D03*
X269616600Y-147250189D03*
X268116600Y-147250189D03*
X271116600Y-145750189D03*
X269616600Y-145750189D03*
X268116600Y-145750189D03*
X271116600Y-144250189D03*
X269616600Y-144250189D03*
X268116600Y-144250189D03*
X269616600Y-142750189D03*
X268116600Y-142750189D03*
X271116600Y-142750189D03*
X287616600Y-141250189D03*
X281716600Y-136450189D03*
X280216600Y-136450189D03*
X278716600Y-136450189D03*
X277216600Y-136450189D03*
D31*
X217180000Y-100670000D03*
X227500000Y-116630000D03*
X298991600Y-139185800D03*
X298940800Y-140405000D03*
X307805400Y-137839600D03*
D33*
X210300000Y-111494000D02*
X210300000Y-110600000D01*
X211159000Y-109741000D02*
X210300000Y-110600000D01*
X212215600Y-109741000D02*
X211159000Y-109741000D01*
X211633100Y-112827100D02*
X210300000Y-111494000D01*
X212851000Y-109741000D02*
X214100000Y-110990000D01*
X212215600Y-109741000D02*
X212851000Y-109741000D01*
D34*
X237820600Y-158310900D02*
X237820600Y-161785600D01*
X234163000Y-164859000D02*
X235179000Y-164859000D01*
X237820600Y-162217400D02*
X237820600Y-161785600D01*
X235179000Y-164859000D02*
X237820600Y-162217400D01*
D33*
X242545000Y-153586500D02*
X242545000Y-148399800D01*
X242545000Y-148399800D02*
X240386000Y-146240800D01*
X237820600Y-158310900D02*
X242545000Y-153586500D01*
X231752300Y-129819700D02*
X231752300Y-130672900D01*
X231752300Y-130672900D02*
X232512000Y-131432600D01*
X219253200Y-113043000D02*
X217907100Y-113043000D01*
X213208100Y-112992200D02*
X213208100Y-114287700D01*
X213208100Y-114287700D02*
X213335000Y-114414600D01*
X213258900Y-114338500D02*
X213335000Y-114414600D01*
X249199900Y-118288100D02*
X249301400Y-118288100D01*
X249301400Y-118288100D02*
X250507900Y-119494600D01*
X250417410Y-119404110D02*
X250507900Y-119494600D01*
X221515600Y-107201000D02*
X220701000Y-107201000D01*
X212215600Y-102121000D02*
X213821000Y-102121000D01*
X213821000Y-102121000D02*
X214500000Y-102800000D01*
X221515600Y-107201000D02*
X221515600Y-102121000D01*
X212215600Y-102121000D02*
X212215600Y-105931000D01*
X250926900Y-119494600D02*
X250507900Y-119494600D01*
X252196900Y-118224600D02*
X250926900Y-119494600D01*
X213139000Y-105931000D02*
X214620000Y-104450000D01*
X212215600Y-105931000D02*
X213139000Y-105931000D01*
X219169000Y-105931000D02*
X219160000Y-105940000D01*
X221515600Y-105931000D02*
X219169000Y-105931000D01*
X216765700Y-117744300D02*
X217830000Y-116680000D01*
X216570200Y-117744300D02*
X216765700Y-117744300D01*
X240690800Y-151422400D02*
X241300400Y-152032000D01*
X240690800Y-149758700D02*
X240690800Y-151422400D01*
X221515600Y-108471000D02*
X225501600Y-108471000D01*
X225501600Y-108471000D02*
X225908000Y-108877400D01*
D34*
X209913620Y-156271260D02*
X208348980Y-156271260D01*
D33*
X208348980Y-156271260D02*
X208328660Y-156250940D01*
D34*
X219075400Y-145301000D02*
X222047200Y-142329200D01*
X219075400Y-155118100D02*
X219075400Y-145301000D01*
X222047200Y-142329200D02*
X222047200Y-140144800D01*
D33*
X243611900Y-118961300D02*
X245924700Y-121274100D01*
X245924700Y-121274100D02*
X251041900Y-121274100D01*
X243611900Y-117294100D02*
X243611900Y-118961300D01*
X233341400Y-145910600D02*
X234518600Y-145910600D01*
X234518600Y-145910600D02*
X235356800Y-146748800D01*
X222047200Y-140144800D02*
X221793200Y-139890800D01*
D34*
X210685780Y-155499100D02*
X209913620Y-156271260D01*
X218750900Y-155499100D02*
X210685780Y-155499100D01*
X219050000Y-155200000D02*
X218750900Y-155499100D01*
D33*
X254597400Y-105080100D02*
X254597400Y-105359600D01*
X255841900Y-106604100D02*
X255841900Y-107874100D01*
X254597400Y-105359600D02*
X255841900Y-106604100D01*
X257314900Y-108102600D02*
X257111900Y-107899600D01*
X257111900Y-107899600D02*
X255867400Y-107899600D01*
X255867400Y-107899600D02*
X255841900Y-107874100D01*
D34*
X238138100Y-129154200D02*
X239479200Y-129154200D01*
X239479200Y-129154200D02*
X239878000Y-129553000D01*
D33*
X233627300Y-129819700D02*
X237472600Y-129819700D01*
X237472600Y-129819700D02*
X238138100Y-129154200D01*
X240944800Y-164655800D02*
X240944800Y-164655800D01*
D34*
X240944800Y-159169400D02*
X240944800Y-164655800D01*
X244475400Y-155638800D02*
X240944800Y-159169400D01*
X244475400Y-148298200D02*
X244475400Y-155638800D01*
X242799000Y-131813600D02*
X242799000Y-146621800D01*
X240538400Y-129553000D02*
X242799000Y-131813600D01*
X242799000Y-146621800D02*
X244475400Y-148298200D01*
X239878000Y-129553000D02*
X240538400Y-129553000D01*
D35*
X212771440Y-159105900D02*
X213507720Y-159105900D01*
X213507720Y-159105900D02*
X215915640Y-156697980D01*
X213551460Y-158725340D02*
X213551460Y-163226340D01*
X213551460Y-163226340D02*
X216380460Y-166055340D01*
D33*
X238138100Y-136454200D02*
X238138100Y-132703900D01*
X238138100Y-132703900D02*
X238366700Y-132475300D01*
X229066400Y-145910600D02*
X229066400Y-146308200D01*
X229066400Y-146308200D02*
X227508200Y-147866400D01*
X237820600Y-151010900D02*
X237820600Y-152565400D01*
X237820600Y-152565400D02*
X238938200Y-153683000D01*
D35*
X219608800Y-113830400D02*
X219608800Y-122155025D01*
X219989200Y-113450000D02*
X219608800Y-113830400D01*
X222290000Y-113450000D02*
X219989200Y-113450000D01*
X220624800Y-114695200D02*
X220640000Y-114680000D01*
X220624800Y-123335200D02*
X220624800Y-114695200D01*
X218810000Y-125150000D02*
X220624800Y-123335200D01*
X245176400Y-97523600D02*
X246470000Y-96230000D01*
X240106600Y-98166099D02*
X240749099Y-97523600D01*
X240106600Y-100597000D02*
X240106600Y-98166099D01*
X240749099Y-97523600D02*
X245176400Y-97523600D01*
X239580000Y-103560000D02*
X239580000Y-101123600D01*
X239580000Y-101123600D02*
X240106600Y-100597000D01*
X230120000Y-113020000D02*
X239580000Y-103560000D01*
X230120000Y-113070000D02*
X230120000Y-113020000D01*
D36*
X250323566Y-116100707D02*
X250323566Y-114598566D01*
X250323566Y-114598566D02*
X249758600Y-114033600D01*
X236601400Y-114033600D02*
X227051000Y-123584000D01*
X249758600Y-114033600D02*
X236601400Y-114033600D01*
X250323566Y-116935366D02*
X250330100Y-116941900D01*
D35*
X221515600Y-111011000D02*
X216439000Y-111011000D01*
X216439000Y-111011000D02*
X216230000Y-111220000D01*
X235990000Y-103250000D02*
X236230000Y-103010000D01*
X235990000Y-103760000D02*
X235990000Y-103250000D01*
X228739000Y-111011000D02*
X235990000Y-103760000D01*
X221515600Y-111011000D02*
X228739000Y-111011000D01*
X219609000Y-109741000D02*
X219180000Y-110170000D01*
X221515600Y-109741000D02*
X219609000Y-109741000D01*
X233700000Y-104270000D02*
X234740000Y-103230000D01*
X227682900Y-110287100D02*
X233700000Y-104270000D01*
X222061700Y-110287100D02*
X227682900Y-110287100D01*
X221515600Y-109741000D02*
X222061700Y-110287100D01*
X208407400Y-132956600D02*
X216687800Y-141237000D01*
X215990000Y-107797200D02*
X214960600Y-108826600D01*
X208407400Y-120732600D02*
X208407400Y-132956600D01*
X214960600Y-108826600D02*
X214960600Y-114179400D01*
X214960600Y-114179400D02*
X208407400Y-120732600D01*
X215990000Y-98770000D02*
X215990000Y-107797200D01*
X253022400Y-105080100D02*
X253022400Y-106134300D01*
X253022400Y-106134300D02*
X252793900Y-106362800D01*
X253022400Y-105080100D02*
X253022400Y-105105600D01*
X236398200Y-124422200D02*
X236398200Y-117386400D01*
X238671500Y-115113100D02*
X239890700Y-115113100D01*
X236398200Y-117386400D02*
X238671500Y-115113100D01*
X239890700Y-115113100D02*
X239928800Y-115075000D01*
X249010000Y-99429300D02*
X249010000Y-98770000D01*
X225146000Y-134074200D02*
X225146000Y-112789000D01*
X217272000Y-141948200D02*
X225146000Y-134074200D01*
X217272000Y-145478800D02*
X217272000Y-141948200D01*
X205867400Y-133998000D02*
X208763000Y-136893600D01*
X205867400Y-103568800D02*
X205867400Y-133998000D01*
X208886200Y-100550000D02*
X205867400Y-103568800D01*
X214732000Y-99631800D02*
X213813800Y-100550000D01*
X214732000Y-97488000D02*
X214732000Y-99631800D01*
X213813800Y-100550000D02*
X208886200Y-100550000D01*
X215990000Y-96230000D02*
X214732000Y-97488000D01*
X257111900Y-106324600D02*
X257785100Y-106324600D01*
X257785100Y-106324600D02*
X260223400Y-103886300D01*
X255905400Y-116891100D02*
X256476900Y-116891100D01*
X256476900Y-116891100D02*
X259905900Y-113462100D01*
X249441100Y-117119700D02*
X248793300Y-117119700D01*
X248793300Y-117119700D02*
X247624900Y-118288100D01*
X252846100Y-116994100D02*
X252221900Y-116994100D01*
X253771900Y-117919900D02*
X252846100Y-116994100D01*
X253771900Y-118224600D02*
X253771900Y-117919900D01*
X240005000Y-106032600D02*
X235560000Y-110477600D01*
X247523400Y-106032600D02*
X240005000Y-106032600D01*
X235560000Y-110477600D02*
X235560000Y-111468200D01*
X247777400Y-106286600D02*
X247523400Y-106032600D01*
X239664600Y-105575400D02*
X233746400Y-111493600D01*
X233746400Y-111493600D02*
X232994600Y-111493600D01*
X248691800Y-106032600D02*
X248234600Y-105575400D01*
X248234600Y-105575400D02*
X239664600Y-105575400D01*
X248691800Y-106286600D02*
X248691800Y-106032600D01*
X234200000Y-99200000D02*
X233770000Y-98770000D01*
D37*
X280950000Y-113360000D02*
X287170000Y-113360000D01*
X287990000Y-114180000D02*
X287990000Y-116630000D01*
X287170000Y-113360000D02*
X287990000Y-114180000D01*
D35*
X237430000Y-103020000D02*
X237170000Y-103280000D01*
X231000000Y-100700000D02*
X236640000Y-100700000D01*
X229150000Y-97510000D02*
X230040000Y-98400000D01*
X236640000Y-100700000D02*
X237430000Y-101490000D01*
X230040000Y-98400000D02*
X230040000Y-99740000D01*
X237430000Y-101490000D02*
X237430000Y-103020000D01*
X224870000Y-97510000D02*
X229150000Y-97510000D01*
X230040000Y-99740000D02*
X231000000Y-100700000D01*
X223610000Y-98770000D02*
X224870000Y-97510000D01*
X228690000Y-98770000D02*
X228690000Y-100200000D01*
X228690000Y-100200000D02*
X230350000Y-101860000D01*
X230350000Y-101860000D02*
X232240000Y-101860000D01*
X218502250Y-114880000D02*
X219040000Y-114880000D01*
X216937950Y-116444300D02*
X218502250Y-114880000D01*
X216570200Y-116444300D02*
X216937950Y-116444300D01*
D33*
X222971440Y-159105900D02*
X222971440Y-159416100D01*
X222971440Y-159416100D02*
X222148800Y-160238740D01*
X222471060Y-157571740D02*
X222471060Y-159916480D01*
X222471060Y-159916480D02*
X222148800Y-160238740D01*
X222471060Y-157571740D02*
X222077360Y-157965440D01*
X221435060Y-158607740D02*
X222471060Y-157571740D01*
X283753189Y-143700000D02*
X281470251Y-143700000D01*
X287750000Y-137103189D02*
X287750000Y-139703189D01*
X286750000Y-136103189D02*
X287750000Y-137103189D01*
X282350000Y-137703189D02*
X283950000Y-136103189D01*
X275250000Y-137703189D02*
X282350000Y-137703189D01*
X287750000Y-139703189D02*
X283753189Y-143700000D01*
X283950000Y-136103189D02*
X286750000Y-136103189D01*
X274150000Y-138803189D02*
X275250000Y-137703189D01*
X278407062Y-143963189D02*
X278670251Y-143700000D01*
X271250000Y-140803189D02*
X274410000Y-143963189D01*
X274410000Y-143963189D02*
X278407062Y-143963189D01*
X271250000Y-138803189D02*
X271250000Y-140803189D01*
D35*
X213919200Y-127739200D02*
X213919200Y-117742000D01*
X213919200Y-117742000D02*
X214528800Y-117132400D01*
X213930000Y-127750000D02*
X213919200Y-127739200D01*
X216255900Y-114125900D02*
X216980000Y-114850000D01*
X216255900Y-112966800D02*
X216255900Y-114125900D01*
X216255900Y-112966800D02*
X217232700Y-111990000D01*
X217232700Y-111990000D02*
X223240000Y-111990000D01*
X223240000Y-111990000D02*
X223460000Y-112210000D01*
D37*
X289630000Y-120890000D02*
X289630000Y-97630000D01*
X290500000Y-121760000D02*
X289630000Y-120890000D01*
D34*
X268850000Y-142016789D02*
X268116600Y-142750189D01*
X268850000Y-138803189D02*
X268850000Y-142016789D01*
X268116600Y-142750189D02*
X268116600Y-150250189D01*
D35*
X226150000Y-98770000D02*
X224250000Y-100670000D01*
X224250000Y-100670000D02*
X217190000Y-100670000D01*
D37*
X306967200Y-137839600D02*
X307805400Y-137839600D01*
X304145400Y-135017800D02*
X306967200Y-137839600D01*
X304145400Y-133771002D02*
X304145400Y-135017800D01*
M02*
