G04 #@! TF.GenerationSoftware,KiCad,Pcbnew,(5.1.10-1-10_14)*
G04 #@! TF.CreationDate,2022-04-27T11:01:26-07:00*
G04 #@! TF.ProjectId,ulc-mm,756c632d-6d6d-42e6-9b69-6361645f7063,rev?*
G04 #@! TF.SameCoordinates,Original*
G04 #@! TF.FileFunction,Soldermask,Top*
G04 #@! TF.FilePolarity,Negative*
%FSLAX46Y46*%
G04 Gerber Fmt 4.6, Leading zero omitted, Abs format (unit mm)*
G04 Created by KiCad (PCBNEW (5.1.10-1-10_14)) date 2022-04-27 11:01:26*
%MOMM*%
%LPD*%
G01*
G04 APERTURE LIST*
%ADD10O,1.801600X1.801600*%
%ADD11O,0.901600X1.401600*%
%ADD12C,2.901600*%
%ADD13C,0.300200*%
%ADD14C,4.061600*%
%ADD15C,1.701600*%
%ADD16C,1.541600*%
%ADD17C,2.381600*%
%ADD18C,4.091600*%
%ADD19C,2.641600*%
%ADD20C,2.801600*%
%ADD21C,2.362200*%
%ADD22C,0.401600*%
%ADD23C,1.151600*%
%ADD24C,5.501600*%
%ADD25C,6.501600*%
G04 APERTURE END LIST*
G36*
G01*
X215600160Y-167987990D02*
X215600160Y-167424690D01*
G75*
G02*
X215844310Y-167180540I244150J0D01*
G01*
X216332610Y-167180540D01*
G75*
G02*
X216576760Y-167424690I0J-244150D01*
G01*
X216576760Y-167987990D01*
G75*
G02*
X216332610Y-168232140I-244150J0D01*
G01*
X215844310Y-168232140D01*
G75*
G02*
X215600160Y-167987990I0J244150D01*
G01*
G37*
G36*
G01*
X214025160Y-167987990D02*
X214025160Y-167424690D01*
G75*
G02*
X214269310Y-167180540I244150J0D01*
G01*
X214757610Y-167180540D01*
G75*
G02*
X215001760Y-167424690I0J-244150D01*
G01*
X215001760Y-167987990D01*
G75*
G02*
X214757610Y-168232140I-244150J0D01*
G01*
X214269310Y-168232140D01*
G75*
G02*
X214025160Y-167987990I0J244150D01*
G01*
G37*
G36*
G01*
X250141850Y-106190800D02*
X249578550Y-106190800D01*
G75*
G02*
X249334400Y-105946650I0J244150D01*
G01*
X249334400Y-105458350D01*
G75*
G02*
X249578550Y-105214200I244150J0D01*
G01*
X250141850Y-105214200D01*
G75*
G02*
X250386000Y-105458350I0J-244150D01*
G01*
X250386000Y-105946650D01*
G75*
G02*
X250141850Y-106190800I-244150J0D01*
G01*
G37*
G36*
G01*
X250141850Y-104615800D02*
X249578550Y-104615800D01*
G75*
G02*
X249334400Y-104371650I0J244150D01*
G01*
X249334400Y-103883350D01*
G75*
G02*
X249578550Y-103639200I244150J0D01*
G01*
X250141850Y-103639200D01*
G75*
G02*
X250386000Y-103883350I0J-244150D01*
G01*
X250386000Y-104371650D01*
G75*
G02*
X250141850Y-104615800I-244150J0D01*
G01*
G37*
G36*
G01*
X207520000Y-97869200D02*
X209220000Y-97869200D01*
G75*
G02*
X209270800Y-97920000I0J-50800D01*
G01*
X209270800Y-99620000D01*
G75*
G02*
X209220000Y-99670800I-50800J0D01*
G01*
X207520000Y-99670800D01*
G75*
G02*
X207469200Y-99620000I0J50800D01*
G01*
X207469200Y-97920000D01*
G75*
G02*
X207520000Y-97869200I50800J0D01*
G01*
G37*
D10*
X208370000Y-96230000D03*
X210910000Y-98770000D03*
X210910000Y-96230000D03*
X213450000Y-98770000D03*
X213450000Y-96230000D03*
X215990000Y-98770000D03*
X215990000Y-96230000D03*
X218530000Y-98770000D03*
X218530000Y-96230000D03*
X221070000Y-98770000D03*
X221070000Y-96230000D03*
X223610000Y-98770000D03*
X223610000Y-96230000D03*
X226150000Y-98770000D03*
X226150000Y-96230000D03*
X228690000Y-98770000D03*
X228690000Y-96230000D03*
X231230000Y-98770000D03*
X231230000Y-96230000D03*
X233770000Y-98770000D03*
X233770000Y-96230000D03*
X236310000Y-98770000D03*
X236310000Y-96230000D03*
X238850000Y-98770000D03*
X238850000Y-96230000D03*
X241390000Y-98770000D03*
X241390000Y-96230000D03*
X243930000Y-98770000D03*
X243930000Y-96230000D03*
X246470000Y-98770000D03*
X246470000Y-96230000D03*
X249010000Y-98770000D03*
X249010000Y-96230000D03*
X251550000Y-98770000D03*
X251550000Y-96230000D03*
X254090000Y-98770000D03*
X254090000Y-96230000D03*
X256630000Y-98770000D03*
X256630000Y-96230000D03*
D11*
X222305960Y-166581120D03*
G36*
G01*
X224006760Y-166105720D02*
X224006760Y-167056520D01*
G75*
G02*
X223781360Y-167281920I-225400J0D01*
G01*
X223330560Y-167281920D01*
G75*
G02*
X223105160Y-167056520I0J225400D01*
G01*
X223105160Y-166105720D01*
G75*
G02*
X223330560Y-165880320I225400J0D01*
G01*
X223781360Y-165880320D01*
G75*
G02*
X224006760Y-166105720I0J-225400D01*
G01*
G37*
G36*
G01*
X216100000Y-109500800D02*
X215800000Y-109500800D01*
G75*
G02*
X215749200Y-109450000I0J50800D01*
G01*
X215749200Y-108450000D01*
G75*
G02*
X215800000Y-108399200I50800J0D01*
G01*
X216100000Y-108399200D01*
G75*
G02*
X216150800Y-108450000I0J-50800D01*
G01*
X216150800Y-109450000D01*
G75*
G02*
X216100000Y-109500800I-50800J0D01*
G01*
G37*
G36*
G01*
X216600000Y-109500800D02*
X216300000Y-109500800D01*
G75*
G02*
X216249200Y-109450000I0J50800D01*
G01*
X216249200Y-108450000D01*
G75*
G02*
X216300000Y-108399200I50800J0D01*
G01*
X216600000Y-108399200D01*
G75*
G02*
X216650800Y-108450000I0J-50800D01*
G01*
X216650800Y-109450000D01*
G75*
G02*
X216600000Y-109500800I-50800J0D01*
G01*
G37*
G36*
G01*
X217100000Y-109500800D02*
X216800000Y-109500800D01*
G75*
G02*
X216749200Y-109450000I0J50800D01*
G01*
X216749200Y-108450000D01*
G75*
G02*
X216800000Y-108399200I50800J0D01*
G01*
X217100000Y-108399200D01*
G75*
G02*
X217150800Y-108450000I0J-50800D01*
G01*
X217150800Y-109450000D01*
G75*
G02*
X217100000Y-109500800I-50800J0D01*
G01*
G37*
G36*
G01*
X217600000Y-109500800D02*
X217300000Y-109500800D01*
G75*
G02*
X217249200Y-109450000I0J50800D01*
G01*
X217249200Y-108450000D01*
G75*
G02*
X217300000Y-108399200I50800J0D01*
G01*
X217600000Y-108399200D01*
G75*
G02*
X217650800Y-108450000I0J-50800D01*
G01*
X217650800Y-109450000D01*
G75*
G02*
X217600000Y-109500800I-50800J0D01*
G01*
G37*
G36*
G01*
X217600000Y-107200800D02*
X217300000Y-107200800D01*
G75*
G02*
X217249200Y-107150000I0J50800D01*
G01*
X217249200Y-106150000D01*
G75*
G02*
X217300000Y-106099200I50800J0D01*
G01*
X217600000Y-106099200D01*
G75*
G02*
X217650800Y-106150000I0J-50800D01*
G01*
X217650800Y-107150000D01*
G75*
G02*
X217600000Y-107200800I-50800J0D01*
G01*
G37*
G36*
G01*
X217100000Y-107200800D02*
X216800000Y-107200800D01*
G75*
G02*
X216749200Y-107150000I0J50800D01*
G01*
X216749200Y-106150000D01*
G75*
G02*
X216800000Y-106099200I50800J0D01*
G01*
X217100000Y-106099200D01*
G75*
G02*
X217150800Y-106150000I0J-50800D01*
G01*
X217150800Y-107150000D01*
G75*
G02*
X217100000Y-107200800I-50800J0D01*
G01*
G37*
G36*
G01*
X216600000Y-107200800D02*
X216300000Y-107200800D01*
G75*
G02*
X216249200Y-107150000I0J50800D01*
G01*
X216249200Y-106150000D01*
G75*
G02*
X216300000Y-106099200I50800J0D01*
G01*
X216600000Y-106099200D01*
G75*
G02*
X216650800Y-106150000I0J-50800D01*
G01*
X216650800Y-107150000D01*
G75*
G02*
X216600000Y-107200800I-50800J0D01*
G01*
G37*
G36*
G01*
X216100000Y-107200800D02*
X215800000Y-107200800D01*
G75*
G02*
X215749200Y-107150000I0J50800D01*
G01*
X215749200Y-106150000D01*
G75*
G02*
X215800000Y-106099200I50800J0D01*
G01*
X216100000Y-106099200D01*
G75*
G02*
X216150800Y-106150000I0J-50800D01*
G01*
X216150800Y-107150000D01*
G75*
G02*
X216100000Y-107200800I-50800J0D01*
G01*
G37*
G36*
G01*
X217575000Y-108375800D02*
X215825000Y-108375800D01*
G75*
G02*
X215774200Y-108325000I0J50800D01*
G01*
X215774200Y-107275000D01*
G75*
G02*
X215825000Y-107224200I50800J0D01*
G01*
X217575000Y-107224200D01*
G75*
G02*
X217625800Y-107275000I0J-50800D01*
G01*
X217625800Y-108325000D01*
G75*
G02*
X217575000Y-108375800I-50800J0D01*
G01*
G37*
D12*
X228639800Y-166714000D03*
X261036200Y-113043000D03*
X203450000Y-109500000D03*
X234008600Y-166739400D03*
X203450000Y-104650000D03*
X203345180Y-157622540D03*
X239402800Y-166790200D03*
X203329940Y-152705100D03*
G36*
G01*
X227821100Y-133987900D02*
X227821100Y-132927900D01*
G75*
G02*
X227871900Y-132877100I50800J0D01*
G01*
X228931900Y-132877100D01*
G75*
G02*
X228982700Y-132927900I0J-50800D01*
G01*
X228982700Y-133987900D01*
G75*
G02*
X228931900Y-134038700I-50800J0D01*
G01*
X227871900Y-134038700D01*
G75*
G02*
X227821100Y-133987900I0J50800D01*
G01*
G37*
G36*
G01*
X227821100Y-136277900D02*
X227821100Y-135217900D01*
G75*
G02*
X227871900Y-135167100I50800J0D01*
G01*
X228931900Y-135167100D01*
G75*
G02*
X228982700Y-135217900I0J-50800D01*
G01*
X228982700Y-136277900D01*
G75*
G02*
X228931900Y-136328700I-50800J0D01*
G01*
X227871900Y-136328700D01*
G75*
G02*
X227821100Y-136277900I0J50800D01*
G01*
G37*
G36*
G01*
X227821100Y-138567900D02*
X227821100Y-137507900D01*
G75*
G02*
X227871900Y-137457100I50800J0D01*
G01*
X228931900Y-137457100D01*
G75*
G02*
X228982700Y-137507900I0J-50800D01*
G01*
X228982700Y-138567900D01*
G75*
G02*
X228931900Y-138618700I-50800J0D01*
G01*
X227871900Y-138618700D01*
G75*
G02*
X227821100Y-138567900I0J50800D01*
G01*
G37*
G36*
G01*
X227821100Y-140857900D02*
X227821100Y-139797900D01*
G75*
G02*
X227871900Y-139747100I50800J0D01*
G01*
X228931900Y-139747100D01*
G75*
G02*
X228982700Y-139797900I0J-50800D01*
G01*
X228982700Y-140857900D01*
G75*
G02*
X228931900Y-140908700I-50800J0D01*
G01*
X227871900Y-140908700D01*
G75*
G02*
X227821100Y-140857900I0J50800D01*
G01*
G37*
G36*
G01*
X227821100Y-143147900D02*
X227821100Y-142087900D01*
G75*
G02*
X227871900Y-142037100I50800J0D01*
G01*
X228931900Y-142037100D01*
G75*
G02*
X228982700Y-142087900I0J-50800D01*
G01*
X228982700Y-143147900D01*
G75*
G02*
X228931900Y-143198700I-50800J0D01*
G01*
X227871900Y-143198700D01*
G75*
G02*
X227821100Y-143147900I0J50800D01*
G01*
G37*
G36*
G01*
X230111100Y-133987900D02*
X230111100Y-132927900D01*
G75*
G02*
X230161900Y-132877100I50800J0D01*
G01*
X231221900Y-132877100D01*
G75*
G02*
X231272700Y-132927900I0J-50800D01*
G01*
X231272700Y-133987900D01*
G75*
G02*
X231221900Y-134038700I-50800J0D01*
G01*
X230161900Y-134038700D01*
G75*
G02*
X230111100Y-133987900I0J50800D01*
G01*
G37*
G36*
G01*
X230111100Y-136277900D02*
X230111100Y-135217900D01*
G75*
G02*
X230161900Y-135167100I50800J0D01*
G01*
X231221900Y-135167100D01*
G75*
G02*
X231272700Y-135217900I0J-50800D01*
G01*
X231272700Y-136277900D01*
G75*
G02*
X231221900Y-136328700I-50800J0D01*
G01*
X230161900Y-136328700D01*
G75*
G02*
X230111100Y-136277900I0J50800D01*
G01*
G37*
G36*
G01*
X230111100Y-138567900D02*
X230111100Y-137507900D01*
G75*
G02*
X230161900Y-137457100I50800J0D01*
G01*
X231221900Y-137457100D01*
G75*
G02*
X231272700Y-137507900I0J-50800D01*
G01*
X231272700Y-138567900D01*
G75*
G02*
X231221900Y-138618700I-50800J0D01*
G01*
X230161900Y-138618700D01*
G75*
G02*
X230111100Y-138567900I0J50800D01*
G01*
G37*
G36*
G01*
X230111100Y-140857900D02*
X230111100Y-139797900D01*
G75*
G02*
X230161900Y-139747100I50800J0D01*
G01*
X231221900Y-139747100D01*
G75*
G02*
X231272700Y-139797900I0J-50800D01*
G01*
X231272700Y-140857900D01*
G75*
G02*
X231221900Y-140908700I-50800J0D01*
G01*
X230161900Y-140908700D01*
G75*
G02*
X230111100Y-140857900I0J50800D01*
G01*
G37*
G36*
G01*
X230111100Y-143147900D02*
X230111100Y-142087900D01*
G75*
G02*
X230161900Y-142037100I50800J0D01*
G01*
X231221900Y-142037100D01*
G75*
G02*
X231272700Y-142087900I0J-50800D01*
G01*
X231272700Y-143147900D01*
G75*
G02*
X231221900Y-143198700I-50800J0D01*
G01*
X230161900Y-143198700D01*
G75*
G02*
X230111100Y-143147900I0J50800D01*
G01*
G37*
G36*
G01*
X232401100Y-133987900D02*
X232401100Y-132927900D01*
G75*
G02*
X232451900Y-132877100I50800J0D01*
G01*
X233511900Y-132877100D01*
G75*
G02*
X233562700Y-132927900I0J-50800D01*
G01*
X233562700Y-133987900D01*
G75*
G02*
X233511900Y-134038700I-50800J0D01*
G01*
X232451900Y-134038700D01*
G75*
G02*
X232401100Y-133987900I0J50800D01*
G01*
G37*
G36*
G01*
X232401100Y-136277900D02*
X232401100Y-135217900D01*
G75*
G02*
X232451900Y-135167100I50800J0D01*
G01*
X233511900Y-135167100D01*
G75*
G02*
X233562700Y-135217900I0J-50800D01*
G01*
X233562700Y-136277900D01*
G75*
G02*
X233511900Y-136328700I-50800J0D01*
G01*
X232451900Y-136328700D01*
G75*
G02*
X232401100Y-136277900I0J50800D01*
G01*
G37*
G36*
G01*
X232401100Y-138567900D02*
X232401100Y-137507900D01*
G75*
G02*
X232451900Y-137457100I50800J0D01*
G01*
X233511900Y-137457100D01*
G75*
G02*
X233562700Y-137507900I0J-50800D01*
G01*
X233562700Y-138567900D01*
G75*
G02*
X233511900Y-138618700I-50800J0D01*
G01*
X232451900Y-138618700D01*
G75*
G02*
X232401100Y-138567900I0J50800D01*
G01*
G37*
G36*
G01*
X232401100Y-140857900D02*
X232401100Y-139797900D01*
G75*
G02*
X232451900Y-139747100I50800J0D01*
G01*
X233511900Y-139747100D01*
G75*
G02*
X233562700Y-139797900I0J-50800D01*
G01*
X233562700Y-140857900D01*
G75*
G02*
X233511900Y-140908700I-50800J0D01*
G01*
X232451900Y-140908700D01*
G75*
G02*
X232401100Y-140857900I0J50800D01*
G01*
G37*
G36*
G01*
X232401100Y-143147900D02*
X232401100Y-142087900D01*
G75*
G02*
X232451900Y-142037100I50800J0D01*
G01*
X233511900Y-142037100D01*
G75*
G02*
X233562700Y-142087900I0J-50800D01*
G01*
X233562700Y-143147900D01*
G75*
G02*
X233511900Y-143198700I-50800J0D01*
G01*
X232451900Y-143198700D01*
G75*
G02*
X232401100Y-143147900I0J50800D01*
G01*
G37*
G36*
G01*
X234691100Y-133987900D02*
X234691100Y-132927900D01*
G75*
G02*
X234741900Y-132877100I50800J0D01*
G01*
X235801900Y-132877100D01*
G75*
G02*
X235852700Y-132927900I0J-50800D01*
G01*
X235852700Y-133987900D01*
G75*
G02*
X235801900Y-134038700I-50800J0D01*
G01*
X234741900Y-134038700D01*
G75*
G02*
X234691100Y-133987900I0J50800D01*
G01*
G37*
G36*
G01*
X234691100Y-136277900D02*
X234691100Y-135217900D01*
G75*
G02*
X234741900Y-135167100I50800J0D01*
G01*
X235801900Y-135167100D01*
G75*
G02*
X235852700Y-135217900I0J-50800D01*
G01*
X235852700Y-136277900D01*
G75*
G02*
X235801900Y-136328700I-50800J0D01*
G01*
X234741900Y-136328700D01*
G75*
G02*
X234691100Y-136277900I0J50800D01*
G01*
G37*
G36*
G01*
X234691100Y-138567900D02*
X234691100Y-137507900D01*
G75*
G02*
X234741900Y-137457100I50800J0D01*
G01*
X235801900Y-137457100D01*
G75*
G02*
X235852700Y-137507900I0J-50800D01*
G01*
X235852700Y-138567900D01*
G75*
G02*
X235801900Y-138618700I-50800J0D01*
G01*
X234741900Y-138618700D01*
G75*
G02*
X234691100Y-138567900I0J50800D01*
G01*
G37*
G36*
G01*
X234691100Y-140857900D02*
X234691100Y-139797900D01*
G75*
G02*
X234741900Y-139747100I50800J0D01*
G01*
X235801900Y-139747100D01*
G75*
G02*
X235852700Y-139797900I0J-50800D01*
G01*
X235852700Y-140857900D01*
G75*
G02*
X235801900Y-140908700I-50800J0D01*
G01*
X234741900Y-140908700D01*
G75*
G02*
X234691100Y-140857900I0J50800D01*
G01*
G37*
G36*
G01*
X234691100Y-143147900D02*
X234691100Y-142087900D01*
G75*
G02*
X234741900Y-142037100I50800J0D01*
G01*
X235801900Y-142037100D01*
G75*
G02*
X235852700Y-142087900I0J-50800D01*
G01*
X235852700Y-143147900D01*
G75*
G02*
X235801900Y-143198700I-50800J0D01*
G01*
X234741900Y-143198700D01*
G75*
G02*
X234691100Y-143147900I0J50800D01*
G01*
G37*
G36*
G01*
X236981100Y-133987900D02*
X236981100Y-132927900D01*
G75*
G02*
X237031900Y-132877100I50800J0D01*
G01*
X238091900Y-132877100D01*
G75*
G02*
X238142700Y-132927900I0J-50800D01*
G01*
X238142700Y-133987900D01*
G75*
G02*
X238091900Y-134038700I-50800J0D01*
G01*
X237031900Y-134038700D01*
G75*
G02*
X236981100Y-133987900I0J50800D01*
G01*
G37*
G36*
G01*
X236981100Y-136277900D02*
X236981100Y-135217900D01*
G75*
G02*
X237031900Y-135167100I50800J0D01*
G01*
X238091900Y-135167100D01*
G75*
G02*
X238142700Y-135217900I0J-50800D01*
G01*
X238142700Y-136277900D01*
G75*
G02*
X238091900Y-136328700I-50800J0D01*
G01*
X237031900Y-136328700D01*
G75*
G02*
X236981100Y-136277900I0J50800D01*
G01*
G37*
G36*
G01*
X236981100Y-138567900D02*
X236981100Y-137507900D01*
G75*
G02*
X237031900Y-137457100I50800J0D01*
G01*
X238091900Y-137457100D01*
G75*
G02*
X238142700Y-137507900I0J-50800D01*
G01*
X238142700Y-138567900D01*
G75*
G02*
X238091900Y-138618700I-50800J0D01*
G01*
X237031900Y-138618700D01*
G75*
G02*
X236981100Y-138567900I0J50800D01*
G01*
G37*
G36*
G01*
X236981100Y-140857900D02*
X236981100Y-139797900D01*
G75*
G02*
X237031900Y-139747100I50800J0D01*
G01*
X238091900Y-139747100D01*
G75*
G02*
X238142700Y-139797900I0J-50800D01*
G01*
X238142700Y-140857900D01*
G75*
G02*
X238091900Y-140908700I-50800J0D01*
G01*
X237031900Y-140908700D01*
G75*
G02*
X236981100Y-140857900I0J50800D01*
G01*
G37*
G36*
G01*
X236981100Y-143147900D02*
X236981100Y-142087900D01*
G75*
G02*
X237031900Y-142037100I50800J0D01*
G01*
X238091900Y-142037100D01*
G75*
G02*
X238142700Y-142087900I0J-50800D01*
G01*
X238142700Y-143147900D01*
G75*
G02*
X238091900Y-143198700I-50800J0D01*
G01*
X237031900Y-143198700D01*
G75*
G02*
X236981100Y-143147900I0J50800D01*
G01*
G37*
G36*
G01*
X236854100Y-160215400D02*
X236854100Y-159155400D01*
G75*
G02*
X236904900Y-159104600I50800J0D01*
G01*
X237964900Y-159104600D01*
G75*
G02*
X238015700Y-159155400I0J-50800D01*
G01*
X238015700Y-160215400D01*
G75*
G02*
X237964900Y-160266200I-50800J0D01*
G01*
X236904900Y-160266200D01*
G75*
G02*
X236854100Y-160215400I0J50800D01*
G01*
G37*
G36*
G01*
X236854100Y-157925400D02*
X236854100Y-156865400D01*
G75*
G02*
X236904900Y-156814600I50800J0D01*
G01*
X237964900Y-156814600D01*
G75*
G02*
X238015700Y-156865400I0J-50800D01*
G01*
X238015700Y-157925400D01*
G75*
G02*
X237964900Y-157976200I-50800J0D01*
G01*
X236904900Y-157976200D01*
G75*
G02*
X236854100Y-157925400I0J50800D01*
G01*
G37*
G36*
G01*
X236854100Y-155635400D02*
X236854100Y-154575400D01*
G75*
G02*
X236904900Y-154524600I50800J0D01*
G01*
X237964900Y-154524600D01*
G75*
G02*
X238015700Y-154575400I0J-50800D01*
G01*
X238015700Y-155635400D01*
G75*
G02*
X237964900Y-155686200I-50800J0D01*
G01*
X236904900Y-155686200D01*
G75*
G02*
X236854100Y-155635400I0J50800D01*
G01*
G37*
G36*
G01*
X236854100Y-153345400D02*
X236854100Y-152285400D01*
G75*
G02*
X236904900Y-152234600I50800J0D01*
G01*
X237964900Y-152234600D01*
G75*
G02*
X238015700Y-152285400I0J-50800D01*
G01*
X238015700Y-153345400D01*
G75*
G02*
X237964900Y-153396200I-50800J0D01*
G01*
X236904900Y-153396200D01*
G75*
G02*
X236854100Y-153345400I0J50800D01*
G01*
G37*
G36*
G01*
X236854100Y-151055400D02*
X236854100Y-149995400D01*
G75*
G02*
X236904900Y-149944600I50800J0D01*
G01*
X237964900Y-149944600D01*
G75*
G02*
X238015700Y-149995400I0J-50800D01*
G01*
X238015700Y-151055400D01*
G75*
G02*
X237964900Y-151106200I-50800J0D01*
G01*
X236904900Y-151106200D01*
G75*
G02*
X236854100Y-151055400I0J50800D01*
G01*
G37*
G36*
G01*
X234564100Y-160215400D02*
X234564100Y-159155400D01*
G75*
G02*
X234614900Y-159104600I50800J0D01*
G01*
X235674900Y-159104600D01*
G75*
G02*
X235725700Y-159155400I0J-50800D01*
G01*
X235725700Y-160215400D01*
G75*
G02*
X235674900Y-160266200I-50800J0D01*
G01*
X234614900Y-160266200D01*
G75*
G02*
X234564100Y-160215400I0J50800D01*
G01*
G37*
G36*
G01*
X234564100Y-157925400D02*
X234564100Y-156865400D01*
G75*
G02*
X234614900Y-156814600I50800J0D01*
G01*
X235674900Y-156814600D01*
G75*
G02*
X235725700Y-156865400I0J-50800D01*
G01*
X235725700Y-157925400D01*
G75*
G02*
X235674900Y-157976200I-50800J0D01*
G01*
X234614900Y-157976200D01*
G75*
G02*
X234564100Y-157925400I0J50800D01*
G01*
G37*
G36*
G01*
X234564100Y-155635400D02*
X234564100Y-154575400D01*
G75*
G02*
X234614900Y-154524600I50800J0D01*
G01*
X235674900Y-154524600D01*
G75*
G02*
X235725700Y-154575400I0J-50800D01*
G01*
X235725700Y-155635400D01*
G75*
G02*
X235674900Y-155686200I-50800J0D01*
G01*
X234614900Y-155686200D01*
G75*
G02*
X234564100Y-155635400I0J50800D01*
G01*
G37*
G36*
G01*
X234564100Y-153345400D02*
X234564100Y-152285400D01*
G75*
G02*
X234614900Y-152234600I50800J0D01*
G01*
X235674900Y-152234600D01*
G75*
G02*
X235725700Y-152285400I0J-50800D01*
G01*
X235725700Y-153345400D01*
G75*
G02*
X235674900Y-153396200I-50800J0D01*
G01*
X234614900Y-153396200D01*
G75*
G02*
X234564100Y-153345400I0J50800D01*
G01*
G37*
G36*
G01*
X234564100Y-151055400D02*
X234564100Y-149995400D01*
G75*
G02*
X234614900Y-149944600I50800J0D01*
G01*
X235674900Y-149944600D01*
G75*
G02*
X235725700Y-149995400I0J-50800D01*
G01*
X235725700Y-151055400D01*
G75*
G02*
X235674900Y-151106200I-50800J0D01*
G01*
X234614900Y-151106200D01*
G75*
G02*
X234564100Y-151055400I0J50800D01*
G01*
G37*
G36*
G01*
X232274100Y-160215400D02*
X232274100Y-159155400D01*
G75*
G02*
X232324900Y-159104600I50800J0D01*
G01*
X233384900Y-159104600D01*
G75*
G02*
X233435700Y-159155400I0J-50800D01*
G01*
X233435700Y-160215400D01*
G75*
G02*
X233384900Y-160266200I-50800J0D01*
G01*
X232324900Y-160266200D01*
G75*
G02*
X232274100Y-160215400I0J50800D01*
G01*
G37*
G36*
G01*
X232274100Y-157925400D02*
X232274100Y-156865400D01*
G75*
G02*
X232324900Y-156814600I50800J0D01*
G01*
X233384900Y-156814600D01*
G75*
G02*
X233435700Y-156865400I0J-50800D01*
G01*
X233435700Y-157925400D01*
G75*
G02*
X233384900Y-157976200I-50800J0D01*
G01*
X232324900Y-157976200D01*
G75*
G02*
X232274100Y-157925400I0J50800D01*
G01*
G37*
G36*
G01*
X232274100Y-155635400D02*
X232274100Y-154575400D01*
G75*
G02*
X232324900Y-154524600I50800J0D01*
G01*
X233384900Y-154524600D01*
G75*
G02*
X233435700Y-154575400I0J-50800D01*
G01*
X233435700Y-155635400D01*
G75*
G02*
X233384900Y-155686200I-50800J0D01*
G01*
X232324900Y-155686200D01*
G75*
G02*
X232274100Y-155635400I0J50800D01*
G01*
G37*
G36*
G01*
X232274100Y-153345400D02*
X232274100Y-152285400D01*
G75*
G02*
X232324900Y-152234600I50800J0D01*
G01*
X233384900Y-152234600D01*
G75*
G02*
X233435700Y-152285400I0J-50800D01*
G01*
X233435700Y-153345400D01*
G75*
G02*
X233384900Y-153396200I-50800J0D01*
G01*
X232324900Y-153396200D01*
G75*
G02*
X232274100Y-153345400I0J50800D01*
G01*
G37*
G36*
G01*
X232274100Y-151055400D02*
X232274100Y-149995400D01*
G75*
G02*
X232324900Y-149944600I50800J0D01*
G01*
X233384900Y-149944600D01*
G75*
G02*
X233435700Y-149995400I0J-50800D01*
G01*
X233435700Y-151055400D01*
G75*
G02*
X233384900Y-151106200I-50800J0D01*
G01*
X232324900Y-151106200D01*
G75*
G02*
X232274100Y-151055400I0J50800D01*
G01*
G37*
G36*
G01*
X229984100Y-160215400D02*
X229984100Y-159155400D01*
G75*
G02*
X230034900Y-159104600I50800J0D01*
G01*
X231094900Y-159104600D01*
G75*
G02*
X231145700Y-159155400I0J-50800D01*
G01*
X231145700Y-160215400D01*
G75*
G02*
X231094900Y-160266200I-50800J0D01*
G01*
X230034900Y-160266200D01*
G75*
G02*
X229984100Y-160215400I0J50800D01*
G01*
G37*
G36*
G01*
X229984100Y-157925400D02*
X229984100Y-156865400D01*
G75*
G02*
X230034900Y-156814600I50800J0D01*
G01*
X231094900Y-156814600D01*
G75*
G02*
X231145700Y-156865400I0J-50800D01*
G01*
X231145700Y-157925400D01*
G75*
G02*
X231094900Y-157976200I-50800J0D01*
G01*
X230034900Y-157976200D01*
G75*
G02*
X229984100Y-157925400I0J50800D01*
G01*
G37*
G36*
G01*
X229984100Y-155635400D02*
X229984100Y-154575400D01*
G75*
G02*
X230034900Y-154524600I50800J0D01*
G01*
X231094900Y-154524600D01*
G75*
G02*
X231145700Y-154575400I0J-50800D01*
G01*
X231145700Y-155635400D01*
G75*
G02*
X231094900Y-155686200I-50800J0D01*
G01*
X230034900Y-155686200D01*
G75*
G02*
X229984100Y-155635400I0J50800D01*
G01*
G37*
G36*
G01*
X229984100Y-153345400D02*
X229984100Y-152285400D01*
G75*
G02*
X230034900Y-152234600I50800J0D01*
G01*
X231094900Y-152234600D01*
G75*
G02*
X231145700Y-152285400I0J-50800D01*
G01*
X231145700Y-153345400D01*
G75*
G02*
X231094900Y-153396200I-50800J0D01*
G01*
X230034900Y-153396200D01*
G75*
G02*
X229984100Y-153345400I0J50800D01*
G01*
G37*
G36*
G01*
X229984100Y-151055400D02*
X229984100Y-149995400D01*
G75*
G02*
X230034900Y-149944600I50800J0D01*
G01*
X231094900Y-149944600D01*
G75*
G02*
X231145700Y-149995400I0J-50800D01*
G01*
X231145700Y-151055400D01*
G75*
G02*
X231094900Y-151106200I-50800J0D01*
G01*
X230034900Y-151106200D01*
G75*
G02*
X229984100Y-151055400I0J50800D01*
G01*
G37*
G36*
G01*
X227694100Y-160215400D02*
X227694100Y-159155400D01*
G75*
G02*
X227744900Y-159104600I50800J0D01*
G01*
X228804900Y-159104600D01*
G75*
G02*
X228855700Y-159155400I0J-50800D01*
G01*
X228855700Y-160215400D01*
G75*
G02*
X228804900Y-160266200I-50800J0D01*
G01*
X227744900Y-160266200D01*
G75*
G02*
X227694100Y-160215400I0J50800D01*
G01*
G37*
G36*
G01*
X227694100Y-157925400D02*
X227694100Y-156865400D01*
G75*
G02*
X227744900Y-156814600I50800J0D01*
G01*
X228804900Y-156814600D01*
G75*
G02*
X228855700Y-156865400I0J-50800D01*
G01*
X228855700Y-157925400D01*
G75*
G02*
X228804900Y-157976200I-50800J0D01*
G01*
X227744900Y-157976200D01*
G75*
G02*
X227694100Y-157925400I0J50800D01*
G01*
G37*
G36*
G01*
X227694100Y-155635400D02*
X227694100Y-154575400D01*
G75*
G02*
X227744900Y-154524600I50800J0D01*
G01*
X228804900Y-154524600D01*
G75*
G02*
X228855700Y-154575400I0J-50800D01*
G01*
X228855700Y-155635400D01*
G75*
G02*
X228804900Y-155686200I-50800J0D01*
G01*
X227744900Y-155686200D01*
G75*
G02*
X227694100Y-155635400I0J50800D01*
G01*
G37*
G36*
G01*
X227694100Y-153345400D02*
X227694100Y-152285400D01*
G75*
G02*
X227744900Y-152234600I50800J0D01*
G01*
X228804900Y-152234600D01*
G75*
G02*
X228855700Y-152285400I0J-50800D01*
G01*
X228855700Y-153345400D01*
G75*
G02*
X228804900Y-153396200I-50800J0D01*
G01*
X227744900Y-153396200D01*
G75*
G02*
X227694100Y-153345400I0J50800D01*
G01*
G37*
G36*
G01*
X227694100Y-151055400D02*
X227694100Y-149995400D01*
G75*
G02*
X227744900Y-149944600I50800J0D01*
G01*
X228804900Y-149944600D01*
G75*
G02*
X228855700Y-149995400I0J-50800D01*
G01*
X228855700Y-151055400D01*
G75*
G02*
X228804900Y-151106200I-50800J0D01*
G01*
X227744900Y-151106200D01*
G75*
G02*
X227694100Y-151055400I0J50800D01*
G01*
G37*
G36*
G01*
X213876460Y-160194540D02*
X214526460Y-160194540D01*
G75*
G02*
X214577260Y-160245340I0J-50800D01*
G01*
X214577260Y-161305340D01*
G75*
G02*
X214526460Y-161356140I-50800J0D01*
G01*
X213876460Y-161356140D01*
G75*
G02*
X213825660Y-161305340I0J50800D01*
G01*
X213825660Y-160245340D01*
G75*
G02*
X213876460Y-160194540I50800J0D01*
G01*
G37*
G36*
G01*
X212926460Y-160194540D02*
X213576460Y-160194540D01*
G75*
G02*
X213627260Y-160245340I0J-50800D01*
G01*
X213627260Y-161305340D01*
G75*
G02*
X213576460Y-161356140I-50800J0D01*
G01*
X212926460Y-161356140D01*
G75*
G02*
X212875660Y-161305340I0J50800D01*
G01*
X212875660Y-160245340D01*
G75*
G02*
X212926460Y-160194540I50800J0D01*
G01*
G37*
G36*
G01*
X211976460Y-160194540D02*
X212626460Y-160194540D01*
G75*
G02*
X212677260Y-160245340I0J-50800D01*
G01*
X212677260Y-161305340D01*
G75*
G02*
X212626460Y-161356140I-50800J0D01*
G01*
X211976460Y-161356140D01*
G75*
G02*
X211925660Y-161305340I0J50800D01*
G01*
X211925660Y-160245340D01*
G75*
G02*
X211976460Y-160194540I50800J0D01*
G01*
G37*
G36*
G01*
X211976460Y-162394540D02*
X212626460Y-162394540D01*
G75*
G02*
X212677260Y-162445340I0J-50800D01*
G01*
X212677260Y-163505340D01*
G75*
G02*
X212626460Y-163556140I-50800J0D01*
G01*
X211976460Y-163556140D01*
G75*
G02*
X211925660Y-163505340I0J50800D01*
G01*
X211925660Y-162445340D01*
G75*
G02*
X211976460Y-162394540I50800J0D01*
G01*
G37*
G36*
G01*
X213876460Y-162394540D02*
X214526460Y-162394540D01*
G75*
G02*
X214577260Y-162445340I0J-50800D01*
G01*
X214577260Y-163505340D01*
G75*
G02*
X214526460Y-163556140I-50800J0D01*
G01*
X213876460Y-163556140D01*
G75*
G02*
X213825660Y-163505340I0J50800D01*
G01*
X213825660Y-162445340D01*
G75*
G02*
X213876460Y-162394540I50800J0D01*
G01*
G37*
G36*
G01*
X212926460Y-162394540D02*
X213576460Y-162394540D01*
G75*
G02*
X213627260Y-162445340I0J-50800D01*
G01*
X213627260Y-163505340D01*
G75*
G02*
X213576460Y-163556140I-50800J0D01*
G01*
X212926460Y-163556140D01*
G75*
G02*
X212875660Y-163505340I0J50800D01*
G01*
X212875660Y-162445340D01*
G75*
G02*
X212926460Y-162394540I50800J0D01*
G01*
G37*
G36*
G01*
X233120300Y-125523300D02*
X233120300Y-126223300D01*
G75*
G02*
X233069500Y-126274100I-50800J0D01*
G01*
X232619500Y-126274100D01*
G75*
G02*
X232568700Y-126223300I0J50800D01*
G01*
X232568700Y-125523300D01*
G75*
G02*
X232619500Y-125472500I50800J0D01*
G01*
X233069500Y-125472500D01*
G75*
G02*
X233120300Y-125523300I0J-50800D01*
G01*
G37*
G36*
G01*
X231820300Y-125523300D02*
X231820300Y-126223300D01*
G75*
G02*
X231769500Y-126274100I-50800J0D01*
G01*
X231319500Y-126274100D01*
G75*
G02*
X231268700Y-126223300I0J50800D01*
G01*
X231268700Y-125523300D01*
G75*
G02*
X231319500Y-125472500I50800J0D01*
G01*
X231769500Y-125472500D01*
G75*
G02*
X231820300Y-125523300I0J-50800D01*
G01*
G37*
G36*
G01*
X232470300Y-127523300D02*
X232470300Y-128223300D01*
G75*
G02*
X232419500Y-128274100I-50800J0D01*
G01*
X231969500Y-128274100D01*
G75*
G02*
X231918700Y-128223300I0J50800D01*
G01*
X231918700Y-127523300D01*
G75*
G02*
X231969500Y-127472500I50800J0D01*
G01*
X232419500Y-127472500D01*
G75*
G02*
X232470300Y-127523300I0J-50800D01*
G01*
G37*
G36*
G01*
X213258100Y-122058300D02*
X213258100Y-122798300D01*
G75*
G02*
X213207300Y-122849100I-50800J0D01*
G01*
X210807300Y-122849100D01*
G75*
G02*
X210756500Y-122798300I0J50800D01*
G01*
X210756500Y-122058300D01*
G75*
G02*
X210807300Y-122007500I50800J0D01*
G01*
X213207300Y-122007500D01*
G75*
G02*
X213258100Y-122058300I0J-50800D01*
G01*
G37*
G36*
G01*
X217158100Y-122058300D02*
X217158100Y-122798300D01*
G75*
G02*
X217107300Y-122849100I-50800J0D01*
G01*
X214707300Y-122849100D01*
G75*
G02*
X214656500Y-122798300I0J50800D01*
G01*
X214656500Y-122058300D01*
G75*
G02*
X214707300Y-122007500I50800J0D01*
G01*
X217107300Y-122007500D01*
G75*
G02*
X217158100Y-122058300I0J-50800D01*
G01*
G37*
G36*
G01*
X213258100Y-123328300D02*
X213258100Y-124068300D01*
G75*
G02*
X213207300Y-124119100I-50800J0D01*
G01*
X210807300Y-124119100D01*
G75*
G02*
X210756500Y-124068300I0J50800D01*
G01*
X210756500Y-123328300D01*
G75*
G02*
X210807300Y-123277500I50800J0D01*
G01*
X213207300Y-123277500D01*
G75*
G02*
X213258100Y-123328300I0J-50800D01*
G01*
G37*
G36*
G01*
X217158100Y-123328300D02*
X217158100Y-124068300D01*
G75*
G02*
X217107300Y-124119100I-50800J0D01*
G01*
X214707300Y-124119100D01*
G75*
G02*
X214656500Y-124068300I0J50800D01*
G01*
X214656500Y-123328300D01*
G75*
G02*
X214707300Y-123277500I50800J0D01*
G01*
X217107300Y-123277500D01*
G75*
G02*
X217158100Y-123328300I0J-50800D01*
G01*
G37*
G36*
G01*
X213258100Y-124598300D02*
X213258100Y-125338300D01*
G75*
G02*
X213207300Y-125389100I-50800J0D01*
G01*
X210807300Y-125389100D01*
G75*
G02*
X210756500Y-125338300I0J50800D01*
G01*
X210756500Y-124598300D01*
G75*
G02*
X210807300Y-124547500I50800J0D01*
G01*
X213207300Y-124547500D01*
G75*
G02*
X213258100Y-124598300I0J-50800D01*
G01*
G37*
G36*
G01*
X217158100Y-124598300D02*
X217158100Y-125338300D01*
G75*
G02*
X217107300Y-125389100I-50800J0D01*
G01*
X214707300Y-125389100D01*
G75*
G02*
X214656500Y-125338300I0J50800D01*
G01*
X214656500Y-124598300D01*
G75*
G02*
X214707300Y-124547500I50800J0D01*
G01*
X217107300Y-124547500D01*
G75*
G02*
X217158100Y-124598300I0J-50800D01*
G01*
G37*
G36*
G01*
X213258100Y-125868300D02*
X213258100Y-126608300D01*
G75*
G02*
X213207300Y-126659100I-50800J0D01*
G01*
X210807300Y-126659100D01*
G75*
G02*
X210756500Y-126608300I0J50800D01*
G01*
X210756500Y-125868300D01*
G75*
G02*
X210807300Y-125817500I50800J0D01*
G01*
X213207300Y-125817500D01*
G75*
G02*
X213258100Y-125868300I0J-50800D01*
G01*
G37*
G36*
G01*
X217158100Y-125868300D02*
X217158100Y-126608300D01*
G75*
G02*
X217107300Y-126659100I-50800J0D01*
G01*
X214707300Y-126659100D01*
G75*
G02*
X214656500Y-126608300I0J50800D01*
G01*
X214656500Y-125868300D01*
G75*
G02*
X214707300Y-125817500I50800J0D01*
G01*
X217107300Y-125817500D01*
G75*
G02*
X217158100Y-125868300I0J-50800D01*
G01*
G37*
G36*
G01*
X213258100Y-127138300D02*
X213258100Y-127878300D01*
G75*
G02*
X213207300Y-127929100I-50800J0D01*
G01*
X210807300Y-127929100D01*
G75*
G02*
X210756500Y-127878300I0J50800D01*
G01*
X210756500Y-127138300D01*
G75*
G02*
X210807300Y-127087500I50800J0D01*
G01*
X213207300Y-127087500D01*
G75*
G02*
X213258100Y-127138300I0J-50800D01*
G01*
G37*
G36*
G01*
X217158100Y-127138300D02*
X217158100Y-127878300D01*
G75*
G02*
X217107300Y-127929100I-50800J0D01*
G01*
X214707300Y-127929100D01*
G75*
G02*
X214656500Y-127878300I0J50800D01*
G01*
X214656500Y-127138300D01*
G75*
G02*
X214707300Y-127087500I50800J0D01*
G01*
X217107300Y-127087500D01*
G75*
G02*
X217158100Y-127138300I0J-50800D01*
G01*
G37*
G36*
G01*
X213258100Y-128408300D02*
X213258100Y-129148300D01*
G75*
G02*
X213207300Y-129199100I-50800J0D01*
G01*
X210807300Y-129199100D01*
G75*
G02*
X210756500Y-129148300I0J50800D01*
G01*
X210756500Y-128408300D01*
G75*
G02*
X210807300Y-128357500I50800J0D01*
G01*
X213207300Y-128357500D01*
G75*
G02*
X213258100Y-128408300I0J-50800D01*
G01*
G37*
G36*
G01*
X217158100Y-128408300D02*
X217158100Y-129148300D01*
G75*
G02*
X217107300Y-129199100I-50800J0D01*
G01*
X214707300Y-129199100D01*
G75*
G02*
X214656500Y-129148300I0J50800D01*
G01*
X214656500Y-128408300D01*
G75*
G02*
X214707300Y-128357500I50800J0D01*
G01*
X217107300Y-128357500D01*
G75*
G02*
X217158100Y-128408300I0J-50800D01*
G01*
G37*
G36*
G01*
X213258100Y-129678300D02*
X213258100Y-130418300D01*
G75*
G02*
X213207300Y-130469100I-50800J0D01*
G01*
X210807300Y-130469100D01*
G75*
G02*
X210756500Y-130418300I0J50800D01*
G01*
X210756500Y-129678300D01*
G75*
G02*
X210807300Y-129627500I50800J0D01*
G01*
X213207300Y-129627500D01*
G75*
G02*
X213258100Y-129678300I0J-50800D01*
G01*
G37*
G36*
G01*
X217158100Y-129678300D02*
X217158100Y-130418300D01*
G75*
G02*
X217107300Y-130469100I-50800J0D01*
G01*
X214707300Y-130469100D01*
G75*
G02*
X214656500Y-130418300I0J50800D01*
G01*
X214656500Y-129678300D01*
G75*
G02*
X214707300Y-129627500I50800J0D01*
G01*
X217107300Y-129627500D01*
G75*
G02*
X217158100Y-129678300I0J-50800D01*
G01*
G37*
G36*
G01*
X213258100Y-130948300D02*
X213258100Y-131688300D01*
G75*
G02*
X213207300Y-131739100I-50800J0D01*
G01*
X210807300Y-131739100D01*
G75*
G02*
X210756500Y-131688300I0J50800D01*
G01*
X210756500Y-130948300D01*
G75*
G02*
X210807300Y-130897500I50800J0D01*
G01*
X213207300Y-130897500D01*
G75*
G02*
X213258100Y-130948300I0J-50800D01*
G01*
G37*
G36*
G01*
X217158100Y-130948300D02*
X217158100Y-131688300D01*
G75*
G02*
X217107300Y-131739100I-50800J0D01*
G01*
X214707300Y-131739100D01*
G75*
G02*
X214656500Y-131688300I0J50800D01*
G01*
X214656500Y-130948300D01*
G75*
G02*
X214707300Y-130897500I50800J0D01*
G01*
X217107300Y-130897500D01*
G75*
G02*
X217158100Y-130948300I0J-50800D01*
G01*
G37*
G36*
G01*
X226968500Y-129533100D02*
X226968500Y-128582300D01*
G75*
G02*
X227193900Y-128356900I225400J0D01*
G01*
X227644700Y-128356900D01*
G75*
G02*
X227870100Y-128582300I0J-225400D01*
G01*
X227870100Y-129533100D01*
G75*
G02*
X227644700Y-129758500I-225400J0D01*
G01*
X227193900Y-129758500D01*
G75*
G02*
X226968500Y-129533100I0J225400D01*
G01*
G37*
D11*
X228669300Y-129057700D03*
G36*
G01*
X246120900Y-114404100D02*
X246120900Y-112804100D01*
G75*
G02*
X246190900Y-112734100I70000J0D01*
G01*
X246490900Y-112734100D01*
G75*
G02*
X246560900Y-112804100I0J-70000D01*
G01*
X246560900Y-114404100D01*
G75*
G02*
X246490900Y-114474100I-70000J0D01*
G01*
X246190900Y-114474100D01*
G75*
G02*
X246120900Y-114404100I0J70000D01*
G01*
G37*
G36*
G01*
X246770900Y-114404100D02*
X246770900Y-112804100D01*
G75*
G02*
X246840900Y-112734100I70000J0D01*
G01*
X247140900Y-112734100D01*
G75*
G02*
X247210900Y-112804100I0J-70000D01*
G01*
X247210900Y-114404100D01*
G75*
G02*
X247140900Y-114474100I-70000J0D01*
G01*
X246840900Y-114474100D01*
G75*
G02*
X246770900Y-114404100I0J70000D01*
G01*
G37*
G36*
G01*
X247420900Y-114404100D02*
X247420900Y-112804100D01*
G75*
G02*
X247490900Y-112734100I70000J0D01*
G01*
X247790900Y-112734100D01*
G75*
G02*
X247860900Y-112804100I0J-70000D01*
G01*
X247860900Y-114404100D01*
G75*
G02*
X247790900Y-114474100I-70000J0D01*
G01*
X247490900Y-114474100D01*
G75*
G02*
X247420900Y-114404100I0J70000D01*
G01*
G37*
G36*
G01*
X248070900Y-114404100D02*
X248070900Y-112804100D01*
G75*
G02*
X248140900Y-112734100I70000J0D01*
G01*
X248440900Y-112734100D01*
G75*
G02*
X248510900Y-112804100I0J-70000D01*
G01*
X248510900Y-114404100D01*
G75*
G02*
X248440900Y-114474100I-70000J0D01*
G01*
X248140900Y-114474100D01*
G75*
G02*
X248070900Y-114404100I0J70000D01*
G01*
G37*
G36*
G01*
X248720900Y-114404100D02*
X248720900Y-112804100D01*
G75*
G02*
X248790900Y-112734100I70000J0D01*
G01*
X249090900Y-112734100D01*
G75*
G02*
X249160900Y-112804100I0J-70000D01*
G01*
X249160900Y-114404100D01*
G75*
G02*
X249090900Y-114474100I-70000J0D01*
G01*
X248790900Y-114474100D01*
G75*
G02*
X248720900Y-114404100I0J70000D01*
G01*
G37*
G36*
G01*
X249370900Y-114404100D02*
X249370900Y-112804100D01*
G75*
G02*
X249440900Y-112734100I70000J0D01*
G01*
X249740900Y-112734100D01*
G75*
G02*
X249810900Y-112804100I0J-70000D01*
G01*
X249810900Y-114404100D01*
G75*
G02*
X249740900Y-114474100I-70000J0D01*
G01*
X249440900Y-114474100D01*
G75*
G02*
X249370900Y-114404100I0J70000D01*
G01*
G37*
G36*
G01*
X250020900Y-114404100D02*
X250020900Y-112804100D01*
G75*
G02*
X250090900Y-112734100I70000J0D01*
G01*
X250390900Y-112734100D01*
G75*
G02*
X250460900Y-112804100I0J-70000D01*
G01*
X250460900Y-114404100D01*
G75*
G02*
X250390900Y-114474100I-70000J0D01*
G01*
X250090900Y-114474100D01*
G75*
G02*
X250020900Y-114404100I0J70000D01*
G01*
G37*
G36*
G01*
X250670900Y-114404100D02*
X250670900Y-112804100D01*
G75*
G02*
X250740900Y-112734100I70000J0D01*
G01*
X251040900Y-112734100D01*
G75*
G02*
X251110900Y-112804100I0J-70000D01*
G01*
X251110900Y-114404100D01*
G75*
G02*
X251040900Y-114474100I-70000J0D01*
G01*
X250740900Y-114474100D01*
G75*
G02*
X250670900Y-114404100I0J70000D01*
G01*
G37*
G36*
G01*
X251320900Y-114404100D02*
X251320900Y-112804100D01*
G75*
G02*
X251390900Y-112734100I70000J0D01*
G01*
X251690900Y-112734100D01*
G75*
G02*
X251760900Y-112804100I0J-70000D01*
G01*
X251760900Y-114404100D01*
G75*
G02*
X251690900Y-114474100I-70000J0D01*
G01*
X251390900Y-114474100D01*
G75*
G02*
X251320900Y-114404100I0J70000D01*
G01*
G37*
G36*
G01*
X251970900Y-114404100D02*
X251970900Y-112804100D01*
G75*
G02*
X252040900Y-112734100I70000J0D01*
G01*
X252340900Y-112734100D01*
G75*
G02*
X252410900Y-112804100I0J-70000D01*
G01*
X252410900Y-114404100D01*
G75*
G02*
X252340900Y-114474100I-70000J0D01*
G01*
X252040900Y-114474100D01*
G75*
G02*
X251970900Y-114404100I0J70000D01*
G01*
G37*
G36*
G01*
X252620900Y-114404100D02*
X252620900Y-112804100D01*
G75*
G02*
X252690900Y-112734100I70000J0D01*
G01*
X252990900Y-112734100D01*
G75*
G02*
X253060900Y-112804100I0J-70000D01*
G01*
X253060900Y-114404100D01*
G75*
G02*
X252990900Y-114474100I-70000J0D01*
G01*
X252690900Y-114474100D01*
G75*
G02*
X252620900Y-114404100I0J70000D01*
G01*
G37*
G36*
G01*
X253270900Y-114404100D02*
X253270900Y-112804100D01*
G75*
G02*
X253340900Y-112734100I70000J0D01*
G01*
X253640900Y-112734100D01*
G75*
G02*
X253710900Y-112804100I0J-70000D01*
G01*
X253710900Y-114404100D01*
G75*
G02*
X253640900Y-114474100I-70000J0D01*
G01*
X253340900Y-114474100D01*
G75*
G02*
X253270900Y-114404100I0J70000D01*
G01*
G37*
G36*
G01*
X253920900Y-114404100D02*
X253920900Y-112804100D01*
G75*
G02*
X253990900Y-112734100I70000J0D01*
G01*
X254290900Y-112734100D01*
G75*
G02*
X254360900Y-112804100I0J-70000D01*
G01*
X254360900Y-114404100D01*
G75*
G02*
X254290900Y-114474100I-70000J0D01*
G01*
X253990900Y-114474100D01*
G75*
G02*
X253920900Y-114404100I0J70000D01*
G01*
G37*
G36*
G01*
X254570900Y-114404100D02*
X254570900Y-112804100D01*
G75*
G02*
X254640900Y-112734100I70000J0D01*
G01*
X254940900Y-112734100D01*
G75*
G02*
X255010900Y-112804100I0J-70000D01*
G01*
X255010900Y-114404100D01*
G75*
G02*
X254940900Y-114474100I-70000J0D01*
G01*
X254640900Y-114474100D01*
G75*
G02*
X254570900Y-114404100I0J70000D01*
G01*
G37*
G36*
G01*
X254570900Y-108804100D02*
X254570900Y-107204100D01*
G75*
G02*
X254640900Y-107134100I70000J0D01*
G01*
X254940900Y-107134100D01*
G75*
G02*
X255010900Y-107204100I0J-70000D01*
G01*
X255010900Y-108804100D01*
G75*
G02*
X254940900Y-108874100I-70000J0D01*
G01*
X254640900Y-108874100D01*
G75*
G02*
X254570900Y-108804100I0J70000D01*
G01*
G37*
G36*
G01*
X253920900Y-108804100D02*
X253920900Y-107204100D01*
G75*
G02*
X253990900Y-107134100I70000J0D01*
G01*
X254290900Y-107134100D01*
G75*
G02*
X254360900Y-107204100I0J-70000D01*
G01*
X254360900Y-108804100D01*
G75*
G02*
X254290900Y-108874100I-70000J0D01*
G01*
X253990900Y-108874100D01*
G75*
G02*
X253920900Y-108804100I0J70000D01*
G01*
G37*
G36*
G01*
X253270900Y-108804100D02*
X253270900Y-107204100D01*
G75*
G02*
X253340900Y-107134100I70000J0D01*
G01*
X253640900Y-107134100D01*
G75*
G02*
X253710900Y-107204100I0J-70000D01*
G01*
X253710900Y-108804100D01*
G75*
G02*
X253640900Y-108874100I-70000J0D01*
G01*
X253340900Y-108874100D01*
G75*
G02*
X253270900Y-108804100I0J70000D01*
G01*
G37*
G36*
G01*
X252620900Y-108804100D02*
X252620900Y-107204100D01*
G75*
G02*
X252690900Y-107134100I70000J0D01*
G01*
X252990900Y-107134100D01*
G75*
G02*
X253060900Y-107204100I0J-70000D01*
G01*
X253060900Y-108804100D01*
G75*
G02*
X252990900Y-108874100I-70000J0D01*
G01*
X252690900Y-108874100D01*
G75*
G02*
X252620900Y-108804100I0J70000D01*
G01*
G37*
G36*
G01*
X251970900Y-108804100D02*
X251970900Y-107204100D01*
G75*
G02*
X252040900Y-107134100I70000J0D01*
G01*
X252340900Y-107134100D01*
G75*
G02*
X252410900Y-107204100I0J-70000D01*
G01*
X252410900Y-108804100D01*
G75*
G02*
X252340900Y-108874100I-70000J0D01*
G01*
X252040900Y-108874100D01*
G75*
G02*
X251970900Y-108804100I0J70000D01*
G01*
G37*
G36*
G01*
X251320900Y-108804100D02*
X251320900Y-107204100D01*
G75*
G02*
X251390900Y-107134100I70000J0D01*
G01*
X251690900Y-107134100D01*
G75*
G02*
X251760900Y-107204100I0J-70000D01*
G01*
X251760900Y-108804100D01*
G75*
G02*
X251690900Y-108874100I-70000J0D01*
G01*
X251390900Y-108874100D01*
G75*
G02*
X251320900Y-108804100I0J70000D01*
G01*
G37*
G36*
G01*
X250670900Y-108804100D02*
X250670900Y-107204100D01*
G75*
G02*
X250740900Y-107134100I70000J0D01*
G01*
X251040900Y-107134100D01*
G75*
G02*
X251110900Y-107204100I0J-70000D01*
G01*
X251110900Y-108804100D01*
G75*
G02*
X251040900Y-108874100I-70000J0D01*
G01*
X250740900Y-108874100D01*
G75*
G02*
X250670900Y-108804100I0J70000D01*
G01*
G37*
G36*
G01*
X250020900Y-108804100D02*
X250020900Y-107204100D01*
G75*
G02*
X250090900Y-107134100I70000J0D01*
G01*
X250390900Y-107134100D01*
G75*
G02*
X250460900Y-107204100I0J-70000D01*
G01*
X250460900Y-108804100D01*
G75*
G02*
X250390900Y-108874100I-70000J0D01*
G01*
X250090900Y-108874100D01*
G75*
G02*
X250020900Y-108804100I0J70000D01*
G01*
G37*
G36*
G01*
X249370900Y-108804100D02*
X249370900Y-107204100D01*
G75*
G02*
X249440900Y-107134100I70000J0D01*
G01*
X249740900Y-107134100D01*
G75*
G02*
X249810900Y-107204100I0J-70000D01*
G01*
X249810900Y-108804100D01*
G75*
G02*
X249740900Y-108874100I-70000J0D01*
G01*
X249440900Y-108874100D01*
G75*
G02*
X249370900Y-108804100I0J70000D01*
G01*
G37*
G36*
G01*
X248720900Y-108804100D02*
X248720900Y-107204100D01*
G75*
G02*
X248790900Y-107134100I70000J0D01*
G01*
X249090900Y-107134100D01*
G75*
G02*
X249160900Y-107204100I0J-70000D01*
G01*
X249160900Y-108804100D01*
G75*
G02*
X249090900Y-108874100I-70000J0D01*
G01*
X248790900Y-108874100D01*
G75*
G02*
X248720900Y-108804100I0J70000D01*
G01*
G37*
G36*
G01*
X248070900Y-108804100D02*
X248070900Y-107204100D01*
G75*
G02*
X248140900Y-107134100I70000J0D01*
G01*
X248440900Y-107134100D01*
G75*
G02*
X248510900Y-107204100I0J-70000D01*
G01*
X248510900Y-108804100D01*
G75*
G02*
X248440900Y-108874100I-70000J0D01*
G01*
X248140900Y-108874100D01*
G75*
G02*
X248070900Y-108804100I0J70000D01*
G01*
G37*
G36*
G01*
X247420900Y-108804100D02*
X247420900Y-107204100D01*
G75*
G02*
X247490900Y-107134100I70000J0D01*
G01*
X247790900Y-107134100D01*
G75*
G02*
X247860900Y-107204100I0J-70000D01*
G01*
X247860900Y-108804100D01*
G75*
G02*
X247790900Y-108874100I-70000J0D01*
G01*
X247490900Y-108874100D01*
G75*
G02*
X247420900Y-108804100I0J70000D01*
G01*
G37*
G36*
G01*
X246770900Y-108804100D02*
X246770900Y-107204100D01*
G75*
G02*
X246840900Y-107134100I70000J0D01*
G01*
X247140900Y-107134100D01*
G75*
G02*
X247210900Y-107204100I0J-70000D01*
G01*
X247210900Y-108804100D01*
G75*
G02*
X247140900Y-108874100I-70000J0D01*
G01*
X246840900Y-108874100D01*
G75*
G02*
X246770900Y-108804100I0J70000D01*
G01*
G37*
G36*
G01*
X246120900Y-108804100D02*
X246120900Y-107204100D01*
G75*
G02*
X246190900Y-107134100I70000J0D01*
G01*
X246490900Y-107134100D01*
G75*
G02*
X246560900Y-107204100I0J-70000D01*
G01*
X246560900Y-108804100D01*
G75*
G02*
X246490900Y-108874100I-70000J0D01*
G01*
X246190900Y-108874100D01*
G75*
G02*
X246120900Y-108804100I0J70000D01*
G01*
G37*
G36*
G01*
X247480800Y-112004100D02*
X247480800Y-109604100D01*
G75*
G02*
X247480900Y-109604000I100J0D01*
G01*
X253650900Y-109604000D01*
G75*
G02*
X253651000Y-109604100I0J-100D01*
G01*
X253651000Y-112004100D01*
G75*
G02*
X253650900Y-112004200I-100J0D01*
G01*
X247480900Y-112004200D01*
G75*
G02*
X247480800Y-112004100I0J100D01*
G01*
G37*
D13*
X250565900Y-110804100D03*
X251865900Y-110804100D03*
X253165900Y-110804100D03*
X249265900Y-110804100D03*
X247965900Y-110804100D03*
G36*
G01*
X246682700Y-118532450D02*
X246682700Y-119095750D01*
G75*
G02*
X246438550Y-119339900I-244150J0D01*
G01*
X245950250Y-119339900D01*
G75*
G02*
X245706100Y-119095750I0J244150D01*
G01*
X245706100Y-118532450D01*
G75*
G02*
X245950250Y-118288300I244150J0D01*
G01*
X246438550Y-118288300D01*
G75*
G02*
X246682700Y-118532450I0J-244150D01*
G01*
G37*
G36*
G01*
X248257700Y-118532450D02*
X248257700Y-119095750D01*
G75*
G02*
X248013550Y-119339900I-244150J0D01*
G01*
X247525250Y-119339900D01*
G75*
G02*
X247281100Y-119095750I0J244150D01*
G01*
X247281100Y-118532450D01*
G75*
G02*
X247525250Y-118288300I244150J0D01*
G01*
X248013550Y-118288300D01*
G75*
G02*
X248257700Y-118532450I0J-244150D01*
G01*
G37*
G36*
G01*
X244130250Y-111911980D02*
X244693550Y-111911980D01*
G75*
G02*
X244937700Y-112156130I0J-244150D01*
G01*
X244937700Y-112644430D01*
G75*
G02*
X244693550Y-112888580I-244150J0D01*
G01*
X244130250Y-112888580D01*
G75*
G02*
X243886100Y-112644430I0J244150D01*
G01*
X243886100Y-112156130D01*
G75*
G02*
X244130250Y-111911980I244150J0D01*
G01*
G37*
G36*
G01*
X244130250Y-113486980D02*
X244693550Y-113486980D01*
G75*
G02*
X244937700Y-113731130I0J-244150D01*
G01*
X244937700Y-114219430D01*
G75*
G02*
X244693550Y-114463580I-244150J0D01*
G01*
X244130250Y-114463580D01*
G75*
G02*
X243886100Y-114219430I0J244150D01*
G01*
X243886100Y-113731130D01*
G75*
G02*
X244130250Y-113486980I244150J0D01*
G01*
G37*
G36*
G01*
X216143950Y-145421100D02*
X215580650Y-145421100D01*
G75*
G02*
X215336500Y-145176950I0J244150D01*
G01*
X215336500Y-144688650D01*
G75*
G02*
X215580650Y-144444500I244150J0D01*
G01*
X216143950Y-144444500D01*
G75*
G02*
X216388100Y-144688650I0J-244150D01*
G01*
X216388100Y-145176950D01*
G75*
G02*
X216143950Y-145421100I-244150J0D01*
G01*
G37*
G36*
G01*
X216143950Y-143846100D02*
X215580650Y-143846100D01*
G75*
G02*
X215336500Y-143601950I0J244150D01*
G01*
X215336500Y-143113650D01*
G75*
G02*
X215580650Y-142869500I244150J0D01*
G01*
X216143950Y-142869500D01*
G75*
G02*
X216388100Y-143113650I0J-244150D01*
G01*
X216388100Y-143601950D01*
G75*
G02*
X216143950Y-143846100I-244150J0D01*
G01*
G37*
G36*
G01*
X255078700Y-159005500D02*
X255078700Y-162965500D01*
G75*
G02*
X255027900Y-163016300I-50800J0D01*
G01*
X251067900Y-163016300D01*
G75*
G02*
X251017100Y-162965500I0J50800D01*
G01*
X251017100Y-159005500D01*
G75*
G02*
X251067900Y-158954700I50800J0D01*
G01*
X255027900Y-158954700D01*
G75*
G02*
X255078700Y-159005500I0J-50800D01*
G01*
G37*
D14*
X259647900Y-160985500D03*
X246447900Y-160985500D03*
G36*
G01*
X224066800Y-138552380D02*
X224066800Y-137241420D01*
G75*
G02*
X224337120Y-136971100I270320J0D01*
G01*
X225148080Y-136971100D01*
G75*
G02*
X225418400Y-137241420I0J-270320D01*
G01*
X225418400Y-138552380D01*
G75*
G02*
X225148080Y-138822700I-270320J0D01*
G01*
X224337120Y-138822700D01*
G75*
G02*
X224066800Y-138552380I0J270320D01*
G01*
G37*
G36*
G01*
X221266800Y-138552380D02*
X221266800Y-137241420D01*
G75*
G02*
X221537120Y-136971100I270320J0D01*
G01*
X222348080Y-136971100D01*
G75*
G02*
X222618400Y-137241420I0J-270320D01*
G01*
X222618400Y-138552380D01*
G75*
G02*
X222348080Y-138822700I-270320J0D01*
G01*
X221537120Y-138822700D01*
G75*
G02*
X221266800Y-138552380I0J270320D01*
G01*
G37*
G36*
G01*
X245726900Y-117528350D02*
X245726900Y-116965050D01*
G75*
G02*
X245971050Y-116720900I244150J0D01*
G01*
X246459350Y-116720900D01*
G75*
G02*
X246703500Y-116965050I0J-244150D01*
G01*
X246703500Y-117528350D01*
G75*
G02*
X246459350Y-117772500I-244150J0D01*
G01*
X245971050Y-117772500D01*
G75*
G02*
X245726900Y-117528350I0J244150D01*
G01*
G37*
G36*
G01*
X247301900Y-117528350D02*
X247301900Y-116965050D01*
G75*
G02*
X247546050Y-116720900I244150J0D01*
G01*
X248034350Y-116720900D01*
G75*
G02*
X248278500Y-116965050I0J-244150D01*
G01*
X248278500Y-117528350D01*
G75*
G02*
X248034350Y-117772500I-244150J0D01*
G01*
X247546050Y-117772500D01*
G75*
G02*
X247301900Y-117528350I0J244150D01*
G01*
G37*
G36*
G01*
X256830250Y-107512700D02*
X257393550Y-107512700D01*
G75*
G02*
X257637700Y-107756850I0J-244150D01*
G01*
X257637700Y-108245150D01*
G75*
G02*
X257393550Y-108489300I-244150J0D01*
G01*
X256830250Y-108489300D01*
G75*
G02*
X256586100Y-108245150I0J244150D01*
G01*
X256586100Y-107756850D01*
G75*
G02*
X256830250Y-107512700I244150J0D01*
G01*
G37*
G36*
G01*
X256830250Y-109087700D02*
X257393550Y-109087700D01*
G75*
G02*
X257637700Y-109331850I0J-244150D01*
G01*
X257637700Y-109820150D01*
G75*
G02*
X257393550Y-110064300I-244150J0D01*
G01*
X256830250Y-110064300D01*
G75*
G02*
X256586100Y-109820150I0J244150D01*
G01*
X256586100Y-109331850D01*
G75*
G02*
X256830250Y-109087700I244150J0D01*
G01*
G37*
G36*
G01*
X255547700Y-117282450D02*
X255547700Y-117845750D01*
G75*
G02*
X255303550Y-118089900I-244150J0D01*
G01*
X254815250Y-118089900D01*
G75*
G02*
X254571100Y-117845750I0J244150D01*
G01*
X254571100Y-117282450D01*
G75*
G02*
X254815250Y-117038300I244150J0D01*
G01*
X255303550Y-117038300D01*
G75*
G02*
X255547700Y-117282450I0J-244150D01*
G01*
G37*
G36*
G01*
X253972700Y-117282450D02*
X253972700Y-117845750D01*
G75*
G02*
X253728550Y-118089900I-244150J0D01*
G01*
X253240250Y-118089900D01*
G75*
G02*
X252996100Y-117845750I0J244150D01*
G01*
X252996100Y-117282450D01*
G75*
G02*
X253240250Y-117038300I244150J0D01*
G01*
X253728550Y-117038300D01*
G75*
G02*
X253972700Y-117282450I0J-244150D01*
G01*
G37*
G36*
G01*
X209814850Y-142945700D02*
X210378150Y-142945700D01*
G75*
G02*
X210622300Y-143189850I0J-244150D01*
G01*
X210622300Y-143678150D01*
G75*
G02*
X210378150Y-143922300I-244150J0D01*
G01*
X209814850Y-143922300D01*
G75*
G02*
X209570700Y-143678150I0J244150D01*
G01*
X209570700Y-143189850D01*
G75*
G02*
X209814850Y-142945700I244150J0D01*
G01*
G37*
G36*
G01*
X209814850Y-144520700D02*
X210378150Y-144520700D01*
G75*
G02*
X210622300Y-144764850I0J-244150D01*
G01*
X210622300Y-145253150D01*
G75*
G02*
X210378150Y-145497300I-244150J0D01*
G01*
X209814850Y-145497300D01*
G75*
G02*
X209570700Y-145253150I0J244150D01*
G01*
X209570700Y-144764850D01*
G75*
G02*
X209814850Y-144520700I244150J0D01*
G01*
G37*
G36*
G01*
X212685050Y-144546100D02*
X213248350Y-144546100D01*
G75*
G02*
X213492500Y-144790250I0J-244150D01*
G01*
X213492500Y-145278550D01*
G75*
G02*
X213248350Y-145522700I-244150J0D01*
G01*
X212685050Y-145522700D01*
G75*
G02*
X212440900Y-145278550I0J244150D01*
G01*
X212440900Y-144790250D01*
G75*
G02*
X212685050Y-144546100I244150J0D01*
G01*
G37*
G36*
G01*
X212685050Y-142971100D02*
X213248350Y-142971100D01*
G75*
G02*
X213492500Y-143215250I0J-244150D01*
G01*
X213492500Y-143703550D01*
G75*
G02*
X213248350Y-143947700I-244150J0D01*
G01*
X212685050Y-143947700D01*
G75*
G02*
X212440900Y-143703550I0J244150D01*
G01*
X212440900Y-143215250D01*
G75*
G02*
X212685050Y-142971100I244150J0D01*
G01*
G37*
G36*
G01*
X250241900Y-120423300D02*
X251841900Y-120423300D01*
G75*
G02*
X251892700Y-120474100I0J-50800D01*
G01*
X251892700Y-122074100D01*
G75*
G02*
X251841900Y-122124900I-50800J0D01*
G01*
X250241900Y-122124900D01*
G75*
G02*
X250191100Y-122074100I0J50800D01*
G01*
X250191100Y-120474100D01*
G75*
G02*
X250241900Y-120423300I50800J0D01*
G01*
G37*
D15*
X251041900Y-123274100D03*
G36*
G01*
X217063200Y-103723450D02*
X217063200Y-103160150D01*
G75*
G02*
X217307350Y-102916000I244150J0D01*
G01*
X217795650Y-102916000D01*
G75*
G02*
X218039800Y-103160150I0J-244150D01*
G01*
X218039800Y-103723450D01*
G75*
G02*
X217795650Y-103967600I-244150J0D01*
G01*
X217307350Y-103967600D01*
G75*
G02*
X217063200Y-103723450I0J244150D01*
G01*
G37*
G36*
G01*
X215488200Y-103723450D02*
X215488200Y-103160150D01*
G75*
G02*
X215732350Y-102916000I244150J0D01*
G01*
X216220650Y-102916000D01*
G75*
G02*
X216464800Y-103160150I0J-244150D01*
G01*
X216464800Y-103723450D01*
G75*
G02*
X216220650Y-103967600I-244150J0D01*
G01*
X215732350Y-103967600D01*
G75*
G02*
X215488200Y-103723450I0J244150D01*
G01*
G37*
G36*
G01*
X207945980Y-159549540D02*
X209256940Y-159549540D01*
G75*
G02*
X209527260Y-159819860I0J-270320D01*
G01*
X209527260Y-160630820D01*
G75*
G02*
X209256940Y-160901140I-270320J0D01*
G01*
X207945980Y-160901140D01*
G75*
G02*
X207675660Y-160630820I0J270320D01*
G01*
X207675660Y-159819860D01*
G75*
G02*
X207945980Y-159549540I270320J0D01*
G01*
G37*
G36*
G01*
X207945980Y-162349540D02*
X209256940Y-162349540D01*
G75*
G02*
X209527260Y-162619860I0J-270320D01*
G01*
X209527260Y-163430820D01*
G75*
G02*
X209256940Y-163701140I-270320J0D01*
G01*
X207945980Y-163701140D01*
G75*
G02*
X207675660Y-163430820I0J270320D01*
G01*
X207675660Y-162619860D01*
G75*
G02*
X207945980Y-162349540I270320J0D01*
G01*
G37*
G36*
G01*
X210269810Y-161774540D02*
X210833110Y-161774540D01*
G75*
G02*
X211077260Y-162018690I0J-244150D01*
G01*
X211077260Y-162506990D01*
G75*
G02*
X210833110Y-162751140I-244150J0D01*
G01*
X210269810Y-162751140D01*
G75*
G02*
X210025660Y-162506990I0J244150D01*
G01*
X210025660Y-162018690D01*
G75*
G02*
X210269810Y-161774540I244150J0D01*
G01*
G37*
G36*
G01*
X210269810Y-160199540D02*
X210833110Y-160199540D01*
G75*
G02*
X211077260Y-160443690I0J-244150D01*
G01*
X211077260Y-160931990D01*
G75*
G02*
X210833110Y-161176140I-244150J0D01*
G01*
X210269810Y-161176140D01*
G75*
G02*
X210025660Y-160931990I0J244150D01*
G01*
X210025660Y-160443690D01*
G75*
G02*
X210269810Y-160199540I244150J0D01*
G01*
G37*
G36*
G01*
X214295410Y-165719540D02*
X214858710Y-165719540D01*
G75*
G02*
X215102860Y-165963690I0J-244150D01*
G01*
X215102860Y-166451990D01*
G75*
G02*
X214858710Y-166696140I-244150J0D01*
G01*
X214295410Y-166696140D01*
G75*
G02*
X214051260Y-166451990I0J244150D01*
G01*
X214051260Y-165963690D01*
G75*
G02*
X214295410Y-165719540I244150J0D01*
G01*
G37*
G36*
G01*
X214295410Y-164144540D02*
X214858710Y-164144540D01*
G75*
G02*
X215102860Y-164388690I0J-244150D01*
G01*
X215102860Y-164876990D01*
G75*
G02*
X214858710Y-165121140I-244150J0D01*
G01*
X214295410Y-165121140D01*
G75*
G02*
X214051260Y-164876990I0J244150D01*
G01*
X214051260Y-164388690D01*
G75*
G02*
X214295410Y-164144540I244150J0D01*
G01*
G37*
G36*
G01*
X211052060Y-164343690D02*
X211052060Y-164906990D01*
G75*
G02*
X210807910Y-165151140I-244150J0D01*
G01*
X210319610Y-165151140D01*
G75*
G02*
X210075460Y-164906990I0J244150D01*
G01*
X210075460Y-164343690D01*
G75*
G02*
X210319610Y-164099540I244150J0D01*
G01*
X210807910Y-164099540D01*
G75*
G02*
X211052060Y-164343690I0J-244150D01*
G01*
G37*
G36*
G01*
X212627060Y-164343690D02*
X212627060Y-164906990D01*
G75*
G02*
X212382910Y-165151140I-244150J0D01*
G01*
X211894610Y-165151140D01*
G75*
G02*
X211650460Y-164906990I0J244150D01*
G01*
X211650460Y-164343690D01*
G75*
G02*
X211894610Y-164099540I244150J0D01*
G01*
X212382910Y-164099540D01*
G75*
G02*
X212627060Y-164343690I0J-244150D01*
G01*
G37*
G36*
G01*
X220136820Y-161406980D02*
X220136820Y-162717940D01*
G75*
G02*
X219866500Y-162988260I-270320J0D01*
G01*
X219055540Y-162988260D01*
G75*
G02*
X218785220Y-162717940I0J270320D01*
G01*
X218785220Y-161406980D01*
G75*
G02*
X219055540Y-161136660I270320J0D01*
G01*
X219866500Y-161136660D01*
G75*
G02*
X220136820Y-161406980I0J-270320D01*
G01*
G37*
G36*
G01*
X222936820Y-161406980D02*
X222936820Y-162717940D01*
G75*
G02*
X222666500Y-162988260I-270320J0D01*
G01*
X221855540Y-162988260D01*
G75*
G02*
X221585220Y-162717940I0J270320D01*
G01*
X221585220Y-161406980D01*
G75*
G02*
X221855540Y-161136660I270320J0D01*
G01*
X222666500Y-161136660D01*
G75*
G02*
X222936820Y-161406980I0J-270320D01*
G01*
G37*
G36*
G01*
X210599580Y-147891500D02*
X209288620Y-147891500D01*
G75*
G02*
X209018300Y-147621180I0J270320D01*
G01*
X209018300Y-146810220D01*
G75*
G02*
X209288620Y-146539900I270320J0D01*
G01*
X210599580Y-146539900D01*
G75*
G02*
X210869900Y-146810220I0J-270320D01*
G01*
X210869900Y-147621180D01*
G75*
G02*
X210599580Y-147891500I-270320J0D01*
G01*
G37*
G36*
G01*
X210599580Y-150691500D02*
X209288620Y-150691500D01*
G75*
G02*
X209018300Y-150421180I0J270320D01*
G01*
X209018300Y-149610220D01*
G75*
G02*
X209288620Y-149339900I270320J0D01*
G01*
X210599580Y-149339900D01*
G75*
G02*
X210869900Y-149610220I0J-270320D01*
G01*
X210869900Y-150421180D01*
G75*
G02*
X210599580Y-150691500I-270320J0D01*
G01*
G37*
G36*
G01*
X217914780Y-150767700D02*
X216603820Y-150767700D01*
G75*
G02*
X216333500Y-150497380I0J270320D01*
G01*
X216333500Y-149686420D01*
G75*
G02*
X216603820Y-149416100I270320J0D01*
G01*
X217914780Y-149416100D01*
G75*
G02*
X218185100Y-149686420I0J-270320D01*
G01*
X218185100Y-150497380D01*
G75*
G02*
X217914780Y-150767700I-270320J0D01*
G01*
G37*
G36*
G01*
X217914780Y-147967700D02*
X216603820Y-147967700D01*
G75*
G02*
X216333500Y-147697380I0J270320D01*
G01*
X216333500Y-146886420D01*
G75*
G02*
X216603820Y-146616100I270320J0D01*
G01*
X217914780Y-146616100D01*
G75*
G02*
X218185100Y-146886420I0J-270320D01*
G01*
X218185100Y-147697380D01*
G75*
G02*
X217914780Y-147967700I-270320J0D01*
G01*
G37*
G36*
G01*
X214231780Y-150691500D02*
X212920820Y-150691500D01*
G75*
G02*
X212650500Y-150421180I0J270320D01*
G01*
X212650500Y-149610220D01*
G75*
G02*
X212920820Y-149339900I270320J0D01*
G01*
X214231780Y-149339900D01*
G75*
G02*
X214502100Y-149610220I0J-270320D01*
G01*
X214502100Y-150421180D01*
G75*
G02*
X214231780Y-150691500I-270320J0D01*
G01*
G37*
G36*
G01*
X214231780Y-147891500D02*
X212920820Y-147891500D01*
G75*
G02*
X212650500Y-147621180I0J270320D01*
G01*
X212650500Y-146810220D01*
G75*
G02*
X212920820Y-146539900I270320J0D01*
G01*
X214231780Y-146539900D01*
G75*
G02*
X214502100Y-146810220I0J-270320D01*
G01*
X214502100Y-147621180D01*
G75*
G02*
X214231780Y-147891500I-270320J0D01*
G01*
G37*
G36*
G01*
X221145300Y-133205575D02*
X221145300Y-136162025D01*
G75*
G02*
X220872725Y-136434600I-272575J0D01*
G01*
X220191275Y-136434600D01*
G75*
G02*
X219918700Y-136162025I0J272575D01*
G01*
X219918700Y-133205575D01*
G75*
G02*
X220191275Y-132933000I272575J0D01*
G01*
X220872725Y-132933000D01*
G75*
G02*
X221145300Y-133205575I0J-272575D01*
G01*
G37*
G36*
G01*
X225420300Y-133205575D02*
X225420300Y-136162025D01*
G75*
G02*
X225147725Y-136434600I-272575J0D01*
G01*
X224466275Y-136434600D01*
G75*
G02*
X224193700Y-136162025I0J272575D01*
G01*
X224193700Y-133205575D01*
G75*
G02*
X224466275Y-132933000I272575J0D01*
G01*
X225147725Y-132933000D01*
G75*
G02*
X225420300Y-133205575I0J-272575D01*
G01*
G37*
G36*
G01*
X207749200Y-104250000D02*
X207749200Y-102550000D01*
G75*
G02*
X207800000Y-102499200I50800J0D01*
G01*
X209500000Y-102499200D01*
G75*
G02*
X209550800Y-102550000I0J-50800D01*
G01*
X209550800Y-104250000D01*
G75*
G02*
X209500000Y-104300800I-50800J0D01*
G01*
X207800000Y-104300800D01*
G75*
G02*
X207749200Y-104250000I0J50800D01*
G01*
G37*
D10*
X208650000Y-105940000D03*
X208650000Y-108480000D03*
X208650000Y-111020000D03*
X208650000Y-113560000D03*
G36*
G01*
X227631000Y-109986600D02*
X227631000Y-107535800D01*
G75*
G02*
X227906400Y-107260400I275400J0D01*
G01*
X228457200Y-107260400D01*
G75*
G02*
X228732600Y-107535800I0J-275400D01*
G01*
X228732600Y-109986600D01*
G75*
G02*
X228457200Y-110262000I-275400J0D01*
G01*
X227906400Y-110262000D01*
G75*
G02*
X227631000Y-109986600I0J275400D01*
G01*
G37*
G36*
G01*
X229631000Y-109986600D02*
X229631000Y-107535800D01*
G75*
G02*
X229906400Y-107260400I275400J0D01*
G01*
X230457200Y-107260400D01*
G75*
G02*
X230732600Y-107535800I0J-275400D01*
G01*
X230732600Y-109986600D01*
G75*
G02*
X230457200Y-110262000I-275400J0D01*
G01*
X229906400Y-110262000D01*
G75*
G02*
X229631000Y-109986600I0J275400D01*
G01*
G37*
G36*
G01*
X231631000Y-109986600D02*
X231631000Y-107535800D01*
G75*
G02*
X231906400Y-107260400I275400J0D01*
G01*
X232457200Y-107260400D01*
G75*
G02*
X232732600Y-107535800I0J-275400D01*
G01*
X232732600Y-109986600D01*
G75*
G02*
X232457200Y-110262000I-275400J0D01*
G01*
X231906400Y-110262000D01*
G75*
G02*
X231631000Y-109986600I0J275400D01*
G01*
G37*
G36*
G01*
X233631000Y-109986600D02*
X233631000Y-107535800D01*
G75*
G02*
X233906400Y-107260400I275400J0D01*
G01*
X234457200Y-107260400D01*
G75*
G02*
X234732600Y-107535800I0J-275400D01*
G01*
X234732600Y-109986600D01*
G75*
G02*
X234457200Y-110262000I-275400J0D01*
G01*
X233906400Y-110262000D01*
G75*
G02*
X233631000Y-109986600I0J275400D01*
G01*
G37*
G36*
G01*
X235631000Y-109986600D02*
X235631000Y-107535800D01*
G75*
G02*
X235906400Y-107260400I275400J0D01*
G01*
X236457200Y-107260400D01*
G75*
G02*
X236732600Y-107535800I0J-275400D01*
G01*
X236732600Y-109986600D01*
G75*
G02*
X236457200Y-110262000I-275400J0D01*
G01*
X235906400Y-110262000D01*
G75*
G02*
X235631000Y-109986600I0J275400D01*
G01*
G37*
G36*
G01*
X224881000Y-105697889D02*
X224881000Y-102524511D01*
G75*
G02*
X225145111Y-102260400I264111J0D01*
G01*
X226518489Y-102260400D01*
G75*
G02*
X226782600Y-102524511I0J-264111D01*
G01*
X226782600Y-105697889D01*
G75*
G02*
X226518489Y-105962000I-264111J0D01*
G01*
X225145111Y-105962000D01*
G75*
G02*
X224881000Y-105697889I0J264111D01*
G01*
G37*
G36*
G01*
X237581000Y-105697889D02*
X237581000Y-102524511D01*
G75*
G02*
X237845111Y-102260400I264111J0D01*
G01*
X239218489Y-102260400D01*
G75*
G02*
X239482600Y-102524511I0J-264111D01*
G01*
X239482600Y-105697889D01*
G75*
G02*
X239218489Y-105962000I-264111J0D01*
G01*
X237845111Y-105962000D01*
G75*
G02*
X237581000Y-105697889I0J264111D01*
G01*
G37*
G36*
G01*
X205936400Y-137420970D02*
X205936400Y-136457670D01*
G75*
G02*
X206205550Y-136188520I269150J0D01*
G01*
X206743850Y-136188520D01*
G75*
G02*
X207013000Y-136457670I0J-269150D01*
G01*
X207013000Y-137420970D01*
G75*
G02*
X206743850Y-137690120I-269150J0D01*
G01*
X206205550Y-137690120D01*
G75*
G02*
X205936400Y-137420970I0J269150D01*
G01*
G37*
G36*
G01*
X204061400Y-137420970D02*
X204061400Y-136457670D01*
G75*
G02*
X204330550Y-136188520I269150J0D01*
G01*
X204868850Y-136188520D01*
G75*
G02*
X205138000Y-136457670I0J-269150D01*
G01*
X205138000Y-137420970D01*
G75*
G02*
X204868850Y-137690120I-269150J0D01*
G01*
X204330550Y-137690120D01*
G75*
G02*
X204061400Y-137420970I0J269150D01*
G01*
G37*
G36*
G01*
X206686000Y-138435670D02*
X206686000Y-138998970D01*
G75*
G02*
X206441850Y-139243120I-244150J0D01*
G01*
X205953550Y-139243120D01*
G75*
G02*
X205709400Y-138998970I0J244150D01*
G01*
X205709400Y-138435670D01*
G75*
G02*
X205953550Y-138191520I244150J0D01*
G01*
X206441850Y-138191520D01*
G75*
G02*
X206686000Y-138435670I0J-244150D01*
G01*
G37*
G36*
G01*
X205111000Y-138435670D02*
X205111000Y-138998970D01*
G75*
G02*
X204866850Y-139243120I-244150J0D01*
G01*
X204378550Y-139243120D01*
G75*
G02*
X204134400Y-138998970I0J244150D01*
G01*
X204134400Y-138435670D01*
G75*
G02*
X204378550Y-138191520I244150J0D01*
G01*
X204866850Y-138191520D01*
G75*
G02*
X205111000Y-138435670I0J-244150D01*
G01*
G37*
G36*
G01*
X254600100Y-115815750D02*
X254600100Y-115252450D01*
G75*
G02*
X254844250Y-115008300I244150J0D01*
G01*
X255332550Y-115008300D01*
G75*
G02*
X255576700Y-115252450I0J-244150D01*
G01*
X255576700Y-115815750D01*
G75*
G02*
X255332550Y-116059900I-244150J0D01*
G01*
X254844250Y-116059900D01*
G75*
G02*
X254600100Y-115815750I0J244150D01*
G01*
G37*
G36*
G01*
X256175100Y-115815750D02*
X256175100Y-115252450D01*
G75*
G02*
X256419250Y-115008300I244150J0D01*
G01*
X256907550Y-115008300D01*
G75*
G02*
X257151700Y-115252450I0J-244150D01*
G01*
X257151700Y-115815750D01*
G75*
G02*
X256907550Y-116059900I-244150J0D01*
G01*
X256419250Y-116059900D01*
G75*
G02*
X256175100Y-115815750I0J244150D01*
G01*
G37*
G36*
G01*
X235038350Y-126423300D02*
X234075050Y-126423300D01*
G75*
G02*
X233805900Y-126154150I0J269150D01*
G01*
X233805900Y-125615850D01*
G75*
G02*
X234075050Y-125346700I269150J0D01*
G01*
X235038350Y-125346700D01*
G75*
G02*
X235307500Y-125615850I0J-269150D01*
G01*
X235307500Y-126154150D01*
G75*
G02*
X235038350Y-126423300I-269150J0D01*
G01*
G37*
G36*
G01*
X235038350Y-128298300D02*
X234075050Y-128298300D01*
G75*
G02*
X233805900Y-128029150I0J269150D01*
G01*
X233805900Y-127490850D01*
G75*
G02*
X234075050Y-127221700I269150J0D01*
G01*
X235038350Y-127221700D01*
G75*
G02*
X235307500Y-127490850I0J-269150D01*
G01*
X235307500Y-128029150D01*
G75*
G02*
X235038350Y-128298300I-269150J0D01*
G01*
G37*
G36*
G01*
X236141950Y-125508600D02*
X236705250Y-125508600D01*
G75*
G02*
X236949400Y-125752750I0J-244150D01*
G01*
X236949400Y-126241050D01*
G75*
G02*
X236705250Y-126485200I-244150J0D01*
G01*
X236141950Y-126485200D01*
G75*
G02*
X235897800Y-126241050I0J244150D01*
G01*
X235897800Y-125752750D01*
G75*
G02*
X236141950Y-125508600I244150J0D01*
G01*
G37*
G36*
G01*
X236141950Y-127083600D02*
X236705250Y-127083600D01*
G75*
G02*
X236949400Y-127327750I0J-244150D01*
G01*
X236949400Y-127816050D01*
G75*
G02*
X236705250Y-128060200I-244150J0D01*
G01*
X236141950Y-128060200D01*
G75*
G02*
X235897800Y-127816050I0J244150D01*
G01*
X235897800Y-127327750D01*
G75*
G02*
X236141950Y-127083600I244150J0D01*
G01*
G37*
G36*
G01*
X212658410Y-166761040D02*
X211695110Y-166761040D01*
G75*
G02*
X211425960Y-166491890I0J269150D01*
G01*
X211425960Y-165953590D01*
G75*
G02*
X211695110Y-165684440I269150J0D01*
G01*
X212658410Y-165684440D01*
G75*
G02*
X212927560Y-165953590I0J-269150D01*
G01*
X212927560Y-166491890D01*
G75*
G02*
X212658410Y-166761040I-269150J0D01*
G01*
G37*
G36*
G01*
X212658410Y-168636040D02*
X211695110Y-168636040D01*
G75*
G02*
X211425960Y-168366890I0J269150D01*
G01*
X211425960Y-167828590D01*
G75*
G02*
X211695110Y-167559440I269150J0D01*
G01*
X212658410Y-167559440D01*
G75*
G02*
X212927560Y-167828590I0J-269150D01*
G01*
X212927560Y-168366890D01*
G75*
G02*
X212658410Y-168636040I-269150J0D01*
G01*
G37*
G36*
G01*
X225028950Y-151168400D02*
X224065650Y-151168400D01*
G75*
G02*
X223796500Y-150899250I0J269150D01*
G01*
X223796500Y-150360950D01*
G75*
G02*
X224065650Y-150091800I269150J0D01*
G01*
X225028950Y-150091800D01*
G75*
G02*
X225298100Y-150360950I0J-269150D01*
G01*
X225298100Y-150899250D01*
G75*
G02*
X225028950Y-151168400I-269150J0D01*
G01*
G37*
G36*
G01*
X225028950Y-149293400D02*
X224065650Y-149293400D01*
G75*
G02*
X223796500Y-149024250I0J269150D01*
G01*
X223796500Y-148485950D01*
G75*
G02*
X224065650Y-148216800I269150J0D01*
G01*
X225028950Y-148216800D01*
G75*
G02*
X225298100Y-148485950I0J-269150D01*
G01*
X225298100Y-149024250D01*
G75*
G02*
X225028950Y-149293400I-269150J0D01*
G01*
G37*
G36*
G01*
X225927600Y-146370050D02*
X225927600Y-145806750D01*
G75*
G02*
X226171750Y-145562600I244150J0D01*
G01*
X226660050Y-145562600D01*
G75*
G02*
X226904200Y-145806750I0J-244150D01*
G01*
X226904200Y-146370050D01*
G75*
G02*
X226660050Y-146614200I-244150J0D01*
G01*
X226171750Y-146614200D01*
G75*
G02*
X225927600Y-146370050I0J244150D01*
G01*
G37*
G36*
G01*
X227502600Y-146370050D02*
X227502600Y-145806750D01*
G75*
G02*
X227746750Y-145562600I244150J0D01*
G01*
X228235050Y-145562600D01*
G75*
G02*
X228479200Y-145806750I0J-244150D01*
G01*
X228479200Y-146370050D01*
G75*
G02*
X228235050Y-146614200I-244150J0D01*
G01*
X227746750Y-146614200D01*
G75*
G02*
X227502600Y-146370050I0J244150D01*
G01*
G37*
G36*
G01*
X219558720Y-164277630D02*
X219558720Y-164840930D01*
G75*
G02*
X219314570Y-165085080I-244150J0D01*
G01*
X218826270Y-165085080D01*
G75*
G02*
X218582120Y-164840930I0J244150D01*
G01*
X218582120Y-164277630D01*
G75*
G02*
X218826270Y-164033480I244150J0D01*
G01*
X219314570Y-164033480D01*
G75*
G02*
X219558720Y-164277630I0J-244150D01*
G01*
G37*
G36*
G01*
X217983720Y-164277630D02*
X217983720Y-164840930D01*
G75*
G02*
X217739570Y-165085080I-244150J0D01*
G01*
X217251270Y-165085080D01*
G75*
G02*
X217007120Y-164840930I0J244150D01*
G01*
X217007120Y-164277630D01*
G75*
G02*
X217251270Y-164033480I244150J0D01*
G01*
X217739570Y-164033480D01*
G75*
G02*
X217983720Y-164277630I0J-244150D01*
G01*
G37*
G36*
G01*
X224954550Y-146738700D02*
X223991250Y-146738700D01*
G75*
G02*
X223722100Y-146469550I0J269150D01*
G01*
X223722100Y-145931250D01*
G75*
G02*
X223991250Y-145662100I269150J0D01*
G01*
X224954550Y-145662100D01*
G75*
G02*
X225223700Y-145931250I0J-269150D01*
G01*
X225223700Y-146469550D01*
G75*
G02*
X224954550Y-146738700I-269150J0D01*
G01*
G37*
G36*
G01*
X224954550Y-144863700D02*
X223991250Y-144863700D01*
G75*
G02*
X223722100Y-144594550I0J269150D01*
G01*
X223722100Y-144056250D01*
G75*
G02*
X223991250Y-143787100I269150J0D01*
G01*
X224954550Y-143787100D01*
G75*
G02*
X225223700Y-144056250I0J-269150D01*
G01*
X225223700Y-144594550D01*
G75*
G02*
X224954550Y-144863700I-269150J0D01*
G01*
G37*
G36*
G01*
X221303500Y-142352350D02*
X221303500Y-142915650D01*
G75*
G02*
X221059350Y-143159800I-244150J0D01*
G01*
X220571050Y-143159800D01*
G75*
G02*
X220326900Y-142915650I0J244150D01*
G01*
X220326900Y-142352350D01*
G75*
G02*
X220571050Y-142108200I244150J0D01*
G01*
X221059350Y-142108200D01*
G75*
G02*
X221303500Y-142352350I0J-244150D01*
G01*
G37*
G36*
G01*
X222878500Y-142352350D02*
X222878500Y-142915650D01*
G75*
G02*
X222634350Y-143159800I-244150J0D01*
G01*
X222146050Y-143159800D01*
G75*
G02*
X221901900Y-142915650I0J244150D01*
G01*
X221901900Y-142352350D01*
G75*
G02*
X222146050Y-142108200I244150J0D01*
G01*
X222634350Y-142108200D01*
G75*
G02*
X222878500Y-142352350I0J-244150D01*
G01*
G37*
D16*
X260223400Y-103886300D03*
X262763400Y-106426300D03*
X260223400Y-108966300D03*
G36*
G01*
X233529200Y-123368600D02*
X232409200Y-123368600D01*
G75*
G02*
X232358400Y-123317800I0J50800D01*
G01*
X232358400Y-120877800D01*
G75*
G02*
X232409200Y-120827000I50800J0D01*
G01*
X233529200Y-120827000D01*
G75*
G02*
X233580000Y-120877800I0J-50800D01*
G01*
X233580000Y-123317800D01*
G75*
G02*
X233529200Y-123368600I-50800J0D01*
G01*
G37*
G36*
G01*
X238609200Y-114758600D02*
X237489200Y-114758600D01*
G75*
G02*
X237438400Y-114707800I0J50800D01*
G01*
X237438400Y-112267800D01*
G75*
G02*
X237489200Y-112217000I50800J0D01*
G01*
X238609200Y-112217000D01*
G75*
G02*
X238660000Y-112267800I0J-50800D01*
G01*
X238660000Y-114707800D01*
G75*
G02*
X238609200Y-114758600I-50800J0D01*
G01*
G37*
G36*
G01*
X236069200Y-123368600D02*
X234949200Y-123368600D01*
G75*
G02*
X234898400Y-123317800I0J50800D01*
G01*
X234898400Y-120877800D01*
G75*
G02*
X234949200Y-120827000I50800J0D01*
G01*
X236069200Y-120827000D01*
G75*
G02*
X236120000Y-120877800I0J-50800D01*
G01*
X236120000Y-123317800D01*
G75*
G02*
X236069200Y-123368600I-50800J0D01*
G01*
G37*
G36*
G01*
X236069200Y-114758600D02*
X234949200Y-114758600D01*
G75*
G02*
X234898400Y-114707800I0J50800D01*
G01*
X234898400Y-112267800D01*
G75*
G02*
X234949200Y-112217000I50800J0D01*
G01*
X236069200Y-112217000D01*
G75*
G02*
X236120000Y-112267800I0J-50800D01*
G01*
X236120000Y-114707800D01*
G75*
G02*
X236069200Y-114758600I-50800J0D01*
G01*
G37*
G36*
G01*
X238609200Y-123368600D02*
X237489200Y-123368600D01*
G75*
G02*
X237438400Y-123317800I0J50800D01*
G01*
X237438400Y-120877800D01*
G75*
G02*
X237489200Y-120827000I50800J0D01*
G01*
X238609200Y-120827000D01*
G75*
G02*
X238660000Y-120877800I0J-50800D01*
G01*
X238660000Y-123317800D01*
G75*
G02*
X238609200Y-123368600I-50800J0D01*
G01*
G37*
G36*
G01*
X233529200Y-114758600D02*
X232409200Y-114758600D01*
G75*
G02*
X232358400Y-114707800I0J50800D01*
G01*
X232358400Y-112267800D01*
G75*
G02*
X232409200Y-112217000I50800J0D01*
G01*
X233529200Y-112217000D01*
G75*
G02*
X233580000Y-112267800I0J-50800D01*
G01*
X233580000Y-114707800D01*
G75*
G02*
X233529200Y-114758600I-50800J0D01*
G01*
G37*
G36*
G01*
X233330500Y-145801220D02*
X233330500Y-147112180D01*
G75*
G02*
X233060180Y-147382500I-270320J0D01*
G01*
X232249220Y-147382500D01*
G75*
G02*
X231978900Y-147112180I0J270320D01*
G01*
X231978900Y-145801220D01*
G75*
G02*
X232249220Y-145530900I270320J0D01*
G01*
X233060180Y-145530900D01*
G75*
G02*
X233330500Y-145801220I0J-270320D01*
G01*
G37*
G36*
G01*
X230530500Y-145801220D02*
X230530500Y-147112180D01*
G75*
G02*
X230260180Y-147382500I-270320J0D01*
G01*
X229449220Y-147382500D01*
G75*
G02*
X229178900Y-147112180I0J270320D01*
G01*
X229178900Y-145801220D01*
G75*
G02*
X229449220Y-145530900I270320J0D01*
G01*
X230260180Y-145530900D01*
G75*
G02*
X230530500Y-145801220I0J-270320D01*
G01*
G37*
G36*
G01*
X244993550Y-117529900D02*
X244430250Y-117529900D01*
G75*
G02*
X244186100Y-117285750I0J244150D01*
G01*
X244186100Y-116797450D01*
G75*
G02*
X244430250Y-116553300I244150J0D01*
G01*
X244993550Y-116553300D01*
G75*
G02*
X245237700Y-116797450I0J-244150D01*
G01*
X245237700Y-117285750D01*
G75*
G02*
X244993550Y-117529900I-244150J0D01*
G01*
G37*
G36*
G01*
X244993550Y-115954900D02*
X244430250Y-115954900D01*
G75*
G02*
X244186100Y-115710750I0J244150D01*
G01*
X244186100Y-115222450D01*
G75*
G02*
X244430250Y-114978300I244150J0D01*
G01*
X244993550Y-114978300D01*
G75*
G02*
X245237700Y-115222450I0J-244150D01*
G01*
X245237700Y-115710750D01*
G75*
G02*
X244993550Y-115954900I-244150J0D01*
G01*
G37*
G36*
G01*
X245726100Y-115985750D02*
X245726100Y-115422450D01*
G75*
G02*
X245970250Y-115178300I244150J0D01*
G01*
X246458550Y-115178300D01*
G75*
G02*
X246702700Y-115422450I0J-244150D01*
G01*
X246702700Y-115985750D01*
G75*
G02*
X246458550Y-116229900I-244150J0D01*
G01*
X245970250Y-116229900D01*
G75*
G02*
X245726100Y-115985750I0J244150D01*
G01*
G37*
G36*
G01*
X247301100Y-115985750D02*
X247301100Y-115422450D01*
G75*
G02*
X247545250Y-115178300I244150J0D01*
G01*
X248033550Y-115178300D01*
G75*
G02*
X248277700Y-115422450I0J-244150D01*
G01*
X248277700Y-115985750D01*
G75*
G02*
X248033550Y-116229900I-244150J0D01*
G01*
X247545250Y-116229900D01*
G75*
G02*
X247301100Y-115985750I0J244150D01*
G01*
G37*
G36*
G01*
X248991980Y-130411980D02*
X251271980Y-130411980D01*
G75*
G02*
X251322780Y-130462780I0J-50800D01*
G01*
X251322780Y-132742780D01*
G75*
G02*
X251271980Y-132793580I-50800J0D01*
G01*
X248991980Y-132793580D01*
G75*
G02*
X248941180Y-132742780I0J50800D01*
G01*
X248941180Y-130462780D01*
G75*
G02*
X248991980Y-130411980I50800J0D01*
G01*
G37*
D17*
X250131980Y-136682780D03*
D18*
X260291980Y-130332780D03*
X260291980Y-137952780D03*
D19*
X252671980Y-134142780D03*
G36*
G01*
X200694700Y-137296220D02*
X201394700Y-137296220D01*
G75*
G02*
X201445500Y-137347020I0J-50800D01*
G01*
X201445500Y-137797020D01*
G75*
G02*
X201394700Y-137847820I-50800J0D01*
G01*
X200694700Y-137847820D01*
G75*
G02*
X200643900Y-137797020I0J50800D01*
G01*
X200643900Y-137347020D01*
G75*
G02*
X200694700Y-137296220I50800J0D01*
G01*
G37*
G36*
G01*
X200694700Y-138596220D02*
X201394700Y-138596220D01*
G75*
G02*
X201445500Y-138647020I0J-50800D01*
G01*
X201445500Y-139097020D01*
G75*
G02*
X201394700Y-139147820I-50800J0D01*
G01*
X200694700Y-139147820D01*
G75*
G02*
X200643900Y-139097020I0J50800D01*
G01*
X200643900Y-138647020D01*
G75*
G02*
X200694700Y-138596220I50800J0D01*
G01*
G37*
G36*
G01*
X202694700Y-137946220D02*
X203394700Y-137946220D01*
G75*
G02*
X203445500Y-137997020I0J-50800D01*
G01*
X203445500Y-138447020D01*
G75*
G02*
X203394700Y-138497820I-50800J0D01*
G01*
X202694700Y-138497820D01*
G75*
G02*
X202643900Y-138447020I0J50800D01*
G01*
X202643900Y-137997020D01*
G75*
G02*
X202694700Y-137946220I50800J0D01*
G01*
G37*
G36*
G01*
X218501650Y-142856800D02*
X219064950Y-142856800D01*
G75*
G02*
X219309100Y-143100950I0J-244150D01*
G01*
X219309100Y-143589250D01*
G75*
G02*
X219064950Y-143833400I-244150J0D01*
G01*
X218501650Y-143833400D01*
G75*
G02*
X218257500Y-143589250I0J244150D01*
G01*
X218257500Y-143100950D01*
G75*
G02*
X218501650Y-142856800I244150J0D01*
G01*
G37*
G36*
G01*
X218501650Y-144431800D02*
X219064950Y-144431800D01*
G75*
G02*
X219309100Y-144675950I0J-244150D01*
G01*
X219309100Y-145164250D01*
G75*
G02*
X219064950Y-145408400I-244150J0D01*
G01*
X218501650Y-145408400D01*
G75*
G02*
X218257500Y-145164250I0J244150D01*
G01*
X218257500Y-144675950D01*
G75*
G02*
X218501650Y-144431800I244150J0D01*
G01*
G37*
G36*
G01*
X217101300Y-105336350D02*
X217101300Y-104773050D01*
G75*
G02*
X217345450Y-104528900I244150J0D01*
G01*
X217833750Y-104528900D01*
G75*
G02*
X218077900Y-104773050I0J-244150D01*
G01*
X218077900Y-105336350D01*
G75*
G02*
X217833750Y-105580500I-244150J0D01*
G01*
X217345450Y-105580500D01*
G75*
G02*
X217101300Y-105336350I0J244150D01*
G01*
G37*
G36*
G01*
X215526300Y-105336350D02*
X215526300Y-104773050D01*
G75*
G02*
X215770450Y-104528900I244150J0D01*
G01*
X216258750Y-104528900D01*
G75*
G02*
X216502900Y-104773050I0J-244150D01*
G01*
X216502900Y-105336350D01*
G75*
G02*
X216258750Y-105580500I-244150J0D01*
G01*
X215770450Y-105580500D01*
G75*
G02*
X215526300Y-105336350I0J244150D01*
G01*
G37*
G36*
G01*
X205807500Y-133017800D02*
X205807500Y-132317800D01*
G75*
G02*
X205858300Y-132267000I50800J0D01*
G01*
X206308300Y-132267000D01*
G75*
G02*
X206359100Y-132317800I0J-50800D01*
G01*
X206359100Y-133017800D01*
G75*
G02*
X206308300Y-133068600I-50800J0D01*
G01*
X205858300Y-133068600D01*
G75*
G02*
X205807500Y-133017800I0J50800D01*
G01*
G37*
G36*
G01*
X206457500Y-135017800D02*
X206457500Y-134317800D01*
G75*
G02*
X206508300Y-134267000I50800J0D01*
G01*
X206958300Y-134267000D01*
G75*
G02*
X207009100Y-134317800I0J-50800D01*
G01*
X207009100Y-135017800D01*
G75*
G02*
X206958300Y-135068600I-50800J0D01*
G01*
X206508300Y-135068600D01*
G75*
G02*
X206457500Y-135017800I0J50800D01*
G01*
G37*
G36*
G01*
X205157500Y-135017800D02*
X205157500Y-134317800D01*
G75*
G02*
X205208300Y-134267000I50800J0D01*
G01*
X205658300Y-134267000D01*
G75*
G02*
X205709100Y-134317800I0J-50800D01*
G01*
X205709100Y-135017800D01*
G75*
G02*
X205658300Y-135068600I-50800J0D01*
G01*
X205208300Y-135068600D01*
G75*
G02*
X205157500Y-135017800I0J50800D01*
G01*
G37*
G36*
G01*
X221891200Y-145938300D02*
X221891200Y-146638300D01*
G75*
G02*
X221840400Y-146689100I-50800J0D01*
G01*
X221390400Y-146689100D01*
G75*
G02*
X221339600Y-146638300I0J50800D01*
G01*
X221339600Y-145938300D01*
G75*
G02*
X221390400Y-145887500I50800J0D01*
G01*
X221840400Y-145887500D01*
G75*
G02*
X221891200Y-145938300I0J-50800D01*
G01*
G37*
G36*
G01*
X221241200Y-143938300D02*
X221241200Y-144638300D01*
G75*
G02*
X221190400Y-144689100I-50800J0D01*
G01*
X220740400Y-144689100D01*
G75*
G02*
X220689600Y-144638300I0J50800D01*
G01*
X220689600Y-143938300D01*
G75*
G02*
X220740400Y-143887500I50800J0D01*
G01*
X221190400Y-143887500D01*
G75*
G02*
X221241200Y-143938300I0J-50800D01*
G01*
G37*
G36*
G01*
X222541200Y-143938300D02*
X222541200Y-144638300D01*
G75*
G02*
X222490400Y-144689100I-50800J0D01*
G01*
X222040400Y-144689100D01*
G75*
G02*
X221989600Y-144638300I0J50800D01*
G01*
X221989600Y-143938300D01*
G75*
G02*
X222040400Y-143887500I50800J0D01*
G01*
X222490400Y-143887500D01*
G75*
G02*
X222541200Y-143938300I0J-50800D01*
G01*
G37*
G36*
G01*
X222604700Y-148357900D02*
X222604700Y-149057900D01*
G75*
G02*
X222553900Y-149108700I-50800J0D01*
G01*
X222103900Y-149108700D01*
G75*
G02*
X222053100Y-149057900I0J50800D01*
G01*
X222053100Y-148357900D01*
G75*
G02*
X222103900Y-148307100I50800J0D01*
G01*
X222553900Y-148307100D01*
G75*
G02*
X222604700Y-148357900I0J-50800D01*
G01*
G37*
G36*
G01*
X221304700Y-148357900D02*
X221304700Y-149057900D01*
G75*
G02*
X221253900Y-149108700I-50800J0D01*
G01*
X220803900Y-149108700D01*
G75*
G02*
X220753100Y-149057900I0J50800D01*
G01*
X220753100Y-148357900D01*
G75*
G02*
X220803900Y-148307100I50800J0D01*
G01*
X221253900Y-148307100D01*
G75*
G02*
X221304700Y-148357900I0J-50800D01*
G01*
G37*
G36*
G01*
X221954700Y-150357900D02*
X221954700Y-151057900D01*
G75*
G02*
X221903900Y-151108700I-50800J0D01*
G01*
X221453900Y-151108700D01*
G75*
G02*
X221403100Y-151057900I0J50800D01*
G01*
X221403100Y-150357900D01*
G75*
G02*
X221453900Y-150307100I50800J0D01*
G01*
X221903900Y-150307100D01*
G75*
G02*
X221954700Y-150357900I0J-50800D01*
G01*
G37*
G36*
G01*
X203897950Y-133370200D02*
X202934650Y-133370200D01*
G75*
G02*
X202665500Y-133101050I0J269150D01*
G01*
X202665500Y-132562750D01*
G75*
G02*
X202934650Y-132293600I269150J0D01*
G01*
X203897950Y-132293600D01*
G75*
G02*
X204167100Y-132562750I0J-269150D01*
G01*
X204167100Y-133101050D01*
G75*
G02*
X203897950Y-133370200I-269150J0D01*
G01*
G37*
G36*
G01*
X203897950Y-135245200D02*
X202934650Y-135245200D01*
G75*
G02*
X202665500Y-134976050I0J269150D01*
G01*
X202665500Y-134437750D01*
G75*
G02*
X202934650Y-134168600I269150J0D01*
G01*
X203897950Y-134168600D01*
G75*
G02*
X204167100Y-134437750I0J-269150D01*
G01*
X204167100Y-134976050D01*
G75*
G02*
X203897950Y-135245200I-269150J0D01*
G01*
G37*
G36*
G01*
X201305850Y-134017800D02*
X201869150Y-134017800D01*
G75*
G02*
X202113300Y-134261950I0J-244150D01*
G01*
X202113300Y-134750250D01*
G75*
G02*
X201869150Y-134994400I-244150J0D01*
G01*
X201305850Y-134994400D01*
G75*
G02*
X201061700Y-134750250I0J244150D01*
G01*
X201061700Y-134261950D01*
G75*
G02*
X201305850Y-134017800I244150J0D01*
G01*
G37*
G36*
G01*
X201305850Y-132442800D02*
X201869150Y-132442800D01*
G75*
G02*
X202113300Y-132686950I0J-244150D01*
G01*
X202113300Y-133175250D01*
G75*
G02*
X201869150Y-133419400I-244150J0D01*
G01*
X201305850Y-133419400D01*
G75*
G02*
X201061700Y-133175250I0J244150D01*
G01*
X201061700Y-132686950D01*
G75*
G02*
X201305850Y-132442800I244150J0D01*
G01*
G37*
D20*
X270096000Y-97500000D03*
G36*
G01*
X298514600Y-108139700D02*
X297563800Y-108139700D01*
G75*
G02*
X297338400Y-107914300I0J225400D01*
G01*
X297338400Y-107463500D01*
G75*
G02*
X297563800Y-107238100I225400J0D01*
G01*
X298514600Y-107238100D01*
G75*
G02*
X298740000Y-107463500I0J-225400D01*
G01*
X298740000Y-107914300D01*
G75*
G02*
X298514600Y-108139700I-225400J0D01*
G01*
G37*
G36*
G01*
X298514600Y-106889700D02*
X297563800Y-106889700D01*
G75*
G02*
X297338400Y-106664300I0J225400D01*
G01*
X297338400Y-106213500D01*
G75*
G02*
X297563800Y-105988100I225400J0D01*
G01*
X298514600Y-105988100D01*
G75*
G02*
X298740000Y-106213500I0J-225400D01*
G01*
X298740000Y-106664300D01*
G75*
G02*
X298514600Y-106889700I-225400J0D01*
G01*
G37*
G36*
G01*
X298514600Y-105639700D02*
X297563800Y-105639700D01*
G75*
G02*
X297338400Y-105414300I0J225400D01*
G01*
X297338400Y-104963500D01*
G75*
G02*
X297563800Y-104738100I225400J0D01*
G01*
X298514600Y-104738100D01*
G75*
G02*
X298740000Y-104963500I0J-225400D01*
G01*
X298740000Y-105414300D01*
G75*
G02*
X298514600Y-105639700I-225400J0D01*
G01*
G37*
G36*
G01*
X298514600Y-104389700D02*
X297563800Y-104389700D01*
G75*
G02*
X297338400Y-104164300I0J225400D01*
G01*
X297338400Y-103713500D01*
G75*
G02*
X297563800Y-103488100I225400J0D01*
G01*
X298514600Y-103488100D01*
G75*
G02*
X298740000Y-103713500I0J-225400D01*
G01*
X298740000Y-104164300D01*
G75*
G02*
X298514600Y-104389700I-225400J0D01*
G01*
G37*
G36*
G01*
X302077906Y-111339700D02*
X299500494Y-111339700D01*
G75*
G02*
X299238400Y-111077606I0J262094D01*
G01*
X299238400Y-109400194D01*
G75*
G02*
X299500494Y-109138100I262094J0D01*
G01*
X302077906Y-109138100D01*
G75*
G02*
X302340000Y-109400194I0J-262094D01*
G01*
X302340000Y-111077606D01*
G75*
G02*
X302077906Y-111339700I-262094J0D01*
G01*
G37*
G36*
G01*
X302077906Y-102489700D02*
X299500494Y-102489700D01*
G75*
G02*
X299238400Y-102227606I0J262094D01*
G01*
X299238400Y-100550194D01*
G75*
G02*
X299500494Y-100288100I262094J0D01*
G01*
X302077906Y-100288100D01*
G75*
G02*
X302340000Y-100550194I0J-262094D01*
G01*
X302340000Y-102227606D01*
G75*
G02*
X302077906Y-102489700I-262094J0D01*
G01*
G37*
X270096000Y-115500000D03*
X314096000Y-97500000D03*
G36*
G01*
X292276900Y-111133500D02*
X292276900Y-111873500D01*
G75*
G02*
X292226100Y-111924300I-50800J0D01*
G01*
X289826100Y-111924300D01*
G75*
G02*
X289775300Y-111873500I0J50800D01*
G01*
X289775300Y-111133500D01*
G75*
G02*
X289826100Y-111082700I50800J0D01*
G01*
X292226100Y-111082700D01*
G75*
G02*
X292276900Y-111133500I0J-50800D01*
G01*
G37*
G36*
G01*
X288376900Y-111133500D02*
X288376900Y-111873500D01*
G75*
G02*
X288326100Y-111924300I-50800J0D01*
G01*
X285926100Y-111924300D01*
G75*
G02*
X285875300Y-111873500I0J50800D01*
G01*
X285875300Y-111133500D01*
G75*
G02*
X285926100Y-111082700I50800J0D01*
G01*
X288326100Y-111082700D01*
G75*
G02*
X288376900Y-111133500I0J-50800D01*
G01*
G37*
G36*
G01*
X292276900Y-109863500D02*
X292276900Y-110603500D01*
G75*
G02*
X292226100Y-110654300I-50800J0D01*
G01*
X289826100Y-110654300D01*
G75*
G02*
X289775300Y-110603500I0J50800D01*
G01*
X289775300Y-109863500D01*
G75*
G02*
X289826100Y-109812700I50800J0D01*
G01*
X292226100Y-109812700D01*
G75*
G02*
X292276900Y-109863500I0J-50800D01*
G01*
G37*
G36*
G01*
X288376900Y-109863500D02*
X288376900Y-110603500D01*
G75*
G02*
X288326100Y-110654300I-50800J0D01*
G01*
X285926100Y-110654300D01*
G75*
G02*
X285875300Y-110603500I0J50800D01*
G01*
X285875300Y-109863500D01*
G75*
G02*
X285926100Y-109812700I50800J0D01*
G01*
X288326100Y-109812700D01*
G75*
G02*
X288376900Y-109863500I0J-50800D01*
G01*
G37*
G36*
G01*
X292276900Y-108593500D02*
X292276900Y-109333500D01*
G75*
G02*
X292226100Y-109384300I-50800J0D01*
G01*
X289826100Y-109384300D01*
G75*
G02*
X289775300Y-109333500I0J50800D01*
G01*
X289775300Y-108593500D01*
G75*
G02*
X289826100Y-108542700I50800J0D01*
G01*
X292226100Y-108542700D01*
G75*
G02*
X292276900Y-108593500I0J-50800D01*
G01*
G37*
G36*
G01*
X288376900Y-108593500D02*
X288376900Y-109333500D01*
G75*
G02*
X288326100Y-109384300I-50800J0D01*
G01*
X285926100Y-109384300D01*
G75*
G02*
X285875300Y-109333500I0J50800D01*
G01*
X285875300Y-108593500D01*
G75*
G02*
X285926100Y-108542700I50800J0D01*
G01*
X288326100Y-108542700D01*
G75*
G02*
X288376900Y-108593500I0J-50800D01*
G01*
G37*
G36*
G01*
X292276900Y-107323500D02*
X292276900Y-108063500D01*
G75*
G02*
X292226100Y-108114300I-50800J0D01*
G01*
X289826100Y-108114300D01*
G75*
G02*
X289775300Y-108063500I0J50800D01*
G01*
X289775300Y-107323500D01*
G75*
G02*
X289826100Y-107272700I50800J0D01*
G01*
X292226100Y-107272700D01*
G75*
G02*
X292276900Y-107323500I0J-50800D01*
G01*
G37*
G36*
G01*
X288376900Y-107323500D02*
X288376900Y-108063500D01*
G75*
G02*
X288326100Y-108114300I-50800J0D01*
G01*
X285926100Y-108114300D01*
G75*
G02*
X285875300Y-108063500I0J50800D01*
G01*
X285875300Y-107323500D01*
G75*
G02*
X285926100Y-107272700I50800J0D01*
G01*
X288326100Y-107272700D01*
G75*
G02*
X288376900Y-107323500I0J-50800D01*
G01*
G37*
G36*
G01*
X292276900Y-106053500D02*
X292276900Y-106793500D01*
G75*
G02*
X292226100Y-106844300I-50800J0D01*
G01*
X289826100Y-106844300D01*
G75*
G02*
X289775300Y-106793500I0J50800D01*
G01*
X289775300Y-106053500D01*
G75*
G02*
X289826100Y-106002700I50800J0D01*
G01*
X292226100Y-106002700D01*
G75*
G02*
X292276900Y-106053500I0J-50800D01*
G01*
G37*
G36*
G01*
X288376900Y-106053500D02*
X288376900Y-106793500D01*
G75*
G02*
X288326100Y-106844300I-50800J0D01*
G01*
X285926100Y-106844300D01*
G75*
G02*
X285875300Y-106793500I0J50800D01*
G01*
X285875300Y-106053500D01*
G75*
G02*
X285926100Y-106002700I50800J0D01*
G01*
X288326100Y-106002700D01*
G75*
G02*
X288376900Y-106053500I0J-50800D01*
G01*
G37*
G36*
G01*
X292276900Y-104783500D02*
X292276900Y-105523500D01*
G75*
G02*
X292226100Y-105574300I-50800J0D01*
G01*
X289826100Y-105574300D01*
G75*
G02*
X289775300Y-105523500I0J50800D01*
G01*
X289775300Y-104783500D01*
G75*
G02*
X289826100Y-104732700I50800J0D01*
G01*
X292226100Y-104732700D01*
G75*
G02*
X292276900Y-104783500I0J-50800D01*
G01*
G37*
G36*
G01*
X288376900Y-104783500D02*
X288376900Y-105523500D01*
G75*
G02*
X288326100Y-105574300I-50800J0D01*
G01*
X285926100Y-105574300D01*
G75*
G02*
X285875300Y-105523500I0J50800D01*
G01*
X285875300Y-104783500D01*
G75*
G02*
X285926100Y-104732700I50800J0D01*
G01*
X288326100Y-104732700D01*
G75*
G02*
X288376900Y-104783500I0J-50800D01*
G01*
G37*
G36*
G01*
X292276900Y-103513500D02*
X292276900Y-104253500D01*
G75*
G02*
X292226100Y-104304300I-50800J0D01*
G01*
X289826100Y-104304300D01*
G75*
G02*
X289775300Y-104253500I0J50800D01*
G01*
X289775300Y-103513500D01*
G75*
G02*
X289826100Y-103462700I50800J0D01*
G01*
X292226100Y-103462700D01*
G75*
G02*
X292276900Y-103513500I0J-50800D01*
G01*
G37*
G36*
G01*
X288376900Y-103513500D02*
X288376900Y-104253500D01*
G75*
G02*
X288326100Y-104304300I-50800J0D01*
G01*
X285926100Y-104304300D01*
G75*
G02*
X285875300Y-104253500I0J50800D01*
G01*
X285875300Y-103513500D01*
G75*
G02*
X285926100Y-103462700I50800J0D01*
G01*
X288326100Y-103462700D01*
G75*
G02*
X288376900Y-103513500I0J-50800D01*
G01*
G37*
G36*
G01*
X292276900Y-102243500D02*
X292276900Y-102983500D01*
G75*
G02*
X292226100Y-103034300I-50800J0D01*
G01*
X289826100Y-103034300D01*
G75*
G02*
X289775300Y-102983500I0J50800D01*
G01*
X289775300Y-102243500D01*
G75*
G02*
X289826100Y-102192700I50800J0D01*
G01*
X292226100Y-102192700D01*
G75*
G02*
X292276900Y-102243500I0J-50800D01*
G01*
G37*
G36*
G01*
X288376900Y-102243500D02*
X288376900Y-102983500D01*
G75*
G02*
X288326100Y-103034300I-50800J0D01*
G01*
X285926100Y-103034300D01*
G75*
G02*
X285875300Y-102983500I0J50800D01*
G01*
X285875300Y-102243500D01*
G75*
G02*
X285926100Y-102192700I50800J0D01*
G01*
X288326100Y-102192700D01*
G75*
G02*
X288376900Y-102243500I0J-50800D01*
G01*
G37*
X314096000Y-115500000D03*
D11*
X279203200Y-110398600D03*
G36*
G01*
X277502400Y-110874000D02*
X277502400Y-109923200D01*
G75*
G02*
X277727800Y-109697800I225400J0D01*
G01*
X278178600Y-109697800D01*
G75*
G02*
X278404000Y-109923200I0J-225400D01*
G01*
X278404000Y-110874000D01*
G75*
G02*
X278178600Y-111099400I-225400J0D01*
G01*
X277727800Y-111099400D01*
G75*
G02*
X277502400Y-110874000I0J225400D01*
G01*
G37*
G36*
G01*
X293861750Y-100766200D02*
X294425050Y-100766200D01*
G75*
G02*
X294669200Y-101010350I0J-244150D01*
G01*
X294669200Y-101498650D01*
G75*
G02*
X294425050Y-101742800I-244150J0D01*
G01*
X293861750Y-101742800D01*
G75*
G02*
X293617600Y-101498650I0J244150D01*
G01*
X293617600Y-101010350D01*
G75*
G02*
X293861750Y-100766200I244150J0D01*
G01*
G37*
G36*
G01*
X293861750Y-102341200D02*
X294425050Y-102341200D01*
G75*
G02*
X294669200Y-102585350I0J-244150D01*
G01*
X294669200Y-103073650D01*
G75*
G02*
X294425050Y-103317800I-244150J0D01*
G01*
X293861750Y-103317800D01*
G75*
G02*
X293617600Y-103073650I0J244150D01*
G01*
X293617600Y-102585350D01*
G75*
G02*
X293861750Y-102341200I244150J0D01*
G01*
G37*
G36*
G01*
X297517600Y-116487400D02*
X297517600Y-115536600D01*
G75*
G02*
X297743000Y-115311200I225400J0D01*
G01*
X298193800Y-115311200D01*
G75*
G02*
X298419200Y-115536600I0J-225400D01*
G01*
X298419200Y-116487400D01*
G75*
G02*
X298193800Y-116712800I-225400J0D01*
G01*
X297743000Y-116712800D01*
G75*
G02*
X297517600Y-116487400I0J225400D01*
G01*
G37*
X299218400Y-116012000D03*
G36*
G01*
X295464250Y-100766200D02*
X296027550Y-100766200D01*
G75*
G02*
X296271700Y-101010350I0J-244150D01*
G01*
X296271700Y-101498650D01*
G75*
G02*
X296027550Y-101742800I-244150J0D01*
G01*
X295464250Y-101742800D01*
G75*
G02*
X295220100Y-101498650I0J244150D01*
G01*
X295220100Y-101010350D01*
G75*
G02*
X295464250Y-100766200I244150J0D01*
G01*
G37*
G36*
G01*
X295464250Y-102341200D02*
X296027550Y-102341200D01*
G75*
G02*
X296271700Y-102585350I0J-244150D01*
G01*
X296271700Y-103073650D01*
G75*
G02*
X296027550Y-103317800I-244150J0D01*
G01*
X295464250Y-103317800D01*
G75*
G02*
X295220100Y-103073650I0J244150D01*
G01*
X295220100Y-102585350D01*
G75*
G02*
X295464250Y-102341200I244150J0D01*
G01*
G37*
G36*
G01*
X277400800Y-104778000D02*
X277400800Y-103827200D01*
G75*
G02*
X277626200Y-103601800I225400J0D01*
G01*
X278077000Y-103601800D01*
G75*
G02*
X278302400Y-103827200I0J-225400D01*
G01*
X278302400Y-104778000D01*
G75*
G02*
X278077000Y-105003400I-225400J0D01*
G01*
X277626200Y-105003400D01*
G75*
G02*
X277400800Y-104778000I0J225400D01*
G01*
G37*
X279101600Y-104302600D03*
G36*
G01*
X285371300Y-116844500D02*
X285371300Y-114544500D01*
G75*
G02*
X285422100Y-114493700I50800J0D01*
G01*
X287922100Y-114493700D01*
G75*
G02*
X287972900Y-114544500I0J-50800D01*
G01*
X287972900Y-116844500D01*
G75*
G02*
X287922100Y-116895300I-50800J0D01*
G01*
X285422100Y-116895300D01*
G75*
G02*
X285371300Y-116844500I0J50800D01*
G01*
G37*
G36*
G01*
X289671300Y-116844500D02*
X289671300Y-114544500D01*
G75*
G02*
X289722100Y-114493700I50800J0D01*
G01*
X292222100Y-114493700D01*
G75*
G02*
X292272900Y-114544500I0J-50800D01*
G01*
X292272900Y-116844500D01*
G75*
G02*
X292222100Y-116895300I-50800J0D01*
G01*
X289722100Y-116895300D01*
G75*
G02*
X289671300Y-116844500I0J50800D01*
G01*
G37*
X277846200Y-97520800D03*
G36*
G01*
X279547000Y-97045400D02*
X279547000Y-97996200D01*
G75*
G02*
X279321600Y-98221600I-225400J0D01*
G01*
X278870800Y-98221600D01*
G75*
G02*
X278645400Y-97996200I0J225400D01*
G01*
X278645400Y-97045400D01*
G75*
G02*
X278870800Y-96820000I225400J0D01*
G01*
X279321600Y-96820000D01*
G75*
G02*
X279547000Y-97045400I0J-225400D01*
G01*
G37*
G36*
G01*
X287014600Y-97045400D02*
X287014600Y-97996200D01*
G75*
G02*
X286789200Y-98221600I-225400J0D01*
G01*
X286338400Y-98221600D01*
G75*
G02*
X286113000Y-97996200I0J225400D01*
G01*
X286113000Y-97045400D01*
G75*
G02*
X286338400Y-96820000I225400J0D01*
G01*
X286789200Y-96820000D01*
G75*
G02*
X287014600Y-97045400I0J-225400D01*
G01*
G37*
X285313800Y-97520800D03*
G36*
G01*
X294053600Y-98307300D02*
X292353600Y-98307300D01*
G75*
G02*
X292302800Y-98256500I0J50800D01*
G01*
X292302800Y-96556500D01*
G75*
G02*
X292353600Y-96505700I50800J0D01*
G01*
X294053600Y-96505700D01*
G75*
G02*
X294104400Y-96556500I0J-50800D01*
G01*
X294104400Y-98256500D01*
G75*
G02*
X294053600Y-98307300I-50800J0D01*
G01*
G37*
D10*
X295743600Y-97406500D03*
X298283600Y-97406500D03*
D21*
X269550251Y-123406812D03*
D22*
X279650251Y-134506811D03*
X279650251Y-133906811D03*
X280450251Y-134506811D03*
X280450251Y-133906811D03*
X280450251Y-133306811D03*
X279650251Y-133306811D03*
X280450251Y-132706811D03*
X279650251Y-132706811D03*
X279650251Y-132106811D03*
X280450251Y-132106811D03*
D23*
X274550251Y-123880532D03*
X291050251Y-133406811D03*
G36*
G01*
X272499451Y-140906811D02*
X272499451Y-125906811D01*
G75*
G02*
X272550251Y-125856011I50800J0D01*
G01*
X287550251Y-125856011D01*
G75*
G02*
X287601051Y-125906811I0J-50800D01*
G01*
X287601051Y-140906811D01*
G75*
G02*
X287550251Y-140957611I-50800J0D01*
G01*
X272550251Y-140957611D01*
G75*
G02*
X272499451Y-140906811I0J50800D01*
G01*
G37*
D21*
X269550251Y-143406811D03*
X290550251Y-143406811D03*
X290550251Y-123406811D03*
D24*
X203500000Y-97500000D03*
X261500000Y-97500000D03*
X203500000Y-146500000D03*
X261500000Y-146500000D03*
D25*
X203500000Y-165500000D03*
M02*
