G04 #@! TF.GenerationSoftware,KiCad,Pcbnew,(5.1.10-1-10_14)*
G04 #@! TF.CreationDate,2022-08-23T22:17:00-07:00*
G04 #@! TF.ProjectId,ulc-mm,756c632d-6d6d-42e6-9b69-6361645f7063,rev?*
G04 #@! TF.SameCoordinates,Original*
G04 #@! TF.FileFunction,Legend,Bot*
G04 #@! TF.FilePolarity,Positive*
%FSLAX46Y46*%
G04 Gerber Fmt 4.6, Leading zero omitted, Abs format (unit mm)*
G04 Created by KiCad (PCBNEW (5.1.10-1-10_14)) date 2022-08-23 22:17:00*
%MOMM*%
%LPD*%
G01*
G04 APERTURE LIST*
%ADD10C,0.100000*%
%ADD11C,0.130000*%
%ADD12C,0.150000*%
%ADD13C,0.010000*%
%ADD14C,0.120000*%
G04 APERTURE END LIST*
D10*
X305244885Y-138930085D02*
X305173457Y-138953895D01*
X305149647Y-138977704D01*
X305125838Y-139025323D01*
X305125838Y-139096752D01*
X305149647Y-139144371D01*
X305173457Y-139168180D01*
X305221076Y-139191990D01*
X305411552Y-139191990D01*
X305411552Y-138691990D01*
X305244885Y-138691990D01*
X305197266Y-138715800D01*
X305173457Y-138739609D01*
X305149647Y-138787228D01*
X305149647Y-138834847D01*
X305173457Y-138882466D01*
X305197266Y-138906276D01*
X305244885Y-138930085D01*
X305411552Y-138930085D01*
X304911552Y-139191990D02*
X304911552Y-138858657D01*
X304911552Y-138691990D02*
X304935361Y-138715800D01*
X304911552Y-138739609D01*
X304887742Y-138715800D01*
X304911552Y-138691990D01*
X304911552Y-138739609D01*
X304602028Y-139191990D02*
X304649647Y-139168180D01*
X304673457Y-139144371D01*
X304697266Y-139096752D01*
X304697266Y-138953895D01*
X304673457Y-138906276D01*
X304649647Y-138882466D01*
X304602028Y-138858657D01*
X304530600Y-138858657D01*
X304482980Y-138882466D01*
X304459171Y-138906276D01*
X304435361Y-138953895D01*
X304435361Y-139096752D01*
X304459171Y-139144371D01*
X304482980Y-139168180D01*
X304530600Y-139191990D01*
X304602028Y-139191990D01*
X304030600Y-139168180D02*
X304078219Y-139191990D01*
X304173457Y-139191990D01*
X304221076Y-139168180D01*
X304244885Y-139120561D01*
X304244885Y-138930085D01*
X304221076Y-138882466D01*
X304173457Y-138858657D01*
X304078219Y-138858657D01*
X304030600Y-138882466D01*
X304006790Y-138930085D01*
X304006790Y-138977704D01*
X304244885Y-139025323D01*
X303792504Y-138858657D02*
X303792504Y-139191990D01*
X303792504Y-138906276D02*
X303768695Y-138882466D01*
X303721076Y-138858657D01*
X303649647Y-138858657D01*
X303602028Y-138882466D01*
X303578219Y-138930085D01*
X303578219Y-139191990D01*
X303125838Y-138858657D02*
X303125838Y-139263419D01*
X303149647Y-139311038D01*
X303173457Y-139334847D01*
X303221076Y-139358657D01*
X303292504Y-139358657D01*
X303340123Y-139334847D01*
X303125838Y-139168180D02*
X303173457Y-139191990D01*
X303268695Y-139191990D01*
X303316314Y-139168180D01*
X303340123Y-139144371D01*
X303363933Y-139096752D01*
X303363933Y-138953895D01*
X303340123Y-138906276D01*
X303316314Y-138882466D01*
X303268695Y-138858657D01*
X303173457Y-138858657D01*
X303125838Y-138882466D01*
X302887742Y-139191990D02*
X302887742Y-138858657D01*
X302887742Y-138691990D02*
X302911552Y-138715800D01*
X302887742Y-138739609D01*
X302863933Y-138715800D01*
X302887742Y-138691990D01*
X302887742Y-138739609D01*
X302649647Y-138858657D02*
X302649647Y-139191990D01*
X302649647Y-138906276D02*
X302625838Y-138882466D01*
X302578219Y-138858657D01*
X302506790Y-138858657D01*
X302459171Y-138882466D01*
X302435361Y-138930085D01*
X302435361Y-139191990D01*
X302006790Y-139168180D02*
X302054409Y-139191990D01*
X302149647Y-139191990D01*
X302197266Y-139168180D01*
X302221076Y-139120561D01*
X302221076Y-138930085D01*
X302197266Y-138882466D01*
X302149647Y-138858657D01*
X302054409Y-138858657D01*
X302006790Y-138882466D01*
X301982980Y-138930085D01*
X301982980Y-138977704D01*
X302221076Y-139025323D01*
X301578219Y-139168180D02*
X301625838Y-139191990D01*
X301721076Y-139191990D01*
X301768695Y-139168180D01*
X301792504Y-139120561D01*
X301792504Y-138930085D01*
X301768695Y-138882466D01*
X301721076Y-138858657D01*
X301625838Y-138858657D01*
X301578219Y-138882466D01*
X301554409Y-138930085D01*
X301554409Y-138977704D01*
X301792504Y-139025323D01*
X301340123Y-139191990D02*
X301340123Y-138858657D01*
X301340123Y-138953895D02*
X301316314Y-138906276D01*
X301292504Y-138882466D01*
X301244885Y-138858657D01*
X301197266Y-138858657D01*
X301030600Y-139191990D02*
X301030600Y-138858657D01*
X301030600Y-138691990D02*
X301054409Y-138715800D01*
X301030600Y-138739609D01*
X301006790Y-138715800D01*
X301030600Y-138691990D01*
X301030600Y-138739609D01*
X300792504Y-138858657D02*
X300792504Y-139191990D01*
X300792504Y-138906276D02*
X300768695Y-138882466D01*
X300721076Y-138858657D01*
X300649647Y-138858657D01*
X300602028Y-138882466D01*
X300578219Y-138930085D01*
X300578219Y-139191990D01*
X300125838Y-138858657D02*
X300125838Y-139263419D01*
X300149647Y-139311038D01*
X300173457Y-139334847D01*
X300221076Y-139358657D01*
X300292504Y-139358657D01*
X300340123Y-139334847D01*
X300125838Y-139168180D02*
X300173457Y-139191990D01*
X300268695Y-139191990D01*
X300316314Y-139168180D01*
X300340123Y-139144371D01*
X300363933Y-139096752D01*
X300363933Y-138953895D01*
X300340123Y-138906276D01*
X300316314Y-138882466D01*
X300268695Y-138858657D01*
X300173457Y-138858657D01*
X300125838Y-138882466D01*
X299506790Y-139191990D02*
X299506790Y-138691990D01*
X299316314Y-138691990D01*
X299268695Y-138715800D01*
X299244885Y-138739609D01*
X299221076Y-138787228D01*
X299221076Y-138858657D01*
X299244885Y-138906276D01*
X299268695Y-138930085D01*
X299316314Y-138953895D01*
X299506790Y-138953895D01*
X298935361Y-139191990D02*
X298982980Y-139168180D01*
X299006790Y-139120561D01*
X299006790Y-138691990D01*
X298530600Y-139191990D02*
X298530600Y-138930085D01*
X298554409Y-138882466D01*
X298602028Y-138858657D01*
X298697266Y-138858657D01*
X298744885Y-138882466D01*
X298530600Y-139168180D02*
X298578219Y-139191990D01*
X298697266Y-139191990D01*
X298744885Y-139168180D01*
X298768695Y-139120561D01*
X298768695Y-139072942D01*
X298744885Y-139025323D01*
X298697266Y-139001514D01*
X298578219Y-139001514D01*
X298530600Y-138977704D01*
X298363933Y-138858657D02*
X298173457Y-138858657D01*
X298292504Y-138691990D02*
X298292504Y-139120561D01*
X298268695Y-139168180D01*
X298221076Y-139191990D01*
X298173457Y-139191990D01*
X298078219Y-138858657D02*
X297887742Y-138858657D01*
X298006790Y-139191990D02*
X298006790Y-138763419D01*
X297982980Y-138715800D01*
X297935361Y-138691990D01*
X297887742Y-138691990D01*
X297649647Y-139191990D02*
X297697266Y-139168180D01*
X297721076Y-139144371D01*
X297744885Y-139096752D01*
X297744885Y-138953895D01*
X297721076Y-138906276D01*
X297697266Y-138882466D01*
X297649647Y-138858657D01*
X297578219Y-138858657D01*
X297530600Y-138882466D01*
X297506790Y-138906276D01*
X297482980Y-138953895D01*
X297482980Y-139096752D01*
X297506790Y-139144371D01*
X297530600Y-139168180D01*
X297578219Y-139191990D01*
X297649647Y-139191990D01*
X297268695Y-139191990D02*
X297268695Y-138858657D01*
X297268695Y-138953895D02*
X297244885Y-138906276D01*
X297221076Y-138882466D01*
X297173457Y-138858657D01*
X297125838Y-138858657D01*
X296959171Y-139191990D02*
X296959171Y-138858657D01*
X296959171Y-138906276D02*
X296935361Y-138882466D01*
X296887742Y-138858657D01*
X296816314Y-138858657D01*
X296768695Y-138882466D01*
X296744885Y-138930085D01*
X296744885Y-139191990D01*
X296744885Y-138930085D02*
X296721076Y-138882466D01*
X296673457Y-138858657D01*
X296602028Y-138858657D01*
X296554409Y-138882466D01*
X296530600Y-138930085D01*
X296530600Y-139191990D01*
X305125838Y-139994371D02*
X305149647Y-140018180D01*
X305221076Y-140041990D01*
X305268695Y-140041990D01*
X305340123Y-140018180D01*
X305387742Y-139970561D01*
X305411552Y-139922942D01*
X305435361Y-139827704D01*
X305435361Y-139756276D01*
X305411552Y-139661038D01*
X305387742Y-139613419D01*
X305340123Y-139565800D01*
X305268695Y-139541990D01*
X305221076Y-139541990D01*
X305149647Y-139565800D01*
X305125838Y-139589609D01*
X304911552Y-140041990D02*
X304911552Y-139541990D01*
X304697266Y-140041990D02*
X304697266Y-139780085D01*
X304721076Y-139732466D01*
X304768695Y-139708657D01*
X304840123Y-139708657D01*
X304887742Y-139732466D01*
X304911552Y-139756276D01*
X304244885Y-140041990D02*
X304244885Y-139780085D01*
X304268695Y-139732466D01*
X304316314Y-139708657D01*
X304411552Y-139708657D01*
X304459171Y-139732466D01*
X304244885Y-140018180D02*
X304292504Y-140041990D01*
X304411552Y-140041990D01*
X304459171Y-140018180D01*
X304482980Y-139970561D01*
X304482980Y-139922942D01*
X304459171Y-139875323D01*
X304411552Y-139851514D01*
X304292504Y-139851514D01*
X304244885Y-139827704D01*
X304006790Y-139708657D02*
X304006790Y-140041990D01*
X304006790Y-139756276D02*
X303982980Y-139732466D01*
X303935361Y-139708657D01*
X303863933Y-139708657D01*
X303816314Y-139732466D01*
X303792504Y-139780085D01*
X303792504Y-140041990D01*
X303221076Y-139541990D02*
X302887742Y-139541990D01*
X303221076Y-140041990D01*
X302887742Y-140041990D01*
X302482980Y-139708657D02*
X302482980Y-140041990D01*
X302697266Y-139708657D02*
X302697266Y-139970561D01*
X302673457Y-140018180D01*
X302625838Y-140041990D01*
X302554409Y-140041990D01*
X302506790Y-140018180D01*
X302482980Y-139994371D01*
X302030600Y-140018180D02*
X302078219Y-140041990D01*
X302173457Y-140041990D01*
X302221076Y-140018180D01*
X302244885Y-139994371D01*
X302268695Y-139946752D01*
X302268695Y-139803895D01*
X302244885Y-139756276D01*
X302221076Y-139732466D01*
X302173457Y-139708657D01*
X302078219Y-139708657D01*
X302030600Y-139732466D01*
X301816314Y-140041990D02*
X301816314Y-139541990D01*
X301768695Y-139851514D02*
X301625838Y-140041990D01*
X301625838Y-139708657D02*
X301816314Y-139899133D01*
X301221076Y-140018180D02*
X301268695Y-140041990D01*
X301363933Y-140041990D01*
X301411552Y-140018180D01*
X301435361Y-139970561D01*
X301435361Y-139780085D01*
X301411552Y-139732466D01*
X301363933Y-139708657D01*
X301268695Y-139708657D01*
X301221076Y-139732466D01*
X301197266Y-139780085D01*
X301197266Y-139827704D01*
X301435361Y-139875323D01*
X300982980Y-140041990D02*
X300982980Y-139708657D01*
X300982980Y-139803895D02*
X300959171Y-139756276D01*
X300935361Y-139732466D01*
X300887742Y-139708657D01*
X300840123Y-139708657D01*
X300673457Y-140041990D02*
X300673457Y-139541990D01*
X300673457Y-139732466D02*
X300625838Y-139708657D01*
X300530600Y-139708657D01*
X300482980Y-139732466D01*
X300459171Y-139756276D01*
X300435361Y-139803895D01*
X300435361Y-139946752D01*
X300459171Y-139994371D01*
X300482980Y-140018180D01*
X300530600Y-140041990D01*
X300625838Y-140041990D01*
X300673457Y-140018180D01*
X300030600Y-140018180D02*
X300078219Y-140041990D01*
X300173457Y-140041990D01*
X300221076Y-140018180D01*
X300244885Y-139970561D01*
X300244885Y-139780085D01*
X300221076Y-139732466D01*
X300173457Y-139708657D01*
X300078219Y-139708657D01*
X300030600Y-139732466D01*
X300006790Y-139780085D01*
X300006790Y-139827704D01*
X300244885Y-139875323D01*
X299792504Y-140041990D02*
X299792504Y-139708657D01*
X299792504Y-139803895D02*
X299768695Y-139756276D01*
X299744885Y-139732466D01*
X299697266Y-139708657D01*
X299649647Y-139708657D01*
X299268695Y-139708657D02*
X299268695Y-140113419D01*
X299292504Y-140161038D01*
X299316314Y-140184847D01*
X299363933Y-140208657D01*
X299435361Y-140208657D01*
X299482980Y-140184847D01*
X299268695Y-140018180D02*
X299316314Y-140041990D01*
X299411552Y-140041990D01*
X299459171Y-140018180D01*
X299482980Y-139994371D01*
X299506790Y-139946752D01*
X299506790Y-139803895D01*
X299482980Y-139756276D01*
X299459171Y-139732466D01*
X299411552Y-139708657D01*
X299316314Y-139708657D01*
X299268695Y-139732466D01*
X298482980Y-139780085D02*
X298411552Y-139803895D01*
X298387742Y-139827704D01*
X298363933Y-139875323D01*
X298363933Y-139946752D01*
X298387742Y-139994371D01*
X298411552Y-140018180D01*
X298459171Y-140041990D01*
X298649647Y-140041990D01*
X298649647Y-139541990D01*
X298482980Y-139541990D01*
X298435361Y-139565800D01*
X298411552Y-139589609D01*
X298387742Y-139637228D01*
X298387742Y-139684847D01*
X298411552Y-139732466D01*
X298435361Y-139756276D01*
X298482980Y-139780085D01*
X298649647Y-139780085D01*
X298149647Y-140041990D02*
X298149647Y-139708657D01*
X298149647Y-139541990D02*
X298173457Y-139565800D01*
X298149647Y-139589609D01*
X298125838Y-139565800D01*
X298149647Y-139541990D01*
X298149647Y-139589609D01*
X297840123Y-140041990D02*
X297887742Y-140018180D01*
X297911552Y-139994371D01*
X297935361Y-139946752D01*
X297935361Y-139803895D01*
X297911552Y-139756276D01*
X297887742Y-139732466D01*
X297840123Y-139708657D01*
X297768695Y-139708657D01*
X297721076Y-139732466D01*
X297697266Y-139756276D01*
X297673457Y-139803895D01*
X297673457Y-139946752D01*
X297697266Y-139994371D01*
X297721076Y-140018180D01*
X297768695Y-140041990D01*
X297840123Y-140041990D01*
X297459171Y-140041990D02*
X297459171Y-139541990D01*
X297244885Y-140041990D02*
X297244885Y-139780085D01*
X297268695Y-139732466D01*
X297316314Y-139708657D01*
X297387742Y-139708657D01*
X297435361Y-139732466D01*
X297459171Y-139756276D01*
X296792504Y-139708657D02*
X296792504Y-140041990D01*
X297006790Y-139708657D02*
X297006790Y-139970561D01*
X296982980Y-140018180D01*
X296935361Y-140041990D01*
X296863933Y-140041990D01*
X296816314Y-140018180D01*
X296792504Y-139994371D01*
X296554409Y-140041990D02*
X296554409Y-139541990D01*
X296554409Y-139732466D02*
X296506790Y-139708657D01*
X296411552Y-139708657D01*
X296363933Y-139732466D01*
X296340123Y-139756276D01*
X296316314Y-139803895D01*
X296316314Y-139946752D01*
X296340123Y-139994371D01*
X296363933Y-140018180D01*
X296411552Y-140041990D01*
X296506790Y-140041990D01*
X296554409Y-140018180D01*
X305173457Y-140891990D02*
X305411552Y-140891990D01*
X305411552Y-140391990D01*
X304792504Y-140891990D02*
X304792504Y-140630085D01*
X304816314Y-140582466D01*
X304863933Y-140558657D01*
X304959171Y-140558657D01*
X305006790Y-140582466D01*
X304792504Y-140868180D02*
X304840123Y-140891990D01*
X304959171Y-140891990D01*
X305006790Y-140868180D01*
X305030600Y-140820561D01*
X305030600Y-140772942D01*
X305006790Y-140725323D01*
X304959171Y-140701514D01*
X304840123Y-140701514D01*
X304792504Y-140677704D01*
X304554409Y-140891990D02*
X304554409Y-140391990D01*
X304554409Y-140582466D02*
X304506790Y-140558657D01*
X304411552Y-140558657D01*
X304363933Y-140582466D01*
X304340123Y-140606276D01*
X304316314Y-140653895D01*
X304316314Y-140796752D01*
X304340123Y-140844371D01*
X304363933Y-140868180D01*
X304411552Y-140891990D01*
X304506790Y-140891990D01*
X304554409Y-140868180D01*
X303911552Y-140868180D02*
X303959171Y-140891990D01*
X304054409Y-140891990D01*
X304102028Y-140868180D01*
X304125838Y-140820561D01*
X304125838Y-140630085D01*
X304102028Y-140582466D01*
X304054409Y-140558657D01*
X303959171Y-140558657D01*
X303911552Y-140582466D01*
X303887742Y-140630085D01*
X303887742Y-140677704D01*
X304125838Y-140725323D01*
X303602028Y-140891990D02*
X303649647Y-140868180D01*
X303673457Y-140820561D01*
X303673457Y-140391990D01*
X302863933Y-140630085D02*
X303030600Y-140630085D01*
X303030600Y-140891990D02*
X303030600Y-140391990D01*
X302792504Y-140391990D01*
X302602028Y-140891990D02*
X302602028Y-140558657D01*
X302602028Y-140653895D02*
X302578219Y-140606276D01*
X302554409Y-140582466D01*
X302506790Y-140558657D01*
X302459171Y-140558657D01*
X302102028Y-140868180D02*
X302149647Y-140891990D01*
X302244885Y-140891990D01*
X302292504Y-140868180D01*
X302316314Y-140820561D01*
X302316314Y-140630085D01*
X302292504Y-140582466D01*
X302244885Y-140558657D01*
X302149647Y-140558657D01*
X302102028Y-140582466D01*
X302078219Y-140630085D01*
X302078219Y-140677704D01*
X302316314Y-140725323D01*
X301673457Y-140868180D02*
X301721076Y-140891990D01*
X301816314Y-140891990D01*
X301863933Y-140868180D01*
X301887742Y-140820561D01*
X301887742Y-140630085D01*
X301863933Y-140582466D01*
X301816314Y-140558657D01*
X301721076Y-140558657D01*
X301673457Y-140582466D01*
X301649647Y-140630085D01*
X301649647Y-140677704D01*
X301887742Y-140725323D01*
X301054409Y-140891990D02*
X301054409Y-140391990D01*
X300887742Y-140749133D01*
X300721076Y-140391990D01*
X300721076Y-140891990D01*
X300268695Y-140891990D02*
X300268695Y-140630085D01*
X300292504Y-140582466D01*
X300340123Y-140558657D01*
X300435361Y-140558657D01*
X300482980Y-140582466D01*
X300268695Y-140868180D02*
X300316314Y-140891990D01*
X300435361Y-140891990D01*
X300482980Y-140868180D01*
X300506790Y-140820561D01*
X300506790Y-140772942D01*
X300482980Y-140725323D01*
X300435361Y-140701514D01*
X300316314Y-140701514D01*
X300268695Y-140677704D01*
X299959171Y-140891990D02*
X300006790Y-140868180D01*
X300030600Y-140820561D01*
X300030600Y-140391990D01*
X299554409Y-140891990D02*
X299554409Y-140630085D01*
X299578219Y-140582466D01*
X299625838Y-140558657D01*
X299721076Y-140558657D01*
X299768695Y-140582466D01*
X299554409Y-140868180D02*
X299602028Y-140891990D01*
X299721076Y-140891990D01*
X299768695Y-140868180D01*
X299792504Y-140820561D01*
X299792504Y-140772942D01*
X299768695Y-140725323D01*
X299721076Y-140701514D01*
X299602028Y-140701514D01*
X299554409Y-140677704D01*
X299316314Y-140891990D02*
X299316314Y-140558657D01*
X299316314Y-140653895D02*
X299292504Y-140606276D01*
X299268695Y-140582466D01*
X299221076Y-140558657D01*
X299173457Y-140558657D01*
X299006790Y-140891990D02*
X299006790Y-140558657D01*
X299006790Y-140391990D02*
X299030600Y-140415800D01*
X299006790Y-140439609D01*
X298982980Y-140415800D01*
X299006790Y-140391990D01*
X299006790Y-140439609D01*
X298554409Y-140891990D02*
X298554409Y-140630085D01*
X298578219Y-140582466D01*
X298625838Y-140558657D01*
X298721076Y-140558657D01*
X298768695Y-140582466D01*
X298554409Y-140868180D02*
X298602028Y-140891990D01*
X298721076Y-140891990D01*
X298768695Y-140868180D01*
X298792504Y-140820561D01*
X298792504Y-140772942D01*
X298768695Y-140725323D01*
X298721076Y-140701514D01*
X298602028Y-140701514D01*
X298554409Y-140677704D01*
X297959171Y-140868180D02*
X297887742Y-140891990D01*
X297768695Y-140891990D01*
X297721076Y-140868180D01*
X297697266Y-140844371D01*
X297673457Y-140796752D01*
X297673457Y-140749133D01*
X297697266Y-140701514D01*
X297721076Y-140677704D01*
X297768695Y-140653895D01*
X297863933Y-140630085D01*
X297911552Y-140606276D01*
X297935361Y-140582466D01*
X297959171Y-140534847D01*
X297959171Y-140487228D01*
X297935361Y-140439609D01*
X297911552Y-140415800D01*
X297863933Y-140391990D01*
X297744885Y-140391990D01*
X297673457Y-140415800D01*
X297244885Y-140868180D02*
X297292504Y-140891990D01*
X297387742Y-140891990D01*
X297435361Y-140868180D01*
X297459171Y-140844371D01*
X297482980Y-140796752D01*
X297482980Y-140653895D01*
X297459171Y-140606276D01*
X297435361Y-140582466D01*
X297387742Y-140558657D01*
X297292504Y-140558657D01*
X297244885Y-140582466D01*
X296959171Y-140891990D02*
X297006790Y-140868180D01*
X297030600Y-140844371D01*
X297054409Y-140796752D01*
X297054409Y-140653895D01*
X297030600Y-140606276D01*
X297006790Y-140582466D01*
X296959171Y-140558657D01*
X296887742Y-140558657D01*
X296840123Y-140582466D01*
X296816314Y-140606276D01*
X296792504Y-140653895D01*
X296792504Y-140796752D01*
X296816314Y-140844371D01*
X296840123Y-140868180D01*
X296887742Y-140891990D01*
X296959171Y-140891990D01*
X296578219Y-140558657D02*
X296578219Y-141058657D01*
X296578219Y-140582466D02*
X296530600Y-140558657D01*
X296435361Y-140558657D01*
X296387742Y-140582466D01*
X296363933Y-140606276D01*
X296340123Y-140653895D01*
X296340123Y-140796752D01*
X296363933Y-140844371D01*
X296387742Y-140868180D01*
X296435361Y-140891990D01*
X296530600Y-140891990D01*
X296578219Y-140868180D01*
X295935361Y-140868180D02*
X295982980Y-140891990D01*
X296078219Y-140891990D01*
X296125838Y-140868180D01*
X296149647Y-140820561D01*
X296149647Y-140630085D01*
X296125838Y-140582466D01*
X296078219Y-140558657D01*
X295982980Y-140558657D01*
X295935361Y-140582466D01*
X295911552Y-140630085D01*
X295911552Y-140677704D01*
X296149647Y-140725323D01*
X305173457Y-141241990D02*
X305411552Y-141241990D01*
X305435361Y-141480085D01*
X305411552Y-141456276D01*
X305363933Y-141432466D01*
X305244885Y-141432466D01*
X305197266Y-141456276D01*
X305173457Y-141480085D01*
X305149647Y-141527704D01*
X305149647Y-141646752D01*
X305173457Y-141694371D01*
X305197266Y-141718180D01*
X305244885Y-141741990D01*
X305363933Y-141741990D01*
X305411552Y-141718180D01*
X305435361Y-141694371D01*
X304935361Y-141551514D02*
X304554409Y-141551514D01*
X304221076Y-141241990D02*
X304173457Y-141241990D01*
X304125838Y-141265800D01*
X304102028Y-141289609D01*
X304078219Y-141337228D01*
X304054409Y-141432466D01*
X304054409Y-141551514D01*
X304078219Y-141646752D01*
X304102028Y-141694371D01*
X304125838Y-141718180D01*
X304173457Y-141741990D01*
X304221076Y-141741990D01*
X304268695Y-141718180D01*
X304292504Y-141694371D01*
X304316314Y-141646752D01*
X304340123Y-141551514D01*
X304340123Y-141432466D01*
X304316314Y-141337228D01*
X304292504Y-141289609D01*
X304268695Y-141265800D01*
X304221076Y-141241990D01*
X303744885Y-141241990D02*
X303697266Y-141241990D01*
X303649647Y-141265800D01*
X303625838Y-141289609D01*
X303602028Y-141337228D01*
X303578219Y-141432466D01*
X303578219Y-141551514D01*
X303602028Y-141646752D01*
X303625838Y-141694371D01*
X303649647Y-141718180D01*
X303697266Y-141741990D01*
X303744885Y-141741990D01*
X303792504Y-141718180D01*
X303816314Y-141694371D01*
X303840123Y-141646752D01*
X303863933Y-141551514D01*
X303863933Y-141432466D01*
X303840123Y-141337228D01*
X303816314Y-141289609D01*
X303792504Y-141265800D01*
X303744885Y-141241990D01*
X303268695Y-141241990D02*
X303221076Y-141241990D01*
X303173457Y-141265800D01*
X303149647Y-141289609D01*
X303125838Y-141337228D01*
X303102028Y-141432466D01*
X303102028Y-141551514D01*
X303125838Y-141646752D01*
X303149647Y-141694371D01*
X303173457Y-141718180D01*
X303221076Y-141741990D01*
X303268695Y-141741990D01*
X303316314Y-141718180D01*
X303340123Y-141694371D01*
X303363933Y-141646752D01*
X303387742Y-141551514D01*
X303387742Y-141432466D01*
X303363933Y-141337228D01*
X303340123Y-141289609D01*
X303316314Y-141265800D01*
X303268695Y-141241990D01*
X302863933Y-141741990D02*
X302768695Y-141741990D01*
X302721076Y-141718180D01*
X302697266Y-141694371D01*
X302649647Y-141622942D01*
X302625838Y-141527704D01*
X302625838Y-141337228D01*
X302649647Y-141289609D01*
X302673457Y-141265800D01*
X302721076Y-141241990D01*
X302816314Y-141241990D01*
X302863933Y-141265800D01*
X302887742Y-141289609D01*
X302911552Y-141337228D01*
X302911552Y-141456276D01*
X302887742Y-141503895D01*
X302863933Y-141527704D01*
X302816314Y-141551514D01*
X302721076Y-141551514D01*
X302673457Y-141527704D01*
X302649647Y-141503895D01*
X302625838Y-141456276D01*
X302030600Y-141741990D02*
X302030600Y-141241990D01*
X301863933Y-141599133D01*
X301697266Y-141241990D01*
X301697266Y-141741990D01*
X301459171Y-141741990D02*
X301459171Y-141241990D01*
X301268695Y-141241990D01*
X301221076Y-141265800D01*
X301197266Y-141289609D01*
X301173457Y-141337228D01*
X301173457Y-141408657D01*
X301197266Y-141456276D01*
X301221076Y-141480085D01*
X301268695Y-141503895D01*
X301459171Y-141503895D01*
X300673457Y-141741990D02*
X300840123Y-141503895D01*
X300959171Y-141741990D02*
X300959171Y-141241990D01*
X300768695Y-141241990D01*
X300721076Y-141265800D01*
X300697266Y-141289609D01*
X300673457Y-141337228D01*
X300673457Y-141408657D01*
X300697266Y-141456276D01*
X300721076Y-141480085D01*
X300768695Y-141503895D01*
X300959171Y-141503895D01*
X299911552Y-141480085D02*
X299840123Y-141503895D01*
X299816314Y-141527704D01*
X299792504Y-141575323D01*
X299792504Y-141646752D01*
X299816314Y-141694371D01*
X299840123Y-141718180D01*
X299887742Y-141741990D01*
X300078219Y-141741990D01*
X300078219Y-141241990D01*
X299911552Y-141241990D01*
X299863933Y-141265800D01*
X299840123Y-141289609D01*
X299816314Y-141337228D01*
X299816314Y-141384847D01*
X299840123Y-141432466D01*
X299863933Y-141456276D01*
X299911552Y-141480085D01*
X300078219Y-141480085D01*
X299506790Y-141741990D02*
X299554409Y-141718180D01*
X299578219Y-141694371D01*
X299602028Y-141646752D01*
X299602028Y-141503895D01*
X299578219Y-141456276D01*
X299554409Y-141432466D01*
X299506790Y-141408657D01*
X299435361Y-141408657D01*
X299387742Y-141432466D01*
X299363933Y-141456276D01*
X299340123Y-141503895D01*
X299340123Y-141646752D01*
X299363933Y-141694371D01*
X299387742Y-141718180D01*
X299435361Y-141741990D01*
X299506790Y-141741990D01*
X298911552Y-141741990D02*
X298911552Y-141480085D01*
X298935361Y-141432466D01*
X298982980Y-141408657D01*
X299078219Y-141408657D01*
X299125838Y-141432466D01*
X298911552Y-141718180D02*
X298959171Y-141741990D01*
X299078219Y-141741990D01*
X299125838Y-141718180D01*
X299149647Y-141670561D01*
X299149647Y-141622942D01*
X299125838Y-141575323D01*
X299078219Y-141551514D01*
X298959171Y-141551514D01*
X298911552Y-141527704D01*
X298673457Y-141741990D02*
X298673457Y-141408657D01*
X298673457Y-141503895D02*
X298649647Y-141456276D01*
X298625838Y-141432466D01*
X298578219Y-141408657D01*
X298530600Y-141408657D01*
X298149647Y-141741990D02*
X298149647Y-141241990D01*
X298149647Y-141718180D02*
X298197266Y-141741990D01*
X298292504Y-141741990D01*
X298340123Y-141718180D01*
X298363933Y-141694371D01*
X298387742Y-141646752D01*
X298387742Y-141503895D01*
X298363933Y-141456276D01*
X298340123Y-141432466D01*
X298292504Y-141408657D01*
X298197266Y-141408657D01*
X298149647Y-141432466D01*
X305411552Y-142330085D02*
X305244885Y-142330085D01*
X305173457Y-142591990D02*
X305411552Y-142591990D01*
X305411552Y-142091990D01*
X305173457Y-142091990D01*
X304959171Y-142591990D02*
X304959171Y-142258657D01*
X304959171Y-142306276D02*
X304935361Y-142282466D01*
X304887742Y-142258657D01*
X304816314Y-142258657D01*
X304768695Y-142282466D01*
X304744885Y-142330085D01*
X304744885Y-142591990D01*
X304744885Y-142330085D02*
X304721076Y-142282466D01*
X304673457Y-142258657D01*
X304602028Y-142258657D01*
X304554409Y-142282466D01*
X304530600Y-142330085D01*
X304530600Y-142591990D01*
X304292504Y-142591990D02*
X304292504Y-142258657D01*
X304292504Y-142091990D02*
X304316314Y-142115800D01*
X304292504Y-142139609D01*
X304268695Y-142115800D01*
X304292504Y-142091990D01*
X304292504Y-142139609D01*
X303982980Y-142591990D02*
X304030600Y-142568180D01*
X304054409Y-142520561D01*
X304054409Y-142091990D01*
X303840123Y-142258657D02*
X303721076Y-142591990D01*
X303602028Y-142258657D02*
X303721076Y-142591990D01*
X303768695Y-142711038D01*
X303792504Y-142734847D01*
X303840123Y-142758657D01*
X303030600Y-142591990D02*
X303030600Y-142091990D01*
X303030600Y-142330085D02*
X302744885Y-142330085D01*
X302744885Y-142591990D02*
X302744885Y-142091990D01*
X302292504Y-142258657D02*
X302292504Y-142591990D01*
X302506790Y-142258657D02*
X302506790Y-142520561D01*
X302482980Y-142568180D01*
X302435361Y-142591990D01*
X302363933Y-142591990D01*
X302316314Y-142568180D01*
X302292504Y-142544371D01*
X302102028Y-142258657D02*
X301982980Y-142591990D01*
X301863933Y-142258657D02*
X301982980Y-142591990D01*
X302030600Y-142711038D01*
X302054409Y-142734847D01*
X302102028Y-142758657D01*
X301673457Y-142258657D02*
X301673457Y-142591990D01*
X301673457Y-142306276D02*
X301649647Y-142282466D01*
X301602028Y-142258657D01*
X301530600Y-142258657D01*
X301482980Y-142282466D01*
X301459171Y-142330085D01*
X301459171Y-142591990D01*
X301221076Y-142591990D02*
X301221076Y-142091990D01*
X301006790Y-142591990D02*
X301006790Y-142330085D01*
X301030600Y-142282466D01*
X301078219Y-142258657D01*
X301149647Y-142258657D01*
X301197266Y-142282466D01*
X301221076Y-142306276D01*
X305340123Y-143156276D02*
X305387742Y-143132466D01*
X305411552Y-143108657D01*
X305435361Y-143061038D01*
X305435361Y-143037228D01*
X305411552Y-142989609D01*
X305387742Y-142965800D01*
X305340123Y-142941990D01*
X305244885Y-142941990D01*
X305197266Y-142965800D01*
X305173457Y-142989609D01*
X305149647Y-143037228D01*
X305149647Y-143061038D01*
X305173457Y-143108657D01*
X305197266Y-143132466D01*
X305244885Y-143156276D01*
X305340123Y-143156276D01*
X305387742Y-143180085D01*
X305411552Y-143203895D01*
X305435361Y-143251514D01*
X305435361Y-143346752D01*
X305411552Y-143394371D01*
X305387742Y-143418180D01*
X305340123Y-143441990D01*
X305244885Y-143441990D01*
X305197266Y-143418180D01*
X305173457Y-143394371D01*
X305149647Y-143346752D01*
X305149647Y-143251514D01*
X305173457Y-143203895D01*
X305197266Y-143180085D01*
X305244885Y-143156276D01*
X304578219Y-142918180D02*
X305006790Y-143561038D01*
X304435361Y-142989609D02*
X304411552Y-142965800D01*
X304363933Y-142941990D01*
X304244885Y-142941990D01*
X304197266Y-142965800D01*
X304173457Y-142989609D01*
X304149647Y-143037228D01*
X304149647Y-143084847D01*
X304173457Y-143156276D01*
X304459171Y-143441990D01*
X304149647Y-143441990D01*
X303840123Y-142941990D02*
X303792504Y-142941990D01*
X303744885Y-142965800D01*
X303721076Y-142989609D01*
X303697266Y-143037228D01*
X303673457Y-143132466D01*
X303673457Y-143251514D01*
X303697266Y-143346752D01*
X303721076Y-143394371D01*
X303744885Y-143418180D01*
X303792504Y-143441990D01*
X303840123Y-143441990D01*
X303887742Y-143418180D01*
X303911552Y-143394371D01*
X303935361Y-143346752D01*
X303959171Y-143251514D01*
X303959171Y-143132466D01*
X303935361Y-143037228D01*
X303911552Y-142989609D01*
X303887742Y-142965800D01*
X303840123Y-142941990D01*
X303482980Y-142989609D02*
X303459171Y-142965800D01*
X303411552Y-142941990D01*
X303292504Y-142941990D01*
X303244885Y-142965800D01*
X303221076Y-142989609D01*
X303197266Y-143037228D01*
X303197266Y-143084847D01*
X303221076Y-143156276D01*
X303506790Y-143441990D01*
X303197266Y-143441990D01*
X303006790Y-142989609D02*
X302982980Y-142965800D01*
X302935361Y-142941990D01*
X302816314Y-142941990D01*
X302768695Y-142965800D01*
X302744885Y-142989609D01*
X302721076Y-143037228D01*
X302721076Y-143084847D01*
X302744885Y-143156276D01*
X303030600Y-143441990D01*
X302721076Y-143441990D01*
X302125838Y-143251514D02*
X301744885Y-143251514D01*
X301125838Y-143108657D02*
X301125838Y-143608657D01*
X301125838Y-143132466D02*
X301078219Y-143108657D01*
X300982980Y-143108657D01*
X300935361Y-143132466D01*
X300911552Y-143156276D01*
X300887742Y-143203895D01*
X300887742Y-143346752D01*
X300911552Y-143394371D01*
X300935361Y-143418180D01*
X300982980Y-143441990D01*
X301078219Y-143441990D01*
X301125838Y-143418180D01*
X300459171Y-143418180D02*
X300506790Y-143441990D01*
X300602028Y-143441990D01*
X300649647Y-143418180D01*
X300673457Y-143394371D01*
X300697266Y-143346752D01*
X300697266Y-143203895D01*
X300673457Y-143156276D01*
X300649647Y-143132466D01*
X300602028Y-143108657D01*
X300506790Y-143108657D01*
X300459171Y-143132466D01*
X300244885Y-143441990D02*
X300244885Y-142941990D01*
X300244885Y-143132466D02*
X300197266Y-143108657D01*
X300102028Y-143108657D01*
X300054409Y-143132466D01*
X300030600Y-143156276D01*
X300006790Y-143203895D01*
X300006790Y-143346752D01*
X300030600Y-143394371D01*
X300054409Y-143418180D01*
X300102028Y-143441990D01*
X300197266Y-143441990D01*
X300244885Y-143418180D01*
X299411552Y-143251514D02*
X299030600Y-143251514D01*
X298482980Y-142941990D02*
X298316314Y-143441990D01*
X298149647Y-142941990D01*
X298006790Y-142989609D02*
X297982980Y-142965800D01*
X297935361Y-142941990D01*
X297816314Y-142941990D01*
X297768695Y-142965800D01*
X297744885Y-142989609D01*
X297721076Y-143037228D01*
X297721076Y-143084847D01*
X297744885Y-143156276D01*
X298030600Y-143441990D01*
X297721076Y-143441990D01*
X297506790Y-143394371D02*
X297482980Y-143418180D01*
X297506790Y-143441990D01*
X297530600Y-143418180D01*
X297506790Y-143394371D01*
X297506790Y-143441990D01*
X297006790Y-143441990D02*
X297292504Y-143441990D01*
X297149647Y-143441990D02*
X297149647Y-142941990D01*
X297197266Y-143013419D01*
X297244885Y-143061038D01*
X297292504Y-143084847D01*
D11*
X301177885Y-136551428D02*
X301177885Y-137015714D01*
X301463600Y-136765714D01*
X301463600Y-136872857D01*
X301499314Y-136944285D01*
X301535028Y-136980000D01*
X301606457Y-137015714D01*
X301785028Y-137015714D01*
X301856457Y-136980000D01*
X301892171Y-136944285D01*
X301927885Y-136872857D01*
X301927885Y-136658571D01*
X301892171Y-136587142D01*
X301856457Y-136551428D01*
X301177885Y-137230000D02*
X301927885Y-137480000D01*
X301177885Y-137730000D01*
X301177885Y-137908571D02*
X301177885Y-138372857D01*
X301463600Y-138122857D01*
X301463600Y-138230000D01*
X301499314Y-138301428D01*
X301535028Y-138337142D01*
X301606457Y-138372857D01*
X301785028Y-138372857D01*
X301856457Y-138337142D01*
X301892171Y-138301428D01*
X301927885Y-138230000D01*
X301927885Y-138015714D01*
X301892171Y-137944285D01*
X301856457Y-137908571D01*
X302503600Y-137018571D02*
X302467885Y-136947142D01*
X302467885Y-136840000D01*
X302503600Y-136732857D01*
X302575028Y-136661428D01*
X302646457Y-136625714D01*
X302789314Y-136590000D01*
X302896457Y-136590000D01*
X303039314Y-136625714D01*
X303110742Y-136661428D01*
X303182171Y-136732857D01*
X303217885Y-136840000D01*
X303217885Y-136911428D01*
X303182171Y-137018571D01*
X303146457Y-137054285D01*
X302896457Y-137054285D01*
X302896457Y-136911428D01*
X303217885Y-137375714D02*
X302467885Y-137375714D01*
X303217885Y-137804285D01*
X302467885Y-137804285D01*
X303217885Y-138161428D02*
X302467885Y-138161428D01*
X302467885Y-138340000D01*
X302503600Y-138447142D01*
X302575028Y-138518571D01*
X302646457Y-138554285D01*
X302789314Y-138590000D01*
X302896457Y-138590000D01*
X303039314Y-138554285D01*
X303110742Y-138518571D01*
X303182171Y-138447142D01*
X303217885Y-138340000D01*
X303217885Y-138161428D01*
X307077885Y-137199285D02*
X306720742Y-136949285D01*
X307077885Y-136770714D02*
X306327885Y-136770714D01*
X306327885Y-137056428D01*
X306363600Y-137127857D01*
X306399314Y-137163571D01*
X306470742Y-137199285D01*
X306577885Y-137199285D01*
X306649314Y-137163571D01*
X306685028Y-137127857D01*
X306720742Y-137056428D01*
X306720742Y-136770714D01*
X307042171Y-137485000D02*
X307077885Y-137592142D01*
X307077885Y-137770714D01*
X307042171Y-137842142D01*
X307006457Y-137877857D01*
X306935028Y-137913571D01*
X306863600Y-137913571D01*
X306792171Y-137877857D01*
X306756457Y-137842142D01*
X306720742Y-137770714D01*
X306685028Y-137627857D01*
X306649314Y-137556428D01*
X306613600Y-137520714D01*
X306542171Y-137485000D01*
X306470742Y-137485000D01*
X306399314Y-137520714D01*
X306363600Y-137556428D01*
X306327885Y-137627857D01*
X306327885Y-137806428D01*
X306363600Y-137913571D01*
X306327885Y-138127857D02*
X306327885Y-138556428D01*
X307077885Y-138342142D02*
X306327885Y-138342142D01*
X304362171Y-136707142D02*
X304397885Y-136814285D01*
X304397885Y-136992857D01*
X304362171Y-137064285D01*
X304326457Y-137100000D01*
X304255028Y-137135714D01*
X304183600Y-137135714D01*
X304112171Y-137100000D01*
X304076457Y-137064285D01*
X304040742Y-136992857D01*
X304005028Y-136850000D01*
X303969314Y-136778571D01*
X303933600Y-136742857D01*
X303862171Y-136707142D01*
X303790742Y-136707142D01*
X303719314Y-136742857D01*
X303683600Y-136778571D01*
X303647885Y-136850000D01*
X303647885Y-137028571D01*
X303683600Y-137135714D01*
X304326457Y-137885714D02*
X304362171Y-137850000D01*
X304397885Y-137742857D01*
X304397885Y-137671428D01*
X304362171Y-137564285D01*
X304290742Y-137492857D01*
X304219314Y-137457142D01*
X304076457Y-137421428D01*
X303969314Y-137421428D01*
X303826457Y-137457142D01*
X303755028Y-137492857D01*
X303683600Y-137564285D01*
X303647885Y-137671428D01*
X303647885Y-137742857D01*
X303683600Y-137850000D01*
X303719314Y-137885714D01*
X304397885Y-138564285D02*
X304397885Y-138207142D01*
X303647885Y-138207142D01*
X305732171Y-136679285D02*
X305767885Y-136786428D01*
X305767885Y-136965000D01*
X305732171Y-137036428D01*
X305696457Y-137072142D01*
X305625028Y-137107857D01*
X305553600Y-137107857D01*
X305482171Y-137072142D01*
X305446457Y-137036428D01*
X305410742Y-136965000D01*
X305375028Y-136822142D01*
X305339314Y-136750714D01*
X305303600Y-136715000D01*
X305232171Y-136679285D01*
X305160742Y-136679285D01*
X305089314Y-136715000D01*
X305053600Y-136750714D01*
X305017885Y-136822142D01*
X305017885Y-137000714D01*
X305053600Y-137107857D01*
X305767885Y-137429285D02*
X305017885Y-137429285D01*
X305017885Y-137607857D01*
X305053600Y-137715000D01*
X305125028Y-137786428D01*
X305196457Y-137822142D01*
X305339314Y-137857857D01*
X305446457Y-137857857D01*
X305589314Y-137822142D01*
X305660742Y-137786428D01*
X305732171Y-137715000D01*
X305767885Y-137607857D01*
X305767885Y-137429285D01*
X305553600Y-138143571D02*
X305553600Y-138500714D01*
X305767885Y-138072142D02*
X305017885Y-138322142D01*
X305767885Y-138572142D01*
X274103571Y-141417474D02*
X274103571Y-141988903D01*
X274389285Y-141703189D02*
X273817857Y-141703189D01*
X271635714Y-141656760D02*
X271064285Y-141656760D01*
D12*
X283495250Y-143700000D02*
G75*
G03*
X283495250Y-143700000I-3424999J0D01*
G01*
D13*
G36*
X308132507Y-137489839D02*
G01*
X307958578Y-137504117D01*
X307828523Y-137521656D01*
X307602208Y-137566554D01*
X307381609Y-137627096D01*
X307167384Y-137702767D01*
X306960194Y-137793051D01*
X306760696Y-137897432D01*
X306569550Y-138015394D01*
X306387413Y-138146421D01*
X306214945Y-138289997D01*
X306052805Y-138445607D01*
X305901651Y-138612735D01*
X305762142Y-138790864D01*
X305634936Y-138979479D01*
X305520693Y-139178063D01*
X305420071Y-139386102D01*
X305405852Y-139418889D01*
X305323885Y-139632151D01*
X305258196Y-139850030D01*
X305208776Y-140072564D01*
X305175619Y-140299788D01*
X305158718Y-140531736D01*
X305156348Y-140659000D01*
X305164605Y-140892606D01*
X305189228Y-141122523D01*
X305229999Y-141348169D01*
X305286699Y-141568962D01*
X305359107Y-141784321D01*
X305447005Y-141993665D01*
X305550174Y-142196413D01*
X305668393Y-142391984D01*
X305801444Y-142579795D01*
X305948636Y-142758733D01*
X306110107Y-142928882D01*
X306281276Y-143085255D01*
X306461670Y-143227613D01*
X306650816Y-143355718D01*
X306848240Y-143469333D01*
X307053471Y-143568220D01*
X307266036Y-143652140D01*
X307485461Y-143720857D01*
X307711274Y-143774132D01*
X307943002Y-143811727D01*
X308068534Y-143825256D01*
X308125020Y-143828962D01*
X308194174Y-143831401D01*
X308271782Y-143832603D01*
X308353627Y-143832595D01*
X308435494Y-143831408D01*
X308513168Y-143829069D01*
X308582434Y-143825608D01*
X308635800Y-143821387D01*
X308866427Y-143789940D01*
X309091807Y-143742697D01*
X309311305Y-143680125D01*
X309524281Y-143602694D01*
X309730096Y-143510870D01*
X309928113Y-143405124D01*
X310117693Y-143285922D01*
X310298198Y-143153734D01*
X310468989Y-143009027D01*
X310629428Y-142852270D01*
X310778877Y-142683931D01*
X310916697Y-142504479D01*
X311042250Y-142314381D01*
X311154898Y-142114107D01*
X311254002Y-141904123D01*
X311256149Y-141899110D01*
X311338116Y-141685848D01*
X311403805Y-141467969D01*
X311453225Y-141245435D01*
X311486382Y-141018211D01*
X311503283Y-140786263D01*
X311505653Y-140659000D01*
X311497529Y-140424484D01*
X311473154Y-140194713D01*
X311432519Y-139969650D01*
X311414855Y-139901233D01*
X310611098Y-139901233D01*
X310610704Y-139954907D01*
X310609187Y-139996463D01*
X310606044Y-140030705D01*
X310600773Y-140062436D01*
X310592873Y-140096461D01*
X310589232Y-140110409D01*
X310549931Y-140226712D01*
X310496740Y-140334381D01*
X310430697Y-140432459D01*
X310352838Y-140519988D01*
X310264199Y-140596011D01*
X310165817Y-140659568D01*
X310058729Y-140709703D01*
X309943971Y-140745456D01*
X309889875Y-140756639D01*
X309775410Y-140768358D01*
X309660790Y-140764171D01*
X309547833Y-140744840D01*
X309438352Y-140711128D01*
X309334166Y-140663798D01*
X309237090Y-140603611D01*
X309148940Y-140531332D01*
X309071533Y-140447723D01*
X309034300Y-140397338D01*
X309010945Y-140360055D01*
X308985795Y-140315240D01*
X308961478Y-140268038D01*
X308940618Y-140223592D01*
X308925841Y-140187045D01*
X308923686Y-140180633D01*
X308894565Y-140111917D01*
X308853832Y-140048500D01*
X308804084Y-139993245D01*
X308747922Y-139949013D01*
X308687944Y-139918665D01*
X308684673Y-139917486D01*
X308668997Y-139912952D01*
X308638688Y-139905109D01*
X308595623Y-139894410D01*
X308541678Y-139881309D01*
X308478730Y-139866258D01*
X308408655Y-139849711D01*
X308333331Y-139832121D01*
X308280296Y-139819847D01*
X308190484Y-139799216D01*
X308115502Y-139782202D01*
X308053712Y-139768494D01*
X308003473Y-139757777D01*
X307963147Y-139749739D01*
X307931092Y-139744065D01*
X307905671Y-139740443D01*
X307885242Y-139738560D01*
X307868167Y-139738101D01*
X307855078Y-139738597D01*
X307790030Y-139750093D01*
X307732076Y-139776176D01*
X307679462Y-139817732D01*
X307661951Y-139836133D01*
X307620776Y-139887825D01*
X307593377Y-139936419D01*
X307578086Y-139985765D01*
X307573236Y-140039711D01*
X307573234Y-140040933D01*
X307573234Y-140104433D01*
X307678125Y-140320333D01*
X307714977Y-140395758D01*
X307745866Y-140457776D01*
X307771944Y-140508344D01*
X307794365Y-140549421D01*
X307814283Y-140582963D01*
X307832850Y-140610928D01*
X307851220Y-140635274D01*
X307870547Y-140657960D01*
X307888301Y-140677098D01*
X307957176Y-140738754D01*
X308035096Y-140788214D01*
X308123733Y-140826366D01*
X308218768Y-140852812D01*
X308351213Y-140889678D01*
X308474969Y-140940286D01*
X308589233Y-141004034D01*
X308693199Y-141080324D01*
X308786061Y-141168554D01*
X308867015Y-141268125D01*
X308935255Y-141378437D01*
X308942408Y-141392089D01*
X308997359Y-141515962D01*
X309036135Y-141641294D01*
X309059092Y-141766958D01*
X309066581Y-141891827D01*
X309058957Y-142014774D01*
X309036574Y-142134673D01*
X308999786Y-142250397D01*
X308948945Y-142360818D01*
X308884406Y-142464810D01*
X308806522Y-142561246D01*
X308715648Y-142649000D01*
X308612137Y-142726944D01*
X308503511Y-142790321D01*
X308398773Y-142838427D01*
X308296914Y-142873549D01*
X308192449Y-142897423D01*
X308140501Y-142905303D01*
X308096638Y-142908743D01*
X308042094Y-142909693D01*
X307982914Y-142908299D01*
X307925145Y-142904708D01*
X307874833Y-142899062D01*
X307873765Y-142898902D01*
X307743910Y-142871115D01*
X307621217Y-142827983D01*
X307505689Y-142769508D01*
X307397327Y-142695692D01*
X307296136Y-142606536D01*
X307292760Y-142603173D01*
X307204846Y-142503847D01*
X307131600Y-142397136D01*
X307073136Y-142284312D01*
X307029570Y-142166645D01*
X307001014Y-142045408D01*
X306987583Y-141921870D01*
X306989392Y-141797303D01*
X307006554Y-141672978D01*
X307039185Y-141550166D01*
X307087397Y-141430139D01*
X307151306Y-141314167D01*
X307173819Y-141279973D01*
X307235089Y-141178738D01*
X307279695Y-141077963D01*
X307307862Y-140976835D01*
X307319811Y-140874537D01*
X307315766Y-140770257D01*
X307314990Y-140763678D01*
X307310155Y-140734802D01*
X307301506Y-140693781D01*
X307289782Y-140643379D01*
X307275725Y-140586361D01*
X307260076Y-140525489D01*
X307243574Y-140463529D01*
X307226961Y-140403244D01*
X307210976Y-140347398D01*
X307196362Y-140298755D01*
X307183857Y-140260079D01*
X307174204Y-140234135D01*
X307171574Y-140228453D01*
X307145245Y-140188707D01*
X307110543Y-140157768D01*
X307064906Y-140133981D01*
X307005773Y-140115691D01*
X306992251Y-140112580D01*
X306957760Y-140102842D01*
X306914720Y-140087560D01*
X306869541Y-140069127D01*
X306841205Y-140056176D01*
X306800858Y-140035957D01*
X306769204Y-140017583D01*
X306741292Y-139997471D01*
X306712172Y-139972040D01*
X306676895Y-139937708D01*
X306675383Y-139936197D01*
X306639491Y-139899205D01*
X306612803Y-139868411D01*
X306591712Y-139838942D01*
X306572610Y-139805921D01*
X306558679Y-139778466D01*
X306528878Y-139712304D01*
X306508389Y-139652482D01*
X306495422Y-139592556D01*
X306488185Y-139526082D01*
X306488074Y-139524466D01*
X306489201Y-139439595D01*
X306502816Y-139351536D01*
X306527300Y-139268711D01*
X306563842Y-139193011D01*
X306614609Y-139119357D01*
X306676902Y-139050416D01*
X306748024Y-138988857D01*
X306825277Y-138937346D01*
X306898798Y-138901385D01*
X306959590Y-138879078D01*
X307013743Y-138865017D01*
X307068132Y-138858023D01*
X307129635Y-138856919D01*
X307153915Y-138857699D01*
X307247799Y-138866941D01*
X307331887Y-138887266D01*
X307409128Y-138920000D01*
X307482470Y-138966464D01*
X307554862Y-139027983D01*
X307573234Y-139045947D01*
X307613073Y-139087650D01*
X307643285Y-139124050D01*
X307667690Y-139160140D01*
X307686701Y-139194266D01*
X307725578Y-139261943D01*
X307765444Y-139315189D01*
X307808760Y-139356442D01*
X307857985Y-139388140D01*
X307902203Y-139407853D01*
X307919778Y-139412160D01*
X307952095Y-139417714D01*
X307997025Y-139424284D01*
X308052443Y-139431640D01*
X308116219Y-139439555D01*
X308186228Y-139447797D01*
X308260341Y-139456138D01*
X308336431Y-139464347D01*
X308412371Y-139472196D01*
X308486033Y-139479455D01*
X308555290Y-139485893D01*
X308618015Y-139491283D01*
X308672080Y-139495393D01*
X308715358Y-139497995D01*
X308745650Y-139498859D01*
X308804849Y-139496291D01*
X308856919Y-139488050D01*
X308904713Y-139472715D01*
X308951082Y-139448861D01*
X308998877Y-139415066D01*
X309050952Y-139369906D01*
X309100392Y-139321843D01*
X309170261Y-139254729D01*
X309235037Y-139200063D01*
X309298174Y-139155679D01*
X309363122Y-139119405D01*
X309433336Y-139089073D01*
X309512268Y-139062514D01*
X309513929Y-139062015D01*
X309575326Y-139048000D01*
X309647428Y-139038556D01*
X309724570Y-139033916D01*
X309801087Y-139034317D01*
X309871314Y-139039991D01*
X309906701Y-139045745D01*
X310025185Y-139078069D01*
X310136279Y-139125465D01*
X310239224Y-139187540D01*
X310333265Y-139263906D01*
X310337856Y-139268221D01*
X310421824Y-139358904D01*
X310491273Y-139458278D01*
X310546292Y-139566496D01*
X310586972Y-139683710D01*
X310589232Y-139692057D01*
X310598218Y-139728118D01*
X310604391Y-139760130D01*
X310608253Y-139792898D01*
X310610306Y-139831225D01*
X310611053Y-139879915D01*
X310611098Y-139901233D01*
X311414855Y-139901233D01*
X311375618Y-139749261D01*
X311302444Y-139533509D01*
X311256149Y-139418889D01*
X311157679Y-139209443D01*
X311045487Y-139009371D01*
X310920231Y-138819190D01*
X310782571Y-138639415D01*
X310633164Y-138470563D01*
X310472670Y-138313149D01*
X310301747Y-138167689D01*
X310121053Y-138034700D01*
X309931249Y-137914696D01*
X309732992Y-137808194D01*
X309526942Y-137715709D01*
X309313756Y-137637758D01*
X309094094Y-137574856D01*
X308868615Y-137527520D01*
X308833478Y-137521656D01*
X308667404Y-137500362D01*
X308491898Y-137487961D01*
X308311940Y-137484453D01*
X308132507Y-137489839D01*
G37*
X308132507Y-137489839D02*
X307958578Y-137504117D01*
X307828523Y-137521656D01*
X307602208Y-137566554D01*
X307381609Y-137627096D01*
X307167384Y-137702767D01*
X306960194Y-137793051D01*
X306760696Y-137897432D01*
X306569550Y-138015394D01*
X306387413Y-138146421D01*
X306214945Y-138289997D01*
X306052805Y-138445607D01*
X305901651Y-138612735D01*
X305762142Y-138790864D01*
X305634936Y-138979479D01*
X305520693Y-139178063D01*
X305420071Y-139386102D01*
X305405852Y-139418889D01*
X305323885Y-139632151D01*
X305258196Y-139850030D01*
X305208776Y-140072564D01*
X305175619Y-140299788D01*
X305158718Y-140531736D01*
X305156348Y-140659000D01*
X305164605Y-140892606D01*
X305189228Y-141122523D01*
X305229999Y-141348169D01*
X305286699Y-141568962D01*
X305359107Y-141784321D01*
X305447005Y-141993665D01*
X305550174Y-142196413D01*
X305668393Y-142391984D01*
X305801444Y-142579795D01*
X305948636Y-142758733D01*
X306110107Y-142928882D01*
X306281276Y-143085255D01*
X306461670Y-143227613D01*
X306650816Y-143355718D01*
X306848240Y-143469333D01*
X307053471Y-143568220D01*
X307266036Y-143652140D01*
X307485461Y-143720857D01*
X307711274Y-143774132D01*
X307943002Y-143811727D01*
X308068534Y-143825256D01*
X308125020Y-143828962D01*
X308194174Y-143831401D01*
X308271782Y-143832603D01*
X308353627Y-143832595D01*
X308435494Y-143831408D01*
X308513168Y-143829069D01*
X308582434Y-143825608D01*
X308635800Y-143821387D01*
X308866427Y-143789940D01*
X309091807Y-143742697D01*
X309311305Y-143680125D01*
X309524281Y-143602694D01*
X309730096Y-143510870D01*
X309928113Y-143405124D01*
X310117693Y-143285922D01*
X310298198Y-143153734D01*
X310468989Y-143009027D01*
X310629428Y-142852270D01*
X310778877Y-142683931D01*
X310916697Y-142504479D01*
X311042250Y-142314381D01*
X311154898Y-142114107D01*
X311254002Y-141904123D01*
X311256149Y-141899110D01*
X311338116Y-141685848D01*
X311403805Y-141467969D01*
X311453225Y-141245435D01*
X311486382Y-141018211D01*
X311503283Y-140786263D01*
X311505653Y-140659000D01*
X311497529Y-140424484D01*
X311473154Y-140194713D01*
X311432519Y-139969650D01*
X311414855Y-139901233D01*
X310611098Y-139901233D01*
X310610704Y-139954907D01*
X310609187Y-139996463D01*
X310606044Y-140030705D01*
X310600773Y-140062436D01*
X310592873Y-140096461D01*
X310589232Y-140110409D01*
X310549931Y-140226712D01*
X310496740Y-140334381D01*
X310430697Y-140432459D01*
X310352838Y-140519988D01*
X310264199Y-140596011D01*
X310165817Y-140659568D01*
X310058729Y-140709703D01*
X309943971Y-140745456D01*
X309889875Y-140756639D01*
X309775410Y-140768358D01*
X309660790Y-140764171D01*
X309547833Y-140744840D01*
X309438352Y-140711128D01*
X309334166Y-140663798D01*
X309237090Y-140603611D01*
X309148940Y-140531332D01*
X309071533Y-140447723D01*
X309034300Y-140397338D01*
X309010945Y-140360055D01*
X308985795Y-140315240D01*
X308961478Y-140268038D01*
X308940618Y-140223592D01*
X308925841Y-140187045D01*
X308923686Y-140180633D01*
X308894565Y-140111917D01*
X308853832Y-140048500D01*
X308804084Y-139993245D01*
X308747922Y-139949013D01*
X308687944Y-139918665D01*
X308684673Y-139917486D01*
X308668997Y-139912952D01*
X308638688Y-139905109D01*
X308595623Y-139894410D01*
X308541678Y-139881309D01*
X308478730Y-139866258D01*
X308408655Y-139849711D01*
X308333331Y-139832121D01*
X308280296Y-139819847D01*
X308190484Y-139799216D01*
X308115502Y-139782202D01*
X308053712Y-139768494D01*
X308003473Y-139757777D01*
X307963147Y-139749739D01*
X307931092Y-139744065D01*
X307905671Y-139740443D01*
X307885242Y-139738560D01*
X307868167Y-139738101D01*
X307855078Y-139738597D01*
X307790030Y-139750093D01*
X307732076Y-139776176D01*
X307679462Y-139817732D01*
X307661951Y-139836133D01*
X307620776Y-139887825D01*
X307593377Y-139936419D01*
X307578086Y-139985765D01*
X307573236Y-140039711D01*
X307573234Y-140040933D01*
X307573234Y-140104433D01*
X307678125Y-140320333D01*
X307714977Y-140395758D01*
X307745866Y-140457776D01*
X307771944Y-140508344D01*
X307794365Y-140549421D01*
X307814283Y-140582963D01*
X307832850Y-140610928D01*
X307851220Y-140635274D01*
X307870547Y-140657960D01*
X307888301Y-140677098D01*
X307957176Y-140738754D01*
X308035096Y-140788214D01*
X308123733Y-140826366D01*
X308218768Y-140852812D01*
X308351213Y-140889678D01*
X308474969Y-140940286D01*
X308589233Y-141004034D01*
X308693199Y-141080324D01*
X308786061Y-141168554D01*
X308867015Y-141268125D01*
X308935255Y-141378437D01*
X308942408Y-141392089D01*
X308997359Y-141515962D01*
X309036135Y-141641294D01*
X309059092Y-141766958D01*
X309066581Y-141891827D01*
X309058957Y-142014774D01*
X309036574Y-142134673D01*
X308999786Y-142250397D01*
X308948945Y-142360818D01*
X308884406Y-142464810D01*
X308806522Y-142561246D01*
X308715648Y-142649000D01*
X308612137Y-142726944D01*
X308503511Y-142790321D01*
X308398773Y-142838427D01*
X308296914Y-142873549D01*
X308192449Y-142897423D01*
X308140501Y-142905303D01*
X308096638Y-142908743D01*
X308042094Y-142909693D01*
X307982914Y-142908299D01*
X307925145Y-142904708D01*
X307874833Y-142899062D01*
X307873765Y-142898902D01*
X307743910Y-142871115D01*
X307621217Y-142827983D01*
X307505689Y-142769508D01*
X307397327Y-142695692D01*
X307296136Y-142606536D01*
X307292760Y-142603173D01*
X307204846Y-142503847D01*
X307131600Y-142397136D01*
X307073136Y-142284312D01*
X307029570Y-142166645D01*
X307001014Y-142045408D01*
X306987583Y-141921870D01*
X306989392Y-141797303D01*
X307006554Y-141672978D01*
X307039185Y-141550166D01*
X307087397Y-141430139D01*
X307151306Y-141314167D01*
X307173819Y-141279973D01*
X307235089Y-141178738D01*
X307279695Y-141077963D01*
X307307862Y-140976835D01*
X307319811Y-140874537D01*
X307315766Y-140770257D01*
X307314990Y-140763678D01*
X307310155Y-140734802D01*
X307301506Y-140693781D01*
X307289782Y-140643379D01*
X307275725Y-140586361D01*
X307260076Y-140525489D01*
X307243574Y-140463529D01*
X307226961Y-140403244D01*
X307210976Y-140347398D01*
X307196362Y-140298755D01*
X307183857Y-140260079D01*
X307174204Y-140234135D01*
X307171574Y-140228453D01*
X307145245Y-140188707D01*
X307110543Y-140157768D01*
X307064906Y-140133981D01*
X307005773Y-140115691D01*
X306992251Y-140112580D01*
X306957760Y-140102842D01*
X306914720Y-140087560D01*
X306869541Y-140069127D01*
X306841205Y-140056176D01*
X306800858Y-140035957D01*
X306769204Y-140017583D01*
X306741292Y-139997471D01*
X306712172Y-139972040D01*
X306676895Y-139937708D01*
X306675383Y-139936197D01*
X306639491Y-139899205D01*
X306612803Y-139868411D01*
X306591712Y-139838942D01*
X306572610Y-139805921D01*
X306558679Y-139778466D01*
X306528878Y-139712304D01*
X306508389Y-139652482D01*
X306495422Y-139592556D01*
X306488185Y-139526082D01*
X306488074Y-139524466D01*
X306489201Y-139439595D01*
X306502816Y-139351536D01*
X306527300Y-139268711D01*
X306563842Y-139193011D01*
X306614609Y-139119357D01*
X306676902Y-139050416D01*
X306748024Y-138988857D01*
X306825277Y-138937346D01*
X306898798Y-138901385D01*
X306959590Y-138879078D01*
X307013743Y-138865017D01*
X307068132Y-138858023D01*
X307129635Y-138856919D01*
X307153915Y-138857699D01*
X307247799Y-138866941D01*
X307331887Y-138887266D01*
X307409128Y-138920000D01*
X307482470Y-138966464D01*
X307554862Y-139027983D01*
X307573234Y-139045947D01*
X307613073Y-139087650D01*
X307643285Y-139124050D01*
X307667690Y-139160140D01*
X307686701Y-139194266D01*
X307725578Y-139261943D01*
X307765444Y-139315189D01*
X307808760Y-139356442D01*
X307857985Y-139388140D01*
X307902203Y-139407853D01*
X307919778Y-139412160D01*
X307952095Y-139417714D01*
X307997025Y-139424284D01*
X308052443Y-139431640D01*
X308116219Y-139439555D01*
X308186228Y-139447797D01*
X308260341Y-139456138D01*
X308336431Y-139464347D01*
X308412371Y-139472196D01*
X308486033Y-139479455D01*
X308555290Y-139485893D01*
X308618015Y-139491283D01*
X308672080Y-139495393D01*
X308715358Y-139497995D01*
X308745650Y-139498859D01*
X308804849Y-139496291D01*
X308856919Y-139488050D01*
X308904713Y-139472715D01*
X308951082Y-139448861D01*
X308998877Y-139415066D01*
X309050952Y-139369906D01*
X309100392Y-139321843D01*
X309170261Y-139254729D01*
X309235037Y-139200063D01*
X309298174Y-139155679D01*
X309363122Y-139119405D01*
X309433336Y-139089073D01*
X309512268Y-139062514D01*
X309513929Y-139062015D01*
X309575326Y-139048000D01*
X309647428Y-139038556D01*
X309724570Y-139033916D01*
X309801087Y-139034317D01*
X309871314Y-139039991D01*
X309906701Y-139045745D01*
X310025185Y-139078069D01*
X310136279Y-139125465D01*
X310239224Y-139187540D01*
X310333265Y-139263906D01*
X310337856Y-139268221D01*
X310421824Y-139358904D01*
X310491273Y-139458278D01*
X310546292Y-139566496D01*
X310586972Y-139683710D01*
X310589232Y-139692057D01*
X310598218Y-139728118D01*
X310604391Y-139760130D01*
X310608253Y-139792898D01*
X310610306Y-139831225D01*
X310611053Y-139879915D01*
X310611098Y-139901233D01*
X311414855Y-139901233D01*
X311375618Y-139749261D01*
X311302444Y-139533509D01*
X311256149Y-139418889D01*
X311157679Y-139209443D01*
X311045487Y-139009371D01*
X310920231Y-138819190D01*
X310782571Y-138639415D01*
X310633164Y-138470563D01*
X310472670Y-138313149D01*
X310301747Y-138167689D01*
X310121053Y-138034700D01*
X309931249Y-137914696D01*
X309732992Y-137808194D01*
X309526942Y-137715709D01*
X309313756Y-137637758D01*
X309094094Y-137574856D01*
X308868615Y-137527520D01*
X308833478Y-137521656D01*
X308667404Y-137500362D01*
X308491898Y-137487961D01*
X308311940Y-137484453D01*
X308132507Y-137489839D01*
D12*
X207040000Y-94900000D02*
X207040000Y-97500000D01*
X207040000Y-94900000D02*
X257960000Y-94900000D01*
X257960000Y-94900000D02*
X257960000Y-100100000D01*
X209640000Y-100100000D02*
X257960000Y-100100000D01*
X209640000Y-97500000D02*
X209640000Y-100100000D01*
X207040000Y-97500000D02*
X209640000Y-97500000D01*
X207040000Y-100100000D02*
X208370000Y-100100000D01*
X207040000Y-98770000D02*
X207040000Y-100100000D01*
X216865600Y-101306000D02*
X220725600Y-101306000D01*
X220725600Y-101306000D02*
X220725600Y-101561000D01*
X216865600Y-101306000D02*
X213005600Y-101306000D01*
X213005600Y-101306000D02*
X213005600Y-101561000D01*
X216865600Y-111826000D02*
X220725600Y-111826000D01*
X220725600Y-111826000D02*
X220725600Y-111571000D01*
X216865600Y-111826000D02*
X213005600Y-111826000D01*
X213005600Y-111826000D02*
X213005600Y-111571000D01*
X213005600Y-111571000D02*
X211190600Y-111571000D01*
X252821621Y-118734600D02*
X253147179Y-118734600D01*
X252821621Y-117714600D02*
X253147179Y-117714600D01*
X212257821Y-113502200D02*
X212583379Y-113502200D01*
X212257821Y-112482200D02*
X212583379Y-112482200D01*
X241939978Y-150468700D02*
X241422822Y-150468700D01*
X241939978Y-149048700D02*
X241422822Y-149048700D01*
X234728100Y-129954200D02*
X234728100Y-135654200D01*
X240088100Y-136264200D02*
X240938100Y-136264200D01*
X241548100Y-135654200D02*
X241548100Y-130004200D01*
X240888100Y-129344200D02*
X240088100Y-129344200D01*
X235338100Y-136264200D02*
X236188100Y-136264200D01*
X236188100Y-129344200D02*
X235338100Y-129344200D01*
X240938100Y-136264200D02*
G75*
G03*
X241548100Y-135654200I0J610000D01*
G01*
X241548100Y-130004200D02*
G75*
G03*
X240888100Y-129344200I-660000J0D01*
G01*
X234728100Y-135654200D02*
G75*
G03*
X235338100Y-136264200I610000J0D01*
G01*
X235338100Y-129344200D02*
G75*
G03*
X234728100Y-129954200I0J-610000D01*
G01*
X229817648Y-147620600D02*
X232590152Y-147620600D01*
X229817648Y-144200600D02*
X232590152Y-144200600D01*
X239770600Y-158120900D02*
X240620600Y-158120900D01*
X240620600Y-151200900D02*
X239770600Y-151200900D01*
X235070600Y-158120900D02*
X235870600Y-158120900D01*
X234410600Y-151810900D02*
X234410600Y-157460900D01*
X235870600Y-151200900D02*
X235020600Y-151200900D01*
X241230600Y-157510900D02*
X241230600Y-151810900D01*
X240620600Y-158120900D02*
G75*
G03*
X241230600Y-157510900I0J610000D01*
G01*
X241230600Y-151810900D02*
G75*
G03*
X240620600Y-151200900I-610000J0D01*
G01*
X234410600Y-157460900D02*
G75*
G03*
X235070600Y-158120900I660000J0D01*
G01*
X235020600Y-151200900D02*
G75*
G03*
X234410600Y-151810900I0J-610000D01*
G01*
X223071440Y-156705900D02*
X223071440Y-153905900D01*
X223071440Y-153905900D02*
X214071440Y-153905900D01*
X214071440Y-153905900D02*
X212671440Y-155305900D01*
X212671440Y-155305900D02*
X212671440Y-156705900D01*
X212671440Y-161505900D02*
X212671440Y-164305900D01*
X212671440Y-164305900D02*
X223071440Y-164305900D01*
X223071440Y-164305900D02*
X223071440Y-161505900D01*
X256601900Y-107274879D02*
X256601900Y-106949321D01*
X257621900Y-107274879D02*
X257621900Y-106949321D01*
X248575179Y-118798100D02*
X248249621Y-118798100D01*
X248575179Y-117778100D02*
X248249621Y-117778100D01*
X253647121Y-104570100D02*
X253972679Y-104570100D01*
X253647121Y-105590100D02*
X253972679Y-105590100D01*
X232948378Y-129109700D02*
X232431222Y-129109700D01*
X232948378Y-130529700D02*
X232431222Y-130529700D01*
X214840200Y-117594300D02*
X214840200Y-118254300D01*
X214840200Y-115934300D02*
X214840200Y-116594300D01*
X214840200Y-115934300D02*
X216870200Y-115934300D01*
X216250200Y-118254300D02*
X214840200Y-118254300D01*
X218078578Y-114080000D02*
X217561422Y-114080000D01*
X218078578Y-115500000D02*
X217561422Y-115500000D01*
X216880621Y-113476800D02*
X217206179Y-113476800D01*
X216880621Y-112456800D02*
X217206179Y-112456800D01*
X281920251Y-145550000D02*
X281920251Y-144550000D01*
X279320251Y-145550000D02*
X281920251Y-145550000D01*
X281920251Y-141850000D02*
X281920251Y-142850000D01*
X279320251Y-141850000D02*
X281920251Y-141850000D01*
D14*
X300035400Y-135931002D02*
X300035400Y-132511002D01*
X300035400Y-132511002D02*
X308255400Y-132511002D01*
X308255400Y-132511002D02*
X308255400Y-135931002D01*
X308255400Y-135931002D02*
X300035400Y-135931002D01*
X304145400Y-133021002D02*
X300545400Y-133021002D01*
X300545400Y-133021002D02*
X300545400Y-133771002D01*
X300545400Y-133771002D02*
X300345400Y-133771002D01*
X300345400Y-133771002D02*
X300345400Y-134571002D01*
X300345400Y-134571002D02*
X300545400Y-134571002D01*
X300545400Y-134571002D02*
X300545400Y-135421002D01*
X300545400Y-135421002D02*
X304145400Y-135421002D01*
X304145400Y-133021002D02*
X307745400Y-133021002D01*
X307745400Y-133021002D02*
X307745400Y-133771002D01*
X307745400Y-133771002D02*
X307945400Y-133771002D01*
X307945400Y-133771002D02*
X307945400Y-134571002D01*
X307945400Y-134571002D02*
X307745400Y-134571002D01*
X307745400Y-134571002D02*
X307745400Y-135421002D01*
X307745400Y-135421002D02*
X304145400Y-135421002D01*
X299745400Y-132221002D02*
X299745400Y-133221002D01*
X299745400Y-132221002D02*
X300745400Y-132221002D01*
D11*
X207411571Y-101317285D02*
X207411571Y-100567285D01*
X207125857Y-100567285D01*
X207054428Y-100603000D01*
X207018714Y-100638714D01*
X206983000Y-100710142D01*
X206983000Y-100817285D01*
X207018714Y-100888714D01*
X207054428Y-100924428D01*
X207125857Y-100960142D01*
X207411571Y-100960142D01*
X206268714Y-101317285D02*
X206697285Y-101317285D01*
X206483000Y-101317285D02*
X206483000Y-100567285D01*
X206554428Y-100674428D01*
X206625857Y-100745857D01*
X206697285Y-100781571D01*
D12*
X219276314Y-100805285D02*
X219276314Y-100055285D01*
X219097742Y-100055285D01*
X218990600Y-100091000D01*
X218919171Y-100162428D01*
X218883457Y-100233857D01*
X218847742Y-100376714D01*
X218847742Y-100483857D01*
X218883457Y-100626714D01*
X218919171Y-100698142D01*
X218990600Y-100769571D01*
X219097742Y-100805285D01*
X219276314Y-100805285D01*
X218562028Y-100769571D02*
X218454885Y-100805285D01*
X218276314Y-100805285D01*
X218204885Y-100769571D01*
X218169171Y-100733857D01*
X218133457Y-100662428D01*
X218133457Y-100591000D01*
X218169171Y-100519571D01*
X218204885Y-100483857D01*
X218276314Y-100448142D01*
X218419171Y-100412428D01*
X218490600Y-100376714D01*
X218526314Y-100341000D01*
X218562028Y-100269571D01*
X218562028Y-100198142D01*
X218526314Y-100126714D01*
X218490600Y-100091000D01*
X218419171Y-100055285D01*
X218240600Y-100055285D01*
X218133457Y-100091000D01*
X217883457Y-100055285D02*
X217419171Y-100055285D01*
X217669171Y-100341000D01*
X217562028Y-100341000D01*
X217490600Y-100376714D01*
X217454885Y-100412428D01*
X217419171Y-100483857D01*
X217419171Y-100662428D01*
X217454885Y-100733857D01*
X217490600Y-100769571D01*
X217562028Y-100805285D01*
X217776314Y-100805285D01*
X217847742Y-100769571D01*
X217883457Y-100733857D01*
X217133457Y-100126714D02*
X217097742Y-100091000D01*
X217026314Y-100055285D01*
X216847742Y-100055285D01*
X216776314Y-100091000D01*
X216740600Y-100126714D01*
X216704885Y-100198142D01*
X216704885Y-100269571D01*
X216740600Y-100376714D01*
X217169171Y-100805285D01*
X216704885Y-100805285D01*
X216454885Y-100055285D02*
X215990600Y-100055285D01*
X216240600Y-100341000D01*
X216133457Y-100341000D01*
X216062028Y-100376714D01*
X216026314Y-100412428D01*
X215990600Y-100483857D01*
X215990600Y-100662428D01*
X216026314Y-100733857D01*
X216062028Y-100769571D01*
X216133457Y-100805285D01*
X216347742Y-100805285D01*
X216419171Y-100769571D01*
X216454885Y-100733857D01*
X215276314Y-100805285D02*
X215704885Y-100805285D01*
X215490600Y-100805285D02*
X215490600Y-100055285D01*
X215562028Y-100162428D01*
X215633457Y-100233857D01*
X215704885Y-100269571D01*
X214954885Y-100805285D02*
X214954885Y-100055285D01*
X214704885Y-100591000D01*
X214454885Y-100055285D01*
X214454885Y-100805285D01*
D11*
X253109400Y-119960885D02*
X253359400Y-119603742D01*
X253537971Y-119960885D02*
X253537971Y-119210885D01*
X253252257Y-119210885D01*
X253180828Y-119246600D01*
X253145114Y-119282314D01*
X253109400Y-119353742D01*
X253109400Y-119460885D01*
X253145114Y-119532314D01*
X253180828Y-119568028D01*
X253252257Y-119603742D01*
X253537971Y-119603742D01*
X252680828Y-119532314D02*
X252752257Y-119496600D01*
X252787971Y-119460885D01*
X252823685Y-119389457D01*
X252823685Y-119353742D01*
X252787971Y-119282314D01*
X252752257Y-119246600D01*
X252680828Y-119210885D01*
X252537971Y-119210885D01*
X252466542Y-119246600D01*
X252430828Y-119282314D01*
X252395114Y-119353742D01*
X252395114Y-119389457D01*
X252430828Y-119460885D01*
X252466542Y-119496600D01*
X252537971Y-119532314D01*
X252680828Y-119532314D01*
X252752257Y-119568028D01*
X252787971Y-119603742D01*
X252823685Y-119675171D01*
X252823685Y-119818028D01*
X252787971Y-119889457D01*
X252752257Y-119925171D01*
X252680828Y-119960885D01*
X252537971Y-119960885D01*
X252466542Y-119925171D01*
X252430828Y-119889457D01*
X252395114Y-119818028D01*
X252395114Y-119675171D01*
X252430828Y-119603742D01*
X252466542Y-119568028D01*
X252537971Y-119532314D01*
X214655000Y-113267857D02*
X214690714Y-113303571D01*
X214797857Y-113339285D01*
X214869285Y-113339285D01*
X214976428Y-113303571D01*
X215047857Y-113232142D01*
X215083571Y-113160714D01*
X215119285Y-113017857D01*
X215119285Y-112910714D01*
X215083571Y-112767857D01*
X215047857Y-112696428D01*
X214976428Y-112625000D01*
X214869285Y-112589285D01*
X214797857Y-112589285D01*
X214690714Y-112625000D01*
X214655000Y-112660714D01*
X213976428Y-112589285D02*
X214333571Y-112589285D01*
X214369285Y-112946428D01*
X214333571Y-112910714D01*
X214262142Y-112875000D01*
X214083571Y-112875000D01*
X214012142Y-112910714D01*
X213976428Y-112946428D01*
X213940714Y-113017857D01*
X213940714Y-113196428D01*
X213976428Y-113267857D01*
X214012142Y-113303571D01*
X214083571Y-113339285D01*
X214262142Y-113339285D01*
X214333571Y-113303571D01*
X214369285Y-113267857D01*
X242163542Y-148489857D02*
X242199257Y-148525571D01*
X242306400Y-148561285D01*
X242377828Y-148561285D01*
X242484971Y-148525571D01*
X242556400Y-148454142D01*
X242592114Y-148382714D01*
X242627828Y-148239857D01*
X242627828Y-148132714D01*
X242592114Y-147989857D01*
X242556400Y-147918428D01*
X242484971Y-147847000D01*
X242377828Y-147811285D01*
X242306400Y-147811285D01*
X242199257Y-147847000D01*
X242163542Y-147882714D01*
X241449257Y-148561285D02*
X241877828Y-148561285D01*
X241663542Y-148561285D02*
X241663542Y-147811285D01*
X241734971Y-147918428D01*
X241806400Y-147989857D01*
X241877828Y-148025571D01*
X241199257Y-147811285D02*
X240734971Y-147811285D01*
X240984971Y-148097000D01*
X240877828Y-148097000D01*
X240806400Y-148132714D01*
X240770685Y-148168428D01*
X240734971Y-148239857D01*
X240734971Y-148418428D01*
X240770685Y-148489857D01*
X240806400Y-148525571D01*
X240877828Y-148561285D01*
X241092114Y-148561285D01*
X241163542Y-148525571D01*
X241199257Y-148489857D01*
X242364428Y-132179200D02*
X242364428Y-131929200D01*
X242757285Y-131929200D02*
X242007285Y-131929200D01*
X242007285Y-132286342D01*
X242364428Y-132822057D02*
X242400142Y-132929200D01*
X242435857Y-132964914D01*
X242507285Y-133000628D01*
X242614428Y-133000628D01*
X242685857Y-132964914D01*
X242721571Y-132929200D01*
X242757285Y-132857771D01*
X242757285Y-132572057D01*
X242007285Y-132572057D01*
X242007285Y-132822057D01*
X242043000Y-132893485D01*
X242078714Y-132929200D01*
X242150142Y-132964914D01*
X242221571Y-132964914D01*
X242293000Y-132929200D01*
X242328714Y-132893485D01*
X242364428Y-132822057D01*
X242364428Y-132572057D01*
X242078714Y-133286342D02*
X242043000Y-133322057D01*
X242007285Y-133393485D01*
X242007285Y-133572057D01*
X242043000Y-133643485D01*
X242078714Y-133679200D01*
X242150142Y-133714914D01*
X242221571Y-133714914D01*
X242328714Y-133679200D01*
X242757285Y-133250628D01*
X242757285Y-133714914D01*
X231828900Y-143342428D02*
X232078900Y-143342428D01*
X232078900Y-143735285D02*
X232078900Y-142985285D01*
X231721757Y-142985285D01*
X231186042Y-143342428D02*
X231078900Y-143378142D01*
X231043185Y-143413857D01*
X231007471Y-143485285D01*
X231007471Y-143592428D01*
X231043185Y-143663857D01*
X231078900Y-143699571D01*
X231150328Y-143735285D01*
X231436042Y-143735285D01*
X231436042Y-142985285D01*
X231186042Y-142985285D01*
X231114614Y-143021000D01*
X231078900Y-143056714D01*
X231043185Y-143128142D01*
X231043185Y-143199571D01*
X231078900Y-143271000D01*
X231114614Y-143306714D01*
X231186042Y-143342428D01*
X231436042Y-143342428D01*
X230757471Y-142985285D02*
X230293185Y-142985285D01*
X230543185Y-143271000D01*
X230436042Y-143271000D01*
X230364614Y-143306714D01*
X230328900Y-143342428D01*
X230293185Y-143413857D01*
X230293185Y-143592428D01*
X230328900Y-143663857D01*
X230364614Y-143699571D01*
X230436042Y-143735285D01*
X230650328Y-143735285D01*
X230721757Y-143699571D01*
X230757471Y-143663857D01*
X233360128Y-154010500D02*
X233360128Y-153760500D01*
X233752985Y-153760500D02*
X233002985Y-153760500D01*
X233002985Y-154117642D01*
X233360128Y-154653357D02*
X233395842Y-154760500D01*
X233431557Y-154796214D01*
X233502985Y-154831928D01*
X233610128Y-154831928D01*
X233681557Y-154796214D01*
X233717271Y-154760500D01*
X233752985Y-154689071D01*
X233752985Y-154403357D01*
X233002985Y-154403357D01*
X233002985Y-154653357D01*
X233038700Y-154724785D01*
X233074414Y-154760500D01*
X233145842Y-154796214D01*
X233217271Y-154796214D01*
X233288700Y-154760500D01*
X233324414Y-154724785D01*
X233360128Y-154653357D01*
X233360128Y-154403357D01*
X233252985Y-155474785D02*
X233752985Y-155474785D01*
X232967271Y-155296214D02*
X233502985Y-155117642D01*
X233502985Y-155581928D01*
X217996440Y-165795185D02*
X218353582Y-165795185D01*
X218353582Y-165045185D01*
X217782154Y-165116614D02*
X217746440Y-165080900D01*
X217675011Y-165045185D01*
X217496440Y-165045185D01*
X217425011Y-165080900D01*
X217389297Y-165116614D01*
X217353582Y-165188042D01*
X217353582Y-165259471D01*
X217389297Y-165366614D01*
X217817868Y-165795185D01*
X217353582Y-165795185D01*
X257476585Y-104726500D02*
X257119442Y-104476500D01*
X257476585Y-104297928D02*
X256726585Y-104297928D01*
X256726585Y-104583642D01*
X256762300Y-104655071D01*
X256798014Y-104690785D01*
X256869442Y-104726500D01*
X256976585Y-104726500D01*
X257048014Y-104690785D01*
X257083728Y-104655071D01*
X257119442Y-104583642D01*
X257119442Y-104297928D01*
X256726585Y-104976500D02*
X256726585Y-105440785D01*
X257012300Y-105190785D01*
X257012300Y-105297928D01*
X257048014Y-105369357D01*
X257083728Y-105405071D01*
X257155157Y-105440785D01*
X257333728Y-105440785D01*
X257405157Y-105405071D01*
X257440871Y-105369357D01*
X257476585Y-105297928D01*
X257476585Y-105083642D01*
X257440871Y-105012214D01*
X257405157Y-104976500D01*
X248289400Y-117383885D02*
X248539400Y-117026742D01*
X248717971Y-117383885D02*
X248717971Y-116633885D01*
X248432257Y-116633885D01*
X248360828Y-116669600D01*
X248325114Y-116705314D01*
X248289400Y-116776742D01*
X248289400Y-116883885D01*
X248325114Y-116955314D01*
X248360828Y-116991028D01*
X248432257Y-117026742D01*
X248717971Y-117026742D01*
X248039400Y-116633885D02*
X247539400Y-116633885D01*
X247860828Y-117383885D01*
X253960300Y-104123985D02*
X254210300Y-103766842D01*
X254388871Y-104123985D02*
X254388871Y-103373985D01*
X254103157Y-103373985D01*
X254031728Y-103409700D01*
X253996014Y-103445414D01*
X253960300Y-103516842D01*
X253960300Y-103623985D01*
X253996014Y-103695414D01*
X254031728Y-103731128D01*
X254103157Y-103766842D01*
X254388871Y-103766842D01*
X253603157Y-104123985D02*
X253460300Y-104123985D01*
X253388871Y-104088271D01*
X253353157Y-104052557D01*
X253281728Y-103945414D01*
X253246014Y-103802557D01*
X253246014Y-103516842D01*
X253281728Y-103445414D01*
X253317442Y-103409700D01*
X253388871Y-103373985D01*
X253531728Y-103373985D01*
X253603157Y-103409700D01*
X253638871Y-103445414D01*
X253674585Y-103516842D01*
X253674585Y-103695414D01*
X253638871Y-103766842D01*
X253603157Y-103802557D01*
X253531728Y-103838271D01*
X253388871Y-103838271D01*
X253317442Y-103802557D01*
X253281728Y-103766842D01*
X253246014Y-103695414D01*
X232878300Y-128652457D02*
X232914014Y-128688171D01*
X233021157Y-128723885D01*
X233092585Y-128723885D01*
X233199728Y-128688171D01*
X233271157Y-128616742D01*
X233306871Y-128545314D01*
X233342585Y-128402457D01*
X233342585Y-128295314D01*
X233306871Y-128152457D01*
X233271157Y-128081028D01*
X233199728Y-128009600D01*
X233092585Y-127973885D01*
X233021157Y-127973885D01*
X232914014Y-128009600D01*
X232878300Y-128045314D01*
X232521157Y-128723885D02*
X232378300Y-128723885D01*
X232306871Y-128688171D01*
X232271157Y-128652457D01*
X232199728Y-128545314D01*
X232164014Y-128402457D01*
X232164014Y-128116742D01*
X232199728Y-128045314D01*
X232235442Y-128009600D01*
X232306871Y-127973885D01*
X232449728Y-127973885D01*
X232521157Y-128009600D01*
X232556871Y-128045314D01*
X232592585Y-128116742D01*
X232592585Y-128295314D01*
X232556871Y-128366742D01*
X232521157Y-128402457D01*
X232449728Y-128438171D01*
X232306871Y-128438171D01*
X232235442Y-128402457D01*
X232199728Y-128366742D01*
X232164014Y-128295314D01*
X213542514Y-117022871D02*
X213506800Y-116951442D01*
X213435371Y-116880014D01*
X213328228Y-116772871D01*
X213292514Y-116701442D01*
X213292514Y-116630014D01*
X213471085Y-116665728D02*
X213435371Y-116594300D01*
X213363942Y-116522871D01*
X213221085Y-116487157D01*
X212971085Y-116487157D01*
X212828228Y-116522871D01*
X212756800Y-116594300D01*
X212721085Y-116665728D01*
X212721085Y-116808585D01*
X212756800Y-116880014D01*
X212828228Y-116951442D01*
X212971085Y-116987157D01*
X213221085Y-116987157D01*
X213363942Y-116951442D01*
X213435371Y-116880014D01*
X213471085Y-116808585D01*
X213471085Y-116665728D01*
X212721085Y-117665728D02*
X212721085Y-117308585D01*
X213078228Y-117272871D01*
X213042514Y-117308585D01*
X213006800Y-117380014D01*
X213006800Y-117558585D01*
X213042514Y-117630014D01*
X213078228Y-117665728D01*
X213149657Y-117701442D01*
X213328228Y-117701442D01*
X213399657Y-117665728D01*
X213435371Y-117630014D01*
X213471085Y-117558585D01*
X213471085Y-117380014D01*
X213435371Y-117308585D01*
X213399657Y-117272871D01*
X221121542Y-115141985D02*
X221371542Y-114784842D01*
X221550114Y-115141985D02*
X221550114Y-114391985D01*
X221264400Y-114391985D01*
X221192971Y-114427700D01*
X221157257Y-114463414D01*
X221121542Y-114534842D01*
X221121542Y-114641985D01*
X221157257Y-114713414D01*
X221192971Y-114749128D01*
X221264400Y-114784842D01*
X221550114Y-114784842D01*
X220835828Y-114463414D02*
X220800114Y-114427700D01*
X220728685Y-114391985D01*
X220550114Y-114391985D01*
X220478685Y-114427700D01*
X220442971Y-114463414D01*
X220407257Y-114534842D01*
X220407257Y-114606271D01*
X220442971Y-114713414D01*
X220871542Y-115141985D01*
X220407257Y-115141985D01*
X219978685Y-114713414D02*
X220050114Y-114677700D01*
X220085828Y-114641985D01*
X220121542Y-114570557D01*
X220121542Y-114534842D01*
X220085828Y-114463414D01*
X220050114Y-114427700D01*
X219978685Y-114391985D01*
X219835828Y-114391985D01*
X219764400Y-114427700D01*
X219728685Y-114463414D01*
X219692971Y-114534842D01*
X219692971Y-114570557D01*
X219728685Y-114641985D01*
X219764400Y-114677700D01*
X219835828Y-114713414D01*
X219978685Y-114713414D01*
X220050114Y-114749128D01*
X220085828Y-114784842D01*
X220121542Y-114856271D01*
X220121542Y-114999128D01*
X220085828Y-115070557D01*
X220050114Y-115106271D01*
X219978685Y-115141985D01*
X219835828Y-115141985D01*
X219764400Y-115106271D01*
X219728685Y-115070557D01*
X219692971Y-114999128D01*
X219692971Y-114856271D01*
X219728685Y-114784842D01*
X219764400Y-114749128D01*
X219835828Y-114713414D01*
X220294142Y-113306085D02*
X220544142Y-112948942D01*
X220722714Y-113306085D02*
X220722714Y-112556085D01*
X220437000Y-112556085D01*
X220365571Y-112591800D01*
X220329857Y-112627514D01*
X220294142Y-112698942D01*
X220294142Y-112806085D01*
X220329857Y-112877514D01*
X220365571Y-112913228D01*
X220437000Y-112948942D01*
X220722714Y-112948942D01*
X220008428Y-112627514D02*
X219972714Y-112591800D01*
X219901285Y-112556085D01*
X219722714Y-112556085D01*
X219651285Y-112591800D01*
X219615571Y-112627514D01*
X219579857Y-112698942D01*
X219579857Y-112770371D01*
X219615571Y-112877514D01*
X220044142Y-113306085D01*
X219579857Y-113306085D01*
X219222714Y-113306085D02*
X219079857Y-113306085D01*
X219008428Y-113270371D01*
X218972714Y-113234657D01*
X218901285Y-113127514D01*
X218865571Y-112984657D01*
X218865571Y-112698942D01*
X218901285Y-112627514D01*
X218937000Y-112591800D01*
X219008428Y-112556085D01*
X219151285Y-112556085D01*
X219222714Y-112591800D01*
X219258428Y-112627514D01*
X219294142Y-112698942D01*
X219294142Y-112877514D01*
X219258428Y-112948942D01*
X219222714Y-112984657D01*
X219151285Y-113020371D01*
X219008428Y-113020371D01*
X218937000Y-112984657D01*
X218901285Y-112948942D01*
X218865571Y-112877514D01*
X269089285Y-139281760D02*
X269089285Y-138924617D01*
X268339285Y-138924617D01*
X268696428Y-139531760D02*
X268696428Y-139781760D01*
X269089285Y-139888903D02*
X269089285Y-139531760D01*
X268339285Y-139531760D01*
X268339285Y-139888903D01*
X269089285Y-140210331D02*
X268339285Y-140210331D01*
X268339285Y-140388903D01*
X268375000Y-140496046D01*
X268446428Y-140567474D01*
X268517857Y-140603189D01*
X268660714Y-140638903D01*
X268767857Y-140638903D01*
X268910714Y-140603189D01*
X268982142Y-140567474D01*
X269053571Y-140496046D01*
X269089285Y-140388903D01*
X269089285Y-140210331D01*
X269160714Y-140781760D02*
X269160714Y-141353189D01*
X268696428Y-141781760D02*
X268732142Y-141888903D01*
X268767857Y-141924617D01*
X268839285Y-141960331D01*
X268946428Y-141960331D01*
X269017857Y-141924617D01*
X269053571Y-141888903D01*
X269089285Y-141817474D01*
X269089285Y-141531760D01*
X268339285Y-141531760D01*
X268339285Y-141781760D01*
X268375000Y-141853189D01*
X268410714Y-141888903D01*
X268482142Y-141924617D01*
X268553571Y-141924617D01*
X268625000Y-141888903D01*
X268660714Y-141853189D01*
X268696428Y-141781760D01*
X268696428Y-141531760D01*
X269089285Y-142710331D02*
X268732142Y-142460331D01*
X269089285Y-142281760D02*
X268339285Y-142281760D01*
X268339285Y-142567474D01*
X268375000Y-142638903D01*
X268410714Y-142674617D01*
X268482142Y-142710331D01*
X268589285Y-142710331D01*
X268660714Y-142674617D01*
X268696428Y-142638903D01*
X268732142Y-142567474D01*
X268732142Y-142281760D01*
X269089285Y-143031760D02*
X268339285Y-143031760D01*
X268339285Y-143210331D01*
X268375000Y-143317474D01*
X268446428Y-143388903D01*
X268517857Y-143424617D01*
X268660714Y-143460331D01*
X268767857Y-143460331D01*
X268910714Y-143424617D01*
X268982142Y-143388903D01*
X269053571Y-143317474D01*
X269089285Y-143210331D01*
X269089285Y-143031760D01*
X269160714Y-143603189D02*
X269160714Y-144174617D01*
X268375000Y-144746046D02*
X268339285Y-144674617D01*
X268339285Y-144567474D01*
X268375000Y-144460331D01*
X268446428Y-144388903D01*
X268517857Y-144353189D01*
X268660714Y-144317474D01*
X268767857Y-144317474D01*
X268910714Y-144353189D01*
X268982142Y-144388903D01*
X269053571Y-144460331D01*
X269089285Y-144567474D01*
X269089285Y-144638903D01*
X269053571Y-144746046D01*
X269017857Y-144781760D01*
X268767857Y-144781760D01*
X268767857Y-144638903D01*
X269089285Y-145103189D02*
X268339285Y-145103189D01*
X269089285Y-145531760D01*
X268339285Y-145531760D01*
X269089285Y-145888903D02*
X268339285Y-145888903D01*
X268339285Y-146067474D01*
X268375000Y-146174617D01*
X268446428Y-146246046D01*
X268517857Y-146281760D01*
X268660714Y-146317474D01*
X268767857Y-146317474D01*
X268910714Y-146281760D01*
X268982142Y-146246046D01*
X269053571Y-146174617D01*
X269089285Y-146067474D01*
X269089285Y-145888903D01*
X280610222Y-139491406D02*
X280610222Y-138741406D01*
X280431651Y-138741406D01*
X280324508Y-138777121D01*
X280253079Y-138848549D01*
X280217365Y-138919978D01*
X280181651Y-139062835D01*
X280181651Y-139169978D01*
X280217365Y-139312835D01*
X280253079Y-139384263D01*
X280324508Y-139455692D01*
X280431651Y-139491406D01*
X280610222Y-139491406D01*
X279503079Y-138741406D02*
X279860222Y-138741406D01*
X279895936Y-139098549D01*
X279860222Y-139062835D01*
X279788793Y-139027121D01*
X279610222Y-139027121D01*
X279538793Y-139062835D01*
X279503079Y-139098549D01*
X279467365Y-139169978D01*
X279467365Y-139348549D01*
X279503079Y-139419978D01*
X279538793Y-139455692D01*
X279610222Y-139491406D01*
X279788793Y-139491406D01*
X279860222Y-139455692D01*
X279895936Y-139419978D01*
D12*
X308877780Y-133531478D02*
X309592066Y-133531478D01*
X309734923Y-133483859D01*
X309830161Y-133388621D01*
X309877780Y-133245763D01*
X309877780Y-133150525D01*
X309877780Y-134531478D02*
X309877780Y-133960049D01*
X309877780Y-134245763D02*
X308877780Y-134245763D01*
X309020638Y-134150525D01*
X309115876Y-134055287D01*
X309163495Y-133960049D01*
X309877780Y-135007668D02*
X309877780Y-135198144D01*
X309830161Y-135293382D01*
X309782542Y-135341002D01*
X309639685Y-135436240D01*
X309449209Y-135483859D01*
X309068257Y-135483859D01*
X308973019Y-135436240D01*
X308925400Y-135388621D01*
X308877780Y-135293382D01*
X308877780Y-135102906D01*
X308925400Y-135007668D01*
X308973019Y-134960049D01*
X309068257Y-134912430D01*
X309306352Y-134912430D01*
X309401590Y-134960049D01*
X309449209Y-135007668D01*
X309496828Y-135102906D01*
X309496828Y-135293382D01*
X309449209Y-135388621D01*
X309401590Y-135436240D01*
X309306352Y-135483859D01*
M02*
