G04 #@! TF.GenerationSoftware,KiCad,Pcbnew,(5.1.10-1-10_14)*
G04 #@! TF.CreationDate,2022-04-27T11:01:26-07:00*
G04 #@! TF.ProjectId,ulc-mm,756c632d-6d6d-42e6-9b69-6361645f7063,rev?*
G04 #@! TF.SameCoordinates,Original*
G04 #@! TF.FileFunction,Soldermask,Bot*
G04 #@! TF.FilePolarity,Negative*
%FSLAX46Y46*%
G04 Gerber Fmt 4.6, Leading zero omitted, Abs format (unit mm)*
G04 Created by KiCad (PCBNEW (5.1.10-1-10_14)) date 2022-04-27 11:01:26*
%MOMM*%
%LPD*%
G01*
G04 APERTURE LIST*
%ADD10O,1.801600X1.801600*%
%ADD11O,0.901600X1.401600*%
%ADD12C,2.901600*%
%ADD13C,0.300200*%
%ADD14C,4.061600*%
%ADD15C,1.701600*%
%ADD16C,1.541600*%
%ADD17C,2.381600*%
%ADD18C,4.091600*%
%ADD19C,2.641600*%
%ADD20C,2.801600*%
%ADD21C,2.362200*%
%ADD22C,0.401600*%
%ADD23C,1.151600*%
%ADD24C,5.501600*%
%ADD25C,6.501600*%
G04 APERTURE END LIST*
G36*
G01*
X207520000Y-97869200D02*
X209220000Y-97869200D01*
G75*
G02*
X209270800Y-97920000I0J-50800D01*
G01*
X209270800Y-99620000D01*
G75*
G02*
X209220000Y-99670800I-50800J0D01*
G01*
X207520000Y-99670800D01*
G75*
G02*
X207469200Y-99620000I0J50800D01*
G01*
X207469200Y-97920000D01*
G75*
G02*
X207520000Y-97869200I50800J0D01*
G01*
G37*
D10*
X208370000Y-96230000D03*
X210910000Y-98770000D03*
X210910000Y-96230000D03*
X213450000Y-98770000D03*
X213450000Y-96230000D03*
X215990000Y-98770000D03*
X215990000Y-96230000D03*
X218530000Y-98770000D03*
X218530000Y-96230000D03*
X221070000Y-98770000D03*
X221070000Y-96230000D03*
X223610000Y-98770000D03*
X223610000Y-96230000D03*
X226150000Y-98770000D03*
X226150000Y-96230000D03*
X228690000Y-98770000D03*
X228690000Y-96230000D03*
X231230000Y-98770000D03*
X231230000Y-96230000D03*
X233770000Y-98770000D03*
X233770000Y-96230000D03*
X236310000Y-98770000D03*
X236310000Y-96230000D03*
X238850000Y-98770000D03*
X238850000Y-96230000D03*
X241390000Y-98770000D03*
X241390000Y-96230000D03*
X243930000Y-98770000D03*
X243930000Y-96230000D03*
X246470000Y-98770000D03*
X246470000Y-96230000D03*
X249010000Y-98770000D03*
X249010000Y-96230000D03*
X251550000Y-98770000D03*
X251550000Y-96230000D03*
X254090000Y-98770000D03*
X254090000Y-96230000D03*
X256630000Y-98770000D03*
X256630000Y-96230000D03*
D11*
X222305960Y-166581120D03*
G36*
G01*
X224006760Y-166105720D02*
X224006760Y-167056520D01*
G75*
G02*
X223781360Y-167281920I-225400J0D01*
G01*
X223330560Y-167281920D01*
G75*
G02*
X223105160Y-167056520I0J225400D01*
G01*
X223105160Y-166105720D01*
G75*
G02*
X223330560Y-165880320I225400J0D01*
G01*
X223781360Y-165880320D01*
G75*
G02*
X224006760Y-166105720I0J-225400D01*
G01*
G37*
D12*
X228639800Y-166714000D03*
X261036200Y-113043000D03*
X203450000Y-109500000D03*
X234008600Y-166739400D03*
X203450000Y-104650000D03*
X203345180Y-157622540D03*
X239402800Y-166790200D03*
X203329940Y-152705100D03*
G36*
G01*
X211139800Y-111186400D02*
X211139800Y-110835600D01*
G75*
G02*
X211315200Y-110660200I175400J0D01*
G01*
X213116000Y-110660200D01*
G75*
G02*
X213291400Y-110835600I0J-175400D01*
G01*
X213291400Y-111186400D01*
G75*
G02*
X213116000Y-111361800I-175400J0D01*
G01*
X211315200Y-111361800D01*
G75*
G02*
X211139800Y-111186400I0J175400D01*
G01*
G37*
G36*
G01*
X211139800Y-109916400D02*
X211139800Y-109565600D01*
G75*
G02*
X211315200Y-109390200I175400J0D01*
G01*
X213116000Y-109390200D01*
G75*
G02*
X213291400Y-109565600I0J-175400D01*
G01*
X213291400Y-109916400D01*
G75*
G02*
X213116000Y-110091800I-175400J0D01*
G01*
X211315200Y-110091800D01*
G75*
G02*
X211139800Y-109916400I0J175400D01*
G01*
G37*
G36*
G01*
X211139800Y-108646400D02*
X211139800Y-108295600D01*
G75*
G02*
X211315200Y-108120200I175400J0D01*
G01*
X213116000Y-108120200D01*
G75*
G02*
X213291400Y-108295600I0J-175400D01*
G01*
X213291400Y-108646400D01*
G75*
G02*
X213116000Y-108821800I-175400J0D01*
G01*
X211315200Y-108821800D01*
G75*
G02*
X211139800Y-108646400I0J175400D01*
G01*
G37*
G36*
G01*
X211139800Y-107376400D02*
X211139800Y-107025600D01*
G75*
G02*
X211315200Y-106850200I175400J0D01*
G01*
X213116000Y-106850200D01*
G75*
G02*
X213291400Y-107025600I0J-175400D01*
G01*
X213291400Y-107376400D01*
G75*
G02*
X213116000Y-107551800I-175400J0D01*
G01*
X211315200Y-107551800D01*
G75*
G02*
X211139800Y-107376400I0J175400D01*
G01*
G37*
G36*
G01*
X211139800Y-106106400D02*
X211139800Y-105755600D01*
G75*
G02*
X211315200Y-105580200I175400J0D01*
G01*
X213116000Y-105580200D01*
G75*
G02*
X213291400Y-105755600I0J-175400D01*
G01*
X213291400Y-106106400D01*
G75*
G02*
X213116000Y-106281800I-175400J0D01*
G01*
X211315200Y-106281800D01*
G75*
G02*
X211139800Y-106106400I0J175400D01*
G01*
G37*
G36*
G01*
X211139800Y-104836400D02*
X211139800Y-104485600D01*
G75*
G02*
X211315200Y-104310200I175400J0D01*
G01*
X213116000Y-104310200D01*
G75*
G02*
X213291400Y-104485600I0J-175400D01*
G01*
X213291400Y-104836400D01*
G75*
G02*
X213116000Y-105011800I-175400J0D01*
G01*
X211315200Y-105011800D01*
G75*
G02*
X211139800Y-104836400I0J175400D01*
G01*
G37*
G36*
G01*
X211139800Y-103566400D02*
X211139800Y-103215600D01*
G75*
G02*
X211315200Y-103040200I175400J0D01*
G01*
X213116000Y-103040200D01*
G75*
G02*
X213291400Y-103215600I0J-175400D01*
G01*
X213291400Y-103566400D01*
G75*
G02*
X213116000Y-103741800I-175400J0D01*
G01*
X211315200Y-103741800D01*
G75*
G02*
X211139800Y-103566400I0J175400D01*
G01*
G37*
G36*
G01*
X211139800Y-102296400D02*
X211139800Y-101945600D01*
G75*
G02*
X211315200Y-101770200I175400J0D01*
G01*
X213116000Y-101770200D01*
G75*
G02*
X213291400Y-101945600I0J-175400D01*
G01*
X213291400Y-102296400D01*
G75*
G02*
X213116000Y-102471800I-175400J0D01*
G01*
X211315200Y-102471800D01*
G75*
G02*
X211139800Y-102296400I0J175400D01*
G01*
G37*
G36*
G01*
X220439800Y-102296400D02*
X220439800Y-101945600D01*
G75*
G02*
X220615200Y-101770200I175400J0D01*
G01*
X222416000Y-101770200D01*
G75*
G02*
X222591400Y-101945600I0J-175400D01*
G01*
X222591400Y-102296400D01*
G75*
G02*
X222416000Y-102471800I-175400J0D01*
G01*
X220615200Y-102471800D01*
G75*
G02*
X220439800Y-102296400I0J175400D01*
G01*
G37*
G36*
G01*
X220439800Y-103566400D02*
X220439800Y-103215600D01*
G75*
G02*
X220615200Y-103040200I175400J0D01*
G01*
X222416000Y-103040200D01*
G75*
G02*
X222591400Y-103215600I0J-175400D01*
G01*
X222591400Y-103566400D01*
G75*
G02*
X222416000Y-103741800I-175400J0D01*
G01*
X220615200Y-103741800D01*
G75*
G02*
X220439800Y-103566400I0J175400D01*
G01*
G37*
G36*
G01*
X220439800Y-104836400D02*
X220439800Y-104485600D01*
G75*
G02*
X220615200Y-104310200I175400J0D01*
G01*
X222416000Y-104310200D01*
G75*
G02*
X222591400Y-104485600I0J-175400D01*
G01*
X222591400Y-104836400D01*
G75*
G02*
X222416000Y-105011800I-175400J0D01*
G01*
X220615200Y-105011800D01*
G75*
G02*
X220439800Y-104836400I0J175400D01*
G01*
G37*
G36*
G01*
X220439800Y-106106400D02*
X220439800Y-105755600D01*
G75*
G02*
X220615200Y-105580200I175400J0D01*
G01*
X222416000Y-105580200D01*
G75*
G02*
X222591400Y-105755600I0J-175400D01*
G01*
X222591400Y-106106400D01*
G75*
G02*
X222416000Y-106281800I-175400J0D01*
G01*
X220615200Y-106281800D01*
G75*
G02*
X220439800Y-106106400I0J175400D01*
G01*
G37*
G36*
G01*
X220439800Y-107376400D02*
X220439800Y-107025600D01*
G75*
G02*
X220615200Y-106850200I175400J0D01*
G01*
X222416000Y-106850200D01*
G75*
G02*
X222591400Y-107025600I0J-175400D01*
G01*
X222591400Y-107376400D01*
G75*
G02*
X222416000Y-107551800I-175400J0D01*
G01*
X220615200Y-107551800D01*
G75*
G02*
X220439800Y-107376400I0J175400D01*
G01*
G37*
G36*
G01*
X220439800Y-108646400D02*
X220439800Y-108295600D01*
G75*
G02*
X220615200Y-108120200I175400J0D01*
G01*
X222416000Y-108120200D01*
G75*
G02*
X222591400Y-108295600I0J-175400D01*
G01*
X222591400Y-108646400D01*
G75*
G02*
X222416000Y-108821800I-175400J0D01*
G01*
X220615200Y-108821800D01*
G75*
G02*
X220439800Y-108646400I0J175400D01*
G01*
G37*
G36*
G01*
X220439800Y-109916400D02*
X220439800Y-109565600D01*
G75*
G02*
X220615200Y-109390200I175400J0D01*
G01*
X222416000Y-109390200D01*
G75*
G02*
X222591400Y-109565600I0J-175400D01*
G01*
X222591400Y-109916400D01*
G75*
G02*
X222416000Y-110091800I-175400J0D01*
G01*
X220615200Y-110091800D01*
G75*
G02*
X220439800Y-109916400I0J175400D01*
G01*
G37*
G36*
G01*
X220439800Y-111186400D02*
X220439800Y-110835600D01*
G75*
G02*
X220615200Y-110660200I175400J0D01*
G01*
X222416000Y-110660200D01*
G75*
G02*
X222591400Y-110835600I0J-175400D01*
G01*
X222591400Y-111186400D01*
G75*
G02*
X222416000Y-111361800I-175400J0D01*
G01*
X220615200Y-111361800D01*
G75*
G02*
X220439800Y-111186400I0J175400D01*
G01*
G37*
G36*
G01*
X226968500Y-129533100D02*
X226968500Y-128582300D01*
G75*
G02*
X227193900Y-128356900I225400J0D01*
G01*
X227644700Y-128356900D01*
G75*
G02*
X227870100Y-128582300I0J-225400D01*
G01*
X227870100Y-129533100D01*
G75*
G02*
X227644700Y-129758500I-225400J0D01*
G01*
X227193900Y-129758500D01*
G75*
G02*
X226968500Y-129533100I0J225400D01*
G01*
G37*
D11*
X228669300Y-129057700D03*
G36*
G01*
X251708600Y-118506250D02*
X251708600Y-117942950D01*
G75*
G02*
X251952750Y-117698800I244150J0D01*
G01*
X252441050Y-117698800D01*
G75*
G02*
X252685200Y-117942950I0J-244150D01*
G01*
X252685200Y-118506250D01*
G75*
G02*
X252441050Y-118750400I-244150J0D01*
G01*
X251952750Y-118750400D01*
G75*
G02*
X251708600Y-118506250I0J244150D01*
G01*
G37*
G36*
G01*
X253283600Y-118506250D02*
X253283600Y-117942950D01*
G75*
G02*
X253527750Y-117698800I244150J0D01*
G01*
X254016050Y-117698800D01*
G75*
G02*
X254260200Y-117942950I0J-244150D01*
G01*
X254260200Y-118506250D01*
G75*
G02*
X254016050Y-118750400I-244150J0D01*
G01*
X253527750Y-118750400D01*
G75*
G02*
X253283600Y-118506250I0J244150D01*
G01*
G37*
D13*
X250565900Y-110804100D03*
X251865900Y-110804100D03*
X253165900Y-110804100D03*
X249265900Y-110804100D03*
X247965900Y-110804100D03*
D14*
X259647900Y-160985500D03*
X246447900Y-160985500D03*
G36*
G01*
X211144800Y-113273850D02*
X211144800Y-112710550D01*
G75*
G02*
X211388950Y-112466400I244150J0D01*
G01*
X211877250Y-112466400D01*
G75*
G02*
X212121400Y-112710550I0J-244150D01*
G01*
X212121400Y-113273850D01*
G75*
G02*
X211877250Y-113518000I-244150J0D01*
G01*
X211388950Y-113518000D01*
G75*
G02*
X211144800Y-113273850I0J244150D01*
G01*
G37*
G36*
G01*
X212719800Y-113273850D02*
X212719800Y-112710550D01*
G75*
G02*
X212963950Y-112466400I244150J0D01*
G01*
X213452250Y-112466400D01*
G75*
G02*
X213696400Y-112710550I0J-244150D01*
G01*
X213696400Y-113273850D01*
G75*
G02*
X213452250Y-113518000I-244150J0D01*
G01*
X212963950Y-113518000D01*
G75*
G02*
X212719800Y-113273850I0J244150D01*
G01*
G37*
G36*
G01*
X250241900Y-120423300D02*
X251841900Y-120423300D01*
G75*
G02*
X251892700Y-120474100I0J-50800D01*
G01*
X251892700Y-122074100D01*
G75*
G02*
X251841900Y-122124900I-50800J0D01*
G01*
X250241900Y-122124900D01*
G75*
G02*
X250191100Y-122074100I0J50800D01*
G01*
X250191100Y-120474100D01*
G75*
G02*
X250241900Y-120423300I50800J0D01*
G01*
G37*
D15*
X251041900Y-123274100D03*
G36*
G01*
X241650500Y-149277050D02*
X241650500Y-150240350D01*
G75*
G02*
X241381350Y-150509500I-269150J0D01*
G01*
X240843050Y-150509500D01*
G75*
G02*
X240573900Y-150240350I0J269150D01*
G01*
X240573900Y-149277050D01*
G75*
G02*
X240843050Y-149007900I269150J0D01*
G01*
X241381350Y-149007900D01*
G75*
G02*
X241650500Y-149277050I0J-269150D01*
G01*
G37*
G36*
G01*
X243525500Y-149277050D02*
X243525500Y-150240350D01*
G75*
G02*
X243256350Y-150509500I-269150J0D01*
G01*
X242718050Y-150509500D01*
G75*
G02*
X242448900Y-150240350I0J269150D01*
G01*
X242448900Y-149277050D01*
G75*
G02*
X242718050Y-149007900I269150J0D01*
G01*
X243256350Y-149007900D01*
G75*
G02*
X243525500Y-149277050I0J-269150D01*
G01*
G37*
G36*
G01*
X237403100Y-134903400D02*
X238873100Y-134903400D01*
G75*
G02*
X238923900Y-134954200I0J-50800D01*
G01*
X238923900Y-137954200D01*
G75*
G02*
X238873100Y-138005000I-50800J0D01*
G01*
X237403100Y-138005000D01*
G75*
G02*
X237352300Y-137954200I0J50800D01*
G01*
X237352300Y-134954200D01*
G75*
G02*
X237403100Y-134903400I50800J0D01*
G01*
G37*
G36*
G01*
X237403100Y-127603400D02*
X238873100Y-127603400D01*
G75*
G02*
X238923900Y-127654200I0J-50800D01*
G01*
X238923900Y-130654200D01*
G75*
G02*
X238873100Y-130705000I-50800J0D01*
G01*
X237403100Y-130705000D01*
G75*
G02*
X237352300Y-130654200I0J50800D01*
G01*
X237352300Y-127654200D01*
G75*
G02*
X237403100Y-127603400I50800J0D01*
G01*
G37*
G36*
G01*
X228453100Y-147388825D02*
X228453100Y-144432375D01*
G75*
G02*
X228725675Y-144159800I272575J0D01*
G01*
X229407125Y-144159800D01*
G75*
G02*
X229679700Y-144432375I0J-272575D01*
G01*
X229679700Y-147388825D01*
G75*
G02*
X229407125Y-147661400I-272575J0D01*
G01*
X228725675Y-147661400D01*
G75*
G02*
X228453100Y-147388825I0J272575D01*
G01*
G37*
G36*
G01*
X232728100Y-147388825D02*
X232728100Y-144432375D01*
G75*
G02*
X233000675Y-144159800I272575J0D01*
G01*
X233682125Y-144159800D01*
G75*
G02*
X233954700Y-144432375I0J-272575D01*
G01*
X233954700Y-147388825D01*
G75*
G02*
X233682125Y-147661400I-272575J0D01*
G01*
X233000675Y-147661400D01*
G75*
G02*
X232728100Y-147388825I0J272575D01*
G01*
G37*
G36*
G01*
X238555600Y-159861700D02*
X237085600Y-159861700D01*
G75*
G02*
X237034800Y-159810900I0J50800D01*
G01*
X237034800Y-156810900D01*
G75*
G02*
X237085600Y-156760100I50800J0D01*
G01*
X238555600Y-156760100D01*
G75*
G02*
X238606400Y-156810900I0J-50800D01*
G01*
X238606400Y-159810900D01*
G75*
G02*
X238555600Y-159861700I-50800J0D01*
G01*
G37*
G36*
G01*
X238555600Y-152561700D02*
X237085600Y-152561700D01*
G75*
G02*
X237034800Y-152510900I0J50800D01*
G01*
X237034800Y-149510900D01*
G75*
G02*
X237085600Y-149460100I50800J0D01*
G01*
X238555600Y-149460100D01*
G75*
G02*
X238606400Y-149510900I0J-50800D01*
G01*
X238606400Y-152510900D01*
G75*
G02*
X238555600Y-152561700I-50800J0D01*
G01*
G37*
G36*
G01*
X207749200Y-104250000D02*
X207749200Y-102550000D01*
G75*
G02*
X207800000Y-102499200I50800J0D01*
G01*
X209500000Y-102499200D01*
G75*
G02*
X209550800Y-102550000I0J-50800D01*
G01*
X209550800Y-104250000D01*
G75*
G02*
X209500000Y-104300800I-50800J0D01*
G01*
X207800000Y-104300800D01*
G75*
G02*
X207749200Y-104250000I0J50800D01*
G01*
G37*
D10*
X208650000Y-105940000D03*
X208650000Y-108480000D03*
X208650000Y-111020000D03*
X208650000Y-113560000D03*
G36*
G01*
X210520640Y-160805900D02*
X210520640Y-157405900D01*
G75*
G02*
X210571440Y-157355100I50800J0D01*
G01*
X214971440Y-157355100D01*
G75*
G02*
X215022240Y-157405900I0J-50800D01*
G01*
X215022240Y-160805900D01*
G75*
G02*
X214971440Y-160856700I-50800J0D01*
G01*
X210571440Y-160856700D01*
G75*
G02*
X210520640Y-160805900I0J50800D01*
G01*
G37*
G36*
G01*
X220720640Y-160805900D02*
X220720640Y-157405900D01*
G75*
G02*
X220771440Y-157355100I50800J0D01*
G01*
X225171440Y-157355100D01*
G75*
G02*
X225222240Y-157405900I0J-50800D01*
G01*
X225222240Y-160805900D01*
G75*
G02*
X225171440Y-160856700I-50800J0D01*
G01*
X220771440Y-160856700D01*
G75*
G02*
X220720640Y-160805900I0J50800D01*
G01*
G37*
G36*
G01*
X257393550Y-106812900D02*
X256830250Y-106812900D01*
G75*
G02*
X256586100Y-106568750I0J244150D01*
G01*
X256586100Y-106080450D01*
G75*
G02*
X256830250Y-105836300I244150J0D01*
G01*
X257393550Y-105836300D01*
G75*
G02*
X257637700Y-106080450I0J-244150D01*
G01*
X257637700Y-106568750D01*
G75*
G02*
X257393550Y-106812900I-244150J0D01*
G01*
G37*
G36*
G01*
X257393550Y-108387900D02*
X256830250Y-108387900D01*
G75*
G02*
X256586100Y-108143750I0J244150D01*
G01*
X256586100Y-107655450D01*
G75*
G02*
X256830250Y-107411300I244150J0D01*
G01*
X257393550Y-107411300D01*
G75*
G02*
X257637700Y-107655450I0J-244150D01*
G01*
X257637700Y-108143750D01*
G75*
G02*
X257393550Y-108387900I-244150J0D01*
G01*
G37*
G36*
G01*
X248113200Y-118006450D02*
X248113200Y-118569750D01*
G75*
G02*
X247869050Y-118813900I-244150J0D01*
G01*
X247380750Y-118813900D01*
G75*
G02*
X247136600Y-118569750I0J244150D01*
G01*
X247136600Y-118006450D01*
G75*
G02*
X247380750Y-117762300I244150J0D01*
G01*
X247869050Y-117762300D01*
G75*
G02*
X248113200Y-118006450I0J-244150D01*
G01*
G37*
G36*
G01*
X249688200Y-118006450D02*
X249688200Y-118569750D01*
G75*
G02*
X249444050Y-118813900I-244150J0D01*
G01*
X248955750Y-118813900D01*
G75*
G02*
X248711600Y-118569750I0J244150D01*
G01*
X248711600Y-118006450D01*
G75*
G02*
X248955750Y-117762300I244150J0D01*
G01*
X249444050Y-117762300D01*
G75*
G02*
X249688200Y-118006450I0J-244150D01*
G01*
G37*
G36*
G01*
X254109100Y-105361750D02*
X254109100Y-104798450D01*
G75*
G02*
X254353250Y-104554300I244150J0D01*
G01*
X254841550Y-104554300D01*
G75*
G02*
X255085700Y-104798450I0J-244150D01*
G01*
X255085700Y-105361750D01*
G75*
G02*
X254841550Y-105605900I-244150J0D01*
G01*
X254353250Y-105605900D01*
G75*
G02*
X254109100Y-105361750I0J244150D01*
G01*
G37*
G36*
G01*
X252534100Y-105361750D02*
X252534100Y-104798450D01*
G75*
G02*
X252778250Y-104554300I244150J0D01*
G01*
X253266550Y-104554300D01*
G75*
G02*
X253510700Y-104798450I0J-244150D01*
G01*
X253510700Y-105361750D01*
G75*
G02*
X253266550Y-105605900I-244150J0D01*
G01*
X252778250Y-105605900D01*
G75*
G02*
X252534100Y-105361750I0J244150D01*
G01*
G37*
D16*
X260223400Y-103886300D03*
X262763400Y-106426300D03*
X260223400Y-108966300D03*
G36*
G01*
X234165600Y-129338050D02*
X234165600Y-130301350D01*
G75*
G02*
X233896450Y-130570500I-269150J0D01*
G01*
X233358150Y-130570500D01*
G75*
G02*
X233089000Y-130301350I0J269150D01*
G01*
X233089000Y-129338050D01*
G75*
G02*
X233358150Y-129068900I269150J0D01*
G01*
X233896450Y-129068900D01*
G75*
G02*
X234165600Y-129338050I0J-269150D01*
G01*
G37*
G36*
G01*
X232290600Y-129338050D02*
X232290600Y-130301350D01*
G75*
G02*
X232021450Y-130570500I-269150J0D01*
G01*
X231483150Y-130570500D01*
G75*
G02*
X231214000Y-130301350I0J269150D01*
G01*
X231214000Y-129338050D01*
G75*
G02*
X231483150Y-129068900I269150J0D01*
G01*
X232021450Y-129068900D01*
G75*
G02*
X232290600Y-129338050I0J-269150D01*
G01*
G37*
G36*
G01*
X248991980Y-130411980D02*
X251271980Y-130411980D01*
G75*
G02*
X251322780Y-130462780I0J-50800D01*
G01*
X251322780Y-132742780D01*
G75*
G02*
X251271980Y-132793580I-50800J0D01*
G01*
X248991980Y-132793580D01*
G75*
G02*
X248941180Y-132742780I0J50800D01*
G01*
X248941180Y-130462780D01*
G75*
G02*
X248991980Y-130411980I50800J0D01*
G01*
G37*
D17*
X250131980Y-136682780D03*
D18*
X260291980Y-130332780D03*
X260291980Y-137952780D03*
D19*
X252671980Y-134142780D03*
G36*
G01*
X216220200Y-116168500D02*
X216920200Y-116168500D01*
G75*
G02*
X216971000Y-116219300I0J-50800D01*
G01*
X216971000Y-116669300D01*
G75*
G02*
X216920200Y-116720100I-50800J0D01*
G01*
X216220200Y-116720100D01*
G75*
G02*
X216169400Y-116669300I0J50800D01*
G01*
X216169400Y-116219300D01*
G75*
G02*
X216220200Y-116168500I50800J0D01*
G01*
G37*
G36*
G01*
X216220200Y-117468500D02*
X216920200Y-117468500D01*
G75*
G02*
X216971000Y-117519300I0J-50800D01*
G01*
X216971000Y-117969300D01*
G75*
G02*
X216920200Y-118020100I-50800J0D01*
G01*
X216220200Y-118020100D01*
G75*
G02*
X216169400Y-117969300I0J50800D01*
G01*
X216169400Y-117519300D01*
G75*
G02*
X216220200Y-117468500I50800J0D01*
G01*
G37*
G36*
G01*
X214220200Y-116818500D02*
X214920200Y-116818500D01*
G75*
G02*
X214971000Y-116869300I0J-50800D01*
G01*
X214971000Y-117319300D01*
G75*
G02*
X214920200Y-117370100I-50800J0D01*
G01*
X214220200Y-117370100D01*
G75*
G02*
X214169400Y-117319300I0J50800D01*
G01*
X214169400Y-116869300D01*
G75*
G02*
X214220200Y-116818500I50800J0D01*
G01*
G37*
G36*
G01*
X218697000Y-114288550D02*
X218697000Y-115251850D01*
G75*
G02*
X218427850Y-115521000I-269150J0D01*
G01*
X217889550Y-115521000D01*
G75*
G02*
X217620400Y-115251850I0J269150D01*
G01*
X217620400Y-114288550D01*
G75*
G02*
X217889550Y-114019400I269150J0D01*
G01*
X218427850Y-114019400D01*
G75*
G02*
X218697000Y-114288550I0J-269150D01*
G01*
G37*
G36*
G01*
X216822000Y-114288550D02*
X216822000Y-115251850D01*
G75*
G02*
X216552850Y-115521000I-269150J0D01*
G01*
X216014550Y-115521000D01*
G75*
G02*
X215745400Y-115251850I0J269150D01*
G01*
X215745400Y-114288550D01*
G75*
G02*
X216014550Y-114019400I269150J0D01*
G01*
X216552850Y-114019400D01*
G75*
G02*
X216822000Y-114288550I0J-269150D01*
G01*
G37*
G36*
G01*
X215767600Y-113248450D02*
X215767600Y-112685150D01*
G75*
G02*
X216011750Y-112441000I244150J0D01*
G01*
X216500050Y-112441000D01*
G75*
G02*
X216744200Y-112685150I0J-244150D01*
G01*
X216744200Y-113248450D01*
G75*
G02*
X216500050Y-113492600I-244150J0D01*
G01*
X216011750Y-113492600D01*
G75*
G02*
X215767600Y-113248450I0J244150D01*
G01*
G37*
G36*
G01*
X217342600Y-113248450D02*
X217342600Y-112685150D01*
G75*
G02*
X217586750Y-112441000I244150J0D01*
G01*
X218075050Y-112441000D01*
G75*
G02*
X218319200Y-112685150I0J-244150D01*
G01*
X218319200Y-113248450D01*
G75*
G02*
X218075050Y-113492600I-244150J0D01*
G01*
X217586750Y-113492600D01*
G75*
G02*
X217342600Y-113248450I0J244150D01*
G01*
G37*
D20*
X270096000Y-97500000D03*
X270096000Y-115500000D03*
X314096000Y-97500000D03*
X314096000Y-115500000D03*
D11*
X279203200Y-110398600D03*
G36*
G01*
X277502400Y-110874000D02*
X277502400Y-109923200D01*
G75*
G02*
X277727800Y-109697800I225400J0D01*
G01*
X278178600Y-109697800D01*
G75*
G02*
X278404000Y-109923200I0J-225400D01*
G01*
X278404000Y-110874000D01*
G75*
G02*
X278178600Y-111099400I-225400J0D01*
G01*
X277727800Y-111099400D01*
G75*
G02*
X277502400Y-110874000I0J225400D01*
G01*
G37*
G36*
G01*
X297517600Y-116487400D02*
X297517600Y-115536600D01*
G75*
G02*
X297743000Y-115311200I225400J0D01*
G01*
X298193800Y-115311200D01*
G75*
G02*
X298419200Y-115536600I0J-225400D01*
G01*
X298419200Y-116487400D01*
G75*
G02*
X298193800Y-116712800I-225400J0D01*
G01*
X297743000Y-116712800D01*
G75*
G02*
X297517600Y-116487400I0J225400D01*
G01*
G37*
X299218400Y-116012000D03*
G36*
G01*
X277400800Y-104778000D02*
X277400800Y-103827200D01*
G75*
G02*
X277626200Y-103601800I225400J0D01*
G01*
X278077000Y-103601800D01*
G75*
G02*
X278302400Y-103827200I0J-225400D01*
G01*
X278302400Y-104778000D01*
G75*
G02*
X278077000Y-105003400I-225400J0D01*
G01*
X277626200Y-105003400D01*
G75*
G02*
X277400800Y-104778000I0J225400D01*
G01*
G37*
X279101600Y-104302600D03*
X277846200Y-97520800D03*
G36*
G01*
X279547000Y-97045400D02*
X279547000Y-97996200D01*
G75*
G02*
X279321600Y-98221600I-225400J0D01*
G01*
X278870800Y-98221600D01*
G75*
G02*
X278645400Y-97996200I0J225400D01*
G01*
X278645400Y-97045400D01*
G75*
G02*
X278870800Y-96820000I225400J0D01*
G01*
X279321600Y-96820000D01*
G75*
G02*
X279547000Y-97045400I0J-225400D01*
G01*
G37*
G36*
G01*
X287014600Y-97045400D02*
X287014600Y-97996200D01*
G75*
G02*
X286789200Y-98221600I-225400J0D01*
G01*
X286338400Y-98221600D01*
G75*
G02*
X286113000Y-97996200I0J225400D01*
G01*
X286113000Y-97045400D01*
G75*
G02*
X286338400Y-96820000I225400J0D01*
G01*
X286789200Y-96820000D01*
G75*
G02*
X287014600Y-97045400I0J-225400D01*
G01*
G37*
X285313800Y-97520800D03*
G36*
G01*
X294053600Y-98307300D02*
X292353600Y-98307300D01*
G75*
G02*
X292302800Y-98256500I0J50800D01*
G01*
X292302800Y-96556500D01*
G75*
G02*
X292353600Y-96505700I50800J0D01*
G01*
X294053600Y-96505700D01*
G75*
G02*
X294104400Y-96556500I0J-50800D01*
G01*
X294104400Y-98256500D01*
G75*
G02*
X294053600Y-98307300I-50800J0D01*
G01*
G37*
D10*
X295743600Y-97406500D03*
X298283600Y-97406500D03*
G36*
G01*
X268304600Y-126459200D02*
X269355400Y-126459200D01*
G75*
G02*
X269880800Y-126984600I0J-525400D01*
G01*
X269880800Y-130035400D01*
G75*
G02*
X269355400Y-130560800I-525400J0D01*
G01*
X268304600Y-130560800D01*
G75*
G02*
X267779200Y-130035400I0J525400D01*
G01*
X267779200Y-126984600D01*
G75*
G02*
X268304600Y-126459200I525400J0D01*
G01*
G37*
G36*
G01*
X273604600Y-126459200D02*
X274655400Y-126459200D01*
G75*
G02*
X275180800Y-126984600I0J-525400D01*
G01*
X275180800Y-130035400D01*
G75*
G02*
X274655400Y-130560800I-525400J0D01*
G01*
X273604600Y-130560800D01*
G75*
G02*
X273079200Y-130035400I0J525400D01*
G01*
X273079200Y-126984600D01*
G75*
G02*
X273604600Y-126459200I525400J0D01*
G01*
G37*
G36*
G01*
X270934600Y-126469200D02*
X271985400Y-126469200D01*
G75*
G02*
X272510800Y-126994600I0J-525400D01*
G01*
X272510800Y-130045400D01*
G75*
G02*
X271985400Y-130570800I-525400J0D01*
G01*
X270934600Y-130570800D01*
G75*
G02*
X270409200Y-130045400I0J525400D01*
G01*
X270409200Y-126994600D01*
G75*
G02*
X270934600Y-126469200I525400J0D01*
G01*
G37*
D21*
X269550251Y-123406812D03*
D22*
X279650251Y-134506811D03*
X279650251Y-133906811D03*
X280450251Y-134506811D03*
X280450251Y-133906811D03*
X280450251Y-133306811D03*
X279650251Y-133306811D03*
X280450251Y-132706811D03*
X279650251Y-132706811D03*
X279650251Y-132106811D03*
X280450251Y-132106811D03*
G36*
G01*
X278951051Y-131756810D02*
X278951051Y-135056812D01*
G75*
G02*
X278900252Y-135107611I-50799J0D01*
G01*
X278400250Y-135107611D01*
G75*
G02*
X278349451Y-135056812I0J50799D01*
G01*
X278349451Y-131756810D01*
G75*
G02*
X278400250Y-131706011I50799J0D01*
G01*
X278900252Y-131706011D01*
G75*
G02*
X278951051Y-131756810I0J-50799D01*
G01*
G37*
G36*
G01*
X281751051Y-131756810D02*
X281751051Y-135056812D01*
G75*
G02*
X281700252Y-135107611I-50799J0D01*
G01*
X281200250Y-135107611D01*
G75*
G02*
X281149451Y-135056812I0J50799D01*
G01*
X281149451Y-131756810D01*
G75*
G02*
X281200250Y-131706011I50799J0D01*
G01*
X281700252Y-131706011D01*
G75*
G02*
X281751051Y-131756810I0J-50799D01*
G01*
G37*
G36*
G01*
X280751051Y-131756811D02*
X280751051Y-135056811D01*
G75*
G02*
X280700251Y-135107611I-50800J0D01*
G01*
X279400251Y-135107611D01*
G75*
G02*
X279349451Y-135056811I0J50800D01*
G01*
X279349451Y-131756811D01*
G75*
G02*
X279400251Y-131706011I50800J0D01*
G01*
X280700251Y-131706011D01*
G75*
G02*
X280751051Y-131756811I0J-50800D01*
G01*
G37*
D23*
X274550251Y-123880532D03*
X291050251Y-133406811D03*
D21*
X269550251Y-143406811D03*
X290550251Y-143406811D03*
X290550251Y-123406811D03*
D24*
X203500000Y-97500000D03*
X261500000Y-97500000D03*
X203500000Y-146500000D03*
X261500000Y-146500000D03*
D25*
X203500000Y-165500000D03*
M02*
