G04 #@! TF.GenerationSoftware,KiCad,Pcbnew,(5.1.10-1-10_14)*
G04 #@! TF.CreationDate,2022-08-11T15:17:29-07:00*
G04 #@! TF.ProjectId,ulc-mm,756c632d-6d6d-42e6-9b69-6361645f7063,rev?*
G04 #@! TF.SameCoordinates,Original*
G04 #@! TF.FileFunction,Copper,L1,Top*
G04 #@! TF.FilePolarity,Positive*
%FSLAX46Y46*%
G04 Gerber Fmt 4.6, Leading zero omitted, Abs format (unit mm)*
G04 Created by KiCad (PCBNEW (5.1.10-1-10_14)) date 2022-08-11 15:17:29*
%MOMM*%
%LPD*%
G01*
G04 APERTURE LIST*
G04 #@! TA.AperFunction,ComponentPad*
%ADD10C,3.960000*%
G04 #@! TD*
G04 #@! TA.AperFunction,SMDPad,CuDef*
%ADD11R,3.960000X3.960000*%
G04 #@! TD*
G04 #@! TA.AperFunction,ComponentPad*
%ADD12C,0.300000*%
G04 #@! TD*
G04 #@! TA.AperFunction,SMDPad,CuDef*
%ADD13R,1.675000X3.400000*%
G04 #@! TD*
G04 #@! TA.AperFunction,SMDPad,CuDef*
%ADD14R,6.170000X2.400000*%
G04 #@! TD*
G04 #@! TA.AperFunction,SMDPad,CuDef*
%ADD15R,0.300000X1.600000*%
G04 #@! TD*
G04 #@! TA.AperFunction,SMDPad,CuDef*
%ADD16R,6.170000X0.500000*%
G04 #@! TD*
G04 #@! TA.AperFunction,ComponentPad*
%ADD17R,1.700000X1.700000*%
G04 #@! TD*
G04 #@! TA.AperFunction,ComponentPad*
%ADD18O,1.700000X1.700000*%
G04 #@! TD*
G04 #@! TA.AperFunction,ComponentPad*
%ADD19O,0.900000X1.400000*%
G04 #@! TD*
G04 #@! TA.AperFunction,SMDPad,CuDef*
%ADD20R,0.300000X1.000000*%
G04 #@! TD*
G04 #@! TA.AperFunction,SMDPad,CuDef*
%ADD21R,1.750000X1.050000*%
G04 #@! TD*
G04 #@! TA.AperFunction,ComponentPad*
%ADD22C,2.800000*%
G04 #@! TD*
G04 #@! TA.AperFunction,SMDPad,CuDef*
%ADD23R,1.060000X1.060000*%
G04 #@! TD*
G04 #@! TA.AperFunction,SMDPad,CuDef*
%ADD24R,0.650000X1.060000*%
G04 #@! TD*
G04 #@! TA.AperFunction,SMDPad,CuDef*
%ADD25R,0.450000X0.700000*%
G04 #@! TD*
G04 #@! TA.AperFunction,SMDPad,CuDef*
%ADD26R,2.400000X0.740000*%
G04 #@! TD*
G04 #@! TA.AperFunction,ComponentPad*
%ADD27R,1.600000X1.600000*%
G04 #@! TD*
G04 #@! TA.AperFunction,ComponentPad*
%ADD28C,1.600000*%
G04 #@! TD*
G04 #@! TA.AperFunction,ComponentPad*
%ADD29C,1.440000*%
G04 #@! TD*
G04 #@! TA.AperFunction,SMDPad,CuDef*
%ADD30R,1.120000X2.440000*%
G04 #@! TD*
G04 #@! TA.AperFunction,ComponentPad*
%ADD31R,2.280000X2.280000*%
G04 #@! TD*
G04 #@! TA.AperFunction,ComponentPad*
%ADD32C,2.280000*%
G04 #@! TD*
G04 #@! TA.AperFunction,SMDPad,CuDef*
%ADD33R,0.700000X0.450000*%
G04 #@! TD*
G04 #@! TA.AperFunction,SMDPad,CuDef*
%ADD34R,0.740000X2.400000*%
G04 #@! TD*
G04 #@! TA.AperFunction,SMDPad,CuDef*
%ADD35R,2.500000X2.300000*%
G04 #@! TD*
G04 #@! TA.AperFunction,SMDPad,CuDef*
%ADD36R,15.000000X15.000000*%
G04 #@! TD*
G04 #@! TA.AperFunction,ComponentPad*
%ADD37C,5.400000*%
G04 #@! TD*
G04 #@! TA.AperFunction,ComponentPad*
%ADD38C,6.400000*%
G04 #@! TD*
G04 #@! TA.AperFunction,ComponentPad*
%ADD39O,1.300000X0.800000*%
G04 #@! TD*
G04 #@! TA.AperFunction,ComponentPad*
%ADD40O,0.800000X1.300000*%
G04 #@! TD*
G04 #@! TA.AperFunction,SMDPad,CuDef*
%ADD41R,0.650000X0.700000*%
G04 #@! TD*
G04 #@! TA.AperFunction,SMDPad,CuDef*
%ADD42R,0.700000X0.650000*%
G04 #@! TD*
G04 #@! TA.AperFunction,ViaPad*
%ADD43C,1.000000*%
G04 #@! TD*
G04 #@! TA.AperFunction,ViaPad*
%ADD44C,0.900000*%
G04 #@! TD*
G04 #@! TA.AperFunction,ViaPad*
%ADD45C,0.600000*%
G04 #@! TD*
G04 #@! TA.AperFunction,Conductor*
%ADD46C,0.500000*%
G04 #@! TD*
G04 #@! TA.AperFunction,Conductor*
%ADD47C,0.200000*%
G04 #@! TD*
G04 #@! TA.AperFunction,Conductor*
%ADD48C,0.300000*%
G04 #@! TD*
G04 #@! TA.AperFunction,Conductor*
%ADD49C,0.750000*%
G04 #@! TD*
G04 #@! TA.AperFunction,Conductor*
%ADD50C,0.350000*%
G04 #@! TD*
G04 #@! TA.AperFunction,Conductor*
%ADD51C,0.254000*%
G04 #@! TD*
G04 #@! TA.AperFunction,Conductor*
%ADD52C,0.150000*%
G04 #@! TD*
G04 APERTURE END LIST*
D10*
X246447900Y-160985500D03*
X259647900Y-160985500D03*
D11*
X253047900Y-160985500D03*
D12*
X254465900Y-110804100D03*
X254465900Y-112104100D03*
X253165900Y-112104100D03*
X251865900Y-112104100D03*
X250565900Y-112104100D03*
X249265900Y-112104100D03*
X247965900Y-112104100D03*
X246665900Y-112104100D03*
X246665900Y-110804100D03*
X254465900Y-109504100D03*
X253165900Y-109504100D03*
X251865900Y-109504100D03*
X250565900Y-109504100D03*
X249265900Y-109504100D03*
X247965900Y-109504100D03*
X246665900Y-109504100D03*
X247965900Y-110804100D03*
X249265900Y-110804100D03*
X253165900Y-110804100D03*
X251865900Y-110804100D03*
X250565900Y-110804100D03*
D13*
X254488400Y-110804100D03*
D14*
X250565900Y-110804100D03*
D15*
X246340900Y-108004100D03*
X246990900Y-108004100D03*
X247640900Y-108004100D03*
X248290900Y-108004100D03*
X248940900Y-108004100D03*
X249590900Y-108004100D03*
X250240900Y-108004100D03*
X250890900Y-108004100D03*
X251540900Y-108004100D03*
X252190900Y-108004100D03*
X252840900Y-108004100D03*
X253490900Y-108004100D03*
X254140900Y-108004100D03*
X254790900Y-108004100D03*
X254790900Y-113604100D03*
X254140900Y-113604100D03*
X253490900Y-113604100D03*
X252840900Y-113604100D03*
X252190900Y-113604100D03*
X251540900Y-113604100D03*
X250890900Y-113604100D03*
X250240900Y-113604100D03*
X249590900Y-113604100D03*
X248940900Y-113604100D03*
X248290900Y-113604100D03*
X247640900Y-113604100D03*
X246990900Y-113604100D03*
X246340900Y-113604100D03*
D13*
X246643400Y-110804100D03*
D16*
X250565900Y-112254100D03*
X250565900Y-109354100D03*
G04 #@! TA.AperFunction,SMDPad,CuDef*
G36*
G01*
X215650960Y-167962590D02*
X215650960Y-167450090D01*
G75*
G02*
X215869710Y-167231340I218750J0D01*
G01*
X216307210Y-167231340D01*
G75*
G02*
X216525960Y-167450090I0J-218750D01*
G01*
X216525960Y-167962590D01*
G75*
G02*
X216307210Y-168181340I-218750J0D01*
G01*
X215869710Y-168181340D01*
G75*
G02*
X215650960Y-167962590I0J218750D01*
G01*
G37*
G04 #@! TD.AperFunction*
G04 #@! TA.AperFunction,SMDPad,CuDef*
G36*
G01*
X214075960Y-167962590D02*
X214075960Y-167450090D01*
G75*
G02*
X214294710Y-167231340I218750J0D01*
G01*
X214732210Y-167231340D01*
G75*
G02*
X214950960Y-167450090I0J-218750D01*
G01*
X214950960Y-167962590D01*
G75*
G02*
X214732210Y-168181340I-218750J0D01*
G01*
X214294710Y-168181340D01*
G75*
G02*
X214075960Y-167962590I0J218750D01*
G01*
G37*
G04 #@! TD.AperFunction*
G04 #@! TA.AperFunction,SMDPad,CuDef*
G36*
G01*
X250116450Y-106140000D02*
X249603950Y-106140000D01*
G75*
G02*
X249385200Y-105921250I0J218750D01*
G01*
X249385200Y-105483750D01*
G75*
G02*
X249603950Y-105265000I218750J0D01*
G01*
X250116450Y-105265000D01*
G75*
G02*
X250335200Y-105483750I0J-218750D01*
G01*
X250335200Y-105921250D01*
G75*
G02*
X250116450Y-106140000I-218750J0D01*
G01*
G37*
G04 #@! TD.AperFunction*
G04 #@! TA.AperFunction,SMDPad,CuDef*
G36*
G01*
X250116450Y-104565000D02*
X249603950Y-104565000D01*
G75*
G02*
X249385200Y-104346250I0J218750D01*
G01*
X249385200Y-103908750D01*
G75*
G02*
X249603950Y-103690000I218750J0D01*
G01*
X250116450Y-103690000D01*
G75*
G02*
X250335200Y-103908750I0J-218750D01*
G01*
X250335200Y-104346250D01*
G75*
G02*
X250116450Y-104565000I-218750J0D01*
G01*
G37*
G04 #@! TD.AperFunction*
D17*
X208370000Y-98770000D03*
D18*
X208370000Y-96230000D03*
X210910000Y-98770000D03*
X210910000Y-96230000D03*
X213450000Y-98770000D03*
X213450000Y-96230000D03*
X215990000Y-98770000D03*
X215990000Y-96230000D03*
X218530000Y-98770000D03*
X218530000Y-96230000D03*
X221070000Y-98770000D03*
X221070000Y-96230000D03*
X223610000Y-98770000D03*
X223610000Y-96230000D03*
X226150000Y-98770000D03*
X226150000Y-96230000D03*
X228690000Y-98770000D03*
X228690000Y-96230000D03*
X231230000Y-98770000D03*
X231230000Y-96230000D03*
X233770000Y-98770000D03*
X233770000Y-96230000D03*
X236310000Y-98770000D03*
X236310000Y-96230000D03*
X238850000Y-98770000D03*
X238850000Y-96230000D03*
X241390000Y-98770000D03*
X241390000Y-96230000D03*
X243930000Y-98770000D03*
X243930000Y-96230000D03*
X246470000Y-98770000D03*
X246470000Y-96230000D03*
X249010000Y-98770000D03*
X249010000Y-96230000D03*
X251550000Y-98770000D03*
X251550000Y-96230000D03*
X254090000Y-98770000D03*
X254090000Y-96230000D03*
X256630000Y-98770000D03*
X256630000Y-96230000D03*
D19*
X222305960Y-166581120D03*
G04 #@! TA.AperFunction,ComponentPad*
G36*
G01*
X224005960Y-166106120D02*
X224005960Y-167056120D01*
G75*
G02*
X223780960Y-167281120I-225000J0D01*
G01*
X223330960Y-167281120D01*
G75*
G02*
X223105960Y-167056120I0J225000D01*
G01*
X223105960Y-166106120D01*
G75*
G02*
X223330960Y-165881120I225000J0D01*
G01*
X223780960Y-165881120D01*
G75*
G02*
X224005960Y-166106120I0J-225000D01*
G01*
G37*
G04 #@! TD.AperFunction*
D20*
X215950000Y-108950000D03*
X216450000Y-108950000D03*
X216950000Y-108950000D03*
X217450000Y-108950000D03*
X217450000Y-106650000D03*
X216950000Y-106650000D03*
X216450000Y-106650000D03*
X215950000Y-106650000D03*
D21*
X216700000Y-107800000D03*
D22*
X227914600Y-166789400D03*
X261036200Y-113043000D03*
X203450000Y-109500000D03*
X234112200Y-166764000D03*
X203450000Y-104650000D03*
X203454400Y-158915400D03*
X203479800Y-152159000D03*
D23*
X228401900Y-133457900D03*
X228401900Y-135747900D03*
X228401900Y-138037900D03*
X228401900Y-140327900D03*
X228401900Y-142617900D03*
X230691900Y-133457900D03*
X230691900Y-135747900D03*
X230691900Y-138037900D03*
X230691900Y-140327900D03*
X230691900Y-142617900D03*
X232981900Y-133457900D03*
X232981900Y-135747900D03*
X232981900Y-138037900D03*
X232981900Y-140327900D03*
X232981900Y-142617900D03*
X235271900Y-133457900D03*
X235271900Y-135747900D03*
X235271900Y-138037900D03*
X235271900Y-140327900D03*
X235271900Y-142617900D03*
X237561900Y-133457900D03*
X237561900Y-135747900D03*
X237561900Y-138037900D03*
X237561900Y-140327900D03*
X237561900Y-142617900D03*
X237434900Y-159685400D03*
X237434900Y-157395400D03*
X237434900Y-155105400D03*
X237434900Y-152815400D03*
X237434900Y-150525400D03*
X235144900Y-159685400D03*
X235144900Y-157395400D03*
X235144900Y-155105400D03*
X235144900Y-152815400D03*
X235144900Y-150525400D03*
X232854900Y-159685400D03*
X232854900Y-157395400D03*
X232854900Y-155105400D03*
X232854900Y-152815400D03*
X232854900Y-150525400D03*
X230564900Y-159685400D03*
X230564900Y-157395400D03*
X230564900Y-155105400D03*
X230564900Y-152815400D03*
X230564900Y-150525400D03*
X228274900Y-159685400D03*
X228274900Y-157395400D03*
X228274900Y-155105400D03*
X228274900Y-152815400D03*
X228274900Y-150525400D03*
D24*
X214201460Y-160775340D03*
X213251460Y-160775340D03*
X212301460Y-160775340D03*
X212301460Y-162975340D03*
X214201460Y-162975340D03*
X213251460Y-162975340D03*
D25*
X232844500Y-125873300D03*
X231544500Y-125873300D03*
X232194500Y-127873300D03*
D26*
X212020000Y-123885000D03*
X215920000Y-123885000D03*
X212020000Y-125155000D03*
X215920000Y-125155000D03*
X212020000Y-126425000D03*
X215920000Y-126425000D03*
X212020000Y-127695000D03*
X215920000Y-127695000D03*
X212020000Y-128965000D03*
X215920000Y-128965000D03*
X212020000Y-130235000D03*
X215920000Y-130235000D03*
X212020000Y-131505000D03*
X215920000Y-131505000D03*
X212020000Y-132775000D03*
X215920000Y-132775000D03*
G04 #@! TA.AperFunction,ComponentPad*
G36*
G01*
X226969300Y-129532700D02*
X226969300Y-128582700D01*
G75*
G02*
X227194300Y-128357700I225000J0D01*
G01*
X227644300Y-128357700D01*
G75*
G02*
X227869300Y-128582700I0J-225000D01*
G01*
X227869300Y-129532700D01*
G75*
G02*
X227644300Y-129757700I-225000J0D01*
G01*
X227194300Y-129757700D01*
G75*
G02*
X226969300Y-129532700I0J225000D01*
G01*
G37*
G04 #@! TD.AperFunction*
D19*
X228669300Y-129057700D03*
G04 #@! TA.AperFunction,SMDPad,CuDef*
G36*
G01*
X246631900Y-118557850D02*
X246631900Y-119070350D01*
G75*
G02*
X246413150Y-119289100I-218750J0D01*
G01*
X245975650Y-119289100D01*
G75*
G02*
X245756900Y-119070350I0J218750D01*
G01*
X245756900Y-118557850D01*
G75*
G02*
X245975650Y-118339100I218750J0D01*
G01*
X246413150Y-118339100D01*
G75*
G02*
X246631900Y-118557850I0J-218750D01*
G01*
G37*
G04 #@! TD.AperFunction*
G04 #@! TA.AperFunction,SMDPad,CuDef*
G36*
G01*
X248206900Y-118557850D02*
X248206900Y-119070350D01*
G75*
G02*
X247988150Y-119289100I-218750J0D01*
G01*
X247550650Y-119289100D01*
G75*
G02*
X247331900Y-119070350I0J218750D01*
G01*
X247331900Y-118557850D01*
G75*
G02*
X247550650Y-118339100I218750J0D01*
G01*
X247988150Y-118339100D01*
G75*
G02*
X248206900Y-118557850I0J-218750D01*
G01*
G37*
G04 #@! TD.AperFunction*
G04 #@! TA.AperFunction,SMDPad,CuDef*
G36*
G01*
X244155650Y-111962780D02*
X244668150Y-111962780D01*
G75*
G02*
X244886900Y-112181530I0J-218750D01*
G01*
X244886900Y-112619030D01*
G75*
G02*
X244668150Y-112837780I-218750J0D01*
G01*
X244155650Y-112837780D01*
G75*
G02*
X243936900Y-112619030I0J218750D01*
G01*
X243936900Y-112181530D01*
G75*
G02*
X244155650Y-111962780I218750J0D01*
G01*
G37*
G04 #@! TD.AperFunction*
G04 #@! TA.AperFunction,SMDPad,CuDef*
G36*
G01*
X244155650Y-113537780D02*
X244668150Y-113537780D01*
G75*
G02*
X244886900Y-113756530I0J-218750D01*
G01*
X244886900Y-114194030D01*
G75*
G02*
X244668150Y-114412780I-218750J0D01*
G01*
X244155650Y-114412780D01*
G75*
G02*
X243936900Y-114194030I0J218750D01*
G01*
X243936900Y-113756530D01*
G75*
G02*
X244155650Y-113537780I218750J0D01*
G01*
G37*
G04 #@! TD.AperFunction*
G04 #@! TA.AperFunction,SMDPad,CuDef*
G36*
G01*
X216118550Y-145370300D02*
X215606050Y-145370300D01*
G75*
G02*
X215387300Y-145151550I0J218750D01*
G01*
X215387300Y-144714050D01*
G75*
G02*
X215606050Y-144495300I218750J0D01*
G01*
X216118550Y-144495300D01*
G75*
G02*
X216337300Y-144714050I0J-218750D01*
G01*
X216337300Y-145151550D01*
G75*
G02*
X216118550Y-145370300I-218750J0D01*
G01*
G37*
G04 #@! TD.AperFunction*
G04 #@! TA.AperFunction,SMDPad,CuDef*
G36*
G01*
X216118550Y-143795300D02*
X215606050Y-143795300D01*
G75*
G02*
X215387300Y-143576550I0J218750D01*
G01*
X215387300Y-143139050D01*
G75*
G02*
X215606050Y-142920300I218750J0D01*
G01*
X216118550Y-142920300D01*
G75*
G02*
X216337300Y-143139050I0J-218750D01*
G01*
X216337300Y-143576550D01*
G75*
G02*
X216118550Y-143795300I-218750J0D01*
G01*
G37*
G04 #@! TD.AperFunction*
G04 #@! TA.AperFunction,SMDPad,CuDef*
G36*
G01*
X224117600Y-138521900D02*
X224117600Y-137271900D01*
G75*
G02*
X224367600Y-137021900I250000J0D01*
G01*
X225117600Y-137021900D01*
G75*
G02*
X225367600Y-137271900I0J-250000D01*
G01*
X225367600Y-138521900D01*
G75*
G02*
X225117600Y-138771900I-250000J0D01*
G01*
X224367600Y-138771900D01*
G75*
G02*
X224117600Y-138521900I0J250000D01*
G01*
G37*
G04 #@! TD.AperFunction*
G04 #@! TA.AperFunction,SMDPad,CuDef*
G36*
G01*
X221317600Y-138521900D02*
X221317600Y-137271900D01*
G75*
G02*
X221567600Y-137021900I250000J0D01*
G01*
X222317600Y-137021900D01*
G75*
G02*
X222567600Y-137271900I0J-250000D01*
G01*
X222567600Y-138521900D01*
G75*
G02*
X222317600Y-138771900I-250000J0D01*
G01*
X221567600Y-138771900D01*
G75*
G02*
X221317600Y-138521900I0J250000D01*
G01*
G37*
G04 #@! TD.AperFunction*
G04 #@! TA.AperFunction,SMDPad,CuDef*
G36*
G01*
X245777700Y-117502950D02*
X245777700Y-116990450D01*
G75*
G02*
X245996450Y-116771700I218750J0D01*
G01*
X246433950Y-116771700D01*
G75*
G02*
X246652700Y-116990450I0J-218750D01*
G01*
X246652700Y-117502950D01*
G75*
G02*
X246433950Y-117721700I-218750J0D01*
G01*
X245996450Y-117721700D01*
G75*
G02*
X245777700Y-117502950I0J218750D01*
G01*
G37*
G04 #@! TD.AperFunction*
G04 #@! TA.AperFunction,SMDPad,CuDef*
G36*
G01*
X247352700Y-117502950D02*
X247352700Y-116990450D01*
G75*
G02*
X247571450Y-116771700I218750J0D01*
G01*
X248008950Y-116771700D01*
G75*
G02*
X248227700Y-116990450I0J-218750D01*
G01*
X248227700Y-117502950D01*
G75*
G02*
X248008950Y-117721700I-218750J0D01*
G01*
X247571450Y-117721700D01*
G75*
G02*
X247352700Y-117502950I0J218750D01*
G01*
G37*
G04 #@! TD.AperFunction*
G04 #@! TA.AperFunction,SMDPad,CuDef*
G36*
G01*
X256855650Y-107563500D02*
X257368150Y-107563500D01*
G75*
G02*
X257586900Y-107782250I0J-218750D01*
G01*
X257586900Y-108219750D01*
G75*
G02*
X257368150Y-108438500I-218750J0D01*
G01*
X256855650Y-108438500D01*
G75*
G02*
X256636900Y-108219750I0J218750D01*
G01*
X256636900Y-107782250D01*
G75*
G02*
X256855650Y-107563500I218750J0D01*
G01*
G37*
G04 #@! TD.AperFunction*
G04 #@! TA.AperFunction,SMDPad,CuDef*
G36*
G01*
X256855650Y-109138500D02*
X257368150Y-109138500D01*
G75*
G02*
X257586900Y-109357250I0J-218750D01*
G01*
X257586900Y-109794750D01*
G75*
G02*
X257368150Y-110013500I-218750J0D01*
G01*
X256855650Y-110013500D01*
G75*
G02*
X256636900Y-109794750I0J218750D01*
G01*
X256636900Y-109357250D01*
G75*
G02*
X256855650Y-109138500I218750J0D01*
G01*
G37*
G04 #@! TD.AperFunction*
G04 #@! TA.AperFunction,SMDPad,CuDef*
G36*
G01*
X255496900Y-117307850D02*
X255496900Y-117820350D01*
G75*
G02*
X255278150Y-118039100I-218750J0D01*
G01*
X254840650Y-118039100D01*
G75*
G02*
X254621900Y-117820350I0J218750D01*
G01*
X254621900Y-117307850D01*
G75*
G02*
X254840650Y-117089100I218750J0D01*
G01*
X255278150Y-117089100D01*
G75*
G02*
X255496900Y-117307850I0J-218750D01*
G01*
G37*
G04 #@! TD.AperFunction*
G04 #@! TA.AperFunction,SMDPad,CuDef*
G36*
G01*
X253921900Y-117307850D02*
X253921900Y-117820350D01*
G75*
G02*
X253703150Y-118039100I-218750J0D01*
G01*
X253265650Y-118039100D01*
G75*
G02*
X253046900Y-117820350I0J218750D01*
G01*
X253046900Y-117307850D01*
G75*
G02*
X253265650Y-117089100I218750J0D01*
G01*
X253703150Y-117089100D01*
G75*
G02*
X253921900Y-117307850I0J-218750D01*
G01*
G37*
G04 #@! TD.AperFunction*
G04 #@! TA.AperFunction,SMDPad,CuDef*
G36*
G01*
X209840250Y-142996500D02*
X210352750Y-142996500D01*
G75*
G02*
X210571500Y-143215250I0J-218750D01*
G01*
X210571500Y-143652750D01*
G75*
G02*
X210352750Y-143871500I-218750J0D01*
G01*
X209840250Y-143871500D01*
G75*
G02*
X209621500Y-143652750I0J218750D01*
G01*
X209621500Y-143215250D01*
G75*
G02*
X209840250Y-142996500I218750J0D01*
G01*
G37*
G04 #@! TD.AperFunction*
G04 #@! TA.AperFunction,SMDPad,CuDef*
G36*
G01*
X209840250Y-144571500D02*
X210352750Y-144571500D01*
G75*
G02*
X210571500Y-144790250I0J-218750D01*
G01*
X210571500Y-145227750D01*
G75*
G02*
X210352750Y-145446500I-218750J0D01*
G01*
X209840250Y-145446500D01*
G75*
G02*
X209621500Y-145227750I0J218750D01*
G01*
X209621500Y-144790250D01*
G75*
G02*
X209840250Y-144571500I218750J0D01*
G01*
G37*
G04 #@! TD.AperFunction*
G04 #@! TA.AperFunction,SMDPad,CuDef*
G36*
G01*
X212710450Y-144596900D02*
X213222950Y-144596900D01*
G75*
G02*
X213441700Y-144815650I0J-218750D01*
G01*
X213441700Y-145253150D01*
G75*
G02*
X213222950Y-145471900I-218750J0D01*
G01*
X212710450Y-145471900D01*
G75*
G02*
X212491700Y-145253150I0J218750D01*
G01*
X212491700Y-144815650D01*
G75*
G02*
X212710450Y-144596900I218750J0D01*
G01*
G37*
G04 #@! TD.AperFunction*
G04 #@! TA.AperFunction,SMDPad,CuDef*
G36*
G01*
X212710450Y-143021900D02*
X213222950Y-143021900D01*
G75*
G02*
X213441700Y-143240650I0J-218750D01*
G01*
X213441700Y-143678150D01*
G75*
G02*
X213222950Y-143896900I-218750J0D01*
G01*
X212710450Y-143896900D01*
G75*
G02*
X212491700Y-143678150I0J218750D01*
G01*
X212491700Y-143240650D01*
G75*
G02*
X212710450Y-143021900I218750J0D01*
G01*
G37*
G04 #@! TD.AperFunction*
D27*
X251041900Y-121274100D03*
D28*
X251041900Y-123274100D03*
G04 #@! TA.AperFunction,SMDPad,CuDef*
G36*
G01*
X217114000Y-103698050D02*
X217114000Y-103185550D01*
G75*
G02*
X217332750Y-102966800I218750J0D01*
G01*
X217770250Y-102966800D01*
G75*
G02*
X217989000Y-103185550I0J-218750D01*
G01*
X217989000Y-103698050D01*
G75*
G02*
X217770250Y-103916800I-218750J0D01*
G01*
X217332750Y-103916800D01*
G75*
G02*
X217114000Y-103698050I0J218750D01*
G01*
G37*
G04 #@! TD.AperFunction*
G04 #@! TA.AperFunction,SMDPad,CuDef*
G36*
G01*
X215539000Y-103698050D02*
X215539000Y-103185550D01*
G75*
G02*
X215757750Y-102966800I218750J0D01*
G01*
X216195250Y-102966800D01*
G75*
G02*
X216414000Y-103185550I0J-218750D01*
G01*
X216414000Y-103698050D01*
G75*
G02*
X216195250Y-103916800I-218750J0D01*
G01*
X215757750Y-103916800D01*
G75*
G02*
X215539000Y-103698050I0J218750D01*
G01*
G37*
G04 #@! TD.AperFunction*
G04 #@! TA.AperFunction,SMDPad,CuDef*
G36*
G01*
X207976460Y-159600340D02*
X209226460Y-159600340D01*
G75*
G02*
X209476460Y-159850340I0J-250000D01*
G01*
X209476460Y-160600340D01*
G75*
G02*
X209226460Y-160850340I-250000J0D01*
G01*
X207976460Y-160850340D01*
G75*
G02*
X207726460Y-160600340I0J250000D01*
G01*
X207726460Y-159850340D01*
G75*
G02*
X207976460Y-159600340I250000J0D01*
G01*
G37*
G04 #@! TD.AperFunction*
G04 #@! TA.AperFunction,SMDPad,CuDef*
G36*
G01*
X207976460Y-162400340D02*
X209226460Y-162400340D01*
G75*
G02*
X209476460Y-162650340I0J-250000D01*
G01*
X209476460Y-163400340D01*
G75*
G02*
X209226460Y-163650340I-250000J0D01*
G01*
X207976460Y-163650340D01*
G75*
G02*
X207726460Y-163400340I0J250000D01*
G01*
X207726460Y-162650340D01*
G75*
G02*
X207976460Y-162400340I250000J0D01*
G01*
G37*
G04 #@! TD.AperFunction*
G04 #@! TA.AperFunction,SMDPad,CuDef*
G36*
G01*
X210295210Y-161825340D02*
X210807710Y-161825340D01*
G75*
G02*
X211026460Y-162044090I0J-218750D01*
G01*
X211026460Y-162481590D01*
G75*
G02*
X210807710Y-162700340I-218750J0D01*
G01*
X210295210Y-162700340D01*
G75*
G02*
X210076460Y-162481590I0J218750D01*
G01*
X210076460Y-162044090D01*
G75*
G02*
X210295210Y-161825340I218750J0D01*
G01*
G37*
G04 #@! TD.AperFunction*
G04 #@! TA.AperFunction,SMDPad,CuDef*
G36*
G01*
X210295210Y-160250340D02*
X210807710Y-160250340D01*
G75*
G02*
X211026460Y-160469090I0J-218750D01*
G01*
X211026460Y-160906590D01*
G75*
G02*
X210807710Y-161125340I-218750J0D01*
G01*
X210295210Y-161125340D01*
G75*
G02*
X210076460Y-160906590I0J218750D01*
G01*
X210076460Y-160469090D01*
G75*
G02*
X210295210Y-160250340I218750J0D01*
G01*
G37*
G04 #@! TD.AperFunction*
G04 #@! TA.AperFunction,SMDPad,CuDef*
G36*
G01*
X214320810Y-165770340D02*
X214833310Y-165770340D01*
G75*
G02*
X215052060Y-165989090I0J-218750D01*
G01*
X215052060Y-166426590D01*
G75*
G02*
X214833310Y-166645340I-218750J0D01*
G01*
X214320810Y-166645340D01*
G75*
G02*
X214102060Y-166426590I0J218750D01*
G01*
X214102060Y-165989090D01*
G75*
G02*
X214320810Y-165770340I218750J0D01*
G01*
G37*
G04 #@! TD.AperFunction*
G04 #@! TA.AperFunction,SMDPad,CuDef*
G36*
G01*
X214320810Y-164195340D02*
X214833310Y-164195340D01*
G75*
G02*
X215052060Y-164414090I0J-218750D01*
G01*
X215052060Y-164851590D01*
G75*
G02*
X214833310Y-165070340I-218750J0D01*
G01*
X214320810Y-165070340D01*
G75*
G02*
X214102060Y-164851590I0J218750D01*
G01*
X214102060Y-164414090D01*
G75*
G02*
X214320810Y-164195340I218750J0D01*
G01*
G37*
G04 #@! TD.AperFunction*
G04 #@! TA.AperFunction,SMDPad,CuDef*
G36*
G01*
X211001260Y-164369090D02*
X211001260Y-164881590D01*
G75*
G02*
X210782510Y-165100340I-218750J0D01*
G01*
X210345010Y-165100340D01*
G75*
G02*
X210126260Y-164881590I0J218750D01*
G01*
X210126260Y-164369090D01*
G75*
G02*
X210345010Y-164150340I218750J0D01*
G01*
X210782510Y-164150340D01*
G75*
G02*
X211001260Y-164369090I0J-218750D01*
G01*
G37*
G04 #@! TD.AperFunction*
G04 #@! TA.AperFunction,SMDPad,CuDef*
G36*
G01*
X212576260Y-164369090D02*
X212576260Y-164881590D01*
G75*
G02*
X212357510Y-165100340I-218750J0D01*
G01*
X211920010Y-165100340D01*
G75*
G02*
X211701260Y-164881590I0J218750D01*
G01*
X211701260Y-164369090D01*
G75*
G02*
X211920010Y-164150340I218750J0D01*
G01*
X212357510Y-164150340D01*
G75*
G02*
X212576260Y-164369090I0J-218750D01*
G01*
G37*
G04 #@! TD.AperFunction*
G04 #@! TA.AperFunction,SMDPad,CuDef*
G36*
G01*
X220086020Y-161437460D02*
X220086020Y-162687460D01*
G75*
G02*
X219836020Y-162937460I-250000J0D01*
G01*
X219086020Y-162937460D01*
G75*
G02*
X218836020Y-162687460I0J250000D01*
G01*
X218836020Y-161437460D01*
G75*
G02*
X219086020Y-161187460I250000J0D01*
G01*
X219836020Y-161187460D01*
G75*
G02*
X220086020Y-161437460I0J-250000D01*
G01*
G37*
G04 #@! TD.AperFunction*
G04 #@! TA.AperFunction,SMDPad,CuDef*
G36*
G01*
X222886020Y-161437460D02*
X222886020Y-162687460D01*
G75*
G02*
X222636020Y-162937460I-250000J0D01*
G01*
X221886020Y-162937460D01*
G75*
G02*
X221636020Y-162687460I0J250000D01*
G01*
X221636020Y-161437460D01*
G75*
G02*
X221886020Y-161187460I250000J0D01*
G01*
X222636020Y-161187460D01*
G75*
G02*
X222886020Y-161437460I0J-250000D01*
G01*
G37*
G04 #@! TD.AperFunction*
G04 #@! TA.AperFunction,SMDPad,CuDef*
G36*
G01*
X210569100Y-147840700D02*
X209319100Y-147840700D01*
G75*
G02*
X209069100Y-147590700I0J250000D01*
G01*
X209069100Y-146840700D01*
G75*
G02*
X209319100Y-146590700I250000J0D01*
G01*
X210569100Y-146590700D01*
G75*
G02*
X210819100Y-146840700I0J-250000D01*
G01*
X210819100Y-147590700D01*
G75*
G02*
X210569100Y-147840700I-250000J0D01*
G01*
G37*
G04 #@! TD.AperFunction*
G04 #@! TA.AperFunction,SMDPad,CuDef*
G36*
G01*
X210569100Y-150640700D02*
X209319100Y-150640700D01*
G75*
G02*
X209069100Y-150390700I0J250000D01*
G01*
X209069100Y-149640700D01*
G75*
G02*
X209319100Y-149390700I250000J0D01*
G01*
X210569100Y-149390700D01*
G75*
G02*
X210819100Y-149640700I0J-250000D01*
G01*
X210819100Y-150390700D01*
G75*
G02*
X210569100Y-150640700I-250000J0D01*
G01*
G37*
G04 #@! TD.AperFunction*
G04 #@! TA.AperFunction,SMDPad,CuDef*
G36*
G01*
X217884300Y-150716900D02*
X216634300Y-150716900D01*
G75*
G02*
X216384300Y-150466900I0J250000D01*
G01*
X216384300Y-149716900D01*
G75*
G02*
X216634300Y-149466900I250000J0D01*
G01*
X217884300Y-149466900D01*
G75*
G02*
X218134300Y-149716900I0J-250000D01*
G01*
X218134300Y-150466900D01*
G75*
G02*
X217884300Y-150716900I-250000J0D01*
G01*
G37*
G04 #@! TD.AperFunction*
G04 #@! TA.AperFunction,SMDPad,CuDef*
G36*
G01*
X217884300Y-147916900D02*
X216634300Y-147916900D01*
G75*
G02*
X216384300Y-147666900I0J250000D01*
G01*
X216384300Y-146916900D01*
G75*
G02*
X216634300Y-146666900I250000J0D01*
G01*
X217884300Y-146666900D01*
G75*
G02*
X218134300Y-146916900I0J-250000D01*
G01*
X218134300Y-147666900D01*
G75*
G02*
X217884300Y-147916900I-250000J0D01*
G01*
G37*
G04 #@! TD.AperFunction*
G04 #@! TA.AperFunction,SMDPad,CuDef*
G36*
G01*
X214201300Y-150640700D02*
X212951300Y-150640700D01*
G75*
G02*
X212701300Y-150390700I0J250000D01*
G01*
X212701300Y-149640700D01*
G75*
G02*
X212951300Y-149390700I250000J0D01*
G01*
X214201300Y-149390700D01*
G75*
G02*
X214451300Y-149640700I0J-250000D01*
G01*
X214451300Y-150390700D01*
G75*
G02*
X214201300Y-150640700I-250000J0D01*
G01*
G37*
G04 #@! TD.AperFunction*
G04 #@! TA.AperFunction,SMDPad,CuDef*
G36*
G01*
X214201300Y-147840700D02*
X212951300Y-147840700D01*
G75*
G02*
X212701300Y-147590700I0J250000D01*
G01*
X212701300Y-146840700D01*
G75*
G02*
X212951300Y-146590700I250000J0D01*
G01*
X214201300Y-146590700D01*
G75*
G02*
X214451300Y-146840700I0J-250000D01*
G01*
X214451300Y-147590700D01*
G75*
G02*
X214201300Y-147840700I-250000J0D01*
G01*
G37*
G04 #@! TD.AperFunction*
G04 #@! TA.AperFunction,SMDPad,CuDef*
G36*
G01*
X221094500Y-133233797D02*
X221094500Y-136133803D01*
G75*
G02*
X220844503Y-136383800I-249997J0D01*
G01*
X220219497Y-136383800D01*
G75*
G02*
X219969500Y-136133803I0J249997D01*
G01*
X219969500Y-133233797D01*
G75*
G02*
X220219497Y-132983800I249997J0D01*
G01*
X220844503Y-132983800D01*
G75*
G02*
X221094500Y-133233797I0J-249997D01*
G01*
G37*
G04 #@! TD.AperFunction*
G04 #@! TA.AperFunction,SMDPad,CuDef*
G36*
G01*
X225369500Y-133233797D02*
X225369500Y-136133803D01*
G75*
G02*
X225119503Y-136383800I-249997J0D01*
G01*
X224494497Y-136383800D01*
G75*
G02*
X224244500Y-136133803I0J249997D01*
G01*
X224244500Y-133233797D01*
G75*
G02*
X224494497Y-132983800I249997J0D01*
G01*
X225119503Y-132983800D01*
G75*
G02*
X225369500Y-133233797I0J-249997D01*
G01*
G37*
G04 #@! TD.AperFunction*
G04 #@! TA.AperFunction,SMDPad,CuDef*
G36*
G01*
X205987200Y-137395570D02*
X205987200Y-136483070D01*
G75*
G02*
X206230950Y-136239320I243750J0D01*
G01*
X206718450Y-136239320D01*
G75*
G02*
X206962200Y-136483070I0J-243750D01*
G01*
X206962200Y-137395570D01*
G75*
G02*
X206718450Y-137639320I-243750J0D01*
G01*
X206230950Y-137639320D01*
G75*
G02*
X205987200Y-137395570I0J243750D01*
G01*
G37*
G04 #@! TD.AperFunction*
G04 #@! TA.AperFunction,SMDPad,CuDef*
G36*
G01*
X204112200Y-137395570D02*
X204112200Y-136483070D01*
G75*
G02*
X204355950Y-136239320I243750J0D01*
G01*
X204843450Y-136239320D01*
G75*
G02*
X205087200Y-136483070I0J-243750D01*
G01*
X205087200Y-137395570D01*
G75*
G02*
X204843450Y-137639320I-243750J0D01*
G01*
X204355950Y-137639320D01*
G75*
G02*
X204112200Y-137395570I0J243750D01*
G01*
G37*
G04 #@! TD.AperFunction*
G04 #@! TA.AperFunction,SMDPad,CuDef*
G36*
G01*
X206635200Y-138461070D02*
X206635200Y-138973570D01*
G75*
G02*
X206416450Y-139192320I-218750J0D01*
G01*
X205978950Y-139192320D01*
G75*
G02*
X205760200Y-138973570I0J218750D01*
G01*
X205760200Y-138461070D01*
G75*
G02*
X205978950Y-138242320I218750J0D01*
G01*
X206416450Y-138242320D01*
G75*
G02*
X206635200Y-138461070I0J-218750D01*
G01*
G37*
G04 #@! TD.AperFunction*
G04 #@! TA.AperFunction,SMDPad,CuDef*
G36*
G01*
X205060200Y-138461070D02*
X205060200Y-138973570D01*
G75*
G02*
X204841450Y-139192320I-218750J0D01*
G01*
X204403950Y-139192320D01*
G75*
G02*
X204185200Y-138973570I0J218750D01*
G01*
X204185200Y-138461070D01*
G75*
G02*
X204403950Y-138242320I218750J0D01*
G01*
X204841450Y-138242320D01*
G75*
G02*
X205060200Y-138461070I0J-218750D01*
G01*
G37*
G04 #@! TD.AperFunction*
G04 #@! TA.AperFunction,SMDPad,CuDef*
G36*
G01*
X254650900Y-115790350D02*
X254650900Y-115277850D01*
G75*
G02*
X254869650Y-115059100I218750J0D01*
G01*
X255307150Y-115059100D01*
G75*
G02*
X255525900Y-115277850I0J-218750D01*
G01*
X255525900Y-115790350D01*
G75*
G02*
X255307150Y-116009100I-218750J0D01*
G01*
X254869650Y-116009100D01*
G75*
G02*
X254650900Y-115790350I0J218750D01*
G01*
G37*
G04 #@! TD.AperFunction*
G04 #@! TA.AperFunction,SMDPad,CuDef*
G36*
G01*
X256225900Y-115790350D02*
X256225900Y-115277850D01*
G75*
G02*
X256444650Y-115059100I218750J0D01*
G01*
X256882150Y-115059100D01*
G75*
G02*
X257100900Y-115277850I0J-218750D01*
G01*
X257100900Y-115790350D01*
G75*
G02*
X256882150Y-116009100I-218750J0D01*
G01*
X256444650Y-116009100D01*
G75*
G02*
X256225900Y-115790350I0J218750D01*
G01*
G37*
G04 #@! TD.AperFunction*
G04 #@! TA.AperFunction,SMDPad,CuDef*
G36*
G01*
X235012950Y-126372500D02*
X234100450Y-126372500D01*
G75*
G02*
X233856700Y-126128750I0J243750D01*
G01*
X233856700Y-125641250D01*
G75*
G02*
X234100450Y-125397500I243750J0D01*
G01*
X235012950Y-125397500D01*
G75*
G02*
X235256700Y-125641250I0J-243750D01*
G01*
X235256700Y-126128750D01*
G75*
G02*
X235012950Y-126372500I-243750J0D01*
G01*
G37*
G04 #@! TD.AperFunction*
G04 #@! TA.AperFunction,SMDPad,CuDef*
G36*
G01*
X235012950Y-128247500D02*
X234100450Y-128247500D01*
G75*
G02*
X233856700Y-128003750I0J243750D01*
G01*
X233856700Y-127516250D01*
G75*
G02*
X234100450Y-127272500I243750J0D01*
G01*
X235012950Y-127272500D01*
G75*
G02*
X235256700Y-127516250I0J-243750D01*
G01*
X235256700Y-128003750D01*
G75*
G02*
X235012950Y-128247500I-243750J0D01*
G01*
G37*
G04 #@! TD.AperFunction*
G04 #@! TA.AperFunction,SMDPad,CuDef*
G36*
G01*
X236167350Y-125559400D02*
X236679850Y-125559400D01*
G75*
G02*
X236898600Y-125778150I0J-218750D01*
G01*
X236898600Y-126215650D01*
G75*
G02*
X236679850Y-126434400I-218750J0D01*
G01*
X236167350Y-126434400D01*
G75*
G02*
X235948600Y-126215650I0J218750D01*
G01*
X235948600Y-125778150D01*
G75*
G02*
X236167350Y-125559400I218750J0D01*
G01*
G37*
G04 #@! TD.AperFunction*
G04 #@! TA.AperFunction,SMDPad,CuDef*
G36*
G01*
X236167350Y-127134400D02*
X236679850Y-127134400D01*
G75*
G02*
X236898600Y-127353150I0J-218750D01*
G01*
X236898600Y-127790650D01*
G75*
G02*
X236679850Y-128009400I-218750J0D01*
G01*
X236167350Y-128009400D01*
G75*
G02*
X235948600Y-127790650I0J218750D01*
G01*
X235948600Y-127353150D01*
G75*
G02*
X236167350Y-127134400I218750J0D01*
G01*
G37*
G04 #@! TD.AperFunction*
G04 #@! TA.AperFunction,SMDPad,CuDef*
G36*
G01*
X212633010Y-166710240D02*
X211720510Y-166710240D01*
G75*
G02*
X211476760Y-166466490I0J243750D01*
G01*
X211476760Y-165978990D01*
G75*
G02*
X211720510Y-165735240I243750J0D01*
G01*
X212633010Y-165735240D01*
G75*
G02*
X212876760Y-165978990I0J-243750D01*
G01*
X212876760Y-166466490D01*
G75*
G02*
X212633010Y-166710240I-243750J0D01*
G01*
G37*
G04 #@! TD.AperFunction*
G04 #@! TA.AperFunction,SMDPad,CuDef*
G36*
G01*
X212633010Y-168585240D02*
X211720510Y-168585240D01*
G75*
G02*
X211476760Y-168341490I0J243750D01*
G01*
X211476760Y-167853990D01*
G75*
G02*
X211720510Y-167610240I243750J0D01*
G01*
X212633010Y-167610240D01*
G75*
G02*
X212876760Y-167853990I0J-243750D01*
G01*
X212876760Y-168341490D01*
G75*
G02*
X212633010Y-168585240I-243750J0D01*
G01*
G37*
G04 #@! TD.AperFunction*
G04 #@! TA.AperFunction,SMDPad,CuDef*
G36*
G01*
X219507920Y-164303030D02*
X219507920Y-164815530D01*
G75*
G02*
X219289170Y-165034280I-218750J0D01*
G01*
X218851670Y-165034280D01*
G75*
G02*
X218632920Y-164815530I0J218750D01*
G01*
X218632920Y-164303030D01*
G75*
G02*
X218851670Y-164084280I218750J0D01*
G01*
X219289170Y-164084280D01*
G75*
G02*
X219507920Y-164303030I0J-218750D01*
G01*
G37*
G04 #@! TD.AperFunction*
G04 #@! TA.AperFunction,SMDPad,CuDef*
G36*
G01*
X217932920Y-164303030D02*
X217932920Y-164815530D01*
G75*
G02*
X217714170Y-165034280I-218750J0D01*
G01*
X217276670Y-165034280D01*
G75*
G02*
X217057920Y-164815530I0J218750D01*
G01*
X217057920Y-164303030D01*
G75*
G02*
X217276670Y-164084280I218750J0D01*
G01*
X217714170Y-164084280D01*
G75*
G02*
X217932920Y-164303030I0J-218750D01*
G01*
G37*
G04 #@! TD.AperFunction*
G04 #@! TA.AperFunction,SMDPad,CuDef*
G36*
G01*
X221252700Y-142377750D02*
X221252700Y-142890250D01*
G75*
G02*
X221033950Y-143109000I-218750J0D01*
G01*
X220596450Y-143109000D01*
G75*
G02*
X220377700Y-142890250I0J218750D01*
G01*
X220377700Y-142377750D01*
G75*
G02*
X220596450Y-142159000I218750J0D01*
G01*
X221033950Y-142159000D01*
G75*
G02*
X221252700Y-142377750I0J-218750D01*
G01*
G37*
G04 #@! TD.AperFunction*
G04 #@! TA.AperFunction,SMDPad,CuDef*
G36*
G01*
X222827700Y-142377750D02*
X222827700Y-142890250D01*
G75*
G02*
X222608950Y-143109000I-218750J0D01*
G01*
X222171450Y-143109000D01*
G75*
G02*
X221952700Y-142890250I0J218750D01*
G01*
X221952700Y-142377750D01*
G75*
G02*
X222171450Y-142159000I218750J0D01*
G01*
X222608950Y-142159000D01*
G75*
G02*
X222827700Y-142377750I0J-218750D01*
G01*
G37*
G04 #@! TD.AperFunction*
D29*
X260223400Y-103886300D03*
X262763400Y-106426300D03*
X260223400Y-108966300D03*
D30*
X232969200Y-122097800D03*
X238049200Y-113487800D03*
X235509200Y-122097800D03*
X235509200Y-113487800D03*
X238049200Y-122097800D03*
X232969200Y-113487800D03*
G04 #@! TA.AperFunction,SMDPad,CuDef*
G36*
G01*
X233279700Y-145831700D02*
X233279700Y-147081700D01*
G75*
G02*
X233029700Y-147331700I-250000J0D01*
G01*
X232279700Y-147331700D01*
G75*
G02*
X232029700Y-147081700I0J250000D01*
G01*
X232029700Y-145831700D01*
G75*
G02*
X232279700Y-145581700I250000J0D01*
G01*
X233029700Y-145581700D01*
G75*
G02*
X233279700Y-145831700I0J-250000D01*
G01*
G37*
G04 #@! TD.AperFunction*
G04 #@! TA.AperFunction,SMDPad,CuDef*
G36*
G01*
X230479700Y-145831700D02*
X230479700Y-147081700D01*
G75*
G02*
X230229700Y-147331700I-250000J0D01*
G01*
X229479700Y-147331700D01*
G75*
G02*
X229229700Y-147081700I0J250000D01*
G01*
X229229700Y-145831700D01*
G75*
G02*
X229479700Y-145581700I250000J0D01*
G01*
X230229700Y-145581700D01*
G75*
G02*
X230479700Y-145831700I0J-250000D01*
G01*
G37*
G04 #@! TD.AperFunction*
G04 #@! TA.AperFunction,SMDPad,CuDef*
G36*
G01*
X244968150Y-117479100D02*
X244455650Y-117479100D01*
G75*
G02*
X244236900Y-117260350I0J218750D01*
G01*
X244236900Y-116822850D01*
G75*
G02*
X244455650Y-116604100I218750J0D01*
G01*
X244968150Y-116604100D01*
G75*
G02*
X245186900Y-116822850I0J-218750D01*
G01*
X245186900Y-117260350D01*
G75*
G02*
X244968150Y-117479100I-218750J0D01*
G01*
G37*
G04 #@! TD.AperFunction*
G04 #@! TA.AperFunction,SMDPad,CuDef*
G36*
G01*
X244968150Y-115904100D02*
X244455650Y-115904100D01*
G75*
G02*
X244236900Y-115685350I0J218750D01*
G01*
X244236900Y-115247850D01*
G75*
G02*
X244455650Y-115029100I218750J0D01*
G01*
X244968150Y-115029100D01*
G75*
G02*
X245186900Y-115247850I0J-218750D01*
G01*
X245186900Y-115685350D01*
G75*
G02*
X244968150Y-115904100I-218750J0D01*
G01*
G37*
G04 #@! TD.AperFunction*
G04 #@! TA.AperFunction,SMDPad,CuDef*
G36*
G01*
X245776900Y-115960350D02*
X245776900Y-115447850D01*
G75*
G02*
X245995650Y-115229100I218750J0D01*
G01*
X246433150Y-115229100D01*
G75*
G02*
X246651900Y-115447850I0J-218750D01*
G01*
X246651900Y-115960350D01*
G75*
G02*
X246433150Y-116179100I-218750J0D01*
G01*
X245995650Y-116179100D01*
G75*
G02*
X245776900Y-115960350I0J218750D01*
G01*
G37*
G04 #@! TD.AperFunction*
G04 #@! TA.AperFunction,SMDPad,CuDef*
G36*
G01*
X247351900Y-115960350D02*
X247351900Y-115447850D01*
G75*
G02*
X247570650Y-115229100I218750J0D01*
G01*
X248008150Y-115229100D01*
G75*
G02*
X248226900Y-115447850I0J-218750D01*
G01*
X248226900Y-115960350D01*
G75*
G02*
X248008150Y-116179100I-218750J0D01*
G01*
X247570650Y-116179100D01*
G75*
G02*
X247351900Y-115960350I0J218750D01*
G01*
G37*
G04 #@! TD.AperFunction*
D31*
X250131980Y-131602780D03*
D32*
X250131980Y-136682780D03*
D33*
X201044700Y-137572020D03*
X201044700Y-138872020D03*
X203044700Y-138222020D03*
G04 #@! TA.AperFunction,SMDPad,CuDef*
G36*
G01*
X218527050Y-142907600D02*
X219039550Y-142907600D01*
G75*
G02*
X219258300Y-143126350I0J-218750D01*
G01*
X219258300Y-143563850D01*
G75*
G02*
X219039550Y-143782600I-218750J0D01*
G01*
X218527050Y-143782600D01*
G75*
G02*
X218308300Y-143563850I0J218750D01*
G01*
X218308300Y-143126350D01*
G75*
G02*
X218527050Y-142907600I218750J0D01*
G01*
G37*
G04 #@! TD.AperFunction*
G04 #@! TA.AperFunction,SMDPad,CuDef*
G36*
G01*
X218527050Y-144482600D02*
X219039550Y-144482600D01*
G75*
G02*
X219258300Y-144701350I0J-218750D01*
G01*
X219258300Y-145138850D01*
G75*
G02*
X219039550Y-145357600I-218750J0D01*
G01*
X218527050Y-145357600D01*
G75*
G02*
X218308300Y-145138850I0J218750D01*
G01*
X218308300Y-144701350D01*
G75*
G02*
X218527050Y-144482600I218750J0D01*
G01*
G37*
G04 #@! TD.AperFunction*
G04 #@! TA.AperFunction,SMDPad,CuDef*
G36*
G01*
X217152100Y-105310950D02*
X217152100Y-104798450D01*
G75*
G02*
X217370850Y-104579700I218750J0D01*
G01*
X217808350Y-104579700D01*
G75*
G02*
X218027100Y-104798450I0J-218750D01*
G01*
X218027100Y-105310950D01*
G75*
G02*
X217808350Y-105529700I-218750J0D01*
G01*
X217370850Y-105529700D01*
G75*
G02*
X217152100Y-105310950I0J218750D01*
G01*
G37*
G04 #@! TD.AperFunction*
G04 #@! TA.AperFunction,SMDPad,CuDef*
G36*
G01*
X215577100Y-105310950D02*
X215577100Y-104798450D01*
G75*
G02*
X215795850Y-104579700I218750J0D01*
G01*
X216233350Y-104579700D01*
G75*
G02*
X216452100Y-104798450I0J-218750D01*
G01*
X216452100Y-105310950D01*
G75*
G02*
X216233350Y-105529700I-218750J0D01*
G01*
X215795850Y-105529700D01*
G75*
G02*
X215577100Y-105310950I0J218750D01*
G01*
G37*
G04 #@! TD.AperFunction*
D25*
X206083300Y-132667800D03*
X206733300Y-134667800D03*
X205433300Y-134667800D03*
X221615400Y-146288300D03*
X220965400Y-144288300D03*
X222265400Y-144288300D03*
X222328900Y-148707900D03*
X221028900Y-148707900D03*
X221678900Y-150707900D03*
G04 #@! TA.AperFunction,SMDPad,CuDef*
G36*
G01*
X203872550Y-133319400D02*
X202960050Y-133319400D01*
G75*
G02*
X202716300Y-133075650I0J243750D01*
G01*
X202716300Y-132588150D01*
G75*
G02*
X202960050Y-132344400I243750J0D01*
G01*
X203872550Y-132344400D01*
G75*
G02*
X204116300Y-132588150I0J-243750D01*
G01*
X204116300Y-133075650D01*
G75*
G02*
X203872550Y-133319400I-243750J0D01*
G01*
G37*
G04 #@! TD.AperFunction*
G04 #@! TA.AperFunction,SMDPad,CuDef*
G36*
G01*
X203872550Y-135194400D02*
X202960050Y-135194400D01*
G75*
G02*
X202716300Y-134950650I0J243750D01*
G01*
X202716300Y-134463150D01*
G75*
G02*
X202960050Y-134219400I243750J0D01*
G01*
X203872550Y-134219400D01*
G75*
G02*
X204116300Y-134463150I0J-243750D01*
G01*
X204116300Y-134950650D01*
G75*
G02*
X203872550Y-135194400I-243750J0D01*
G01*
G37*
G04 #@! TD.AperFunction*
G04 #@! TA.AperFunction,SMDPad,CuDef*
G36*
G01*
X201331250Y-134068600D02*
X201843750Y-134068600D01*
G75*
G02*
X202062500Y-134287350I0J-218750D01*
G01*
X202062500Y-134724850D01*
G75*
G02*
X201843750Y-134943600I-218750J0D01*
G01*
X201331250Y-134943600D01*
G75*
G02*
X201112500Y-134724850I0J218750D01*
G01*
X201112500Y-134287350D01*
G75*
G02*
X201331250Y-134068600I218750J0D01*
G01*
G37*
G04 #@! TD.AperFunction*
G04 #@! TA.AperFunction,SMDPad,CuDef*
G36*
G01*
X201331250Y-132493600D02*
X201843750Y-132493600D01*
G75*
G02*
X202062500Y-132712350I0J-218750D01*
G01*
X202062500Y-133149850D01*
G75*
G02*
X201843750Y-133368600I-218750J0D01*
G01*
X201331250Y-133368600D01*
G75*
G02*
X201112500Y-133149850I0J218750D01*
G01*
X201112500Y-132712350D01*
G75*
G02*
X201331250Y-132493600I218750J0D01*
G01*
G37*
G04 #@! TD.AperFunction*
G04 #@! TA.AperFunction,SMDPad,CuDef*
G36*
G01*
X297895000Y-110350000D02*
X297895000Y-111250000D01*
G75*
G02*
X297695000Y-111450000I-200000J0D01*
G01*
X297295000Y-111450000D01*
G75*
G02*
X297095000Y-111250000I0J200000D01*
G01*
X297095000Y-110350000D01*
G75*
G02*
X297295000Y-110150000I200000J0D01*
G01*
X297695000Y-110150000D01*
G75*
G02*
X297895000Y-110350000I0J-200000D01*
G01*
G37*
G04 #@! TD.AperFunction*
G04 #@! TA.AperFunction,SMDPad,CuDef*
G36*
G01*
X296645000Y-110350000D02*
X296645000Y-111250000D01*
G75*
G02*
X296445000Y-111450000I-200000J0D01*
G01*
X296045000Y-111450000D01*
G75*
G02*
X295845000Y-111250000I0J200000D01*
G01*
X295845000Y-110350000D01*
G75*
G02*
X296045000Y-110150000I200000J0D01*
G01*
X296445000Y-110150000D01*
G75*
G02*
X296645000Y-110350000I0J-200000D01*
G01*
G37*
G04 #@! TD.AperFunction*
G04 #@! TA.AperFunction,SMDPad,CuDef*
G36*
G01*
X295395000Y-110350000D02*
X295395000Y-111250000D01*
G75*
G02*
X295195000Y-111450000I-200000J0D01*
G01*
X294795000Y-111450000D01*
G75*
G02*
X294595000Y-111250000I0J200000D01*
G01*
X294595000Y-110350000D01*
G75*
G02*
X294795000Y-110150000I200000J0D01*
G01*
X295195000Y-110150000D01*
G75*
G02*
X295395000Y-110350000I0J-200000D01*
G01*
G37*
G04 #@! TD.AperFunction*
G04 #@! TA.AperFunction,SMDPad,CuDef*
G36*
G01*
X294145000Y-110350000D02*
X294145000Y-111250000D01*
G75*
G02*
X293945000Y-111450000I-200000J0D01*
G01*
X293545000Y-111450000D01*
G75*
G02*
X293345000Y-111250000I0J200000D01*
G01*
X293345000Y-110350000D01*
G75*
G02*
X293545000Y-110150000I200000J0D01*
G01*
X293945000Y-110150000D01*
G75*
G02*
X294145000Y-110350000I0J-200000D01*
G01*
G37*
G04 #@! TD.AperFunction*
G04 #@! TA.AperFunction,SMDPad,CuDef*
G36*
G01*
X301095000Y-106799999D02*
X301095000Y-109300001D01*
G75*
G02*
X300845001Y-109550000I-249999J0D01*
G01*
X299244999Y-109550000D01*
G75*
G02*
X298995000Y-109300001I0J249999D01*
G01*
X298995000Y-106799999D01*
G75*
G02*
X299244999Y-106550000I249999J0D01*
G01*
X300845001Y-106550000D01*
G75*
G02*
X301095000Y-106799999I0J-249999D01*
G01*
G37*
G04 #@! TD.AperFunction*
G04 #@! TA.AperFunction,SMDPad,CuDef*
G36*
G01*
X292245000Y-106799999D02*
X292245000Y-109300001D01*
G75*
G02*
X291995001Y-109550000I-249999J0D01*
G01*
X290394999Y-109550000D01*
G75*
G02*
X290145000Y-109300001I0J249999D01*
G01*
X290145000Y-106799999D01*
G75*
G02*
X290394999Y-106550000I249999J0D01*
G01*
X291995001Y-106550000D01*
G75*
G02*
X292245000Y-106799999I0J-249999D01*
G01*
G37*
G04 #@! TD.AperFunction*
D34*
X294345000Y-119790000D03*
X294345000Y-123690000D03*
X293075000Y-119790000D03*
X293075000Y-123690000D03*
X291805000Y-119790000D03*
X291805000Y-123690000D03*
X290535000Y-119790000D03*
X290535000Y-123690000D03*
X289265000Y-119790000D03*
X289265000Y-123690000D03*
X287995000Y-119790000D03*
X287995000Y-123690000D03*
X286725000Y-119790000D03*
X286725000Y-123690000D03*
X285455000Y-119790000D03*
X285455000Y-123690000D03*
D19*
X296220000Y-97620000D03*
G04 #@! TA.AperFunction,ComponentPad*
G36*
G01*
X297920000Y-97145000D02*
X297920000Y-98095000D01*
G75*
G02*
X297695000Y-98320000I-225000J0D01*
G01*
X297245000Y-98320000D01*
G75*
G02*
X297020000Y-98095000I0J225000D01*
G01*
X297020000Y-97145000D01*
G75*
G02*
X297245000Y-96920000I225000J0D01*
G01*
X297695000Y-96920000D01*
G75*
G02*
X297920000Y-97145000I0J-225000D01*
G01*
G37*
G04 #@! TD.AperFunction*
G04 #@! TA.AperFunction,SMDPad,CuDef*
G36*
G01*
X277547000Y-113592850D02*
X277547000Y-113080350D01*
G75*
G02*
X277765750Y-112861600I218750J0D01*
G01*
X278203250Y-112861600D01*
G75*
G02*
X278422000Y-113080350I0J-218750D01*
G01*
X278422000Y-113592850D01*
G75*
G02*
X278203250Y-113811600I-218750J0D01*
G01*
X277765750Y-113811600D01*
G75*
G02*
X277547000Y-113592850I0J218750D01*
G01*
G37*
G04 #@! TD.AperFunction*
G04 #@! TA.AperFunction,SMDPad,CuDef*
G36*
G01*
X279122000Y-113592850D02*
X279122000Y-113080350D01*
G75*
G02*
X279340750Y-112861600I218750J0D01*
G01*
X279778250Y-112861600D01*
G75*
G02*
X279997000Y-113080350I0J-218750D01*
G01*
X279997000Y-113592850D01*
G75*
G02*
X279778250Y-113811600I-218750J0D01*
G01*
X279340750Y-113811600D01*
G75*
G02*
X279122000Y-113592850I0J218750D01*
G01*
G37*
G04 #@! TD.AperFunction*
G04 #@! TA.AperFunction,ComponentPad*
G36*
G01*
X284680000Y-102445000D02*
X284680000Y-103395000D01*
G75*
G02*
X284455000Y-103620000I-225000J0D01*
G01*
X284005000Y-103620000D01*
G75*
G02*
X283780000Y-103395000I0J225000D01*
G01*
X283780000Y-102445000D01*
G75*
G02*
X284005000Y-102220000I225000J0D01*
G01*
X284455000Y-102220000D01*
G75*
G02*
X284680000Y-102445000I0J-225000D01*
G01*
G37*
G04 #@! TD.AperFunction*
X282980000Y-102920000D03*
G04 #@! TA.AperFunction,SMDPad,CuDef*
G36*
G01*
X277547000Y-111990350D02*
X277547000Y-111477850D01*
G75*
G02*
X277765750Y-111259100I218750J0D01*
G01*
X278203250Y-111259100D01*
G75*
G02*
X278422000Y-111477850I0J-218750D01*
G01*
X278422000Y-111990350D01*
G75*
G02*
X278203250Y-112209100I-218750J0D01*
G01*
X277765750Y-112209100D01*
G75*
G02*
X277547000Y-111990350I0J218750D01*
G01*
G37*
G04 #@! TD.AperFunction*
G04 #@! TA.AperFunction,SMDPad,CuDef*
G36*
G01*
X279122000Y-111990350D02*
X279122000Y-111477850D01*
G75*
G02*
X279340750Y-111259100I218750J0D01*
G01*
X279778250Y-111259100D01*
G75*
G02*
X279997000Y-111477850I0J-218750D01*
G01*
X279997000Y-111990350D01*
G75*
G02*
X279778250Y-112209100I-218750J0D01*
G01*
X279340750Y-112209100D01*
G75*
G02*
X279122000Y-111990350I0J218750D01*
G01*
G37*
G04 #@! TD.AperFunction*
G04 #@! TA.AperFunction,ComponentPad*
G36*
G01*
X291330000Y-97155000D02*
X291330000Y-98105000D01*
G75*
G02*
X291105000Y-98330000I-225000J0D01*
G01*
X290655000Y-98330000D01*
G75*
G02*
X290430000Y-98105000I0J225000D01*
G01*
X290430000Y-97155000D01*
G75*
G02*
X290655000Y-96930000I225000J0D01*
G01*
X291105000Y-96930000D01*
G75*
G02*
X291330000Y-97155000I0J-225000D01*
G01*
G37*
G04 #@! TD.AperFunction*
X289630000Y-97630000D03*
D35*
X274750000Y-103400000D03*
X279050000Y-103400000D03*
D19*
X275720000Y-97700000D03*
G04 #@! TA.AperFunction,ComponentPad*
G36*
G01*
X277420000Y-97225000D02*
X277420000Y-98175000D01*
G75*
G02*
X277195000Y-98400000I-225000J0D01*
G01*
X276745000Y-98400000D01*
G75*
G02*
X276520000Y-98175000I0J225000D01*
G01*
X276520000Y-97225000D01*
G75*
G02*
X276745000Y-97000000I225000J0D01*
G01*
X277195000Y-97000000D01*
G75*
G02*
X277420000Y-97225000I0J-225000D01*
G01*
G37*
G04 #@! TD.AperFunction*
G04 #@! TA.AperFunction,ComponentPad*
G36*
G01*
X284660000Y-97165000D02*
X284660000Y-98115000D01*
G75*
G02*
X284435000Y-98340000I-225000J0D01*
G01*
X283985000Y-98340000D01*
G75*
G02*
X283760000Y-98115000I0J225000D01*
G01*
X283760000Y-97165000D01*
G75*
G02*
X283985000Y-96940000I225000J0D01*
G01*
X284435000Y-96940000D01*
G75*
G02*
X284660000Y-97165000I0J-225000D01*
G01*
G37*
G04 #@! TD.AperFunction*
X282960000Y-97640000D03*
D17*
X277730000Y-108910000D03*
D18*
X280270000Y-108910000D03*
X282810000Y-108910000D03*
D12*
X280470251Y-141200000D03*
X279670251Y-141200000D03*
X279670251Y-141800000D03*
X280470251Y-141800000D03*
X279670251Y-142400000D03*
X280470251Y-142400000D03*
X280470251Y-143000000D03*
X280470251Y-143600000D03*
X279670251Y-143000000D03*
X279670251Y-143600000D03*
D36*
X280070251Y-142500000D03*
D37*
X203500000Y-97500000D03*
X261500000Y-97500000D03*
X203500000Y-146500000D03*
X261500000Y-146500000D03*
D38*
X203500000Y-165500000D03*
D33*
X214100000Y-107310000D03*
X214100000Y-106010000D03*
X212100000Y-106660000D03*
G04 #@! TA.AperFunction,SMDPad,CuDef*
G36*
G01*
X214335000Y-108603750D02*
X214335000Y-109516250D01*
G75*
G02*
X214091250Y-109760000I-243750J0D01*
G01*
X213603750Y-109760000D01*
G75*
G02*
X213360000Y-109516250I0J243750D01*
G01*
X213360000Y-108603750D01*
G75*
G02*
X213603750Y-108360000I243750J0D01*
G01*
X214091250Y-108360000D01*
G75*
G02*
X214335000Y-108603750I0J-243750D01*
G01*
G37*
G04 #@! TD.AperFunction*
G04 #@! TA.AperFunction,SMDPad,CuDef*
G36*
G01*
X212460000Y-108603750D02*
X212460000Y-109516250D01*
G75*
G02*
X212216250Y-109760000I-243750J0D01*
G01*
X211728750Y-109760000D01*
G75*
G02*
X211485000Y-109516250I0J243750D01*
G01*
X211485000Y-108603750D01*
G75*
G02*
X211728750Y-108360000I243750J0D01*
G01*
X212216250Y-108360000D01*
G75*
G02*
X212460000Y-108603750I0J-243750D01*
G01*
G37*
G04 #@! TD.AperFunction*
G04 #@! TA.AperFunction,SMDPad,CuDef*
G36*
G01*
X224276250Y-149065000D02*
X223763750Y-149065000D01*
G75*
G02*
X223545000Y-148846250I0J218750D01*
G01*
X223545000Y-148408750D01*
G75*
G02*
X223763750Y-148190000I218750J0D01*
G01*
X224276250Y-148190000D01*
G75*
G02*
X224495000Y-148408750I0J-218750D01*
G01*
X224495000Y-148846250D01*
G75*
G02*
X224276250Y-149065000I-218750J0D01*
G01*
G37*
G04 #@! TD.AperFunction*
G04 #@! TA.AperFunction,SMDPad,CuDef*
G36*
G01*
X224276250Y-147490000D02*
X223763750Y-147490000D01*
G75*
G02*
X223545000Y-147271250I0J218750D01*
G01*
X223545000Y-146833750D01*
G75*
G02*
X223763750Y-146615000I218750J0D01*
G01*
X224276250Y-146615000D01*
G75*
G02*
X224495000Y-146833750I0J-218750D01*
G01*
X224495000Y-147271250D01*
G75*
G02*
X224276250Y-147490000I-218750J0D01*
G01*
G37*
G04 #@! TD.AperFunction*
G04 #@! TA.AperFunction,SMDPad,CuDef*
G36*
G01*
X211533750Y-110925000D02*
X212046250Y-110925000D01*
G75*
G02*
X212265000Y-111143750I0J-218750D01*
G01*
X212265000Y-111581250D01*
G75*
G02*
X212046250Y-111800000I-218750J0D01*
G01*
X211533750Y-111800000D01*
G75*
G02*
X211315000Y-111581250I0J218750D01*
G01*
X211315000Y-111143750D01*
G75*
G02*
X211533750Y-110925000I218750J0D01*
G01*
G37*
G04 #@! TD.AperFunction*
G04 #@! TA.AperFunction,SMDPad,CuDef*
G36*
G01*
X211533750Y-112500000D02*
X212046250Y-112500000D01*
G75*
G02*
X212265000Y-112718750I0J-218750D01*
G01*
X212265000Y-113156250D01*
G75*
G02*
X212046250Y-113375000I-218750J0D01*
G01*
X211533750Y-113375000D01*
G75*
G02*
X211315000Y-113156250I0J218750D01*
G01*
X211315000Y-112718750D01*
G75*
G02*
X211533750Y-112500000I218750J0D01*
G01*
G37*
G04 #@! TD.AperFunction*
G04 #@! TA.AperFunction,SMDPad,CuDef*
G36*
G01*
X215670000Y-169526250D02*
X215670000Y-169013750D01*
G75*
G02*
X215888750Y-168795000I218750J0D01*
G01*
X216326250Y-168795000D01*
G75*
G02*
X216545000Y-169013750I0J-218750D01*
G01*
X216545000Y-169526250D01*
G75*
G02*
X216326250Y-169745000I-218750J0D01*
G01*
X215888750Y-169745000D01*
G75*
G02*
X215670000Y-169526250I0J218750D01*
G01*
G37*
G04 #@! TD.AperFunction*
G04 #@! TA.AperFunction,SMDPad,CuDef*
G36*
G01*
X214095000Y-169526250D02*
X214095000Y-169013750D01*
G75*
G02*
X214313750Y-168795000I218750J0D01*
G01*
X214751250Y-168795000D01*
G75*
G02*
X214970000Y-169013750I0J-218750D01*
G01*
X214970000Y-169526250D01*
G75*
G02*
X214751250Y-169745000I-218750J0D01*
G01*
X214313750Y-169745000D01*
G75*
G02*
X214095000Y-169526250I0J218750D01*
G01*
G37*
G04 #@! TD.AperFunction*
G04 #@! TA.AperFunction,SMDPad,CuDef*
G36*
G01*
X233280000Y-102220000D02*
X233280000Y-101320000D01*
G75*
G02*
X233480000Y-101120000I200000J0D01*
G01*
X233880000Y-101120000D01*
G75*
G02*
X234080000Y-101320000I0J-200000D01*
G01*
X234080000Y-102220000D01*
G75*
G02*
X233880000Y-102420000I-200000J0D01*
G01*
X233480000Y-102420000D01*
G75*
G02*
X233280000Y-102220000I0J200000D01*
G01*
G37*
G04 #@! TD.AperFunction*
G04 #@! TA.AperFunction,SMDPad,CuDef*
G36*
G01*
X234530000Y-102220000D02*
X234530000Y-101320000D01*
G75*
G02*
X234730000Y-101120000I200000J0D01*
G01*
X235130000Y-101120000D01*
G75*
G02*
X235330000Y-101320000I0J-200000D01*
G01*
X235330000Y-102220000D01*
G75*
G02*
X235130000Y-102420000I-200000J0D01*
G01*
X234730000Y-102420000D01*
G75*
G02*
X234530000Y-102220000I0J200000D01*
G01*
G37*
G04 #@! TD.AperFunction*
G04 #@! TA.AperFunction,SMDPad,CuDef*
G36*
G01*
X235780000Y-102220000D02*
X235780000Y-101320000D01*
G75*
G02*
X235980000Y-101120000I200000J0D01*
G01*
X236380000Y-101120000D01*
G75*
G02*
X236580000Y-101320000I0J-200000D01*
G01*
X236580000Y-102220000D01*
G75*
G02*
X236380000Y-102420000I-200000J0D01*
G01*
X235980000Y-102420000D01*
G75*
G02*
X235780000Y-102220000I0J200000D01*
G01*
G37*
G04 #@! TD.AperFunction*
G04 #@! TA.AperFunction,SMDPad,CuDef*
G36*
G01*
X237030000Y-102220000D02*
X237030000Y-101320000D01*
G75*
G02*
X237230000Y-101120000I200000J0D01*
G01*
X237630000Y-101120000D01*
G75*
G02*
X237830000Y-101320000I0J-200000D01*
G01*
X237830000Y-102220000D01*
G75*
G02*
X237630000Y-102420000I-200000J0D01*
G01*
X237230000Y-102420000D01*
G75*
G02*
X237030000Y-102220000I0J200000D01*
G01*
G37*
G04 #@! TD.AperFunction*
G04 #@! TA.AperFunction,SMDPad,CuDef*
G36*
G01*
X238280000Y-102220000D02*
X238280000Y-101320000D01*
G75*
G02*
X238480000Y-101120000I200000J0D01*
G01*
X238880000Y-101120000D01*
G75*
G02*
X239080000Y-101320000I0J-200000D01*
G01*
X239080000Y-102220000D01*
G75*
G02*
X238880000Y-102420000I-200000J0D01*
G01*
X238480000Y-102420000D01*
G75*
G02*
X238280000Y-102220000I0J200000D01*
G01*
G37*
G04 #@! TD.AperFunction*
G04 #@! TA.AperFunction,SMDPad,CuDef*
G36*
G01*
X230080000Y-105770001D02*
X230080000Y-103269999D01*
G75*
G02*
X230329999Y-103020000I249999J0D01*
G01*
X231930001Y-103020000D01*
G75*
G02*
X232180000Y-103269999I0J-249999D01*
G01*
X232180000Y-105770001D01*
G75*
G02*
X231930001Y-106020000I-249999J0D01*
G01*
X230329999Y-106020000D01*
G75*
G02*
X230080000Y-105770001I0J249999D01*
G01*
G37*
G04 #@! TD.AperFunction*
G04 #@! TA.AperFunction,SMDPad,CuDef*
G36*
G01*
X240180000Y-105770001D02*
X240180000Y-103269999D01*
G75*
G02*
X240429999Y-103020000I249999J0D01*
G01*
X242030001Y-103020000D01*
G75*
G02*
X242280000Y-103269999I0J-249999D01*
G01*
X242280000Y-105770001D01*
G75*
G02*
X242030001Y-106020000I-249999J0D01*
G01*
X240429999Y-106020000D01*
G75*
G02*
X240180000Y-105770001I0J249999D01*
G01*
G37*
G04 #@! TD.AperFunction*
G04 #@! TA.AperFunction,SMDPad,CuDef*
G36*
G01*
X306680950Y-137551400D02*
X307593450Y-137551400D01*
G75*
G02*
X307837200Y-137795150I0J-243750D01*
G01*
X307837200Y-138282650D01*
G75*
G02*
X307593450Y-138526400I-243750J0D01*
G01*
X306680950Y-138526400D01*
G75*
G02*
X306437200Y-138282650I0J243750D01*
G01*
X306437200Y-137795150D01*
G75*
G02*
X306680950Y-137551400I243750J0D01*
G01*
G37*
G04 #@! TD.AperFunction*
G04 #@! TA.AperFunction,SMDPad,CuDef*
G36*
G01*
X306680950Y-139426400D02*
X307593450Y-139426400D01*
G75*
G02*
X307837200Y-139670150I0J-243750D01*
G01*
X307837200Y-140157650D01*
G75*
G02*
X307593450Y-140401400I-243750J0D01*
G01*
X306680950Y-140401400D01*
G75*
G02*
X306437200Y-140157650I0J243750D01*
G01*
X306437200Y-139670150D01*
G75*
G02*
X306680950Y-139426400I243750J0D01*
G01*
G37*
G04 #@! TD.AperFunction*
G04 #@! TA.AperFunction,SMDPad,CuDef*
G36*
G01*
X299544850Y-138245600D02*
X299032350Y-138245600D01*
G75*
G02*
X298813600Y-138026850I0J218750D01*
G01*
X298813600Y-137589350D01*
G75*
G02*
X299032350Y-137370600I218750J0D01*
G01*
X299544850Y-137370600D01*
G75*
G02*
X299763600Y-137589350I0J-218750D01*
G01*
X299763600Y-138026850D01*
G75*
G02*
X299544850Y-138245600I-218750J0D01*
G01*
G37*
G04 #@! TD.AperFunction*
G04 #@! TA.AperFunction,SMDPad,CuDef*
G36*
G01*
X299544850Y-136670600D02*
X299032350Y-136670600D01*
G75*
G02*
X298813600Y-136451850I0J218750D01*
G01*
X298813600Y-136014350D01*
G75*
G02*
X299032350Y-135795600I218750J0D01*
G01*
X299544850Y-135795600D01*
G75*
G02*
X299763600Y-136014350I0J-218750D01*
G01*
X299763600Y-136451850D01*
G75*
G02*
X299544850Y-136670600I-218750J0D01*
G01*
G37*
G04 #@! TD.AperFunction*
D39*
X208390000Y-108310000D03*
X208390000Y-107060000D03*
X208390000Y-105810000D03*
X208390000Y-104560000D03*
G04 #@! TA.AperFunction,ComponentPad*
G36*
G01*
X207940000Y-102910000D02*
X208840000Y-102910000D01*
G75*
G02*
X209040000Y-103110000I0J-200000D01*
G01*
X209040000Y-103510000D01*
G75*
G02*
X208840000Y-103710000I-200000J0D01*
G01*
X207940000Y-103710000D01*
G75*
G02*
X207740000Y-103510000I0J200000D01*
G01*
X207740000Y-103110000D01*
G75*
G02*
X207940000Y-102910000I200000J0D01*
G01*
G37*
G04 #@! TD.AperFunction*
G04 #@! TA.AperFunction,ComponentPad*
G36*
G01*
X300247000Y-133021002D02*
X300247000Y-132121002D01*
G75*
G02*
X300447000Y-131921002I200000J0D01*
G01*
X300847000Y-131921002D01*
G75*
G02*
X301047000Y-132121002I0J-200000D01*
G01*
X301047000Y-133021002D01*
G75*
G02*
X300847000Y-133221002I-200000J0D01*
G01*
X300447000Y-133221002D01*
G75*
G02*
X300247000Y-133021002I0J200000D01*
G01*
G37*
G04 #@! TD.AperFunction*
D40*
X301897000Y-132571002D03*
X303147000Y-132571002D03*
X304397000Y-132571002D03*
X305647000Y-132571002D03*
G04 #@! TA.AperFunction,SMDPad,CuDef*
G36*
G01*
X299544850Y-141471400D02*
X299032350Y-141471400D01*
G75*
G02*
X298813600Y-141252650I0J218750D01*
G01*
X298813600Y-140815150D01*
G75*
G02*
X299032350Y-140596400I218750J0D01*
G01*
X299544850Y-140596400D01*
G75*
G02*
X299763600Y-140815150I0J-218750D01*
G01*
X299763600Y-141252650D01*
G75*
G02*
X299544850Y-141471400I-218750J0D01*
G01*
G37*
G04 #@! TD.AperFunction*
G04 #@! TA.AperFunction,SMDPad,CuDef*
G36*
G01*
X299544850Y-139896400D02*
X299032350Y-139896400D01*
G75*
G02*
X298813600Y-139677650I0J218750D01*
G01*
X298813600Y-139240150D01*
G75*
G02*
X299032350Y-139021400I218750J0D01*
G01*
X299544850Y-139021400D01*
G75*
G02*
X299763600Y-139240150I0J-218750D01*
G01*
X299763600Y-139677650D01*
G75*
G02*
X299544850Y-139896400I-218750J0D01*
G01*
G37*
G04 #@! TD.AperFunction*
D41*
X301057600Y-137804400D03*
X301057600Y-139074400D03*
X301057600Y-140344400D03*
D42*
X301887600Y-141174400D03*
X303157600Y-141174400D03*
X304427600Y-141174400D03*
D41*
X305257600Y-140344400D03*
X305257600Y-139074400D03*
X305257600Y-137804400D03*
D42*
X304427600Y-136974400D03*
X303157600Y-136974400D03*
X301887600Y-136974400D03*
G04 #@! TA.AperFunction,SMDPad,CuDef*
G36*
G01*
X241186000Y-166134800D02*
X241186000Y-167384800D01*
G75*
G02*
X241036000Y-167534800I-150000J0D01*
G01*
X240736000Y-167534800D01*
G75*
G02*
X240586000Y-167384800I0J150000D01*
G01*
X240586000Y-166134800D01*
G75*
G02*
X240736000Y-165984800I150000J0D01*
G01*
X241036000Y-165984800D01*
G75*
G02*
X241186000Y-166134800I0J-150000D01*
G01*
G37*
G04 #@! TD.AperFunction*
G04 #@! TA.AperFunction,SMDPad,CuDef*
G36*
G01*
X240186000Y-166134800D02*
X240186000Y-167384800D01*
G75*
G02*
X240036000Y-167534800I-150000J0D01*
G01*
X239736000Y-167534800D01*
G75*
G02*
X239586000Y-167384800I0J150000D01*
G01*
X239586000Y-166134800D01*
G75*
G02*
X239736000Y-165984800I150000J0D01*
G01*
X240036000Y-165984800D01*
G75*
G02*
X240186000Y-166134800I0J-150000D01*
G01*
G37*
G04 #@! TD.AperFunction*
G04 #@! TA.AperFunction,SMDPad,CuDef*
G36*
G01*
X242786000Y-168634799D02*
X242786000Y-169934801D01*
G75*
G02*
X242536001Y-170184800I-249999J0D01*
G01*
X241835999Y-170184800D01*
G75*
G02*
X241586000Y-169934801I0J249999D01*
G01*
X241586000Y-168634799D01*
G75*
G02*
X241835999Y-168384800I249999J0D01*
G01*
X242536001Y-168384800D01*
G75*
G02*
X242786000Y-168634799I0J-249999D01*
G01*
G37*
G04 #@! TD.AperFunction*
G04 #@! TA.AperFunction,SMDPad,CuDef*
G36*
G01*
X239186000Y-168634799D02*
X239186000Y-169934801D01*
G75*
G02*
X238936001Y-170184800I-249999J0D01*
G01*
X238235999Y-170184800D01*
G75*
G02*
X237986000Y-169934801I0J249999D01*
G01*
X237986000Y-168634799D01*
G75*
G02*
X238235999Y-168384800I249999J0D01*
G01*
X238936001Y-168384800D01*
G75*
G02*
X239186000Y-168634799I0J-249999D01*
G01*
G37*
G04 #@! TD.AperFunction*
D43*
X217526000Y-102032100D03*
X214100000Y-110990000D03*
D44*
X240386000Y-146240800D03*
D43*
X209730000Y-123870000D03*
D44*
X240157400Y-168669000D03*
X238300000Y-103270000D03*
X211580000Y-114290000D03*
X252250000Y-164060000D03*
X253950000Y-164060000D03*
X213210000Y-169250000D03*
X223890000Y-145730000D03*
X226700000Y-146540000D03*
D43*
X213990000Y-131470000D03*
X234239200Y-136818700D03*
X231699200Y-136856800D03*
X234086800Y-141505000D03*
X233883600Y-158597900D03*
X233921700Y-153911600D03*
X233947100Y-156286500D03*
X231623000Y-153949700D03*
X217251460Y-161875340D03*
X217251460Y-163175340D03*
X217269460Y-160637520D03*
D44*
X217272000Y-151828800D03*
X218719800Y-141922800D03*
X220726400Y-141287800D03*
D45*
X216002000Y-110223600D03*
D44*
X213335000Y-114414600D03*
X219253200Y-113043000D03*
X230251400Y-125844600D03*
X237922200Y-125920800D03*
X220421600Y-149720600D03*
X231191200Y-144412000D03*
X201041400Y-140043200D03*
X200127000Y-134582200D03*
X208585200Y-134633000D03*
X226339800Y-139560600D03*
X241300400Y-152032000D03*
D43*
X209760000Y-126400000D03*
D44*
X217830000Y-116680000D03*
D43*
X219160000Y-105940000D03*
D44*
X232512000Y-131432600D03*
X255120000Y-119090000D03*
D43*
X244742100Y-118364300D03*
X208049260Y-164709140D03*
X208040000Y-165960000D03*
X231733690Y-139178618D03*
X218542000Y-107518500D03*
D44*
X204648200Y-140050820D03*
D43*
X256984900Y-113462100D03*
X244297600Y-107645500D03*
X250507900Y-119494600D03*
X216051460Y-163175340D03*
X216051460Y-161875340D03*
X214620000Y-104450000D03*
X214500000Y-102800000D03*
X234150300Y-139193600D03*
D44*
X225908000Y-108877400D03*
X245935900Y-125400100D03*
X243611900Y-117294100D03*
D43*
X208328660Y-156250940D03*
D44*
X221793200Y-139890800D03*
X235356800Y-146748800D03*
D43*
X209913620Y-156271260D03*
X218970000Y-155370000D03*
X255841900Y-107874100D03*
D44*
X239636700Y-122364800D03*
X239878000Y-129553000D03*
X216380460Y-166055340D03*
D43*
X215915640Y-156697980D03*
X213960000Y-130270000D03*
X238366700Y-132475300D03*
D44*
X227508200Y-147866400D03*
D43*
X238938200Y-153683000D03*
D44*
X222290000Y-113450000D03*
X219600000Y-122180000D03*
X218810000Y-125150000D03*
X220640000Y-114680000D03*
X230120000Y-113070000D03*
X232143700Y-116002100D03*
D45*
X251050890Y-116433900D03*
X251050890Y-115595700D03*
D44*
X237820600Y-118453200D03*
D45*
X252616100Y-115494100D03*
D44*
X227051000Y-123584000D03*
D45*
X250323566Y-116100707D03*
X250330100Y-116941900D03*
D44*
X239471600Y-118097600D03*
D45*
X248917290Y-115671900D03*
D43*
X216230000Y-111220000D03*
D44*
X235990000Y-103250000D03*
X234740000Y-103230000D03*
D43*
X219180000Y-110170000D03*
D44*
X216687800Y-141237000D03*
X252793900Y-106362800D03*
X249834800Y-102781400D03*
X239890700Y-115113100D03*
X236398200Y-124422200D03*
X217396460Y-167160240D03*
X240820340Y-111135460D03*
X241701720Y-144546620D03*
X225146000Y-112789000D03*
X217272000Y-145478800D03*
X226974800Y-155054600D03*
X208763000Y-136893600D03*
D45*
X255905400Y-116891100D03*
X249441100Y-117119700D03*
X252221900Y-116994100D03*
X247777400Y-106286600D03*
D44*
X235560000Y-111468200D03*
D45*
X248691800Y-106286600D03*
D44*
X232994600Y-111493600D03*
X280950000Y-113360000D03*
X287990000Y-116630000D03*
X237170000Y-103280000D03*
X293100000Y-125700000D03*
X288040000Y-125600000D03*
D43*
X281140000Y-111650000D03*
D44*
X232240000Y-101860000D03*
D43*
X222148800Y-160238740D03*
X210610000Y-168120000D03*
X214030000Y-127750000D03*
D44*
X226860000Y-107620000D03*
X223460000Y-112210000D03*
X290500000Y-121760000D03*
D43*
X272716600Y-130750189D03*
D45*
X282208960Y-147878849D03*
X281208960Y-147878849D03*
X280208960Y-147878849D03*
X279208960Y-147878849D03*
X278208960Y-147878849D03*
X277208960Y-147878849D03*
X282208960Y-146878849D03*
X281208960Y-146878849D03*
X280208960Y-146878849D03*
X279208960Y-146878849D03*
X278208960Y-146878849D03*
X282328340Y-138722149D03*
X281328340Y-138722149D03*
X280328340Y-138722149D03*
X279328340Y-138722149D03*
X278328340Y-138722149D03*
X277328340Y-138722149D03*
X282328340Y-137722149D03*
X281328340Y-137722149D03*
X280328340Y-137722149D03*
X279328340Y-137722149D03*
X278328340Y-137722149D03*
X277328340Y-137722149D03*
X277208960Y-146878849D03*
D43*
X274216600Y-130750189D03*
X275716600Y-130750189D03*
X277216600Y-130750189D03*
X278716600Y-130750189D03*
X280216600Y-130750189D03*
X281716600Y-130750189D03*
X283216600Y-130750189D03*
X284716600Y-130750189D03*
X286216600Y-130750189D03*
X287716600Y-130750189D03*
X272716600Y-132250189D03*
X272716600Y-133750189D03*
X277216600Y-132250189D03*
X277216600Y-133750189D03*
X278716600Y-132250189D03*
X280216600Y-132250189D03*
X281716600Y-132250189D03*
X283216600Y-132250189D03*
X284716600Y-132250189D03*
X286216600Y-132250189D03*
X278716600Y-133750189D03*
X280216600Y-133750189D03*
X281716600Y-133750189D03*
X283216600Y-133750189D03*
X284716600Y-133750189D03*
X286216600Y-133750189D03*
X289116600Y-135550189D03*
X290616600Y-135550189D03*
X292116600Y-135550189D03*
X287616600Y-141550189D03*
X287616600Y-143050189D03*
X287616600Y-144550189D03*
X287616600Y-146050189D03*
X287616600Y-147550189D03*
X287616600Y-149050189D03*
X287616600Y-150550189D03*
X287616600Y-152050189D03*
X287616600Y-153550189D03*
X289116600Y-137050189D03*
X289116600Y-138550189D03*
X289116600Y-140050189D03*
X289116600Y-141550189D03*
X289116600Y-143050189D03*
X289116600Y-144550189D03*
X289116600Y-146050189D03*
X289116600Y-147550189D03*
X289116600Y-149050189D03*
X290616600Y-137050189D03*
X290616600Y-138550189D03*
X290616600Y-140050189D03*
X290616600Y-144550189D03*
X290616600Y-146050189D03*
X290616600Y-147550189D03*
X290616600Y-149050189D03*
X292116600Y-137050189D03*
X292116600Y-138550189D03*
X292116600Y-140050189D03*
X292116600Y-144550189D03*
X292116600Y-146050189D03*
X292116600Y-147550189D03*
X292116600Y-149050189D03*
X286116600Y-141550189D03*
X286116600Y-143050189D03*
X286116600Y-144550189D03*
X286116600Y-150550189D03*
X286116600Y-152050189D03*
X286116600Y-153550189D03*
X284616600Y-150550189D03*
X283116600Y-150550189D03*
X281616600Y-150550189D03*
X280116600Y-150550189D03*
X278616600Y-150550189D03*
X277116600Y-150550189D03*
X275616600Y-150550189D03*
X274116600Y-150550189D03*
X272616600Y-150550189D03*
X284616600Y-152050189D03*
X283116600Y-152050189D03*
X281616600Y-152050189D03*
X280116600Y-152050189D03*
X278616600Y-152050189D03*
X277116600Y-152050189D03*
X275616600Y-152050189D03*
X274116600Y-152050189D03*
X272616600Y-152050189D03*
X284616600Y-153550189D03*
X283116600Y-153550189D03*
X281616600Y-153550189D03*
X280116600Y-153550189D03*
X278616600Y-153550189D03*
X277116600Y-153550189D03*
X275616600Y-153550189D03*
X274116600Y-153550189D03*
X272616600Y-153550189D03*
X272616600Y-149050189D03*
X272616600Y-147550189D03*
X272616600Y-146050189D03*
X272616600Y-144550189D03*
X272616600Y-143050189D03*
X274116600Y-149050189D03*
X275616600Y-149050189D03*
X277116600Y-149050189D03*
X278616600Y-149050189D03*
X280116600Y-149050189D03*
X281616600Y-149050189D03*
X283116600Y-149050189D03*
X284616600Y-144550189D03*
X274116600Y-147550189D03*
X274116600Y-146050189D03*
X274116600Y-144550189D03*
X275616600Y-147550189D03*
X275616600Y-146050189D03*
X275616600Y-144550189D03*
X275616600Y-141550189D03*
X275616600Y-140050189D03*
X271116600Y-149050189D03*
X269616600Y-149050189D03*
X268116600Y-149050189D03*
X271116600Y-147550189D03*
X269616600Y-147550189D03*
X268116600Y-147550189D03*
X271116600Y-146050189D03*
X269616600Y-146050189D03*
X268116600Y-146050189D03*
X271116600Y-144550189D03*
X269616600Y-144550189D03*
X268116600Y-144550189D03*
X271116600Y-143050189D03*
X269616600Y-143050189D03*
X268116600Y-143050189D03*
X269616600Y-141550189D03*
X268116600Y-141550189D03*
X271116600Y-141550189D03*
X287616600Y-140050189D03*
X281716600Y-135250189D03*
X280216600Y-135250189D03*
X278716600Y-135250189D03*
X277216600Y-135250189D03*
D44*
X217180000Y-100670000D03*
X227500000Y-116630000D03*
X297993200Y-137985800D03*
X297942400Y-139205000D03*
X306807000Y-136639600D03*
D46*
X217551500Y-103441800D02*
X217551500Y-105016600D01*
X217589600Y-106510400D02*
X217550001Y-106549999D01*
X217589600Y-105054700D02*
X217589600Y-106510400D01*
X217551500Y-102057600D02*
X217526000Y-102032100D01*
X217551500Y-103441800D02*
X217551500Y-102057600D01*
X217551500Y-105016600D02*
X217589600Y-105054700D01*
X212010000Y-123890000D02*
X209845200Y-123890000D01*
X240886000Y-166759800D02*
X240886000Y-165613000D01*
X240886000Y-165613000D02*
X240233600Y-164960600D01*
X235915600Y-164960600D02*
X234112200Y-166764000D01*
X240233600Y-164960600D02*
X235915600Y-164960600D01*
D47*
X216446500Y-108090000D02*
X216446500Y-108725000D01*
D46*
X216700000Y-107800000D02*
X216500001Y-107600001D01*
X216500001Y-107600001D02*
X216439999Y-107600001D01*
X216439999Y-107600001D02*
X216349999Y-107510001D01*
X216349999Y-107510001D02*
X216349999Y-106650000D01*
X215950000Y-106650000D02*
X216349999Y-106650000D01*
X211980000Y-127730000D02*
X211980000Y-126460000D01*
X221028900Y-148707900D02*
X221028900Y-149113300D01*
X221028900Y-149113300D02*
X220421600Y-149720600D01*
X224742600Y-137896900D02*
X224742600Y-137963400D01*
X224742600Y-137963400D02*
X226339800Y-139560600D01*
X206733300Y-134667800D02*
X208550400Y-134667800D01*
X208550400Y-134667800D02*
X208585200Y-134633000D01*
X201587500Y-134506100D02*
X200203100Y-134506100D01*
X200203100Y-134506100D02*
X200127000Y-134582200D01*
X201044700Y-138872020D02*
X201044700Y-140039900D01*
X201044700Y-140039900D02*
X201041400Y-140043200D01*
X229854700Y-146456700D02*
X229854700Y-145748500D01*
X229854700Y-145748500D02*
X231191200Y-144412000D01*
X237922200Y-125920800D02*
X237922200Y-126378000D01*
X237922200Y-126378000D02*
X236728300Y-127571900D01*
X236728300Y-127571900D02*
X236423600Y-127571900D01*
X231544500Y-125873300D02*
X230280100Y-125873300D01*
X230280100Y-125873300D02*
X230251400Y-125844600D01*
D48*
X216002000Y-110223600D02*
X216450000Y-109775600D01*
X216450000Y-109775600D02*
X216450000Y-108950000D01*
D46*
X220815200Y-142634000D02*
X220815200Y-141376600D01*
X220815200Y-141376600D02*
X220726400Y-141287800D01*
X218783300Y-143345100D02*
X218783300Y-141986300D01*
X218783300Y-141986300D02*
X218719800Y-141922800D01*
X220965400Y-144288300D02*
X220965400Y-142784200D01*
X220965400Y-142784200D02*
X220815200Y-142634000D01*
X217259300Y-150091900D02*
X217259300Y-151816100D01*
X217259300Y-151816100D02*
X217272000Y-151828800D01*
X215976500Y-103441800D02*
X215141800Y-103441800D01*
X215141800Y-103441800D02*
X214500000Y-102800000D01*
X246340900Y-108004100D02*
X244656200Y-108004100D01*
X244656200Y-108004100D02*
X244297600Y-107645500D01*
X217482160Y-164500740D02*
X217482160Y-163406040D01*
X217482160Y-163406040D02*
X217251460Y-163175340D01*
X246215200Y-117246700D02*
X246215200Y-118796100D01*
X246215200Y-118796100D02*
X245173900Y-118796100D01*
X245173900Y-118796100D02*
X244742100Y-118364300D01*
X216700000Y-107800000D02*
X218260500Y-107800000D01*
X218260500Y-107800000D02*
X218542000Y-107518500D01*
X204622700Y-138717320D02*
X204622700Y-140025320D01*
X256663400Y-115534100D02*
X256663400Y-113783600D01*
X256663400Y-113783600D02*
X256984900Y-113462100D01*
X254790900Y-113666600D02*
X256780400Y-113666600D01*
X256780400Y-113666600D02*
X256984900Y-113462100D01*
X255059400Y-119029400D02*
X255120000Y-119090000D01*
X255059400Y-117564100D02*
X255059400Y-119029400D01*
X209785000Y-126425000D02*
X209760000Y-126400000D01*
X212020000Y-126425000D02*
X209785000Y-126425000D01*
X213955000Y-131505000D02*
X213990000Y-131470000D01*
X212020000Y-131505000D02*
X213955000Y-131505000D01*
D47*
X212007300Y-127508300D02*
X211242800Y-127508300D01*
D46*
X247965900Y-109504100D02*
X246665900Y-109504100D01*
X247965900Y-112104100D02*
X246665900Y-112104100D01*
X226783300Y-146456700D02*
X226700000Y-146540000D01*
X229854700Y-146456700D02*
X226783300Y-146456700D01*
X224020000Y-145860000D02*
X223890000Y-145730000D01*
X224020000Y-147052500D02*
X224020000Y-145860000D01*
X213410000Y-169050000D02*
X213210000Y-169250000D01*
X214522500Y-169050000D02*
X213410000Y-169050000D01*
X252250000Y-161783400D02*
X253047900Y-160985500D01*
X252250000Y-164060000D02*
X252250000Y-161783400D01*
X253950000Y-161887600D02*
X253047900Y-160985500D01*
X253950000Y-164060000D02*
X253950000Y-161887600D01*
X211790000Y-114080000D02*
X211580000Y-114290000D01*
X211790000Y-112937500D02*
X211790000Y-114080000D01*
X214100000Y-104970000D02*
X214620000Y-104450000D01*
X214100000Y-106010000D02*
X214100000Y-104970000D01*
X238680000Y-102890000D02*
X238300000Y-103270000D01*
X238680000Y-101770000D02*
X238680000Y-102890000D01*
X239886000Y-168397600D02*
X240157400Y-168669000D01*
X239886000Y-166759800D02*
X239886000Y-168397600D01*
X253484400Y-117564100D02*
X253484400Y-115286600D01*
X244711900Y-117041600D02*
X243864400Y-117041600D01*
X243864400Y-117041600D02*
X243611900Y-117294100D01*
X251028600Y-121412300D02*
X248806200Y-121412300D01*
X248806200Y-121412300D02*
X247790200Y-120396300D01*
X247790200Y-118796100D02*
X247790200Y-120396300D01*
X247790200Y-117246700D02*
X247790200Y-118796100D01*
X247815600Y-115671900D02*
X247815600Y-117221300D01*
X247815600Y-117221300D02*
X247790200Y-117246700D01*
X248290900Y-113604100D02*
X248290900Y-115196600D01*
X248290900Y-115196600D02*
X247815600Y-115671900D01*
D49*
X247650400Y-127114600D02*
X247650400Y-144869200D01*
X247650400Y-144869200D02*
X247650400Y-146304300D01*
X250131980Y-131602780D02*
X250131980Y-129596180D01*
X250131980Y-129596180D02*
X247650400Y-127114600D01*
X245935900Y-125400100D02*
X247650400Y-127114600D01*
X247650400Y-146304300D02*
X246007020Y-147947680D01*
X246007020Y-147947680D02*
X236555680Y-147947680D01*
X236555680Y-147947680D02*
X235356800Y-146748800D01*
X227419300Y-129057700D02*
X226158100Y-129057700D01*
X226158100Y-129057700D02*
X220532000Y-134683800D01*
D46*
X208328660Y-156250940D02*
X207858760Y-156250940D01*
X232654700Y-146456700D02*
X235064700Y-146456700D01*
X235064700Y-146456700D02*
X235356800Y-146748800D01*
X221942600Y-137896900D02*
X221942600Y-139741400D01*
X221942600Y-139741400D02*
X221793200Y-139890800D01*
X218669000Y-139890800D02*
X221793200Y-139890800D01*
D49*
X212966700Y-143459400D02*
X216535300Y-139890800D01*
X216535300Y-139890800D02*
X221793200Y-139890800D01*
D46*
X228639800Y-166346200D02*
X228639800Y-166714000D01*
X210096500Y-143434000D02*
X212941300Y-143434000D01*
X212941300Y-143434000D02*
X212966700Y-143459400D01*
D49*
X220532000Y-134683800D02*
X220532000Y-136486300D01*
X220532000Y-136486300D02*
X221942600Y-137896900D01*
D46*
X253484400Y-115286600D02*
X252840900Y-114643100D01*
X252840900Y-114643100D02*
X252840900Y-113604100D01*
D49*
X212020000Y-133241800D02*
X218669000Y-139890800D01*
X212020000Y-132775000D02*
X212020000Y-133241800D01*
D46*
X252385900Y-121274100D02*
X251041900Y-121274100D01*
X253484400Y-120175600D02*
X252385900Y-121274100D01*
X253484400Y-117564100D02*
X253484400Y-120175600D01*
D49*
X237645340Y-163723620D02*
X247650400Y-153718560D01*
X247650400Y-153718560D02*
X247650400Y-144869200D01*
X231630180Y-163723620D02*
X237645340Y-163723620D01*
X228613800Y-166740000D02*
X231630180Y-163723620D01*
X228100000Y-166740000D02*
X228613800Y-166740000D01*
D46*
X235509200Y-122097800D02*
X232969200Y-122097800D01*
X238049200Y-122097800D02*
X235509200Y-122097800D01*
X239636700Y-122364800D02*
X238316200Y-122364800D01*
X238316200Y-122364800D02*
X238049200Y-122097800D01*
X233236200Y-122364800D02*
X232969200Y-122097800D01*
X254790900Y-107941600D02*
X255774400Y-107941600D01*
X255774400Y-107941600D02*
X255841900Y-107874100D01*
D47*
X246240600Y-115671900D02*
X244917200Y-115671900D01*
X244917200Y-115671900D02*
X244711900Y-115466600D01*
X246240600Y-115671900D02*
X246393100Y-115671900D01*
X246393100Y-115671900D02*
X247640900Y-114424100D01*
X247640900Y-114424100D02*
X247640900Y-113604100D01*
X246340900Y-114024600D02*
X246340900Y-113604100D01*
X246340900Y-113666600D02*
X246303400Y-113666600D01*
X244411900Y-112334100D02*
X245681900Y-113604100D01*
X245681900Y-113604100D02*
X246340900Y-113604100D01*
X246228900Y-113716100D02*
X246340900Y-113604100D01*
X244411900Y-114209100D02*
X244456900Y-114209100D01*
X244456900Y-114209100D02*
X244951901Y-114704101D01*
X244951901Y-114704101D02*
X246730901Y-114704101D01*
X246730901Y-114704101D02*
X246990900Y-114444102D01*
X246990900Y-114444102D02*
X246990900Y-113604100D01*
X213251460Y-160775340D02*
X213251460Y-159362160D01*
X213251460Y-159362160D02*
X215915640Y-156697980D01*
X214577060Y-166207840D02*
X216227960Y-166207840D01*
X216227960Y-166207840D02*
X216380460Y-166055340D01*
X216609160Y-166284040D02*
X216380460Y-166055340D01*
X214201460Y-162975340D02*
X214201460Y-164257240D01*
X214201460Y-164257240D02*
X214577060Y-164632840D01*
X212138760Y-164625340D02*
X212138760Y-165854340D01*
X212138760Y-165854340D02*
X211757660Y-166235440D01*
X212138760Y-166210140D02*
X212164060Y-166235440D01*
X212301460Y-162975340D02*
X212301460Y-164462640D01*
X212301460Y-164462640D02*
X212138760Y-164625340D01*
X212301460Y-166098040D02*
X212164060Y-166235440D01*
X212301460Y-162975340D02*
X212214860Y-163061940D01*
X218415000Y-153098800D02*
X213027200Y-153098800D01*
X213027200Y-153098800D02*
X209944100Y-150015700D01*
X220805900Y-150707900D02*
X218415000Y-153098800D01*
X221678900Y-150707900D02*
X220805900Y-150707900D01*
X209944100Y-150015700D02*
X209867900Y-149939500D01*
X210096500Y-145009000D02*
X210096500Y-147063300D01*
X210096500Y-147063300D02*
X209944100Y-147215700D01*
X215862300Y-144932800D02*
X215862300Y-145894900D01*
X215862300Y-145894900D02*
X217259300Y-147291900D01*
D46*
X213925000Y-130235000D02*
X213960000Y-130270000D01*
X212194000Y-130235000D02*
X213925000Y-130235000D01*
D47*
X204548778Y-141135400D02*
X203044700Y-139631322D01*
X206578600Y-141135400D02*
X204548778Y-141135400D01*
X203044700Y-139631322D02*
X203044700Y-138222020D01*
X209520000Y-131330000D02*
X209520000Y-138194000D01*
X210607300Y-130242700D02*
X209520000Y-131330000D01*
X209520000Y-138194000D02*
X206578600Y-141135400D01*
X212012300Y-130242700D02*
X212020000Y-130235000D01*
X210607300Y-130242700D02*
X212012300Y-130242700D01*
X212966700Y-145034400D02*
X212966700Y-146606100D01*
X212966700Y-146606100D02*
X213576300Y-147215700D01*
X220907500Y-146288300D02*
X218618200Y-148577600D01*
X221615400Y-146288300D02*
X220907500Y-146288300D01*
X218618200Y-148577600D02*
X215014400Y-148577600D01*
X215014400Y-148577600D02*
X213576300Y-150015700D01*
D46*
X228401900Y-133457900D02*
X226032900Y-133457900D01*
X226032900Y-133457900D02*
X224807000Y-134683800D01*
X230691900Y-133457900D02*
X228401900Y-133457900D01*
X228274900Y-150525400D02*
X228274900Y-148633100D01*
X228274900Y-148633100D02*
X227508200Y-147866400D01*
D47*
X217900000Y-123880000D02*
X219600000Y-122180000D01*
X215910000Y-123880000D02*
X217900000Y-123880000D01*
X222360000Y-113380000D02*
X222290000Y-113450000D01*
X222360000Y-97520000D02*
X222360000Y-113380000D01*
X221070000Y-96230000D02*
X222360000Y-97520000D01*
X218790000Y-125170000D02*
X218810000Y-125150000D01*
X215412000Y-125170000D02*
X218790000Y-125170000D01*
X220624800Y-114664800D02*
X220640000Y-114680000D01*
X220624800Y-105651600D02*
X220624800Y-114664800D01*
X219680001Y-104706801D02*
X220624800Y-105651600D01*
X219680001Y-97380001D02*
X219680001Y-104706801D01*
X218530000Y-96230000D02*
X219680001Y-97380001D01*
X219105000Y-126425000D02*
X215920000Y-126425000D01*
X230120000Y-115410000D02*
X219105000Y-126425000D01*
X230120000Y-113070000D02*
X230120000Y-115410000D01*
D50*
X251050890Y-115595700D02*
X251050890Y-116433900D01*
X250890900Y-115435710D02*
X251050890Y-115595700D01*
X250890900Y-113604100D02*
X250890900Y-115435710D01*
X218190200Y-128965000D02*
X215920000Y-128965000D01*
X231153100Y-116002100D02*
X218190200Y-128965000D01*
X232143700Y-116002100D02*
X231153100Y-116002100D01*
X252190900Y-113604100D02*
X252190900Y-115068900D01*
X252190900Y-115068900D02*
X252616100Y-115494100D01*
X229464000Y-119418400D02*
X218647400Y-130235000D01*
X236855400Y-119418400D02*
X229464000Y-119418400D01*
X218647400Y-130235000D02*
X215920000Y-130235000D01*
X237820600Y-118453200D02*
X236855400Y-119418400D01*
X250323566Y-116100707D02*
X250323566Y-116935366D01*
X250323566Y-116935366D02*
X250330100Y-116941900D01*
X250240900Y-116018041D02*
X250323566Y-116100707D01*
X250240900Y-113604100D02*
X250240900Y-116018041D01*
X250240900Y-112929100D02*
X250240900Y-113666600D01*
X219130000Y-131505000D02*
X215920000Y-131505000D01*
X227051000Y-123584000D02*
X219130000Y-131505000D01*
X248940900Y-113604100D02*
X248940900Y-115648290D01*
X248940900Y-115648290D02*
X248917290Y-115671900D01*
X219105000Y-132775000D02*
X215920000Y-132775000D01*
X231623400Y-120256600D02*
X219105000Y-132775000D01*
X237312600Y-120256600D02*
X231623400Y-120256600D01*
X239471600Y-118097600D02*
X237312600Y-120256600D01*
D47*
X216220000Y-111230000D02*
X217450000Y-110000000D01*
X217450000Y-110000000D02*
X217450000Y-108700000D01*
X203450000Y-104650000D02*
X203450000Y-105790000D01*
D48*
X204660000Y-105860000D02*
X208400000Y-105860000D01*
X203450000Y-104650000D02*
X204660000Y-105860000D01*
D47*
X235990000Y-101960000D02*
X236180000Y-101770000D01*
X235990000Y-103250000D02*
X235990000Y-101960000D01*
D48*
X207264400Y-101587600D02*
X204216400Y-104635600D01*
X210632400Y-101587600D02*
X207264400Y-101587600D01*
X213450000Y-98770000D02*
X210632400Y-101587600D01*
D47*
X208650000Y-110990000D02*
X208650000Y-111020000D01*
X214800000Y-112100000D02*
X215000000Y-112100000D01*
X210910000Y-98770000D02*
X210589998Y-98770000D01*
D48*
X207130000Y-109500000D02*
X208650000Y-111020000D01*
X203450000Y-109500000D02*
X207130000Y-109500000D01*
D47*
X214800000Y-112100000D02*
X209730000Y-112100000D01*
D48*
X216800000Y-112100000D02*
X218730000Y-110170000D01*
X218730000Y-110170000D02*
X219180000Y-110170000D01*
X214800000Y-112100000D02*
X216800000Y-112100000D01*
X200800000Y-107950000D02*
X202311600Y-109461600D01*
X200800000Y-103460000D02*
X200800000Y-107950000D01*
D47*
X204165600Y-109461600D02*
X204165600Y-109525600D01*
D48*
X203410000Y-100850000D02*
X200800000Y-103460000D01*
D47*
X202311600Y-109461600D02*
X204165600Y-109461600D01*
D48*
X208830000Y-100850000D02*
X203410000Y-100850000D01*
X210910000Y-98770000D02*
X208830000Y-100850000D01*
X205840000Y-107110000D02*
X203450000Y-109500000D01*
X208400000Y-107110000D02*
X205840000Y-107110000D01*
D47*
X234740000Y-101960000D02*
X234930000Y-101770000D01*
X234740000Y-103230000D02*
X234740000Y-101960000D01*
D48*
X215011400Y-111888600D02*
X214800000Y-112100000D01*
X215011400Y-109638600D02*
X215011400Y-111888600D01*
X215950000Y-108700000D02*
X215011400Y-109638600D01*
X209730000Y-112100000D02*
X208650000Y-111020000D01*
D50*
X232194500Y-127873300D02*
X229853700Y-127873300D01*
X229853700Y-127873300D02*
X228669300Y-129057700D01*
D47*
X215862300Y-143357800D02*
X215862300Y-142062500D01*
X215862300Y-142062500D02*
X216687800Y-141237000D01*
X253490900Y-107941600D02*
X253490900Y-99369100D01*
X253490900Y-99369100D02*
X254090000Y-98770000D01*
X254090000Y-99110998D02*
X254090000Y-98770000D01*
X254140900Y-108004100D02*
X254140900Y-106831900D01*
X254140900Y-106831900D02*
X258039000Y-102933800D01*
X258039000Y-102933800D02*
X258039000Y-97639000D01*
X258039000Y-97639000D02*
X256630000Y-96230000D01*
X256630000Y-97029000D02*
X256630000Y-96230000D01*
X252793900Y-106362800D02*
X252793900Y-97526100D01*
X252793900Y-97526100D02*
X254090000Y-96230000D01*
X252840900Y-108004100D02*
X252840900Y-106409800D01*
X252840900Y-106409800D02*
X252793900Y-106362800D01*
X249860200Y-104127500D02*
X249860200Y-102806800D01*
X249860200Y-102806800D02*
X249834800Y-102781400D01*
X251485700Y-98834300D02*
X251550000Y-98770000D01*
X251540900Y-108004100D02*
X251540900Y-101096600D01*
X251540900Y-101096600D02*
X250266600Y-99822300D01*
X250266600Y-97513400D02*
X251550000Y-96230000D01*
X250266600Y-99822300D02*
X250266600Y-97513400D01*
X236423600Y-125996900D02*
X236423600Y-124447600D01*
X236423600Y-124447600D02*
X236398200Y-124422200D01*
X234556700Y-125885000D02*
X236311700Y-125885000D01*
X236311700Y-125885000D02*
X236423600Y-125996900D01*
X240820340Y-111135460D02*
X240820340Y-143665240D01*
X240820340Y-143665240D02*
X241701720Y-144546620D01*
X216088460Y-167706340D02*
X216850360Y-167706340D01*
X216850360Y-167706340D02*
X217396460Y-167160240D01*
X216097500Y-167715380D02*
X216088460Y-167706340D01*
X216097500Y-169050000D02*
X216097500Y-167715380D01*
X228274900Y-155105400D02*
X227025600Y-155105400D01*
X227025600Y-155105400D02*
X226974800Y-155054600D01*
X218783300Y-144920100D02*
X217830700Y-144920100D01*
X217830700Y-144920100D02*
X217272000Y-145478800D01*
X221070000Y-99500000D02*
X221070000Y-98770000D01*
X221070000Y-98770000D02*
X221070000Y-99378500D01*
X206474700Y-136939320D02*
X208717280Y-136939320D01*
X208717280Y-136939320D02*
X208763000Y-136893600D01*
X206474700Y-136939320D02*
X206474700Y-138440320D01*
X206474700Y-138440320D02*
X206197700Y-138717320D01*
X205433300Y-134667800D02*
X203455400Y-134667800D01*
X203455400Y-134667800D02*
X203416300Y-134706900D01*
X260223400Y-108966300D02*
X262763400Y-106426300D01*
X261036200Y-113043000D02*
X261036200Y-109779100D01*
X261036200Y-109779100D02*
X260223400Y-108966300D01*
X255088400Y-115534100D02*
X255088400Y-116074100D01*
X255088400Y-116074100D02*
X255905400Y-116891100D01*
X253490900Y-113666600D02*
X254140900Y-113666600D01*
X254140900Y-113666600D02*
X254140900Y-114586600D01*
X254140900Y-114586600D02*
X255088400Y-115534100D01*
X228401900Y-140327900D02*
X228401900Y-140396400D01*
X222265400Y-142758800D02*
X222390200Y-142634000D01*
X222265400Y-144288300D02*
X222265400Y-142758800D01*
X224696300Y-140327900D02*
X222390200Y-142634000D01*
X228401900Y-140327900D02*
X224696300Y-140327900D01*
X249517300Y-117043500D02*
X249441100Y-117119700D01*
X249517300Y-113677700D02*
X249517300Y-117043500D01*
X249590900Y-113604100D02*
X249517300Y-113677700D01*
X251540900Y-113604100D02*
X251650900Y-113714100D01*
X251650900Y-113714100D02*
X251650900Y-116423100D01*
X251650900Y-116423100D02*
X252221900Y-116994100D01*
X238049200Y-109537800D02*
X238049200Y-113487800D01*
X240987000Y-106600000D02*
X238049200Y-109537800D01*
X247236800Y-106600000D02*
X240987000Y-106600000D01*
X247640900Y-107004100D02*
X247236800Y-106600000D01*
X247640900Y-108004100D02*
X247640900Y-107004100D01*
X248290900Y-108004100D02*
X248290900Y-106800100D01*
X248290900Y-106800100D02*
X247777400Y-106286600D01*
X235509200Y-111519000D02*
X235560000Y-111468200D01*
X235509200Y-113487800D02*
X235509200Y-111519000D01*
X232969200Y-113487800D02*
X232969200Y-111519000D01*
X232969200Y-111519000D02*
X232994600Y-111493600D01*
X248940900Y-108004100D02*
X248940900Y-106535700D01*
X248940900Y-106535700D02*
X248691800Y-106286600D01*
D48*
X282070000Y-103830000D02*
X282980000Y-102920000D01*
X274510000Y-107430000D02*
X278540000Y-103400000D01*
D47*
X279050000Y-103400000D02*
X279480000Y-103830000D01*
D48*
X274510000Y-118560000D02*
X274510000Y-107430000D01*
D47*
X278540000Y-103400000D02*
X279050000Y-103400000D01*
D48*
X289735000Y-127160000D02*
X283110000Y-127160000D01*
X291805000Y-125090000D02*
X289735000Y-127160000D01*
X283110000Y-127160000D02*
X274510000Y-118560000D01*
X279480000Y-103830000D02*
X282070000Y-103830000D01*
X291805000Y-123690000D02*
X291805000Y-125090000D01*
X285455000Y-101775000D02*
X281380000Y-97700000D01*
X281380000Y-97700000D02*
X276970000Y-97700000D01*
X285455000Y-119790000D02*
X285455000Y-101775000D01*
D50*
X297495000Y-116640000D02*
X297495000Y-110800000D01*
X294345000Y-119790000D02*
X297495000Y-116640000D01*
X296245000Y-115644998D02*
X293075000Y-118814998D01*
X293075000Y-118814998D02*
X293075000Y-119790000D01*
X296245000Y-110800000D02*
X296245000Y-115644998D01*
X293745000Y-115625000D02*
X293745000Y-110800000D01*
X290535000Y-118835000D02*
X293745000Y-115625000D01*
X290535000Y-119790000D02*
X290535000Y-118835000D01*
X294995000Y-115624998D02*
X291805000Y-118814998D01*
X291805000Y-118814998D02*
X291805000Y-119790000D01*
X294995000Y-110800000D02*
X294995000Y-115624998D01*
D47*
X287995000Y-116635000D02*
X287990000Y-116630000D01*
D48*
X287995000Y-119790000D02*
X287995000Y-116635000D01*
D47*
X280926600Y-113336600D02*
X280950000Y-113360000D01*
D48*
X279559500Y-113336600D02*
X280926600Y-113336600D01*
X286725000Y-100155000D02*
X284210000Y-97640000D01*
X286725000Y-119790000D02*
X286725000Y-100155000D01*
D47*
X277984500Y-113336600D02*
X277959100Y-113362000D01*
D48*
X277984500Y-111734100D02*
X277984500Y-113336600D01*
D47*
X277984500Y-109164500D02*
X277730000Y-108910000D01*
D48*
X277984500Y-111734100D02*
X277984500Y-109164500D01*
D47*
X250240900Y-108004100D02*
X250240900Y-106083200D01*
X250240900Y-106083200D02*
X249860200Y-105702500D01*
X213251460Y-162975340D02*
X213548360Y-163272240D01*
X213548360Y-163272240D02*
X213548360Y-166741240D01*
X213548360Y-166741240D02*
X214513460Y-167706340D01*
X213251460Y-162975340D02*
X213357860Y-163081740D01*
X250890900Y-108004100D02*
X250890900Y-102745300D01*
X250890900Y-102745300D02*
X246915600Y-98770000D01*
X246915600Y-98770000D02*
X246470000Y-98770000D01*
X237430000Y-103020000D02*
X237170000Y-103280000D01*
X237430000Y-101770000D02*
X237430000Y-103020000D01*
D49*
X294345000Y-123690000D02*
X295800000Y-123690000D01*
X295800000Y-123690000D02*
X303630000Y-115860000D01*
X303630000Y-103780000D02*
X297470000Y-97620000D01*
X303630000Y-115860000D02*
X303630000Y-103780000D01*
X297470000Y-96970000D02*
X297470000Y-97620000D01*
X295980000Y-95480000D02*
X297470000Y-96970000D01*
X291760000Y-95480000D02*
X295980000Y-95480000D01*
X290880000Y-96360000D02*
X291760000Y-95480000D01*
X290880000Y-97630000D02*
X290880000Y-96360000D01*
D47*
X281055900Y-111734100D02*
X281140000Y-111650000D01*
D48*
X279559500Y-111734100D02*
X281055900Y-111734100D01*
D49*
X289265000Y-123690000D02*
X287995000Y-123690000D01*
D47*
X287995000Y-125555000D02*
X288040000Y-125600000D01*
D48*
X287995000Y-123690000D02*
X287995000Y-125555000D01*
D47*
X293075000Y-125675000D02*
X293100000Y-125700000D01*
D48*
X293075000Y-123690000D02*
X293075000Y-125675000D01*
D49*
X284230000Y-104950000D02*
X280270000Y-108910000D01*
X284230000Y-102920000D02*
X284230000Y-104950000D01*
X280270000Y-108910000D02*
X283310000Y-111950000D01*
X283310000Y-121545000D02*
X285455000Y-123690000D01*
X283310000Y-111950000D02*
X283310000Y-121545000D01*
X276630000Y-101010000D02*
X274750000Y-102890000D01*
X283320000Y-101010000D02*
X276630000Y-101010000D01*
X274750000Y-102890000D02*
X274750000Y-103400000D01*
X284230000Y-101920000D02*
X283320000Y-101010000D01*
X284230000Y-102920000D02*
X284230000Y-101920000D01*
D47*
X228181800Y-108761200D02*
X228181800Y-99278200D01*
X228181800Y-99278200D02*
X228690000Y-98770000D01*
X212035000Y-125170000D02*
X213680000Y-125170000D01*
X212020000Y-125155000D02*
X212035000Y-125170000D01*
X213680000Y-125170000D02*
X214249400Y-124600600D01*
X228181800Y-108761200D02*
X228181800Y-114068200D01*
X228181800Y-114068200D02*
X220910000Y-121340000D01*
X215810000Y-121340000D02*
X214249400Y-122900600D01*
X220910000Y-121340000D02*
X215810000Y-121340000D01*
X214249400Y-124600600D02*
X214249400Y-122900600D01*
X232330000Y-101770000D02*
X232240000Y-101860000D01*
X233680000Y-101770000D02*
X232330000Y-101770000D01*
X204599700Y-136939320D02*
X201677400Y-136939320D01*
X201677400Y-136939320D02*
X201044700Y-137572020D01*
X232844500Y-125873300D02*
X232844500Y-126047800D01*
X232844500Y-126047800D02*
X234556700Y-127760000D01*
D48*
X216950000Y-106650000D02*
X216950000Y-105950000D01*
X216950000Y-105950000D02*
X216054700Y-105054700D01*
D47*
X216054700Y-105054700D02*
X216014600Y-105054700D01*
D46*
X223555960Y-166581120D02*
X223555960Y-159616440D01*
X222539960Y-158600440D02*
X222098460Y-158600440D01*
X223555960Y-159616440D02*
X222539960Y-158600440D01*
X222098460Y-158600440D02*
X222098460Y-156774640D01*
X222305960Y-166581120D02*
X220744180Y-166581120D01*
X219070420Y-164907360D02*
X219070420Y-164559280D01*
X220744180Y-166581120D02*
X219070420Y-164907360D01*
X218537080Y-170350000D02*
X222305960Y-166581120D01*
X211757660Y-169317660D02*
X212790000Y-170350000D01*
X212790000Y-170350000D02*
X218537080Y-170350000D01*
X211757660Y-168110440D02*
X211757660Y-169317660D01*
X210632260Y-168097740D02*
X210610000Y-168120000D01*
X212176760Y-168097740D02*
X210632260Y-168097740D01*
D47*
X215940000Y-127740000D02*
X213990000Y-127740000D01*
X209786100Y-128965000D02*
X212020000Y-128965000D01*
X206083300Y-132667800D02*
X209786100Y-128965000D01*
X201587500Y-132931100D02*
X203317100Y-132931100D01*
X203317100Y-132931100D02*
X203416300Y-132831900D01*
X226860000Y-107620000D02*
X226860000Y-107620000D01*
X203416300Y-132831900D02*
X206640000Y-129608200D01*
X206640000Y-129608200D02*
X206640000Y-124250000D01*
X206640000Y-124250000D02*
X212260000Y-118630000D01*
X212260000Y-118630000D02*
X220590000Y-118630000D01*
X220590000Y-118630000D02*
X226860000Y-112360000D01*
X226860000Y-112360000D02*
X226860000Y-107620000D01*
X227500000Y-97420000D02*
X228690000Y-96230000D01*
X223460000Y-112210000D02*
X223460000Y-103280000D01*
X223460000Y-103280000D02*
X227500000Y-99240000D01*
X227500000Y-99240000D02*
X227500000Y-97420000D01*
X226521600Y-157395400D02*
X228274900Y-157395400D01*
X225882600Y-156756400D02*
X226521600Y-157395400D01*
X225882600Y-150490100D02*
X225882600Y-156756400D01*
X224020000Y-148627500D02*
X225882600Y-150490100D01*
X222409300Y-148627500D02*
X222328900Y-148707900D01*
X224020000Y-148627500D02*
X222409300Y-148627500D01*
X290535000Y-121795000D02*
X290500000Y-121760000D01*
X290535000Y-123690000D02*
X290535000Y-121795000D01*
D48*
X289265000Y-119790000D02*
X289265000Y-113365000D01*
X296220000Y-106410000D02*
X296220000Y-97620000D01*
X289265000Y-113365000D02*
X296220000Y-106410000D01*
D47*
X211790000Y-109242500D02*
X211972500Y-109060000D01*
D48*
X211790000Y-111362500D02*
X211790000Y-109242500D01*
X211972500Y-109060000D02*
X213130000Y-107902500D01*
X213130000Y-107902500D02*
X213130000Y-102520000D01*
X213130000Y-102520000D02*
X214980000Y-100670000D01*
X214980000Y-100670000D02*
X217180000Y-100670000D01*
D47*
X217180000Y-100670000D02*
X217180000Y-100670000D01*
X214100000Y-108807500D02*
X213847500Y-109060000D01*
X214100000Y-107310000D02*
X214100000Y-108807500D01*
X231628200Y-99168200D02*
X231230000Y-98770000D01*
X231230000Y-99290000D02*
X231230000Y-98770000D01*
X229160000Y-101360000D02*
X231230000Y-99290000D01*
X229160000Y-114320000D02*
X229160000Y-101360000D01*
X227500000Y-115980000D02*
X229160000Y-114320000D01*
X227500000Y-116630000D02*
X227500000Y-115980000D01*
D48*
X307238800Y-138038900D02*
X305492100Y-138038900D01*
D47*
X305492100Y-138038900D02*
X305257600Y-137804400D01*
X307391200Y-138191300D02*
X307238800Y-138038900D01*
D48*
X305688100Y-139913900D02*
X305257600Y-140344400D01*
X307137200Y-139913900D02*
X305688100Y-139913900D01*
D50*
X210060000Y-104610000D02*
X208400000Y-104610000D01*
X212100000Y-106650000D02*
X210060000Y-104610000D01*
D47*
X212100000Y-106660000D02*
X212100000Y-106650000D01*
D48*
X300174100Y-140344400D02*
X299288600Y-139458900D01*
X301057600Y-140344400D02*
X300174100Y-140344400D01*
X298196300Y-139458900D02*
X297942400Y-139205000D01*
X299288600Y-139458900D02*
X298196300Y-139458900D01*
D47*
X298170900Y-137808100D02*
X297993200Y-137985800D01*
D48*
X299288600Y-137808100D02*
X298170900Y-137808100D01*
D47*
X304762400Y-136639600D02*
X304427600Y-136974400D01*
D48*
X306807000Y-136639600D02*
X304762400Y-136639600D01*
X303157600Y-135412200D02*
X303157600Y-136974400D01*
X304397000Y-134172800D02*
X303157600Y-135412200D01*
X304397000Y-132571002D02*
X304397000Y-134172800D01*
D47*
X299429100Y-141174400D02*
X299288600Y-141033900D01*
D48*
X301887600Y-141174400D02*
X299429100Y-141174400D01*
X306476800Y-142684800D02*
X303398000Y-142684800D01*
X303398000Y-142684800D02*
X301887600Y-141174400D01*
X309270800Y-139890800D02*
X306476800Y-142684800D01*
X309270800Y-135750600D02*
X309270800Y-139890800D01*
X306091202Y-132571002D02*
X309270800Y-135750600D01*
X305647000Y-132571002D02*
X306091202Y-132571002D01*
D50*
X300859900Y-137804400D02*
X299288600Y-136233100D01*
D47*
X301057600Y-137804400D02*
X300859900Y-137804400D01*
D50*
X299288600Y-133929402D02*
X300647000Y-132571002D01*
X299288600Y-136233100D02*
X299288600Y-133929402D01*
D51*
X291019267Y-130232312D02*
X291451181Y-130362714D01*
X291849536Y-130574524D01*
X292199165Y-130859675D01*
X292486748Y-131207303D01*
X292701337Y-131604177D01*
X292834749Y-132035161D01*
X292885251Y-132515654D01*
X292885252Y-152466484D01*
X292837939Y-152949015D01*
X292707538Y-153380926D01*
X292495731Y-153779279D01*
X292210576Y-154128913D01*
X291862948Y-154416496D01*
X291466076Y-154631084D01*
X291035085Y-154764499D01*
X290554587Y-154815000D01*
X269603755Y-154815000D01*
X269121235Y-154767688D01*
X268689324Y-154637287D01*
X268290971Y-154425480D01*
X267941337Y-154140325D01*
X267653754Y-153792697D01*
X267439166Y-153395825D01*
X267305751Y-152964834D01*
X267255260Y-152484429D01*
X267255348Y-152326133D01*
X267804951Y-152326133D01*
X267804951Y-152673867D01*
X267872790Y-153014919D01*
X268005862Y-153336183D01*
X268199053Y-153625313D01*
X268444938Y-153871198D01*
X268734068Y-154064389D01*
X269055332Y-154197461D01*
X269396384Y-154265300D01*
X269744118Y-154265300D01*
X270085170Y-154197461D01*
X270406434Y-154064389D01*
X270695564Y-153871198D01*
X270941449Y-153625313D01*
X271134640Y-153336183D01*
X271267712Y-153014919D01*
X271335551Y-152673867D01*
X271335551Y-152326133D01*
X288804951Y-152326133D01*
X288804951Y-152673867D01*
X288872790Y-153014919D01*
X289005862Y-153336183D01*
X289199053Y-153625313D01*
X289444938Y-153871198D01*
X289734068Y-154064389D01*
X290055332Y-154197461D01*
X290396384Y-154265300D01*
X290744118Y-154265300D01*
X291085170Y-154197461D01*
X291406434Y-154064389D01*
X291695564Y-153871198D01*
X291941449Y-153625313D01*
X292134640Y-153336183D01*
X292267712Y-153014919D01*
X292335551Y-152673867D01*
X292335551Y-152326133D01*
X292267712Y-151985081D01*
X292134640Y-151663817D01*
X291941449Y-151374687D01*
X291695564Y-151128802D01*
X291406434Y-150935611D01*
X291085170Y-150802539D01*
X290744118Y-150734700D01*
X290396384Y-150734700D01*
X290055332Y-150802539D01*
X289734068Y-150935611D01*
X289444938Y-151128802D01*
X289199053Y-151374687D01*
X289005862Y-151663817D01*
X288872790Y-151985081D01*
X288804951Y-152326133D01*
X271335551Y-152326133D01*
X271267712Y-151985081D01*
X271134640Y-151663817D01*
X270941449Y-151374687D01*
X270695564Y-151128802D01*
X270406434Y-150935611D01*
X270085170Y-150802539D01*
X269744118Y-150734700D01*
X269396384Y-150734700D01*
X269055332Y-150802539D01*
X268734068Y-150935611D01*
X268444938Y-151128802D01*
X268199053Y-151374687D01*
X268005862Y-151663817D01*
X267872790Y-151985081D01*
X267804951Y-152326133D01*
X267255348Y-152326133D01*
X267259818Y-144336737D01*
X267256453Y-144302374D01*
X267256453Y-144292161D01*
X267255454Y-144282649D01*
X267238324Y-144129933D01*
X267225418Y-144069214D01*
X267213357Y-144008304D01*
X267210529Y-143999167D01*
X267164063Y-143852687D01*
X267139611Y-143795637D01*
X267115946Y-143738221D01*
X267111397Y-143729808D01*
X267037364Y-143595143D01*
X267002286Y-143543913D01*
X266967932Y-143492206D01*
X266961836Y-143484837D01*
X266863057Y-143367116D01*
X266818699Y-143323677D01*
X266774949Y-143279621D01*
X266767537Y-143273576D01*
X266647773Y-143177284D01*
X266595809Y-143143280D01*
X266544356Y-143108574D01*
X266535911Y-143104084D01*
X266535909Y-143104083D01*
X266535906Y-143104081D01*
X266535903Y-143104080D01*
X266435483Y-143051581D01*
X266437271Y-142385750D01*
X289910251Y-142385750D01*
X289910251Y-142614250D01*
X289954829Y-142838360D01*
X290042272Y-143049466D01*
X290169220Y-143239457D01*
X290330794Y-143401031D01*
X290520785Y-143527979D01*
X290731891Y-143615422D01*
X290956001Y-143660000D01*
X291184501Y-143660000D01*
X291408611Y-143615422D01*
X291619717Y-143527979D01*
X291809708Y-143401031D01*
X291971282Y-143239457D01*
X292098230Y-143049466D01*
X292185673Y-142838360D01*
X292230251Y-142614250D01*
X292230251Y-142385750D01*
X292185673Y-142161640D01*
X292098230Y-141950534D01*
X291971282Y-141760543D01*
X291809708Y-141598969D01*
X291619717Y-141472021D01*
X291408611Y-141384578D01*
X291184501Y-141340000D01*
X290956001Y-141340000D01*
X290731891Y-141384578D01*
X290520785Y-141472021D01*
X290330794Y-141598969D01*
X290169220Y-141760543D01*
X290042272Y-141950534D01*
X289954829Y-142161640D01*
X289910251Y-142385750D01*
X266437271Y-142385750D01*
X266439524Y-141546975D01*
X266553512Y-141485342D01*
X266604956Y-141450643D01*
X266656930Y-141416632D01*
X266664342Y-141410587D01*
X266782750Y-141312632D01*
X266826498Y-141268577D01*
X266870856Y-141225139D01*
X266876953Y-141217770D01*
X266974079Y-141098682D01*
X267008450Y-141046948D01*
X267043511Y-140995744D01*
X267048060Y-140987331D01*
X267120206Y-140851645D01*
X267143866Y-140794240D01*
X267168324Y-140737176D01*
X267171153Y-140728039D01*
X267215569Y-140580924D01*
X267227631Y-140520006D01*
X267240535Y-140459297D01*
X267241535Y-140449785D01*
X267249954Y-140363926D01*
X267249966Y-140363885D01*
X267255453Y-140307839D01*
X267256531Y-140296845D01*
X267256531Y-140296828D01*
X267259819Y-140263243D01*
X267255271Y-132533306D01*
X267275584Y-132326134D01*
X267804951Y-132326134D01*
X267804951Y-132673868D01*
X267872790Y-133014920D01*
X268005862Y-133336184D01*
X268199053Y-133625314D01*
X268444938Y-133871199D01*
X268734068Y-134064390D01*
X269055332Y-134197462D01*
X269396384Y-134265301D01*
X269744118Y-134265301D01*
X270085170Y-134197462D01*
X270406434Y-134064390D01*
X270695564Y-133871199D01*
X270941449Y-133625314D01*
X271134640Y-133336184D01*
X271267712Y-133014920D01*
X271298632Y-132859471D01*
X273410251Y-132859471D01*
X273410251Y-133087971D01*
X273454829Y-133312081D01*
X273542272Y-133523187D01*
X273669220Y-133713178D01*
X273830794Y-133874752D01*
X274020785Y-134001700D01*
X274231891Y-134089143D01*
X274456001Y-134133721D01*
X274684501Y-134133721D01*
X274908611Y-134089143D01*
X275119717Y-134001700D01*
X275309708Y-133874752D01*
X275471282Y-133713178D01*
X275598230Y-133523187D01*
X275685673Y-133312081D01*
X275730251Y-133087971D01*
X275730251Y-132859471D01*
X275685673Y-132635361D01*
X275598230Y-132424255D01*
X275532667Y-132326133D01*
X288804951Y-132326133D01*
X288804951Y-132673867D01*
X288872790Y-133014919D01*
X289005862Y-133336183D01*
X289199053Y-133625313D01*
X289444938Y-133871198D01*
X289734068Y-134064389D01*
X290055332Y-134197461D01*
X290396384Y-134265300D01*
X290744118Y-134265300D01*
X291085170Y-134197461D01*
X291406434Y-134064389D01*
X291695564Y-133871198D01*
X291941449Y-133625313D01*
X292134640Y-133336183D01*
X292267712Y-133014919D01*
X292335551Y-132673867D01*
X292335551Y-132326133D01*
X292267712Y-131985081D01*
X292134640Y-131663817D01*
X291941449Y-131374687D01*
X291695564Y-131128802D01*
X291406434Y-130935611D01*
X291085170Y-130802539D01*
X290744118Y-130734700D01*
X290396384Y-130734700D01*
X290055332Y-130802539D01*
X289734068Y-130935611D01*
X289444938Y-131128802D01*
X289199053Y-131374687D01*
X289005862Y-131663817D01*
X288872790Y-131985081D01*
X288804951Y-132326133D01*
X275532667Y-132326133D01*
X275471282Y-132234264D01*
X275309708Y-132072690D01*
X275119717Y-131945742D01*
X274908611Y-131858299D01*
X274684501Y-131813721D01*
X274456001Y-131813721D01*
X274231891Y-131858299D01*
X274020785Y-131945742D01*
X273830794Y-132072690D01*
X273669220Y-132234264D01*
X273542272Y-132424255D01*
X273454829Y-132635361D01*
X273410251Y-132859471D01*
X271298632Y-132859471D01*
X271335551Y-132673868D01*
X271335551Y-132326134D01*
X271267712Y-131985082D01*
X271134640Y-131663818D01*
X270941449Y-131374688D01*
X270695564Y-131128803D01*
X270406434Y-130935612D01*
X270085170Y-130802540D01*
X269744118Y-130734701D01*
X269396384Y-130734701D01*
X269055332Y-130802540D01*
X268734068Y-130935612D01*
X268444938Y-131128803D01*
X268199053Y-131374688D01*
X268005862Y-131663818D01*
X267872790Y-131985082D01*
X267804951Y-132326134D01*
X267275584Y-132326134D01*
X267302563Y-132050985D01*
X267432965Y-131619071D01*
X267644775Y-131220716D01*
X267929926Y-130871087D01*
X268277554Y-130583504D01*
X268674428Y-130368915D01*
X269105412Y-130235503D01*
X269585905Y-130185001D01*
X290536735Y-130184999D01*
X291019267Y-130232312D01*
G04 #@! TA.AperFunction,Conductor*
D52*
G36*
X291019267Y-130232312D02*
G01*
X291451181Y-130362714D01*
X291849536Y-130574524D01*
X292199165Y-130859675D01*
X292486748Y-131207303D01*
X292701337Y-131604177D01*
X292834749Y-132035161D01*
X292885251Y-132515654D01*
X292885252Y-152466484D01*
X292837939Y-152949015D01*
X292707538Y-153380926D01*
X292495731Y-153779279D01*
X292210576Y-154128913D01*
X291862948Y-154416496D01*
X291466076Y-154631084D01*
X291035085Y-154764499D01*
X290554587Y-154815000D01*
X269603755Y-154815000D01*
X269121235Y-154767688D01*
X268689324Y-154637287D01*
X268290971Y-154425480D01*
X267941337Y-154140325D01*
X267653754Y-153792697D01*
X267439166Y-153395825D01*
X267305751Y-152964834D01*
X267255260Y-152484429D01*
X267255348Y-152326133D01*
X267804951Y-152326133D01*
X267804951Y-152673867D01*
X267872790Y-153014919D01*
X268005862Y-153336183D01*
X268199053Y-153625313D01*
X268444938Y-153871198D01*
X268734068Y-154064389D01*
X269055332Y-154197461D01*
X269396384Y-154265300D01*
X269744118Y-154265300D01*
X270085170Y-154197461D01*
X270406434Y-154064389D01*
X270695564Y-153871198D01*
X270941449Y-153625313D01*
X271134640Y-153336183D01*
X271267712Y-153014919D01*
X271335551Y-152673867D01*
X271335551Y-152326133D01*
X288804951Y-152326133D01*
X288804951Y-152673867D01*
X288872790Y-153014919D01*
X289005862Y-153336183D01*
X289199053Y-153625313D01*
X289444938Y-153871198D01*
X289734068Y-154064389D01*
X290055332Y-154197461D01*
X290396384Y-154265300D01*
X290744118Y-154265300D01*
X291085170Y-154197461D01*
X291406434Y-154064389D01*
X291695564Y-153871198D01*
X291941449Y-153625313D01*
X292134640Y-153336183D01*
X292267712Y-153014919D01*
X292335551Y-152673867D01*
X292335551Y-152326133D01*
X292267712Y-151985081D01*
X292134640Y-151663817D01*
X291941449Y-151374687D01*
X291695564Y-151128802D01*
X291406434Y-150935611D01*
X291085170Y-150802539D01*
X290744118Y-150734700D01*
X290396384Y-150734700D01*
X290055332Y-150802539D01*
X289734068Y-150935611D01*
X289444938Y-151128802D01*
X289199053Y-151374687D01*
X289005862Y-151663817D01*
X288872790Y-151985081D01*
X288804951Y-152326133D01*
X271335551Y-152326133D01*
X271267712Y-151985081D01*
X271134640Y-151663817D01*
X270941449Y-151374687D01*
X270695564Y-151128802D01*
X270406434Y-150935611D01*
X270085170Y-150802539D01*
X269744118Y-150734700D01*
X269396384Y-150734700D01*
X269055332Y-150802539D01*
X268734068Y-150935611D01*
X268444938Y-151128802D01*
X268199053Y-151374687D01*
X268005862Y-151663817D01*
X267872790Y-151985081D01*
X267804951Y-152326133D01*
X267255348Y-152326133D01*
X267259818Y-144336737D01*
X267256453Y-144302374D01*
X267256453Y-144292161D01*
X267255454Y-144282649D01*
X267238324Y-144129933D01*
X267225418Y-144069214D01*
X267213357Y-144008304D01*
X267210529Y-143999167D01*
X267164063Y-143852687D01*
X267139611Y-143795637D01*
X267115946Y-143738221D01*
X267111397Y-143729808D01*
X267037364Y-143595143D01*
X267002286Y-143543913D01*
X266967932Y-143492206D01*
X266961836Y-143484837D01*
X266863057Y-143367116D01*
X266818699Y-143323677D01*
X266774949Y-143279621D01*
X266767537Y-143273576D01*
X266647773Y-143177284D01*
X266595809Y-143143280D01*
X266544356Y-143108574D01*
X266535911Y-143104084D01*
X266535909Y-143104083D01*
X266535906Y-143104081D01*
X266535903Y-143104080D01*
X266435483Y-143051581D01*
X266437271Y-142385750D01*
X289910251Y-142385750D01*
X289910251Y-142614250D01*
X289954829Y-142838360D01*
X290042272Y-143049466D01*
X290169220Y-143239457D01*
X290330794Y-143401031D01*
X290520785Y-143527979D01*
X290731891Y-143615422D01*
X290956001Y-143660000D01*
X291184501Y-143660000D01*
X291408611Y-143615422D01*
X291619717Y-143527979D01*
X291809708Y-143401031D01*
X291971282Y-143239457D01*
X292098230Y-143049466D01*
X292185673Y-142838360D01*
X292230251Y-142614250D01*
X292230251Y-142385750D01*
X292185673Y-142161640D01*
X292098230Y-141950534D01*
X291971282Y-141760543D01*
X291809708Y-141598969D01*
X291619717Y-141472021D01*
X291408611Y-141384578D01*
X291184501Y-141340000D01*
X290956001Y-141340000D01*
X290731891Y-141384578D01*
X290520785Y-141472021D01*
X290330794Y-141598969D01*
X290169220Y-141760543D01*
X290042272Y-141950534D01*
X289954829Y-142161640D01*
X289910251Y-142385750D01*
X266437271Y-142385750D01*
X266439524Y-141546975D01*
X266553512Y-141485342D01*
X266604956Y-141450643D01*
X266656930Y-141416632D01*
X266664342Y-141410587D01*
X266782750Y-141312632D01*
X266826498Y-141268577D01*
X266870856Y-141225139D01*
X266876953Y-141217770D01*
X266974079Y-141098682D01*
X267008450Y-141046948D01*
X267043511Y-140995744D01*
X267048060Y-140987331D01*
X267120206Y-140851645D01*
X267143866Y-140794240D01*
X267168324Y-140737176D01*
X267171153Y-140728039D01*
X267215569Y-140580924D01*
X267227631Y-140520006D01*
X267240535Y-140459297D01*
X267241535Y-140449785D01*
X267249954Y-140363926D01*
X267249966Y-140363885D01*
X267255453Y-140307839D01*
X267256531Y-140296845D01*
X267256531Y-140296828D01*
X267259819Y-140263243D01*
X267255271Y-132533306D01*
X267275584Y-132326134D01*
X267804951Y-132326134D01*
X267804951Y-132673868D01*
X267872790Y-133014920D01*
X268005862Y-133336184D01*
X268199053Y-133625314D01*
X268444938Y-133871199D01*
X268734068Y-134064390D01*
X269055332Y-134197462D01*
X269396384Y-134265301D01*
X269744118Y-134265301D01*
X270085170Y-134197462D01*
X270406434Y-134064390D01*
X270695564Y-133871199D01*
X270941449Y-133625314D01*
X271134640Y-133336184D01*
X271267712Y-133014920D01*
X271298632Y-132859471D01*
X273410251Y-132859471D01*
X273410251Y-133087971D01*
X273454829Y-133312081D01*
X273542272Y-133523187D01*
X273669220Y-133713178D01*
X273830794Y-133874752D01*
X274020785Y-134001700D01*
X274231891Y-134089143D01*
X274456001Y-134133721D01*
X274684501Y-134133721D01*
X274908611Y-134089143D01*
X275119717Y-134001700D01*
X275309708Y-133874752D01*
X275471282Y-133713178D01*
X275598230Y-133523187D01*
X275685673Y-133312081D01*
X275730251Y-133087971D01*
X275730251Y-132859471D01*
X275685673Y-132635361D01*
X275598230Y-132424255D01*
X275532667Y-132326133D01*
X288804951Y-132326133D01*
X288804951Y-132673867D01*
X288872790Y-133014919D01*
X289005862Y-133336183D01*
X289199053Y-133625313D01*
X289444938Y-133871198D01*
X289734068Y-134064389D01*
X290055332Y-134197461D01*
X290396384Y-134265300D01*
X290744118Y-134265300D01*
X291085170Y-134197461D01*
X291406434Y-134064389D01*
X291695564Y-133871198D01*
X291941449Y-133625313D01*
X292134640Y-133336183D01*
X292267712Y-133014919D01*
X292335551Y-132673867D01*
X292335551Y-132326133D01*
X292267712Y-131985081D01*
X292134640Y-131663817D01*
X291941449Y-131374687D01*
X291695564Y-131128802D01*
X291406434Y-130935611D01*
X291085170Y-130802539D01*
X290744118Y-130734700D01*
X290396384Y-130734700D01*
X290055332Y-130802539D01*
X289734068Y-130935611D01*
X289444938Y-131128802D01*
X289199053Y-131374687D01*
X289005862Y-131663817D01*
X288872790Y-131985081D01*
X288804951Y-132326133D01*
X275532667Y-132326133D01*
X275471282Y-132234264D01*
X275309708Y-132072690D01*
X275119717Y-131945742D01*
X274908611Y-131858299D01*
X274684501Y-131813721D01*
X274456001Y-131813721D01*
X274231891Y-131858299D01*
X274020785Y-131945742D01*
X273830794Y-132072690D01*
X273669220Y-132234264D01*
X273542272Y-132424255D01*
X273454829Y-132635361D01*
X273410251Y-132859471D01*
X271298632Y-132859471D01*
X271335551Y-132673868D01*
X271335551Y-132326134D01*
X271267712Y-131985082D01*
X271134640Y-131663818D01*
X270941449Y-131374688D01*
X270695564Y-131128803D01*
X270406434Y-130935612D01*
X270085170Y-130802540D01*
X269744118Y-130734701D01*
X269396384Y-130734701D01*
X269055332Y-130802540D01*
X268734068Y-130935612D01*
X268444938Y-131128803D01*
X268199053Y-131374688D01*
X268005862Y-131663818D01*
X267872790Y-131985082D01*
X267804951Y-132326134D01*
X267275584Y-132326134D01*
X267302563Y-132050985D01*
X267432965Y-131619071D01*
X267644775Y-131220716D01*
X267929926Y-130871087D01*
X268277554Y-130583504D01*
X268674428Y-130368915D01*
X269105412Y-130235503D01*
X269585905Y-130185001D01*
X290536735Y-130184999D01*
X291019267Y-130232312D01*
G37*
G04 #@! TD.AperFunction*
D51*
X246537330Y-107078357D02*
X246518632Y-107139997D01*
X246512318Y-107204100D01*
X246512318Y-108804100D01*
X246518632Y-108868203D01*
X246537330Y-108929843D01*
X246567694Y-108986650D01*
X246570900Y-108990557D01*
X246570900Y-109398100D01*
X246573340Y-109422876D01*
X246580567Y-109446701D01*
X246592303Y-109468657D01*
X246608097Y-109487903D01*
X246627343Y-109503697D01*
X246649299Y-109515433D01*
X246673124Y-109522660D01*
X246697900Y-109525100D01*
X254698900Y-109525100D01*
X254723676Y-109522660D01*
X254747501Y-109515433D01*
X254769457Y-109503697D01*
X254788703Y-109487903D01*
X254804497Y-109468657D01*
X254816233Y-109446701D01*
X254823460Y-109422876D01*
X254825900Y-109398100D01*
X254825900Y-109271100D01*
X257620006Y-109271100D01*
X257632494Y-124269800D01*
X244424027Y-124269800D01*
X244411899Y-121589525D01*
X244409346Y-121564760D01*
X244402012Y-121540969D01*
X244390176Y-121519065D01*
X244374295Y-121499892D01*
X244354979Y-121484185D01*
X244332969Y-121472549D01*
X244309113Y-121465429D01*
X244284900Y-121463100D01*
X241617900Y-121463100D01*
X241617900Y-117217572D01*
X242834900Y-117217572D01*
X242834900Y-117370628D01*
X242862500Y-117509386D01*
X242862500Y-118110300D01*
X242864940Y-118135076D01*
X242872167Y-118158901D01*
X242883903Y-118180857D01*
X242899697Y-118200103D01*
X242918943Y-118215897D01*
X242940899Y-118227633D01*
X242964724Y-118234860D01*
X242993467Y-118237238D01*
X245300900Y-118165131D01*
X245300900Y-122288600D01*
X245303340Y-122313376D01*
X245310567Y-122337201D01*
X245322303Y-122359157D01*
X245338097Y-122378403D01*
X245357343Y-122394197D01*
X245379299Y-122405933D01*
X245403124Y-122413160D01*
X245427900Y-122415600D01*
X256476900Y-122415600D01*
X256501676Y-122413160D01*
X256525501Y-122405933D01*
X256547457Y-122394197D01*
X256566703Y-122378403D01*
X256582497Y-122359157D01*
X256594233Y-122337201D01*
X256601460Y-122313376D01*
X256603900Y-122288600D01*
X256603900Y-114732100D01*
X256601460Y-114707324D01*
X256594233Y-114683499D01*
X256582497Y-114661543D01*
X256566703Y-114642297D01*
X256547457Y-114626503D01*
X256525501Y-114614767D01*
X256501676Y-114607540D01*
X256476900Y-114605100D01*
X254830054Y-114605100D01*
X254921084Y-111777086D01*
X254919442Y-111752244D01*
X254912986Y-111728199D01*
X254901962Y-111705876D01*
X254886795Y-111686133D01*
X254868068Y-111669728D01*
X254846500Y-111657292D01*
X254822921Y-111649302D01*
X254796072Y-111646015D01*
X243048572Y-111468215D01*
X243023761Y-111470280D01*
X242999830Y-111477145D01*
X242977699Y-111488548D01*
X242958217Y-111504049D01*
X242942133Y-111523053D01*
X242930066Y-111544829D01*
X242922479Y-111568541D01*
X242919665Y-111593276D01*
X242875244Y-114525040D01*
X242862631Y-114802533D01*
X242862500Y-114808300D01*
X242862500Y-117078814D01*
X242834900Y-117217572D01*
X241617900Y-117217572D01*
X241617900Y-107027000D01*
X246564781Y-107027000D01*
X246537330Y-107078357D01*
G04 #@! TA.AperFunction,Conductor*
D52*
G36*
X246537330Y-107078357D02*
G01*
X246518632Y-107139997D01*
X246512318Y-107204100D01*
X246512318Y-108804100D01*
X246518632Y-108868203D01*
X246537330Y-108929843D01*
X246567694Y-108986650D01*
X246570900Y-108990557D01*
X246570900Y-109398100D01*
X246573340Y-109422876D01*
X246580567Y-109446701D01*
X246592303Y-109468657D01*
X246608097Y-109487903D01*
X246627343Y-109503697D01*
X246649299Y-109515433D01*
X246673124Y-109522660D01*
X246697900Y-109525100D01*
X254698900Y-109525100D01*
X254723676Y-109522660D01*
X254747501Y-109515433D01*
X254769457Y-109503697D01*
X254788703Y-109487903D01*
X254804497Y-109468657D01*
X254816233Y-109446701D01*
X254823460Y-109422876D01*
X254825900Y-109398100D01*
X254825900Y-109271100D01*
X257620006Y-109271100D01*
X257632494Y-124269800D01*
X244424027Y-124269800D01*
X244411899Y-121589525D01*
X244409346Y-121564760D01*
X244402012Y-121540969D01*
X244390176Y-121519065D01*
X244374295Y-121499892D01*
X244354979Y-121484185D01*
X244332969Y-121472549D01*
X244309113Y-121465429D01*
X244284900Y-121463100D01*
X241617900Y-121463100D01*
X241617900Y-117217572D01*
X242834900Y-117217572D01*
X242834900Y-117370628D01*
X242862500Y-117509386D01*
X242862500Y-118110300D01*
X242864940Y-118135076D01*
X242872167Y-118158901D01*
X242883903Y-118180857D01*
X242899697Y-118200103D01*
X242918943Y-118215897D01*
X242940899Y-118227633D01*
X242964724Y-118234860D01*
X242993467Y-118237238D01*
X245300900Y-118165131D01*
X245300900Y-122288600D01*
X245303340Y-122313376D01*
X245310567Y-122337201D01*
X245322303Y-122359157D01*
X245338097Y-122378403D01*
X245357343Y-122394197D01*
X245379299Y-122405933D01*
X245403124Y-122413160D01*
X245427900Y-122415600D01*
X256476900Y-122415600D01*
X256501676Y-122413160D01*
X256525501Y-122405933D01*
X256547457Y-122394197D01*
X256566703Y-122378403D01*
X256582497Y-122359157D01*
X256594233Y-122337201D01*
X256601460Y-122313376D01*
X256603900Y-122288600D01*
X256603900Y-114732100D01*
X256601460Y-114707324D01*
X256594233Y-114683499D01*
X256582497Y-114661543D01*
X256566703Y-114642297D01*
X256547457Y-114626503D01*
X256525501Y-114614767D01*
X256501676Y-114607540D01*
X256476900Y-114605100D01*
X254830054Y-114605100D01*
X254921084Y-111777086D01*
X254919442Y-111752244D01*
X254912986Y-111728199D01*
X254901962Y-111705876D01*
X254886795Y-111686133D01*
X254868068Y-111669728D01*
X254846500Y-111657292D01*
X254822921Y-111649302D01*
X254796072Y-111646015D01*
X243048572Y-111468215D01*
X243023761Y-111470280D01*
X242999830Y-111477145D01*
X242977699Y-111488548D01*
X242958217Y-111504049D01*
X242942133Y-111523053D01*
X242930066Y-111544829D01*
X242922479Y-111568541D01*
X242919665Y-111593276D01*
X242875244Y-114525040D01*
X242862631Y-114802533D01*
X242862500Y-114808300D01*
X242862500Y-117078814D01*
X242834900Y-117217572D01*
X241617900Y-117217572D01*
X241617900Y-107027000D01*
X246564781Y-107027000D01*
X246537330Y-107078357D01*
G37*
G04 #@! TD.AperFunction*
D47*
X252244652Y-119966100D02*
X248897646Y-119966100D01*
X248884160Y-118184100D01*
X252249147Y-118184100D01*
X252244652Y-119966100D01*
G04 #@! TA.AperFunction,Conductor*
D52*
G36*
X252244652Y-119966100D02*
G01*
X248897646Y-119966100D01*
X248884160Y-118184100D01*
X252249147Y-118184100D01*
X252244652Y-119966100D01*
G37*
G04 #@! TD.AperFunction*
D47*
X257723100Y-108606232D02*
X254690900Y-108604168D01*
X254690900Y-107303798D01*
X257723100Y-107294604D01*
X257723100Y-108606232D01*
G04 #@! TA.AperFunction,Conductor*
D52*
G36*
X257723100Y-108606232D02*
G01*
X254690900Y-108604168D01*
X254690900Y-107303798D01*
X257723100Y-107294604D01*
X257723100Y-108606232D01*
G37*
G04 #@! TD.AperFunction*
D51*
X248348900Y-114414600D02*
X248348934Y-114417519D01*
X248370634Y-115361459D01*
X248361650Y-115374904D01*
X248314385Y-115489011D01*
X248290290Y-115610146D01*
X248290290Y-115733654D01*
X248314385Y-115854789D01*
X248361650Y-115968896D01*
X248371933Y-115984286D01*
X248348902Y-120509329D01*
X248351216Y-120534117D01*
X248358321Y-120557978D01*
X248369946Y-120579994D01*
X248385642Y-120599319D01*
X248404806Y-120615211D01*
X248426703Y-120627059D01*
X248450490Y-120634407D01*
X248475861Y-120636975D01*
X252569111Y-120638225D01*
X252593888Y-120635792D01*
X252617715Y-120628573D01*
X252639675Y-120616843D01*
X252658925Y-120601055D01*
X252674725Y-120581815D01*
X252686468Y-120559862D01*
X252694673Y-120530535D01*
X253427423Y-115767410D01*
X253428779Y-115742551D01*
X253425258Y-115717905D01*
X253416675Y-115693733D01*
X252857400Y-114513041D01*
X252857400Y-113131100D01*
X252943523Y-113131100D01*
X252997187Y-114578057D01*
X253000544Y-114602726D01*
X253008649Y-114626266D01*
X253021191Y-114647773D01*
X253033558Y-114662407D01*
X253758290Y-115399218D01*
X253682915Y-120254629D01*
X253684971Y-120279440D01*
X253691827Y-120303374D01*
X253703221Y-120325510D01*
X253718714Y-120344998D01*
X253737712Y-120361089D01*
X253759484Y-120373164D01*
X253783193Y-120380760D01*
X253809900Y-120383600D01*
X256032400Y-120383600D01*
X256032400Y-121938879D01*
X247713900Y-121908070D01*
X247713900Y-118486903D01*
X248144620Y-115205830D01*
X248144633Y-115205726D01*
X248220833Y-114621526D01*
X248221890Y-114606715D01*
X248241295Y-113081100D01*
X248348900Y-113081100D01*
X248348900Y-114414600D01*
G04 #@! TA.AperFunction,Conductor*
D52*
G36*
X248348900Y-114414600D02*
G01*
X248348934Y-114417519D01*
X248370634Y-115361459D01*
X248361650Y-115374904D01*
X248314385Y-115489011D01*
X248290290Y-115610146D01*
X248290290Y-115733654D01*
X248314385Y-115854789D01*
X248361650Y-115968896D01*
X248371933Y-115984286D01*
X248348902Y-120509329D01*
X248351216Y-120534117D01*
X248358321Y-120557978D01*
X248369946Y-120579994D01*
X248385642Y-120599319D01*
X248404806Y-120615211D01*
X248426703Y-120627059D01*
X248450490Y-120634407D01*
X248475861Y-120636975D01*
X252569111Y-120638225D01*
X252593888Y-120635792D01*
X252617715Y-120628573D01*
X252639675Y-120616843D01*
X252658925Y-120601055D01*
X252674725Y-120581815D01*
X252686468Y-120559862D01*
X252694673Y-120530535D01*
X253427423Y-115767410D01*
X253428779Y-115742551D01*
X253425258Y-115717905D01*
X253416675Y-115693733D01*
X252857400Y-114513041D01*
X252857400Y-113131100D01*
X252943523Y-113131100D01*
X252997187Y-114578057D01*
X253000544Y-114602726D01*
X253008649Y-114626266D01*
X253021191Y-114647773D01*
X253033558Y-114662407D01*
X253758290Y-115399218D01*
X253682915Y-120254629D01*
X253684971Y-120279440D01*
X253691827Y-120303374D01*
X253703221Y-120325510D01*
X253718714Y-120344998D01*
X253737712Y-120361089D01*
X253759484Y-120373164D01*
X253783193Y-120380760D01*
X253809900Y-120383600D01*
X256032400Y-120383600D01*
X256032400Y-121938879D01*
X247713900Y-121908070D01*
X247713900Y-118486903D01*
X248144620Y-115205830D01*
X248144633Y-115205726D01*
X248220833Y-114621526D01*
X248221890Y-114606715D01*
X248241295Y-113081100D01*
X248348900Y-113081100D01*
X248348900Y-114414600D01*
G37*
G04 #@! TD.AperFunction*
D51*
X225147601Y-156720285D02*
X225144044Y-156756400D01*
X225158235Y-156900485D01*
X225183897Y-156985079D01*
X225200264Y-157039033D01*
X225268514Y-157166720D01*
X225360363Y-157278638D01*
X225388408Y-157301654D01*
X225448207Y-157361453D01*
X225429725Y-159498169D01*
X225426398Y-159511927D01*
X225425174Y-159529037D01*
X225395401Y-167246184D01*
X223295366Y-167281740D01*
X223313219Y-167248340D01*
X223375260Y-167043817D01*
X223390960Y-166884414D01*
X223390960Y-166277827D01*
X223375260Y-166118424D01*
X223313219Y-165913901D01*
X223241620Y-165779948D01*
X223230939Y-163290543D01*
X223228392Y-163265777D01*
X223221063Y-163241984D01*
X223209233Y-163220078D01*
X223193356Y-163200901D01*
X223174044Y-163185190D01*
X223152037Y-163173548D01*
X223128182Y-163166423D01*
X223098444Y-163164207D01*
X221321075Y-163241195D01*
X221345864Y-155314079D01*
X225147601Y-155309891D01*
X225147601Y-156720285D01*
G04 #@! TA.AperFunction,Conductor*
D52*
G36*
X225147601Y-156720285D02*
G01*
X225144044Y-156756400D01*
X225158235Y-156900485D01*
X225183897Y-156985079D01*
X225200264Y-157039033D01*
X225268514Y-157166720D01*
X225360363Y-157278638D01*
X225388408Y-157301654D01*
X225448207Y-157361453D01*
X225429725Y-159498169D01*
X225426398Y-159511927D01*
X225425174Y-159529037D01*
X225395401Y-167246184D01*
X223295366Y-167281740D01*
X223313219Y-167248340D01*
X223375260Y-167043817D01*
X223390960Y-166884414D01*
X223390960Y-166277827D01*
X223375260Y-166118424D01*
X223313219Y-165913901D01*
X223241620Y-165779948D01*
X223230939Y-163290543D01*
X223228392Y-163265777D01*
X223221063Y-163241984D01*
X223209233Y-163220078D01*
X223193356Y-163200901D01*
X223174044Y-163185190D01*
X223152037Y-163173548D01*
X223128182Y-163166423D01*
X223098444Y-163164207D01*
X221321075Y-163241195D01*
X221345864Y-155314079D01*
X225147601Y-155309891D01*
X225147601Y-156720285D01*
G37*
G04 #@! TD.AperFunction*
D51*
X220235355Y-165616534D02*
X220237756Y-165641314D01*
X220244945Y-165665150D01*
X220256646Y-165687125D01*
X220272410Y-165706396D01*
X220291630Y-165722220D01*
X220313568Y-165733991D01*
X220337381Y-165741256D01*
X220362453Y-165743736D01*
X222423947Y-165742150D01*
X222442581Y-167281969D01*
X220360573Y-167264898D01*
X220335778Y-167267135D01*
X220311895Y-167274167D01*
X220289843Y-167285722D01*
X220270469Y-167301358D01*
X220254517Y-167320473D01*
X220242602Y-167342333D01*
X220235180Y-167366097D01*
X220232532Y-167391692D01*
X220232164Y-167623152D01*
X218691817Y-167641792D01*
X218733624Y-161128948D01*
X220242553Y-161088805D01*
X220235355Y-165616534D01*
G04 #@! TA.AperFunction,Conductor*
D52*
G36*
X220235355Y-165616534D02*
G01*
X220237756Y-165641314D01*
X220244945Y-165665150D01*
X220256646Y-165687125D01*
X220272410Y-165706396D01*
X220291630Y-165722220D01*
X220313568Y-165733991D01*
X220337381Y-165741256D01*
X220362453Y-165743736D01*
X222423947Y-165742150D01*
X222442581Y-167281969D01*
X220360573Y-167264898D01*
X220335778Y-167267135D01*
X220311895Y-167274167D01*
X220289843Y-167285722D01*
X220270469Y-167301358D01*
X220254517Y-167320473D01*
X220242602Y-167342333D01*
X220235180Y-167366097D01*
X220232532Y-167391692D01*
X220232164Y-167623152D01*
X218691817Y-167641792D01*
X218733624Y-161128948D01*
X220242553Y-161088805D01*
X220235355Y-165616534D01*
G37*
G04 #@! TD.AperFunction*
D51*
X216410940Y-154457080D02*
X216410940Y-158805855D01*
X213522729Y-159476632D01*
X213499147Y-159484615D01*
X213477576Y-159497044D01*
X213458843Y-159513443D01*
X213443670Y-159533181D01*
X213432639Y-159555500D01*
X213426174Y-159579543D01*
X213424460Y-159600340D01*
X213424460Y-161048340D01*
X213078460Y-161048340D01*
X213078460Y-159325340D01*
X213076020Y-159300564D01*
X213068793Y-159276739D01*
X213057057Y-159254783D01*
X213047037Y-159241710D01*
X212378460Y-158477622D01*
X212378460Y-154404022D01*
X216410940Y-154457080D01*
G04 #@! TA.AperFunction,Conductor*
D52*
G36*
X216410940Y-154457080D02*
G01*
X216410940Y-158805855D01*
X213522729Y-159476632D01*
X213499147Y-159484615D01*
X213477576Y-159497044D01*
X213458843Y-159513443D01*
X213443670Y-159533181D01*
X213432639Y-159555500D01*
X213426174Y-159579543D01*
X213424460Y-159600340D01*
X213424460Y-161048340D01*
X213078460Y-161048340D01*
X213078460Y-159325340D01*
X213076020Y-159300564D01*
X213068793Y-159276739D01*
X213057057Y-159254783D01*
X213047037Y-159241710D01*
X212378460Y-158477622D01*
X212378460Y-154404022D01*
X216410940Y-154457080D01*
G37*
G04 #@! TD.AperFunction*
D51*
X235941000Y-156451600D02*
X235943440Y-156476376D01*
X235950667Y-156500201D01*
X235962403Y-156522157D01*
X235978197Y-156541403D01*
X235997443Y-156557197D01*
X236019399Y-156568933D01*
X236043224Y-156576160D01*
X236068000Y-156578600D01*
X238315900Y-156578600D01*
X238315900Y-158255000D01*
X236093400Y-158255000D01*
X236068624Y-158257440D01*
X236044799Y-158264667D01*
X236022843Y-158276403D01*
X236003597Y-158292197D01*
X235987803Y-158311443D01*
X235976067Y-158333399D01*
X235968840Y-158357224D01*
X235966400Y-158382000D01*
X235966400Y-160452100D01*
X232029400Y-160452100D01*
X232029400Y-158280400D01*
X232026960Y-158255624D01*
X232019733Y-158231799D01*
X232007997Y-158209843D01*
X231992203Y-158190597D01*
X231972957Y-158174803D01*
X231951001Y-158163067D01*
X231927176Y-158155840D01*
X231901687Y-158153402D01*
X229768440Y-158165387D01*
X229756099Y-153784242D01*
X229753589Y-153759473D01*
X229746295Y-153735669D01*
X229734497Y-153713745D01*
X229718649Y-153694545D01*
X229699360Y-153678805D01*
X229677370Y-153667131D01*
X229653526Y-153659971D01*
X229629100Y-153657600D01*
X227482800Y-153657600D01*
X227482800Y-151981200D01*
X231965900Y-151981200D01*
X231990676Y-151978760D01*
X232014501Y-151971533D01*
X232036457Y-151959797D01*
X232055703Y-151944003D01*
X232071497Y-151924757D01*
X232083233Y-151902801D01*
X232090460Y-151878976D01*
X232092900Y-151854200D01*
X232092900Y-149733300D01*
X235941000Y-149733300D01*
X235941000Y-156451600D01*
G04 #@! TA.AperFunction,Conductor*
D52*
G36*
X235941000Y-156451600D02*
G01*
X235943440Y-156476376D01*
X235950667Y-156500201D01*
X235962403Y-156522157D01*
X235978197Y-156541403D01*
X235997443Y-156557197D01*
X236019399Y-156568933D01*
X236043224Y-156576160D01*
X236068000Y-156578600D01*
X238315900Y-156578600D01*
X238315900Y-158255000D01*
X236093400Y-158255000D01*
X236068624Y-158257440D01*
X236044799Y-158264667D01*
X236022843Y-158276403D01*
X236003597Y-158292197D01*
X235987803Y-158311443D01*
X235976067Y-158333399D01*
X235968840Y-158357224D01*
X235966400Y-158382000D01*
X235966400Y-160452100D01*
X232029400Y-160452100D01*
X232029400Y-158280400D01*
X232026960Y-158255624D01*
X232019733Y-158231799D01*
X232007997Y-158209843D01*
X231992203Y-158190597D01*
X231972957Y-158174803D01*
X231951001Y-158163067D01*
X231927176Y-158155840D01*
X231901687Y-158153402D01*
X229768440Y-158165387D01*
X229756099Y-153784242D01*
X229753589Y-153759473D01*
X229746295Y-153735669D01*
X229734497Y-153713745D01*
X229718649Y-153694545D01*
X229699360Y-153678805D01*
X229677370Y-153667131D01*
X229653526Y-153659971D01*
X229629100Y-153657600D01*
X227482800Y-153657600D01*
X227482800Y-151981200D01*
X231965900Y-151981200D01*
X231990676Y-151978760D01*
X232014501Y-151971533D01*
X232036457Y-151959797D01*
X232055703Y-151944003D01*
X232071497Y-151924757D01*
X232083233Y-151902801D01*
X232090460Y-151878976D01*
X232092900Y-151854200D01*
X232092900Y-149733300D01*
X235941000Y-149733300D01*
X235941000Y-156451600D01*
G37*
G04 #@! TD.AperFunction*
D51*
X236093400Y-139460300D02*
X236095840Y-139485076D01*
X236103067Y-139508901D01*
X236114803Y-139530857D01*
X236130597Y-139550103D01*
X236149843Y-139565897D01*
X236171799Y-139577633D01*
X236195624Y-139584860D01*
X236220400Y-139587300D01*
X238468300Y-139587300D01*
X238468300Y-141263700D01*
X236245800Y-141263700D01*
X236221024Y-141266140D01*
X236197199Y-141273367D01*
X236175243Y-141285103D01*
X236155997Y-141300897D01*
X236140203Y-141320143D01*
X236128467Y-141342099D01*
X236121240Y-141365924D01*
X236118800Y-141390700D01*
X236118800Y-143460800D01*
X232181800Y-143460800D01*
X232181800Y-141289100D01*
X232179360Y-141264324D01*
X232172133Y-141240499D01*
X232160397Y-141218543D01*
X232144603Y-141199297D01*
X232125357Y-141183503D01*
X232103401Y-141171767D01*
X232079576Y-141164540D01*
X232054087Y-141162102D01*
X229920840Y-141174087D01*
X229908499Y-136792942D01*
X229905989Y-136768173D01*
X229898695Y-136744369D01*
X229886897Y-136722445D01*
X229871049Y-136703245D01*
X229851760Y-136687505D01*
X229829770Y-136675831D01*
X229805926Y-136668671D01*
X229781500Y-136666300D01*
X227635200Y-136666300D01*
X227635200Y-134989900D01*
X232118300Y-134989900D01*
X232143076Y-134987460D01*
X232166901Y-134980233D01*
X232188857Y-134968497D01*
X232208103Y-134952703D01*
X232223897Y-134933457D01*
X232235633Y-134911501D01*
X232242860Y-134887676D01*
X232245300Y-134862900D01*
X232245300Y-132742000D01*
X236093400Y-132742000D01*
X236093400Y-139460300D01*
G04 #@! TA.AperFunction,Conductor*
D52*
G36*
X236093400Y-139460300D02*
G01*
X236095840Y-139485076D01*
X236103067Y-139508901D01*
X236114803Y-139530857D01*
X236130597Y-139550103D01*
X236149843Y-139565897D01*
X236171799Y-139577633D01*
X236195624Y-139584860D01*
X236220400Y-139587300D01*
X238468300Y-139587300D01*
X238468300Y-141263700D01*
X236245800Y-141263700D01*
X236221024Y-141266140D01*
X236197199Y-141273367D01*
X236175243Y-141285103D01*
X236155997Y-141300897D01*
X236140203Y-141320143D01*
X236128467Y-141342099D01*
X236121240Y-141365924D01*
X236118800Y-141390700D01*
X236118800Y-143460800D01*
X232181800Y-143460800D01*
X232181800Y-141289100D01*
X232179360Y-141264324D01*
X232172133Y-141240499D01*
X232160397Y-141218543D01*
X232144603Y-141199297D01*
X232125357Y-141183503D01*
X232103401Y-141171767D01*
X232079576Y-141164540D01*
X232054087Y-141162102D01*
X229920840Y-141174087D01*
X229908499Y-136792942D01*
X229905989Y-136768173D01*
X229898695Y-136744369D01*
X229886897Y-136722445D01*
X229871049Y-136703245D01*
X229851760Y-136687505D01*
X229829770Y-136675831D01*
X229805926Y-136668671D01*
X229781500Y-136666300D01*
X227635200Y-136666300D01*
X227635200Y-134989900D01*
X232118300Y-134989900D01*
X232143076Y-134987460D01*
X232166901Y-134980233D01*
X232188857Y-134968497D01*
X232208103Y-134952703D01*
X232223897Y-134933457D01*
X232235633Y-134911501D01*
X232242860Y-134887676D01*
X232245300Y-134862900D01*
X232245300Y-132742000D01*
X236093400Y-132742000D01*
X236093400Y-139460300D01*
G37*
G04 #@! TD.AperFunction*
D51*
X231038800Y-150952500D02*
X226746200Y-150952500D01*
X226746200Y-148996700D01*
X231038800Y-148996700D01*
X231038800Y-150952500D01*
G04 #@! TA.AperFunction,Conductor*
D52*
G36*
X231038800Y-150952500D02*
G01*
X226746200Y-150952500D01*
X226746200Y-148996700D01*
X231038800Y-148996700D01*
X231038800Y-150952500D01*
G37*
G04 #@! TD.AperFunction*
D51*
X231165800Y-133885000D02*
X226873200Y-133885000D01*
X226873200Y-131929200D01*
X231165800Y-131929200D01*
X231165800Y-133885000D01*
G04 #@! TA.AperFunction,Conductor*
D52*
G36*
X231165800Y-133885000D02*
G01*
X226873200Y-133885000D01*
X226873200Y-131929200D01*
X231165800Y-131929200D01*
X231165800Y-133885000D01*
G37*
G04 #@! TD.AperFunction*
D51*
X238951637Y-148995719D02*
X238990997Y-155704610D01*
X236841946Y-155688024D01*
X236827060Y-148979147D01*
X238951637Y-148995719D01*
G04 #@! TA.AperFunction,Conductor*
D52*
G36*
X238951637Y-148995719D02*
G01*
X238990997Y-155704610D01*
X236841946Y-155688024D01*
X236827060Y-148979147D01*
X238951637Y-148995719D01*
G37*
G04 #@! TD.AperFunction*
D51*
X217904036Y-165236455D02*
X215576481Y-165247732D01*
X215528444Y-162173356D01*
X215525617Y-162148621D01*
X215518019Y-162124912D01*
X215505941Y-162103141D01*
X215489849Y-162084145D01*
X215470359Y-162068654D01*
X215448222Y-162057262D01*
X215424287Y-162050408D01*
X215400678Y-162048342D01*
X211147778Y-162074542D01*
X211123017Y-162077135D01*
X211099237Y-162084509D01*
X211077353Y-162096380D01*
X211058206Y-162112292D01*
X211042531Y-162131634D01*
X211030930Y-162153663D01*
X211023850Y-162177531D01*
X211021560Y-162201509D01*
X211020592Y-166123637D01*
X207578460Y-166099237D01*
X207578460Y-161876352D01*
X213852452Y-161827336D01*
X213877209Y-161824702D01*
X213900976Y-161817289D01*
X213922840Y-161805382D01*
X213941961Y-161789438D01*
X213957605Y-161770070D01*
X213969169Y-161748023D01*
X213976209Y-161724143D01*
X213978453Y-161699027D01*
X213961576Y-160066806D01*
X217886686Y-160055069D01*
X217904036Y-165236455D01*
G04 #@! TA.AperFunction,Conductor*
D52*
G36*
X217904036Y-165236455D02*
G01*
X215576481Y-165247732D01*
X215528444Y-162173356D01*
X215525617Y-162148621D01*
X215518019Y-162124912D01*
X215505941Y-162103141D01*
X215489849Y-162084145D01*
X215470359Y-162068654D01*
X215448222Y-162057262D01*
X215424287Y-162050408D01*
X215400678Y-162048342D01*
X211147778Y-162074542D01*
X211123017Y-162077135D01*
X211099237Y-162084509D01*
X211077353Y-162096380D01*
X211058206Y-162112292D01*
X211042531Y-162131634D01*
X211030930Y-162153663D01*
X211023850Y-162177531D01*
X211021560Y-162201509D01*
X211020592Y-166123637D01*
X207578460Y-166099237D01*
X207578460Y-161876352D01*
X213852452Y-161827336D01*
X213877209Y-161824702D01*
X213900976Y-161817289D01*
X213922840Y-161805382D01*
X213941961Y-161789438D01*
X213957605Y-161770070D01*
X213969169Y-161748023D01*
X213976209Y-161724143D01*
X213978453Y-161699027D01*
X213961576Y-160066806D01*
X217886686Y-160055069D01*
X217904036Y-165236455D01*
G37*
G04 #@! TD.AperFunction*
D51*
X211324460Y-158775340D02*
X211326900Y-158800116D01*
X211334127Y-158823941D01*
X211345863Y-158845897D01*
X211361657Y-158865143D01*
X212324460Y-159827946D01*
X212324460Y-161147050D01*
X207628460Y-161099616D01*
X207628460Y-154450743D01*
X211324460Y-154403958D01*
X211324460Y-158775340D01*
G04 #@! TA.AperFunction,Conductor*
D52*
G36*
X211324460Y-158775340D02*
G01*
X211326900Y-158800116D01*
X211334127Y-158823941D01*
X211345863Y-158845897D01*
X211361657Y-158865143D01*
X212324460Y-159827946D01*
X212324460Y-161147050D01*
X207628460Y-161099616D01*
X207628460Y-154450743D01*
X211324460Y-154403958D01*
X211324460Y-158775340D01*
G37*
G04 #@! TD.AperFunction*
D51*
X239142124Y-138689526D02*
X236995517Y-138700053D01*
X236975880Y-131930496D01*
X239098005Y-131919977D01*
X239142124Y-138689526D01*
G04 #@! TA.AperFunction,Conductor*
D52*
G36*
X239142124Y-138689526D02*
G01*
X236995517Y-138700053D01*
X236975880Y-131930496D01*
X239098005Y-131919977D01*
X239142124Y-138689526D01*
G37*
G04 #@! TD.AperFunction*
M02*
