G04 #@! TF.GenerationSoftware,KiCad,Pcbnew,(5.1.10-1-10_14)*
G04 #@! TF.CreationDate,2022-08-11T15:54:35-07:00*
G04 #@! TF.ProjectId,ulc-mm,756c632d-6d6d-42e6-9b69-6361645f7063,rev?*
G04 #@! TF.SameCoordinates,Original*
G04 #@! TF.FileFunction,Paste,Top*
G04 #@! TF.FilePolarity,Positive*
%FSLAX46Y46*%
G04 Gerber Fmt 4.6, Leading zero omitted, Abs format (unit mm)*
G04 Created by KiCad (PCBNEW (5.1.10-1-10_14)) date 2022-08-11 15:54:35*
%MOMM*%
%LPD*%
G01*
G04 APERTURE LIST*
%ADD10R,3.960000X3.960000*%
%ADD11R,1.675000X3.400000*%
%ADD12R,6.170000X2.400000*%
%ADD13R,0.300000X1.600000*%
%ADD14R,6.170000X0.500000*%
%ADD15R,0.300000X1.000000*%
%ADD16R,0.650000X0.850000*%
%ADD17R,1.060000X1.060000*%
%ADD18R,0.650000X1.060000*%
%ADD19R,0.450000X0.700000*%
%ADD20R,2.400000X0.740000*%
%ADD21R,1.120000X2.440000*%
%ADD22R,0.700000X0.450000*%
%ADD23R,0.740000X2.400000*%
%ADD24R,2.500000X2.300000*%
%ADD25R,15.000000X15.000000*%
%ADD26R,0.650000X0.700000*%
%ADD27R,0.700000X0.650000*%
G04 APERTURE END LIST*
D10*
X253047900Y-160985500D03*
D11*
X254488400Y-110804100D03*
D12*
X250565900Y-110804100D03*
D13*
X246340900Y-108004100D03*
X246990900Y-108004100D03*
X247640900Y-108004100D03*
X248290900Y-108004100D03*
X248940900Y-108004100D03*
X249590900Y-108004100D03*
X250240900Y-108004100D03*
X250890900Y-108004100D03*
X251540900Y-108004100D03*
X252190900Y-108004100D03*
X252840900Y-108004100D03*
X253490900Y-108004100D03*
X254140900Y-108004100D03*
X254790900Y-108004100D03*
X254790900Y-113604100D03*
X254140900Y-113604100D03*
X253490900Y-113604100D03*
X252840900Y-113604100D03*
X252190900Y-113604100D03*
X251540900Y-113604100D03*
X250890900Y-113604100D03*
X250240900Y-113604100D03*
X249590900Y-113604100D03*
X248940900Y-113604100D03*
X248290900Y-113604100D03*
X247640900Y-113604100D03*
X246990900Y-113604100D03*
X246340900Y-113604100D03*
D11*
X246643400Y-110804100D03*
D14*
X250565900Y-112254100D03*
X250565900Y-109354100D03*
G36*
G01*
X215650960Y-167962590D02*
X215650960Y-167450090D01*
G75*
G02*
X215869710Y-167231340I218750J0D01*
G01*
X216307210Y-167231340D01*
G75*
G02*
X216525960Y-167450090I0J-218750D01*
G01*
X216525960Y-167962590D01*
G75*
G02*
X216307210Y-168181340I-218750J0D01*
G01*
X215869710Y-168181340D01*
G75*
G02*
X215650960Y-167962590I0J218750D01*
G01*
G37*
G36*
G01*
X214075960Y-167962590D02*
X214075960Y-167450090D01*
G75*
G02*
X214294710Y-167231340I218750J0D01*
G01*
X214732210Y-167231340D01*
G75*
G02*
X214950960Y-167450090I0J-218750D01*
G01*
X214950960Y-167962590D01*
G75*
G02*
X214732210Y-168181340I-218750J0D01*
G01*
X214294710Y-168181340D01*
G75*
G02*
X214075960Y-167962590I0J218750D01*
G01*
G37*
G36*
G01*
X250116450Y-106140000D02*
X249603950Y-106140000D01*
G75*
G02*
X249385200Y-105921250I0J218750D01*
G01*
X249385200Y-105483750D01*
G75*
G02*
X249603950Y-105265000I218750J0D01*
G01*
X250116450Y-105265000D01*
G75*
G02*
X250335200Y-105483750I0J-218750D01*
G01*
X250335200Y-105921250D01*
G75*
G02*
X250116450Y-106140000I-218750J0D01*
G01*
G37*
G36*
G01*
X250116450Y-104565000D02*
X249603950Y-104565000D01*
G75*
G02*
X249385200Y-104346250I0J218750D01*
G01*
X249385200Y-103908750D01*
G75*
G02*
X249603950Y-103690000I218750J0D01*
G01*
X250116450Y-103690000D01*
G75*
G02*
X250335200Y-103908750I0J-218750D01*
G01*
X250335200Y-104346250D01*
G75*
G02*
X250116450Y-104565000I-218750J0D01*
G01*
G37*
D15*
X215950000Y-108950000D03*
X216450000Y-108950000D03*
X216950000Y-108950000D03*
X217450000Y-108950000D03*
X217450000Y-106650000D03*
X216950000Y-106650000D03*
X216450000Y-106650000D03*
X215950000Y-106650000D03*
D16*
X217137500Y-107800000D03*
X216262500Y-107800000D03*
D17*
X228401900Y-133457900D03*
X228401900Y-135747900D03*
X228401900Y-138037900D03*
X228401900Y-140327900D03*
X228401900Y-142617900D03*
X230691900Y-133457900D03*
X230691900Y-135747900D03*
X230691900Y-138037900D03*
X230691900Y-140327900D03*
X230691900Y-142617900D03*
X232981900Y-133457900D03*
X232981900Y-135747900D03*
X232981900Y-138037900D03*
X232981900Y-140327900D03*
X232981900Y-142617900D03*
X235271900Y-133457900D03*
X235271900Y-135747900D03*
X235271900Y-138037900D03*
X235271900Y-140327900D03*
X235271900Y-142617900D03*
X237561900Y-133457900D03*
X237561900Y-135747900D03*
X237561900Y-138037900D03*
X237561900Y-140327900D03*
X237561900Y-142617900D03*
X237434900Y-159685400D03*
X237434900Y-157395400D03*
X237434900Y-155105400D03*
X237434900Y-152815400D03*
X237434900Y-150525400D03*
X235144900Y-159685400D03*
X235144900Y-157395400D03*
X235144900Y-155105400D03*
X235144900Y-152815400D03*
X235144900Y-150525400D03*
X232854900Y-159685400D03*
X232854900Y-157395400D03*
X232854900Y-155105400D03*
X232854900Y-152815400D03*
X232854900Y-150525400D03*
X230564900Y-159685400D03*
X230564900Y-157395400D03*
X230564900Y-155105400D03*
X230564900Y-152815400D03*
X230564900Y-150525400D03*
X228274900Y-159685400D03*
X228274900Y-157395400D03*
X228274900Y-155105400D03*
X228274900Y-152815400D03*
X228274900Y-150525400D03*
D18*
X214201460Y-160775340D03*
X213251460Y-160775340D03*
X212301460Y-160775340D03*
X212301460Y-162975340D03*
X214201460Y-162975340D03*
X213251460Y-162975340D03*
D19*
X232844500Y-125873300D03*
X231544500Y-125873300D03*
X232194500Y-127873300D03*
D20*
X212020000Y-123885000D03*
X215920000Y-123885000D03*
X212020000Y-125155000D03*
X215920000Y-125155000D03*
X212020000Y-126425000D03*
X215920000Y-126425000D03*
X212020000Y-127695000D03*
X215920000Y-127695000D03*
X212020000Y-128965000D03*
X215920000Y-128965000D03*
X212020000Y-130235000D03*
X215920000Y-130235000D03*
X212020000Y-131505000D03*
X215920000Y-131505000D03*
X212020000Y-132775000D03*
X215920000Y-132775000D03*
G36*
G01*
X246631900Y-118557850D02*
X246631900Y-119070350D01*
G75*
G02*
X246413150Y-119289100I-218750J0D01*
G01*
X245975650Y-119289100D01*
G75*
G02*
X245756900Y-119070350I0J218750D01*
G01*
X245756900Y-118557850D01*
G75*
G02*
X245975650Y-118339100I218750J0D01*
G01*
X246413150Y-118339100D01*
G75*
G02*
X246631900Y-118557850I0J-218750D01*
G01*
G37*
G36*
G01*
X248206900Y-118557850D02*
X248206900Y-119070350D01*
G75*
G02*
X247988150Y-119289100I-218750J0D01*
G01*
X247550650Y-119289100D01*
G75*
G02*
X247331900Y-119070350I0J218750D01*
G01*
X247331900Y-118557850D01*
G75*
G02*
X247550650Y-118339100I218750J0D01*
G01*
X247988150Y-118339100D01*
G75*
G02*
X248206900Y-118557850I0J-218750D01*
G01*
G37*
G36*
G01*
X244155650Y-111962780D02*
X244668150Y-111962780D01*
G75*
G02*
X244886900Y-112181530I0J-218750D01*
G01*
X244886900Y-112619030D01*
G75*
G02*
X244668150Y-112837780I-218750J0D01*
G01*
X244155650Y-112837780D01*
G75*
G02*
X243936900Y-112619030I0J218750D01*
G01*
X243936900Y-112181530D01*
G75*
G02*
X244155650Y-111962780I218750J0D01*
G01*
G37*
G36*
G01*
X244155650Y-113537780D02*
X244668150Y-113537780D01*
G75*
G02*
X244886900Y-113756530I0J-218750D01*
G01*
X244886900Y-114194030D01*
G75*
G02*
X244668150Y-114412780I-218750J0D01*
G01*
X244155650Y-114412780D01*
G75*
G02*
X243936900Y-114194030I0J218750D01*
G01*
X243936900Y-113756530D01*
G75*
G02*
X244155650Y-113537780I218750J0D01*
G01*
G37*
G36*
G01*
X216118550Y-145370300D02*
X215606050Y-145370300D01*
G75*
G02*
X215387300Y-145151550I0J218750D01*
G01*
X215387300Y-144714050D01*
G75*
G02*
X215606050Y-144495300I218750J0D01*
G01*
X216118550Y-144495300D01*
G75*
G02*
X216337300Y-144714050I0J-218750D01*
G01*
X216337300Y-145151550D01*
G75*
G02*
X216118550Y-145370300I-218750J0D01*
G01*
G37*
G36*
G01*
X216118550Y-143795300D02*
X215606050Y-143795300D01*
G75*
G02*
X215387300Y-143576550I0J218750D01*
G01*
X215387300Y-143139050D01*
G75*
G02*
X215606050Y-142920300I218750J0D01*
G01*
X216118550Y-142920300D01*
G75*
G02*
X216337300Y-143139050I0J-218750D01*
G01*
X216337300Y-143576550D01*
G75*
G02*
X216118550Y-143795300I-218750J0D01*
G01*
G37*
G36*
G01*
X224117600Y-138521900D02*
X224117600Y-137271900D01*
G75*
G02*
X224367600Y-137021900I250000J0D01*
G01*
X225117600Y-137021900D01*
G75*
G02*
X225367600Y-137271900I0J-250000D01*
G01*
X225367600Y-138521900D01*
G75*
G02*
X225117600Y-138771900I-250000J0D01*
G01*
X224367600Y-138771900D01*
G75*
G02*
X224117600Y-138521900I0J250000D01*
G01*
G37*
G36*
G01*
X221317600Y-138521900D02*
X221317600Y-137271900D01*
G75*
G02*
X221567600Y-137021900I250000J0D01*
G01*
X222317600Y-137021900D01*
G75*
G02*
X222567600Y-137271900I0J-250000D01*
G01*
X222567600Y-138521900D01*
G75*
G02*
X222317600Y-138771900I-250000J0D01*
G01*
X221567600Y-138771900D01*
G75*
G02*
X221317600Y-138521900I0J250000D01*
G01*
G37*
G36*
G01*
X245777700Y-117502950D02*
X245777700Y-116990450D01*
G75*
G02*
X245996450Y-116771700I218750J0D01*
G01*
X246433950Y-116771700D01*
G75*
G02*
X246652700Y-116990450I0J-218750D01*
G01*
X246652700Y-117502950D01*
G75*
G02*
X246433950Y-117721700I-218750J0D01*
G01*
X245996450Y-117721700D01*
G75*
G02*
X245777700Y-117502950I0J218750D01*
G01*
G37*
G36*
G01*
X247352700Y-117502950D02*
X247352700Y-116990450D01*
G75*
G02*
X247571450Y-116771700I218750J0D01*
G01*
X248008950Y-116771700D01*
G75*
G02*
X248227700Y-116990450I0J-218750D01*
G01*
X248227700Y-117502950D01*
G75*
G02*
X248008950Y-117721700I-218750J0D01*
G01*
X247571450Y-117721700D01*
G75*
G02*
X247352700Y-117502950I0J218750D01*
G01*
G37*
G36*
G01*
X256855650Y-107563500D02*
X257368150Y-107563500D01*
G75*
G02*
X257586900Y-107782250I0J-218750D01*
G01*
X257586900Y-108219750D01*
G75*
G02*
X257368150Y-108438500I-218750J0D01*
G01*
X256855650Y-108438500D01*
G75*
G02*
X256636900Y-108219750I0J218750D01*
G01*
X256636900Y-107782250D01*
G75*
G02*
X256855650Y-107563500I218750J0D01*
G01*
G37*
G36*
G01*
X256855650Y-109138500D02*
X257368150Y-109138500D01*
G75*
G02*
X257586900Y-109357250I0J-218750D01*
G01*
X257586900Y-109794750D01*
G75*
G02*
X257368150Y-110013500I-218750J0D01*
G01*
X256855650Y-110013500D01*
G75*
G02*
X256636900Y-109794750I0J218750D01*
G01*
X256636900Y-109357250D01*
G75*
G02*
X256855650Y-109138500I218750J0D01*
G01*
G37*
G36*
G01*
X255496900Y-117307850D02*
X255496900Y-117820350D01*
G75*
G02*
X255278150Y-118039100I-218750J0D01*
G01*
X254840650Y-118039100D01*
G75*
G02*
X254621900Y-117820350I0J218750D01*
G01*
X254621900Y-117307850D01*
G75*
G02*
X254840650Y-117089100I218750J0D01*
G01*
X255278150Y-117089100D01*
G75*
G02*
X255496900Y-117307850I0J-218750D01*
G01*
G37*
G36*
G01*
X253921900Y-117307850D02*
X253921900Y-117820350D01*
G75*
G02*
X253703150Y-118039100I-218750J0D01*
G01*
X253265650Y-118039100D01*
G75*
G02*
X253046900Y-117820350I0J218750D01*
G01*
X253046900Y-117307850D01*
G75*
G02*
X253265650Y-117089100I218750J0D01*
G01*
X253703150Y-117089100D01*
G75*
G02*
X253921900Y-117307850I0J-218750D01*
G01*
G37*
G36*
G01*
X209840250Y-142996500D02*
X210352750Y-142996500D01*
G75*
G02*
X210571500Y-143215250I0J-218750D01*
G01*
X210571500Y-143652750D01*
G75*
G02*
X210352750Y-143871500I-218750J0D01*
G01*
X209840250Y-143871500D01*
G75*
G02*
X209621500Y-143652750I0J218750D01*
G01*
X209621500Y-143215250D01*
G75*
G02*
X209840250Y-142996500I218750J0D01*
G01*
G37*
G36*
G01*
X209840250Y-144571500D02*
X210352750Y-144571500D01*
G75*
G02*
X210571500Y-144790250I0J-218750D01*
G01*
X210571500Y-145227750D01*
G75*
G02*
X210352750Y-145446500I-218750J0D01*
G01*
X209840250Y-145446500D01*
G75*
G02*
X209621500Y-145227750I0J218750D01*
G01*
X209621500Y-144790250D01*
G75*
G02*
X209840250Y-144571500I218750J0D01*
G01*
G37*
G36*
G01*
X212710450Y-144596900D02*
X213222950Y-144596900D01*
G75*
G02*
X213441700Y-144815650I0J-218750D01*
G01*
X213441700Y-145253150D01*
G75*
G02*
X213222950Y-145471900I-218750J0D01*
G01*
X212710450Y-145471900D01*
G75*
G02*
X212491700Y-145253150I0J218750D01*
G01*
X212491700Y-144815650D01*
G75*
G02*
X212710450Y-144596900I218750J0D01*
G01*
G37*
G36*
G01*
X212710450Y-143021900D02*
X213222950Y-143021900D01*
G75*
G02*
X213441700Y-143240650I0J-218750D01*
G01*
X213441700Y-143678150D01*
G75*
G02*
X213222950Y-143896900I-218750J0D01*
G01*
X212710450Y-143896900D01*
G75*
G02*
X212491700Y-143678150I0J218750D01*
G01*
X212491700Y-143240650D01*
G75*
G02*
X212710450Y-143021900I218750J0D01*
G01*
G37*
G36*
G01*
X217114000Y-103698050D02*
X217114000Y-103185550D01*
G75*
G02*
X217332750Y-102966800I218750J0D01*
G01*
X217770250Y-102966800D01*
G75*
G02*
X217989000Y-103185550I0J-218750D01*
G01*
X217989000Y-103698050D01*
G75*
G02*
X217770250Y-103916800I-218750J0D01*
G01*
X217332750Y-103916800D01*
G75*
G02*
X217114000Y-103698050I0J218750D01*
G01*
G37*
G36*
G01*
X215539000Y-103698050D02*
X215539000Y-103185550D01*
G75*
G02*
X215757750Y-102966800I218750J0D01*
G01*
X216195250Y-102966800D01*
G75*
G02*
X216414000Y-103185550I0J-218750D01*
G01*
X216414000Y-103698050D01*
G75*
G02*
X216195250Y-103916800I-218750J0D01*
G01*
X215757750Y-103916800D01*
G75*
G02*
X215539000Y-103698050I0J218750D01*
G01*
G37*
G36*
G01*
X207976460Y-159600340D02*
X209226460Y-159600340D01*
G75*
G02*
X209476460Y-159850340I0J-250000D01*
G01*
X209476460Y-160600340D01*
G75*
G02*
X209226460Y-160850340I-250000J0D01*
G01*
X207976460Y-160850340D01*
G75*
G02*
X207726460Y-160600340I0J250000D01*
G01*
X207726460Y-159850340D01*
G75*
G02*
X207976460Y-159600340I250000J0D01*
G01*
G37*
G36*
G01*
X207976460Y-162400340D02*
X209226460Y-162400340D01*
G75*
G02*
X209476460Y-162650340I0J-250000D01*
G01*
X209476460Y-163400340D01*
G75*
G02*
X209226460Y-163650340I-250000J0D01*
G01*
X207976460Y-163650340D01*
G75*
G02*
X207726460Y-163400340I0J250000D01*
G01*
X207726460Y-162650340D01*
G75*
G02*
X207976460Y-162400340I250000J0D01*
G01*
G37*
G36*
G01*
X210295210Y-161825340D02*
X210807710Y-161825340D01*
G75*
G02*
X211026460Y-162044090I0J-218750D01*
G01*
X211026460Y-162481590D01*
G75*
G02*
X210807710Y-162700340I-218750J0D01*
G01*
X210295210Y-162700340D01*
G75*
G02*
X210076460Y-162481590I0J218750D01*
G01*
X210076460Y-162044090D01*
G75*
G02*
X210295210Y-161825340I218750J0D01*
G01*
G37*
G36*
G01*
X210295210Y-160250340D02*
X210807710Y-160250340D01*
G75*
G02*
X211026460Y-160469090I0J-218750D01*
G01*
X211026460Y-160906590D01*
G75*
G02*
X210807710Y-161125340I-218750J0D01*
G01*
X210295210Y-161125340D01*
G75*
G02*
X210076460Y-160906590I0J218750D01*
G01*
X210076460Y-160469090D01*
G75*
G02*
X210295210Y-160250340I218750J0D01*
G01*
G37*
G36*
G01*
X214320810Y-165770340D02*
X214833310Y-165770340D01*
G75*
G02*
X215052060Y-165989090I0J-218750D01*
G01*
X215052060Y-166426590D01*
G75*
G02*
X214833310Y-166645340I-218750J0D01*
G01*
X214320810Y-166645340D01*
G75*
G02*
X214102060Y-166426590I0J218750D01*
G01*
X214102060Y-165989090D01*
G75*
G02*
X214320810Y-165770340I218750J0D01*
G01*
G37*
G36*
G01*
X214320810Y-164195340D02*
X214833310Y-164195340D01*
G75*
G02*
X215052060Y-164414090I0J-218750D01*
G01*
X215052060Y-164851590D01*
G75*
G02*
X214833310Y-165070340I-218750J0D01*
G01*
X214320810Y-165070340D01*
G75*
G02*
X214102060Y-164851590I0J218750D01*
G01*
X214102060Y-164414090D01*
G75*
G02*
X214320810Y-164195340I218750J0D01*
G01*
G37*
G36*
G01*
X211001260Y-164369090D02*
X211001260Y-164881590D01*
G75*
G02*
X210782510Y-165100340I-218750J0D01*
G01*
X210345010Y-165100340D01*
G75*
G02*
X210126260Y-164881590I0J218750D01*
G01*
X210126260Y-164369090D01*
G75*
G02*
X210345010Y-164150340I218750J0D01*
G01*
X210782510Y-164150340D01*
G75*
G02*
X211001260Y-164369090I0J-218750D01*
G01*
G37*
G36*
G01*
X212576260Y-164369090D02*
X212576260Y-164881590D01*
G75*
G02*
X212357510Y-165100340I-218750J0D01*
G01*
X211920010Y-165100340D01*
G75*
G02*
X211701260Y-164881590I0J218750D01*
G01*
X211701260Y-164369090D01*
G75*
G02*
X211920010Y-164150340I218750J0D01*
G01*
X212357510Y-164150340D01*
G75*
G02*
X212576260Y-164369090I0J-218750D01*
G01*
G37*
G36*
G01*
X220086020Y-161437460D02*
X220086020Y-162687460D01*
G75*
G02*
X219836020Y-162937460I-250000J0D01*
G01*
X219086020Y-162937460D01*
G75*
G02*
X218836020Y-162687460I0J250000D01*
G01*
X218836020Y-161437460D01*
G75*
G02*
X219086020Y-161187460I250000J0D01*
G01*
X219836020Y-161187460D01*
G75*
G02*
X220086020Y-161437460I0J-250000D01*
G01*
G37*
G36*
G01*
X222886020Y-161437460D02*
X222886020Y-162687460D01*
G75*
G02*
X222636020Y-162937460I-250000J0D01*
G01*
X221886020Y-162937460D01*
G75*
G02*
X221636020Y-162687460I0J250000D01*
G01*
X221636020Y-161437460D01*
G75*
G02*
X221886020Y-161187460I250000J0D01*
G01*
X222636020Y-161187460D01*
G75*
G02*
X222886020Y-161437460I0J-250000D01*
G01*
G37*
G36*
G01*
X210569100Y-147840700D02*
X209319100Y-147840700D01*
G75*
G02*
X209069100Y-147590700I0J250000D01*
G01*
X209069100Y-146840700D01*
G75*
G02*
X209319100Y-146590700I250000J0D01*
G01*
X210569100Y-146590700D01*
G75*
G02*
X210819100Y-146840700I0J-250000D01*
G01*
X210819100Y-147590700D01*
G75*
G02*
X210569100Y-147840700I-250000J0D01*
G01*
G37*
G36*
G01*
X210569100Y-150640700D02*
X209319100Y-150640700D01*
G75*
G02*
X209069100Y-150390700I0J250000D01*
G01*
X209069100Y-149640700D01*
G75*
G02*
X209319100Y-149390700I250000J0D01*
G01*
X210569100Y-149390700D01*
G75*
G02*
X210819100Y-149640700I0J-250000D01*
G01*
X210819100Y-150390700D01*
G75*
G02*
X210569100Y-150640700I-250000J0D01*
G01*
G37*
G36*
G01*
X217884300Y-150716900D02*
X216634300Y-150716900D01*
G75*
G02*
X216384300Y-150466900I0J250000D01*
G01*
X216384300Y-149716900D01*
G75*
G02*
X216634300Y-149466900I250000J0D01*
G01*
X217884300Y-149466900D01*
G75*
G02*
X218134300Y-149716900I0J-250000D01*
G01*
X218134300Y-150466900D01*
G75*
G02*
X217884300Y-150716900I-250000J0D01*
G01*
G37*
G36*
G01*
X217884300Y-147916900D02*
X216634300Y-147916900D01*
G75*
G02*
X216384300Y-147666900I0J250000D01*
G01*
X216384300Y-146916900D01*
G75*
G02*
X216634300Y-146666900I250000J0D01*
G01*
X217884300Y-146666900D01*
G75*
G02*
X218134300Y-146916900I0J-250000D01*
G01*
X218134300Y-147666900D01*
G75*
G02*
X217884300Y-147916900I-250000J0D01*
G01*
G37*
G36*
G01*
X214201300Y-150640700D02*
X212951300Y-150640700D01*
G75*
G02*
X212701300Y-150390700I0J250000D01*
G01*
X212701300Y-149640700D01*
G75*
G02*
X212951300Y-149390700I250000J0D01*
G01*
X214201300Y-149390700D01*
G75*
G02*
X214451300Y-149640700I0J-250000D01*
G01*
X214451300Y-150390700D01*
G75*
G02*
X214201300Y-150640700I-250000J0D01*
G01*
G37*
G36*
G01*
X214201300Y-147840700D02*
X212951300Y-147840700D01*
G75*
G02*
X212701300Y-147590700I0J250000D01*
G01*
X212701300Y-146840700D01*
G75*
G02*
X212951300Y-146590700I250000J0D01*
G01*
X214201300Y-146590700D01*
G75*
G02*
X214451300Y-146840700I0J-250000D01*
G01*
X214451300Y-147590700D01*
G75*
G02*
X214201300Y-147840700I-250000J0D01*
G01*
G37*
G36*
G01*
X221094500Y-133233797D02*
X221094500Y-136133803D01*
G75*
G02*
X220844503Y-136383800I-249997J0D01*
G01*
X220219497Y-136383800D01*
G75*
G02*
X219969500Y-136133803I0J249997D01*
G01*
X219969500Y-133233797D01*
G75*
G02*
X220219497Y-132983800I249997J0D01*
G01*
X220844503Y-132983800D01*
G75*
G02*
X221094500Y-133233797I0J-249997D01*
G01*
G37*
G36*
G01*
X225369500Y-133233797D02*
X225369500Y-136133803D01*
G75*
G02*
X225119503Y-136383800I-249997J0D01*
G01*
X224494497Y-136383800D01*
G75*
G02*
X224244500Y-136133803I0J249997D01*
G01*
X224244500Y-133233797D01*
G75*
G02*
X224494497Y-132983800I249997J0D01*
G01*
X225119503Y-132983800D01*
G75*
G02*
X225369500Y-133233797I0J-249997D01*
G01*
G37*
G36*
G01*
X205987200Y-137395570D02*
X205987200Y-136483070D01*
G75*
G02*
X206230950Y-136239320I243750J0D01*
G01*
X206718450Y-136239320D01*
G75*
G02*
X206962200Y-136483070I0J-243750D01*
G01*
X206962200Y-137395570D01*
G75*
G02*
X206718450Y-137639320I-243750J0D01*
G01*
X206230950Y-137639320D01*
G75*
G02*
X205987200Y-137395570I0J243750D01*
G01*
G37*
G36*
G01*
X204112200Y-137395570D02*
X204112200Y-136483070D01*
G75*
G02*
X204355950Y-136239320I243750J0D01*
G01*
X204843450Y-136239320D01*
G75*
G02*
X205087200Y-136483070I0J-243750D01*
G01*
X205087200Y-137395570D01*
G75*
G02*
X204843450Y-137639320I-243750J0D01*
G01*
X204355950Y-137639320D01*
G75*
G02*
X204112200Y-137395570I0J243750D01*
G01*
G37*
G36*
G01*
X206635200Y-138461070D02*
X206635200Y-138973570D01*
G75*
G02*
X206416450Y-139192320I-218750J0D01*
G01*
X205978950Y-139192320D01*
G75*
G02*
X205760200Y-138973570I0J218750D01*
G01*
X205760200Y-138461070D01*
G75*
G02*
X205978950Y-138242320I218750J0D01*
G01*
X206416450Y-138242320D01*
G75*
G02*
X206635200Y-138461070I0J-218750D01*
G01*
G37*
G36*
G01*
X205060200Y-138461070D02*
X205060200Y-138973570D01*
G75*
G02*
X204841450Y-139192320I-218750J0D01*
G01*
X204403950Y-139192320D01*
G75*
G02*
X204185200Y-138973570I0J218750D01*
G01*
X204185200Y-138461070D01*
G75*
G02*
X204403950Y-138242320I218750J0D01*
G01*
X204841450Y-138242320D01*
G75*
G02*
X205060200Y-138461070I0J-218750D01*
G01*
G37*
G36*
G01*
X254650900Y-115790350D02*
X254650900Y-115277850D01*
G75*
G02*
X254869650Y-115059100I218750J0D01*
G01*
X255307150Y-115059100D01*
G75*
G02*
X255525900Y-115277850I0J-218750D01*
G01*
X255525900Y-115790350D01*
G75*
G02*
X255307150Y-116009100I-218750J0D01*
G01*
X254869650Y-116009100D01*
G75*
G02*
X254650900Y-115790350I0J218750D01*
G01*
G37*
G36*
G01*
X256225900Y-115790350D02*
X256225900Y-115277850D01*
G75*
G02*
X256444650Y-115059100I218750J0D01*
G01*
X256882150Y-115059100D01*
G75*
G02*
X257100900Y-115277850I0J-218750D01*
G01*
X257100900Y-115790350D01*
G75*
G02*
X256882150Y-116009100I-218750J0D01*
G01*
X256444650Y-116009100D01*
G75*
G02*
X256225900Y-115790350I0J218750D01*
G01*
G37*
G36*
G01*
X235012950Y-126372500D02*
X234100450Y-126372500D01*
G75*
G02*
X233856700Y-126128750I0J243750D01*
G01*
X233856700Y-125641250D01*
G75*
G02*
X234100450Y-125397500I243750J0D01*
G01*
X235012950Y-125397500D01*
G75*
G02*
X235256700Y-125641250I0J-243750D01*
G01*
X235256700Y-126128750D01*
G75*
G02*
X235012950Y-126372500I-243750J0D01*
G01*
G37*
G36*
G01*
X235012950Y-128247500D02*
X234100450Y-128247500D01*
G75*
G02*
X233856700Y-128003750I0J243750D01*
G01*
X233856700Y-127516250D01*
G75*
G02*
X234100450Y-127272500I243750J0D01*
G01*
X235012950Y-127272500D01*
G75*
G02*
X235256700Y-127516250I0J-243750D01*
G01*
X235256700Y-128003750D01*
G75*
G02*
X235012950Y-128247500I-243750J0D01*
G01*
G37*
G36*
G01*
X236167350Y-125559400D02*
X236679850Y-125559400D01*
G75*
G02*
X236898600Y-125778150I0J-218750D01*
G01*
X236898600Y-126215650D01*
G75*
G02*
X236679850Y-126434400I-218750J0D01*
G01*
X236167350Y-126434400D01*
G75*
G02*
X235948600Y-126215650I0J218750D01*
G01*
X235948600Y-125778150D01*
G75*
G02*
X236167350Y-125559400I218750J0D01*
G01*
G37*
G36*
G01*
X236167350Y-127134400D02*
X236679850Y-127134400D01*
G75*
G02*
X236898600Y-127353150I0J-218750D01*
G01*
X236898600Y-127790650D01*
G75*
G02*
X236679850Y-128009400I-218750J0D01*
G01*
X236167350Y-128009400D01*
G75*
G02*
X235948600Y-127790650I0J218750D01*
G01*
X235948600Y-127353150D01*
G75*
G02*
X236167350Y-127134400I218750J0D01*
G01*
G37*
G36*
G01*
X212633010Y-166710240D02*
X211720510Y-166710240D01*
G75*
G02*
X211476760Y-166466490I0J243750D01*
G01*
X211476760Y-165978990D01*
G75*
G02*
X211720510Y-165735240I243750J0D01*
G01*
X212633010Y-165735240D01*
G75*
G02*
X212876760Y-165978990I0J-243750D01*
G01*
X212876760Y-166466490D01*
G75*
G02*
X212633010Y-166710240I-243750J0D01*
G01*
G37*
G36*
G01*
X212633010Y-168585240D02*
X211720510Y-168585240D01*
G75*
G02*
X211476760Y-168341490I0J243750D01*
G01*
X211476760Y-167853990D01*
G75*
G02*
X211720510Y-167610240I243750J0D01*
G01*
X212633010Y-167610240D01*
G75*
G02*
X212876760Y-167853990I0J-243750D01*
G01*
X212876760Y-168341490D01*
G75*
G02*
X212633010Y-168585240I-243750J0D01*
G01*
G37*
G36*
G01*
X219507920Y-164303030D02*
X219507920Y-164815530D01*
G75*
G02*
X219289170Y-165034280I-218750J0D01*
G01*
X218851670Y-165034280D01*
G75*
G02*
X218632920Y-164815530I0J218750D01*
G01*
X218632920Y-164303030D01*
G75*
G02*
X218851670Y-164084280I218750J0D01*
G01*
X219289170Y-164084280D01*
G75*
G02*
X219507920Y-164303030I0J-218750D01*
G01*
G37*
G36*
G01*
X217932920Y-164303030D02*
X217932920Y-164815530D01*
G75*
G02*
X217714170Y-165034280I-218750J0D01*
G01*
X217276670Y-165034280D01*
G75*
G02*
X217057920Y-164815530I0J218750D01*
G01*
X217057920Y-164303030D01*
G75*
G02*
X217276670Y-164084280I218750J0D01*
G01*
X217714170Y-164084280D01*
G75*
G02*
X217932920Y-164303030I0J-218750D01*
G01*
G37*
G36*
G01*
X221252700Y-142377750D02*
X221252700Y-142890250D01*
G75*
G02*
X221033950Y-143109000I-218750J0D01*
G01*
X220596450Y-143109000D01*
G75*
G02*
X220377700Y-142890250I0J218750D01*
G01*
X220377700Y-142377750D01*
G75*
G02*
X220596450Y-142159000I218750J0D01*
G01*
X221033950Y-142159000D01*
G75*
G02*
X221252700Y-142377750I0J-218750D01*
G01*
G37*
G36*
G01*
X222827700Y-142377750D02*
X222827700Y-142890250D01*
G75*
G02*
X222608950Y-143109000I-218750J0D01*
G01*
X222171450Y-143109000D01*
G75*
G02*
X221952700Y-142890250I0J218750D01*
G01*
X221952700Y-142377750D01*
G75*
G02*
X222171450Y-142159000I218750J0D01*
G01*
X222608950Y-142159000D01*
G75*
G02*
X222827700Y-142377750I0J-218750D01*
G01*
G37*
D21*
X232969200Y-122097800D03*
X238049200Y-113487800D03*
X235509200Y-122097800D03*
X235509200Y-113487800D03*
X238049200Y-122097800D03*
X232969200Y-113487800D03*
G36*
G01*
X233279700Y-145831700D02*
X233279700Y-147081700D01*
G75*
G02*
X233029700Y-147331700I-250000J0D01*
G01*
X232279700Y-147331700D01*
G75*
G02*
X232029700Y-147081700I0J250000D01*
G01*
X232029700Y-145831700D01*
G75*
G02*
X232279700Y-145581700I250000J0D01*
G01*
X233029700Y-145581700D01*
G75*
G02*
X233279700Y-145831700I0J-250000D01*
G01*
G37*
G36*
G01*
X230479700Y-145831700D02*
X230479700Y-147081700D01*
G75*
G02*
X230229700Y-147331700I-250000J0D01*
G01*
X229479700Y-147331700D01*
G75*
G02*
X229229700Y-147081700I0J250000D01*
G01*
X229229700Y-145831700D01*
G75*
G02*
X229479700Y-145581700I250000J0D01*
G01*
X230229700Y-145581700D01*
G75*
G02*
X230479700Y-145831700I0J-250000D01*
G01*
G37*
G36*
G01*
X244968150Y-117479100D02*
X244455650Y-117479100D01*
G75*
G02*
X244236900Y-117260350I0J218750D01*
G01*
X244236900Y-116822850D01*
G75*
G02*
X244455650Y-116604100I218750J0D01*
G01*
X244968150Y-116604100D01*
G75*
G02*
X245186900Y-116822850I0J-218750D01*
G01*
X245186900Y-117260350D01*
G75*
G02*
X244968150Y-117479100I-218750J0D01*
G01*
G37*
G36*
G01*
X244968150Y-115904100D02*
X244455650Y-115904100D01*
G75*
G02*
X244236900Y-115685350I0J218750D01*
G01*
X244236900Y-115247850D01*
G75*
G02*
X244455650Y-115029100I218750J0D01*
G01*
X244968150Y-115029100D01*
G75*
G02*
X245186900Y-115247850I0J-218750D01*
G01*
X245186900Y-115685350D01*
G75*
G02*
X244968150Y-115904100I-218750J0D01*
G01*
G37*
G36*
G01*
X245776900Y-115960350D02*
X245776900Y-115447850D01*
G75*
G02*
X245995650Y-115229100I218750J0D01*
G01*
X246433150Y-115229100D01*
G75*
G02*
X246651900Y-115447850I0J-218750D01*
G01*
X246651900Y-115960350D01*
G75*
G02*
X246433150Y-116179100I-218750J0D01*
G01*
X245995650Y-116179100D01*
G75*
G02*
X245776900Y-115960350I0J218750D01*
G01*
G37*
G36*
G01*
X247351900Y-115960350D02*
X247351900Y-115447850D01*
G75*
G02*
X247570650Y-115229100I218750J0D01*
G01*
X248008150Y-115229100D01*
G75*
G02*
X248226900Y-115447850I0J-218750D01*
G01*
X248226900Y-115960350D01*
G75*
G02*
X248008150Y-116179100I-218750J0D01*
G01*
X247570650Y-116179100D01*
G75*
G02*
X247351900Y-115960350I0J218750D01*
G01*
G37*
D22*
X201044700Y-137572020D03*
X201044700Y-138872020D03*
X203044700Y-138222020D03*
G36*
G01*
X218527050Y-142907600D02*
X219039550Y-142907600D01*
G75*
G02*
X219258300Y-143126350I0J-218750D01*
G01*
X219258300Y-143563850D01*
G75*
G02*
X219039550Y-143782600I-218750J0D01*
G01*
X218527050Y-143782600D01*
G75*
G02*
X218308300Y-143563850I0J218750D01*
G01*
X218308300Y-143126350D01*
G75*
G02*
X218527050Y-142907600I218750J0D01*
G01*
G37*
G36*
G01*
X218527050Y-144482600D02*
X219039550Y-144482600D01*
G75*
G02*
X219258300Y-144701350I0J-218750D01*
G01*
X219258300Y-145138850D01*
G75*
G02*
X219039550Y-145357600I-218750J0D01*
G01*
X218527050Y-145357600D01*
G75*
G02*
X218308300Y-145138850I0J218750D01*
G01*
X218308300Y-144701350D01*
G75*
G02*
X218527050Y-144482600I218750J0D01*
G01*
G37*
G36*
G01*
X217152100Y-105310950D02*
X217152100Y-104798450D01*
G75*
G02*
X217370850Y-104579700I218750J0D01*
G01*
X217808350Y-104579700D01*
G75*
G02*
X218027100Y-104798450I0J-218750D01*
G01*
X218027100Y-105310950D01*
G75*
G02*
X217808350Y-105529700I-218750J0D01*
G01*
X217370850Y-105529700D01*
G75*
G02*
X217152100Y-105310950I0J218750D01*
G01*
G37*
G36*
G01*
X215577100Y-105310950D02*
X215577100Y-104798450D01*
G75*
G02*
X215795850Y-104579700I218750J0D01*
G01*
X216233350Y-104579700D01*
G75*
G02*
X216452100Y-104798450I0J-218750D01*
G01*
X216452100Y-105310950D01*
G75*
G02*
X216233350Y-105529700I-218750J0D01*
G01*
X215795850Y-105529700D01*
G75*
G02*
X215577100Y-105310950I0J218750D01*
G01*
G37*
D19*
X206083300Y-132667800D03*
X206733300Y-134667800D03*
X205433300Y-134667800D03*
X221615400Y-146288300D03*
X220965400Y-144288300D03*
X222265400Y-144288300D03*
X222328900Y-148707900D03*
X221028900Y-148707900D03*
X221678900Y-150707900D03*
G36*
G01*
X203872550Y-133319400D02*
X202960050Y-133319400D01*
G75*
G02*
X202716300Y-133075650I0J243750D01*
G01*
X202716300Y-132588150D01*
G75*
G02*
X202960050Y-132344400I243750J0D01*
G01*
X203872550Y-132344400D01*
G75*
G02*
X204116300Y-132588150I0J-243750D01*
G01*
X204116300Y-133075650D01*
G75*
G02*
X203872550Y-133319400I-243750J0D01*
G01*
G37*
G36*
G01*
X203872550Y-135194400D02*
X202960050Y-135194400D01*
G75*
G02*
X202716300Y-134950650I0J243750D01*
G01*
X202716300Y-134463150D01*
G75*
G02*
X202960050Y-134219400I243750J0D01*
G01*
X203872550Y-134219400D01*
G75*
G02*
X204116300Y-134463150I0J-243750D01*
G01*
X204116300Y-134950650D01*
G75*
G02*
X203872550Y-135194400I-243750J0D01*
G01*
G37*
G36*
G01*
X201331250Y-134068600D02*
X201843750Y-134068600D01*
G75*
G02*
X202062500Y-134287350I0J-218750D01*
G01*
X202062500Y-134724850D01*
G75*
G02*
X201843750Y-134943600I-218750J0D01*
G01*
X201331250Y-134943600D01*
G75*
G02*
X201112500Y-134724850I0J218750D01*
G01*
X201112500Y-134287350D01*
G75*
G02*
X201331250Y-134068600I218750J0D01*
G01*
G37*
G36*
G01*
X201331250Y-132493600D02*
X201843750Y-132493600D01*
G75*
G02*
X202062500Y-132712350I0J-218750D01*
G01*
X202062500Y-133149850D01*
G75*
G02*
X201843750Y-133368600I-218750J0D01*
G01*
X201331250Y-133368600D01*
G75*
G02*
X201112500Y-133149850I0J218750D01*
G01*
X201112500Y-132712350D01*
G75*
G02*
X201331250Y-132493600I218750J0D01*
G01*
G37*
G36*
G01*
X297895000Y-110350000D02*
X297895000Y-111250000D01*
G75*
G02*
X297695000Y-111450000I-200000J0D01*
G01*
X297295000Y-111450000D01*
G75*
G02*
X297095000Y-111250000I0J200000D01*
G01*
X297095000Y-110350000D01*
G75*
G02*
X297295000Y-110150000I200000J0D01*
G01*
X297695000Y-110150000D01*
G75*
G02*
X297895000Y-110350000I0J-200000D01*
G01*
G37*
G36*
G01*
X296645000Y-110350000D02*
X296645000Y-111250000D01*
G75*
G02*
X296445000Y-111450000I-200000J0D01*
G01*
X296045000Y-111450000D01*
G75*
G02*
X295845000Y-111250000I0J200000D01*
G01*
X295845000Y-110350000D01*
G75*
G02*
X296045000Y-110150000I200000J0D01*
G01*
X296445000Y-110150000D01*
G75*
G02*
X296645000Y-110350000I0J-200000D01*
G01*
G37*
G36*
G01*
X295395000Y-110350000D02*
X295395000Y-111250000D01*
G75*
G02*
X295195000Y-111450000I-200000J0D01*
G01*
X294795000Y-111450000D01*
G75*
G02*
X294595000Y-111250000I0J200000D01*
G01*
X294595000Y-110350000D01*
G75*
G02*
X294795000Y-110150000I200000J0D01*
G01*
X295195000Y-110150000D01*
G75*
G02*
X295395000Y-110350000I0J-200000D01*
G01*
G37*
G36*
G01*
X294145000Y-110350000D02*
X294145000Y-111250000D01*
G75*
G02*
X293945000Y-111450000I-200000J0D01*
G01*
X293545000Y-111450000D01*
G75*
G02*
X293345000Y-111250000I0J200000D01*
G01*
X293345000Y-110350000D01*
G75*
G02*
X293545000Y-110150000I200000J0D01*
G01*
X293945000Y-110150000D01*
G75*
G02*
X294145000Y-110350000I0J-200000D01*
G01*
G37*
G36*
G01*
X301095000Y-106799999D02*
X301095000Y-109300001D01*
G75*
G02*
X300845001Y-109550000I-249999J0D01*
G01*
X299244999Y-109550000D01*
G75*
G02*
X298995000Y-109300001I0J249999D01*
G01*
X298995000Y-106799999D01*
G75*
G02*
X299244999Y-106550000I249999J0D01*
G01*
X300845001Y-106550000D01*
G75*
G02*
X301095000Y-106799999I0J-249999D01*
G01*
G37*
G36*
G01*
X292245000Y-106799999D02*
X292245000Y-109300001D01*
G75*
G02*
X291995001Y-109550000I-249999J0D01*
G01*
X290394999Y-109550000D01*
G75*
G02*
X290145000Y-109300001I0J249999D01*
G01*
X290145000Y-106799999D01*
G75*
G02*
X290394999Y-106550000I249999J0D01*
G01*
X291995001Y-106550000D01*
G75*
G02*
X292245000Y-106799999I0J-249999D01*
G01*
G37*
D23*
X294345000Y-119790000D03*
X294345000Y-123690000D03*
X293075000Y-119790000D03*
X293075000Y-123690000D03*
X291805000Y-119790000D03*
X291805000Y-123690000D03*
X290535000Y-119790000D03*
X290535000Y-123690000D03*
X289265000Y-119790000D03*
X289265000Y-123690000D03*
X287995000Y-119790000D03*
X287995000Y-123690000D03*
X286725000Y-119790000D03*
X286725000Y-123690000D03*
X285455000Y-119790000D03*
X285455000Y-123690000D03*
G36*
G01*
X277547000Y-113592850D02*
X277547000Y-113080350D01*
G75*
G02*
X277765750Y-112861600I218750J0D01*
G01*
X278203250Y-112861600D01*
G75*
G02*
X278422000Y-113080350I0J-218750D01*
G01*
X278422000Y-113592850D01*
G75*
G02*
X278203250Y-113811600I-218750J0D01*
G01*
X277765750Y-113811600D01*
G75*
G02*
X277547000Y-113592850I0J218750D01*
G01*
G37*
G36*
G01*
X279122000Y-113592850D02*
X279122000Y-113080350D01*
G75*
G02*
X279340750Y-112861600I218750J0D01*
G01*
X279778250Y-112861600D01*
G75*
G02*
X279997000Y-113080350I0J-218750D01*
G01*
X279997000Y-113592850D01*
G75*
G02*
X279778250Y-113811600I-218750J0D01*
G01*
X279340750Y-113811600D01*
G75*
G02*
X279122000Y-113592850I0J218750D01*
G01*
G37*
G36*
G01*
X277547000Y-111990350D02*
X277547000Y-111477850D01*
G75*
G02*
X277765750Y-111259100I218750J0D01*
G01*
X278203250Y-111259100D01*
G75*
G02*
X278422000Y-111477850I0J-218750D01*
G01*
X278422000Y-111990350D01*
G75*
G02*
X278203250Y-112209100I-218750J0D01*
G01*
X277765750Y-112209100D01*
G75*
G02*
X277547000Y-111990350I0J218750D01*
G01*
G37*
G36*
G01*
X279122000Y-111990350D02*
X279122000Y-111477850D01*
G75*
G02*
X279340750Y-111259100I218750J0D01*
G01*
X279778250Y-111259100D01*
G75*
G02*
X279997000Y-111477850I0J-218750D01*
G01*
X279997000Y-111990350D01*
G75*
G02*
X279778250Y-112209100I-218750J0D01*
G01*
X279340750Y-112209100D01*
G75*
G02*
X279122000Y-111990350I0J218750D01*
G01*
G37*
D24*
X274750000Y-103400000D03*
X279050000Y-103400000D03*
D25*
X280070251Y-142500000D03*
G36*
G01*
X224276250Y-149065000D02*
X223763750Y-149065000D01*
G75*
G02*
X223545000Y-148846250I0J218750D01*
G01*
X223545000Y-148408750D01*
G75*
G02*
X223763750Y-148190000I218750J0D01*
G01*
X224276250Y-148190000D01*
G75*
G02*
X224495000Y-148408750I0J-218750D01*
G01*
X224495000Y-148846250D01*
G75*
G02*
X224276250Y-149065000I-218750J0D01*
G01*
G37*
G36*
G01*
X224276250Y-147490000D02*
X223763750Y-147490000D01*
G75*
G02*
X223545000Y-147271250I0J218750D01*
G01*
X223545000Y-146833750D01*
G75*
G02*
X223763750Y-146615000I218750J0D01*
G01*
X224276250Y-146615000D01*
G75*
G02*
X224495000Y-146833750I0J-218750D01*
G01*
X224495000Y-147271250D01*
G75*
G02*
X224276250Y-147490000I-218750J0D01*
G01*
G37*
G36*
G01*
X215670000Y-169526250D02*
X215670000Y-169013750D01*
G75*
G02*
X215888750Y-168795000I218750J0D01*
G01*
X216326250Y-168795000D01*
G75*
G02*
X216545000Y-169013750I0J-218750D01*
G01*
X216545000Y-169526250D01*
G75*
G02*
X216326250Y-169745000I-218750J0D01*
G01*
X215888750Y-169745000D01*
G75*
G02*
X215670000Y-169526250I0J218750D01*
G01*
G37*
G36*
G01*
X214095000Y-169526250D02*
X214095000Y-169013750D01*
G75*
G02*
X214313750Y-168795000I218750J0D01*
G01*
X214751250Y-168795000D01*
G75*
G02*
X214970000Y-169013750I0J-218750D01*
G01*
X214970000Y-169526250D01*
G75*
G02*
X214751250Y-169745000I-218750J0D01*
G01*
X214313750Y-169745000D01*
G75*
G02*
X214095000Y-169526250I0J218750D01*
G01*
G37*
G36*
G01*
X233280000Y-102220000D02*
X233280000Y-101320000D01*
G75*
G02*
X233480000Y-101120000I200000J0D01*
G01*
X233880000Y-101120000D01*
G75*
G02*
X234080000Y-101320000I0J-200000D01*
G01*
X234080000Y-102220000D01*
G75*
G02*
X233880000Y-102420000I-200000J0D01*
G01*
X233480000Y-102420000D01*
G75*
G02*
X233280000Y-102220000I0J200000D01*
G01*
G37*
G36*
G01*
X234530000Y-102220000D02*
X234530000Y-101320000D01*
G75*
G02*
X234730000Y-101120000I200000J0D01*
G01*
X235130000Y-101120000D01*
G75*
G02*
X235330000Y-101320000I0J-200000D01*
G01*
X235330000Y-102220000D01*
G75*
G02*
X235130000Y-102420000I-200000J0D01*
G01*
X234730000Y-102420000D01*
G75*
G02*
X234530000Y-102220000I0J200000D01*
G01*
G37*
G36*
G01*
X235780000Y-102220000D02*
X235780000Y-101320000D01*
G75*
G02*
X235980000Y-101120000I200000J0D01*
G01*
X236380000Y-101120000D01*
G75*
G02*
X236580000Y-101320000I0J-200000D01*
G01*
X236580000Y-102220000D01*
G75*
G02*
X236380000Y-102420000I-200000J0D01*
G01*
X235980000Y-102420000D01*
G75*
G02*
X235780000Y-102220000I0J200000D01*
G01*
G37*
G36*
G01*
X237030000Y-102220000D02*
X237030000Y-101320000D01*
G75*
G02*
X237230000Y-101120000I200000J0D01*
G01*
X237630000Y-101120000D01*
G75*
G02*
X237830000Y-101320000I0J-200000D01*
G01*
X237830000Y-102220000D01*
G75*
G02*
X237630000Y-102420000I-200000J0D01*
G01*
X237230000Y-102420000D01*
G75*
G02*
X237030000Y-102220000I0J200000D01*
G01*
G37*
G36*
G01*
X238280000Y-102220000D02*
X238280000Y-101320000D01*
G75*
G02*
X238480000Y-101120000I200000J0D01*
G01*
X238880000Y-101120000D01*
G75*
G02*
X239080000Y-101320000I0J-200000D01*
G01*
X239080000Y-102220000D01*
G75*
G02*
X238880000Y-102420000I-200000J0D01*
G01*
X238480000Y-102420000D01*
G75*
G02*
X238280000Y-102220000I0J200000D01*
G01*
G37*
G36*
G01*
X230080000Y-105770001D02*
X230080000Y-103269999D01*
G75*
G02*
X230329999Y-103020000I249999J0D01*
G01*
X231930001Y-103020000D01*
G75*
G02*
X232180000Y-103269999I0J-249999D01*
G01*
X232180000Y-105770001D01*
G75*
G02*
X231930001Y-106020000I-249999J0D01*
G01*
X230329999Y-106020000D01*
G75*
G02*
X230080000Y-105770001I0J249999D01*
G01*
G37*
G36*
G01*
X240180000Y-105770001D02*
X240180000Y-103269999D01*
G75*
G02*
X240429999Y-103020000I249999J0D01*
G01*
X242030001Y-103020000D01*
G75*
G02*
X242280000Y-103269999I0J-249999D01*
G01*
X242280000Y-105770001D01*
G75*
G02*
X242030001Y-106020000I-249999J0D01*
G01*
X240429999Y-106020000D01*
G75*
G02*
X240180000Y-105770001I0J249999D01*
G01*
G37*
G36*
G01*
X306680950Y-137551400D02*
X307593450Y-137551400D01*
G75*
G02*
X307837200Y-137795150I0J-243750D01*
G01*
X307837200Y-138282650D01*
G75*
G02*
X307593450Y-138526400I-243750J0D01*
G01*
X306680950Y-138526400D01*
G75*
G02*
X306437200Y-138282650I0J243750D01*
G01*
X306437200Y-137795150D01*
G75*
G02*
X306680950Y-137551400I243750J0D01*
G01*
G37*
G36*
G01*
X306680950Y-139426400D02*
X307593450Y-139426400D01*
G75*
G02*
X307837200Y-139670150I0J-243750D01*
G01*
X307837200Y-140157650D01*
G75*
G02*
X307593450Y-140401400I-243750J0D01*
G01*
X306680950Y-140401400D01*
G75*
G02*
X306437200Y-140157650I0J243750D01*
G01*
X306437200Y-139670150D01*
G75*
G02*
X306680950Y-139426400I243750J0D01*
G01*
G37*
G36*
G01*
X299544850Y-138245600D02*
X299032350Y-138245600D01*
G75*
G02*
X298813600Y-138026850I0J218750D01*
G01*
X298813600Y-137589350D01*
G75*
G02*
X299032350Y-137370600I218750J0D01*
G01*
X299544850Y-137370600D01*
G75*
G02*
X299763600Y-137589350I0J-218750D01*
G01*
X299763600Y-138026850D01*
G75*
G02*
X299544850Y-138245600I-218750J0D01*
G01*
G37*
G36*
G01*
X299544850Y-136670600D02*
X299032350Y-136670600D01*
G75*
G02*
X298813600Y-136451850I0J218750D01*
G01*
X298813600Y-136014350D01*
G75*
G02*
X299032350Y-135795600I218750J0D01*
G01*
X299544850Y-135795600D01*
G75*
G02*
X299763600Y-136014350I0J-218750D01*
G01*
X299763600Y-136451850D01*
G75*
G02*
X299544850Y-136670600I-218750J0D01*
G01*
G37*
G36*
G01*
X299544850Y-141471400D02*
X299032350Y-141471400D01*
G75*
G02*
X298813600Y-141252650I0J218750D01*
G01*
X298813600Y-140815150D01*
G75*
G02*
X299032350Y-140596400I218750J0D01*
G01*
X299544850Y-140596400D01*
G75*
G02*
X299763600Y-140815150I0J-218750D01*
G01*
X299763600Y-141252650D01*
G75*
G02*
X299544850Y-141471400I-218750J0D01*
G01*
G37*
G36*
G01*
X299544850Y-139896400D02*
X299032350Y-139896400D01*
G75*
G02*
X298813600Y-139677650I0J218750D01*
G01*
X298813600Y-139240150D01*
G75*
G02*
X299032350Y-139021400I218750J0D01*
G01*
X299544850Y-139021400D01*
G75*
G02*
X299763600Y-139240150I0J-218750D01*
G01*
X299763600Y-139677650D01*
G75*
G02*
X299544850Y-139896400I-218750J0D01*
G01*
G37*
D26*
X301057600Y-137804400D03*
X301057600Y-139074400D03*
X301057600Y-140344400D03*
D27*
X301887600Y-141174400D03*
X303157600Y-141174400D03*
X304427600Y-141174400D03*
D26*
X305257600Y-140344400D03*
X305257600Y-139074400D03*
X305257600Y-137804400D03*
D27*
X304427600Y-136974400D03*
X303157600Y-136974400D03*
X301887600Y-136974400D03*
G36*
G01*
X241186000Y-166134800D02*
X241186000Y-167384800D01*
G75*
G02*
X241036000Y-167534800I-150000J0D01*
G01*
X240736000Y-167534800D01*
G75*
G02*
X240586000Y-167384800I0J150000D01*
G01*
X240586000Y-166134800D01*
G75*
G02*
X240736000Y-165984800I150000J0D01*
G01*
X241036000Y-165984800D01*
G75*
G02*
X241186000Y-166134800I0J-150000D01*
G01*
G37*
G36*
G01*
X240186000Y-166134800D02*
X240186000Y-167384800D01*
G75*
G02*
X240036000Y-167534800I-150000J0D01*
G01*
X239736000Y-167534800D01*
G75*
G02*
X239586000Y-167384800I0J150000D01*
G01*
X239586000Y-166134800D01*
G75*
G02*
X239736000Y-165984800I150000J0D01*
G01*
X240036000Y-165984800D01*
G75*
G02*
X240186000Y-166134800I0J-150000D01*
G01*
G37*
G36*
G01*
X242786000Y-168634799D02*
X242786000Y-169934801D01*
G75*
G02*
X242536001Y-170184800I-249999J0D01*
G01*
X241835999Y-170184800D01*
G75*
G02*
X241586000Y-169934801I0J249999D01*
G01*
X241586000Y-168634799D01*
G75*
G02*
X241835999Y-168384800I249999J0D01*
G01*
X242536001Y-168384800D01*
G75*
G02*
X242786000Y-168634799I0J-249999D01*
G01*
G37*
G36*
G01*
X239186000Y-168634799D02*
X239186000Y-169934801D01*
G75*
G02*
X238936001Y-170184800I-249999J0D01*
G01*
X238235999Y-170184800D01*
G75*
G02*
X237986000Y-169934801I0J249999D01*
G01*
X237986000Y-168634799D01*
G75*
G02*
X238235999Y-168384800I249999J0D01*
G01*
X238936001Y-168384800D01*
G75*
G02*
X239186000Y-168634799I0J-249999D01*
G01*
G37*
D19*
X213451600Y-105642200D03*
X212151600Y-105642200D03*
X212801600Y-107642200D03*
G36*
G01*
X213283250Y-104562000D02*
X212370750Y-104562000D01*
G75*
G02*
X212127000Y-104318250I0J243750D01*
G01*
X212127000Y-103830750D01*
G75*
G02*
X212370750Y-103587000I243750J0D01*
G01*
X213283250Y-103587000D01*
G75*
G02*
X213527000Y-103830750I0J-243750D01*
G01*
X213527000Y-104318250D01*
G75*
G02*
X213283250Y-104562000I-243750J0D01*
G01*
G37*
G36*
G01*
X213283250Y-102687000D02*
X212370750Y-102687000D01*
G75*
G02*
X212127000Y-102443250I0J243750D01*
G01*
X212127000Y-101955750D01*
G75*
G02*
X212370750Y-101712000I243750J0D01*
G01*
X213283250Y-101712000D01*
G75*
G02*
X213527000Y-101955750I0J-243750D01*
G01*
X213527000Y-102443250D01*
G75*
G02*
X213283250Y-102687000I-243750J0D01*
G01*
G37*
G36*
G01*
X214204400Y-108951350D02*
X214204400Y-109463850D01*
G75*
G02*
X213985650Y-109682600I-218750J0D01*
G01*
X213548150Y-109682600D01*
G75*
G02*
X213329400Y-109463850I0J218750D01*
G01*
X213329400Y-108951350D01*
G75*
G02*
X213548150Y-108732600I218750J0D01*
G01*
X213985650Y-108732600D01*
G75*
G02*
X214204400Y-108951350I0J-218750D01*
G01*
G37*
G36*
G01*
X212629400Y-108951350D02*
X212629400Y-109463850D01*
G75*
G02*
X212410650Y-109682600I-218750J0D01*
G01*
X211973150Y-109682600D01*
G75*
G02*
X211754400Y-109463850I0J218750D01*
G01*
X211754400Y-108951350D01*
G75*
G02*
X211973150Y-108732600I218750J0D01*
G01*
X212410650Y-108732600D01*
G75*
G02*
X212629400Y-108951350I0J-218750D01*
G01*
G37*
M02*
