G04 #@! TF.GenerationSoftware,KiCad,Pcbnew,(5.1.10-1-10_14)*
G04 #@! TF.CreationDate,2022-04-25T15:44:20-07:00*
G04 #@! TF.ProjectId,ulc-mm,756c632d-6d6d-42e6-9b69-6361645f7063,rev?*
G04 #@! TF.SameCoordinates,Original*
G04 #@! TF.FileFunction,Legend,Bot*
G04 #@! TF.FilePolarity,Positive*
%FSLAX46Y46*%
G04 Gerber Fmt 4.6, Leading zero omitted, Abs format (unit mm)*
G04 Created by KiCad (PCBNEW (5.1.10-1-10_14)) date 2022-04-25 15:44:20*
%MOMM*%
%LPD*%
G01*
G04 APERTURE LIST*
%ADD10C,0.200000*%
%ADD11C,0.120000*%
%ADD12C,0.150000*%
%ADD13C,0.100000*%
G04 APERTURE END LIST*
D10*
X274119285Y-130933809D02*
X274119285Y-131886190D01*
X274595476Y-131410000D02*
X273643095Y-131410000D01*
X271806190Y-131399285D02*
X270853809Y-131399285D01*
X283475250Y-133406811D02*
G75*
G03*
X283475250Y-133406811I-3424999J0D01*
G01*
D11*
X207040000Y-98770000D02*
X207040000Y-100100000D01*
X207040000Y-100100000D02*
X208370000Y-100100000D01*
X207040000Y-97500000D02*
X209640000Y-97500000D01*
X209640000Y-97500000D02*
X209640000Y-100100000D01*
X209640000Y-100100000D02*
X257960000Y-100100000D01*
X257960000Y-94900000D02*
X257960000Y-100100000D01*
X207040000Y-94900000D02*
X257960000Y-94900000D01*
X207040000Y-94900000D02*
X207040000Y-97500000D01*
X213005600Y-111571000D02*
X211190600Y-111571000D01*
X213005600Y-111826000D02*
X213005600Y-111571000D01*
X216865600Y-111826000D02*
X213005600Y-111826000D01*
X220725600Y-111826000D02*
X220725600Y-111571000D01*
X216865600Y-111826000D02*
X220725600Y-111826000D01*
X213005600Y-101306000D02*
X213005600Y-101561000D01*
X216865600Y-101306000D02*
X213005600Y-101306000D01*
X220725600Y-101306000D02*
X220725600Y-101561000D01*
X216865600Y-101306000D02*
X220725600Y-101306000D01*
X252821621Y-117714600D02*
X253147179Y-117714600D01*
X252821621Y-118734600D02*
X253147179Y-118734600D01*
D12*
X212257821Y-112482200D02*
X212583379Y-112482200D01*
X212257821Y-113502200D02*
X212583379Y-113502200D01*
X242308278Y-149048700D02*
X241791122Y-149048700D01*
X242308278Y-150468700D02*
X241791122Y-150468700D01*
D11*
X236188100Y-129344200D02*
X235338100Y-129344200D01*
X235338100Y-136264200D02*
X236188100Y-136264200D01*
X240888100Y-129344200D02*
X240088100Y-129344200D01*
X241548100Y-135654200D02*
X241548100Y-130004200D01*
X240088100Y-136264200D02*
X240938100Y-136264200D01*
X234728100Y-129954200D02*
X234728100Y-135654200D01*
X240938100Y-136264200D02*
G75*
G03*
X241548100Y-135654200I0J610000D01*
G01*
X241548100Y-130004200D02*
G75*
G03*
X240888100Y-129344200I-660000J0D01*
G01*
X234728100Y-135654200D02*
G75*
G03*
X235338100Y-136264200I610000J0D01*
G01*
X235338100Y-129344200D02*
G75*
G03*
X234728100Y-129954200I0J-610000D01*
G01*
X229817648Y-144200600D02*
X232590152Y-144200600D01*
X229817648Y-147620600D02*
X232590152Y-147620600D01*
X241230600Y-157510900D02*
X241230600Y-151810900D01*
X235870600Y-151200900D02*
X235020600Y-151200900D01*
X234410600Y-151810900D02*
X234410600Y-157460900D01*
X235070600Y-158120900D02*
X235870600Y-158120900D01*
X240620600Y-151200900D02*
X239770600Y-151200900D01*
X239770600Y-158120900D02*
X240620600Y-158120900D01*
X240620600Y-158120900D02*
G75*
G03*
X241230600Y-157510900I0J610000D01*
G01*
X241230600Y-151810900D02*
G75*
G03*
X240620600Y-151200900I-610000J0D01*
G01*
X234410600Y-157460900D02*
G75*
G03*
X235070600Y-158120900I660000J0D01*
G01*
X235020600Y-151200900D02*
G75*
G03*
X234410600Y-151810900I0J-610000D01*
G01*
X223071440Y-164305900D02*
X223071440Y-161505900D01*
X212671440Y-164305900D02*
X223071440Y-164305900D01*
X212671440Y-161505900D02*
X212671440Y-164305900D01*
X212671440Y-155305900D02*
X212671440Y-156705900D01*
X214071440Y-153905900D02*
X212671440Y-155305900D01*
X223071440Y-153905900D02*
X214071440Y-153905900D01*
X223071440Y-156705900D02*
X223071440Y-153905900D01*
X257621900Y-107274879D02*
X257621900Y-106949321D01*
X256601900Y-107274879D02*
X256601900Y-106949321D01*
X248575179Y-117778100D02*
X248249621Y-117778100D01*
X248575179Y-118798100D02*
X248249621Y-118798100D01*
X253647121Y-105590100D02*
X253972679Y-105590100D01*
X253647121Y-104570100D02*
X253972679Y-104570100D01*
D12*
X232948378Y-130529700D02*
X232431222Y-130529700D01*
X232948378Y-129109700D02*
X232431222Y-129109700D01*
D11*
X216250200Y-118254300D02*
X214840200Y-118254300D01*
X214840200Y-115934300D02*
X216870200Y-115934300D01*
X214840200Y-115934300D02*
X214840200Y-116594300D01*
X214840200Y-117594300D02*
X214840200Y-118254300D01*
X217479778Y-115480200D02*
X216962622Y-115480200D01*
X217479778Y-114060200D02*
X216962622Y-114060200D01*
X216880621Y-112456800D02*
X217206179Y-112456800D01*
X216880621Y-113476800D02*
X217206179Y-113476800D01*
X281900251Y-135256811D02*
X281900251Y-134256811D01*
X279300251Y-135256811D02*
X281900251Y-135256811D01*
X281900251Y-131556811D02*
X281900251Y-132556811D01*
X279300251Y-131556811D02*
X281900251Y-131556811D01*
D12*
X207596095Y-101430380D02*
X207596095Y-100430380D01*
X207215142Y-100430380D01*
X207119904Y-100478000D01*
X207072285Y-100525619D01*
X207024666Y-100620857D01*
X207024666Y-100763714D01*
X207072285Y-100858952D01*
X207119904Y-100906571D01*
X207215142Y-100954190D01*
X207596095Y-100954190D01*
X206072285Y-101430380D02*
X206643714Y-101430380D01*
X206358000Y-101430380D02*
X206358000Y-100430380D01*
X206453238Y-100573238D01*
X206548476Y-100668476D01*
X206643714Y-100716095D01*
D13*
X217144928Y-100287885D02*
X217144928Y-100895028D01*
X217109214Y-100966457D01*
X217073500Y-101002171D01*
X217002071Y-101037885D01*
X216859214Y-101037885D01*
X216787785Y-101002171D01*
X216752071Y-100966457D01*
X216716357Y-100895028D01*
X216716357Y-100287885D01*
X215966357Y-101037885D02*
X216394928Y-101037885D01*
X216180642Y-101037885D02*
X216180642Y-100287885D01*
X216252071Y-100395028D01*
X216323500Y-100466457D01*
X216394928Y-100502171D01*
D12*
X253151066Y-120073980D02*
X253484400Y-119597790D01*
X253722495Y-120073980D02*
X253722495Y-119073980D01*
X253341542Y-119073980D01*
X253246304Y-119121600D01*
X253198685Y-119169219D01*
X253151066Y-119264457D01*
X253151066Y-119407314D01*
X253198685Y-119502552D01*
X253246304Y-119550171D01*
X253341542Y-119597790D01*
X253722495Y-119597790D01*
X252579638Y-119502552D02*
X252674876Y-119454933D01*
X252722495Y-119407314D01*
X252770114Y-119312076D01*
X252770114Y-119264457D01*
X252722495Y-119169219D01*
X252674876Y-119121600D01*
X252579638Y-119073980D01*
X252389161Y-119073980D01*
X252293923Y-119121600D01*
X252246304Y-119169219D01*
X252198685Y-119264457D01*
X252198685Y-119312076D01*
X252246304Y-119407314D01*
X252293923Y-119454933D01*
X252389161Y-119502552D01*
X252579638Y-119502552D01*
X252674876Y-119550171D01*
X252722495Y-119597790D01*
X252770114Y-119693028D01*
X252770114Y-119883504D01*
X252722495Y-119978742D01*
X252674876Y-120026361D01*
X252579638Y-120073980D01*
X252389161Y-120073980D01*
X252293923Y-120026361D01*
X252246304Y-119978742D01*
X252198685Y-119883504D01*
X252198685Y-119693028D01*
X252246304Y-119597790D01*
X252293923Y-119550171D01*
X252389161Y-119502552D01*
D13*
X211910600Y-114568157D02*
X211946314Y-114603871D01*
X212053457Y-114639585D01*
X212124885Y-114639585D01*
X212232028Y-114603871D01*
X212303457Y-114532442D01*
X212339171Y-114461014D01*
X212374885Y-114318157D01*
X212374885Y-114211014D01*
X212339171Y-114068157D01*
X212303457Y-113996728D01*
X212232028Y-113925300D01*
X212124885Y-113889585D01*
X212053457Y-113889585D01*
X211946314Y-113925300D01*
X211910600Y-113961014D01*
X211232028Y-113889585D02*
X211589171Y-113889585D01*
X211624885Y-114246728D01*
X211589171Y-114211014D01*
X211517742Y-114175300D01*
X211339171Y-114175300D01*
X211267742Y-114211014D01*
X211232028Y-114246728D01*
X211196314Y-114318157D01*
X211196314Y-114496728D01*
X211232028Y-114568157D01*
X211267742Y-114603871D01*
X211339171Y-114639585D01*
X211517742Y-114639585D01*
X211589171Y-114603871D01*
X211624885Y-114568157D01*
X242531842Y-148489857D02*
X242567557Y-148525571D01*
X242674700Y-148561285D01*
X242746128Y-148561285D01*
X242853271Y-148525571D01*
X242924700Y-148454142D01*
X242960414Y-148382714D01*
X242996128Y-148239857D01*
X242996128Y-148132714D01*
X242960414Y-147989857D01*
X242924700Y-147918428D01*
X242853271Y-147847000D01*
X242746128Y-147811285D01*
X242674700Y-147811285D01*
X242567557Y-147847000D01*
X242531842Y-147882714D01*
X241817557Y-148561285D02*
X242246128Y-148561285D01*
X242031842Y-148561285D02*
X242031842Y-147811285D01*
X242103271Y-147918428D01*
X242174700Y-147989857D01*
X242246128Y-148025571D01*
X241567557Y-147811285D02*
X241103271Y-147811285D01*
X241353271Y-148097000D01*
X241246128Y-148097000D01*
X241174700Y-148132714D01*
X241138985Y-148168428D01*
X241103271Y-148239857D01*
X241103271Y-148418428D01*
X241138985Y-148489857D01*
X241174700Y-148525571D01*
X241246128Y-148561285D01*
X241460414Y-148561285D01*
X241531842Y-148525571D01*
X241567557Y-148489857D01*
D12*
X242346571Y-131970866D02*
X242346571Y-131637533D01*
X242870380Y-131637533D02*
X241870380Y-131637533D01*
X241870380Y-132113723D01*
X242346571Y-132828009D02*
X242394190Y-132970866D01*
X242441809Y-133018485D01*
X242537047Y-133066104D01*
X242679904Y-133066104D01*
X242775142Y-133018485D01*
X242822761Y-132970866D01*
X242870380Y-132875628D01*
X242870380Y-132494676D01*
X241870380Y-132494676D01*
X241870380Y-132828009D01*
X241918000Y-132923247D01*
X241965619Y-132970866D01*
X242060857Y-133018485D01*
X242156095Y-133018485D01*
X242251333Y-132970866D01*
X242298952Y-132923247D01*
X242346571Y-132828009D01*
X242346571Y-132494676D01*
X241965619Y-133447057D02*
X241918000Y-133494676D01*
X241870380Y-133589914D01*
X241870380Y-133828009D01*
X241918000Y-133923247D01*
X241965619Y-133970866D01*
X242060857Y-134018485D01*
X242156095Y-134018485D01*
X242298952Y-133970866D01*
X242870380Y-133399438D01*
X242870380Y-134018485D01*
D13*
X231828900Y-143342428D02*
X232078900Y-143342428D01*
X232078900Y-143735285D02*
X232078900Y-142985285D01*
X231721757Y-142985285D01*
X231186042Y-143342428D02*
X231078900Y-143378142D01*
X231043185Y-143413857D01*
X231007471Y-143485285D01*
X231007471Y-143592428D01*
X231043185Y-143663857D01*
X231078900Y-143699571D01*
X231150328Y-143735285D01*
X231436042Y-143735285D01*
X231436042Y-142985285D01*
X231186042Y-142985285D01*
X231114614Y-143021000D01*
X231078900Y-143056714D01*
X231043185Y-143128142D01*
X231043185Y-143199571D01*
X231078900Y-143271000D01*
X231114614Y-143306714D01*
X231186042Y-143342428D01*
X231436042Y-143342428D01*
X230757471Y-142985285D02*
X230293185Y-142985285D01*
X230543185Y-143271000D01*
X230436042Y-143271000D01*
X230364614Y-143306714D01*
X230328900Y-143342428D01*
X230293185Y-143413857D01*
X230293185Y-143592428D01*
X230328900Y-143663857D01*
X230364614Y-143699571D01*
X230436042Y-143735285D01*
X230650328Y-143735285D01*
X230721757Y-143699571D01*
X230757471Y-143663857D01*
D12*
X233342271Y-153802166D02*
X233342271Y-153468833D01*
X233866080Y-153468833D02*
X232866080Y-153468833D01*
X232866080Y-153945023D01*
X233342271Y-154659309D02*
X233389890Y-154802166D01*
X233437509Y-154849785D01*
X233532747Y-154897404D01*
X233675604Y-154897404D01*
X233770842Y-154849785D01*
X233818461Y-154802166D01*
X233866080Y-154706928D01*
X233866080Y-154325976D01*
X232866080Y-154325976D01*
X232866080Y-154659309D01*
X232913700Y-154754547D01*
X232961319Y-154802166D01*
X233056557Y-154849785D01*
X233151795Y-154849785D01*
X233247033Y-154802166D01*
X233294652Y-154754547D01*
X233342271Y-154659309D01*
X233342271Y-154325976D01*
X233199414Y-155754547D02*
X233866080Y-155754547D01*
X232818461Y-155516452D02*
X233532747Y-155278357D01*
X233532747Y-155897404D01*
D13*
X217996440Y-165795185D02*
X218353582Y-165795185D01*
X218353582Y-165045185D01*
X217782154Y-165116614D02*
X217746440Y-165080900D01*
X217675011Y-165045185D01*
X217496440Y-165045185D01*
X217425011Y-165080900D01*
X217389297Y-165116614D01*
X217353582Y-165188042D01*
X217353582Y-165259471D01*
X217389297Y-165366614D01*
X217817868Y-165795185D01*
X217353582Y-165795185D01*
X257476585Y-104726500D02*
X257119442Y-104476500D01*
X257476585Y-104297928D02*
X256726585Y-104297928D01*
X256726585Y-104583642D01*
X256762300Y-104655071D01*
X256798014Y-104690785D01*
X256869442Y-104726500D01*
X256976585Y-104726500D01*
X257048014Y-104690785D01*
X257083728Y-104655071D01*
X257119442Y-104583642D01*
X257119442Y-104297928D01*
X256726585Y-104976500D02*
X256726585Y-105440785D01*
X257012300Y-105190785D01*
X257012300Y-105297928D01*
X257048014Y-105369357D01*
X257083728Y-105405071D01*
X257155157Y-105440785D01*
X257333728Y-105440785D01*
X257405157Y-105405071D01*
X257440871Y-105369357D01*
X257476585Y-105297928D01*
X257476585Y-105083642D01*
X257440871Y-105012214D01*
X257405157Y-104976500D01*
D12*
X248289400Y-117383885D02*
X248539400Y-117026742D01*
X248717971Y-117383885D02*
X248717971Y-116633885D01*
X248432257Y-116633885D01*
X248360828Y-116669600D01*
X248325114Y-116705314D01*
X248289400Y-116776742D01*
X248289400Y-116883885D01*
X248325114Y-116955314D01*
X248360828Y-116991028D01*
X248432257Y-117026742D01*
X248717971Y-117026742D01*
X248039400Y-116633885D02*
X247539400Y-116633885D01*
X247860828Y-117383885D01*
X253960300Y-104123985D02*
X254210300Y-103766842D01*
X254388871Y-104123985D02*
X254388871Y-103373985D01*
X254103157Y-103373985D01*
X254031728Y-103409700D01*
X253996014Y-103445414D01*
X253960300Y-103516842D01*
X253960300Y-103623985D01*
X253996014Y-103695414D01*
X254031728Y-103731128D01*
X254103157Y-103766842D01*
X254388871Y-103766842D01*
X253603157Y-104123985D02*
X253460300Y-104123985D01*
X253388871Y-104088271D01*
X253353157Y-104052557D01*
X253281728Y-103945414D01*
X253246014Y-103802557D01*
X253246014Y-103516842D01*
X253281728Y-103445414D01*
X253317442Y-103409700D01*
X253388871Y-103373985D01*
X253531728Y-103373985D01*
X253603157Y-103409700D01*
X253638871Y-103445414D01*
X253674585Y-103516842D01*
X253674585Y-103695414D01*
X253638871Y-103766842D01*
X253603157Y-103802557D01*
X253531728Y-103838271D01*
X253388871Y-103838271D01*
X253317442Y-103802557D01*
X253281728Y-103766842D01*
X253246014Y-103695414D01*
D13*
X232878300Y-128652457D02*
X232914014Y-128688171D01*
X233021157Y-128723885D01*
X233092585Y-128723885D01*
X233199728Y-128688171D01*
X233271157Y-128616742D01*
X233306871Y-128545314D01*
X233342585Y-128402457D01*
X233342585Y-128295314D01*
X233306871Y-128152457D01*
X233271157Y-128081028D01*
X233199728Y-128009600D01*
X233092585Y-127973885D01*
X233021157Y-127973885D01*
X232914014Y-128009600D01*
X232878300Y-128045314D01*
X232521157Y-128723885D02*
X232378300Y-128723885D01*
X232306871Y-128688171D01*
X232271157Y-128652457D01*
X232199728Y-128545314D01*
X232164014Y-128402457D01*
X232164014Y-128116742D01*
X232199728Y-128045314D01*
X232235442Y-128009600D01*
X232306871Y-127973885D01*
X232449728Y-127973885D01*
X232521157Y-128009600D01*
X232556871Y-128045314D01*
X232592585Y-128116742D01*
X232592585Y-128295314D01*
X232556871Y-128366742D01*
X232521157Y-128402457D01*
X232449728Y-128438171D01*
X232306871Y-128438171D01*
X232235442Y-128402457D01*
X232199728Y-128366742D01*
X232164014Y-128295314D01*
D12*
X213679419Y-116999061D02*
X213631800Y-116903823D01*
X213536561Y-116808585D01*
X213393704Y-116665728D01*
X213346085Y-116570490D01*
X213346085Y-116475252D01*
X213584180Y-116522871D02*
X213536561Y-116427633D01*
X213441323Y-116332395D01*
X213250847Y-116284776D01*
X212917514Y-116284776D01*
X212727038Y-116332395D01*
X212631800Y-116427633D01*
X212584180Y-116522871D01*
X212584180Y-116713347D01*
X212631800Y-116808585D01*
X212727038Y-116903823D01*
X212917514Y-116951442D01*
X213250847Y-116951442D01*
X213441323Y-116903823D01*
X213536561Y-116808585D01*
X213584180Y-116713347D01*
X213584180Y-116522871D01*
X212584180Y-117856204D02*
X212584180Y-117380014D01*
X213060371Y-117332395D01*
X213012752Y-117380014D01*
X212965133Y-117475252D01*
X212965133Y-117713347D01*
X213012752Y-117808585D01*
X213060371Y-117856204D01*
X213155609Y-117903823D01*
X213393704Y-117903823D01*
X213488942Y-117856204D01*
X213536561Y-117808585D01*
X213584180Y-117713347D01*
X213584180Y-117475252D01*
X213536561Y-117380014D01*
X213488942Y-117332395D01*
D13*
X220522742Y-115122185D02*
X220772742Y-114765042D01*
X220951314Y-115122185D02*
X220951314Y-114372185D01*
X220665600Y-114372185D01*
X220594171Y-114407900D01*
X220558457Y-114443614D01*
X220522742Y-114515042D01*
X220522742Y-114622185D01*
X220558457Y-114693614D01*
X220594171Y-114729328D01*
X220665600Y-114765042D01*
X220951314Y-114765042D01*
X220237028Y-114443614D02*
X220201314Y-114407900D01*
X220129885Y-114372185D01*
X219951314Y-114372185D01*
X219879885Y-114407900D01*
X219844171Y-114443614D01*
X219808457Y-114515042D01*
X219808457Y-114586471D01*
X219844171Y-114693614D01*
X220272742Y-115122185D01*
X219808457Y-115122185D01*
X219379885Y-114693614D02*
X219451314Y-114657900D01*
X219487028Y-114622185D01*
X219522742Y-114550757D01*
X219522742Y-114515042D01*
X219487028Y-114443614D01*
X219451314Y-114407900D01*
X219379885Y-114372185D01*
X219237028Y-114372185D01*
X219165600Y-114407900D01*
X219129885Y-114443614D01*
X219094171Y-114515042D01*
X219094171Y-114550757D01*
X219129885Y-114622185D01*
X219165600Y-114657900D01*
X219237028Y-114693614D01*
X219379885Y-114693614D01*
X219451314Y-114729328D01*
X219487028Y-114765042D01*
X219522742Y-114836471D01*
X219522742Y-114979328D01*
X219487028Y-115050757D01*
X219451314Y-115086471D01*
X219379885Y-115122185D01*
X219237028Y-115122185D01*
X219165600Y-115086471D01*
X219129885Y-115050757D01*
X219094171Y-114979328D01*
X219094171Y-114836471D01*
X219129885Y-114765042D01*
X219165600Y-114729328D01*
X219237028Y-114693614D01*
X220294142Y-113306085D02*
X220544142Y-112948942D01*
X220722714Y-113306085D02*
X220722714Y-112556085D01*
X220437000Y-112556085D01*
X220365571Y-112591800D01*
X220329857Y-112627514D01*
X220294142Y-112698942D01*
X220294142Y-112806085D01*
X220329857Y-112877514D01*
X220365571Y-112913228D01*
X220437000Y-112948942D01*
X220722714Y-112948942D01*
X220008428Y-112627514D02*
X219972714Y-112591800D01*
X219901285Y-112556085D01*
X219722714Y-112556085D01*
X219651285Y-112591800D01*
X219615571Y-112627514D01*
X219579857Y-112698942D01*
X219579857Y-112770371D01*
X219615571Y-112877514D01*
X220044142Y-113306085D01*
X219579857Y-113306085D01*
X219222714Y-113306085D02*
X219079857Y-113306085D01*
X219008428Y-113270371D01*
X218972714Y-113234657D01*
X218901285Y-113127514D01*
X218865571Y-112984657D01*
X218865571Y-112698942D01*
X218901285Y-112627514D01*
X218937000Y-112591800D01*
X219008428Y-112556085D01*
X219151285Y-112556085D01*
X219222714Y-112591800D01*
X219258428Y-112627514D01*
X219294142Y-112698942D01*
X219294142Y-112877514D01*
X219258428Y-112948942D01*
X219222714Y-112984657D01*
X219151285Y-113020371D01*
X219008428Y-113020371D01*
X218937000Y-112984657D01*
X218901285Y-112948942D01*
X218865571Y-112877514D01*
D12*
X268230000Y-131548095D02*
X268182380Y-131452857D01*
X268182380Y-131310000D01*
X268230000Y-131167142D01*
X268325238Y-131071904D01*
X268420476Y-131024285D01*
X268610952Y-130976666D01*
X268753809Y-130976666D01*
X268944285Y-131024285D01*
X269039523Y-131071904D01*
X269134761Y-131167142D01*
X269182380Y-131310000D01*
X269182380Y-131405238D01*
X269134761Y-131548095D01*
X269087142Y-131595714D01*
X268753809Y-131595714D01*
X268753809Y-131405238D01*
X269182380Y-132024285D02*
X268182380Y-132024285D01*
X269182380Y-132595714D01*
X268182380Y-132595714D01*
X269182380Y-133071904D02*
X268182380Y-133071904D01*
X268182380Y-133310000D01*
X268230000Y-133452857D01*
X268325238Y-133548095D01*
X268420476Y-133595714D01*
X268610952Y-133643333D01*
X268753809Y-133643333D01*
X268944285Y-133595714D01*
X269039523Y-133548095D01*
X269134761Y-133452857D01*
X269182380Y-133310000D01*
X269182380Y-133071904D01*
X280774746Y-129311312D02*
X280774746Y-128311312D01*
X280536651Y-128311312D01*
X280393793Y-128358932D01*
X280298555Y-128454170D01*
X280250936Y-128549408D01*
X280203317Y-128739884D01*
X280203317Y-128882741D01*
X280250936Y-129073217D01*
X280298555Y-129168455D01*
X280393793Y-129263693D01*
X280536651Y-129311312D01*
X280774746Y-129311312D01*
X279298555Y-128311312D02*
X279774746Y-128311312D01*
X279822365Y-128787503D01*
X279774746Y-128739884D01*
X279679508Y-128692265D01*
X279441412Y-128692265D01*
X279346174Y-128739884D01*
X279298555Y-128787503D01*
X279250936Y-128882741D01*
X279250936Y-129120836D01*
X279298555Y-129216074D01*
X279346174Y-129263693D01*
X279441412Y-129311312D01*
X279679508Y-129311312D01*
X279774746Y-129263693D01*
X279822365Y-129216074D01*
M02*
