G04 #@! TF.GenerationSoftware,KiCad,Pcbnew,(5.1.10-1-10_14)*
G04 #@! TF.CreationDate,2022-04-27T11:01:26-07:00*
G04 #@! TF.ProjectId,ulc-mm,756c632d-6d6d-42e6-9b69-6361645f7063,rev?*
G04 #@! TF.SameCoordinates,Original*
G04 #@! TF.FileFunction,Copper,L1,Top*
G04 #@! TF.FilePolarity,Positive*
%FSLAX46Y46*%
G04 Gerber Fmt 4.6, Leading zero omitted, Abs format (unit mm)*
G04 Created by KiCad (PCBNEW (5.1.10-1-10_14)) date 2022-04-27 11:01:26*
%MOMM*%
%LPD*%
G01*
G04 APERTURE LIST*
G04 #@! TA.AperFunction,ComponentPad*
%ADD10R,1.700000X1.700000*%
G04 #@! TD*
G04 #@! TA.AperFunction,ComponentPad*
%ADD11O,1.700000X1.700000*%
G04 #@! TD*
G04 #@! TA.AperFunction,ComponentPad*
%ADD12O,0.800000X1.300000*%
G04 #@! TD*
G04 #@! TA.AperFunction,SMDPad,CuDef*
%ADD13R,0.300000X1.000000*%
G04 #@! TD*
G04 #@! TA.AperFunction,SMDPad,CuDef*
%ADD14R,1.750000X1.050000*%
G04 #@! TD*
G04 #@! TA.AperFunction,ComponentPad*
%ADD15C,2.800000*%
G04 #@! TD*
G04 #@! TA.AperFunction,SMDPad,CuDef*
%ADD16R,1.060000X1.060000*%
G04 #@! TD*
G04 #@! TA.AperFunction,SMDPad,CuDef*
%ADD17R,0.650000X1.060000*%
G04 #@! TD*
G04 #@! TA.AperFunction,SMDPad,CuDef*
%ADD18R,0.450000X0.700000*%
G04 #@! TD*
G04 #@! TA.AperFunction,SMDPad,CuDef*
%ADD19R,2.400000X0.740000*%
G04 #@! TD*
G04 #@! TA.AperFunction,SMDPad,CuDef*
%ADD20R,6.170000X0.500000*%
G04 #@! TD*
G04 #@! TA.AperFunction,SMDPad,CuDef*
%ADD21R,1.675000X3.400000*%
G04 #@! TD*
G04 #@! TA.AperFunction,SMDPad,CuDef*
%ADD22R,0.300000X1.600000*%
G04 #@! TD*
G04 #@! TA.AperFunction,SMDPad,CuDef*
%ADD23R,6.170000X2.400000*%
G04 #@! TD*
G04 #@! TA.AperFunction,ComponentPad*
%ADD24C,0.300000*%
G04 #@! TD*
G04 #@! TA.AperFunction,SMDPad,CuDef*
%ADD25R,3.960000X3.960000*%
G04 #@! TD*
G04 #@! TA.AperFunction,ComponentPad*
%ADD26C,3.960000*%
G04 #@! TD*
G04 #@! TA.AperFunction,ComponentPad*
%ADD27R,1.600000X1.600000*%
G04 #@! TD*
G04 #@! TA.AperFunction,ComponentPad*
%ADD28C,1.600000*%
G04 #@! TD*
G04 #@! TA.AperFunction,ComponentPad*
%ADD29C,1.440000*%
G04 #@! TD*
G04 #@! TA.AperFunction,SMDPad,CuDef*
%ADD30R,1.120000X2.440000*%
G04 #@! TD*
G04 #@! TA.AperFunction,ComponentPad*
%ADD31R,2.280000X2.280000*%
G04 #@! TD*
G04 #@! TA.AperFunction,ComponentPad*
%ADD32C,2.280000*%
G04 #@! TD*
G04 #@! TA.AperFunction,SMDPad,CuDef*
%ADD33R,0.700000X0.450000*%
G04 #@! TD*
G04 #@! TA.AperFunction,SMDPad,CuDef*
%ADD34R,2.500000X2.300000*%
G04 #@! TD*
G04 #@! TA.AperFunction,SMDPad,CuDef*
%ADD35R,15.000000X15.000000*%
G04 #@! TD*
G04 #@! TA.AperFunction,ComponentPad*
%ADD36C,5.400000*%
G04 #@! TD*
G04 #@! TA.AperFunction,ComponentPad*
%ADD37C,6.400000*%
G04 #@! TD*
G04 #@! TA.AperFunction,ViaPad*
%ADD38C,1.000000*%
G04 #@! TD*
G04 #@! TA.AperFunction,ViaPad*
%ADD39C,0.600000*%
G04 #@! TD*
G04 #@! TA.AperFunction,ViaPad*
%ADD40C,0.900000*%
G04 #@! TD*
G04 #@! TA.AperFunction,Conductor*
%ADD41C,0.500000*%
G04 #@! TD*
G04 #@! TA.AperFunction,Conductor*
%ADD42C,0.200000*%
G04 #@! TD*
G04 #@! TA.AperFunction,Conductor*
%ADD43C,0.750000*%
G04 #@! TD*
G04 #@! TA.AperFunction,Conductor*
%ADD44C,0.350000*%
G04 #@! TD*
G04 #@! TA.AperFunction,Conductor*
%ADD45C,0.254000*%
G04 #@! TD*
G04 #@! TA.AperFunction,Conductor*
%ADD46C,0.150000*%
G04 #@! TD*
G04 APERTURE END LIST*
G04 #@! TA.AperFunction,SMDPad,CuDef*
G36*
G01*
X215650960Y-167962590D02*
X215650960Y-167450090D01*
G75*
G02*
X215869710Y-167231340I218750J0D01*
G01*
X216307210Y-167231340D01*
G75*
G02*
X216525960Y-167450090I0J-218750D01*
G01*
X216525960Y-167962590D01*
G75*
G02*
X216307210Y-168181340I-218750J0D01*
G01*
X215869710Y-168181340D01*
G75*
G02*
X215650960Y-167962590I0J218750D01*
G01*
G37*
G04 #@! TD.AperFunction*
G04 #@! TA.AperFunction,SMDPad,CuDef*
G36*
G01*
X214075960Y-167962590D02*
X214075960Y-167450090D01*
G75*
G02*
X214294710Y-167231340I218750J0D01*
G01*
X214732210Y-167231340D01*
G75*
G02*
X214950960Y-167450090I0J-218750D01*
G01*
X214950960Y-167962590D01*
G75*
G02*
X214732210Y-168181340I-218750J0D01*
G01*
X214294710Y-168181340D01*
G75*
G02*
X214075960Y-167962590I0J218750D01*
G01*
G37*
G04 #@! TD.AperFunction*
G04 #@! TA.AperFunction,SMDPad,CuDef*
G36*
G01*
X250116450Y-106140000D02*
X249603950Y-106140000D01*
G75*
G02*
X249385200Y-105921250I0J218750D01*
G01*
X249385200Y-105483750D01*
G75*
G02*
X249603950Y-105265000I218750J0D01*
G01*
X250116450Y-105265000D01*
G75*
G02*
X250335200Y-105483750I0J-218750D01*
G01*
X250335200Y-105921250D01*
G75*
G02*
X250116450Y-106140000I-218750J0D01*
G01*
G37*
G04 #@! TD.AperFunction*
G04 #@! TA.AperFunction,SMDPad,CuDef*
G36*
G01*
X250116450Y-104565000D02*
X249603950Y-104565000D01*
G75*
G02*
X249385200Y-104346250I0J218750D01*
G01*
X249385200Y-103908750D01*
G75*
G02*
X249603950Y-103690000I218750J0D01*
G01*
X250116450Y-103690000D01*
G75*
G02*
X250335200Y-103908750I0J-218750D01*
G01*
X250335200Y-104346250D01*
G75*
G02*
X250116450Y-104565000I-218750J0D01*
G01*
G37*
G04 #@! TD.AperFunction*
D10*
X208370000Y-98770000D03*
D11*
X208370000Y-96230000D03*
X210910000Y-98770000D03*
X210910000Y-96230000D03*
X213450000Y-98770000D03*
X213450000Y-96230000D03*
X215990000Y-98770000D03*
X215990000Y-96230000D03*
X218530000Y-98770000D03*
X218530000Y-96230000D03*
X221070000Y-98770000D03*
X221070000Y-96230000D03*
X223610000Y-98770000D03*
X223610000Y-96230000D03*
X226150000Y-98770000D03*
X226150000Y-96230000D03*
X228690000Y-98770000D03*
X228690000Y-96230000D03*
X231230000Y-98770000D03*
X231230000Y-96230000D03*
X233770000Y-98770000D03*
X233770000Y-96230000D03*
X236310000Y-98770000D03*
X236310000Y-96230000D03*
X238850000Y-98770000D03*
X238850000Y-96230000D03*
X241390000Y-98770000D03*
X241390000Y-96230000D03*
X243930000Y-98770000D03*
X243930000Y-96230000D03*
X246470000Y-98770000D03*
X246470000Y-96230000D03*
X249010000Y-98770000D03*
X249010000Y-96230000D03*
X251550000Y-98770000D03*
X251550000Y-96230000D03*
X254090000Y-98770000D03*
X254090000Y-96230000D03*
X256630000Y-98770000D03*
X256630000Y-96230000D03*
D12*
X222305960Y-166581120D03*
G04 #@! TA.AperFunction,ComponentPad*
G36*
G01*
X223955960Y-166131120D02*
X223955960Y-167031120D01*
G75*
G02*
X223755960Y-167231120I-200000J0D01*
G01*
X223355960Y-167231120D01*
G75*
G02*
X223155960Y-167031120I0J200000D01*
G01*
X223155960Y-166131120D01*
G75*
G02*
X223355960Y-165931120I200000J0D01*
G01*
X223755960Y-165931120D01*
G75*
G02*
X223955960Y-166131120I0J-200000D01*
G01*
G37*
G04 #@! TD.AperFunction*
D13*
X215950000Y-108950000D03*
X216450000Y-108950000D03*
X216950000Y-108950000D03*
X217450000Y-108950000D03*
X217450000Y-106650000D03*
X216950000Y-106650000D03*
X216450000Y-106650000D03*
X215950000Y-106650000D03*
D14*
X216700000Y-107800000D03*
D15*
X228639800Y-166714000D03*
X261036200Y-113043000D03*
X203450000Y-109500000D03*
X234008600Y-166739400D03*
X203450000Y-104650000D03*
X203345180Y-157622540D03*
X239402800Y-166790200D03*
X203329940Y-152705100D03*
D16*
X228401900Y-133457900D03*
X228401900Y-135747900D03*
X228401900Y-138037900D03*
X228401900Y-140327900D03*
X228401900Y-142617900D03*
X230691900Y-133457900D03*
X230691900Y-135747900D03*
X230691900Y-138037900D03*
X230691900Y-140327900D03*
X230691900Y-142617900D03*
X232981900Y-133457900D03*
X232981900Y-135747900D03*
X232981900Y-138037900D03*
X232981900Y-140327900D03*
X232981900Y-142617900D03*
X235271900Y-133457900D03*
X235271900Y-135747900D03*
X235271900Y-138037900D03*
X235271900Y-140327900D03*
X235271900Y-142617900D03*
X237561900Y-133457900D03*
X237561900Y-135747900D03*
X237561900Y-138037900D03*
X237561900Y-140327900D03*
X237561900Y-142617900D03*
X237434900Y-159685400D03*
X237434900Y-157395400D03*
X237434900Y-155105400D03*
X237434900Y-152815400D03*
X237434900Y-150525400D03*
X235144900Y-159685400D03*
X235144900Y-157395400D03*
X235144900Y-155105400D03*
X235144900Y-152815400D03*
X235144900Y-150525400D03*
X232854900Y-159685400D03*
X232854900Y-157395400D03*
X232854900Y-155105400D03*
X232854900Y-152815400D03*
X232854900Y-150525400D03*
X230564900Y-159685400D03*
X230564900Y-157395400D03*
X230564900Y-155105400D03*
X230564900Y-152815400D03*
X230564900Y-150525400D03*
X228274900Y-159685400D03*
X228274900Y-157395400D03*
X228274900Y-155105400D03*
X228274900Y-152815400D03*
X228274900Y-150525400D03*
D17*
X214201460Y-160775340D03*
X213251460Y-160775340D03*
X212301460Y-160775340D03*
X212301460Y-162975340D03*
X214201460Y-162975340D03*
X213251460Y-162975340D03*
D18*
X232844500Y-125873300D03*
X231544500Y-125873300D03*
X232194500Y-127873300D03*
D19*
X212007300Y-122428300D03*
X215907300Y-122428300D03*
X212007300Y-123698300D03*
X215907300Y-123698300D03*
X212007300Y-124968300D03*
X215907300Y-124968300D03*
X212007300Y-126238300D03*
X215907300Y-126238300D03*
X212007300Y-127508300D03*
X215907300Y-127508300D03*
X212007300Y-128778300D03*
X215907300Y-128778300D03*
X212007300Y-130048300D03*
X215907300Y-130048300D03*
X212007300Y-131318300D03*
X215907300Y-131318300D03*
G04 #@! TA.AperFunction,ComponentPad*
G36*
G01*
X227019300Y-129507700D02*
X227019300Y-128607700D01*
G75*
G02*
X227219300Y-128407700I200000J0D01*
G01*
X227619300Y-128407700D01*
G75*
G02*
X227819300Y-128607700I0J-200000D01*
G01*
X227819300Y-129507700D01*
G75*
G02*
X227619300Y-129707700I-200000J0D01*
G01*
X227219300Y-129707700D01*
G75*
G02*
X227019300Y-129507700I0J200000D01*
G01*
G37*
G04 #@! TD.AperFunction*
D12*
X228669300Y-129057700D03*
D20*
X250565900Y-109354100D03*
X250565900Y-112254100D03*
D21*
X246643400Y-110804100D03*
D22*
X246340900Y-113604100D03*
X246990900Y-113604100D03*
X247640900Y-113604100D03*
X248290900Y-113604100D03*
X248940900Y-113604100D03*
X249590900Y-113604100D03*
X250240900Y-113604100D03*
X250890900Y-113604100D03*
X251540900Y-113604100D03*
X252190900Y-113604100D03*
X252840900Y-113604100D03*
X253490900Y-113604100D03*
X254140900Y-113604100D03*
X254790900Y-113604100D03*
X254790900Y-108004100D03*
X254140900Y-108004100D03*
X253490900Y-108004100D03*
X252840900Y-108004100D03*
X252190900Y-108004100D03*
X251540900Y-108004100D03*
X250890900Y-108004100D03*
X250240900Y-108004100D03*
X249590900Y-108004100D03*
X248940900Y-108004100D03*
X248290900Y-108004100D03*
X247640900Y-108004100D03*
X246990900Y-108004100D03*
X246340900Y-108004100D03*
D23*
X250565900Y-110804100D03*
D21*
X254488400Y-110804100D03*
D24*
X250565900Y-110804100D03*
X251865900Y-110804100D03*
X253165900Y-110804100D03*
X249265900Y-110804100D03*
X247965900Y-110804100D03*
X246665900Y-109504100D03*
X247965900Y-109504100D03*
X249265900Y-109504100D03*
X250565900Y-109504100D03*
X251865900Y-109504100D03*
X253165900Y-109504100D03*
X254465900Y-109504100D03*
X246665900Y-110804100D03*
X246665900Y-112104100D03*
X247965900Y-112104100D03*
X249265900Y-112104100D03*
X250565900Y-112104100D03*
X251865900Y-112104100D03*
X253165900Y-112104100D03*
X254465900Y-112104100D03*
X254465900Y-110804100D03*
G04 #@! TA.AperFunction,SMDPad,CuDef*
G36*
G01*
X246631900Y-118557850D02*
X246631900Y-119070350D01*
G75*
G02*
X246413150Y-119289100I-218750J0D01*
G01*
X245975650Y-119289100D01*
G75*
G02*
X245756900Y-119070350I0J218750D01*
G01*
X245756900Y-118557850D01*
G75*
G02*
X245975650Y-118339100I218750J0D01*
G01*
X246413150Y-118339100D01*
G75*
G02*
X246631900Y-118557850I0J-218750D01*
G01*
G37*
G04 #@! TD.AperFunction*
G04 #@! TA.AperFunction,SMDPad,CuDef*
G36*
G01*
X248206900Y-118557850D02*
X248206900Y-119070350D01*
G75*
G02*
X247988150Y-119289100I-218750J0D01*
G01*
X247550650Y-119289100D01*
G75*
G02*
X247331900Y-119070350I0J218750D01*
G01*
X247331900Y-118557850D01*
G75*
G02*
X247550650Y-118339100I218750J0D01*
G01*
X247988150Y-118339100D01*
G75*
G02*
X248206900Y-118557850I0J-218750D01*
G01*
G37*
G04 #@! TD.AperFunction*
G04 #@! TA.AperFunction,SMDPad,CuDef*
G36*
G01*
X244155650Y-111962780D02*
X244668150Y-111962780D01*
G75*
G02*
X244886900Y-112181530I0J-218750D01*
G01*
X244886900Y-112619030D01*
G75*
G02*
X244668150Y-112837780I-218750J0D01*
G01*
X244155650Y-112837780D01*
G75*
G02*
X243936900Y-112619030I0J218750D01*
G01*
X243936900Y-112181530D01*
G75*
G02*
X244155650Y-111962780I218750J0D01*
G01*
G37*
G04 #@! TD.AperFunction*
G04 #@! TA.AperFunction,SMDPad,CuDef*
G36*
G01*
X244155650Y-113537780D02*
X244668150Y-113537780D01*
G75*
G02*
X244886900Y-113756530I0J-218750D01*
G01*
X244886900Y-114194030D01*
G75*
G02*
X244668150Y-114412780I-218750J0D01*
G01*
X244155650Y-114412780D01*
G75*
G02*
X243936900Y-114194030I0J218750D01*
G01*
X243936900Y-113756530D01*
G75*
G02*
X244155650Y-113537780I218750J0D01*
G01*
G37*
G04 #@! TD.AperFunction*
G04 #@! TA.AperFunction,SMDPad,CuDef*
G36*
G01*
X216118550Y-145370300D02*
X215606050Y-145370300D01*
G75*
G02*
X215387300Y-145151550I0J218750D01*
G01*
X215387300Y-144714050D01*
G75*
G02*
X215606050Y-144495300I218750J0D01*
G01*
X216118550Y-144495300D01*
G75*
G02*
X216337300Y-144714050I0J-218750D01*
G01*
X216337300Y-145151550D01*
G75*
G02*
X216118550Y-145370300I-218750J0D01*
G01*
G37*
G04 #@! TD.AperFunction*
G04 #@! TA.AperFunction,SMDPad,CuDef*
G36*
G01*
X216118550Y-143795300D02*
X215606050Y-143795300D01*
G75*
G02*
X215387300Y-143576550I0J218750D01*
G01*
X215387300Y-143139050D01*
G75*
G02*
X215606050Y-142920300I218750J0D01*
G01*
X216118550Y-142920300D01*
G75*
G02*
X216337300Y-143139050I0J-218750D01*
G01*
X216337300Y-143576550D01*
G75*
G02*
X216118550Y-143795300I-218750J0D01*
G01*
G37*
G04 #@! TD.AperFunction*
D25*
X253047900Y-160985500D03*
D26*
X259647900Y-160985500D03*
X246447900Y-160985500D03*
G04 #@! TA.AperFunction,SMDPad,CuDef*
G36*
G01*
X224117600Y-138521900D02*
X224117600Y-137271900D01*
G75*
G02*
X224367600Y-137021900I250000J0D01*
G01*
X225117600Y-137021900D01*
G75*
G02*
X225367600Y-137271900I0J-250000D01*
G01*
X225367600Y-138521900D01*
G75*
G02*
X225117600Y-138771900I-250000J0D01*
G01*
X224367600Y-138771900D01*
G75*
G02*
X224117600Y-138521900I0J250000D01*
G01*
G37*
G04 #@! TD.AperFunction*
G04 #@! TA.AperFunction,SMDPad,CuDef*
G36*
G01*
X221317600Y-138521900D02*
X221317600Y-137271900D01*
G75*
G02*
X221567600Y-137021900I250000J0D01*
G01*
X222317600Y-137021900D01*
G75*
G02*
X222567600Y-137271900I0J-250000D01*
G01*
X222567600Y-138521900D01*
G75*
G02*
X222317600Y-138771900I-250000J0D01*
G01*
X221567600Y-138771900D01*
G75*
G02*
X221317600Y-138521900I0J250000D01*
G01*
G37*
G04 #@! TD.AperFunction*
G04 #@! TA.AperFunction,SMDPad,CuDef*
G36*
G01*
X245777700Y-117502950D02*
X245777700Y-116990450D01*
G75*
G02*
X245996450Y-116771700I218750J0D01*
G01*
X246433950Y-116771700D01*
G75*
G02*
X246652700Y-116990450I0J-218750D01*
G01*
X246652700Y-117502950D01*
G75*
G02*
X246433950Y-117721700I-218750J0D01*
G01*
X245996450Y-117721700D01*
G75*
G02*
X245777700Y-117502950I0J218750D01*
G01*
G37*
G04 #@! TD.AperFunction*
G04 #@! TA.AperFunction,SMDPad,CuDef*
G36*
G01*
X247352700Y-117502950D02*
X247352700Y-116990450D01*
G75*
G02*
X247571450Y-116771700I218750J0D01*
G01*
X248008950Y-116771700D01*
G75*
G02*
X248227700Y-116990450I0J-218750D01*
G01*
X248227700Y-117502950D01*
G75*
G02*
X248008950Y-117721700I-218750J0D01*
G01*
X247571450Y-117721700D01*
G75*
G02*
X247352700Y-117502950I0J218750D01*
G01*
G37*
G04 #@! TD.AperFunction*
G04 #@! TA.AperFunction,SMDPad,CuDef*
G36*
G01*
X256855650Y-107563500D02*
X257368150Y-107563500D01*
G75*
G02*
X257586900Y-107782250I0J-218750D01*
G01*
X257586900Y-108219750D01*
G75*
G02*
X257368150Y-108438500I-218750J0D01*
G01*
X256855650Y-108438500D01*
G75*
G02*
X256636900Y-108219750I0J218750D01*
G01*
X256636900Y-107782250D01*
G75*
G02*
X256855650Y-107563500I218750J0D01*
G01*
G37*
G04 #@! TD.AperFunction*
G04 #@! TA.AperFunction,SMDPad,CuDef*
G36*
G01*
X256855650Y-109138500D02*
X257368150Y-109138500D01*
G75*
G02*
X257586900Y-109357250I0J-218750D01*
G01*
X257586900Y-109794750D01*
G75*
G02*
X257368150Y-110013500I-218750J0D01*
G01*
X256855650Y-110013500D01*
G75*
G02*
X256636900Y-109794750I0J218750D01*
G01*
X256636900Y-109357250D01*
G75*
G02*
X256855650Y-109138500I218750J0D01*
G01*
G37*
G04 #@! TD.AperFunction*
G04 #@! TA.AperFunction,SMDPad,CuDef*
G36*
G01*
X255496900Y-117307850D02*
X255496900Y-117820350D01*
G75*
G02*
X255278150Y-118039100I-218750J0D01*
G01*
X254840650Y-118039100D01*
G75*
G02*
X254621900Y-117820350I0J218750D01*
G01*
X254621900Y-117307850D01*
G75*
G02*
X254840650Y-117089100I218750J0D01*
G01*
X255278150Y-117089100D01*
G75*
G02*
X255496900Y-117307850I0J-218750D01*
G01*
G37*
G04 #@! TD.AperFunction*
G04 #@! TA.AperFunction,SMDPad,CuDef*
G36*
G01*
X253921900Y-117307850D02*
X253921900Y-117820350D01*
G75*
G02*
X253703150Y-118039100I-218750J0D01*
G01*
X253265650Y-118039100D01*
G75*
G02*
X253046900Y-117820350I0J218750D01*
G01*
X253046900Y-117307850D01*
G75*
G02*
X253265650Y-117089100I218750J0D01*
G01*
X253703150Y-117089100D01*
G75*
G02*
X253921900Y-117307850I0J-218750D01*
G01*
G37*
G04 #@! TD.AperFunction*
G04 #@! TA.AperFunction,SMDPad,CuDef*
G36*
G01*
X209840250Y-142996500D02*
X210352750Y-142996500D01*
G75*
G02*
X210571500Y-143215250I0J-218750D01*
G01*
X210571500Y-143652750D01*
G75*
G02*
X210352750Y-143871500I-218750J0D01*
G01*
X209840250Y-143871500D01*
G75*
G02*
X209621500Y-143652750I0J218750D01*
G01*
X209621500Y-143215250D01*
G75*
G02*
X209840250Y-142996500I218750J0D01*
G01*
G37*
G04 #@! TD.AperFunction*
G04 #@! TA.AperFunction,SMDPad,CuDef*
G36*
G01*
X209840250Y-144571500D02*
X210352750Y-144571500D01*
G75*
G02*
X210571500Y-144790250I0J-218750D01*
G01*
X210571500Y-145227750D01*
G75*
G02*
X210352750Y-145446500I-218750J0D01*
G01*
X209840250Y-145446500D01*
G75*
G02*
X209621500Y-145227750I0J218750D01*
G01*
X209621500Y-144790250D01*
G75*
G02*
X209840250Y-144571500I218750J0D01*
G01*
G37*
G04 #@! TD.AperFunction*
G04 #@! TA.AperFunction,SMDPad,CuDef*
G36*
G01*
X212710450Y-144596900D02*
X213222950Y-144596900D01*
G75*
G02*
X213441700Y-144815650I0J-218750D01*
G01*
X213441700Y-145253150D01*
G75*
G02*
X213222950Y-145471900I-218750J0D01*
G01*
X212710450Y-145471900D01*
G75*
G02*
X212491700Y-145253150I0J218750D01*
G01*
X212491700Y-144815650D01*
G75*
G02*
X212710450Y-144596900I218750J0D01*
G01*
G37*
G04 #@! TD.AperFunction*
G04 #@! TA.AperFunction,SMDPad,CuDef*
G36*
G01*
X212710450Y-143021900D02*
X213222950Y-143021900D01*
G75*
G02*
X213441700Y-143240650I0J-218750D01*
G01*
X213441700Y-143678150D01*
G75*
G02*
X213222950Y-143896900I-218750J0D01*
G01*
X212710450Y-143896900D01*
G75*
G02*
X212491700Y-143678150I0J218750D01*
G01*
X212491700Y-143240650D01*
G75*
G02*
X212710450Y-143021900I218750J0D01*
G01*
G37*
G04 #@! TD.AperFunction*
D27*
X251041900Y-121274100D03*
D28*
X251041900Y-123274100D03*
G04 #@! TA.AperFunction,SMDPad,CuDef*
G36*
G01*
X217114000Y-103698050D02*
X217114000Y-103185550D01*
G75*
G02*
X217332750Y-102966800I218750J0D01*
G01*
X217770250Y-102966800D01*
G75*
G02*
X217989000Y-103185550I0J-218750D01*
G01*
X217989000Y-103698050D01*
G75*
G02*
X217770250Y-103916800I-218750J0D01*
G01*
X217332750Y-103916800D01*
G75*
G02*
X217114000Y-103698050I0J218750D01*
G01*
G37*
G04 #@! TD.AperFunction*
G04 #@! TA.AperFunction,SMDPad,CuDef*
G36*
G01*
X215539000Y-103698050D02*
X215539000Y-103185550D01*
G75*
G02*
X215757750Y-102966800I218750J0D01*
G01*
X216195250Y-102966800D01*
G75*
G02*
X216414000Y-103185550I0J-218750D01*
G01*
X216414000Y-103698050D01*
G75*
G02*
X216195250Y-103916800I-218750J0D01*
G01*
X215757750Y-103916800D01*
G75*
G02*
X215539000Y-103698050I0J218750D01*
G01*
G37*
G04 #@! TD.AperFunction*
G04 #@! TA.AperFunction,SMDPad,CuDef*
G36*
G01*
X207976460Y-159600340D02*
X209226460Y-159600340D01*
G75*
G02*
X209476460Y-159850340I0J-250000D01*
G01*
X209476460Y-160600340D01*
G75*
G02*
X209226460Y-160850340I-250000J0D01*
G01*
X207976460Y-160850340D01*
G75*
G02*
X207726460Y-160600340I0J250000D01*
G01*
X207726460Y-159850340D01*
G75*
G02*
X207976460Y-159600340I250000J0D01*
G01*
G37*
G04 #@! TD.AperFunction*
G04 #@! TA.AperFunction,SMDPad,CuDef*
G36*
G01*
X207976460Y-162400340D02*
X209226460Y-162400340D01*
G75*
G02*
X209476460Y-162650340I0J-250000D01*
G01*
X209476460Y-163400340D01*
G75*
G02*
X209226460Y-163650340I-250000J0D01*
G01*
X207976460Y-163650340D01*
G75*
G02*
X207726460Y-163400340I0J250000D01*
G01*
X207726460Y-162650340D01*
G75*
G02*
X207976460Y-162400340I250000J0D01*
G01*
G37*
G04 #@! TD.AperFunction*
G04 #@! TA.AperFunction,SMDPad,CuDef*
G36*
G01*
X210295210Y-161825340D02*
X210807710Y-161825340D01*
G75*
G02*
X211026460Y-162044090I0J-218750D01*
G01*
X211026460Y-162481590D01*
G75*
G02*
X210807710Y-162700340I-218750J0D01*
G01*
X210295210Y-162700340D01*
G75*
G02*
X210076460Y-162481590I0J218750D01*
G01*
X210076460Y-162044090D01*
G75*
G02*
X210295210Y-161825340I218750J0D01*
G01*
G37*
G04 #@! TD.AperFunction*
G04 #@! TA.AperFunction,SMDPad,CuDef*
G36*
G01*
X210295210Y-160250340D02*
X210807710Y-160250340D01*
G75*
G02*
X211026460Y-160469090I0J-218750D01*
G01*
X211026460Y-160906590D01*
G75*
G02*
X210807710Y-161125340I-218750J0D01*
G01*
X210295210Y-161125340D01*
G75*
G02*
X210076460Y-160906590I0J218750D01*
G01*
X210076460Y-160469090D01*
G75*
G02*
X210295210Y-160250340I218750J0D01*
G01*
G37*
G04 #@! TD.AperFunction*
G04 #@! TA.AperFunction,SMDPad,CuDef*
G36*
G01*
X214320810Y-165770340D02*
X214833310Y-165770340D01*
G75*
G02*
X215052060Y-165989090I0J-218750D01*
G01*
X215052060Y-166426590D01*
G75*
G02*
X214833310Y-166645340I-218750J0D01*
G01*
X214320810Y-166645340D01*
G75*
G02*
X214102060Y-166426590I0J218750D01*
G01*
X214102060Y-165989090D01*
G75*
G02*
X214320810Y-165770340I218750J0D01*
G01*
G37*
G04 #@! TD.AperFunction*
G04 #@! TA.AperFunction,SMDPad,CuDef*
G36*
G01*
X214320810Y-164195340D02*
X214833310Y-164195340D01*
G75*
G02*
X215052060Y-164414090I0J-218750D01*
G01*
X215052060Y-164851590D01*
G75*
G02*
X214833310Y-165070340I-218750J0D01*
G01*
X214320810Y-165070340D01*
G75*
G02*
X214102060Y-164851590I0J218750D01*
G01*
X214102060Y-164414090D01*
G75*
G02*
X214320810Y-164195340I218750J0D01*
G01*
G37*
G04 #@! TD.AperFunction*
G04 #@! TA.AperFunction,SMDPad,CuDef*
G36*
G01*
X211001260Y-164369090D02*
X211001260Y-164881590D01*
G75*
G02*
X210782510Y-165100340I-218750J0D01*
G01*
X210345010Y-165100340D01*
G75*
G02*
X210126260Y-164881590I0J218750D01*
G01*
X210126260Y-164369090D01*
G75*
G02*
X210345010Y-164150340I218750J0D01*
G01*
X210782510Y-164150340D01*
G75*
G02*
X211001260Y-164369090I0J-218750D01*
G01*
G37*
G04 #@! TD.AperFunction*
G04 #@! TA.AperFunction,SMDPad,CuDef*
G36*
G01*
X212576260Y-164369090D02*
X212576260Y-164881590D01*
G75*
G02*
X212357510Y-165100340I-218750J0D01*
G01*
X211920010Y-165100340D01*
G75*
G02*
X211701260Y-164881590I0J218750D01*
G01*
X211701260Y-164369090D01*
G75*
G02*
X211920010Y-164150340I218750J0D01*
G01*
X212357510Y-164150340D01*
G75*
G02*
X212576260Y-164369090I0J-218750D01*
G01*
G37*
G04 #@! TD.AperFunction*
G04 #@! TA.AperFunction,SMDPad,CuDef*
G36*
G01*
X220086020Y-161437460D02*
X220086020Y-162687460D01*
G75*
G02*
X219836020Y-162937460I-250000J0D01*
G01*
X219086020Y-162937460D01*
G75*
G02*
X218836020Y-162687460I0J250000D01*
G01*
X218836020Y-161437460D01*
G75*
G02*
X219086020Y-161187460I250000J0D01*
G01*
X219836020Y-161187460D01*
G75*
G02*
X220086020Y-161437460I0J-250000D01*
G01*
G37*
G04 #@! TD.AperFunction*
G04 #@! TA.AperFunction,SMDPad,CuDef*
G36*
G01*
X222886020Y-161437460D02*
X222886020Y-162687460D01*
G75*
G02*
X222636020Y-162937460I-250000J0D01*
G01*
X221886020Y-162937460D01*
G75*
G02*
X221636020Y-162687460I0J250000D01*
G01*
X221636020Y-161437460D01*
G75*
G02*
X221886020Y-161187460I250000J0D01*
G01*
X222636020Y-161187460D01*
G75*
G02*
X222886020Y-161437460I0J-250000D01*
G01*
G37*
G04 #@! TD.AperFunction*
G04 #@! TA.AperFunction,SMDPad,CuDef*
G36*
G01*
X210569100Y-147840700D02*
X209319100Y-147840700D01*
G75*
G02*
X209069100Y-147590700I0J250000D01*
G01*
X209069100Y-146840700D01*
G75*
G02*
X209319100Y-146590700I250000J0D01*
G01*
X210569100Y-146590700D01*
G75*
G02*
X210819100Y-146840700I0J-250000D01*
G01*
X210819100Y-147590700D01*
G75*
G02*
X210569100Y-147840700I-250000J0D01*
G01*
G37*
G04 #@! TD.AperFunction*
G04 #@! TA.AperFunction,SMDPad,CuDef*
G36*
G01*
X210569100Y-150640700D02*
X209319100Y-150640700D01*
G75*
G02*
X209069100Y-150390700I0J250000D01*
G01*
X209069100Y-149640700D01*
G75*
G02*
X209319100Y-149390700I250000J0D01*
G01*
X210569100Y-149390700D01*
G75*
G02*
X210819100Y-149640700I0J-250000D01*
G01*
X210819100Y-150390700D01*
G75*
G02*
X210569100Y-150640700I-250000J0D01*
G01*
G37*
G04 #@! TD.AperFunction*
G04 #@! TA.AperFunction,SMDPad,CuDef*
G36*
G01*
X217884300Y-150716900D02*
X216634300Y-150716900D01*
G75*
G02*
X216384300Y-150466900I0J250000D01*
G01*
X216384300Y-149716900D01*
G75*
G02*
X216634300Y-149466900I250000J0D01*
G01*
X217884300Y-149466900D01*
G75*
G02*
X218134300Y-149716900I0J-250000D01*
G01*
X218134300Y-150466900D01*
G75*
G02*
X217884300Y-150716900I-250000J0D01*
G01*
G37*
G04 #@! TD.AperFunction*
G04 #@! TA.AperFunction,SMDPad,CuDef*
G36*
G01*
X217884300Y-147916900D02*
X216634300Y-147916900D01*
G75*
G02*
X216384300Y-147666900I0J250000D01*
G01*
X216384300Y-146916900D01*
G75*
G02*
X216634300Y-146666900I250000J0D01*
G01*
X217884300Y-146666900D01*
G75*
G02*
X218134300Y-146916900I0J-250000D01*
G01*
X218134300Y-147666900D01*
G75*
G02*
X217884300Y-147916900I-250000J0D01*
G01*
G37*
G04 #@! TD.AperFunction*
G04 #@! TA.AperFunction,SMDPad,CuDef*
G36*
G01*
X214201300Y-150640700D02*
X212951300Y-150640700D01*
G75*
G02*
X212701300Y-150390700I0J250000D01*
G01*
X212701300Y-149640700D01*
G75*
G02*
X212951300Y-149390700I250000J0D01*
G01*
X214201300Y-149390700D01*
G75*
G02*
X214451300Y-149640700I0J-250000D01*
G01*
X214451300Y-150390700D01*
G75*
G02*
X214201300Y-150640700I-250000J0D01*
G01*
G37*
G04 #@! TD.AperFunction*
G04 #@! TA.AperFunction,SMDPad,CuDef*
G36*
G01*
X214201300Y-147840700D02*
X212951300Y-147840700D01*
G75*
G02*
X212701300Y-147590700I0J250000D01*
G01*
X212701300Y-146840700D01*
G75*
G02*
X212951300Y-146590700I250000J0D01*
G01*
X214201300Y-146590700D01*
G75*
G02*
X214451300Y-146840700I0J-250000D01*
G01*
X214451300Y-147590700D01*
G75*
G02*
X214201300Y-147840700I-250000J0D01*
G01*
G37*
G04 #@! TD.AperFunction*
G04 #@! TA.AperFunction,SMDPad,CuDef*
G36*
G01*
X221094500Y-133233798D02*
X221094500Y-136133802D01*
G75*
G02*
X220844502Y-136383800I-249998J0D01*
G01*
X220219498Y-136383800D01*
G75*
G02*
X219969500Y-136133802I0J249998D01*
G01*
X219969500Y-133233798D01*
G75*
G02*
X220219498Y-132983800I249998J0D01*
G01*
X220844502Y-132983800D01*
G75*
G02*
X221094500Y-133233798I0J-249998D01*
G01*
G37*
G04 #@! TD.AperFunction*
G04 #@! TA.AperFunction,SMDPad,CuDef*
G36*
G01*
X225369500Y-133233798D02*
X225369500Y-136133802D01*
G75*
G02*
X225119502Y-136383800I-249998J0D01*
G01*
X224494498Y-136383800D01*
G75*
G02*
X224244500Y-136133802I0J249998D01*
G01*
X224244500Y-133233798D01*
G75*
G02*
X224494498Y-132983800I249998J0D01*
G01*
X225119502Y-132983800D01*
G75*
G02*
X225369500Y-133233798I0J-249998D01*
G01*
G37*
G04 #@! TD.AperFunction*
D10*
X208650000Y-103400000D03*
D11*
X208650000Y-105940000D03*
X208650000Y-108480000D03*
X208650000Y-111020000D03*
X208650000Y-113560000D03*
G04 #@! TA.AperFunction,SMDPad,CuDef*
G36*
G01*
X227681800Y-109961200D02*
X227681800Y-107561200D01*
G75*
G02*
X227931800Y-107311200I250000J0D01*
G01*
X228431800Y-107311200D01*
G75*
G02*
X228681800Y-107561200I0J-250000D01*
G01*
X228681800Y-109961200D01*
G75*
G02*
X228431800Y-110211200I-250000J0D01*
G01*
X227931800Y-110211200D01*
G75*
G02*
X227681800Y-109961200I0J250000D01*
G01*
G37*
G04 #@! TD.AperFunction*
G04 #@! TA.AperFunction,SMDPad,CuDef*
G36*
G01*
X229681800Y-109961200D02*
X229681800Y-107561200D01*
G75*
G02*
X229931800Y-107311200I250000J0D01*
G01*
X230431800Y-107311200D01*
G75*
G02*
X230681800Y-107561200I0J-250000D01*
G01*
X230681800Y-109961200D01*
G75*
G02*
X230431800Y-110211200I-250000J0D01*
G01*
X229931800Y-110211200D01*
G75*
G02*
X229681800Y-109961200I0J250000D01*
G01*
G37*
G04 #@! TD.AperFunction*
G04 #@! TA.AperFunction,SMDPad,CuDef*
G36*
G01*
X231681800Y-109961200D02*
X231681800Y-107561200D01*
G75*
G02*
X231931800Y-107311200I250000J0D01*
G01*
X232431800Y-107311200D01*
G75*
G02*
X232681800Y-107561200I0J-250000D01*
G01*
X232681800Y-109961200D01*
G75*
G02*
X232431800Y-110211200I-250000J0D01*
G01*
X231931800Y-110211200D01*
G75*
G02*
X231681800Y-109961200I0J250000D01*
G01*
G37*
G04 #@! TD.AperFunction*
G04 #@! TA.AperFunction,SMDPad,CuDef*
G36*
G01*
X233681800Y-109961200D02*
X233681800Y-107561200D01*
G75*
G02*
X233931800Y-107311200I250000J0D01*
G01*
X234431800Y-107311200D01*
G75*
G02*
X234681800Y-107561200I0J-250000D01*
G01*
X234681800Y-109961200D01*
G75*
G02*
X234431800Y-110211200I-250000J0D01*
G01*
X233931800Y-110211200D01*
G75*
G02*
X233681800Y-109961200I0J250000D01*
G01*
G37*
G04 #@! TD.AperFunction*
G04 #@! TA.AperFunction,SMDPad,CuDef*
G36*
G01*
X235681800Y-109961200D02*
X235681800Y-107561200D01*
G75*
G02*
X235931800Y-107311200I250000J0D01*
G01*
X236431800Y-107311200D01*
G75*
G02*
X236681800Y-107561200I0J-250000D01*
G01*
X236681800Y-109961200D01*
G75*
G02*
X236431800Y-110211200I-250000J0D01*
G01*
X235931800Y-110211200D01*
G75*
G02*
X235681800Y-109961200I0J250000D01*
G01*
G37*
G04 #@! TD.AperFunction*
G04 #@! TA.AperFunction,SMDPad,CuDef*
G36*
G01*
X224931800Y-105661200D02*
X224931800Y-102561200D01*
G75*
G02*
X225181800Y-102311200I250000J0D01*
G01*
X226481800Y-102311200D01*
G75*
G02*
X226731800Y-102561200I0J-250000D01*
G01*
X226731800Y-105661200D01*
G75*
G02*
X226481800Y-105911200I-250000J0D01*
G01*
X225181800Y-105911200D01*
G75*
G02*
X224931800Y-105661200I0J250000D01*
G01*
G37*
G04 #@! TD.AperFunction*
G04 #@! TA.AperFunction,SMDPad,CuDef*
G36*
G01*
X237631800Y-105661200D02*
X237631800Y-102561200D01*
G75*
G02*
X237881800Y-102311200I250000J0D01*
G01*
X239181800Y-102311200D01*
G75*
G02*
X239431800Y-102561200I0J-250000D01*
G01*
X239431800Y-105661200D01*
G75*
G02*
X239181800Y-105911200I-250000J0D01*
G01*
X237881800Y-105911200D01*
G75*
G02*
X237631800Y-105661200I0J250000D01*
G01*
G37*
G04 #@! TD.AperFunction*
G04 #@! TA.AperFunction,SMDPad,CuDef*
G36*
G01*
X205987200Y-137395570D02*
X205987200Y-136483070D01*
G75*
G02*
X206230950Y-136239320I243750J0D01*
G01*
X206718450Y-136239320D01*
G75*
G02*
X206962200Y-136483070I0J-243750D01*
G01*
X206962200Y-137395570D01*
G75*
G02*
X206718450Y-137639320I-243750J0D01*
G01*
X206230950Y-137639320D01*
G75*
G02*
X205987200Y-137395570I0J243750D01*
G01*
G37*
G04 #@! TD.AperFunction*
G04 #@! TA.AperFunction,SMDPad,CuDef*
G36*
G01*
X204112200Y-137395570D02*
X204112200Y-136483070D01*
G75*
G02*
X204355950Y-136239320I243750J0D01*
G01*
X204843450Y-136239320D01*
G75*
G02*
X205087200Y-136483070I0J-243750D01*
G01*
X205087200Y-137395570D01*
G75*
G02*
X204843450Y-137639320I-243750J0D01*
G01*
X204355950Y-137639320D01*
G75*
G02*
X204112200Y-137395570I0J243750D01*
G01*
G37*
G04 #@! TD.AperFunction*
G04 #@! TA.AperFunction,SMDPad,CuDef*
G36*
G01*
X206635200Y-138461070D02*
X206635200Y-138973570D01*
G75*
G02*
X206416450Y-139192320I-218750J0D01*
G01*
X205978950Y-139192320D01*
G75*
G02*
X205760200Y-138973570I0J218750D01*
G01*
X205760200Y-138461070D01*
G75*
G02*
X205978950Y-138242320I218750J0D01*
G01*
X206416450Y-138242320D01*
G75*
G02*
X206635200Y-138461070I0J-218750D01*
G01*
G37*
G04 #@! TD.AperFunction*
G04 #@! TA.AperFunction,SMDPad,CuDef*
G36*
G01*
X205060200Y-138461070D02*
X205060200Y-138973570D01*
G75*
G02*
X204841450Y-139192320I-218750J0D01*
G01*
X204403950Y-139192320D01*
G75*
G02*
X204185200Y-138973570I0J218750D01*
G01*
X204185200Y-138461070D01*
G75*
G02*
X204403950Y-138242320I218750J0D01*
G01*
X204841450Y-138242320D01*
G75*
G02*
X205060200Y-138461070I0J-218750D01*
G01*
G37*
G04 #@! TD.AperFunction*
G04 #@! TA.AperFunction,SMDPad,CuDef*
G36*
G01*
X254650900Y-115790350D02*
X254650900Y-115277850D01*
G75*
G02*
X254869650Y-115059100I218750J0D01*
G01*
X255307150Y-115059100D01*
G75*
G02*
X255525900Y-115277850I0J-218750D01*
G01*
X255525900Y-115790350D01*
G75*
G02*
X255307150Y-116009100I-218750J0D01*
G01*
X254869650Y-116009100D01*
G75*
G02*
X254650900Y-115790350I0J218750D01*
G01*
G37*
G04 #@! TD.AperFunction*
G04 #@! TA.AperFunction,SMDPad,CuDef*
G36*
G01*
X256225900Y-115790350D02*
X256225900Y-115277850D01*
G75*
G02*
X256444650Y-115059100I218750J0D01*
G01*
X256882150Y-115059100D01*
G75*
G02*
X257100900Y-115277850I0J-218750D01*
G01*
X257100900Y-115790350D01*
G75*
G02*
X256882150Y-116009100I-218750J0D01*
G01*
X256444650Y-116009100D01*
G75*
G02*
X256225900Y-115790350I0J218750D01*
G01*
G37*
G04 #@! TD.AperFunction*
G04 #@! TA.AperFunction,SMDPad,CuDef*
G36*
G01*
X235012950Y-126372500D02*
X234100450Y-126372500D01*
G75*
G02*
X233856700Y-126128750I0J243750D01*
G01*
X233856700Y-125641250D01*
G75*
G02*
X234100450Y-125397500I243750J0D01*
G01*
X235012950Y-125397500D01*
G75*
G02*
X235256700Y-125641250I0J-243750D01*
G01*
X235256700Y-126128750D01*
G75*
G02*
X235012950Y-126372500I-243750J0D01*
G01*
G37*
G04 #@! TD.AperFunction*
G04 #@! TA.AperFunction,SMDPad,CuDef*
G36*
G01*
X235012950Y-128247500D02*
X234100450Y-128247500D01*
G75*
G02*
X233856700Y-128003750I0J243750D01*
G01*
X233856700Y-127516250D01*
G75*
G02*
X234100450Y-127272500I243750J0D01*
G01*
X235012950Y-127272500D01*
G75*
G02*
X235256700Y-127516250I0J-243750D01*
G01*
X235256700Y-128003750D01*
G75*
G02*
X235012950Y-128247500I-243750J0D01*
G01*
G37*
G04 #@! TD.AperFunction*
G04 #@! TA.AperFunction,SMDPad,CuDef*
G36*
G01*
X236167350Y-125559400D02*
X236679850Y-125559400D01*
G75*
G02*
X236898600Y-125778150I0J-218750D01*
G01*
X236898600Y-126215650D01*
G75*
G02*
X236679850Y-126434400I-218750J0D01*
G01*
X236167350Y-126434400D01*
G75*
G02*
X235948600Y-126215650I0J218750D01*
G01*
X235948600Y-125778150D01*
G75*
G02*
X236167350Y-125559400I218750J0D01*
G01*
G37*
G04 #@! TD.AperFunction*
G04 #@! TA.AperFunction,SMDPad,CuDef*
G36*
G01*
X236167350Y-127134400D02*
X236679850Y-127134400D01*
G75*
G02*
X236898600Y-127353150I0J-218750D01*
G01*
X236898600Y-127790650D01*
G75*
G02*
X236679850Y-128009400I-218750J0D01*
G01*
X236167350Y-128009400D01*
G75*
G02*
X235948600Y-127790650I0J218750D01*
G01*
X235948600Y-127353150D01*
G75*
G02*
X236167350Y-127134400I218750J0D01*
G01*
G37*
G04 #@! TD.AperFunction*
G04 #@! TA.AperFunction,SMDPad,CuDef*
G36*
G01*
X212633010Y-166710240D02*
X211720510Y-166710240D01*
G75*
G02*
X211476760Y-166466490I0J243750D01*
G01*
X211476760Y-165978990D01*
G75*
G02*
X211720510Y-165735240I243750J0D01*
G01*
X212633010Y-165735240D01*
G75*
G02*
X212876760Y-165978990I0J-243750D01*
G01*
X212876760Y-166466490D01*
G75*
G02*
X212633010Y-166710240I-243750J0D01*
G01*
G37*
G04 #@! TD.AperFunction*
G04 #@! TA.AperFunction,SMDPad,CuDef*
G36*
G01*
X212633010Y-168585240D02*
X211720510Y-168585240D01*
G75*
G02*
X211476760Y-168341490I0J243750D01*
G01*
X211476760Y-167853990D01*
G75*
G02*
X211720510Y-167610240I243750J0D01*
G01*
X212633010Y-167610240D01*
G75*
G02*
X212876760Y-167853990I0J-243750D01*
G01*
X212876760Y-168341490D01*
G75*
G02*
X212633010Y-168585240I-243750J0D01*
G01*
G37*
G04 #@! TD.AperFunction*
G04 #@! TA.AperFunction,SMDPad,CuDef*
G36*
G01*
X225003550Y-151117600D02*
X224091050Y-151117600D01*
G75*
G02*
X223847300Y-150873850I0J243750D01*
G01*
X223847300Y-150386350D01*
G75*
G02*
X224091050Y-150142600I243750J0D01*
G01*
X225003550Y-150142600D01*
G75*
G02*
X225247300Y-150386350I0J-243750D01*
G01*
X225247300Y-150873850D01*
G75*
G02*
X225003550Y-151117600I-243750J0D01*
G01*
G37*
G04 #@! TD.AperFunction*
G04 #@! TA.AperFunction,SMDPad,CuDef*
G36*
G01*
X225003550Y-149242600D02*
X224091050Y-149242600D01*
G75*
G02*
X223847300Y-148998850I0J243750D01*
G01*
X223847300Y-148511350D01*
G75*
G02*
X224091050Y-148267600I243750J0D01*
G01*
X225003550Y-148267600D01*
G75*
G02*
X225247300Y-148511350I0J-243750D01*
G01*
X225247300Y-148998850D01*
G75*
G02*
X225003550Y-149242600I-243750J0D01*
G01*
G37*
G04 #@! TD.AperFunction*
G04 #@! TA.AperFunction,SMDPad,CuDef*
G36*
G01*
X225978400Y-146344650D02*
X225978400Y-145832150D01*
G75*
G02*
X226197150Y-145613400I218750J0D01*
G01*
X226634650Y-145613400D01*
G75*
G02*
X226853400Y-145832150I0J-218750D01*
G01*
X226853400Y-146344650D01*
G75*
G02*
X226634650Y-146563400I-218750J0D01*
G01*
X226197150Y-146563400D01*
G75*
G02*
X225978400Y-146344650I0J218750D01*
G01*
G37*
G04 #@! TD.AperFunction*
G04 #@! TA.AperFunction,SMDPad,CuDef*
G36*
G01*
X227553400Y-146344650D02*
X227553400Y-145832150D01*
G75*
G02*
X227772150Y-145613400I218750J0D01*
G01*
X228209650Y-145613400D01*
G75*
G02*
X228428400Y-145832150I0J-218750D01*
G01*
X228428400Y-146344650D01*
G75*
G02*
X228209650Y-146563400I-218750J0D01*
G01*
X227772150Y-146563400D01*
G75*
G02*
X227553400Y-146344650I0J218750D01*
G01*
G37*
G04 #@! TD.AperFunction*
G04 #@! TA.AperFunction,SMDPad,CuDef*
G36*
G01*
X219507920Y-164303030D02*
X219507920Y-164815530D01*
G75*
G02*
X219289170Y-165034280I-218750J0D01*
G01*
X218851670Y-165034280D01*
G75*
G02*
X218632920Y-164815530I0J218750D01*
G01*
X218632920Y-164303030D01*
G75*
G02*
X218851670Y-164084280I218750J0D01*
G01*
X219289170Y-164084280D01*
G75*
G02*
X219507920Y-164303030I0J-218750D01*
G01*
G37*
G04 #@! TD.AperFunction*
G04 #@! TA.AperFunction,SMDPad,CuDef*
G36*
G01*
X217932920Y-164303030D02*
X217932920Y-164815530D01*
G75*
G02*
X217714170Y-165034280I-218750J0D01*
G01*
X217276670Y-165034280D01*
G75*
G02*
X217057920Y-164815530I0J218750D01*
G01*
X217057920Y-164303030D01*
G75*
G02*
X217276670Y-164084280I218750J0D01*
G01*
X217714170Y-164084280D01*
G75*
G02*
X217932920Y-164303030I0J-218750D01*
G01*
G37*
G04 #@! TD.AperFunction*
G04 #@! TA.AperFunction,SMDPad,CuDef*
G36*
G01*
X224929150Y-146687900D02*
X224016650Y-146687900D01*
G75*
G02*
X223772900Y-146444150I0J243750D01*
G01*
X223772900Y-145956650D01*
G75*
G02*
X224016650Y-145712900I243750J0D01*
G01*
X224929150Y-145712900D01*
G75*
G02*
X225172900Y-145956650I0J-243750D01*
G01*
X225172900Y-146444150D01*
G75*
G02*
X224929150Y-146687900I-243750J0D01*
G01*
G37*
G04 #@! TD.AperFunction*
G04 #@! TA.AperFunction,SMDPad,CuDef*
G36*
G01*
X224929150Y-144812900D02*
X224016650Y-144812900D01*
G75*
G02*
X223772900Y-144569150I0J243750D01*
G01*
X223772900Y-144081650D01*
G75*
G02*
X224016650Y-143837900I243750J0D01*
G01*
X224929150Y-143837900D01*
G75*
G02*
X225172900Y-144081650I0J-243750D01*
G01*
X225172900Y-144569150D01*
G75*
G02*
X224929150Y-144812900I-243750J0D01*
G01*
G37*
G04 #@! TD.AperFunction*
G04 #@! TA.AperFunction,SMDPad,CuDef*
G36*
G01*
X221252700Y-142377750D02*
X221252700Y-142890250D01*
G75*
G02*
X221033950Y-143109000I-218750J0D01*
G01*
X220596450Y-143109000D01*
G75*
G02*
X220377700Y-142890250I0J218750D01*
G01*
X220377700Y-142377750D01*
G75*
G02*
X220596450Y-142159000I218750J0D01*
G01*
X221033950Y-142159000D01*
G75*
G02*
X221252700Y-142377750I0J-218750D01*
G01*
G37*
G04 #@! TD.AperFunction*
G04 #@! TA.AperFunction,SMDPad,CuDef*
G36*
G01*
X222827700Y-142377750D02*
X222827700Y-142890250D01*
G75*
G02*
X222608950Y-143109000I-218750J0D01*
G01*
X222171450Y-143109000D01*
G75*
G02*
X221952700Y-142890250I0J218750D01*
G01*
X221952700Y-142377750D01*
G75*
G02*
X222171450Y-142159000I218750J0D01*
G01*
X222608950Y-142159000D01*
G75*
G02*
X222827700Y-142377750I0J-218750D01*
G01*
G37*
G04 #@! TD.AperFunction*
D29*
X260223400Y-103886300D03*
X262763400Y-106426300D03*
X260223400Y-108966300D03*
D30*
X232969200Y-122097800D03*
X238049200Y-113487800D03*
X235509200Y-122097800D03*
X235509200Y-113487800D03*
X238049200Y-122097800D03*
X232969200Y-113487800D03*
G04 #@! TA.AperFunction,SMDPad,CuDef*
G36*
G01*
X233279700Y-145831700D02*
X233279700Y-147081700D01*
G75*
G02*
X233029700Y-147331700I-250000J0D01*
G01*
X232279700Y-147331700D01*
G75*
G02*
X232029700Y-147081700I0J250000D01*
G01*
X232029700Y-145831700D01*
G75*
G02*
X232279700Y-145581700I250000J0D01*
G01*
X233029700Y-145581700D01*
G75*
G02*
X233279700Y-145831700I0J-250000D01*
G01*
G37*
G04 #@! TD.AperFunction*
G04 #@! TA.AperFunction,SMDPad,CuDef*
G36*
G01*
X230479700Y-145831700D02*
X230479700Y-147081700D01*
G75*
G02*
X230229700Y-147331700I-250000J0D01*
G01*
X229479700Y-147331700D01*
G75*
G02*
X229229700Y-147081700I0J250000D01*
G01*
X229229700Y-145831700D01*
G75*
G02*
X229479700Y-145581700I250000J0D01*
G01*
X230229700Y-145581700D01*
G75*
G02*
X230479700Y-145831700I0J-250000D01*
G01*
G37*
G04 #@! TD.AperFunction*
G04 #@! TA.AperFunction,SMDPad,CuDef*
G36*
G01*
X244968150Y-117479100D02*
X244455650Y-117479100D01*
G75*
G02*
X244236900Y-117260350I0J218750D01*
G01*
X244236900Y-116822850D01*
G75*
G02*
X244455650Y-116604100I218750J0D01*
G01*
X244968150Y-116604100D01*
G75*
G02*
X245186900Y-116822850I0J-218750D01*
G01*
X245186900Y-117260350D01*
G75*
G02*
X244968150Y-117479100I-218750J0D01*
G01*
G37*
G04 #@! TD.AperFunction*
G04 #@! TA.AperFunction,SMDPad,CuDef*
G36*
G01*
X244968150Y-115904100D02*
X244455650Y-115904100D01*
G75*
G02*
X244236900Y-115685350I0J218750D01*
G01*
X244236900Y-115247850D01*
G75*
G02*
X244455650Y-115029100I218750J0D01*
G01*
X244968150Y-115029100D01*
G75*
G02*
X245186900Y-115247850I0J-218750D01*
G01*
X245186900Y-115685350D01*
G75*
G02*
X244968150Y-115904100I-218750J0D01*
G01*
G37*
G04 #@! TD.AperFunction*
G04 #@! TA.AperFunction,SMDPad,CuDef*
G36*
G01*
X245776900Y-115960350D02*
X245776900Y-115447850D01*
G75*
G02*
X245995650Y-115229100I218750J0D01*
G01*
X246433150Y-115229100D01*
G75*
G02*
X246651900Y-115447850I0J-218750D01*
G01*
X246651900Y-115960350D01*
G75*
G02*
X246433150Y-116179100I-218750J0D01*
G01*
X245995650Y-116179100D01*
G75*
G02*
X245776900Y-115960350I0J218750D01*
G01*
G37*
G04 #@! TD.AperFunction*
G04 #@! TA.AperFunction,SMDPad,CuDef*
G36*
G01*
X247351900Y-115960350D02*
X247351900Y-115447850D01*
G75*
G02*
X247570650Y-115229100I218750J0D01*
G01*
X248008150Y-115229100D01*
G75*
G02*
X248226900Y-115447850I0J-218750D01*
G01*
X248226900Y-115960350D01*
G75*
G02*
X248008150Y-116179100I-218750J0D01*
G01*
X247570650Y-116179100D01*
G75*
G02*
X247351900Y-115960350I0J218750D01*
G01*
G37*
G04 #@! TD.AperFunction*
D31*
X250131980Y-131602780D03*
D32*
X250131980Y-136682780D03*
D33*
X201044700Y-137572020D03*
X201044700Y-138872020D03*
X203044700Y-138222020D03*
G04 #@! TA.AperFunction,SMDPad,CuDef*
G36*
G01*
X218527050Y-142907600D02*
X219039550Y-142907600D01*
G75*
G02*
X219258300Y-143126350I0J-218750D01*
G01*
X219258300Y-143563850D01*
G75*
G02*
X219039550Y-143782600I-218750J0D01*
G01*
X218527050Y-143782600D01*
G75*
G02*
X218308300Y-143563850I0J218750D01*
G01*
X218308300Y-143126350D01*
G75*
G02*
X218527050Y-142907600I218750J0D01*
G01*
G37*
G04 #@! TD.AperFunction*
G04 #@! TA.AperFunction,SMDPad,CuDef*
G36*
G01*
X218527050Y-144482600D02*
X219039550Y-144482600D01*
G75*
G02*
X219258300Y-144701350I0J-218750D01*
G01*
X219258300Y-145138850D01*
G75*
G02*
X219039550Y-145357600I-218750J0D01*
G01*
X218527050Y-145357600D01*
G75*
G02*
X218308300Y-145138850I0J218750D01*
G01*
X218308300Y-144701350D01*
G75*
G02*
X218527050Y-144482600I218750J0D01*
G01*
G37*
G04 #@! TD.AperFunction*
G04 #@! TA.AperFunction,SMDPad,CuDef*
G36*
G01*
X217152100Y-105310950D02*
X217152100Y-104798450D01*
G75*
G02*
X217370850Y-104579700I218750J0D01*
G01*
X217808350Y-104579700D01*
G75*
G02*
X218027100Y-104798450I0J-218750D01*
G01*
X218027100Y-105310950D01*
G75*
G02*
X217808350Y-105529700I-218750J0D01*
G01*
X217370850Y-105529700D01*
G75*
G02*
X217152100Y-105310950I0J218750D01*
G01*
G37*
G04 #@! TD.AperFunction*
G04 #@! TA.AperFunction,SMDPad,CuDef*
G36*
G01*
X215577100Y-105310950D02*
X215577100Y-104798450D01*
G75*
G02*
X215795850Y-104579700I218750J0D01*
G01*
X216233350Y-104579700D01*
G75*
G02*
X216452100Y-104798450I0J-218750D01*
G01*
X216452100Y-105310950D01*
G75*
G02*
X216233350Y-105529700I-218750J0D01*
G01*
X215795850Y-105529700D01*
G75*
G02*
X215577100Y-105310950I0J218750D01*
G01*
G37*
G04 #@! TD.AperFunction*
D18*
X206083300Y-132667800D03*
X206733300Y-134667800D03*
X205433300Y-134667800D03*
X221615400Y-146288300D03*
X220965400Y-144288300D03*
X222265400Y-144288300D03*
X222328900Y-148707900D03*
X221028900Y-148707900D03*
X221678900Y-150707900D03*
G04 #@! TA.AperFunction,SMDPad,CuDef*
G36*
G01*
X203872550Y-133319400D02*
X202960050Y-133319400D01*
G75*
G02*
X202716300Y-133075650I0J243750D01*
G01*
X202716300Y-132588150D01*
G75*
G02*
X202960050Y-132344400I243750J0D01*
G01*
X203872550Y-132344400D01*
G75*
G02*
X204116300Y-132588150I0J-243750D01*
G01*
X204116300Y-133075650D01*
G75*
G02*
X203872550Y-133319400I-243750J0D01*
G01*
G37*
G04 #@! TD.AperFunction*
G04 #@! TA.AperFunction,SMDPad,CuDef*
G36*
G01*
X203872550Y-135194400D02*
X202960050Y-135194400D01*
G75*
G02*
X202716300Y-134950650I0J243750D01*
G01*
X202716300Y-134463150D01*
G75*
G02*
X202960050Y-134219400I243750J0D01*
G01*
X203872550Y-134219400D01*
G75*
G02*
X204116300Y-134463150I0J-243750D01*
G01*
X204116300Y-134950650D01*
G75*
G02*
X203872550Y-135194400I-243750J0D01*
G01*
G37*
G04 #@! TD.AperFunction*
G04 #@! TA.AperFunction,SMDPad,CuDef*
G36*
G01*
X201331250Y-134068600D02*
X201843750Y-134068600D01*
G75*
G02*
X202062500Y-134287350I0J-218750D01*
G01*
X202062500Y-134724850D01*
G75*
G02*
X201843750Y-134943600I-218750J0D01*
G01*
X201331250Y-134943600D01*
G75*
G02*
X201112500Y-134724850I0J218750D01*
G01*
X201112500Y-134287350D01*
G75*
G02*
X201331250Y-134068600I218750J0D01*
G01*
G37*
G04 #@! TD.AperFunction*
G04 #@! TA.AperFunction,SMDPad,CuDef*
G36*
G01*
X201331250Y-132493600D02*
X201843750Y-132493600D01*
G75*
G02*
X202062500Y-132712350I0J-218750D01*
G01*
X202062500Y-133149850D01*
G75*
G02*
X201843750Y-133368600I-218750J0D01*
G01*
X201331250Y-133368600D01*
G75*
G02*
X201112500Y-133149850I0J218750D01*
G01*
X201112500Y-132712350D01*
G75*
G02*
X201331250Y-132493600I218750J0D01*
G01*
G37*
G04 #@! TD.AperFunction*
G04 #@! TA.AperFunction,SMDPad,CuDef*
G36*
G01*
X298489200Y-108088900D02*
X297589200Y-108088900D01*
G75*
G02*
X297389200Y-107888900I0J200000D01*
G01*
X297389200Y-107488900D01*
G75*
G02*
X297589200Y-107288900I200000J0D01*
G01*
X298489200Y-107288900D01*
G75*
G02*
X298689200Y-107488900I0J-200000D01*
G01*
X298689200Y-107888900D01*
G75*
G02*
X298489200Y-108088900I-200000J0D01*
G01*
G37*
G04 #@! TD.AperFunction*
G04 #@! TA.AperFunction,SMDPad,CuDef*
G36*
G01*
X298489200Y-106838900D02*
X297589200Y-106838900D01*
G75*
G02*
X297389200Y-106638900I0J200000D01*
G01*
X297389200Y-106238900D01*
G75*
G02*
X297589200Y-106038900I200000J0D01*
G01*
X298489200Y-106038900D01*
G75*
G02*
X298689200Y-106238900I0J-200000D01*
G01*
X298689200Y-106638900D01*
G75*
G02*
X298489200Y-106838900I-200000J0D01*
G01*
G37*
G04 #@! TD.AperFunction*
G04 #@! TA.AperFunction,SMDPad,CuDef*
G36*
G01*
X298489200Y-105588900D02*
X297589200Y-105588900D01*
G75*
G02*
X297389200Y-105388900I0J200000D01*
G01*
X297389200Y-104988900D01*
G75*
G02*
X297589200Y-104788900I200000J0D01*
G01*
X298489200Y-104788900D01*
G75*
G02*
X298689200Y-104988900I0J-200000D01*
G01*
X298689200Y-105388900D01*
G75*
G02*
X298489200Y-105588900I-200000J0D01*
G01*
G37*
G04 #@! TD.AperFunction*
G04 #@! TA.AperFunction,SMDPad,CuDef*
G36*
G01*
X298489200Y-104338900D02*
X297589200Y-104338900D01*
G75*
G02*
X297389200Y-104138900I0J200000D01*
G01*
X297389200Y-103738900D01*
G75*
G02*
X297589200Y-103538900I200000J0D01*
G01*
X298489200Y-103538900D01*
G75*
G02*
X298689200Y-103738900I0J-200000D01*
G01*
X298689200Y-104138900D01*
G75*
G02*
X298489200Y-104338900I-200000J0D01*
G01*
G37*
G04 #@! TD.AperFunction*
G04 #@! TA.AperFunction,SMDPad,CuDef*
G36*
G01*
X302039201Y-111288900D02*
X299539199Y-111288900D01*
G75*
G02*
X299289200Y-111038901I0J249999D01*
G01*
X299289200Y-109438899D01*
G75*
G02*
X299539199Y-109188900I249999J0D01*
G01*
X302039201Y-109188900D01*
G75*
G02*
X302289200Y-109438899I0J-249999D01*
G01*
X302289200Y-111038901D01*
G75*
G02*
X302039201Y-111288900I-249999J0D01*
G01*
G37*
G04 #@! TD.AperFunction*
G04 #@! TA.AperFunction,SMDPad,CuDef*
G36*
G01*
X302039201Y-102438900D02*
X299539199Y-102438900D01*
G75*
G02*
X299289200Y-102188901I0J249999D01*
G01*
X299289200Y-100588899D01*
G75*
G02*
X299539199Y-100338900I249999J0D01*
G01*
X302039201Y-100338900D01*
G75*
G02*
X302289200Y-100588899I0J-249999D01*
G01*
X302289200Y-102188901D01*
G75*
G02*
X302039201Y-102438900I-249999J0D01*
G01*
G37*
G04 #@! TD.AperFunction*
D19*
X291026100Y-111503500D03*
X287126100Y-111503500D03*
X291026100Y-110233500D03*
X287126100Y-110233500D03*
X291026100Y-108963500D03*
X287126100Y-108963500D03*
X291026100Y-107693500D03*
X287126100Y-107693500D03*
X291026100Y-106423500D03*
X287126100Y-106423500D03*
X291026100Y-105153500D03*
X287126100Y-105153500D03*
X291026100Y-103883500D03*
X287126100Y-103883500D03*
X291026100Y-102613500D03*
X287126100Y-102613500D03*
D12*
X279203200Y-110398600D03*
G04 #@! TA.AperFunction,ComponentPad*
G36*
G01*
X277553200Y-110848600D02*
X277553200Y-109948600D01*
G75*
G02*
X277753200Y-109748600I200000J0D01*
G01*
X278153200Y-109748600D01*
G75*
G02*
X278353200Y-109948600I0J-200000D01*
G01*
X278353200Y-110848600D01*
G75*
G02*
X278153200Y-111048600I-200000J0D01*
G01*
X277753200Y-111048600D01*
G75*
G02*
X277553200Y-110848600I0J200000D01*
G01*
G37*
G04 #@! TD.AperFunction*
G04 #@! TA.AperFunction,SMDPad,CuDef*
G36*
G01*
X293887150Y-100817000D02*
X294399650Y-100817000D01*
G75*
G02*
X294618400Y-101035750I0J-218750D01*
G01*
X294618400Y-101473250D01*
G75*
G02*
X294399650Y-101692000I-218750J0D01*
G01*
X293887150Y-101692000D01*
G75*
G02*
X293668400Y-101473250I0J218750D01*
G01*
X293668400Y-101035750D01*
G75*
G02*
X293887150Y-100817000I218750J0D01*
G01*
G37*
G04 #@! TD.AperFunction*
G04 #@! TA.AperFunction,SMDPad,CuDef*
G36*
G01*
X293887150Y-102392000D02*
X294399650Y-102392000D01*
G75*
G02*
X294618400Y-102610750I0J-218750D01*
G01*
X294618400Y-103048250D01*
G75*
G02*
X294399650Y-103267000I-218750J0D01*
G01*
X293887150Y-103267000D01*
G75*
G02*
X293668400Y-103048250I0J218750D01*
G01*
X293668400Y-102610750D01*
G75*
G02*
X293887150Y-102392000I218750J0D01*
G01*
G37*
G04 #@! TD.AperFunction*
G04 #@! TA.AperFunction,ComponentPad*
G36*
G01*
X297568400Y-116462000D02*
X297568400Y-115562000D01*
G75*
G02*
X297768400Y-115362000I200000J0D01*
G01*
X298168400Y-115362000D01*
G75*
G02*
X298368400Y-115562000I0J-200000D01*
G01*
X298368400Y-116462000D01*
G75*
G02*
X298168400Y-116662000I-200000J0D01*
G01*
X297768400Y-116662000D01*
G75*
G02*
X297568400Y-116462000I0J200000D01*
G01*
G37*
G04 #@! TD.AperFunction*
X299218400Y-116012000D03*
G04 #@! TA.AperFunction,SMDPad,CuDef*
G36*
G01*
X295489650Y-100817000D02*
X296002150Y-100817000D01*
G75*
G02*
X296220900Y-101035750I0J-218750D01*
G01*
X296220900Y-101473250D01*
G75*
G02*
X296002150Y-101692000I-218750J0D01*
G01*
X295489650Y-101692000D01*
G75*
G02*
X295270900Y-101473250I0J218750D01*
G01*
X295270900Y-101035750D01*
G75*
G02*
X295489650Y-100817000I218750J0D01*
G01*
G37*
G04 #@! TD.AperFunction*
G04 #@! TA.AperFunction,SMDPad,CuDef*
G36*
G01*
X295489650Y-102392000D02*
X296002150Y-102392000D01*
G75*
G02*
X296220900Y-102610750I0J-218750D01*
G01*
X296220900Y-103048250D01*
G75*
G02*
X296002150Y-103267000I-218750J0D01*
G01*
X295489650Y-103267000D01*
G75*
G02*
X295270900Y-103048250I0J218750D01*
G01*
X295270900Y-102610750D01*
G75*
G02*
X295489650Y-102392000I218750J0D01*
G01*
G37*
G04 #@! TD.AperFunction*
G04 #@! TA.AperFunction,ComponentPad*
G36*
G01*
X277451600Y-104752600D02*
X277451600Y-103852600D01*
G75*
G02*
X277651600Y-103652600I200000J0D01*
G01*
X278051600Y-103652600D01*
G75*
G02*
X278251600Y-103852600I0J-200000D01*
G01*
X278251600Y-104752600D01*
G75*
G02*
X278051600Y-104952600I-200000J0D01*
G01*
X277651600Y-104952600D01*
G75*
G02*
X277451600Y-104752600I0J200000D01*
G01*
G37*
G04 #@! TD.AperFunction*
X279101600Y-104302600D03*
D34*
X286672100Y-115694500D03*
X290972100Y-115694500D03*
D12*
X277846200Y-97520800D03*
G04 #@! TA.AperFunction,ComponentPad*
G36*
G01*
X279496200Y-97070800D02*
X279496200Y-97970800D01*
G75*
G02*
X279296200Y-98170800I-200000J0D01*
G01*
X278896200Y-98170800D01*
G75*
G02*
X278696200Y-97970800I0J200000D01*
G01*
X278696200Y-97070800D01*
G75*
G02*
X278896200Y-96870800I200000J0D01*
G01*
X279296200Y-96870800D01*
G75*
G02*
X279496200Y-97070800I0J-200000D01*
G01*
G37*
G04 #@! TD.AperFunction*
G04 #@! TA.AperFunction,ComponentPad*
G36*
G01*
X286963800Y-97070800D02*
X286963800Y-97970800D01*
G75*
G02*
X286763800Y-98170800I-200000J0D01*
G01*
X286363800Y-98170800D01*
G75*
G02*
X286163800Y-97970800I0J200000D01*
G01*
X286163800Y-97070800D01*
G75*
G02*
X286363800Y-96870800I200000J0D01*
G01*
X286763800Y-96870800D01*
G75*
G02*
X286963800Y-97070800I0J-200000D01*
G01*
G37*
G04 #@! TD.AperFunction*
X285313800Y-97520800D03*
D10*
X293203600Y-97406500D03*
D11*
X295743600Y-97406500D03*
X298283600Y-97406500D03*
D24*
X279650251Y-134506811D03*
X279650251Y-133906811D03*
X280450251Y-134506811D03*
X280450251Y-133906811D03*
X280450251Y-133306811D03*
X279650251Y-133306811D03*
X280450251Y-132706811D03*
X279650251Y-132706811D03*
X279650251Y-132106811D03*
X280450251Y-132106811D03*
D35*
X280050251Y-133406811D03*
D36*
X203500000Y-97500000D03*
X261500000Y-97500000D03*
X203500000Y-146500000D03*
X261500000Y-146500000D03*
D37*
X203500000Y-165500000D03*
D38*
X217526000Y-102032100D03*
X213830000Y-109590000D03*
X207543800Y-117869000D03*
X240386000Y-146240800D03*
X209804400Y-122390200D03*
X234239200Y-136818700D03*
X231699200Y-136856800D03*
X234086800Y-141505000D03*
X233883600Y-158597900D03*
X233921700Y-153911600D03*
X233947100Y-156286500D03*
X231623000Y-153949700D03*
X217251460Y-161875340D03*
X217251460Y-163175340D03*
X217269460Y-160637520D03*
X236220400Y-106108800D03*
X217272000Y-151828800D03*
X218719800Y-141922800D03*
X220726400Y-141287800D03*
D39*
X216002000Y-110223600D03*
D38*
X213335000Y-114414600D03*
X219253200Y-113043000D03*
X230251400Y-125844600D03*
X237922200Y-125920800D03*
X220421600Y-149720600D03*
X231191200Y-144412000D03*
X201041400Y-140043200D03*
X200127000Y-134582200D03*
X208585200Y-134633000D03*
X213944600Y-129984800D03*
X226339800Y-139560600D03*
X241300400Y-152032000D03*
X209931400Y-124955600D03*
X215671800Y-118961200D03*
X223622000Y-105905600D03*
X232512000Y-131432600D03*
X255151900Y-118684100D03*
X244742100Y-118364300D03*
X208049260Y-164709140D03*
X209116060Y-164709140D03*
X231733690Y-139178618D03*
D39*
X251651180Y-119496565D03*
D38*
X218542000Y-107518500D03*
X204648200Y-140050820D03*
X233972500Y-149720600D03*
X256984900Y-113462100D03*
X244297600Y-107645500D03*
X250507900Y-119494600D03*
X216051460Y-163175340D03*
X216051460Y-161875340D03*
X214500000Y-105400000D03*
X214500000Y-102800000D03*
X234150300Y-139193600D03*
X225908000Y-108877400D03*
X245935900Y-125400100D03*
X243611900Y-117294100D03*
X208328660Y-156250940D03*
X221793200Y-139890800D03*
X235356800Y-146748800D03*
X209913620Y-156271260D03*
D40*
X219456400Y-155499100D03*
D38*
X255841900Y-107874100D03*
X239636700Y-122364800D03*
X239878000Y-129553000D03*
D40*
X216380460Y-166055340D03*
D38*
X215915640Y-156697980D03*
X238366700Y-132475300D03*
X227508200Y-147866400D03*
X238938200Y-153683000D03*
D40*
X222220001Y-112463799D03*
X218211800Y-122466400D03*
X220624800Y-113932000D03*
X218288000Y-123711000D03*
X229565600Y-113017600D03*
X232143700Y-116002100D03*
D39*
X251050890Y-116433900D03*
X251050890Y-115595700D03*
D40*
X237820600Y-118453200D03*
D39*
X252646672Y-116225528D03*
X252616100Y-115494100D03*
D40*
X227051000Y-123584000D03*
D39*
X250323566Y-116100707D03*
X250330100Y-116941900D03*
D40*
X239471600Y-118097600D03*
D39*
X248917290Y-116510100D03*
X248917290Y-115671900D03*
D40*
X216800000Y-111000000D03*
X232194500Y-106210400D03*
X219200000Y-109700000D03*
X230137100Y-106045300D03*
X216687800Y-141237000D03*
X252793900Y-106362800D03*
X249834800Y-102781400D03*
X239890700Y-115113100D03*
X236398200Y-124422200D03*
X217396460Y-167160240D03*
X240820340Y-111135460D03*
X241701720Y-144546620D03*
X225146000Y-112789000D03*
X217272000Y-145478800D03*
X226974800Y-155054600D03*
X208763000Y-136893600D03*
D39*
X255905400Y-116891100D03*
X249441100Y-117119700D03*
X252221900Y-116994100D03*
X247777400Y-106286600D03*
D40*
X235560000Y-111468200D03*
D39*
X248691800Y-106286600D03*
D40*
X232994600Y-111493600D03*
X234137600Y-106185000D03*
X284887400Y-110500200D03*
X297231800Y-102359500D03*
X285160600Y-106430000D03*
X284758100Y-102613500D03*
D38*
X222148800Y-160238740D03*
D40*
X213919200Y-126276400D03*
X289076100Y-106423500D03*
X272696600Y-121657000D03*
D39*
X282188960Y-138785660D03*
X281188960Y-138785660D03*
X280188960Y-138785660D03*
X279188960Y-138785660D03*
X278188960Y-138785660D03*
X277188960Y-138785660D03*
X282188960Y-137785660D03*
X281188960Y-137785660D03*
X280188960Y-137785660D03*
X279188960Y-137785660D03*
X278188960Y-137785660D03*
X282308340Y-129628960D03*
X281308340Y-129628960D03*
X280308340Y-129628960D03*
X279308340Y-129628960D03*
X278308340Y-129628960D03*
X277308340Y-129628960D03*
X282308340Y-128628960D03*
X281308340Y-128628960D03*
X280308340Y-128628960D03*
X279308340Y-128628960D03*
X278308340Y-128628960D03*
X277308340Y-128628960D03*
X277188960Y-137785660D03*
D40*
X274196600Y-121657000D03*
X275696600Y-121657000D03*
X277196600Y-121657000D03*
X278696600Y-121657000D03*
X280196600Y-121657000D03*
X281696600Y-121657000D03*
X283196600Y-121657000D03*
X284696600Y-121657000D03*
X286196600Y-121657000D03*
X287696600Y-121657000D03*
X272696600Y-123157000D03*
X272696600Y-124657000D03*
X277196600Y-123157000D03*
X277196600Y-124657000D03*
X278696600Y-123157000D03*
X280196600Y-123157000D03*
X281696600Y-123157000D03*
X283196600Y-123157000D03*
X284696600Y-123157000D03*
X286196600Y-123157000D03*
X278696600Y-124657000D03*
X280196600Y-124657000D03*
X281696600Y-124657000D03*
X283196600Y-124657000D03*
X284696600Y-124657000D03*
X286196600Y-124657000D03*
X289096600Y-126457000D03*
X290596600Y-126457000D03*
X292096600Y-126457000D03*
X287596600Y-132457000D03*
X287596600Y-133957000D03*
X287596600Y-135457000D03*
X287596600Y-136957000D03*
X287596600Y-138457000D03*
X287596600Y-139957000D03*
X287596600Y-141457000D03*
X287596600Y-142957000D03*
X287596600Y-144457000D03*
X289096600Y-127957000D03*
X289096600Y-129457000D03*
X289096600Y-130957000D03*
X289096600Y-132457000D03*
X289096600Y-133957000D03*
X289096600Y-135457000D03*
X289096600Y-136957000D03*
X289096600Y-138457000D03*
X289096600Y-139957000D03*
X290596600Y-127957000D03*
X290596600Y-129457000D03*
X290596600Y-130957000D03*
X290596600Y-135457000D03*
X290596600Y-136957000D03*
X290596600Y-138457000D03*
X290596600Y-139957000D03*
X292096600Y-127957000D03*
X292096600Y-129457000D03*
X292096600Y-130957000D03*
X292096600Y-135457000D03*
X292096600Y-136957000D03*
X292096600Y-138457000D03*
X292096600Y-139957000D03*
X286096600Y-132457000D03*
X286096600Y-133957000D03*
X286096600Y-135457000D03*
X286096600Y-141457000D03*
X286096600Y-142957000D03*
X286096600Y-144457000D03*
X284596600Y-141457000D03*
X283096600Y-141457000D03*
X281596600Y-141457000D03*
X280096600Y-141457000D03*
X278596600Y-141457000D03*
X277096600Y-141457000D03*
X275596600Y-141457000D03*
X274096600Y-141457000D03*
X272596600Y-141457000D03*
X284596600Y-142957000D03*
X283096600Y-142957000D03*
X281596600Y-142957000D03*
X280096600Y-142957000D03*
X278596600Y-142957000D03*
X277096600Y-142957000D03*
X275596600Y-142957000D03*
X274096600Y-142957000D03*
X272596600Y-142957000D03*
X284596600Y-144457000D03*
X283096600Y-144457000D03*
X281596600Y-144457000D03*
X280096600Y-144457000D03*
X278596600Y-144457000D03*
X277096600Y-144457000D03*
X275596600Y-144457000D03*
X274096600Y-144457000D03*
X272596600Y-144457000D03*
X272596600Y-139957000D03*
X272596600Y-138457000D03*
X272596600Y-136957000D03*
X272596600Y-135457000D03*
X272596600Y-133957000D03*
X274096600Y-139957000D03*
X275596600Y-139957000D03*
X277096600Y-139957000D03*
X278596600Y-139957000D03*
X280096600Y-139957000D03*
X281596600Y-139957000D03*
X283096600Y-139957000D03*
X284596600Y-135457000D03*
X274096600Y-138457000D03*
X274096600Y-136957000D03*
X274096600Y-135457000D03*
X275596600Y-138457000D03*
X275596600Y-136957000D03*
X275596600Y-135457000D03*
X275596600Y-132457000D03*
X275596600Y-130957000D03*
X271096600Y-139957000D03*
X269596600Y-139957000D03*
X268096600Y-139957000D03*
X271096600Y-138457000D03*
X269596600Y-138457000D03*
X268096600Y-138457000D03*
X271096600Y-136957000D03*
X269596600Y-136957000D03*
X268096600Y-136957000D03*
X271096600Y-135457000D03*
X269596600Y-135457000D03*
X268096600Y-135457000D03*
X271096600Y-133957000D03*
X269596600Y-133957000D03*
X268096600Y-133957000D03*
X269596600Y-132457000D03*
X268096600Y-132457000D03*
X271096600Y-132457000D03*
X287596600Y-130957000D03*
X281696600Y-126157000D03*
X280196600Y-126157000D03*
X278696600Y-126157000D03*
X277196600Y-126157000D03*
D41*
X217551500Y-103441800D02*
X217551500Y-105016600D01*
X217589600Y-106510400D02*
X217550001Y-106549999D01*
X217589600Y-105054700D02*
X217589600Y-106510400D01*
X217551500Y-102057600D02*
X217526000Y-102032100D01*
X217551500Y-103441800D02*
X217551500Y-102057600D01*
X217551500Y-105016600D02*
X217589600Y-105054700D01*
X209842500Y-122428300D02*
X209804400Y-122390200D01*
X212007300Y-122428300D02*
X209842500Y-122428300D01*
D42*
X216446500Y-108090000D02*
X216446500Y-108725000D01*
D41*
X216700000Y-107800000D02*
X216500001Y-107600001D01*
X216500001Y-107600001D02*
X216439999Y-107600001D01*
X216439999Y-107600001D02*
X216349999Y-107510001D01*
X216349999Y-107510001D02*
X216349999Y-106650000D01*
X215950000Y-106650000D02*
X216349999Y-106650000D01*
X212007300Y-126238300D02*
X212007300Y-124968300D01*
X212007300Y-124968300D02*
X209944100Y-124968300D01*
X209944100Y-124968300D02*
X209931400Y-124955600D01*
X221028900Y-148707900D02*
X221028900Y-149113300D01*
X221028900Y-149113300D02*
X220421600Y-149720600D01*
X224742600Y-137896900D02*
X224742600Y-137963400D01*
X224742600Y-137963400D02*
X226339800Y-139560600D01*
X212007300Y-130048300D02*
X213881100Y-130048300D01*
X213881100Y-130048300D02*
X213944600Y-129984800D01*
X206733300Y-134667800D02*
X208550400Y-134667800D01*
X208550400Y-134667800D02*
X208585200Y-134633000D01*
X201587500Y-134506100D02*
X200203100Y-134506100D01*
X200203100Y-134506100D02*
X200127000Y-134582200D01*
X201044700Y-138872020D02*
X201044700Y-140039900D01*
X201044700Y-140039900D02*
X201041400Y-140043200D01*
X229854700Y-146456700D02*
X229854700Y-145748500D01*
X229854700Y-145748500D02*
X231191200Y-144412000D01*
X229854700Y-146456700D02*
X228359200Y-146456700D01*
X228359200Y-146456700D02*
X227990900Y-146088400D01*
X237922200Y-125920800D02*
X237922200Y-126378000D01*
X237922200Y-126378000D02*
X236728300Y-127571900D01*
X236728300Y-127571900D02*
X236423600Y-127571900D01*
X231544500Y-125873300D02*
X230280100Y-125873300D01*
X230280100Y-125873300D02*
X230251400Y-125844600D01*
D42*
X216002000Y-110223600D02*
X216450000Y-109775600D01*
X216450000Y-109775600D02*
X216450000Y-108950000D01*
D41*
X220815200Y-142634000D02*
X220815200Y-141376600D01*
X220815200Y-141376600D02*
X220726400Y-141287800D01*
X218783300Y-143345100D02*
X218783300Y-141986300D01*
X218783300Y-141986300D02*
X218719800Y-141922800D01*
X220965400Y-144288300D02*
X220965400Y-142784200D01*
X220965400Y-142784200D02*
X220815200Y-142634000D01*
X217259300Y-150091900D02*
X217259300Y-151816100D01*
X217259300Y-151816100D02*
X217272000Y-151828800D01*
X215976500Y-103441800D02*
X215141800Y-103441800D01*
X215141800Y-103441800D02*
X214500000Y-102800000D01*
X236181800Y-108761200D02*
X236181800Y-106147400D01*
X236181800Y-106147400D02*
X236220400Y-106108800D01*
X246340900Y-108004100D02*
X244656200Y-108004100D01*
X244656200Y-108004100D02*
X244297600Y-107645500D01*
X217482160Y-164500740D02*
X217482160Y-163406040D01*
X217482160Y-163406040D02*
X217251460Y-163175340D01*
X255059400Y-117564100D02*
X255059400Y-118591600D01*
X255059400Y-118591600D02*
X255151900Y-118684100D01*
X246215200Y-117246700D02*
X246215200Y-118796100D01*
X246215200Y-118796100D02*
X245173900Y-118796100D01*
X245173900Y-118796100D02*
X244742100Y-118364300D01*
X216700000Y-107800000D02*
X218260500Y-107800000D01*
X218260500Y-107800000D02*
X218542000Y-107518500D01*
X204622700Y-138717320D02*
X204622700Y-140025320D01*
X256663400Y-115534100D02*
X256663400Y-113783600D01*
X256663400Y-113783600D02*
X256984900Y-113462100D01*
X254790900Y-113666600D02*
X256780400Y-113666600D01*
X256780400Y-113666600D02*
X256984900Y-113462100D01*
X253484400Y-117564100D02*
X253484400Y-115286600D01*
X253484400Y-117564100D02*
X253484400Y-118831600D01*
X253484400Y-118831600D02*
X251041900Y-121274100D01*
X244711900Y-117041600D02*
X243864400Y-117041600D01*
X243864400Y-117041600D02*
X243611900Y-117294100D01*
X251028600Y-121412300D02*
X248806200Y-121412300D01*
X248806200Y-121412300D02*
X247790200Y-120396300D01*
X247790200Y-118796100D02*
X247790200Y-120396300D01*
X247790200Y-117246700D02*
X247790200Y-118796100D01*
X247815600Y-115671900D02*
X247815600Y-117221300D01*
X247815600Y-117221300D02*
X247790200Y-117246700D01*
X248290900Y-113604100D02*
X248290900Y-115196600D01*
X248290900Y-115196600D02*
X247815600Y-115671900D01*
D43*
X228639800Y-166714000D02*
X231630180Y-163723620D01*
X231630180Y-163723620D02*
X237645340Y-163723620D01*
X237645340Y-163723620D02*
X247650400Y-153718560D01*
X247650400Y-153718560D02*
X247650400Y-144869200D01*
X247650400Y-127114600D02*
X247650400Y-144869200D01*
X247650400Y-144869200D02*
X247650400Y-146304300D01*
X250131980Y-131602780D02*
X250131980Y-129596180D01*
X250131980Y-129596180D02*
X247650400Y-127114600D01*
X245935900Y-125400100D02*
X247650400Y-127114600D01*
X247650400Y-146304300D02*
X246007020Y-147947680D01*
X246007020Y-147947680D02*
X236555680Y-147947680D01*
X236555680Y-147947680D02*
X235356800Y-146748800D01*
X227419300Y-129057700D02*
X226158100Y-129057700D01*
X226158100Y-129057700D02*
X220532000Y-134683800D01*
D41*
X208328660Y-156250940D02*
X207858760Y-156250940D01*
X232654700Y-146456700D02*
X235064700Y-146456700D01*
X235064700Y-146456700D02*
X235356800Y-146748800D01*
X221942600Y-137896900D02*
X221942600Y-139741400D01*
X221942600Y-139741400D02*
X221793200Y-139890800D01*
D43*
X212007300Y-131318300D02*
X212007300Y-133229100D01*
X212007300Y-133229100D02*
X218669000Y-139890800D01*
D41*
X218669000Y-139890800D02*
X221793200Y-139890800D01*
D43*
X212966700Y-143459400D02*
X216535300Y-139890800D01*
X216535300Y-139890800D02*
X221793200Y-139890800D01*
D41*
X228639800Y-166346200D02*
X228639800Y-166714000D01*
X210096500Y-143434000D02*
X212941300Y-143434000D01*
X212941300Y-143434000D02*
X212966700Y-143459400D01*
D43*
X220532000Y-134683800D02*
X220532000Y-136486300D01*
X220532000Y-136486300D02*
X221942600Y-137896900D01*
D41*
X253484400Y-115286600D02*
X252840900Y-114643100D01*
X252840900Y-114643100D02*
X252840900Y-113604100D01*
X235509200Y-122097800D02*
X232969200Y-122097800D01*
X238049200Y-122097800D02*
X235509200Y-122097800D01*
X239636700Y-122364800D02*
X238316200Y-122364800D01*
X238316200Y-122364800D02*
X238049200Y-122097800D01*
X233236200Y-122364800D02*
X232969200Y-122097800D01*
X254790900Y-107941600D02*
X255774400Y-107941600D01*
X255774400Y-107941600D02*
X255841900Y-107874100D01*
D42*
X246240600Y-115671900D02*
X244917200Y-115671900D01*
X244917200Y-115671900D02*
X244711900Y-115466600D01*
X246240600Y-115671900D02*
X246393100Y-115671900D01*
X246393100Y-115671900D02*
X247640900Y-114424100D01*
X247640900Y-114424100D02*
X247640900Y-113604100D01*
X246340900Y-114024600D02*
X246340900Y-113604100D01*
X246340900Y-113666600D02*
X246303400Y-113666600D01*
X244411900Y-112334100D02*
X245681900Y-113604100D01*
X245681900Y-113604100D02*
X246340900Y-113604100D01*
X246228900Y-113716100D02*
X246340900Y-113604100D01*
X244411900Y-114209100D02*
X244456900Y-114209100D01*
X244456900Y-114209100D02*
X244951901Y-114704101D01*
X244951901Y-114704101D02*
X246730901Y-114704101D01*
X246730901Y-114704101D02*
X246990900Y-114444102D01*
X246990900Y-114444102D02*
X246990900Y-113604100D01*
X213251460Y-160775340D02*
X213251460Y-159362160D01*
X213251460Y-159362160D02*
X215915640Y-156697980D01*
X214577060Y-166207840D02*
X216227960Y-166207840D01*
X216227960Y-166207840D02*
X216380460Y-166055340D01*
X216609160Y-166284040D02*
X216380460Y-166055340D01*
X214201460Y-162975340D02*
X214201460Y-164257240D01*
X214201460Y-164257240D02*
X214577060Y-164632840D01*
X212138760Y-164625340D02*
X212138760Y-165854340D01*
X212138760Y-165854340D02*
X211757660Y-166235440D01*
X212138760Y-166210140D02*
X212164060Y-166235440D01*
X212301460Y-162975340D02*
X212301460Y-164462640D01*
X212301460Y-164462640D02*
X212138760Y-164625340D01*
X212301460Y-166098040D02*
X212164060Y-166235440D01*
X212301460Y-162975340D02*
X212214860Y-163061940D01*
X218415000Y-153098800D02*
X213027200Y-153098800D01*
X213027200Y-153098800D02*
X209944100Y-150015700D01*
X220805900Y-150707900D02*
X218415000Y-153098800D01*
X221678900Y-150707900D02*
X220805900Y-150707900D01*
X209944100Y-150015700D02*
X209867900Y-149939500D01*
X210096500Y-145009000D02*
X210096500Y-147063300D01*
X210096500Y-147063300D02*
X209944100Y-147215700D01*
X215862300Y-144932800D02*
X215862300Y-145894900D01*
X215862300Y-145894900D02*
X217259300Y-147291900D01*
X206578600Y-141135400D02*
X204548778Y-141135400D01*
X204548778Y-141135400D02*
X203044700Y-139631322D01*
X203044700Y-139631322D02*
X203044700Y-138222020D01*
X209753600Y-137960400D02*
X206578600Y-141135400D01*
X209753600Y-129632000D02*
X209753600Y-137960400D01*
X212007300Y-128778300D02*
X210607300Y-128778300D01*
X210607300Y-128778300D02*
X209753600Y-129632000D01*
X212966700Y-145034400D02*
X212966700Y-146606100D01*
X212966700Y-146606100D02*
X213576300Y-147215700D01*
X220907500Y-146288300D02*
X218618200Y-148577600D01*
X221615400Y-146288300D02*
X220907500Y-146288300D01*
X218618200Y-148577600D02*
X215014400Y-148577600D01*
X215014400Y-148577600D02*
X213576300Y-150015700D01*
D41*
X228401900Y-133457900D02*
X226032900Y-133457900D01*
X226032900Y-133457900D02*
X224807000Y-134683800D01*
X230691900Y-133457900D02*
X228401900Y-133457900D01*
X228274900Y-150525400D02*
X228274900Y-148633100D01*
X228274900Y-148633100D02*
X227508200Y-147866400D01*
D42*
X215907300Y-122428300D02*
X218173700Y-122428300D01*
X218173700Y-122428300D02*
X218211800Y-122466400D01*
X222220001Y-112463799D02*
X222220001Y-112514599D01*
X221070000Y-96230000D02*
X222220001Y-97380001D01*
X222220001Y-97380001D02*
X222220001Y-112463799D01*
X215907300Y-123698300D02*
X218275300Y-123698300D01*
X218275300Y-123698300D02*
X218288000Y-123711000D01*
X220624800Y-113932000D02*
X220624800Y-113932000D01*
X220624800Y-105651600D02*
X220624800Y-113932000D01*
X219680001Y-104706801D02*
X220624800Y-105651600D01*
X218530000Y-96230000D02*
X219680001Y-97380001D01*
X219680001Y-97380001D02*
X219680001Y-104706801D01*
X215907300Y-124968300D02*
X219291300Y-124968300D01*
X219291300Y-124968300D02*
X229565600Y-114694000D01*
X229565600Y-114694000D02*
X229565600Y-113017600D01*
X229565600Y-113017600D02*
X229565600Y-113017600D01*
D44*
X219646900Y-127508300D02*
X231153100Y-116002100D01*
X231153100Y-116002100D02*
X232143700Y-116002100D01*
X215907300Y-127508300D02*
X219646900Y-127508300D01*
X251050890Y-115595700D02*
X251050890Y-116433900D01*
X250890900Y-115435710D02*
X251050890Y-115595700D01*
X250890900Y-113604100D02*
X250890900Y-115435710D01*
X215907300Y-128778300D02*
X220104100Y-128778300D01*
X220104100Y-128778300D02*
X229464000Y-119418400D01*
X229464000Y-119418400D02*
X236855400Y-119418400D01*
X236855400Y-119418400D02*
X237820600Y-118453200D01*
X252190900Y-113604100D02*
X252190900Y-115068900D01*
X252190900Y-115068900D02*
X252616100Y-115494100D01*
X227051000Y-123584000D02*
X227051000Y-123584000D01*
X220586700Y-130048300D02*
X227051000Y-123584000D01*
X215907300Y-130048300D02*
X220586700Y-130048300D01*
X250323566Y-116100707D02*
X250323566Y-116935366D01*
X250323566Y-116935366D02*
X250330100Y-116941900D01*
X250240900Y-116018041D02*
X250323566Y-116100707D01*
X250240900Y-113604100D02*
X250240900Y-116018041D01*
X250240900Y-112929100D02*
X250240900Y-113666600D01*
X248917290Y-115671900D02*
X248917290Y-116510100D01*
X231978600Y-120256600D02*
X220916900Y-131318300D01*
X220916900Y-131318300D02*
X215907300Y-131318300D01*
X237312600Y-120256600D02*
X231978600Y-120256600D01*
X239471600Y-118097600D02*
X237312600Y-120256600D01*
X248940900Y-113604100D02*
X248940900Y-115648290D01*
X248940900Y-115648290D02*
X248917290Y-115671900D01*
D42*
X232181800Y-106223100D02*
X232194500Y-106210400D01*
X207592000Y-101260000D02*
X204216400Y-104635600D01*
X213450000Y-98770000D02*
X210960000Y-101260000D01*
X210960000Y-101260000D02*
X207592000Y-101260000D01*
X216800000Y-111000000D02*
X217450000Y-110350000D01*
X217450000Y-110350000D02*
X217450000Y-108700000D01*
X232181800Y-108761200D02*
X232181800Y-106223100D01*
X208650000Y-110570000D02*
X208650000Y-111020000D01*
X210400000Y-108820000D02*
X208650000Y-110570000D01*
X210400000Y-101820000D02*
X210400000Y-108820000D01*
X210960000Y-101260000D02*
X210400000Y-101820000D01*
X215950000Y-108700000D02*
X215265400Y-109384600D01*
X215265400Y-109384600D02*
X215265400Y-111634600D01*
X215265400Y-111634600D02*
X214800000Y-112100000D01*
X214800000Y-112100000D02*
X215000000Y-112100000D01*
X230181800Y-108761200D02*
X230181800Y-106090000D01*
X230181800Y-106090000D02*
X230137100Y-106045300D01*
X214800000Y-112100000D02*
X216800000Y-112100000D01*
X216800000Y-112100000D02*
X219200000Y-109700000D01*
X210910000Y-98770000D02*
X210589998Y-98770000D01*
X210110000Y-112100000D02*
X214800000Y-112100000D01*
X208650000Y-113560000D02*
X210110000Y-112100000D01*
X208200000Y-113560000D02*
X208650000Y-113560000D01*
X204165600Y-109525600D02*
X208200000Y-113560000D01*
X204165600Y-109461600D02*
X204165600Y-109525600D01*
X202311600Y-109461600D02*
X204165600Y-109461600D01*
X200800000Y-107950000D02*
X202311600Y-109461600D01*
X210910000Y-98770000D02*
X209080000Y-100600000D01*
X209080000Y-100600000D02*
X203700000Y-100600000D01*
X200800000Y-103500000D02*
X200800000Y-107950000D01*
X203700000Y-100600000D02*
X200800000Y-103500000D01*
D44*
X232194500Y-127873300D02*
X229853700Y-127873300D01*
X229853700Y-127873300D02*
X228669300Y-129057700D01*
D42*
X215862300Y-143357800D02*
X215862300Y-142062500D01*
X215862300Y-142062500D02*
X216687800Y-141237000D01*
X253490900Y-107941600D02*
X253490900Y-99369100D01*
X253490900Y-99369100D02*
X254090000Y-98770000D01*
X254090000Y-99110998D02*
X254090000Y-98770000D01*
X254140900Y-108004100D02*
X254140900Y-106831900D01*
X254140900Y-106831900D02*
X258039000Y-102933800D01*
X258039000Y-102933800D02*
X258039000Y-97639000D01*
X258039000Y-97639000D02*
X256630000Y-96230000D01*
X256630000Y-97029000D02*
X256630000Y-96230000D01*
X252793900Y-106362800D02*
X252793900Y-97526100D01*
X252793900Y-97526100D02*
X254090000Y-96230000D01*
X252840900Y-108004100D02*
X252840900Y-106409800D01*
X252840900Y-106409800D02*
X252793900Y-106362800D01*
X249860200Y-104127500D02*
X249860200Y-102806800D01*
X249860200Y-102806800D02*
X249834800Y-102781400D01*
X251485700Y-98834300D02*
X251550000Y-98770000D01*
X251540900Y-108004100D02*
X251540900Y-101096600D01*
X251540900Y-101096600D02*
X250266600Y-99822300D01*
X250266600Y-97513400D02*
X251550000Y-96230000D01*
X250266600Y-99822300D02*
X250266600Y-97513400D01*
X236423600Y-125996900D02*
X236423600Y-124447600D01*
X236423600Y-124447600D02*
X236398200Y-124422200D01*
X234556700Y-125885000D02*
X236311700Y-125885000D01*
X236311700Y-125885000D02*
X236423600Y-125996900D01*
X240820340Y-111135460D02*
X240820340Y-143665240D01*
X240820340Y-143665240D02*
X241701720Y-144546620D01*
X216088460Y-167706340D02*
X216850360Y-167706340D01*
X216850360Y-167706340D02*
X217396460Y-167160240D01*
X228274900Y-155105400D02*
X227025600Y-155105400D01*
X227025600Y-155105400D02*
X226974800Y-155054600D01*
X218783300Y-144920100D02*
X217830700Y-144920100D01*
X217830700Y-144920100D02*
X217272000Y-145478800D01*
X221070000Y-99500000D02*
X221070000Y-98770000D01*
X221070000Y-98770000D02*
X221070000Y-99378500D01*
X206474700Y-136939320D02*
X208717280Y-136939320D01*
X208717280Y-136939320D02*
X208763000Y-136893600D01*
X206474700Y-136939320D02*
X206474700Y-138440320D01*
X206474700Y-138440320D02*
X206197700Y-138717320D01*
X205433300Y-134667800D02*
X203455400Y-134667800D01*
X203455400Y-134667800D02*
X203416300Y-134706900D01*
X222265400Y-144288300D02*
X222560800Y-144288300D01*
X222560800Y-144288300D02*
X224472900Y-146200400D01*
X260223400Y-108966300D02*
X262763400Y-106426300D01*
X261036200Y-113043000D02*
X261036200Y-109779100D01*
X261036200Y-109779100D02*
X260223400Y-108966300D01*
X255088400Y-115534100D02*
X255088400Y-116074100D01*
X255088400Y-116074100D02*
X255905400Y-116891100D01*
X253490900Y-113666600D02*
X254140900Y-113666600D01*
X254140900Y-113666600D02*
X254140900Y-114586600D01*
X254140900Y-114586600D02*
X255088400Y-115534100D01*
X228401900Y-140327900D02*
X228401900Y-140396400D01*
X228401900Y-140396400D02*
X224472900Y-144325400D01*
X222390200Y-142634000D02*
X222781500Y-142634000D01*
X222781500Y-142634000D02*
X224472900Y-144325400D01*
X249590900Y-113604100D02*
X249517300Y-113677700D01*
X249517300Y-113677700D02*
X249517300Y-117043500D01*
X249517300Y-117043500D02*
X249441100Y-117119700D01*
X251540900Y-113604100D02*
X251650900Y-113714100D01*
X251650900Y-113714100D02*
X251650900Y-116423100D01*
X251650900Y-116423100D02*
X252221900Y-116994100D01*
X247640900Y-108004100D02*
X247640900Y-107004100D01*
X247126600Y-106489800D02*
X241097200Y-106489800D01*
X247640900Y-107004100D02*
X247126600Y-106489800D01*
X241097200Y-106489800D02*
X238049200Y-109537800D01*
X238049200Y-109537800D02*
X238049200Y-113487800D01*
X235509200Y-113487800D02*
X235509200Y-111519000D01*
X235509200Y-111519000D02*
X235560000Y-111468200D01*
X248290900Y-108004100D02*
X248290900Y-106800100D01*
X248290900Y-106800100D02*
X247777400Y-106286600D01*
X232969200Y-113487800D02*
X232969200Y-111519000D01*
X232969200Y-111519000D02*
X232994600Y-111493600D01*
X248940900Y-108004100D02*
X248940900Y-106535700D01*
X248940900Y-106535700D02*
X248691800Y-106286600D01*
X231628200Y-99168200D02*
X231230000Y-98770000D01*
X289190400Y-113912800D02*
X290972100Y-115694500D01*
X289190400Y-109627800D02*
X289190400Y-113912800D01*
X288526100Y-108963500D02*
X289190400Y-109627800D01*
X287126100Y-108963500D02*
X288526100Y-108963500D01*
X299218400Y-115162000D02*
X299218400Y-116012000D01*
X297934800Y-113878400D02*
X299218400Y-115162000D01*
X292788200Y-113878400D02*
X297934800Y-113878400D01*
X290972100Y-115694500D02*
X292788200Y-113878400D01*
X279401000Y-97216000D02*
X279096200Y-97520800D01*
X282220400Y-97216000D02*
X279401000Y-97216000D01*
X286665400Y-101661000D02*
X282220400Y-97216000D01*
X290073600Y-101661000D02*
X286665400Y-101661000D01*
X291026100Y-102613500D02*
X290073600Y-101661000D01*
D44*
X291026100Y-111503500D02*
X292426100Y-111503500D01*
X298039200Y-107688900D02*
X298026500Y-107701600D01*
X298026500Y-107701600D02*
X296932000Y-107701600D01*
X296802300Y-107688900D02*
X298039200Y-107688900D01*
X292987700Y-111503500D02*
X296802300Y-107688900D01*
X292426100Y-111503500D02*
X292987700Y-111503500D01*
X292822600Y-110233500D02*
X291026100Y-110233500D01*
X296617200Y-106438900D02*
X292822600Y-110233500D01*
X298039200Y-106438900D02*
X296617200Y-106438900D01*
X296731512Y-103938900D02*
X298039200Y-103938900D01*
X292976912Y-107693500D02*
X296731512Y-103938900D01*
X291026100Y-107693500D02*
X292976912Y-107693500D01*
X296731512Y-105188900D02*
X298039200Y-105188900D01*
X292956912Y-108963500D02*
X296731512Y-105188900D01*
X291026100Y-108963500D02*
X292956912Y-108963500D01*
D42*
X294143400Y-103743800D02*
X294143400Y-102829500D01*
X292733700Y-105153500D02*
X294143400Y-103743800D01*
X291026100Y-105153500D02*
X292733700Y-105153500D01*
X288824400Y-97520800D02*
X286563800Y-97520800D01*
X292886100Y-101582500D02*
X288824400Y-97520800D01*
X292886100Y-103058000D02*
X292886100Y-101582500D01*
X292060600Y-103883500D02*
X292886100Y-103058000D01*
X291026100Y-103883500D02*
X292060600Y-103883500D01*
X293686200Y-97889100D02*
X293203600Y-97406500D01*
X294118000Y-98320900D02*
X293203600Y-97406500D01*
X294118000Y-101229100D02*
X294118000Y-98320900D01*
X294143400Y-101254500D02*
X294118000Y-101229100D01*
X295745900Y-101254500D02*
X294143400Y-101254500D01*
X250240900Y-108004100D02*
X250240900Y-106083200D01*
X250240900Y-106083200D02*
X249860200Y-105702500D01*
X213251460Y-162975340D02*
X213548360Y-163272240D01*
X213548360Y-163272240D02*
X213548360Y-166741240D01*
X213548360Y-166741240D02*
X214513460Y-167706340D01*
X213251460Y-162975340D02*
X213357860Y-163081740D01*
X250890900Y-108004100D02*
X250890900Y-102745300D01*
X250890900Y-102745300D02*
X246915600Y-98770000D01*
X246915600Y-98770000D02*
X246470000Y-98770000D01*
X234181800Y-108761200D02*
X234181800Y-106229200D01*
X234181800Y-106229200D02*
X234137600Y-106185000D01*
X277953200Y-104404200D02*
X277851600Y-104302600D01*
X277953200Y-110398600D02*
X277953200Y-104404200D01*
X279274000Y-111719400D02*
X277953200Y-110398600D01*
X286910200Y-111719400D02*
X279274000Y-111719400D01*
X287126100Y-111503500D02*
X286910200Y-111719400D01*
X285167100Y-106423500D02*
X285160600Y-106430000D01*
X287126100Y-106423500D02*
X285167100Y-106423500D01*
X296761800Y-102829500D02*
X297231800Y-102359500D01*
X295745900Y-102829500D02*
X296761800Y-102829500D01*
X287126100Y-105153500D02*
X287126100Y-106423500D01*
X285154100Y-110233500D02*
X284887400Y-110500200D01*
X287126100Y-110233500D02*
X285154100Y-110233500D01*
X287126100Y-102613500D02*
X284758100Y-102613500D01*
X296482500Y-117497900D02*
X297968400Y-116012000D01*
X288475500Y-117497900D02*
X296482500Y-117497900D01*
X286672100Y-115694500D02*
X288475500Y-117497900D01*
X212007300Y-123698300D02*
X214033500Y-123698300D01*
X214033500Y-123698300D02*
X214249400Y-123482400D01*
X214249400Y-121976198D02*
X227464398Y-108761200D01*
X214249400Y-123482400D02*
X214249400Y-121976198D01*
X227464398Y-108761200D02*
X228181800Y-108761200D01*
X228181800Y-108761200D02*
X228181800Y-99278200D01*
X228181800Y-99278200D02*
X228690000Y-98770000D01*
X204599700Y-136939320D02*
X201677400Y-136939320D01*
X201677400Y-136939320D02*
X201044700Y-137572020D01*
X232844500Y-125873300D02*
X232844500Y-126047800D01*
X232844500Y-126047800D02*
X234556700Y-127760000D01*
X216950000Y-106650000D02*
X216950000Y-105950000D01*
X216950000Y-105950000D02*
X216054700Y-105054700D01*
X216054700Y-105054700D02*
X216014600Y-105054700D01*
X222328900Y-148707900D02*
X222625100Y-148707900D01*
X222625100Y-148707900D02*
X224547300Y-150630100D01*
D41*
X223555960Y-166581120D02*
X223555960Y-159616440D01*
X222539960Y-158600440D02*
X222098460Y-158600440D01*
X223555960Y-159616440D02*
X222539960Y-158600440D01*
X222098460Y-158600440D02*
X222098460Y-156774640D01*
X211757660Y-168110440D02*
X212471160Y-168823940D01*
X212471160Y-168823940D02*
X220063140Y-168823940D01*
X220063140Y-168823940D02*
X222305960Y-166581120D01*
X222305960Y-166581120D02*
X220744180Y-166581120D01*
X219070420Y-164907360D02*
X219070420Y-164559280D01*
X220744180Y-166581120D02*
X219070420Y-164907360D01*
D42*
X215907300Y-126238300D02*
X213957300Y-126238300D01*
X213957300Y-126238300D02*
X213919200Y-126276400D01*
X212007300Y-127508300D02*
X211242800Y-127508300D01*
X211242800Y-127508300D02*
X206083300Y-132667800D01*
X201587500Y-132931100D02*
X203317100Y-132931100D01*
X203317100Y-132931100D02*
X203416300Y-132831900D01*
X225882600Y-156756400D02*
X226521600Y-157395400D01*
X226521600Y-157395400D02*
X228274900Y-157395400D01*
X225882600Y-150090400D02*
X225882600Y-156756400D01*
X224547300Y-148755100D02*
X225882600Y-150090400D01*
X224547300Y-148755100D02*
X224547300Y-147957000D01*
X224547300Y-147957000D02*
X226415900Y-146088400D01*
X224538200Y-148746000D02*
X224547300Y-148755100D01*
X279101600Y-104302600D02*
X279101600Y-105152600D01*
X281642500Y-107693500D02*
X287126100Y-107693500D01*
X279101600Y-105152600D02*
X281642500Y-107693500D01*
X291026100Y-106423500D02*
X289076100Y-106423500D01*
D45*
X290999267Y-121139123D02*
X291431181Y-121269525D01*
X291829536Y-121481335D01*
X292179165Y-121766486D01*
X292466748Y-122114114D01*
X292681337Y-122510988D01*
X292814749Y-122941972D01*
X292865251Y-123422465D01*
X292865252Y-143373295D01*
X292817939Y-143855826D01*
X292687538Y-144287737D01*
X292475731Y-144686090D01*
X292190576Y-145035724D01*
X291842948Y-145323307D01*
X291446076Y-145537895D01*
X291015085Y-145671310D01*
X290534587Y-145721811D01*
X269583755Y-145721811D01*
X269101235Y-145674499D01*
X268669324Y-145544098D01*
X268270971Y-145332291D01*
X267921337Y-145047136D01*
X267633754Y-144699508D01*
X267419166Y-144302636D01*
X267285751Y-143871645D01*
X267235246Y-143391113D01*
X267235203Y-143232944D01*
X267784951Y-143232944D01*
X267784951Y-143580678D01*
X267852790Y-143921730D01*
X267985862Y-144242994D01*
X268179053Y-144532124D01*
X268424938Y-144778009D01*
X268714068Y-144971200D01*
X269035332Y-145104272D01*
X269376384Y-145172111D01*
X269724118Y-145172111D01*
X270065170Y-145104272D01*
X270386434Y-144971200D01*
X270675564Y-144778009D01*
X270921449Y-144532124D01*
X271114640Y-144242994D01*
X271247712Y-143921730D01*
X271315551Y-143580678D01*
X271315551Y-143232944D01*
X288784951Y-143232944D01*
X288784951Y-143580678D01*
X288852790Y-143921730D01*
X288985862Y-144242994D01*
X289179053Y-144532124D01*
X289424938Y-144778009D01*
X289714068Y-144971200D01*
X290035332Y-145104272D01*
X290376384Y-145172111D01*
X290724118Y-145172111D01*
X291065170Y-145104272D01*
X291386434Y-144971200D01*
X291675564Y-144778009D01*
X291921449Y-144532124D01*
X292114640Y-144242994D01*
X292247712Y-143921730D01*
X292315551Y-143580678D01*
X292315551Y-143232944D01*
X292247712Y-142891892D01*
X292114640Y-142570628D01*
X291921449Y-142281498D01*
X291675564Y-142035613D01*
X291386434Y-141842422D01*
X291065170Y-141709350D01*
X290724118Y-141641511D01*
X290376384Y-141641511D01*
X290035332Y-141709350D01*
X289714068Y-141842422D01*
X289424938Y-142035613D01*
X289179053Y-142281498D01*
X288985862Y-142570628D01*
X288852790Y-142891892D01*
X288784951Y-143232944D01*
X271315551Y-143232944D01*
X271247712Y-142891892D01*
X271114640Y-142570628D01*
X270921449Y-142281498D01*
X270675564Y-142035613D01*
X270386434Y-141842422D01*
X270065170Y-141709350D01*
X269724118Y-141641511D01*
X269376384Y-141641511D01*
X269035332Y-141709350D01*
X268714068Y-141842422D01*
X268424938Y-142035613D01*
X268179053Y-142281498D01*
X267985862Y-142570628D01*
X267852790Y-142891892D01*
X267784951Y-143232944D01*
X267235203Y-143232944D01*
X267232990Y-135235564D01*
X267229653Y-135201781D01*
X267229653Y-135191561D01*
X267228654Y-135182049D01*
X267211524Y-135029333D01*
X267198618Y-134968614D01*
X267186557Y-134907704D01*
X267183729Y-134898567D01*
X267137263Y-134752087D01*
X267112811Y-134695037D01*
X267089146Y-134637621D01*
X267084597Y-134629208D01*
X267010564Y-134494543D01*
X266975486Y-134443313D01*
X266941132Y-134391606D01*
X266935036Y-134384237D01*
X266836257Y-134266516D01*
X266791899Y-134223077D01*
X266748149Y-134179021D01*
X266740737Y-134172976D01*
X266620973Y-134076684D01*
X266569009Y-134042680D01*
X266517556Y-134007974D01*
X266509111Y-134003484D01*
X266509109Y-134003483D01*
X266509106Y-134003481D01*
X266509103Y-134003480D01*
X266372925Y-133932287D01*
X266315368Y-133909032D01*
X266267018Y-133888708D01*
X266256531Y-133292561D01*
X289890251Y-133292561D01*
X289890251Y-133521061D01*
X289934829Y-133745171D01*
X290022272Y-133956277D01*
X290149220Y-134146268D01*
X290310794Y-134307842D01*
X290500785Y-134434790D01*
X290711891Y-134522233D01*
X290936001Y-134566811D01*
X291164501Y-134566811D01*
X291388611Y-134522233D01*
X291599717Y-134434790D01*
X291789708Y-134307842D01*
X291951282Y-134146268D01*
X292078230Y-133956277D01*
X292165673Y-133745171D01*
X292210251Y-133521061D01*
X292210251Y-133292561D01*
X292165673Y-133068451D01*
X292078230Y-132857345D01*
X291951282Y-132667354D01*
X291789708Y-132505780D01*
X291599717Y-132378832D01*
X291388611Y-132291389D01*
X291164501Y-132246811D01*
X290936001Y-132246811D01*
X290711891Y-132291389D01*
X290500785Y-132378832D01*
X290310794Y-132505780D01*
X290149220Y-132667354D01*
X290022272Y-132857345D01*
X289934829Y-133068451D01*
X289890251Y-133292561D01*
X266256531Y-133292561D01*
X266243311Y-132541173D01*
X266268292Y-132533440D01*
X266325529Y-132509379D01*
X266383090Y-132486123D01*
X266391530Y-132481635D01*
X266391535Y-132481633D01*
X266391539Y-132481630D01*
X266526712Y-132408542D01*
X266578156Y-132373843D01*
X266630130Y-132339832D01*
X266637542Y-132333787D01*
X266755950Y-132235832D01*
X266799698Y-132191777D01*
X266844056Y-132148339D01*
X266850153Y-132140970D01*
X266947279Y-132021882D01*
X266981650Y-131970148D01*
X267016711Y-131918944D01*
X267021260Y-131910531D01*
X267093406Y-131774845D01*
X267117066Y-131717440D01*
X267141524Y-131660376D01*
X267144353Y-131651239D01*
X267188769Y-131504124D01*
X267200831Y-131443206D01*
X267213735Y-131382497D01*
X267214735Y-131372985D01*
X267229731Y-131220045D01*
X267229731Y-131220034D01*
X267232990Y-131187046D01*
X267235241Y-123440424D01*
X267255584Y-123232945D01*
X267784951Y-123232945D01*
X267784951Y-123580679D01*
X267852790Y-123921731D01*
X267985862Y-124242995D01*
X268179053Y-124532125D01*
X268424938Y-124778010D01*
X268714068Y-124971201D01*
X269035332Y-125104273D01*
X269376384Y-125172112D01*
X269724118Y-125172112D01*
X270065170Y-125104273D01*
X270386434Y-124971201D01*
X270675564Y-124778010D01*
X270921449Y-124532125D01*
X271114640Y-124242995D01*
X271247712Y-123921731D01*
X271278632Y-123766282D01*
X273390251Y-123766282D01*
X273390251Y-123994782D01*
X273434829Y-124218892D01*
X273522272Y-124429998D01*
X273649220Y-124619989D01*
X273810794Y-124781563D01*
X274000785Y-124908511D01*
X274211891Y-124995954D01*
X274436001Y-125040532D01*
X274664501Y-125040532D01*
X274888611Y-124995954D01*
X275099717Y-124908511D01*
X275289708Y-124781563D01*
X275451282Y-124619989D01*
X275578230Y-124429998D01*
X275665673Y-124218892D01*
X275710251Y-123994782D01*
X275710251Y-123766282D01*
X275665673Y-123542172D01*
X275578230Y-123331066D01*
X275512667Y-123232944D01*
X288784951Y-123232944D01*
X288784951Y-123580678D01*
X288852790Y-123921730D01*
X288985862Y-124242994D01*
X289179053Y-124532124D01*
X289424938Y-124778009D01*
X289714068Y-124971200D01*
X290035332Y-125104272D01*
X290376384Y-125172111D01*
X290724118Y-125172111D01*
X291065170Y-125104272D01*
X291386434Y-124971200D01*
X291675564Y-124778009D01*
X291921449Y-124532124D01*
X292114640Y-124242994D01*
X292247712Y-123921730D01*
X292315551Y-123580678D01*
X292315551Y-123232944D01*
X292247712Y-122891892D01*
X292114640Y-122570628D01*
X291921449Y-122281498D01*
X291675564Y-122035613D01*
X291386434Y-121842422D01*
X291065170Y-121709350D01*
X290724118Y-121641511D01*
X290376384Y-121641511D01*
X290035332Y-121709350D01*
X289714068Y-121842422D01*
X289424938Y-122035613D01*
X289179053Y-122281498D01*
X288985862Y-122570628D01*
X288852790Y-122891892D01*
X288784951Y-123232944D01*
X275512667Y-123232944D01*
X275451282Y-123141075D01*
X275289708Y-122979501D01*
X275099717Y-122852553D01*
X274888611Y-122765110D01*
X274664501Y-122720532D01*
X274436001Y-122720532D01*
X274211891Y-122765110D01*
X274000785Y-122852553D01*
X273810794Y-122979501D01*
X273649220Y-123141075D01*
X273522272Y-123331066D01*
X273434829Y-123542172D01*
X273390251Y-123766282D01*
X271278632Y-123766282D01*
X271315551Y-123580679D01*
X271315551Y-123232945D01*
X271247712Y-122891893D01*
X271114640Y-122570629D01*
X270921449Y-122281499D01*
X270675564Y-122035614D01*
X270386434Y-121842423D01*
X270065170Y-121709351D01*
X269724118Y-121641512D01*
X269376384Y-121641512D01*
X269035332Y-121709351D01*
X268714068Y-121842423D01*
X268424938Y-122035614D01*
X268179053Y-122281499D01*
X267985862Y-122570629D01*
X267852790Y-122891893D01*
X267784951Y-123232945D01*
X267255584Y-123232945D01*
X267282563Y-122957796D01*
X267412965Y-122525882D01*
X267624775Y-122127527D01*
X267909926Y-121777898D01*
X268257554Y-121490315D01*
X268654428Y-121275726D01*
X269085412Y-121142314D01*
X269565905Y-121091812D01*
X290516735Y-121091810D01*
X290999267Y-121139123D01*
G04 #@! TA.AperFunction,Conductor*
D46*
G36*
X290999267Y-121139123D02*
G01*
X291431181Y-121269525D01*
X291829536Y-121481335D01*
X292179165Y-121766486D01*
X292466748Y-122114114D01*
X292681337Y-122510988D01*
X292814749Y-122941972D01*
X292865251Y-123422465D01*
X292865252Y-143373295D01*
X292817939Y-143855826D01*
X292687538Y-144287737D01*
X292475731Y-144686090D01*
X292190576Y-145035724D01*
X291842948Y-145323307D01*
X291446076Y-145537895D01*
X291015085Y-145671310D01*
X290534587Y-145721811D01*
X269583755Y-145721811D01*
X269101235Y-145674499D01*
X268669324Y-145544098D01*
X268270971Y-145332291D01*
X267921337Y-145047136D01*
X267633754Y-144699508D01*
X267419166Y-144302636D01*
X267285751Y-143871645D01*
X267235246Y-143391113D01*
X267235203Y-143232944D01*
X267784951Y-143232944D01*
X267784951Y-143580678D01*
X267852790Y-143921730D01*
X267985862Y-144242994D01*
X268179053Y-144532124D01*
X268424938Y-144778009D01*
X268714068Y-144971200D01*
X269035332Y-145104272D01*
X269376384Y-145172111D01*
X269724118Y-145172111D01*
X270065170Y-145104272D01*
X270386434Y-144971200D01*
X270675564Y-144778009D01*
X270921449Y-144532124D01*
X271114640Y-144242994D01*
X271247712Y-143921730D01*
X271315551Y-143580678D01*
X271315551Y-143232944D01*
X288784951Y-143232944D01*
X288784951Y-143580678D01*
X288852790Y-143921730D01*
X288985862Y-144242994D01*
X289179053Y-144532124D01*
X289424938Y-144778009D01*
X289714068Y-144971200D01*
X290035332Y-145104272D01*
X290376384Y-145172111D01*
X290724118Y-145172111D01*
X291065170Y-145104272D01*
X291386434Y-144971200D01*
X291675564Y-144778009D01*
X291921449Y-144532124D01*
X292114640Y-144242994D01*
X292247712Y-143921730D01*
X292315551Y-143580678D01*
X292315551Y-143232944D01*
X292247712Y-142891892D01*
X292114640Y-142570628D01*
X291921449Y-142281498D01*
X291675564Y-142035613D01*
X291386434Y-141842422D01*
X291065170Y-141709350D01*
X290724118Y-141641511D01*
X290376384Y-141641511D01*
X290035332Y-141709350D01*
X289714068Y-141842422D01*
X289424938Y-142035613D01*
X289179053Y-142281498D01*
X288985862Y-142570628D01*
X288852790Y-142891892D01*
X288784951Y-143232944D01*
X271315551Y-143232944D01*
X271247712Y-142891892D01*
X271114640Y-142570628D01*
X270921449Y-142281498D01*
X270675564Y-142035613D01*
X270386434Y-141842422D01*
X270065170Y-141709350D01*
X269724118Y-141641511D01*
X269376384Y-141641511D01*
X269035332Y-141709350D01*
X268714068Y-141842422D01*
X268424938Y-142035613D01*
X268179053Y-142281498D01*
X267985862Y-142570628D01*
X267852790Y-142891892D01*
X267784951Y-143232944D01*
X267235203Y-143232944D01*
X267232990Y-135235564D01*
X267229653Y-135201781D01*
X267229653Y-135191561D01*
X267228654Y-135182049D01*
X267211524Y-135029333D01*
X267198618Y-134968614D01*
X267186557Y-134907704D01*
X267183729Y-134898567D01*
X267137263Y-134752087D01*
X267112811Y-134695037D01*
X267089146Y-134637621D01*
X267084597Y-134629208D01*
X267010564Y-134494543D01*
X266975486Y-134443313D01*
X266941132Y-134391606D01*
X266935036Y-134384237D01*
X266836257Y-134266516D01*
X266791899Y-134223077D01*
X266748149Y-134179021D01*
X266740737Y-134172976D01*
X266620973Y-134076684D01*
X266569009Y-134042680D01*
X266517556Y-134007974D01*
X266509111Y-134003484D01*
X266509109Y-134003483D01*
X266509106Y-134003481D01*
X266509103Y-134003480D01*
X266372925Y-133932287D01*
X266315368Y-133909032D01*
X266267018Y-133888708D01*
X266256531Y-133292561D01*
X289890251Y-133292561D01*
X289890251Y-133521061D01*
X289934829Y-133745171D01*
X290022272Y-133956277D01*
X290149220Y-134146268D01*
X290310794Y-134307842D01*
X290500785Y-134434790D01*
X290711891Y-134522233D01*
X290936001Y-134566811D01*
X291164501Y-134566811D01*
X291388611Y-134522233D01*
X291599717Y-134434790D01*
X291789708Y-134307842D01*
X291951282Y-134146268D01*
X292078230Y-133956277D01*
X292165673Y-133745171D01*
X292210251Y-133521061D01*
X292210251Y-133292561D01*
X292165673Y-133068451D01*
X292078230Y-132857345D01*
X291951282Y-132667354D01*
X291789708Y-132505780D01*
X291599717Y-132378832D01*
X291388611Y-132291389D01*
X291164501Y-132246811D01*
X290936001Y-132246811D01*
X290711891Y-132291389D01*
X290500785Y-132378832D01*
X290310794Y-132505780D01*
X290149220Y-132667354D01*
X290022272Y-132857345D01*
X289934829Y-133068451D01*
X289890251Y-133292561D01*
X266256531Y-133292561D01*
X266243311Y-132541173D01*
X266268292Y-132533440D01*
X266325529Y-132509379D01*
X266383090Y-132486123D01*
X266391530Y-132481635D01*
X266391535Y-132481633D01*
X266391539Y-132481630D01*
X266526712Y-132408542D01*
X266578156Y-132373843D01*
X266630130Y-132339832D01*
X266637542Y-132333787D01*
X266755950Y-132235832D01*
X266799698Y-132191777D01*
X266844056Y-132148339D01*
X266850153Y-132140970D01*
X266947279Y-132021882D01*
X266981650Y-131970148D01*
X267016711Y-131918944D01*
X267021260Y-131910531D01*
X267093406Y-131774845D01*
X267117066Y-131717440D01*
X267141524Y-131660376D01*
X267144353Y-131651239D01*
X267188769Y-131504124D01*
X267200831Y-131443206D01*
X267213735Y-131382497D01*
X267214735Y-131372985D01*
X267229731Y-131220045D01*
X267229731Y-131220034D01*
X267232990Y-131187046D01*
X267235241Y-123440424D01*
X267255584Y-123232945D01*
X267784951Y-123232945D01*
X267784951Y-123580679D01*
X267852790Y-123921731D01*
X267985862Y-124242995D01*
X268179053Y-124532125D01*
X268424938Y-124778010D01*
X268714068Y-124971201D01*
X269035332Y-125104273D01*
X269376384Y-125172112D01*
X269724118Y-125172112D01*
X270065170Y-125104273D01*
X270386434Y-124971201D01*
X270675564Y-124778010D01*
X270921449Y-124532125D01*
X271114640Y-124242995D01*
X271247712Y-123921731D01*
X271278632Y-123766282D01*
X273390251Y-123766282D01*
X273390251Y-123994782D01*
X273434829Y-124218892D01*
X273522272Y-124429998D01*
X273649220Y-124619989D01*
X273810794Y-124781563D01*
X274000785Y-124908511D01*
X274211891Y-124995954D01*
X274436001Y-125040532D01*
X274664501Y-125040532D01*
X274888611Y-124995954D01*
X275099717Y-124908511D01*
X275289708Y-124781563D01*
X275451282Y-124619989D01*
X275578230Y-124429998D01*
X275665673Y-124218892D01*
X275710251Y-123994782D01*
X275710251Y-123766282D01*
X275665673Y-123542172D01*
X275578230Y-123331066D01*
X275512667Y-123232944D01*
X288784951Y-123232944D01*
X288784951Y-123580678D01*
X288852790Y-123921730D01*
X288985862Y-124242994D01*
X289179053Y-124532124D01*
X289424938Y-124778009D01*
X289714068Y-124971200D01*
X290035332Y-125104272D01*
X290376384Y-125172111D01*
X290724118Y-125172111D01*
X291065170Y-125104272D01*
X291386434Y-124971200D01*
X291675564Y-124778009D01*
X291921449Y-124532124D01*
X292114640Y-124242994D01*
X292247712Y-123921730D01*
X292315551Y-123580678D01*
X292315551Y-123232944D01*
X292247712Y-122891892D01*
X292114640Y-122570628D01*
X291921449Y-122281498D01*
X291675564Y-122035613D01*
X291386434Y-121842422D01*
X291065170Y-121709350D01*
X290724118Y-121641511D01*
X290376384Y-121641511D01*
X290035332Y-121709350D01*
X289714068Y-121842422D01*
X289424938Y-122035613D01*
X289179053Y-122281498D01*
X288985862Y-122570628D01*
X288852790Y-122891892D01*
X288784951Y-123232944D01*
X275512667Y-123232944D01*
X275451282Y-123141075D01*
X275289708Y-122979501D01*
X275099717Y-122852553D01*
X274888611Y-122765110D01*
X274664501Y-122720532D01*
X274436001Y-122720532D01*
X274211891Y-122765110D01*
X274000785Y-122852553D01*
X273810794Y-122979501D01*
X273649220Y-123141075D01*
X273522272Y-123331066D01*
X273434829Y-123542172D01*
X273390251Y-123766282D01*
X271278632Y-123766282D01*
X271315551Y-123580679D01*
X271315551Y-123232945D01*
X271247712Y-122891893D01*
X271114640Y-122570629D01*
X270921449Y-122281499D01*
X270675564Y-122035614D01*
X270386434Y-121842423D01*
X270065170Y-121709351D01*
X269724118Y-121641512D01*
X269376384Y-121641512D01*
X269035332Y-121709351D01*
X268714068Y-121842423D01*
X268424938Y-122035614D01*
X268179053Y-122281499D01*
X267985862Y-122570629D01*
X267852790Y-122891893D01*
X267784951Y-123232945D01*
X267255584Y-123232945D01*
X267282563Y-122957796D01*
X267412965Y-122525882D01*
X267624775Y-122127527D01*
X267909926Y-121777898D01*
X268257554Y-121490315D01*
X268654428Y-121275726D01*
X269085412Y-121142314D01*
X269565905Y-121091812D01*
X290516735Y-121091810D01*
X290999267Y-121139123D01*
G37*
G04 #@! TD.AperFunction*
D45*
X246570900Y-107017643D02*
X246567694Y-107021550D01*
X246537330Y-107078357D01*
X246518632Y-107139997D01*
X246512318Y-107204100D01*
X246512318Y-108804100D01*
X246518632Y-108868203D01*
X246537330Y-108929843D01*
X246567694Y-108986650D01*
X246570900Y-108990557D01*
X246570900Y-109398100D01*
X246573340Y-109422876D01*
X246580567Y-109446701D01*
X246592303Y-109468657D01*
X246608097Y-109487903D01*
X246627343Y-109503697D01*
X246649299Y-109515433D01*
X246673124Y-109522660D01*
X246697900Y-109525100D01*
X254698900Y-109525100D01*
X254723676Y-109522660D01*
X254747501Y-109515433D01*
X254769457Y-109503697D01*
X254788703Y-109487903D01*
X254804497Y-109468657D01*
X254816233Y-109446701D01*
X254823460Y-109422876D01*
X254825900Y-109398100D01*
X254825900Y-109271100D01*
X257620006Y-109271100D01*
X257632494Y-124269800D01*
X244424027Y-124269800D01*
X244411899Y-121589525D01*
X244409346Y-121564760D01*
X244402012Y-121540969D01*
X244390176Y-121519065D01*
X244374295Y-121499892D01*
X244354979Y-121484185D01*
X244332969Y-121472549D01*
X244309113Y-121465429D01*
X244284900Y-121463100D01*
X241617900Y-121463100D01*
X241617900Y-117212648D01*
X242784900Y-117212648D01*
X242784900Y-117375552D01*
X242816682Y-117535327D01*
X242862500Y-117645941D01*
X242862500Y-118110300D01*
X242864940Y-118135076D01*
X242872167Y-118158901D01*
X242883903Y-118180857D01*
X242899697Y-118200103D01*
X242918943Y-118215897D01*
X242940899Y-118227633D01*
X242964724Y-118234860D01*
X242993467Y-118237238D01*
X245300900Y-118165131D01*
X245300900Y-122288600D01*
X245303340Y-122313376D01*
X245310567Y-122337201D01*
X245322303Y-122359157D01*
X245338097Y-122378403D01*
X245357343Y-122394197D01*
X245379299Y-122405933D01*
X245403124Y-122413160D01*
X245427900Y-122415600D01*
X256476900Y-122415600D01*
X256501676Y-122413160D01*
X256525501Y-122405933D01*
X256547457Y-122394197D01*
X256566703Y-122378403D01*
X256582497Y-122359157D01*
X256594233Y-122337201D01*
X256601460Y-122313376D01*
X256603900Y-122288600D01*
X256603900Y-114732100D01*
X256601460Y-114707324D01*
X256594233Y-114683499D01*
X256582497Y-114661543D01*
X256566703Y-114642297D01*
X256547457Y-114626503D01*
X256525501Y-114614767D01*
X256501676Y-114607540D01*
X256476900Y-114605100D01*
X254830054Y-114605100D01*
X254921084Y-111777086D01*
X254919442Y-111752244D01*
X254912986Y-111728199D01*
X254901962Y-111705876D01*
X254886795Y-111686133D01*
X254868068Y-111669728D01*
X254846500Y-111657292D01*
X254822921Y-111649302D01*
X254796072Y-111646015D01*
X243048572Y-111468215D01*
X243023761Y-111470280D01*
X242999830Y-111477145D01*
X242977699Y-111488548D01*
X242958217Y-111504049D01*
X242942133Y-111523053D01*
X242930066Y-111544829D01*
X242922479Y-111568541D01*
X242919665Y-111593276D01*
X242875244Y-114525040D01*
X242862631Y-114802533D01*
X242862500Y-114808300D01*
X242862500Y-116942259D01*
X242816682Y-117052873D01*
X242784900Y-117212648D01*
X241617900Y-117212648D01*
X241617900Y-106997800D01*
X246570900Y-106997800D01*
X246570900Y-107017643D01*
G04 #@! TA.AperFunction,Conductor*
D46*
G36*
X246570900Y-107017643D02*
G01*
X246567694Y-107021550D01*
X246537330Y-107078357D01*
X246518632Y-107139997D01*
X246512318Y-107204100D01*
X246512318Y-108804100D01*
X246518632Y-108868203D01*
X246537330Y-108929843D01*
X246567694Y-108986650D01*
X246570900Y-108990557D01*
X246570900Y-109398100D01*
X246573340Y-109422876D01*
X246580567Y-109446701D01*
X246592303Y-109468657D01*
X246608097Y-109487903D01*
X246627343Y-109503697D01*
X246649299Y-109515433D01*
X246673124Y-109522660D01*
X246697900Y-109525100D01*
X254698900Y-109525100D01*
X254723676Y-109522660D01*
X254747501Y-109515433D01*
X254769457Y-109503697D01*
X254788703Y-109487903D01*
X254804497Y-109468657D01*
X254816233Y-109446701D01*
X254823460Y-109422876D01*
X254825900Y-109398100D01*
X254825900Y-109271100D01*
X257620006Y-109271100D01*
X257632494Y-124269800D01*
X244424027Y-124269800D01*
X244411899Y-121589525D01*
X244409346Y-121564760D01*
X244402012Y-121540969D01*
X244390176Y-121519065D01*
X244374295Y-121499892D01*
X244354979Y-121484185D01*
X244332969Y-121472549D01*
X244309113Y-121465429D01*
X244284900Y-121463100D01*
X241617900Y-121463100D01*
X241617900Y-117212648D01*
X242784900Y-117212648D01*
X242784900Y-117375552D01*
X242816682Y-117535327D01*
X242862500Y-117645941D01*
X242862500Y-118110300D01*
X242864940Y-118135076D01*
X242872167Y-118158901D01*
X242883903Y-118180857D01*
X242899697Y-118200103D01*
X242918943Y-118215897D01*
X242940899Y-118227633D01*
X242964724Y-118234860D01*
X242993467Y-118237238D01*
X245300900Y-118165131D01*
X245300900Y-122288600D01*
X245303340Y-122313376D01*
X245310567Y-122337201D01*
X245322303Y-122359157D01*
X245338097Y-122378403D01*
X245357343Y-122394197D01*
X245379299Y-122405933D01*
X245403124Y-122413160D01*
X245427900Y-122415600D01*
X256476900Y-122415600D01*
X256501676Y-122413160D01*
X256525501Y-122405933D01*
X256547457Y-122394197D01*
X256566703Y-122378403D01*
X256582497Y-122359157D01*
X256594233Y-122337201D01*
X256601460Y-122313376D01*
X256603900Y-122288600D01*
X256603900Y-114732100D01*
X256601460Y-114707324D01*
X256594233Y-114683499D01*
X256582497Y-114661543D01*
X256566703Y-114642297D01*
X256547457Y-114626503D01*
X256525501Y-114614767D01*
X256501676Y-114607540D01*
X256476900Y-114605100D01*
X254830054Y-114605100D01*
X254921084Y-111777086D01*
X254919442Y-111752244D01*
X254912986Y-111728199D01*
X254901962Y-111705876D01*
X254886795Y-111686133D01*
X254868068Y-111669728D01*
X254846500Y-111657292D01*
X254822921Y-111649302D01*
X254796072Y-111646015D01*
X243048572Y-111468215D01*
X243023761Y-111470280D01*
X242999830Y-111477145D01*
X242977699Y-111488548D01*
X242958217Y-111504049D01*
X242942133Y-111523053D01*
X242930066Y-111544829D01*
X242922479Y-111568541D01*
X242919665Y-111593276D01*
X242875244Y-114525040D01*
X242862631Y-114802533D01*
X242862500Y-114808300D01*
X242862500Y-116942259D01*
X242816682Y-117052873D01*
X242784900Y-117212648D01*
X241617900Y-117212648D01*
X241617900Y-106997800D01*
X246570900Y-106997800D01*
X246570900Y-107017643D01*
G37*
G04 #@! TD.AperFunction*
D42*
X252246353Y-119291830D02*
X251572083Y-119966100D01*
X248897646Y-119966100D01*
X248884160Y-118184100D01*
X252249147Y-118184100D01*
X252246353Y-119291830D01*
G04 #@! TA.AperFunction,Conductor*
D46*
G36*
X252246353Y-119291830D02*
G01*
X251572083Y-119966100D01*
X248897646Y-119966100D01*
X248884160Y-118184100D01*
X252249147Y-118184100D01*
X252246353Y-119291830D01*
G37*
G04 #@! TD.AperFunction*
D42*
X257723100Y-108606232D02*
X254690900Y-108604168D01*
X254690900Y-107303798D01*
X257723100Y-107294604D01*
X257723100Y-108606232D01*
G04 #@! TA.AperFunction,Conductor*
D46*
G36*
X257723100Y-108606232D02*
G01*
X254690900Y-108604168D01*
X254690900Y-107303798D01*
X257723100Y-107294604D01*
X257723100Y-108606232D01*
G37*
G04 #@! TD.AperFunction*
D45*
X248348900Y-114414600D02*
X248348934Y-114417519D01*
X248370634Y-115361459D01*
X248361650Y-115374904D01*
X248314385Y-115489011D01*
X248290290Y-115610146D01*
X248290290Y-115733654D01*
X248314385Y-115854789D01*
X248361650Y-115968896D01*
X248371933Y-115984286D01*
X248370839Y-116199352D01*
X248361650Y-116213104D01*
X248314385Y-116327211D01*
X248290290Y-116448346D01*
X248290290Y-116571854D01*
X248314385Y-116692989D01*
X248361650Y-116807096D01*
X248367699Y-116816149D01*
X248348902Y-120509329D01*
X248351216Y-120534117D01*
X248358321Y-120557978D01*
X248369946Y-120579994D01*
X248385642Y-120599319D01*
X248404806Y-120615211D01*
X248426703Y-120627059D01*
X248450490Y-120634407D01*
X248475861Y-120636975D01*
X252569111Y-120638225D01*
X252593888Y-120635792D01*
X252617715Y-120628573D01*
X252639675Y-120616843D01*
X252658925Y-120601055D01*
X252674725Y-120581815D01*
X252686468Y-120559862D01*
X252694673Y-120530535D01*
X253427423Y-115767410D01*
X253428779Y-115742551D01*
X253425258Y-115717905D01*
X253416675Y-115693733D01*
X252857400Y-114513041D01*
X252857400Y-113131100D01*
X252943523Y-113131100D01*
X252997187Y-114578057D01*
X253000544Y-114602726D01*
X253008649Y-114626266D01*
X253021191Y-114647773D01*
X253033558Y-114662407D01*
X253758290Y-115399218D01*
X253682915Y-120254629D01*
X253684971Y-120279440D01*
X253691827Y-120303374D01*
X253703221Y-120325510D01*
X253718714Y-120344998D01*
X253737712Y-120361089D01*
X253759484Y-120373164D01*
X253783193Y-120380760D01*
X253809900Y-120383600D01*
X256032400Y-120383600D01*
X256032400Y-121938879D01*
X247713900Y-121908070D01*
X247713900Y-118486903D01*
X248144620Y-115205830D01*
X248144633Y-115205726D01*
X248220833Y-114621526D01*
X248221890Y-114606715D01*
X248241295Y-113081100D01*
X248348900Y-113081100D01*
X248348900Y-114414600D01*
G04 #@! TA.AperFunction,Conductor*
D46*
G36*
X248348900Y-114414600D02*
G01*
X248348934Y-114417519D01*
X248370634Y-115361459D01*
X248361650Y-115374904D01*
X248314385Y-115489011D01*
X248290290Y-115610146D01*
X248290290Y-115733654D01*
X248314385Y-115854789D01*
X248361650Y-115968896D01*
X248371933Y-115984286D01*
X248370839Y-116199352D01*
X248361650Y-116213104D01*
X248314385Y-116327211D01*
X248290290Y-116448346D01*
X248290290Y-116571854D01*
X248314385Y-116692989D01*
X248361650Y-116807096D01*
X248367699Y-116816149D01*
X248348902Y-120509329D01*
X248351216Y-120534117D01*
X248358321Y-120557978D01*
X248369946Y-120579994D01*
X248385642Y-120599319D01*
X248404806Y-120615211D01*
X248426703Y-120627059D01*
X248450490Y-120634407D01*
X248475861Y-120636975D01*
X252569111Y-120638225D01*
X252593888Y-120635792D01*
X252617715Y-120628573D01*
X252639675Y-120616843D01*
X252658925Y-120601055D01*
X252674725Y-120581815D01*
X252686468Y-120559862D01*
X252694673Y-120530535D01*
X253427423Y-115767410D01*
X253428779Y-115742551D01*
X253425258Y-115717905D01*
X253416675Y-115693733D01*
X252857400Y-114513041D01*
X252857400Y-113131100D01*
X252943523Y-113131100D01*
X252997187Y-114578057D01*
X253000544Y-114602726D01*
X253008649Y-114626266D01*
X253021191Y-114647773D01*
X253033558Y-114662407D01*
X253758290Y-115399218D01*
X253682915Y-120254629D01*
X253684971Y-120279440D01*
X253691827Y-120303374D01*
X253703221Y-120325510D01*
X253718714Y-120344998D01*
X253737712Y-120361089D01*
X253759484Y-120373164D01*
X253783193Y-120380760D01*
X253809900Y-120383600D01*
X256032400Y-120383600D01*
X256032400Y-121938879D01*
X247713900Y-121908070D01*
X247713900Y-118486903D01*
X248144620Y-115205830D01*
X248144633Y-115205726D01*
X248220833Y-114621526D01*
X248221890Y-114606715D01*
X248241295Y-113081100D01*
X248348900Y-113081100D01*
X248348900Y-114414600D01*
G37*
G04 #@! TD.AperFunction*
D45*
X225147601Y-156720285D02*
X225144044Y-156756400D01*
X225158235Y-156900485D01*
X225183897Y-156985079D01*
X225200264Y-157039033D01*
X225268514Y-157166720D01*
X225360363Y-157278638D01*
X225388408Y-157301654D01*
X225448207Y-157361453D01*
X225429725Y-159498169D01*
X225426398Y-159511927D01*
X225425174Y-159529037D01*
X225395401Y-167246184D01*
X223248067Y-167282541D01*
X223247989Y-167264308D01*
X223266801Y-167229113D01*
X223325984Y-167034015D01*
X223340960Y-166881958D01*
X223340960Y-166280283D01*
X223325984Y-166128226D01*
X223266801Y-165933128D01*
X223242079Y-165886876D01*
X223230939Y-163290543D01*
X223228392Y-163265777D01*
X223221063Y-163241984D01*
X223209233Y-163220078D01*
X223193356Y-163200901D01*
X223174044Y-163185190D01*
X223152037Y-163173548D01*
X223128182Y-163166423D01*
X223098444Y-163164207D01*
X221321075Y-163241195D01*
X221345864Y-155314079D01*
X225147601Y-155309891D01*
X225147601Y-156720285D01*
G04 #@! TA.AperFunction,Conductor*
D46*
G36*
X225147601Y-156720285D02*
G01*
X225144044Y-156756400D01*
X225158235Y-156900485D01*
X225183897Y-156985079D01*
X225200264Y-157039033D01*
X225268514Y-157166720D01*
X225360363Y-157278638D01*
X225388408Y-157301654D01*
X225448207Y-157361453D01*
X225429725Y-159498169D01*
X225426398Y-159511927D01*
X225425174Y-159529037D01*
X225395401Y-167246184D01*
X223248067Y-167282541D01*
X223247989Y-167264308D01*
X223266801Y-167229113D01*
X223325984Y-167034015D01*
X223340960Y-166881958D01*
X223340960Y-166280283D01*
X223325984Y-166128226D01*
X223266801Y-165933128D01*
X223242079Y-165886876D01*
X223230939Y-163290543D01*
X223228392Y-163265777D01*
X223221063Y-163241984D01*
X223209233Y-163220078D01*
X223193356Y-163200901D01*
X223174044Y-163185190D01*
X223152037Y-163173548D01*
X223128182Y-163166423D01*
X223098444Y-163164207D01*
X221321075Y-163241195D01*
X221345864Y-155314079D01*
X225147601Y-155309891D01*
X225147601Y-156720285D01*
G37*
G04 #@! TD.AperFunction*
D45*
X220235355Y-165616534D02*
X220237756Y-165641314D01*
X220244945Y-165665150D01*
X220256646Y-165687125D01*
X220272410Y-165706396D01*
X220291630Y-165722220D01*
X220313568Y-165733991D01*
X220337381Y-165741256D01*
X220362453Y-165743736D01*
X222423947Y-165742150D01*
X222442581Y-167281969D01*
X220360573Y-167264898D01*
X220335778Y-167267135D01*
X220311895Y-167274167D01*
X220289843Y-167285722D01*
X220270469Y-167301358D01*
X220254517Y-167320473D01*
X220242602Y-167342333D01*
X220235180Y-167366097D01*
X220232532Y-167391692D01*
X220232164Y-167623152D01*
X218691817Y-167641792D01*
X218733624Y-161128948D01*
X220242553Y-161088805D01*
X220235355Y-165616534D01*
G04 #@! TA.AperFunction,Conductor*
D46*
G36*
X220235355Y-165616534D02*
G01*
X220237756Y-165641314D01*
X220244945Y-165665150D01*
X220256646Y-165687125D01*
X220272410Y-165706396D01*
X220291630Y-165722220D01*
X220313568Y-165733991D01*
X220337381Y-165741256D01*
X220362453Y-165743736D01*
X222423947Y-165742150D01*
X222442581Y-167281969D01*
X220360573Y-167264898D01*
X220335778Y-167267135D01*
X220311895Y-167274167D01*
X220289843Y-167285722D01*
X220270469Y-167301358D01*
X220254517Y-167320473D01*
X220242602Y-167342333D01*
X220235180Y-167366097D01*
X220232532Y-167391692D01*
X220232164Y-167623152D01*
X218691817Y-167641792D01*
X218733624Y-161128948D01*
X220242553Y-161088805D01*
X220235355Y-165616534D01*
G37*
G04 #@! TD.AperFunction*
D45*
X216410940Y-154457080D02*
X216410940Y-158805855D01*
X213522729Y-159476632D01*
X213499147Y-159484615D01*
X213477576Y-159497044D01*
X213458843Y-159513443D01*
X213443670Y-159533181D01*
X213432639Y-159555500D01*
X213426174Y-159579543D01*
X213424460Y-159600340D01*
X213424460Y-161048340D01*
X213078460Y-161048340D01*
X213078460Y-159325340D01*
X213076020Y-159300564D01*
X213068793Y-159276739D01*
X213057057Y-159254783D01*
X213047037Y-159241710D01*
X212378460Y-158477622D01*
X212378460Y-154404022D01*
X216410940Y-154457080D01*
G04 #@! TA.AperFunction,Conductor*
D46*
G36*
X216410940Y-154457080D02*
G01*
X216410940Y-158805855D01*
X213522729Y-159476632D01*
X213499147Y-159484615D01*
X213477576Y-159497044D01*
X213458843Y-159513443D01*
X213443670Y-159533181D01*
X213432639Y-159555500D01*
X213426174Y-159579543D01*
X213424460Y-159600340D01*
X213424460Y-161048340D01*
X213078460Y-161048340D01*
X213078460Y-159325340D01*
X213076020Y-159300564D01*
X213068793Y-159276739D01*
X213057057Y-159254783D01*
X213047037Y-159241710D01*
X212378460Y-158477622D01*
X212378460Y-154404022D01*
X216410940Y-154457080D01*
G37*
G04 #@! TD.AperFunction*
D45*
X235941000Y-156451600D02*
X235943440Y-156476376D01*
X235950667Y-156500201D01*
X235962403Y-156522157D01*
X235978197Y-156541403D01*
X235997443Y-156557197D01*
X236019399Y-156568933D01*
X236043224Y-156576160D01*
X236068000Y-156578600D01*
X238315900Y-156578600D01*
X238315900Y-158255000D01*
X236093400Y-158255000D01*
X236068624Y-158257440D01*
X236044799Y-158264667D01*
X236022843Y-158276403D01*
X236003597Y-158292197D01*
X235987803Y-158311443D01*
X235976067Y-158333399D01*
X235968840Y-158357224D01*
X235966400Y-158382000D01*
X235966400Y-160452100D01*
X232029400Y-160452100D01*
X232029400Y-158280400D01*
X232026960Y-158255624D01*
X232019733Y-158231799D01*
X232007997Y-158209843D01*
X231992203Y-158190597D01*
X231972957Y-158174803D01*
X231951001Y-158163067D01*
X231927176Y-158155840D01*
X231901687Y-158153402D01*
X229768440Y-158165387D01*
X229756099Y-153784242D01*
X229753589Y-153759473D01*
X229746295Y-153735669D01*
X229734497Y-153713745D01*
X229718649Y-153694545D01*
X229699360Y-153678805D01*
X229677370Y-153667131D01*
X229653526Y-153659971D01*
X229629100Y-153657600D01*
X227482800Y-153657600D01*
X227482800Y-151981200D01*
X231965900Y-151981200D01*
X231990676Y-151978760D01*
X232014501Y-151971533D01*
X232036457Y-151959797D01*
X232055703Y-151944003D01*
X232071497Y-151924757D01*
X232083233Y-151902801D01*
X232090460Y-151878976D01*
X232092900Y-151854200D01*
X232092900Y-149733300D01*
X235941000Y-149733300D01*
X235941000Y-156451600D01*
G04 #@! TA.AperFunction,Conductor*
D46*
G36*
X235941000Y-156451600D02*
G01*
X235943440Y-156476376D01*
X235950667Y-156500201D01*
X235962403Y-156522157D01*
X235978197Y-156541403D01*
X235997443Y-156557197D01*
X236019399Y-156568933D01*
X236043224Y-156576160D01*
X236068000Y-156578600D01*
X238315900Y-156578600D01*
X238315900Y-158255000D01*
X236093400Y-158255000D01*
X236068624Y-158257440D01*
X236044799Y-158264667D01*
X236022843Y-158276403D01*
X236003597Y-158292197D01*
X235987803Y-158311443D01*
X235976067Y-158333399D01*
X235968840Y-158357224D01*
X235966400Y-158382000D01*
X235966400Y-160452100D01*
X232029400Y-160452100D01*
X232029400Y-158280400D01*
X232026960Y-158255624D01*
X232019733Y-158231799D01*
X232007997Y-158209843D01*
X231992203Y-158190597D01*
X231972957Y-158174803D01*
X231951001Y-158163067D01*
X231927176Y-158155840D01*
X231901687Y-158153402D01*
X229768440Y-158165387D01*
X229756099Y-153784242D01*
X229753589Y-153759473D01*
X229746295Y-153735669D01*
X229734497Y-153713745D01*
X229718649Y-153694545D01*
X229699360Y-153678805D01*
X229677370Y-153667131D01*
X229653526Y-153659971D01*
X229629100Y-153657600D01*
X227482800Y-153657600D01*
X227482800Y-151981200D01*
X231965900Y-151981200D01*
X231990676Y-151978760D01*
X232014501Y-151971533D01*
X232036457Y-151959797D01*
X232055703Y-151944003D01*
X232071497Y-151924757D01*
X232083233Y-151902801D01*
X232090460Y-151878976D01*
X232092900Y-151854200D01*
X232092900Y-149733300D01*
X235941000Y-149733300D01*
X235941000Y-156451600D01*
G37*
G04 #@! TD.AperFunction*
D45*
X236093400Y-139460300D02*
X236095840Y-139485076D01*
X236103067Y-139508901D01*
X236114803Y-139530857D01*
X236130597Y-139550103D01*
X236149843Y-139565897D01*
X236171799Y-139577633D01*
X236195624Y-139584860D01*
X236220400Y-139587300D01*
X238468300Y-139587300D01*
X238468300Y-141263700D01*
X236245800Y-141263700D01*
X236221024Y-141266140D01*
X236197199Y-141273367D01*
X236175243Y-141285103D01*
X236155997Y-141300897D01*
X236140203Y-141320143D01*
X236128467Y-141342099D01*
X236121240Y-141365924D01*
X236118800Y-141390700D01*
X236118800Y-143460800D01*
X232181800Y-143460800D01*
X232181800Y-141289100D01*
X232179360Y-141264324D01*
X232172133Y-141240499D01*
X232160397Y-141218543D01*
X232144603Y-141199297D01*
X232125357Y-141183503D01*
X232103401Y-141171767D01*
X232079576Y-141164540D01*
X232054087Y-141162102D01*
X229920840Y-141174087D01*
X229908499Y-136792942D01*
X229905989Y-136768173D01*
X229898695Y-136744369D01*
X229886897Y-136722445D01*
X229871049Y-136703245D01*
X229851760Y-136687505D01*
X229829770Y-136675831D01*
X229805926Y-136668671D01*
X229781500Y-136666300D01*
X227635200Y-136666300D01*
X227635200Y-134989900D01*
X232118300Y-134989900D01*
X232143076Y-134987460D01*
X232166901Y-134980233D01*
X232188857Y-134968497D01*
X232208103Y-134952703D01*
X232223897Y-134933457D01*
X232235633Y-134911501D01*
X232242860Y-134887676D01*
X232245300Y-134862900D01*
X232245300Y-132742000D01*
X236093400Y-132742000D01*
X236093400Y-139460300D01*
G04 #@! TA.AperFunction,Conductor*
D46*
G36*
X236093400Y-139460300D02*
G01*
X236095840Y-139485076D01*
X236103067Y-139508901D01*
X236114803Y-139530857D01*
X236130597Y-139550103D01*
X236149843Y-139565897D01*
X236171799Y-139577633D01*
X236195624Y-139584860D01*
X236220400Y-139587300D01*
X238468300Y-139587300D01*
X238468300Y-141263700D01*
X236245800Y-141263700D01*
X236221024Y-141266140D01*
X236197199Y-141273367D01*
X236175243Y-141285103D01*
X236155997Y-141300897D01*
X236140203Y-141320143D01*
X236128467Y-141342099D01*
X236121240Y-141365924D01*
X236118800Y-141390700D01*
X236118800Y-143460800D01*
X232181800Y-143460800D01*
X232181800Y-141289100D01*
X232179360Y-141264324D01*
X232172133Y-141240499D01*
X232160397Y-141218543D01*
X232144603Y-141199297D01*
X232125357Y-141183503D01*
X232103401Y-141171767D01*
X232079576Y-141164540D01*
X232054087Y-141162102D01*
X229920840Y-141174087D01*
X229908499Y-136792942D01*
X229905989Y-136768173D01*
X229898695Y-136744369D01*
X229886897Y-136722445D01*
X229871049Y-136703245D01*
X229851760Y-136687505D01*
X229829770Y-136675831D01*
X229805926Y-136668671D01*
X229781500Y-136666300D01*
X227635200Y-136666300D01*
X227635200Y-134989900D01*
X232118300Y-134989900D01*
X232143076Y-134987460D01*
X232166901Y-134980233D01*
X232188857Y-134968497D01*
X232208103Y-134952703D01*
X232223897Y-134933457D01*
X232235633Y-134911501D01*
X232242860Y-134887676D01*
X232245300Y-134862900D01*
X232245300Y-132742000D01*
X236093400Y-132742000D01*
X236093400Y-139460300D01*
G37*
G04 #@! TD.AperFunction*
D45*
X231038800Y-150952500D02*
X226746200Y-150952500D01*
X226746200Y-148996700D01*
X231038800Y-148996700D01*
X231038800Y-150952500D01*
G04 #@! TA.AperFunction,Conductor*
D46*
G36*
X231038800Y-150952500D02*
G01*
X226746200Y-150952500D01*
X226746200Y-148996700D01*
X231038800Y-148996700D01*
X231038800Y-150952500D01*
G37*
G04 #@! TD.AperFunction*
D45*
X231165800Y-133885000D02*
X226873200Y-133885000D01*
X226873200Y-131929200D01*
X231165800Y-131929200D01*
X231165800Y-133885000D01*
G04 #@! TA.AperFunction,Conductor*
D46*
G36*
X231165800Y-133885000D02*
G01*
X226873200Y-133885000D01*
X226873200Y-131929200D01*
X231165800Y-131929200D01*
X231165800Y-133885000D01*
G37*
G04 #@! TD.AperFunction*
D45*
X238951637Y-148995719D02*
X238990997Y-155704610D01*
X236841946Y-155688024D01*
X236827060Y-148979147D01*
X238951637Y-148995719D01*
G04 #@! TA.AperFunction,Conductor*
D46*
G36*
X238951637Y-148995719D02*
G01*
X238990997Y-155704610D01*
X236841946Y-155688024D01*
X236827060Y-148979147D01*
X238951637Y-148995719D01*
G37*
G04 #@! TD.AperFunction*
D45*
X217904036Y-165236455D02*
X215576481Y-165247732D01*
X215528444Y-162173356D01*
X215525617Y-162148621D01*
X215518019Y-162124912D01*
X215505941Y-162103141D01*
X215489849Y-162084145D01*
X215470359Y-162068654D01*
X215448222Y-162057262D01*
X215424287Y-162050408D01*
X215400678Y-162048342D01*
X211147778Y-162074542D01*
X211123017Y-162077135D01*
X211099237Y-162084509D01*
X211077353Y-162096380D01*
X211058206Y-162112292D01*
X211042531Y-162131634D01*
X211030930Y-162153663D01*
X211023850Y-162177531D01*
X211021560Y-162201509D01*
X211020592Y-166123637D01*
X207578460Y-166099237D01*
X207578460Y-161876352D01*
X213852452Y-161827336D01*
X213877209Y-161824702D01*
X213900976Y-161817289D01*
X213922840Y-161805382D01*
X213941961Y-161789438D01*
X213957605Y-161770070D01*
X213969169Y-161748023D01*
X213976209Y-161724143D01*
X213978453Y-161699027D01*
X213961576Y-160066806D01*
X217886686Y-160055069D01*
X217904036Y-165236455D01*
G04 #@! TA.AperFunction,Conductor*
D46*
G36*
X217904036Y-165236455D02*
G01*
X215576481Y-165247732D01*
X215528444Y-162173356D01*
X215525617Y-162148621D01*
X215518019Y-162124912D01*
X215505941Y-162103141D01*
X215489849Y-162084145D01*
X215470359Y-162068654D01*
X215448222Y-162057262D01*
X215424287Y-162050408D01*
X215400678Y-162048342D01*
X211147778Y-162074542D01*
X211123017Y-162077135D01*
X211099237Y-162084509D01*
X211077353Y-162096380D01*
X211058206Y-162112292D01*
X211042531Y-162131634D01*
X211030930Y-162153663D01*
X211023850Y-162177531D01*
X211021560Y-162201509D01*
X211020592Y-166123637D01*
X207578460Y-166099237D01*
X207578460Y-161876352D01*
X213852452Y-161827336D01*
X213877209Y-161824702D01*
X213900976Y-161817289D01*
X213922840Y-161805382D01*
X213941961Y-161789438D01*
X213957605Y-161770070D01*
X213969169Y-161748023D01*
X213976209Y-161724143D01*
X213978453Y-161699027D01*
X213961576Y-160066806D01*
X217886686Y-160055069D01*
X217904036Y-165236455D01*
G37*
G04 #@! TD.AperFunction*
D45*
X211324460Y-158775340D02*
X211326900Y-158800116D01*
X211334127Y-158823941D01*
X211345863Y-158845897D01*
X211361657Y-158865143D01*
X212324460Y-159827946D01*
X212324460Y-161147050D01*
X207628460Y-161099616D01*
X207628460Y-154450743D01*
X211324460Y-154403958D01*
X211324460Y-158775340D01*
G04 #@! TA.AperFunction,Conductor*
D46*
G36*
X211324460Y-158775340D02*
G01*
X211326900Y-158800116D01*
X211334127Y-158823941D01*
X211345863Y-158845897D01*
X211361657Y-158865143D01*
X212324460Y-159827946D01*
X212324460Y-161147050D01*
X207628460Y-161099616D01*
X207628460Y-154450743D01*
X211324460Y-154403958D01*
X211324460Y-158775340D01*
G37*
G04 #@! TD.AperFunction*
D45*
X239142124Y-138689526D02*
X236995517Y-138700053D01*
X236975880Y-131930496D01*
X239098005Y-131919977D01*
X239142124Y-138689526D01*
G04 #@! TA.AperFunction,Conductor*
D46*
G36*
X239142124Y-138689526D02*
G01*
X236995517Y-138700053D01*
X236975880Y-131930496D01*
X239098005Y-131919977D01*
X239142124Y-138689526D01*
G37*
G04 #@! TD.AperFunction*
M02*
