G04 #@! TF.GenerationSoftware,KiCad,Pcbnew,(5.1.10-1-10_14)*
G04 #@! TF.CreationDate,2022-04-27T11:01:26-07:00*
G04 #@! TF.ProjectId,ulc-mm,756c632d-6d6d-42e6-9b69-6361645f7063,rev?*
G04 #@! TF.SameCoordinates,Original*
G04 #@! TF.FileFunction,Copper,L2,Inr*
G04 #@! TF.FilePolarity,Positive*
%FSLAX46Y46*%
G04 Gerber Fmt 4.6, Leading zero omitted, Abs format (unit mm)*
G04 Created by KiCad (PCBNEW (5.1.10-1-10_14)) date 2022-04-27 11:01:26*
%MOMM*%
%LPD*%
G01*
G04 APERTURE LIST*
G04 #@! TA.AperFunction,ComponentPad*
%ADD10R,1.700000X1.700000*%
G04 #@! TD*
G04 #@! TA.AperFunction,ComponentPad*
%ADD11O,1.700000X1.700000*%
G04 #@! TD*
G04 #@! TA.AperFunction,ComponentPad*
%ADD12O,0.800000X1.300000*%
G04 #@! TD*
G04 #@! TA.AperFunction,ComponentPad*
%ADD13C,2.800000*%
G04 #@! TD*
G04 #@! TA.AperFunction,ComponentPad*
%ADD14C,0.300000*%
G04 #@! TD*
G04 #@! TA.AperFunction,ComponentPad*
%ADD15C,3.960000*%
G04 #@! TD*
G04 #@! TA.AperFunction,ComponentPad*
%ADD16R,1.600000X1.600000*%
G04 #@! TD*
G04 #@! TA.AperFunction,ComponentPad*
%ADD17C,1.600000*%
G04 #@! TD*
G04 #@! TA.AperFunction,ComponentPad*
%ADD18C,1.440000*%
G04 #@! TD*
G04 #@! TA.AperFunction,ComponentPad*
%ADD19R,2.280000X2.280000*%
G04 #@! TD*
G04 #@! TA.AperFunction,ComponentPad*
%ADD20C,2.280000*%
G04 #@! TD*
G04 #@! TA.AperFunction,ComponentPad*
%ADD21C,5.400000*%
G04 #@! TD*
G04 #@! TA.AperFunction,ComponentPad*
%ADD22C,6.400000*%
G04 #@! TD*
G04 #@! TA.AperFunction,ViaPad*
%ADD23C,1.000000*%
G04 #@! TD*
G04 #@! TA.AperFunction,ViaPad*
%ADD24C,0.600000*%
G04 #@! TD*
G04 #@! TA.AperFunction,ViaPad*
%ADD25C,0.900000*%
G04 #@! TD*
G04 #@! TA.AperFunction,Conductor*
%ADD26C,0.500000*%
G04 #@! TD*
G04 #@! TA.AperFunction,Conductor*
%ADD27C,0.750000*%
G04 #@! TD*
G04 #@! TA.AperFunction,Conductor*
%ADD28C,0.350000*%
G04 #@! TD*
G04 #@! TA.AperFunction,Conductor*
%ADD29C,0.200000*%
G04 #@! TD*
G04 #@! TA.AperFunction,Conductor*
%ADD30C,0.254000*%
G04 #@! TD*
G04 #@! TA.AperFunction,Conductor*
%ADD31C,0.150000*%
G04 #@! TD*
G04 APERTURE END LIST*
D10*
X208370000Y-98770000D03*
D11*
X208370000Y-96230000D03*
X210910000Y-98770000D03*
X210910000Y-96230000D03*
X213450000Y-98770000D03*
X213450000Y-96230000D03*
X215990000Y-98770000D03*
X215990000Y-96230000D03*
X218530000Y-98770000D03*
X218530000Y-96230000D03*
X221070000Y-98770000D03*
X221070000Y-96230000D03*
X223610000Y-98770000D03*
X223610000Y-96230000D03*
X226150000Y-98770000D03*
X226150000Y-96230000D03*
X228690000Y-98770000D03*
X228690000Y-96230000D03*
X231230000Y-98770000D03*
X231230000Y-96230000D03*
X233770000Y-98770000D03*
X233770000Y-96230000D03*
X236310000Y-98770000D03*
X236310000Y-96230000D03*
X238850000Y-98770000D03*
X238850000Y-96230000D03*
X241390000Y-98770000D03*
X241390000Y-96230000D03*
X243930000Y-98770000D03*
X243930000Y-96230000D03*
X246470000Y-98770000D03*
X246470000Y-96230000D03*
X249010000Y-98770000D03*
X249010000Y-96230000D03*
X251550000Y-98770000D03*
X251550000Y-96230000D03*
X254090000Y-98770000D03*
X254090000Y-96230000D03*
X256630000Y-98770000D03*
X256630000Y-96230000D03*
D12*
X222305960Y-166581120D03*
G04 #@! TA.AperFunction,ComponentPad*
G36*
G01*
X223955960Y-166131120D02*
X223955960Y-167031120D01*
G75*
G02*
X223755960Y-167231120I-200000J0D01*
G01*
X223355960Y-167231120D01*
G75*
G02*
X223155960Y-167031120I0J200000D01*
G01*
X223155960Y-166131120D01*
G75*
G02*
X223355960Y-165931120I200000J0D01*
G01*
X223755960Y-165931120D01*
G75*
G02*
X223955960Y-166131120I0J-200000D01*
G01*
G37*
G04 #@! TD.AperFunction*
D13*
X228639800Y-166714000D03*
X261036200Y-113043000D03*
X203450000Y-109500000D03*
X234008600Y-166739400D03*
X203450000Y-104650000D03*
X203345180Y-157622540D03*
X239402800Y-166790200D03*
X203329940Y-152705100D03*
G04 #@! TA.AperFunction,ComponentPad*
G36*
G01*
X227019300Y-129507700D02*
X227019300Y-128607700D01*
G75*
G02*
X227219300Y-128407700I200000J0D01*
G01*
X227619300Y-128407700D01*
G75*
G02*
X227819300Y-128607700I0J-200000D01*
G01*
X227819300Y-129507700D01*
G75*
G02*
X227619300Y-129707700I-200000J0D01*
G01*
X227219300Y-129707700D01*
G75*
G02*
X227019300Y-129507700I0J200000D01*
G01*
G37*
G04 #@! TD.AperFunction*
D12*
X228669300Y-129057700D03*
D14*
X250565900Y-110804100D03*
X251865900Y-110804100D03*
X253165900Y-110804100D03*
X249265900Y-110804100D03*
X247965900Y-110804100D03*
X246665900Y-109504100D03*
X247965900Y-109504100D03*
X249265900Y-109504100D03*
X250565900Y-109504100D03*
X251865900Y-109504100D03*
X253165900Y-109504100D03*
X254465900Y-109504100D03*
X246665900Y-110804100D03*
X246665900Y-112104100D03*
X247965900Y-112104100D03*
X249265900Y-112104100D03*
X250565900Y-112104100D03*
X251865900Y-112104100D03*
X253165900Y-112104100D03*
X254465900Y-112104100D03*
X254465900Y-110804100D03*
D15*
X259647900Y-160985500D03*
X246447900Y-160985500D03*
D16*
X251041900Y-121274100D03*
D17*
X251041900Y-123274100D03*
D10*
X208650000Y-103400000D03*
D11*
X208650000Y-105940000D03*
X208650000Y-108480000D03*
X208650000Y-111020000D03*
X208650000Y-113560000D03*
D18*
X260223400Y-103886300D03*
X262763400Y-106426300D03*
X260223400Y-108966300D03*
D19*
X250131980Y-131602780D03*
D20*
X250131980Y-136682780D03*
D12*
X279203200Y-110398600D03*
G04 #@! TA.AperFunction,ComponentPad*
G36*
G01*
X277553200Y-110848600D02*
X277553200Y-109948600D01*
G75*
G02*
X277753200Y-109748600I200000J0D01*
G01*
X278153200Y-109748600D01*
G75*
G02*
X278353200Y-109948600I0J-200000D01*
G01*
X278353200Y-110848600D01*
G75*
G02*
X278153200Y-111048600I-200000J0D01*
G01*
X277753200Y-111048600D01*
G75*
G02*
X277553200Y-110848600I0J200000D01*
G01*
G37*
G04 #@! TD.AperFunction*
G04 #@! TA.AperFunction,ComponentPad*
G36*
G01*
X297568400Y-116462000D02*
X297568400Y-115562000D01*
G75*
G02*
X297768400Y-115362000I200000J0D01*
G01*
X298168400Y-115362000D01*
G75*
G02*
X298368400Y-115562000I0J-200000D01*
G01*
X298368400Y-116462000D01*
G75*
G02*
X298168400Y-116662000I-200000J0D01*
G01*
X297768400Y-116662000D01*
G75*
G02*
X297568400Y-116462000I0J200000D01*
G01*
G37*
G04 #@! TD.AperFunction*
X299218400Y-116012000D03*
G04 #@! TA.AperFunction,ComponentPad*
G36*
G01*
X277451600Y-104752600D02*
X277451600Y-103852600D01*
G75*
G02*
X277651600Y-103652600I200000J0D01*
G01*
X278051600Y-103652600D01*
G75*
G02*
X278251600Y-103852600I0J-200000D01*
G01*
X278251600Y-104752600D01*
G75*
G02*
X278051600Y-104952600I-200000J0D01*
G01*
X277651600Y-104952600D01*
G75*
G02*
X277451600Y-104752600I0J200000D01*
G01*
G37*
G04 #@! TD.AperFunction*
X279101600Y-104302600D03*
X277846200Y-97520800D03*
G04 #@! TA.AperFunction,ComponentPad*
G36*
G01*
X279496200Y-97070800D02*
X279496200Y-97970800D01*
G75*
G02*
X279296200Y-98170800I-200000J0D01*
G01*
X278896200Y-98170800D01*
G75*
G02*
X278696200Y-97970800I0J200000D01*
G01*
X278696200Y-97070800D01*
G75*
G02*
X278896200Y-96870800I200000J0D01*
G01*
X279296200Y-96870800D01*
G75*
G02*
X279496200Y-97070800I0J-200000D01*
G01*
G37*
G04 #@! TD.AperFunction*
G04 #@! TA.AperFunction,ComponentPad*
G36*
G01*
X286963800Y-97070800D02*
X286963800Y-97970800D01*
G75*
G02*
X286763800Y-98170800I-200000J0D01*
G01*
X286363800Y-98170800D01*
G75*
G02*
X286163800Y-97970800I0J200000D01*
G01*
X286163800Y-97070800D01*
G75*
G02*
X286363800Y-96870800I200000J0D01*
G01*
X286763800Y-96870800D01*
G75*
G02*
X286963800Y-97070800I0J-200000D01*
G01*
G37*
G04 #@! TD.AperFunction*
X285313800Y-97520800D03*
D10*
X293203600Y-97406500D03*
D11*
X295743600Y-97406500D03*
X298283600Y-97406500D03*
D14*
X279650251Y-134506811D03*
X279650251Y-133906811D03*
X280450251Y-134506811D03*
X280450251Y-133906811D03*
X280450251Y-133306811D03*
X279650251Y-133306811D03*
X280450251Y-132706811D03*
X279650251Y-132706811D03*
X279650251Y-132106811D03*
X280450251Y-132106811D03*
D21*
X203500000Y-97500000D03*
X261500000Y-97500000D03*
X203500000Y-146500000D03*
X261500000Y-146500000D03*
D22*
X203500000Y-165500000D03*
D23*
X217526000Y-102032100D03*
X213830000Y-109590000D03*
X207543800Y-117869000D03*
X240386000Y-146240800D03*
X209804400Y-122390200D03*
X234239200Y-136818700D03*
X231699200Y-136856800D03*
X234086800Y-141505000D03*
X233883600Y-158597900D03*
X233921700Y-153911600D03*
X233947100Y-156286500D03*
X231623000Y-153949700D03*
X217251460Y-161875340D03*
X217251460Y-163175340D03*
X217269460Y-160637520D03*
X236220400Y-106108800D03*
X217272000Y-151828800D03*
X218719800Y-141922800D03*
X220726400Y-141287800D03*
D24*
X216002000Y-110223600D03*
D23*
X213335000Y-114414600D03*
X219253200Y-113043000D03*
X230251400Y-125844600D03*
X237922200Y-125920800D03*
X220421600Y-149720600D03*
X231191200Y-144412000D03*
X201041400Y-140043200D03*
X200127000Y-134582200D03*
X208585200Y-134633000D03*
X213944600Y-129984800D03*
X226339800Y-139560600D03*
X241300400Y-152032000D03*
X209931400Y-124955600D03*
X215671800Y-118961200D03*
X223622000Y-105905600D03*
X232512000Y-131432600D03*
X255151900Y-118684100D03*
X244742100Y-118364300D03*
X208049260Y-164709140D03*
X209116060Y-164709140D03*
X231733690Y-139178618D03*
D24*
X251651180Y-119496565D03*
D23*
X218542000Y-107518500D03*
X204648200Y-140050820D03*
X233972500Y-149720600D03*
X256984900Y-113462100D03*
X244297600Y-107645500D03*
X250507900Y-119494600D03*
X216051460Y-163175340D03*
X216051460Y-161875340D03*
X214500000Y-105400000D03*
X214500000Y-102800000D03*
X234150300Y-139193600D03*
X225908000Y-108877400D03*
X245935900Y-125400100D03*
X243611900Y-117294100D03*
X208328660Y-156250940D03*
X221793200Y-139890800D03*
X235356800Y-146748800D03*
X209913620Y-156271260D03*
D25*
X219456400Y-155499100D03*
D23*
X255841900Y-107874100D03*
X239636700Y-122364800D03*
X239878000Y-129553000D03*
D25*
X216380460Y-166055340D03*
D23*
X215915640Y-156697980D03*
X238366700Y-132475300D03*
X227508200Y-147866400D03*
X238938200Y-153683000D03*
D25*
X222220001Y-112463799D03*
X218211800Y-122466400D03*
X220624800Y-113932000D03*
X218288000Y-123711000D03*
X229565600Y-113017600D03*
X232143700Y-116002100D03*
D24*
X251050890Y-116433900D03*
X251050890Y-115595700D03*
D25*
X237820600Y-118453200D03*
D24*
X252646672Y-116225528D03*
X252616100Y-115494100D03*
D25*
X227051000Y-123584000D03*
D24*
X250323566Y-116100707D03*
X250330100Y-116941900D03*
D25*
X239471600Y-118097600D03*
D24*
X248917290Y-116510100D03*
X248917290Y-115671900D03*
D25*
X216800000Y-111000000D03*
X232194500Y-106210400D03*
X219200000Y-109700000D03*
X230137100Y-106045300D03*
X216687800Y-141237000D03*
X252793900Y-106362800D03*
X249834800Y-102781400D03*
X239890700Y-115113100D03*
X236398200Y-124422200D03*
X217396460Y-167160240D03*
X240820340Y-111135460D03*
X241701720Y-144546620D03*
X225146000Y-112789000D03*
X217272000Y-145478800D03*
X226974800Y-155054600D03*
X208763000Y-136893600D03*
D24*
X255905400Y-116891100D03*
X249441100Y-117119700D03*
X252221900Y-116994100D03*
X247777400Y-106286600D03*
D25*
X235560000Y-111468200D03*
D24*
X248691800Y-106286600D03*
D25*
X232994600Y-111493600D03*
X234137600Y-106185000D03*
X284887400Y-110500200D03*
X297231800Y-102359500D03*
X285160600Y-106430000D03*
X284758100Y-102613500D03*
D23*
X222148800Y-160238740D03*
D25*
X213919200Y-126276400D03*
X289076100Y-106423500D03*
X272696600Y-121657000D03*
D24*
X282188960Y-138785660D03*
X281188960Y-138785660D03*
X280188960Y-138785660D03*
X279188960Y-138785660D03*
X278188960Y-138785660D03*
X277188960Y-138785660D03*
X282188960Y-137785660D03*
X281188960Y-137785660D03*
X280188960Y-137785660D03*
X279188960Y-137785660D03*
X278188960Y-137785660D03*
X282308340Y-129628960D03*
X281308340Y-129628960D03*
X280308340Y-129628960D03*
X279308340Y-129628960D03*
X278308340Y-129628960D03*
X277308340Y-129628960D03*
X282308340Y-128628960D03*
X281308340Y-128628960D03*
X280308340Y-128628960D03*
X279308340Y-128628960D03*
X278308340Y-128628960D03*
X277308340Y-128628960D03*
X277188960Y-137785660D03*
D25*
X274196600Y-121657000D03*
X275696600Y-121657000D03*
X277196600Y-121657000D03*
X278696600Y-121657000D03*
X280196600Y-121657000D03*
X281696600Y-121657000D03*
X283196600Y-121657000D03*
X284696600Y-121657000D03*
X286196600Y-121657000D03*
X287696600Y-121657000D03*
X272696600Y-123157000D03*
X272696600Y-124657000D03*
X277196600Y-123157000D03*
X277196600Y-124657000D03*
X278696600Y-123157000D03*
X280196600Y-123157000D03*
X281696600Y-123157000D03*
X283196600Y-123157000D03*
X284696600Y-123157000D03*
X286196600Y-123157000D03*
X278696600Y-124657000D03*
X280196600Y-124657000D03*
X281696600Y-124657000D03*
X283196600Y-124657000D03*
X284696600Y-124657000D03*
X286196600Y-124657000D03*
X289096600Y-126457000D03*
X290596600Y-126457000D03*
X292096600Y-126457000D03*
X287596600Y-132457000D03*
X287596600Y-133957000D03*
X287596600Y-135457000D03*
X287596600Y-136957000D03*
X287596600Y-138457000D03*
X287596600Y-139957000D03*
X287596600Y-141457000D03*
X287596600Y-142957000D03*
X287596600Y-144457000D03*
X289096600Y-127957000D03*
X289096600Y-129457000D03*
X289096600Y-130957000D03*
X289096600Y-132457000D03*
X289096600Y-133957000D03*
X289096600Y-135457000D03*
X289096600Y-136957000D03*
X289096600Y-138457000D03*
X289096600Y-139957000D03*
X290596600Y-127957000D03*
X290596600Y-129457000D03*
X290596600Y-130957000D03*
X290596600Y-135457000D03*
X290596600Y-136957000D03*
X290596600Y-138457000D03*
X290596600Y-139957000D03*
X292096600Y-127957000D03*
X292096600Y-129457000D03*
X292096600Y-130957000D03*
X292096600Y-135457000D03*
X292096600Y-136957000D03*
X292096600Y-138457000D03*
X292096600Y-139957000D03*
X286096600Y-132457000D03*
X286096600Y-133957000D03*
X286096600Y-135457000D03*
X286096600Y-141457000D03*
X286096600Y-142957000D03*
X286096600Y-144457000D03*
X284596600Y-141457000D03*
X283096600Y-141457000D03*
X281596600Y-141457000D03*
X280096600Y-141457000D03*
X278596600Y-141457000D03*
X277096600Y-141457000D03*
X275596600Y-141457000D03*
X274096600Y-141457000D03*
X272596600Y-141457000D03*
X284596600Y-142957000D03*
X283096600Y-142957000D03*
X281596600Y-142957000D03*
X280096600Y-142957000D03*
X278596600Y-142957000D03*
X277096600Y-142957000D03*
X275596600Y-142957000D03*
X274096600Y-142957000D03*
X272596600Y-142957000D03*
X284596600Y-144457000D03*
X283096600Y-144457000D03*
X281596600Y-144457000D03*
X280096600Y-144457000D03*
X278596600Y-144457000D03*
X277096600Y-144457000D03*
X275596600Y-144457000D03*
X274096600Y-144457000D03*
X272596600Y-144457000D03*
X272596600Y-139957000D03*
X272596600Y-138457000D03*
X272596600Y-136957000D03*
X272596600Y-135457000D03*
X272596600Y-133957000D03*
X274096600Y-139957000D03*
X275596600Y-139957000D03*
X277096600Y-139957000D03*
X278596600Y-139957000D03*
X280096600Y-139957000D03*
X281596600Y-139957000D03*
X283096600Y-139957000D03*
X284596600Y-135457000D03*
X274096600Y-138457000D03*
X274096600Y-136957000D03*
X274096600Y-135457000D03*
X275596600Y-138457000D03*
X275596600Y-136957000D03*
X275596600Y-135457000D03*
X275596600Y-132457000D03*
X275596600Y-130957000D03*
X271096600Y-139957000D03*
X269596600Y-139957000D03*
X268096600Y-139957000D03*
X271096600Y-138457000D03*
X269596600Y-138457000D03*
X268096600Y-138457000D03*
X271096600Y-136957000D03*
X269596600Y-136957000D03*
X268096600Y-136957000D03*
X271096600Y-135457000D03*
X269596600Y-135457000D03*
X268096600Y-135457000D03*
X271096600Y-133957000D03*
X269596600Y-133957000D03*
X268096600Y-133957000D03*
X269596600Y-132457000D03*
X268096600Y-132457000D03*
X271096600Y-132457000D03*
X287596600Y-130957000D03*
X281696600Y-126157000D03*
X280196600Y-126157000D03*
X278696600Y-126157000D03*
X277196600Y-126157000D03*
D26*
X208370000Y-100204000D02*
X209906000Y-101740000D01*
X208370000Y-98770000D02*
X208370000Y-100204000D01*
X207543800Y-151691640D02*
X207543800Y-117869000D01*
X209690100Y-153837940D02*
X207543800Y-151691640D01*
X235465000Y-162852400D02*
X232651700Y-162852400D01*
X223637240Y-153837940D02*
X209690100Y-153837940D01*
X232651700Y-162852400D02*
X223637240Y-153837940D01*
X239402800Y-166790200D02*
X235465000Y-162852400D01*
X217233900Y-101740000D02*
X217526000Y-102032100D01*
X209906000Y-101740000D02*
X217233900Y-101740000D01*
X208370000Y-103120000D02*
X208650000Y-103400000D01*
X208370000Y-98770000D02*
X208370000Y-103120000D01*
X213830000Y-106530000D02*
X213830000Y-109590000D01*
X210700000Y-103400000D02*
X213830000Y-106530000D01*
X208650000Y-103400000D02*
X210700000Y-103400000D01*
X209804400Y-122390200D02*
X215011400Y-122390200D01*
X227025600Y-134404400D02*
X235229800Y-134404400D01*
X215011400Y-122390200D02*
X227025600Y-134404400D01*
X240386000Y-139560600D02*
X240386000Y-146240800D01*
X235229800Y-134404400D02*
X240386000Y-139560600D01*
X246447900Y-160985500D02*
X246447900Y-151566100D01*
X243180000Y-129095800D02*
X225908000Y-111823800D01*
X246447900Y-151566100D02*
X243180000Y-148298200D01*
X243180000Y-148298200D02*
X243180000Y-129095800D01*
X225908000Y-111823800D02*
X225908000Y-108877400D01*
X225908000Y-108877400D02*
X225908000Y-108877400D01*
D27*
X248907700Y-121412300D02*
X245935900Y-124384100D01*
X245935900Y-124384100D02*
X245935900Y-125400100D01*
X251028600Y-121412300D02*
X248907700Y-121412300D01*
X219456400Y-155499100D02*
X222654260Y-155499100D01*
X228674060Y-161518900D02*
X228674060Y-166679740D01*
X222654260Y-155499100D02*
X228674060Y-161518900D01*
D26*
X228674060Y-166679740D02*
X228639800Y-166714000D01*
D27*
X235356800Y-146748800D02*
X228651200Y-146748800D01*
X228651200Y-146748800D02*
X221793200Y-139890800D01*
D26*
X255841900Y-107874100D02*
X255841900Y-115214700D01*
X244615100Y-127343200D02*
X239636700Y-122364800D01*
X255841900Y-115214700D02*
X257175400Y-116548200D01*
X257175400Y-121323400D02*
X251155600Y-127343200D01*
X251155600Y-127343200D02*
X244615100Y-127343200D01*
X257175400Y-116548200D02*
X257175400Y-121323400D01*
X224053800Y-116116400D02*
X224714200Y-116116400D01*
X224714200Y-116116400D02*
X238150800Y-129553000D01*
X238150800Y-129553000D02*
X239878000Y-129553000D01*
X239878000Y-129553000D02*
X239878000Y-129553000D01*
X208370000Y-96230000D02*
X210910000Y-96230000D01*
X207446400Y-116116400D02*
X224104600Y-116116400D01*
X206900000Y-115570000D02*
X207446400Y-116116400D01*
X206900000Y-97340000D02*
X206900000Y-115570000D01*
X208010000Y-96230000D02*
X206900000Y-97340000D01*
X208370000Y-96230000D02*
X208010000Y-96230000D01*
D28*
X232143700Y-116002100D02*
X232029400Y-115887800D01*
X236830000Y-120688400D02*
X232143700Y-116002100D01*
X244932600Y-120688400D02*
X236830000Y-120688400D01*
X247320200Y-118300800D02*
X244932600Y-120688400D01*
X250571400Y-118300800D02*
X247320200Y-118300800D01*
X251050890Y-117821310D02*
X250571400Y-118300800D01*
X251050890Y-116433900D02*
X251050890Y-117821310D01*
X237820600Y-118453200D02*
X237820600Y-118453200D01*
X242959700Y-113314100D02*
X237820600Y-118453200D01*
X250893300Y-113314100D02*
X242959700Y-113314100D01*
X250893300Y-113314100D02*
X252616100Y-115036900D01*
X252616100Y-115036900D02*
X252616100Y-115494100D01*
X252616100Y-115494100D02*
X252616100Y-116194956D01*
X252616100Y-116194956D02*
X252646672Y-116225528D01*
X250323566Y-116935366D02*
X250330100Y-116941900D01*
X239471600Y-118097600D02*
X239471600Y-118097600D01*
X241897300Y-115671900D02*
X239471600Y-118097600D01*
X248917290Y-115671900D02*
X241897300Y-115671900D01*
D29*
X216780000Y-111020000D02*
X216800000Y-111000000D01*
X208650000Y-111020000D02*
X216780000Y-111020000D01*
X252844700Y-106312000D02*
X252793900Y-106362800D01*
X249834800Y-102781400D02*
X249834800Y-101054200D01*
X249834800Y-101054200D02*
X251550000Y-99339000D01*
X251550000Y-99339000D02*
X251550000Y-98770000D01*
X239890700Y-115113100D02*
X240040560Y-114963240D01*
X240040560Y-114963240D02*
X240040560Y-102659440D01*
X240040560Y-102659440D02*
X243930000Y-98770000D01*
X241910000Y-169596100D02*
X219832320Y-169596100D01*
X219832320Y-169596100D02*
X217396460Y-167160240D01*
X243154600Y-168351500D02*
X241910000Y-169596100D01*
X243154600Y-150302260D02*
X243154600Y-168351500D01*
X241701720Y-148849380D02*
X243154600Y-150302260D01*
X241701720Y-144546620D02*
X241701720Y-148849380D01*
X249010000Y-98770000D02*
X248309000Y-98770000D01*
X248309000Y-98770000D02*
X240810180Y-106268820D01*
X240810180Y-106268820D02*
X240810180Y-111125300D01*
X240810180Y-111125300D02*
X240820340Y-111135460D01*
X225146000Y-112789000D02*
X224460200Y-112103200D01*
X224460200Y-112103200D02*
X224460200Y-102160200D01*
X224460200Y-102160200D02*
X221070000Y-98770000D01*
X226974800Y-155054600D02*
X226974800Y-154368800D01*
X218084800Y-145478800D02*
X217272000Y-145478800D01*
X226974800Y-154368800D02*
X218084800Y-145478800D01*
X228420000Y-98770000D02*
X228690000Y-98770000D01*
D26*
X220200620Y-158290560D02*
X204013200Y-158290560D01*
X204013200Y-158290560D02*
X203345180Y-157622540D01*
X222148800Y-160238740D02*
X220200620Y-158290560D01*
D30*
X290999267Y-121139123D02*
X291431181Y-121269525D01*
X291829536Y-121481335D01*
X292179165Y-121766486D01*
X292466748Y-122114114D01*
X292681337Y-122510988D01*
X292814749Y-122941972D01*
X292865251Y-123422465D01*
X292865252Y-143373295D01*
X292817939Y-143855826D01*
X292687538Y-144287737D01*
X292475731Y-144686090D01*
X292190576Y-145035724D01*
X291842948Y-145323307D01*
X291446076Y-145537895D01*
X291015085Y-145671310D01*
X290534587Y-145721811D01*
X269583755Y-145721811D01*
X269101235Y-145674499D01*
X268669324Y-145544098D01*
X268270971Y-145332291D01*
X267921337Y-145047136D01*
X267633754Y-144699508D01*
X267419166Y-144302636D01*
X267285751Y-143871645D01*
X267235246Y-143391113D01*
X267235203Y-143232944D01*
X267784951Y-143232944D01*
X267784951Y-143580678D01*
X267852790Y-143921730D01*
X267985862Y-144242994D01*
X268179053Y-144532124D01*
X268424938Y-144778009D01*
X268714068Y-144971200D01*
X269035332Y-145104272D01*
X269376384Y-145172111D01*
X269724118Y-145172111D01*
X270065170Y-145104272D01*
X270386434Y-144971200D01*
X270675564Y-144778009D01*
X270921449Y-144532124D01*
X271114640Y-144242994D01*
X271247712Y-143921730D01*
X271315551Y-143580678D01*
X271315551Y-143232944D01*
X288784951Y-143232944D01*
X288784951Y-143580678D01*
X288852790Y-143921730D01*
X288985862Y-144242994D01*
X289179053Y-144532124D01*
X289424938Y-144778009D01*
X289714068Y-144971200D01*
X290035332Y-145104272D01*
X290376384Y-145172111D01*
X290724118Y-145172111D01*
X291065170Y-145104272D01*
X291386434Y-144971200D01*
X291675564Y-144778009D01*
X291921449Y-144532124D01*
X292114640Y-144242994D01*
X292247712Y-143921730D01*
X292315551Y-143580678D01*
X292315551Y-143232944D01*
X292247712Y-142891892D01*
X292114640Y-142570628D01*
X291921449Y-142281498D01*
X291675564Y-142035613D01*
X291386434Y-141842422D01*
X291065170Y-141709350D01*
X290724118Y-141641511D01*
X290376384Y-141641511D01*
X290035332Y-141709350D01*
X289714068Y-141842422D01*
X289424938Y-142035613D01*
X289179053Y-142281498D01*
X288985862Y-142570628D01*
X288852790Y-142891892D01*
X288784951Y-143232944D01*
X271315551Y-143232944D01*
X271247712Y-142891892D01*
X271114640Y-142570628D01*
X270921449Y-142281498D01*
X270675564Y-142035613D01*
X270386434Y-141842422D01*
X270065170Y-141709350D01*
X269724118Y-141641511D01*
X269376384Y-141641511D01*
X269035332Y-141709350D01*
X268714068Y-141842422D01*
X268424938Y-142035613D01*
X268179053Y-142281498D01*
X267985862Y-142570628D01*
X267852790Y-142891892D01*
X267784951Y-143232944D01*
X267235203Y-143232944D01*
X267232990Y-135235564D01*
X267229653Y-135201781D01*
X267229653Y-135191561D01*
X267228654Y-135182049D01*
X267211524Y-135029333D01*
X267198618Y-134968614D01*
X267186557Y-134907704D01*
X267183729Y-134898567D01*
X267137263Y-134752087D01*
X267112811Y-134695037D01*
X267089146Y-134637621D01*
X267084597Y-134629208D01*
X267010564Y-134494543D01*
X266975486Y-134443313D01*
X266941132Y-134391606D01*
X266935036Y-134384237D01*
X266836257Y-134266516D01*
X266791899Y-134223077D01*
X266748149Y-134179021D01*
X266740737Y-134172976D01*
X266620973Y-134076684D01*
X266569009Y-134042680D01*
X266517556Y-134007974D01*
X266509111Y-134003484D01*
X266509109Y-134003483D01*
X266509106Y-134003481D01*
X266509103Y-134003480D01*
X266372925Y-133932287D01*
X266315368Y-133909032D01*
X266258123Y-133884969D01*
X266248967Y-133882204D01*
X266101546Y-133838816D01*
X266051159Y-133829204D01*
X266045119Y-133292561D01*
X289890251Y-133292561D01*
X289890251Y-133521061D01*
X289934829Y-133745171D01*
X290022272Y-133956277D01*
X290149220Y-134146268D01*
X290310794Y-134307842D01*
X290500785Y-134434790D01*
X290711891Y-134522233D01*
X290936001Y-134566811D01*
X291164501Y-134566811D01*
X291388611Y-134522233D01*
X291599717Y-134434790D01*
X291789708Y-134307842D01*
X291951282Y-134146268D01*
X292078230Y-133956277D01*
X292165673Y-133745171D01*
X292210251Y-133521061D01*
X292210251Y-133292561D01*
X292165673Y-133068451D01*
X292078230Y-132857345D01*
X291951282Y-132667354D01*
X291789708Y-132505780D01*
X291599717Y-132378832D01*
X291388611Y-132291389D01*
X291164501Y-132246811D01*
X290936001Y-132246811D01*
X290711891Y-132291389D01*
X290500785Y-132378832D01*
X290310794Y-132505780D01*
X290149220Y-132667354D01*
X290022272Y-132857345D01*
X289934829Y-133068451D01*
X289890251Y-133292561D01*
X266045119Y-133292561D01*
X266037281Y-132596169D01*
X266051371Y-132593277D01*
X266112335Y-132581647D01*
X266121491Y-132578883D01*
X266268292Y-132533440D01*
X266325529Y-132509379D01*
X266383090Y-132486123D01*
X266391530Y-132481635D01*
X266391535Y-132481633D01*
X266391539Y-132481630D01*
X266526712Y-132408542D01*
X266578156Y-132373843D01*
X266630130Y-132339832D01*
X266637542Y-132333787D01*
X266755950Y-132235832D01*
X266799698Y-132191777D01*
X266844056Y-132148339D01*
X266850153Y-132140970D01*
X266947279Y-132021882D01*
X266981650Y-131970148D01*
X267016711Y-131918944D01*
X267021260Y-131910531D01*
X267093406Y-131774845D01*
X267117066Y-131717440D01*
X267141524Y-131660376D01*
X267144353Y-131651239D01*
X267188769Y-131504124D01*
X267200831Y-131443206D01*
X267213735Y-131382497D01*
X267214735Y-131372985D01*
X267229731Y-131220045D01*
X267229731Y-131220034D01*
X267232990Y-131187046D01*
X267235241Y-123440424D01*
X267255584Y-123232945D01*
X267784951Y-123232945D01*
X267784951Y-123580679D01*
X267852790Y-123921731D01*
X267985862Y-124242995D01*
X268179053Y-124532125D01*
X268424938Y-124778010D01*
X268714068Y-124971201D01*
X269035332Y-125104273D01*
X269376384Y-125172112D01*
X269724118Y-125172112D01*
X270065170Y-125104273D01*
X270386434Y-124971201D01*
X270675564Y-124778010D01*
X270921449Y-124532125D01*
X271114640Y-124242995D01*
X271247712Y-123921731D01*
X271278632Y-123766282D01*
X273390251Y-123766282D01*
X273390251Y-123994782D01*
X273434829Y-124218892D01*
X273522272Y-124429998D01*
X273649220Y-124619989D01*
X273810794Y-124781563D01*
X274000785Y-124908511D01*
X274211891Y-124995954D01*
X274436001Y-125040532D01*
X274664501Y-125040532D01*
X274888611Y-124995954D01*
X275099717Y-124908511D01*
X275289708Y-124781563D01*
X275451282Y-124619989D01*
X275578230Y-124429998D01*
X275665673Y-124218892D01*
X275710251Y-123994782D01*
X275710251Y-123766282D01*
X275665673Y-123542172D01*
X275578230Y-123331066D01*
X275512667Y-123232944D01*
X288784951Y-123232944D01*
X288784951Y-123580678D01*
X288852790Y-123921730D01*
X288985862Y-124242994D01*
X289179053Y-124532124D01*
X289424938Y-124778009D01*
X289714068Y-124971200D01*
X290035332Y-125104272D01*
X290376384Y-125172111D01*
X290724118Y-125172111D01*
X291065170Y-125104272D01*
X291386434Y-124971200D01*
X291675564Y-124778009D01*
X291921449Y-124532124D01*
X292114640Y-124242994D01*
X292247712Y-123921730D01*
X292315551Y-123580678D01*
X292315551Y-123232944D01*
X292247712Y-122891892D01*
X292114640Y-122570628D01*
X291921449Y-122281498D01*
X291675564Y-122035613D01*
X291386434Y-121842422D01*
X291065170Y-121709350D01*
X290724118Y-121641511D01*
X290376384Y-121641511D01*
X290035332Y-121709350D01*
X289714068Y-121842422D01*
X289424938Y-122035613D01*
X289179053Y-122281498D01*
X288985862Y-122570628D01*
X288852790Y-122891892D01*
X288784951Y-123232944D01*
X275512667Y-123232944D01*
X275451282Y-123141075D01*
X275289708Y-122979501D01*
X275099717Y-122852553D01*
X274888611Y-122765110D01*
X274664501Y-122720532D01*
X274436001Y-122720532D01*
X274211891Y-122765110D01*
X274000785Y-122852553D01*
X273810794Y-122979501D01*
X273649220Y-123141075D01*
X273522272Y-123331066D01*
X273434829Y-123542172D01*
X273390251Y-123766282D01*
X271278632Y-123766282D01*
X271315551Y-123580679D01*
X271315551Y-123232945D01*
X271247712Y-122891893D01*
X271114640Y-122570629D01*
X270921449Y-122281499D01*
X270675564Y-122035614D01*
X270386434Y-121842423D01*
X270065170Y-121709351D01*
X269724118Y-121641512D01*
X269376384Y-121641512D01*
X269035332Y-121709351D01*
X268714068Y-121842423D01*
X268424938Y-122035614D01*
X268179053Y-122281499D01*
X267985862Y-122570629D01*
X267852790Y-122891893D01*
X267784951Y-123232945D01*
X267255584Y-123232945D01*
X267282563Y-122957796D01*
X267412965Y-122525882D01*
X267624775Y-122127527D01*
X267909926Y-121777898D01*
X268257554Y-121490315D01*
X268654428Y-121275726D01*
X269085412Y-121142314D01*
X269565905Y-121091812D01*
X290516735Y-121091810D01*
X290999267Y-121139123D01*
G04 #@! TA.AperFunction,Conductor*
D31*
G36*
X290999267Y-121139123D02*
G01*
X291431181Y-121269525D01*
X291829536Y-121481335D01*
X292179165Y-121766486D01*
X292466748Y-122114114D01*
X292681337Y-122510988D01*
X292814749Y-122941972D01*
X292865251Y-123422465D01*
X292865252Y-143373295D01*
X292817939Y-143855826D01*
X292687538Y-144287737D01*
X292475731Y-144686090D01*
X292190576Y-145035724D01*
X291842948Y-145323307D01*
X291446076Y-145537895D01*
X291015085Y-145671310D01*
X290534587Y-145721811D01*
X269583755Y-145721811D01*
X269101235Y-145674499D01*
X268669324Y-145544098D01*
X268270971Y-145332291D01*
X267921337Y-145047136D01*
X267633754Y-144699508D01*
X267419166Y-144302636D01*
X267285751Y-143871645D01*
X267235246Y-143391113D01*
X267235203Y-143232944D01*
X267784951Y-143232944D01*
X267784951Y-143580678D01*
X267852790Y-143921730D01*
X267985862Y-144242994D01*
X268179053Y-144532124D01*
X268424938Y-144778009D01*
X268714068Y-144971200D01*
X269035332Y-145104272D01*
X269376384Y-145172111D01*
X269724118Y-145172111D01*
X270065170Y-145104272D01*
X270386434Y-144971200D01*
X270675564Y-144778009D01*
X270921449Y-144532124D01*
X271114640Y-144242994D01*
X271247712Y-143921730D01*
X271315551Y-143580678D01*
X271315551Y-143232944D01*
X288784951Y-143232944D01*
X288784951Y-143580678D01*
X288852790Y-143921730D01*
X288985862Y-144242994D01*
X289179053Y-144532124D01*
X289424938Y-144778009D01*
X289714068Y-144971200D01*
X290035332Y-145104272D01*
X290376384Y-145172111D01*
X290724118Y-145172111D01*
X291065170Y-145104272D01*
X291386434Y-144971200D01*
X291675564Y-144778009D01*
X291921449Y-144532124D01*
X292114640Y-144242994D01*
X292247712Y-143921730D01*
X292315551Y-143580678D01*
X292315551Y-143232944D01*
X292247712Y-142891892D01*
X292114640Y-142570628D01*
X291921449Y-142281498D01*
X291675564Y-142035613D01*
X291386434Y-141842422D01*
X291065170Y-141709350D01*
X290724118Y-141641511D01*
X290376384Y-141641511D01*
X290035332Y-141709350D01*
X289714068Y-141842422D01*
X289424938Y-142035613D01*
X289179053Y-142281498D01*
X288985862Y-142570628D01*
X288852790Y-142891892D01*
X288784951Y-143232944D01*
X271315551Y-143232944D01*
X271247712Y-142891892D01*
X271114640Y-142570628D01*
X270921449Y-142281498D01*
X270675564Y-142035613D01*
X270386434Y-141842422D01*
X270065170Y-141709350D01*
X269724118Y-141641511D01*
X269376384Y-141641511D01*
X269035332Y-141709350D01*
X268714068Y-141842422D01*
X268424938Y-142035613D01*
X268179053Y-142281498D01*
X267985862Y-142570628D01*
X267852790Y-142891892D01*
X267784951Y-143232944D01*
X267235203Y-143232944D01*
X267232990Y-135235564D01*
X267229653Y-135201781D01*
X267229653Y-135191561D01*
X267228654Y-135182049D01*
X267211524Y-135029333D01*
X267198618Y-134968614D01*
X267186557Y-134907704D01*
X267183729Y-134898567D01*
X267137263Y-134752087D01*
X267112811Y-134695037D01*
X267089146Y-134637621D01*
X267084597Y-134629208D01*
X267010564Y-134494543D01*
X266975486Y-134443313D01*
X266941132Y-134391606D01*
X266935036Y-134384237D01*
X266836257Y-134266516D01*
X266791899Y-134223077D01*
X266748149Y-134179021D01*
X266740737Y-134172976D01*
X266620973Y-134076684D01*
X266569009Y-134042680D01*
X266517556Y-134007974D01*
X266509111Y-134003484D01*
X266509109Y-134003483D01*
X266509106Y-134003481D01*
X266509103Y-134003480D01*
X266372925Y-133932287D01*
X266315368Y-133909032D01*
X266258123Y-133884969D01*
X266248967Y-133882204D01*
X266101546Y-133838816D01*
X266051159Y-133829204D01*
X266045119Y-133292561D01*
X289890251Y-133292561D01*
X289890251Y-133521061D01*
X289934829Y-133745171D01*
X290022272Y-133956277D01*
X290149220Y-134146268D01*
X290310794Y-134307842D01*
X290500785Y-134434790D01*
X290711891Y-134522233D01*
X290936001Y-134566811D01*
X291164501Y-134566811D01*
X291388611Y-134522233D01*
X291599717Y-134434790D01*
X291789708Y-134307842D01*
X291951282Y-134146268D01*
X292078230Y-133956277D01*
X292165673Y-133745171D01*
X292210251Y-133521061D01*
X292210251Y-133292561D01*
X292165673Y-133068451D01*
X292078230Y-132857345D01*
X291951282Y-132667354D01*
X291789708Y-132505780D01*
X291599717Y-132378832D01*
X291388611Y-132291389D01*
X291164501Y-132246811D01*
X290936001Y-132246811D01*
X290711891Y-132291389D01*
X290500785Y-132378832D01*
X290310794Y-132505780D01*
X290149220Y-132667354D01*
X290022272Y-132857345D01*
X289934829Y-133068451D01*
X289890251Y-133292561D01*
X266045119Y-133292561D01*
X266037281Y-132596169D01*
X266051371Y-132593277D01*
X266112335Y-132581647D01*
X266121491Y-132578883D01*
X266268292Y-132533440D01*
X266325529Y-132509379D01*
X266383090Y-132486123D01*
X266391530Y-132481635D01*
X266391535Y-132481633D01*
X266391539Y-132481630D01*
X266526712Y-132408542D01*
X266578156Y-132373843D01*
X266630130Y-132339832D01*
X266637542Y-132333787D01*
X266755950Y-132235832D01*
X266799698Y-132191777D01*
X266844056Y-132148339D01*
X266850153Y-132140970D01*
X266947279Y-132021882D01*
X266981650Y-131970148D01*
X267016711Y-131918944D01*
X267021260Y-131910531D01*
X267093406Y-131774845D01*
X267117066Y-131717440D01*
X267141524Y-131660376D01*
X267144353Y-131651239D01*
X267188769Y-131504124D01*
X267200831Y-131443206D01*
X267213735Y-131382497D01*
X267214735Y-131372985D01*
X267229731Y-131220045D01*
X267229731Y-131220034D01*
X267232990Y-131187046D01*
X267235241Y-123440424D01*
X267255584Y-123232945D01*
X267784951Y-123232945D01*
X267784951Y-123580679D01*
X267852790Y-123921731D01*
X267985862Y-124242995D01*
X268179053Y-124532125D01*
X268424938Y-124778010D01*
X268714068Y-124971201D01*
X269035332Y-125104273D01*
X269376384Y-125172112D01*
X269724118Y-125172112D01*
X270065170Y-125104273D01*
X270386434Y-124971201D01*
X270675564Y-124778010D01*
X270921449Y-124532125D01*
X271114640Y-124242995D01*
X271247712Y-123921731D01*
X271278632Y-123766282D01*
X273390251Y-123766282D01*
X273390251Y-123994782D01*
X273434829Y-124218892D01*
X273522272Y-124429998D01*
X273649220Y-124619989D01*
X273810794Y-124781563D01*
X274000785Y-124908511D01*
X274211891Y-124995954D01*
X274436001Y-125040532D01*
X274664501Y-125040532D01*
X274888611Y-124995954D01*
X275099717Y-124908511D01*
X275289708Y-124781563D01*
X275451282Y-124619989D01*
X275578230Y-124429998D01*
X275665673Y-124218892D01*
X275710251Y-123994782D01*
X275710251Y-123766282D01*
X275665673Y-123542172D01*
X275578230Y-123331066D01*
X275512667Y-123232944D01*
X288784951Y-123232944D01*
X288784951Y-123580678D01*
X288852790Y-123921730D01*
X288985862Y-124242994D01*
X289179053Y-124532124D01*
X289424938Y-124778009D01*
X289714068Y-124971200D01*
X290035332Y-125104272D01*
X290376384Y-125172111D01*
X290724118Y-125172111D01*
X291065170Y-125104272D01*
X291386434Y-124971200D01*
X291675564Y-124778009D01*
X291921449Y-124532124D01*
X292114640Y-124242994D01*
X292247712Y-123921730D01*
X292315551Y-123580678D01*
X292315551Y-123232944D01*
X292247712Y-122891892D01*
X292114640Y-122570628D01*
X291921449Y-122281498D01*
X291675564Y-122035613D01*
X291386434Y-121842422D01*
X291065170Y-121709350D01*
X290724118Y-121641511D01*
X290376384Y-121641511D01*
X290035332Y-121709350D01*
X289714068Y-121842422D01*
X289424938Y-122035613D01*
X289179053Y-122281498D01*
X288985862Y-122570628D01*
X288852790Y-122891892D01*
X288784951Y-123232944D01*
X275512667Y-123232944D01*
X275451282Y-123141075D01*
X275289708Y-122979501D01*
X275099717Y-122852553D01*
X274888611Y-122765110D01*
X274664501Y-122720532D01*
X274436001Y-122720532D01*
X274211891Y-122765110D01*
X274000785Y-122852553D01*
X273810794Y-122979501D01*
X273649220Y-123141075D01*
X273522272Y-123331066D01*
X273434829Y-123542172D01*
X273390251Y-123766282D01*
X271278632Y-123766282D01*
X271315551Y-123580679D01*
X271315551Y-123232945D01*
X271247712Y-122891893D01*
X271114640Y-122570629D01*
X270921449Y-122281499D01*
X270675564Y-122035614D01*
X270386434Y-121842423D01*
X270065170Y-121709351D01*
X269724118Y-121641512D01*
X269376384Y-121641512D01*
X269035332Y-121709351D01*
X268714068Y-121842423D01*
X268424938Y-122035614D01*
X268179053Y-122281499D01*
X267985862Y-122570629D01*
X267852790Y-122891893D01*
X267784951Y-123232945D01*
X267255584Y-123232945D01*
X267282563Y-122957796D01*
X267412965Y-122525882D01*
X267624775Y-122127527D01*
X267909926Y-121777898D01*
X268257554Y-121490315D01*
X268654428Y-121275726D01*
X269085412Y-121142314D01*
X269565905Y-121091812D01*
X290516735Y-121091810D01*
X290999267Y-121139123D01*
G37*
G04 #@! TD.AperFunction*
M02*
