G04 #@! TF.GenerationSoftware,KiCad,Pcbnew,(5.1.10-1-10_14)*
G04 #@! TF.CreationDate,2022-08-04T15:39:48-07:00*
G04 #@! TF.ProjectId,ulc-mm,756c632d-6d6d-42e6-9b69-6361645f7063,rev?*
G04 #@! TF.SameCoordinates,Original*
G04 #@! TF.FileFunction,Legend,Bot*
G04 #@! TF.FilePolarity,Positive*
%FSLAX46Y46*%
G04 Gerber Fmt 4.6, Leading zero omitted, Abs format (unit mm)*
G04 Created by KiCad (PCBNEW (5.1.10-1-10_14)) date 2022-08-04 15:39:48*
%MOMM*%
%LPD*%
G01*
G04 APERTURE LIST*
%ADD10C,0.130000*%
%ADD11C,0.150000*%
G04 APERTURE END LIST*
D10*
X274103571Y-154717474D02*
X274103571Y-155288903D01*
X274389285Y-155003189D02*
X273817857Y-155003189D01*
X271635714Y-154956760D02*
X271064285Y-154956760D01*
D11*
X283495250Y-157000000D02*
G75*
G03*
X283495250Y-157000000I-3424999J0D01*
G01*
X207040000Y-94900000D02*
X207040000Y-97500000D01*
X207040000Y-94900000D02*
X257960000Y-94900000D01*
X257960000Y-94900000D02*
X257960000Y-100100000D01*
X209640000Y-100100000D02*
X257960000Y-100100000D01*
X209640000Y-97500000D02*
X209640000Y-100100000D01*
X207040000Y-97500000D02*
X209640000Y-97500000D01*
X207040000Y-100100000D02*
X208370000Y-100100000D01*
X207040000Y-98770000D02*
X207040000Y-100100000D01*
X216865600Y-101306000D02*
X220725600Y-101306000D01*
X220725600Y-101306000D02*
X220725600Y-101561000D01*
X216865600Y-101306000D02*
X213005600Y-101306000D01*
X213005600Y-101306000D02*
X213005600Y-101561000D01*
X216865600Y-111826000D02*
X220725600Y-111826000D01*
X220725600Y-111826000D02*
X220725600Y-111571000D01*
X216865600Y-111826000D02*
X213005600Y-111826000D01*
X213005600Y-111826000D02*
X213005600Y-111571000D01*
X213005600Y-111571000D02*
X211190600Y-111571000D01*
X252821621Y-118734600D02*
X253147179Y-118734600D01*
X252821621Y-117714600D02*
X253147179Y-117714600D01*
X212257821Y-113502200D02*
X212583379Y-113502200D01*
X212257821Y-112482200D02*
X212583379Y-112482200D01*
X242308278Y-150468700D02*
X241791122Y-150468700D01*
X242308278Y-149048700D02*
X241791122Y-149048700D01*
X234728100Y-129954200D02*
X234728100Y-135654200D01*
X240088100Y-136264200D02*
X240938100Y-136264200D01*
X241548100Y-135654200D02*
X241548100Y-130004200D01*
X240888100Y-129344200D02*
X240088100Y-129344200D01*
X235338100Y-136264200D02*
X236188100Y-136264200D01*
X236188100Y-129344200D02*
X235338100Y-129344200D01*
X240938100Y-136264200D02*
G75*
G03*
X241548100Y-135654200I0J610000D01*
G01*
X241548100Y-130004200D02*
G75*
G03*
X240888100Y-129344200I-660000J0D01*
G01*
X234728100Y-135654200D02*
G75*
G03*
X235338100Y-136264200I610000J0D01*
G01*
X235338100Y-129344200D02*
G75*
G03*
X234728100Y-129954200I0J-610000D01*
G01*
X229817648Y-147620600D02*
X232590152Y-147620600D01*
X229817648Y-144200600D02*
X232590152Y-144200600D01*
X239770600Y-158120900D02*
X240620600Y-158120900D01*
X240620600Y-151200900D02*
X239770600Y-151200900D01*
X235070600Y-158120900D02*
X235870600Y-158120900D01*
X234410600Y-151810900D02*
X234410600Y-157460900D01*
X235870600Y-151200900D02*
X235020600Y-151200900D01*
X241230600Y-157510900D02*
X241230600Y-151810900D01*
X240620600Y-158120900D02*
G75*
G03*
X241230600Y-157510900I0J610000D01*
G01*
X241230600Y-151810900D02*
G75*
G03*
X240620600Y-151200900I-610000J0D01*
G01*
X234410600Y-157460900D02*
G75*
G03*
X235070600Y-158120900I660000J0D01*
G01*
X235020600Y-151200900D02*
G75*
G03*
X234410600Y-151810900I0J-610000D01*
G01*
X223071440Y-156705900D02*
X223071440Y-153905900D01*
X223071440Y-153905900D02*
X214071440Y-153905900D01*
X214071440Y-153905900D02*
X212671440Y-155305900D01*
X212671440Y-155305900D02*
X212671440Y-156705900D01*
X212671440Y-161505900D02*
X212671440Y-164305900D01*
X212671440Y-164305900D02*
X223071440Y-164305900D01*
X223071440Y-164305900D02*
X223071440Y-161505900D01*
X256601900Y-107274879D02*
X256601900Y-106949321D01*
X257621900Y-107274879D02*
X257621900Y-106949321D01*
X248575179Y-118798100D02*
X248249621Y-118798100D01*
X248575179Y-117778100D02*
X248249621Y-117778100D01*
X253647121Y-104570100D02*
X253972679Y-104570100D01*
X253647121Y-105590100D02*
X253972679Y-105590100D01*
X232948378Y-129109700D02*
X232431222Y-129109700D01*
X232948378Y-130529700D02*
X232431222Y-130529700D01*
X214840200Y-117594300D02*
X214840200Y-118254300D01*
X214840200Y-115934300D02*
X214840200Y-116594300D01*
X214840200Y-115934300D02*
X216870200Y-115934300D01*
X216250200Y-118254300D02*
X214840200Y-118254300D01*
X218078578Y-114080000D02*
X217561422Y-114080000D01*
X218078578Y-115500000D02*
X217561422Y-115500000D01*
X216880621Y-113476800D02*
X217206179Y-113476800D01*
X216880621Y-112456800D02*
X217206179Y-112456800D01*
X281920251Y-158850000D02*
X281920251Y-157850000D01*
X279320251Y-158850000D02*
X281920251Y-158850000D01*
X281920251Y-155150000D02*
X281920251Y-156150000D01*
X279320251Y-155150000D02*
X281920251Y-155150000D01*
D10*
X207411571Y-101317285D02*
X207411571Y-100567285D01*
X207125857Y-100567285D01*
X207054428Y-100603000D01*
X207018714Y-100638714D01*
X206983000Y-100710142D01*
X206983000Y-100817285D01*
X207018714Y-100888714D01*
X207054428Y-100924428D01*
X207125857Y-100960142D01*
X207411571Y-100960142D01*
X206268714Y-101317285D02*
X206697285Y-101317285D01*
X206483000Y-101317285D02*
X206483000Y-100567285D01*
X206554428Y-100674428D01*
X206625857Y-100745857D01*
X206697285Y-100781571D01*
D11*
X219276314Y-100805285D02*
X219276314Y-100055285D01*
X219097742Y-100055285D01*
X218990600Y-100091000D01*
X218919171Y-100162428D01*
X218883457Y-100233857D01*
X218847742Y-100376714D01*
X218847742Y-100483857D01*
X218883457Y-100626714D01*
X218919171Y-100698142D01*
X218990600Y-100769571D01*
X219097742Y-100805285D01*
X219276314Y-100805285D01*
X218562028Y-100769571D02*
X218454885Y-100805285D01*
X218276314Y-100805285D01*
X218204885Y-100769571D01*
X218169171Y-100733857D01*
X218133457Y-100662428D01*
X218133457Y-100591000D01*
X218169171Y-100519571D01*
X218204885Y-100483857D01*
X218276314Y-100448142D01*
X218419171Y-100412428D01*
X218490600Y-100376714D01*
X218526314Y-100341000D01*
X218562028Y-100269571D01*
X218562028Y-100198142D01*
X218526314Y-100126714D01*
X218490600Y-100091000D01*
X218419171Y-100055285D01*
X218240600Y-100055285D01*
X218133457Y-100091000D01*
X217883457Y-100055285D02*
X217419171Y-100055285D01*
X217669171Y-100341000D01*
X217562028Y-100341000D01*
X217490600Y-100376714D01*
X217454885Y-100412428D01*
X217419171Y-100483857D01*
X217419171Y-100662428D01*
X217454885Y-100733857D01*
X217490600Y-100769571D01*
X217562028Y-100805285D01*
X217776314Y-100805285D01*
X217847742Y-100769571D01*
X217883457Y-100733857D01*
X217133457Y-100126714D02*
X217097742Y-100091000D01*
X217026314Y-100055285D01*
X216847742Y-100055285D01*
X216776314Y-100091000D01*
X216740600Y-100126714D01*
X216704885Y-100198142D01*
X216704885Y-100269571D01*
X216740600Y-100376714D01*
X217169171Y-100805285D01*
X216704885Y-100805285D01*
X216454885Y-100055285D02*
X215990600Y-100055285D01*
X216240600Y-100341000D01*
X216133457Y-100341000D01*
X216062028Y-100376714D01*
X216026314Y-100412428D01*
X215990600Y-100483857D01*
X215990600Y-100662428D01*
X216026314Y-100733857D01*
X216062028Y-100769571D01*
X216133457Y-100805285D01*
X216347742Y-100805285D01*
X216419171Y-100769571D01*
X216454885Y-100733857D01*
X215276314Y-100805285D02*
X215704885Y-100805285D01*
X215490600Y-100805285D02*
X215490600Y-100055285D01*
X215562028Y-100162428D01*
X215633457Y-100233857D01*
X215704885Y-100269571D01*
X214954885Y-100805285D02*
X214954885Y-100055285D01*
X214704885Y-100591000D01*
X214454885Y-100055285D01*
X214454885Y-100805285D01*
D10*
X253109400Y-119960885D02*
X253359400Y-119603742D01*
X253537971Y-119960885D02*
X253537971Y-119210885D01*
X253252257Y-119210885D01*
X253180828Y-119246600D01*
X253145114Y-119282314D01*
X253109400Y-119353742D01*
X253109400Y-119460885D01*
X253145114Y-119532314D01*
X253180828Y-119568028D01*
X253252257Y-119603742D01*
X253537971Y-119603742D01*
X252680828Y-119532314D02*
X252752257Y-119496600D01*
X252787971Y-119460885D01*
X252823685Y-119389457D01*
X252823685Y-119353742D01*
X252787971Y-119282314D01*
X252752257Y-119246600D01*
X252680828Y-119210885D01*
X252537971Y-119210885D01*
X252466542Y-119246600D01*
X252430828Y-119282314D01*
X252395114Y-119353742D01*
X252395114Y-119389457D01*
X252430828Y-119460885D01*
X252466542Y-119496600D01*
X252537971Y-119532314D01*
X252680828Y-119532314D01*
X252752257Y-119568028D01*
X252787971Y-119603742D01*
X252823685Y-119675171D01*
X252823685Y-119818028D01*
X252787971Y-119889457D01*
X252752257Y-119925171D01*
X252680828Y-119960885D01*
X252537971Y-119960885D01*
X252466542Y-119925171D01*
X252430828Y-119889457D01*
X252395114Y-119818028D01*
X252395114Y-119675171D01*
X252430828Y-119603742D01*
X252466542Y-119568028D01*
X252537971Y-119532314D01*
X214655000Y-113267857D02*
X214690714Y-113303571D01*
X214797857Y-113339285D01*
X214869285Y-113339285D01*
X214976428Y-113303571D01*
X215047857Y-113232142D01*
X215083571Y-113160714D01*
X215119285Y-113017857D01*
X215119285Y-112910714D01*
X215083571Y-112767857D01*
X215047857Y-112696428D01*
X214976428Y-112625000D01*
X214869285Y-112589285D01*
X214797857Y-112589285D01*
X214690714Y-112625000D01*
X214655000Y-112660714D01*
X213976428Y-112589285D02*
X214333571Y-112589285D01*
X214369285Y-112946428D01*
X214333571Y-112910714D01*
X214262142Y-112875000D01*
X214083571Y-112875000D01*
X214012142Y-112910714D01*
X213976428Y-112946428D01*
X213940714Y-113017857D01*
X213940714Y-113196428D01*
X213976428Y-113267857D01*
X214012142Y-113303571D01*
X214083571Y-113339285D01*
X214262142Y-113339285D01*
X214333571Y-113303571D01*
X214369285Y-113267857D01*
X242531842Y-148489857D02*
X242567557Y-148525571D01*
X242674700Y-148561285D01*
X242746128Y-148561285D01*
X242853271Y-148525571D01*
X242924700Y-148454142D01*
X242960414Y-148382714D01*
X242996128Y-148239857D01*
X242996128Y-148132714D01*
X242960414Y-147989857D01*
X242924700Y-147918428D01*
X242853271Y-147847000D01*
X242746128Y-147811285D01*
X242674700Y-147811285D01*
X242567557Y-147847000D01*
X242531842Y-147882714D01*
X241817557Y-148561285D02*
X242246128Y-148561285D01*
X242031842Y-148561285D02*
X242031842Y-147811285D01*
X242103271Y-147918428D01*
X242174700Y-147989857D01*
X242246128Y-148025571D01*
X241567557Y-147811285D02*
X241103271Y-147811285D01*
X241353271Y-148097000D01*
X241246128Y-148097000D01*
X241174700Y-148132714D01*
X241138985Y-148168428D01*
X241103271Y-148239857D01*
X241103271Y-148418428D01*
X241138985Y-148489857D01*
X241174700Y-148525571D01*
X241246128Y-148561285D01*
X241460414Y-148561285D01*
X241531842Y-148525571D01*
X241567557Y-148489857D01*
X242364428Y-132179200D02*
X242364428Y-131929200D01*
X242757285Y-131929200D02*
X242007285Y-131929200D01*
X242007285Y-132286342D01*
X242364428Y-132822057D02*
X242400142Y-132929200D01*
X242435857Y-132964914D01*
X242507285Y-133000628D01*
X242614428Y-133000628D01*
X242685857Y-132964914D01*
X242721571Y-132929200D01*
X242757285Y-132857771D01*
X242757285Y-132572057D01*
X242007285Y-132572057D01*
X242007285Y-132822057D01*
X242043000Y-132893485D01*
X242078714Y-132929200D01*
X242150142Y-132964914D01*
X242221571Y-132964914D01*
X242293000Y-132929200D01*
X242328714Y-132893485D01*
X242364428Y-132822057D01*
X242364428Y-132572057D01*
X242078714Y-133286342D02*
X242043000Y-133322057D01*
X242007285Y-133393485D01*
X242007285Y-133572057D01*
X242043000Y-133643485D01*
X242078714Y-133679200D01*
X242150142Y-133714914D01*
X242221571Y-133714914D01*
X242328714Y-133679200D01*
X242757285Y-133250628D01*
X242757285Y-133714914D01*
X231828900Y-143342428D02*
X232078900Y-143342428D01*
X232078900Y-143735285D02*
X232078900Y-142985285D01*
X231721757Y-142985285D01*
X231186042Y-143342428D02*
X231078900Y-143378142D01*
X231043185Y-143413857D01*
X231007471Y-143485285D01*
X231007471Y-143592428D01*
X231043185Y-143663857D01*
X231078900Y-143699571D01*
X231150328Y-143735285D01*
X231436042Y-143735285D01*
X231436042Y-142985285D01*
X231186042Y-142985285D01*
X231114614Y-143021000D01*
X231078900Y-143056714D01*
X231043185Y-143128142D01*
X231043185Y-143199571D01*
X231078900Y-143271000D01*
X231114614Y-143306714D01*
X231186042Y-143342428D01*
X231436042Y-143342428D01*
X230757471Y-142985285D02*
X230293185Y-142985285D01*
X230543185Y-143271000D01*
X230436042Y-143271000D01*
X230364614Y-143306714D01*
X230328900Y-143342428D01*
X230293185Y-143413857D01*
X230293185Y-143592428D01*
X230328900Y-143663857D01*
X230364614Y-143699571D01*
X230436042Y-143735285D01*
X230650328Y-143735285D01*
X230721757Y-143699571D01*
X230757471Y-143663857D01*
X233360128Y-154010500D02*
X233360128Y-153760500D01*
X233752985Y-153760500D02*
X233002985Y-153760500D01*
X233002985Y-154117642D01*
X233360128Y-154653357D02*
X233395842Y-154760500D01*
X233431557Y-154796214D01*
X233502985Y-154831928D01*
X233610128Y-154831928D01*
X233681557Y-154796214D01*
X233717271Y-154760500D01*
X233752985Y-154689071D01*
X233752985Y-154403357D01*
X233002985Y-154403357D01*
X233002985Y-154653357D01*
X233038700Y-154724785D01*
X233074414Y-154760500D01*
X233145842Y-154796214D01*
X233217271Y-154796214D01*
X233288700Y-154760500D01*
X233324414Y-154724785D01*
X233360128Y-154653357D01*
X233360128Y-154403357D01*
X233252985Y-155474785D02*
X233752985Y-155474785D01*
X232967271Y-155296214D02*
X233502985Y-155117642D01*
X233502985Y-155581928D01*
X217996440Y-165795185D02*
X218353582Y-165795185D01*
X218353582Y-165045185D01*
X217782154Y-165116614D02*
X217746440Y-165080900D01*
X217675011Y-165045185D01*
X217496440Y-165045185D01*
X217425011Y-165080900D01*
X217389297Y-165116614D01*
X217353582Y-165188042D01*
X217353582Y-165259471D01*
X217389297Y-165366614D01*
X217817868Y-165795185D01*
X217353582Y-165795185D01*
X257476585Y-104726500D02*
X257119442Y-104476500D01*
X257476585Y-104297928D02*
X256726585Y-104297928D01*
X256726585Y-104583642D01*
X256762300Y-104655071D01*
X256798014Y-104690785D01*
X256869442Y-104726500D01*
X256976585Y-104726500D01*
X257048014Y-104690785D01*
X257083728Y-104655071D01*
X257119442Y-104583642D01*
X257119442Y-104297928D01*
X256726585Y-104976500D02*
X256726585Y-105440785D01*
X257012300Y-105190785D01*
X257012300Y-105297928D01*
X257048014Y-105369357D01*
X257083728Y-105405071D01*
X257155157Y-105440785D01*
X257333728Y-105440785D01*
X257405157Y-105405071D01*
X257440871Y-105369357D01*
X257476585Y-105297928D01*
X257476585Y-105083642D01*
X257440871Y-105012214D01*
X257405157Y-104976500D01*
X248289400Y-117383885D02*
X248539400Y-117026742D01*
X248717971Y-117383885D02*
X248717971Y-116633885D01*
X248432257Y-116633885D01*
X248360828Y-116669600D01*
X248325114Y-116705314D01*
X248289400Y-116776742D01*
X248289400Y-116883885D01*
X248325114Y-116955314D01*
X248360828Y-116991028D01*
X248432257Y-117026742D01*
X248717971Y-117026742D01*
X248039400Y-116633885D02*
X247539400Y-116633885D01*
X247860828Y-117383885D01*
X253960300Y-104123985D02*
X254210300Y-103766842D01*
X254388871Y-104123985D02*
X254388871Y-103373985D01*
X254103157Y-103373985D01*
X254031728Y-103409700D01*
X253996014Y-103445414D01*
X253960300Y-103516842D01*
X253960300Y-103623985D01*
X253996014Y-103695414D01*
X254031728Y-103731128D01*
X254103157Y-103766842D01*
X254388871Y-103766842D01*
X253603157Y-104123985D02*
X253460300Y-104123985D01*
X253388871Y-104088271D01*
X253353157Y-104052557D01*
X253281728Y-103945414D01*
X253246014Y-103802557D01*
X253246014Y-103516842D01*
X253281728Y-103445414D01*
X253317442Y-103409700D01*
X253388871Y-103373985D01*
X253531728Y-103373985D01*
X253603157Y-103409700D01*
X253638871Y-103445414D01*
X253674585Y-103516842D01*
X253674585Y-103695414D01*
X253638871Y-103766842D01*
X253603157Y-103802557D01*
X253531728Y-103838271D01*
X253388871Y-103838271D01*
X253317442Y-103802557D01*
X253281728Y-103766842D01*
X253246014Y-103695414D01*
X232878300Y-128652457D02*
X232914014Y-128688171D01*
X233021157Y-128723885D01*
X233092585Y-128723885D01*
X233199728Y-128688171D01*
X233271157Y-128616742D01*
X233306871Y-128545314D01*
X233342585Y-128402457D01*
X233342585Y-128295314D01*
X233306871Y-128152457D01*
X233271157Y-128081028D01*
X233199728Y-128009600D01*
X233092585Y-127973885D01*
X233021157Y-127973885D01*
X232914014Y-128009600D01*
X232878300Y-128045314D01*
X232521157Y-128723885D02*
X232378300Y-128723885D01*
X232306871Y-128688171D01*
X232271157Y-128652457D01*
X232199728Y-128545314D01*
X232164014Y-128402457D01*
X232164014Y-128116742D01*
X232199728Y-128045314D01*
X232235442Y-128009600D01*
X232306871Y-127973885D01*
X232449728Y-127973885D01*
X232521157Y-128009600D01*
X232556871Y-128045314D01*
X232592585Y-128116742D01*
X232592585Y-128295314D01*
X232556871Y-128366742D01*
X232521157Y-128402457D01*
X232449728Y-128438171D01*
X232306871Y-128438171D01*
X232235442Y-128402457D01*
X232199728Y-128366742D01*
X232164014Y-128295314D01*
X213542514Y-117022871D02*
X213506800Y-116951442D01*
X213435371Y-116880014D01*
X213328228Y-116772871D01*
X213292514Y-116701442D01*
X213292514Y-116630014D01*
X213471085Y-116665728D02*
X213435371Y-116594300D01*
X213363942Y-116522871D01*
X213221085Y-116487157D01*
X212971085Y-116487157D01*
X212828228Y-116522871D01*
X212756800Y-116594300D01*
X212721085Y-116665728D01*
X212721085Y-116808585D01*
X212756800Y-116880014D01*
X212828228Y-116951442D01*
X212971085Y-116987157D01*
X213221085Y-116987157D01*
X213363942Y-116951442D01*
X213435371Y-116880014D01*
X213471085Y-116808585D01*
X213471085Y-116665728D01*
X212721085Y-117665728D02*
X212721085Y-117308585D01*
X213078228Y-117272871D01*
X213042514Y-117308585D01*
X213006800Y-117380014D01*
X213006800Y-117558585D01*
X213042514Y-117630014D01*
X213078228Y-117665728D01*
X213149657Y-117701442D01*
X213328228Y-117701442D01*
X213399657Y-117665728D01*
X213435371Y-117630014D01*
X213471085Y-117558585D01*
X213471085Y-117380014D01*
X213435371Y-117308585D01*
X213399657Y-117272871D01*
X221121542Y-115141985D02*
X221371542Y-114784842D01*
X221550114Y-115141985D02*
X221550114Y-114391985D01*
X221264400Y-114391985D01*
X221192971Y-114427700D01*
X221157257Y-114463414D01*
X221121542Y-114534842D01*
X221121542Y-114641985D01*
X221157257Y-114713414D01*
X221192971Y-114749128D01*
X221264400Y-114784842D01*
X221550114Y-114784842D01*
X220835828Y-114463414D02*
X220800114Y-114427700D01*
X220728685Y-114391985D01*
X220550114Y-114391985D01*
X220478685Y-114427700D01*
X220442971Y-114463414D01*
X220407257Y-114534842D01*
X220407257Y-114606271D01*
X220442971Y-114713414D01*
X220871542Y-115141985D01*
X220407257Y-115141985D01*
X219978685Y-114713414D02*
X220050114Y-114677700D01*
X220085828Y-114641985D01*
X220121542Y-114570557D01*
X220121542Y-114534842D01*
X220085828Y-114463414D01*
X220050114Y-114427700D01*
X219978685Y-114391985D01*
X219835828Y-114391985D01*
X219764400Y-114427700D01*
X219728685Y-114463414D01*
X219692971Y-114534842D01*
X219692971Y-114570557D01*
X219728685Y-114641985D01*
X219764400Y-114677700D01*
X219835828Y-114713414D01*
X219978685Y-114713414D01*
X220050114Y-114749128D01*
X220085828Y-114784842D01*
X220121542Y-114856271D01*
X220121542Y-114999128D01*
X220085828Y-115070557D01*
X220050114Y-115106271D01*
X219978685Y-115141985D01*
X219835828Y-115141985D01*
X219764400Y-115106271D01*
X219728685Y-115070557D01*
X219692971Y-114999128D01*
X219692971Y-114856271D01*
X219728685Y-114784842D01*
X219764400Y-114749128D01*
X219835828Y-114713414D01*
X220294142Y-113306085D02*
X220544142Y-112948942D01*
X220722714Y-113306085D02*
X220722714Y-112556085D01*
X220437000Y-112556085D01*
X220365571Y-112591800D01*
X220329857Y-112627514D01*
X220294142Y-112698942D01*
X220294142Y-112806085D01*
X220329857Y-112877514D01*
X220365571Y-112913228D01*
X220437000Y-112948942D01*
X220722714Y-112948942D01*
X220008428Y-112627514D02*
X219972714Y-112591800D01*
X219901285Y-112556085D01*
X219722714Y-112556085D01*
X219651285Y-112591800D01*
X219615571Y-112627514D01*
X219579857Y-112698942D01*
X219579857Y-112770371D01*
X219615571Y-112877514D01*
X220044142Y-113306085D01*
X219579857Y-113306085D01*
X219222714Y-113306085D02*
X219079857Y-113306085D01*
X219008428Y-113270371D01*
X218972714Y-113234657D01*
X218901285Y-113127514D01*
X218865571Y-112984657D01*
X218865571Y-112698942D01*
X218901285Y-112627514D01*
X218937000Y-112591800D01*
X219008428Y-112556085D01*
X219151285Y-112556085D01*
X219222714Y-112591800D01*
X219258428Y-112627514D01*
X219294142Y-112698942D01*
X219294142Y-112877514D01*
X219258428Y-112948942D01*
X219222714Y-112984657D01*
X219151285Y-113020371D01*
X219008428Y-113020371D01*
X218937000Y-112984657D01*
X218901285Y-112948942D01*
X218865571Y-112877514D01*
X269089285Y-152581760D02*
X269089285Y-152224617D01*
X268339285Y-152224617D01*
X268696428Y-152831760D02*
X268696428Y-153081760D01*
X269089285Y-153188903D02*
X269089285Y-152831760D01*
X268339285Y-152831760D01*
X268339285Y-153188903D01*
X269089285Y-153510331D02*
X268339285Y-153510331D01*
X268339285Y-153688903D01*
X268375000Y-153796046D01*
X268446428Y-153867474D01*
X268517857Y-153903189D01*
X268660714Y-153938903D01*
X268767857Y-153938903D01*
X268910714Y-153903189D01*
X268982142Y-153867474D01*
X269053571Y-153796046D01*
X269089285Y-153688903D01*
X269089285Y-153510331D01*
X269160714Y-154081760D02*
X269160714Y-154653189D01*
X268696428Y-155081760D02*
X268732142Y-155188903D01*
X268767857Y-155224617D01*
X268839285Y-155260331D01*
X268946428Y-155260331D01*
X269017857Y-155224617D01*
X269053571Y-155188903D01*
X269089285Y-155117474D01*
X269089285Y-154831760D01*
X268339285Y-154831760D01*
X268339285Y-155081760D01*
X268375000Y-155153189D01*
X268410714Y-155188903D01*
X268482142Y-155224617D01*
X268553571Y-155224617D01*
X268625000Y-155188903D01*
X268660714Y-155153189D01*
X268696428Y-155081760D01*
X268696428Y-154831760D01*
X269089285Y-156010331D02*
X268732142Y-155760331D01*
X269089285Y-155581760D02*
X268339285Y-155581760D01*
X268339285Y-155867474D01*
X268375000Y-155938903D01*
X268410714Y-155974617D01*
X268482142Y-156010331D01*
X268589285Y-156010331D01*
X268660714Y-155974617D01*
X268696428Y-155938903D01*
X268732142Y-155867474D01*
X268732142Y-155581760D01*
X269089285Y-156331760D02*
X268339285Y-156331760D01*
X268339285Y-156510331D01*
X268375000Y-156617474D01*
X268446428Y-156688903D01*
X268517857Y-156724617D01*
X268660714Y-156760331D01*
X268767857Y-156760331D01*
X268910714Y-156724617D01*
X268982142Y-156688903D01*
X269053571Y-156617474D01*
X269089285Y-156510331D01*
X269089285Y-156331760D01*
X269160714Y-156903189D02*
X269160714Y-157474617D01*
X268375000Y-158046046D02*
X268339285Y-157974617D01*
X268339285Y-157867474D01*
X268375000Y-157760331D01*
X268446428Y-157688903D01*
X268517857Y-157653189D01*
X268660714Y-157617474D01*
X268767857Y-157617474D01*
X268910714Y-157653189D01*
X268982142Y-157688903D01*
X269053571Y-157760331D01*
X269089285Y-157867474D01*
X269089285Y-157938903D01*
X269053571Y-158046046D01*
X269017857Y-158081760D01*
X268767857Y-158081760D01*
X268767857Y-157938903D01*
X269089285Y-158403189D02*
X268339285Y-158403189D01*
X269089285Y-158831760D01*
X268339285Y-158831760D01*
X269089285Y-159188903D02*
X268339285Y-159188903D01*
X268339285Y-159367474D01*
X268375000Y-159474617D01*
X268446428Y-159546046D01*
X268517857Y-159581760D01*
X268660714Y-159617474D01*
X268767857Y-159617474D01*
X268910714Y-159581760D01*
X268982142Y-159546046D01*
X269053571Y-159474617D01*
X269089285Y-159367474D01*
X269089285Y-159188903D01*
X280610222Y-152791406D02*
X280610222Y-152041406D01*
X280431651Y-152041406D01*
X280324508Y-152077121D01*
X280253079Y-152148549D01*
X280217365Y-152219978D01*
X280181651Y-152362835D01*
X280181651Y-152469978D01*
X280217365Y-152612835D01*
X280253079Y-152684263D01*
X280324508Y-152755692D01*
X280431651Y-152791406D01*
X280610222Y-152791406D01*
X279503079Y-152041406D02*
X279860222Y-152041406D01*
X279895936Y-152398549D01*
X279860222Y-152362835D01*
X279788793Y-152327121D01*
X279610222Y-152327121D01*
X279538793Y-152362835D01*
X279503079Y-152398549D01*
X279467365Y-152469978D01*
X279467365Y-152648549D01*
X279503079Y-152719978D01*
X279538793Y-152755692D01*
X279610222Y-152791406D01*
X279788793Y-152791406D01*
X279860222Y-152755692D01*
X279895936Y-152719978D01*
M02*
