M48
INCH,LZ
T1C0.0118
T2C0.0197
T3C0.0236
T4C0.0276
T5C0.0315
T6C0.0394
T7C0.0598
T8C0.0630
T9C0.0728
T10C0.1063
T11C0.1260
T12C0.0200
T13C0.0413
T14C0.0433
T15C0.0890
T16C0.1000
T17C0.1024
T18C0.1063
T19C0.1571
%
G90
G05
T1
X08504Y-043395
X097113Y-043112
X097113Y-043624
X097113Y-044135
X09755Y-041845
X097624Y-043112
X097624Y-043624
X097624Y-044135
X09791Y-041845
X097999Y-04554
X098136Y-043112
X098136Y-043624
X098136Y-044135
X098205Y-04611
X098553Y-045709
X098555Y-04604
X098648Y-043112
X098648Y-043624
X098648Y-044135
X098839Y-04551
X098839Y-04584
X09916Y-043112
X09916Y-043624
X09916Y-044135
X0993Y-046061
X099455Y-04547
X099672Y-043112
X099672Y-043624
X099672Y-044135
X100183Y-043112
X100183Y-043624
X100183Y-044135
X10075Y-04602
X109137Y-057826
X109137Y-05822
X109184Y-054221
X109184Y-054615
X109531Y-057826
X109531Y-05822
X109578Y-054221
X109578Y-054615
X109925Y-057826
X109925Y-05822
X109972Y-054221
X109972Y-054615
X110106Y-055591
X110106Y-055827
X110106Y-056063
X110106Y-056299
X110106Y-056535
X110318Y-057826
X110318Y-05822
X110365Y-054221
X110365Y-054615
X110421Y-055591
X110421Y-055827
X110421Y-056063
X110421Y-056299
X110421Y-056535
X110712Y-057826
X110712Y-05822
X110759Y-054221
X110759Y-054615
X111106Y-057826
X111106Y-05822
X111153Y-054221
X111153Y-054615
T2
X082043Y-040673
X082043Y-041165
X082043Y-041657
X082043Y-04215
X082043Y-042642
X087522Y-065583
X088014Y-065583
X089535Y-05081
X090027Y-05081
X108551Y-038465
X109043Y-038465
X111402Y-038441
X111409Y-04052
X111894Y-038441
X111902Y-04052
X114028Y-038437
X11452Y-038437
X116622Y-038433
X117114Y-038433
X118365Y-052193
X118857Y-052193
X119349Y-052193
X119841Y-052193
X120333Y-052193
T3
X07879Y-052985
X07915Y-055135
X08057Y-055138
X081906Y-065339
X081909Y-064846
X082019Y-061516
X08212Y-053005
X08219Y-053895
X082571Y-048768
X082583Y-049764
X082643Y-061524
X083299Y-044996
X083941Y-066634
X08399Y-045045
X084236Y-051287
X084248Y-05176
X084264Y-050295
X084291Y-043697
X084449Y-040472
X084496Y-041122
X085006Y-061692
X08506Y-06373
X08506Y-064242
X08513Y-043787
X085189Y-065376
X08531Y-055605
X085504Y-039634
X085532Y-06373
X085532Y-064242
X085539Y-063243
X08554Y-057275
X08554Y-059775
X085589Y-065811
X08564Y-04017
X08576Y-045937
X08604Y-04233
X08611Y-055875
X086146Y-049272
X086209Y-061169
X086291Y-043374
X08632Y-044505
X086457Y-048102
X08678Y-058945
X086866Y-04515
X0869Y-055625
X08732Y-055075
X08746Y-063086
X087516Y-044665
X087976Y-044177
X088146Y-057374
X08864Y-044405
X08894Y-042865
X08911Y-054945
X089252Y-057693
X089315Y-04237
X08936Y-061045
X08939Y-048655
X089567Y-045917
X08957Y-058215
X090598Y-044516
X09065Y-049545
X09102Y-056855
X09119Y-06061
X09122Y-053881
X091234Y-054795
X091395Y-04567
X091433Y-040102
X09154Y-051745
X09173Y-043895
X09194Y-066425
X09208Y-06244
X092095Y-060595
X092105Y-06153
X09216Y-055711
X092185Y-054801
X09222Y-053866
X092417Y-040642
X09266Y-057775
X09274Y-043885
X092909Y-04065
X09307Y-048985
X093374Y-040661
X09363Y-046635
X09367Y-049575
X093819Y-040657
X093845Y-052156
X09407Y-060505
X09428Y-046495
X094345Y-048175
X09444Y-051005
X094445Y-04532
X09455Y-066405
X09464Y-057575
X094811Y-043754
X095Y-059855
X095158Y-056908
X09591Y-046179
X09618Y-04238
X096355Y-0466
X096825Y-04937
X09836Y-040465
X098625Y-047045
X099311Y-064591
X099525Y-041875
X09998Y-064591
X100441Y-046886
X100725Y-04247
X101175Y-04467
X105558Y-055728
X105558Y-056319
X105558Y-05691
X105558Y-0575
X105558Y-058091
X105558Y-058681
X106148Y-055728
X106148Y-056319
X106148Y-05691
X106148Y-0575
X106148Y-058091
X106148Y-058681
X106739Y-055728
X106739Y-056319
X106739Y-05691
X106739Y-0575
X106739Y-058091
X106739Y-058681
X107329Y-056319
X107329Y-05691
X107329Y-0575
X107329Y-058091
X107329Y-058681
X107329Y-059272
X107329Y-059862
X107329Y-060453
X107369Y-051476
X107369Y-052067
X107369Y-052658
X10792Y-05691
X10792Y-0575
X10792Y-058091
X10792Y-058681
X10792Y-059272
X10792Y-059862
X10792Y-060453
X107959Y-051476
X10851Y-055138
X10851Y-055728
X10851Y-05691
X10851Y-0575
X10851Y-058091
X10851Y-058681
X10851Y-059272
X10851Y-059862
X10851Y-060453
X10855Y-051476
X109101Y-058681
X109101Y-059272
X109101Y-059862
X109101Y-060453
X10914Y-051476
X10914Y-052067
X10914Y-052658
X10914Y-053248
X109692Y-058681
X109692Y-059272
X109692Y-059862
X109692Y-060453
X109731Y-051476
X109731Y-052067
X109731Y-052658
X109731Y-053248
X110282Y-058681
X110282Y-059272
X110282Y-059862
X110282Y-060453
X110321Y-051476
X110321Y-052067
X110321Y-052658
X110321Y-053248
X11061Y-04463
X110685Y-043957
X110873Y-058681
X110873Y-059272
X110873Y-059862
X110873Y-060453
X110912Y-051476
X110912Y-052067
X110912Y-052658
X110912Y-053248
X111463Y-058681
X111463Y-059272
X111463Y-059862
X111463Y-060453
X111503Y-051476
X111503Y-052067
X111503Y-052658
X112054Y-05691
X112054Y-059272
X112054Y-059862
X112054Y-060453
X112093Y-051476
X112093Y-052067
X112093Y-052658
X112644Y-055728
X112644Y-056319
X112644Y-05691
X112644Y-059272
X112644Y-059862
X112644Y-060453
X112684Y-051476
X112684Y-052067
X112684Y-052658
X113235Y-055138
X113235Y-055728
X113235Y-056319
X113235Y-05691
X113235Y-0575
X113235Y-058091
X113235Y-058681
X113235Y-059272
X113235Y-059862
X113235Y-060453
X113274Y-051476
X113382Y-045917
X113402Y-049449
X113825Y-053366
X113825Y-053957
X113825Y-054547
X113825Y-055138
X113825Y-055728
X113825Y-056319
X113825Y-05691
X113825Y-0575
X113825Y-058091
X113825Y-058681
X11437Y-047937
X114416Y-053366
X114416Y-053957
X114416Y-054547
X114416Y-055138
X114416Y-05691
X114416Y-0575
X114416Y-058091
X114416Y-058681
X115007Y-053366
X115007Y-053957
X115007Y-054547
X115007Y-055138
X115007Y-05691
X115007Y-0575
X115007Y-058091
X115007Y-058681
X115394Y-049488
X1173Y-054805
X11732Y-054325
X12079Y-053795
T4
X082917Y-066189
X086283Y-041709
X09219Y-064905
X09486Y-064825
T5
X098835Y-047746
X098835Y-048533
X10245Y-0409
X10245Y-0429
X10345Y-0419
T6
X082035Y-037886
X082035Y-038886
X083035Y-037886
X083035Y-038886
X084035Y-037886
X084035Y-038886
X085035Y-037886
X085035Y-038886
X086035Y-037886
X086035Y-038886
X087035Y-037886
X087035Y-038886
X088035Y-037886
X088035Y-038886
X089035Y-037886
X089035Y-038886
X090035Y-037886
X090035Y-038886
X091035Y-037886
X091035Y-038886
X092035Y-037886
X092035Y-038886
X093035Y-037886
X093035Y-038886
X094035Y-037886
X094035Y-038886
X095035Y-037886
X095035Y-038886
X096035Y-037886
X096035Y-038886
X097035Y-037886
X097035Y-038886
X098035Y-037886
X098035Y-038886
X099035Y-037886
X099035Y-038886
X100035Y-037886
X100035Y-038886
X101035Y-037886
X101035Y-038886
X109343Y-042878
X110343Y-042878
X111343Y-042878
T7
X098477Y-051812
X098477Y-053812
T8
X080098Y-041201
X080098Y-04311
X0801Y-062565
X08011Y-059905
X08973Y-065665
X10277Y-044505
T9
X097027Y-06338
X102224Y-06338
T10
X080118Y-038386
X080118Y-057677
X102953Y-038386
X102953Y-057677
T11
X080118Y-065157
T12
X104325Y-0421
X104325Y-042494
X104325Y-042887
X104337Y-055628
X104337Y-056021
X104337Y-056415
X11904Y-050805
X11941Y-050795
X11976Y-050805
T13
X108099Y-052352
X114595Y-056102
T14
X11966Y-054781
T15
X10613Y-052165
X10613Y-060039
X114398Y-052165
X114398Y-060039
T16
X099477Y-052812
T17
X116987Y-056721
X121711Y-056721
T18
X106337Y-040354
X106337Y-047441
X12366Y-040354
X12366Y-047441
T19
X102477Y-051312
X102477Y-054312
T0
M30
