G04 #@! TF.GenerationSoftware,KiCad,Pcbnew,(5.1.10-1-10_14)*
G04 #@! TF.CreationDate,2022-08-11T16:17:27-07:00*
G04 #@! TF.ProjectId,ulc-mm,756c632d-6d6d-42e6-9b69-6361645f7063,rev?*
G04 #@! TF.SameCoordinates,Original*
G04 #@! TF.FileFunction,Copper,L2,Inr*
G04 #@! TF.FilePolarity,Positive*
%FSLAX46Y46*%
G04 Gerber Fmt 4.6, Leading zero omitted, Abs format (unit mm)*
G04 Created by KiCad (PCBNEW (5.1.10-1-10_14)) date 2022-08-11 16:17:27*
%MOMM*%
%LPD*%
G01*
G04 APERTURE LIST*
G04 #@! TA.AperFunction,ComponentPad*
%ADD10C,3.960000*%
G04 #@! TD*
G04 #@! TA.AperFunction,ComponentPad*
%ADD11C,0.300000*%
G04 #@! TD*
G04 #@! TA.AperFunction,ComponentPad*
%ADD12R,1.700000X1.700000*%
G04 #@! TD*
G04 #@! TA.AperFunction,ComponentPad*
%ADD13O,1.700000X1.700000*%
G04 #@! TD*
G04 #@! TA.AperFunction,ComponentPad*
%ADD14O,0.900000X1.400000*%
G04 #@! TD*
G04 #@! TA.AperFunction,ComponentPad*
%ADD15C,2.800000*%
G04 #@! TD*
G04 #@! TA.AperFunction,ComponentPad*
%ADD16R,1.600000X1.600000*%
G04 #@! TD*
G04 #@! TA.AperFunction,ComponentPad*
%ADD17C,1.600000*%
G04 #@! TD*
G04 #@! TA.AperFunction,ComponentPad*
%ADD18C,1.440000*%
G04 #@! TD*
G04 #@! TA.AperFunction,ComponentPad*
%ADD19R,2.280000X2.280000*%
G04 #@! TD*
G04 #@! TA.AperFunction,ComponentPad*
%ADD20C,2.280000*%
G04 #@! TD*
G04 #@! TA.AperFunction,ComponentPad*
%ADD21C,5.400000*%
G04 #@! TD*
G04 #@! TA.AperFunction,ComponentPad*
%ADD22C,6.400000*%
G04 #@! TD*
G04 #@! TA.AperFunction,ComponentPad*
%ADD23O,1.300000X0.800000*%
G04 #@! TD*
G04 #@! TA.AperFunction,ComponentPad*
%ADD24O,0.800000X1.300000*%
G04 #@! TD*
G04 #@! TA.AperFunction,ViaPad*
%ADD25C,1.000000*%
G04 #@! TD*
G04 #@! TA.AperFunction,ViaPad*
%ADD26C,0.900000*%
G04 #@! TD*
G04 #@! TA.AperFunction,ViaPad*
%ADD27C,0.600000*%
G04 #@! TD*
G04 #@! TA.AperFunction,Conductor*
%ADD28C,0.500000*%
G04 #@! TD*
G04 #@! TA.AperFunction,Conductor*
%ADD29C,0.750000*%
G04 #@! TD*
G04 #@! TA.AperFunction,Conductor*
%ADD30C,0.350000*%
G04 #@! TD*
G04 #@! TA.AperFunction,Conductor*
%ADD31C,0.200000*%
G04 #@! TD*
G04 #@! TA.AperFunction,Conductor*
%ADD32C,0.254000*%
G04 #@! TD*
G04 #@! TA.AperFunction,Conductor*
%ADD33C,0.150000*%
G04 #@! TD*
G04 APERTURE END LIST*
D10*
X246447900Y-160985500D03*
X259647900Y-160985500D03*
D11*
X254465900Y-110804100D03*
X254465900Y-112104100D03*
X253165900Y-112104100D03*
X251865900Y-112104100D03*
X250565900Y-112104100D03*
X249265900Y-112104100D03*
X247965900Y-112104100D03*
X246665900Y-112104100D03*
X246665900Y-110804100D03*
X254465900Y-109504100D03*
X253165900Y-109504100D03*
X251865900Y-109504100D03*
X250565900Y-109504100D03*
X249265900Y-109504100D03*
X247965900Y-109504100D03*
X246665900Y-109504100D03*
X247965900Y-110804100D03*
X249265900Y-110804100D03*
X253165900Y-110804100D03*
X251865900Y-110804100D03*
X250565900Y-110804100D03*
D12*
X208370000Y-98770000D03*
D13*
X208370000Y-96230000D03*
X210910000Y-98770000D03*
X210910000Y-96230000D03*
X213450000Y-98770000D03*
X213450000Y-96230000D03*
X215990000Y-98770000D03*
X215990000Y-96230000D03*
X218530000Y-98770000D03*
X218530000Y-96230000D03*
X221070000Y-98770000D03*
X221070000Y-96230000D03*
X223610000Y-98770000D03*
X223610000Y-96230000D03*
X226150000Y-98770000D03*
X226150000Y-96230000D03*
X228690000Y-98770000D03*
X228690000Y-96230000D03*
X231230000Y-98770000D03*
X231230000Y-96230000D03*
X233770000Y-98770000D03*
X233770000Y-96230000D03*
X236310000Y-98770000D03*
X236310000Y-96230000D03*
X238850000Y-98770000D03*
X238850000Y-96230000D03*
X241390000Y-98770000D03*
X241390000Y-96230000D03*
X243930000Y-98770000D03*
X243930000Y-96230000D03*
X246470000Y-98770000D03*
X246470000Y-96230000D03*
X249010000Y-98770000D03*
X249010000Y-96230000D03*
X251550000Y-98770000D03*
X251550000Y-96230000D03*
X254090000Y-98770000D03*
X254090000Y-96230000D03*
X256630000Y-98770000D03*
X256630000Y-96230000D03*
D14*
X222305960Y-166581120D03*
G04 #@! TA.AperFunction,ComponentPad*
G36*
G01*
X224005960Y-166106120D02*
X224005960Y-167056120D01*
G75*
G02*
X223780960Y-167281120I-225000J0D01*
G01*
X223330960Y-167281120D01*
G75*
G02*
X223105960Y-167056120I0J225000D01*
G01*
X223105960Y-166106120D01*
G75*
G02*
X223330960Y-165881120I225000J0D01*
G01*
X223780960Y-165881120D01*
G75*
G02*
X224005960Y-166106120I0J-225000D01*
G01*
G37*
G04 #@! TD.AperFunction*
D15*
X227914600Y-166789400D03*
X261036200Y-113043000D03*
X203450000Y-109500000D03*
X234112200Y-166764000D03*
X203450000Y-104650000D03*
X203454400Y-158915400D03*
X203479800Y-152159000D03*
G04 #@! TA.AperFunction,ComponentPad*
G36*
G01*
X226969300Y-129532700D02*
X226969300Y-128582700D01*
G75*
G02*
X227194300Y-128357700I225000J0D01*
G01*
X227644300Y-128357700D01*
G75*
G02*
X227869300Y-128582700I0J-225000D01*
G01*
X227869300Y-129532700D01*
G75*
G02*
X227644300Y-129757700I-225000J0D01*
G01*
X227194300Y-129757700D01*
G75*
G02*
X226969300Y-129532700I0J225000D01*
G01*
G37*
G04 #@! TD.AperFunction*
D14*
X228669300Y-129057700D03*
D16*
X251041900Y-121274100D03*
D17*
X251041900Y-123274100D03*
D18*
X260223400Y-103886300D03*
X262763400Y-106426300D03*
X260223400Y-108966300D03*
D19*
X250131980Y-131602780D03*
D20*
X250131980Y-136682780D03*
D14*
X296220000Y-97620000D03*
G04 #@! TA.AperFunction,ComponentPad*
G36*
G01*
X297920000Y-97145000D02*
X297920000Y-98095000D01*
G75*
G02*
X297695000Y-98320000I-225000J0D01*
G01*
X297245000Y-98320000D01*
G75*
G02*
X297020000Y-98095000I0J225000D01*
G01*
X297020000Y-97145000D01*
G75*
G02*
X297245000Y-96920000I225000J0D01*
G01*
X297695000Y-96920000D01*
G75*
G02*
X297920000Y-97145000I0J-225000D01*
G01*
G37*
G04 #@! TD.AperFunction*
G04 #@! TA.AperFunction,ComponentPad*
G36*
G01*
X284680000Y-102445000D02*
X284680000Y-103395000D01*
G75*
G02*
X284455000Y-103620000I-225000J0D01*
G01*
X284005000Y-103620000D01*
G75*
G02*
X283780000Y-103395000I0J225000D01*
G01*
X283780000Y-102445000D01*
G75*
G02*
X284005000Y-102220000I225000J0D01*
G01*
X284455000Y-102220000D01*
G75*
G02*
X284680000Y-102445000I0J-225000D01*
G01*
G37*
G04 #@! TD.AperFunction*
X282980000Y-102920000D03*
G04 #@! TA.AperFunction,ComponentPad*
G36*
G01*
X291330000Y-97155000D02*
X291330000Y-98105000D01*
G75*
G02*
X291105000Y-98330000I-225000J0D01*
G01*
X290655000Y-98330000D01*
G75*
G02*
X290430000Y-98105000I0J225000D01*
G01*
X290430000Y-97155000D01*
G75*
G02*
X290655000Y-96930000I225000J0D01*
G01*
X291105000Y-96930000D01*
G75*
G02*
X291330000Y-97155000I0J-225000D01*
G01*
G37*
G04 #@! TD.AperFunction*
X289630000Y-97630000D03*
X275720000Y-97700000D03*
G04 #@! TA.AperFunction,ComponentPad*
G36*
G01*
X277420000Y-97225000D02*
X277420000Y-98175000D01*
G75*
G02*
X277195000Y-98400000I-225000J0D01*
G01*
X276745000Y-98400000D01*
G75*
G02*
X276520000Y-98175000I0J225000D01*
G01*
X276520000Y-97225000D01*
G75*
G02*
X276745000Y-97000000I225000J0D01*
G01*
X277195000Y-97000000D01*
G75*
G02*
X277420000Y-97225000I0J-225000D01*
G01*
G37*
G04 #@! TD.AperFunction*
G04 #@! TA.AperFunction,ComponentPad*
G36*
G01*
X284660000Y-97165000D02*
X284660000Y-98115000D01*
G75*
G02*
X284435000Y-98340000I-225000J0D01*
G01*
X283985000Y-98340000D01*
G75*
G02*
X283760000Y-98115000I0J225000D01*
G01*
X283760000Y-97165000D01*
G75*
G02*
X283985000Y-96940000I225000J0D01*
G01*
X284435000Y-96940000D01*
G75*
G02*
X284660000Y-97165000I0J-225000D01*
G01*
G37*
G04 #@! TD.AperFunction*
X282960000Y-97640000D03*
D12*
X277730000Y-108910000D03*
D13*
X280270000Y-108910000D03*
X282810000Y-108910000D03*
D11*
X280470251Y-141200000D03*
X279670251Y-141200000D03*
X279670251Y-141800000D03*
X280470251Y-141800000D03*
X279670251Y-142400000D03*
X280470251Y-142400000D03*
X280470251Y-143000000D03*
X280470251Y-143600000D03*
X279670251Y-143000000D03*
X279670251Y-143600000D03*
D21*
X203500000Y-97500000D03*
X261500000Y-97500000D03*
X203500000Y-146500000D03*
X261500000Y-146500000D03*
D22*
X203500000Y-165500000D03*
D23*
X208390000Y-108310000D03*
X208390000Y-107060000D03*
X208390000Y-105810000D03*
X208390000Y-104560000D03*
G04 #@! TA.AperFunction,ComponentPad*
G36*
G01*
X207940000Y-102910000D02*
X208840000Y-102910000D01*
G75*
G02*
X209040000Y-103110000I0J-200000D01*
G01*
X209040000Y-103510000D01*
G75*
G02*
X208840000Y-103710000I-200000J0D01*
G01*
X207940000Y-103710000D01*
G75*
G02*
X207740000Y-103510000I0J200000D01*
G01*
X207740000Y-103110000D01*
G75*
G02*
X207940000Y-102910000I200000J0D01*
G01*
G37*
G04 #@! TD.AperFunction*
G04 #@! TA.AperFunction,ComponentPad*
G36*
G01*
X300247000Y-133021002D02*
X300247000Y-132121002D01*
G75*
G02*
X300447000Y-131921002I200000J0D01*
G01*
X300847000Y-131921002D01*
G75*
G02*
X301047000Y-132121002I0J-200000D01*
G01*
X301047000Y-133021002D01*
G75*
G02*
X300847000Y-133221002I-200000J0D01*
G01*
X300447000Y-133221002D01*
G75*
G02*
X300247000Y-133021002I0J200000D01*
G01*
G37*
G04 #@! TD.AperFunction*
D24*
X301897000Y-132571002D03*
X303147000Y-132571002D03*
X304397000Y-132571002D03*
X305647000Y-132571002D03*
D25*
X217526000Y-102032100D03*
X214100000Y-110990000D03*
D26*
X240386000Y-146240800D03*
D25*
X209730000Y-123870000D03*
D26*
X240157400Y-168669000D03*
X238300000Y-103270000D03*
X211580000Y-114290000D03*
X252250000Y-164060000D03*
X253950000Y-164060000D03*
X213210000Y-169250000D03*
X223890000Y-145730000D03*
X226700000Y-146540000D03*
D25*
X213990000Y-131470000D03*
X234239200Y-136818700D03*
X231699200Y-136856800D03*
X234086800Y-141505000D03*
X233883600Y-158597900D03*
X233921700Y-153911600D03*
X233947100Y-156286500D03*
X231623000Y-153949700D03*
X217251460Y-161875340D03*
X217251460Y-163175340D03*
X217269460Y-160637520D03*
D26*
X217272000Y-151828800D03*
X218719800Y-141922800D03*
X220726400Y-141287800D03*
D27*
X216002000Y-110223600D03*
D26*
X213335000Y-114414600D03*
X219253200Y-113043000D03*
X230251400Y-125844600D03*
X237922200Y-125920800D03*
X220421600Y-149720600D03*
X231191200Y-144412000D03*
X201041400Y-140043200D03*
X200127000Y-134582200D03*
X208585200Y-134633000D03*
X226339800Y-139560600D03*
X241300400Y-152032000D03*
D25*
X209760000Y-126400000D03*
D26*
X217830000Y-116680000D03*
D25*
X219160000Y-105940000D03*
D26*
X232512000Y-131432600D03*
X255120000Y-119090000D03*
D25*
X244742100Y-118364300D03*
X208049260Y-164709140D03*
X208040000Y-165960000D03*
X231733690Y-139178618D03*
X218542000Y-107518500D03*
D26*
X204648200Y-140050820D03*
D25*
X256984900Y-113462100D03*
X244297600Y-107645500D03*
X250507900Y-119494600D03*
X216051460Y-163175340D03*
X216051460Y-161875340D03*
X214620000Y-104450000D03*
X214500000Y-102800000D03*
X234150300Y-139193600D03*
D26*
X225908000Y-108877400D03*
X245935900Y-125400100D03*
X243611900Y-117294100D03*
D25*
X208328660Y-156250940D03*
D26*
X221793200Y-139890800D03*
X235356800Y-146748800D03*
D25*
X209913620Y-156271260D03*
X218970000Y-155370000D03*
X255841900Y-107874100D03*
D26*
X239636700Y-122364800D03*
X239878000Y-129553000D03*
X216380460Y-166055340D03*
D25*
X215915640Y-156697980D03*
X213960000Y-130270000D03*
X238366700Y-132475300D03*
D26*
X227508200Y-147866400D03*
D25*
X238938200Y-153683000D03*
D26*
X222290000Y-113450000D03*
X219600000Y-122180000D03*
X218810000Y-125150000D03*
X220640000Y-114680000D03*
X230120000Y-113070000D03*
X232143700Y-116002100D03*
D27*
X251050890Y-116433900D03*
X251050890Y-115595700D03*
D26*
X237820600Y-118453200D03*
D27*
X252616100Y-115494100D03*
D26*
X227051000Y-123584000D03*
D27*
X250323566Y-116100707D03*
X250330100Y-116941900D03*
D26*
X239471600Y-118097600D03*
D27*
X248917290Y-115671900D03*
D25*
X216230000Y-111220000D03*
D26*
X235990000Y-103250000D03*
X234740000Y-103230000D03*
D25*
X219180000Y-110170000D03*
D26*
X216687800Y-141237000D03*
X252793900Y-106362800D03*
X249834800Y-102781400D03*
X239890700Y-115113100D03*
X236398200Y-124422200D03*
X217396460Y-167160240D03*
X240820340Y-111135460D03*
X241701720Y-144546620D03*
X225146000Y-112789000D03*
X217272000Y-145478800D03*
X226974800Y-155054600D03*
X208763000Y-136893600D03*
D27*
X255905400Y-116891100D03*
X249441100Y-117119700D03*
X252221900Y-116994100D03*
X247777400Y-106286600D03*
D26*
X235560000Y-111468200D03*
D27*
X248691800Y-106286600D03*
D26*
X232994600Y-111493600D03*
X280950000Y-113360000D03*
X287990000Y-116630000D03*
X237170000Y-103280000D03*
X293100000Y-125700000D03*
X288040000Y-125600000D03*
D25*
X281140000Y-111650000D03*
D26*
X232240000Y-101860000D03*
D25*
X222148800Y-160238740D03*
X210610000Y-168120000D03*
X214030000Y-127750000D03*
D26*
X226860000Y-107620000D03*
X223460000Y-112210000D03*
X290500000Y-121760000D03*
D25*
X272716600Y-130750189D03*
D27*
X282208960Y-147878849D03*
X281208960Y-147878849D03*
X280208960Y-147878849D03*
X279208960Y-147878849D03*
X278208960Y-147878849D03*
X277208960Y-147878849D03*
X282208960Y-146878849D03*
X281208960Y-146878849D03*
X280208960Y-146878849D03*
X279208960Y-146878849D03*
X278208960Y-146878849D03*
X282328340Y-138722149D03*
X281328340Y-138722149D03*
X280328340Y-138722149D03*
X279328340Y-138722149D03*
X278328340Y-138722149D03*
X277328340Y-138722149D03*
X282328340Y-137722149D03*
X281328340Y-137722149D03*
X280328340Y-137722149D03*
X279328340Y-137722149D03*
X278328340Y-137722149D03*
X277328340Y-137722149D03*
X277208960Y-146878849D03*
D25*
X274216600Y-130750189D03*
X275716600Y-130750189D03*
X277216600Y-130750189D03*
X278716600Y-130750189D03*
X280216600Y-130750189D03*
X281716600Y-130750189D03*
X283216600Y-130750189D03*
X284716600Y-130750189D03*
X286216600Y-130750189D03*
X287716600Y-130750189D03*
X272716600Y-132250189D03*
X272716600Y-133750189D03*
X277216600Y-132250189D03*
X277216600Y-133750189D03*
X278716600Y-132250189D03*
X280216600Y-132250189D03*
X281716600Y-132250189D03*
X283216600Y-132250189D03*
X284716600Y-132250189D03*
X286216600Y-132250189D03*
X278716600Y-133750189D03*
X280216600Y-133750189D03*
X281716600Y-133750189D03*
X283216600Y-133750189D03*
X284716600Y-133750189D03*
X286216600Y-133750189D03*
X289116600Y-135550189D03*
X290616600Y-135550189D03*
X292116600Y-135550189D03*
X287616600Y-141550189D03*
X287616600Y-143050189D03*
X287616600Y-144550189D03*
X287616600Y-146050189D03*
X287616600Y-147550189D03*
X287616600Y-149050189D03*
X287616600Y-150550189D03*
X287616600Y-152050189D03*
X287616600Y-153550189D03*
X289116600Y-137050189D03*
X289116600Y-138550189D03*
X289116600Y-140050189D03*
X289116600Y-141550189D03*
X289116600Y-143050189D03*
X289116600Y-144550189D03*
X289116600Y-146050189D03*
X289116600Y-147550189D03*
X289116600Y-149050189D03*
X290616600Y-137050189D03*
X290616600Y-138550189D03*
X290616600Y-140050189D03*
X290616600Y-144550189D03*
X290616600Y-146050189D03*
X290616600Y-147550189D03*
X290616600Y-149050189D03*
X292116600Y-137050189D03*
X292116600Y-138550189D03*
X292116600Y-140050189D03*
X292116600Y-144550189D03*
X292116600Y-146050189D03*
X292116600Y-147550189D03*
X292116600Y-149050189D03*
X286116600Y-141550189D03*
X286116600Y-143050189D03*
X286116600Y-144550189D03*
X286116600Y-150550189D03*
X286116600Y-152050189D03*
X286116600Y-153550189D03*
X284616600Y-150550189D03*
X283116600Y-150550189D03*
X281616600Y-150550189D03*
X280116600Y-150550189D03*
X278616600Y-150550189D03*
X277116600Y-150550189D03*
X275616600Y-150550189D03*
X274116600Y-150550189D03*
X272616600Y-150550189D03*
X284616600Y-152050189D03*
X283116600Y-152050189D03*
X281616600Y-152050189D03*
X280116600Y-152050189D03*
X278616600Y-152050189D03*
X277116600Y-152050189D03*
X275616600Y-152050189D03*
X274116600Y-152050189D03*
X272616600Y-152050189D03*
X284616600Y-153550189D03*
X283116600Y-153550189D03*
X281616600Y-153550189D03*
X280116600Y-153550189D03*
X278616600Y-153550189D03*
X277116600Y-153550189D03*
X275616600Y-153550189D03*
X274116600Y-153550189D03*
X272616600Y-153550189D03*
X272616600Y-149050189D03*
X272616600Y-147550189D03*
X272616600Y-146050189D03*
X272616600Y-144550189D03*
X272616600Y-143050189D03*
X274116600Y-149050189D03*
X275616600Y-149050189D03*
X277116600Y-149050189D03*
X278616600Y-149050189D03*
X280116600Y-149050189D03*
X281616600Y-149050189D03*
X283116600Y-149050189D03*
X284616600Y-144550189D03*
X274116600Y-147550189D03*
X274116600Y-146050189D03*
X274116600Y-144550189D03*
X275616600Y-147550189D03*
X275616600Y-146050189D03*
X275616600Y-144550189D03*
X275616600Y-141550189D03*
X275616600Y-140050189D03*
X271116600Y-149050189D03*
X269616600Y-149050189D03*
X268116600Y-149050189D03*
X271116600Y-147550189D03*
X269616600Y-147550189D03*
X268116600Y-147550189D03*
X271116600Y-146050189D03*
X269616600Y-146050189D03*
X268116600Y-146050189D03*
X271116600Y-144550189D03*
X269616600Y-144550189D03*
X268116600Y-144550189D03*
X271116600Y-143050189D03*
X269616600Y-143050189D03*
X268116600Y-143050189D03*
X269616600Y-141550189D03*
X268116600Y-141550189D03*
X271116600Y-141550189D03*
X287616600Y-140050189D03*
X281716600Y-135250189D03*
X280216600Y-135250189D03*
X278716600Y-135250189D03*
X277216600Y-135250189D03*
D26*
X217180000Y-100670000D03*
X227500000Y-116630000D03*
X297993200Y-137985800D03*
X297942400Y-139205000D03*
X306807000Y-136639600D03*
D28*
X208370000Y-100204000D02*
X209906000Y-101740000D01*
X208370000Y-98770000D02*
X208370000Y-100204000D01*
X217233900Y-101740000D02*
X217526000Y-102032100D01*
X209906000Y-101740000D02*
X217233900Y-101740000D01*
X208370000Y-103330000D02*
X208440000Y-103400000D01*
X213830000Y-105638600D02*
X213830000Y-110720000D01*
X213830000Y-110720000D02*
X214100000Y-110990000D01*
X208370000Y-100178600D02*
X213830000Y-105638600D01*
X208370000Y-98770000D02*
X208370000Y-100178600D01*
X211690000Y-121910000D02*
X209730000Y-123870000D01*
X217470000Y-121910000D02*
X211690000Y-121910000D01*
X240386000Y-146240800D02*
X240386000Y-139560600D01*
X229964400Y-134404400D02*
X217470000Y-121910000D01*
X235229800Y-134404400D02*
X229964400Y-134404400D01*
X240386000Y-139560600D02*
X235229800Y-134404400D01*
X246447900Y-160985500D02*
X246447900Y-151566100D01*
X243180000Y-129095800D02*
X225908000Y-111823800D01*
X246447900Y-151566100D02*
X243180000Y-148298200D01*
X243180000Y-148298200D02*
X243180000Y-129095800D01*
X225908000Y-111823800D02*
X225908000Y-108877400D01*
X259647900Y-160867900D02*
X259647900Y-160985500D01*
X249841800Y-154960000D02*
X253740000Y-154960000D01*
X253740000Y-154960000D02*
X259647900Y-160867900D01*
X246447900Y-151566100D02*
X249841800Y-154960000D01*
D29*
X248907700Y-121412300D02*
X245935900Y-124384100D01*
X245935900Y-124384100D02*
X245935900Y-125400100D01*
X251028600Y-121412300D02*
X248907700Y-121412300D01*
D28*
X228674060Y-166679740D02*
X228639800Y-166714000D01*
D29*
X235356800Y-146748800D02*
X228651200Y-146748800D01*
X228651200Y-146748800D02*
X221793200Y-139890800D01*
X228674060Y-166165940D02*
X228100000Y-166740000D01*
X228674060Y-161518900D02*
X228674060Y-166165940D01*
X222654260Y-155499100D02*
X228674060Y-161518900D01*
X219099100Y-155499100D02*
X222654260Y-155499100D01*
X218970000Y-155370000D02*
X219099100Y-155499100D01*
D28*
X255841900Y-107874100D02*
X255841900Y-115214700D01*
X244615100Y-127343200D02*
X239636700Y-122364800D01*
X255841900Y-115214700D02*
X257175400Y-116548200D01*
X257175400Y-121323400D02*
X251155600Y-127343200D01*
X251155600Y-127343200D02*
X244615100Y-127343200D01*
X257175400Y-116548200D02*
X257175400Y-121323400D01*
X208370000Y-96230000D02*
X210910000Y-96230000D01*
X238150800Y-129553000D02*
X239878000Y-129553000D01*
X227987800Y-119390000D02*
X238150800Y-129553000D01*
X227977800Y-119400000D02*
X227987800Y-119390000D01*
X206900000Y-116610000D02*
X209690000Y-119400000D01*
X208370000Y-96230000D02*
X208010000Y-96230000D01*
X209690000Y-119400000D02*
X227977800Y-119400000D01*
X206900000Y-97340000D02*
X206900000Y-116610000D01*
X208010000Y-96230000D02*
X206900000Y-97340000D01*
D30*
X232143700Y-116002100D02*
X232029400Y-115887800D01*
X236830000Y-120688400D02*
X232143700Y-116002100D01*
X244932600Y-120688400D02*
X236830000Y-120688400D01*
X247320200Y-118300800D02*
X244932600Y-120688400D01*
X250571400Y-118300800D02*
X247320200Y-118300800D01*
X251050890Y-117821310D02*
X250571400Y-118300800D01*
X251050890Y-116433900D02*
X251050890Y-117821310D01*
X242959700Y-113314100D02*
X237820600Y-118453200D01*
X250893300Y-113314100D02*
X242959700Y-113314100D01*
X250893300Y-113314100D02*
X252616100Y-115036900D01*
X252616100Y-115036900D02*
X252616100Y-115494100D01*
X250323566Y-116935366D02*
X250330100Y-116941900D01*
X241897300Y-115671900D02*
X239471600Y-118097600D01*
X248917290Y-115671900D02*
X241897300Y-115671900D01*
D31*
X215640000Y-111810000D02*
X216230000Y-111220000D01*
X211590000Y-111810000D02*
X215640000Y-111810000D01*
X209920000Y-106300000D02*
X209920000Y-110140000D01*
X209920000Y-110140000D02*
X211590000Y-111810000D01*
X209480000Y-105860000D02*
X209920000Y-106300000D01*
X208400000Y-105860000D02*
X209480000Y-105860000D01*
X252844700Y-106312000D02*
X252793900Y-106362800D01*
X249834800Y-102781400D02*
X249834800Y-101054200D01*
X249834800Y-101054200D02*
X251550000Y-99339000D01*
X251550000Y-99339000D02*
X251550000Y-98770000D01*
X239890700Y-115113100D02*
X240040560Y-114963240D01*
X240040560Y-114963240D02*
X240040560Y-102659440D01*
X240040560Y-102659440D02*
X243930000Y-98770000D01*
X241910000Y-169596100D02*
X219832320Y-169596100D01*
X219832320Y-169596100D02*
X217396460Y-167160240D01*
X243154600Y-168351500D02*
X241910000Y-169596100D01*
X243154600Y-150302260D02*
X243154600Y-168351500D01*
X241701720Y-148849380D02*
X243154600Y-150302260D01*
X241701720Y-144546620D02*
X241701720Y-148849380D01*
X249010000Y-98770000D02*
X248309000Y-98770000D01*
X248309000Y-98770000D02*
X240810180Y-106268820D01*
X240810180Y-106268820D02*
X240810180Y-111125300D01*
X240810180Y-111125300D02*
X240820340Y-111135460D01*
X226974800Y-155054600D02*
X226974800Y-154368800D01*
X218084800Y-145478800D02*
X217272000Y-145478800D01*
X226974800Y-154368800D02*
X218084800Y-145478800D01*
X224160000Y-101860000D02*
X221070000Y-98770000D01*
X224160000Y-111803000D02*
X224160000Y-101860000D01*
X225146000Y-112789000D02*
X224160000Y-111803000D01*
X228420000Y-98770000D02*
X228690000Y-98770000D01*
D28*
X204013200Y-158290560D02*
X203345180Y-157622540D01*
X210610000Y-168120000D02*
X210610000Y-168120000D01*
X210540000Y-168050000D02*
X210610000Y-168120000D01*
X210540000Y-164817360D02*
X210540000Y-168050000D01*
X203345180Y-157622540D02*
X210540000Y-164817360D01*
D31*
X224950000Y-105710000D02*
X226860000Y-107620000D01*
X224950000Y-97430000D02*
X224950000Y-105710000D01*
X226150000Y-96230000D02*
X224950000Y-97430000D01*
X227500000Y-116630000D02*
X227500000Y-116630000D01*
X226030000Y-118100000D02*
X227500000Y-116630000D01*
X213190000Y-118100000D02*
X226030000Y-118100000D01*
X208400000Y-113310000D02*
X213190000Y-118100000D01*
X208400000Y-108360000D02*
X208400000Y-113310000D01*
D32*
X291019267Y-130232312D02*
X291451181Y-130362714D01*
X291849536Y-130574524D01*
X292199165Y-130859675D01*
X292486748Y-131207303D01*
X292701337Y-131604177D01*
X292834749Y-132035161D01*
X292885251Y-132515654D01*
X292885252Y-152466484D01*
X292837939Y-152949015D01*
X292707538Y-153380926D01*
X292495731Y-153779279D01*
X292210576Y-154128913D01*
X291862948Y-154416496D01*
X291466076Y-154631084D01*
X291035085Y-154764499D01*
X290554587Y-154815000D01*
X269603755Y-154815000D01*
X269121235Y-154767688D01*
X268689324Y-154637287D01*
X268290971Y-154425480D01*
X267941337Y-154140325D01*
X267653754Y-153792697D01*
X267439166Y-153395825D01*
X267305751Y-152964834D01*
X267255260Y-152484429D01*
X267255348Y-152326133D01*
X267804951Y-152326133D01*
X267804951Y-152673867D01*
X267872790Y-153014919D01*
X268005862Y-153336183D01*
X268199053Y-153625313D01*
X268444938Y-153871198D01*
X268734068Y-154064389D01*
X269055332Y-154197461D01*
X269396384Y-154265300D01*
X269744118Y-154265300D01*
X270085170Y-154197461D01*
X270406434Y-154064389D01*
X270695564Y-153871198D01*
X270941449Y-153625313D01*
X271134640Y-153336183D01*
X271267712Y-153014919D01*
X271335551Y-152673867D01*
X271335551Y-152326133D01*
X288804951Y-152326133D01*
X288804951Y-152673867D01*
X288872790Y-153014919D01*
X289005862Y-153336183D01*
X289199053Y-153625313D01*
X289444938Y-153871198D01*
X289734068Y-154064389D01*
X290055332Y-154197461D01*
X290396384Y-154265300D01*
X290744118Y-154265300D01*
X291085170Y-154197461D01*
X291406434Y-154064389D01*
X291695564Y-153871198D01*
X291941449Y-153625313D01*
X292134640Y-153336183D01*
X292267712Y-153014919D01*
X292335551Y-152673867D01*
X292335551Y-152326133D01*
X292267712Y-151985081D01*
X292134640Y-151663817D01*
X291941449Y-151374687D01*
X291695564Y-151128802D01*
X291406434Y-150935611D01*
X291085170Y-150802539D01*
X290744118Y-150734700D01*
X290396384Y-150734700D01*
X290055332Y-150802539D01*
X289734068Y-150935611D01*
X289444938Y-151128802D01*
X289199053Y-151374687D01*
X289005862Y-151663817D01*
X288872790Y-151985081D01*
X288804951Y-152326133D01*
X271335551Y-152326133D01*
X271267712Y-151985081D01*
X271134640Y-151663817D01*
X270941449Y-151374687D01*
X270695564Y-151128802D01*
X270406434Y-150935611D01*
X270085170Y-150802539D01*
X269744118Y-150734700D01*
X269396384Y-150734700D01*
X269055332Y-150802539D01*
X268734068Y-150935611D01*
X268444938Y-151128802D01*
X268199053Y-151374687D01*
X268005862Y-151663817D01*
X267872790Y-151985081D01*
X267804951Y-152326133D01*
X267255348Y-152326133D01*
X267259818Y-144336737D01*
X267256453Y-144302374D01*
X267256453Y-144292161D01*
X267255454Y-144282649D01*
X267238324Y-144129933D01*
X267225418Y-144069214D01*
X267213357Y-144008304D01*
X267210529Y-143999167D01*
X267164063Y-143852687D01*
X267139611Y-143795637D01*
X267115946Y-143738221D01*
X267111397Y-143729808D01*
X267037364Y-143595143D01*
X267002286Y-143543913D01*
X266967932Y-143492206D01*
X266961836Y-143484837D01*
X266863057Y-143367116D01*
X266818699Y-143323677D01*
X266774949Y-143279621D01*
X266767537Y-143273576D01*
X266647773Y-143177284D01*
X266595809Y-143143280D01*
X266544356Y-143108574D01*
X266535911Y-143104084D01*
X266535909Y-143104083D01*
X266535906Y-143104081D01*
X266535903Y-143104080D01*
X266399725Y-143032887D01*
X266342168Y-143009632D01*
X266327777Y-143003583D01*
X266334380Y-142385750D01*
X289910251Y-142385750D01*
X289910251Y-142614250D01*
X289954829Y-142838360D01*
X290042272Y-143049466D01*
X290169220Y-143239457D01*
X290330794Y-143401031D01*
X290520785Y-143527979D01*
X290731891Y-143615422D01*
X290956001Y-143660000D01*
X291184501Y-143660000D01*
X291408611Y-143615422D01*
X291619717Y-143527979D01*
X291809708Y-143401031D01*
X291971282Y-143239457D01*
X292098230Y-143049466D01*
X292185673Y-142838360D01*
X292230251Y-142614250D01*
X292230251Y-142385750D01*
X292185673Y-142161640D01*
X292098230Y-141950534D01*
X291971282Y-141760543D01*
X291809708Y-141598969D01*
X291619717Y-141472021D01*
X291408611Y-141384578D01*
X291184501Y-141340000D01*
X290956001Y-141340000D01*
X290731891Y-141384578D01*
X290520785Y-141472021D01*
X290330794Y-141598969D01*
X290169220Y-141760543D01*
X290042272Y-141950534D01*
X289954829Y-142161640D01*
X289910251Y-142385750D01*
X266334380Y-142385750D01*
X266342883Y-141590150D01*
X266352329Y-141586179D01*
X266409890Y-141562923D01*
X266418330Y-141558435D01*
X266418335Y-141558433D01*
X266418339Y-141558430D01*
X266553512Y-141485342D01*
X266604956Y-141450643D01*
X266656930Y-141416632D01*
X266664342Y-141410587D01*
X266782750Y-141312632D01*
X266826498Y-141268577D01*
X266870856Y-141225139D01*
X266876953Y-141217770D01*
X266974079Y-141098682D01*
X267008450Y-141046948D01*
X267043511Y-140995744D01*
X267048060Y-140987331D01*
X267120206Y-140851645D01*
X267143866Y-140794240D01*
X267168324Y-140737176D01*
X267171153Y-140728039D01*
X267215569Y-140580924D01*
X267227631Y-140520006D01*
X267240535Y-140459297D01*
X267241535Y-140449785D01*
X267249954Y-140363926D01*
X267249966Y-140363885D01*
X267255453Y-140307839D01*
X267256531Y-140296845D01*
X267256531Y-140296828D01*
X267259819Y-140263243D01*
X267255271Y-132533306D01*
X267275584Y-132326134D01*
X267804951Y-132326134D01*
X267804951Y-132673868D01*
X267872790Y-133014920D01*
X268005862Y-133336184D01*
X268199053Y-133625314D01*
X268444938Y-133871199D01*
X268734068Y-134064390D01*
X269055332Y-134197462D01*
X269396384Y-134265301D01*
X269744118Y-134265301D01*
X270085170Y-134197462D01*
X270406434Y-134064390D01*
X270695564Y-133871199D01*
X270941449Y-133625314D01*
X271134640Y-133336184D01*
X271267712Y-133014920D01*
X271298632Y-132859471D01*
X273410251Y-132859471D01*
X273410251Y-133087971D01*
X273454829Y-133312081D01*
X273542272Y-133523187D01*
X273669220Y-133713178D01*
X273830794Y-133874752D01*
X274020785Y-134001700D01*
X274231891Y-134089143D01*
X274456001Y-134133721D01*
X274684501Y-134133721D01*
X274908611Y-134089143D01*
X275119717Y-134001700D01*
X275309708Y-133874752D01*
X275471282Y-133713178D01*
X275598230Y-133523187D01*
X275685673Y-133312081D01*
X275730251Y-133087971D01*
X275730251Y-132859471D01*
X275685673Y-132635361D01*
X275598230Y-132424255D01*
X275532667Y-132326133D01*
X288804951Y-132326133D01*
X288804951Y-132673867D01*
X288872790Y-133014919D01*
X289005862Y-133336183D01*
X289199053Y-133625313D01*
X289444938Y-133871198D01*
X289734068Y-134064389D01*
X290055332Y-134197461D01*
X290396384Y-134265300D01*
X290744118Y-134265300D01*
X291085170Y-134197461D01*
X291406434Y-134064389D01*
X291695564Y-133871198D01*
X291941449Y-133625313D01*
X292134640Y-133336183D01*
X292267712Y-133014919D01*
X292335551Y-132673867D01*
X292335551Y-132326133D01*
X292267712Y-131985081D01*
X292134640Y-131663817D01*
X291941449Y-131374687D01*
X291695564Y-131128802D01*
X291406434Y-130935611D01*
X291085170Y-130802539D01*
X290744118Y-130734700D01*
X290396384Y-130734700D01*
X290055332Y-130802539D01*
X289734068Y-130935611D01*
X289444938Y-131128802D01*
X289199053Y-131374687D01*
X289005862Y-131663817D01*
X288872790Y-131985081D01*
X288804951Y-132326133D01*
X275532667Y-132326133D01*
X275471282Y-132234264D01*
X275309708Y-132072690D01*
X275119717Y-131945742D01*
X274908611Y-131858299D01*
X274684501Y-131813721D01*
X274456001Y-131813721D01*
X274231891Y-131858299D01*
X274020785Y-131945742D01*
X273830794Y-132072690D01*
X273669220Y-132234264D01*
X273542272Y-132424255D01*
X273454829Y-132635361D01*
X273410251Y-132859471D01*
X271298632Y-132859471D01*
X271335551Y-132673868D01*
X271335551Y-132326134D01*
X271267712Y-131985082D01*
X271134640Y-131663818D01*
X270941449Y-131374688D01*
X270695564Y-131128803D01*
X270406434Y-130935612D01*
X270085170Y-130802540D01*
X269744118Y-130734701D01*
X269396384Y-130734701D01*
X269055332Y-130802540D01*
X268734068Y-130935612D01*
X268444938Y-131128803D01*
X268199053Y-131374688D01*
X268005862Y-131663818D01*
X267872790Y-131985082D01*
X267804951Y-132326134D01*
X267275584Y-132326134D01*
X267302563Y-132050985D01*
X267432965Y-131619071D01*
X267644775Y-131220716D01*
X267929926Y-130871087D01*
X268277554Y-130583504D01*
X268674428Y-130368915D01*
X269105412Y-130235503D01*
X269585905Y-130185001D01*
X290536735Y-130184999D01*
X291019267Y-130232312D01*
G04 #@! TA.AperFunction,Conductor*
D33*
G36*
X291019267Y-130232312D02*
G01*
X291451181Y-130362714D01*
X291849536Y-130574524D01*
X292199165Y-130859675D01*
X292486748Y-131207303D01*
X292701337Y-131604177D01*
X292834749Y-132035161D01*
X292885251Y-132515654D01*
X292885252Y-152466484D01*
X292837939Y-152949015D01*
X292707538Y-153380926D01*
X292495731Y-153779279D01*
X292210576Y-154128913D01*
X291862948Y-154416496D01*
X291466076Y-154631084D01*
X291035085Y-154764499D01*
X290554587Y-154815000D01*
X269603755Y-154815000D01*
X269121235Y-154767688D01*
X268689324Y-154637287D01*
X268290971Y-154425480D01*
X267941337Y-154140325D01*
X267653754Y-153792697D01*
X267439166Y-153395825D01*
X267305751Y-152964834D01*
X267255260Y-152484429D01*
X267255348Y-152326133D01*
X267804951Y-152326133D01*
X267804951Y-152673867D01*
X267872790Y-153014919D01*
X268005862Y-153336183D01*
X268199053Y-153625313D01*
X268444938Y-153871198D01*
X268734068Y-154064389D01*
X269055332Y-154197461D01*
X269396384Y-154265300D01*
X269744118Y-154265300D01*
X270085170Y-154197461D01*
X270406434Y-154064389D01*
X270695564Y-153871198D01*
X270941449Y-153625313D01*
X271134640Y-153336183D01*
X271267712Y-153014919D01*
X271335551Y-152673867D01*
X271335551Y-152326133D01*
X288804951Y-152326133D01*
X288804951Y-152673867D01*
X288872790Y-153014919D01*
X289005862Y-153336183D01*
X289199053Y-153625313D01*
X289444938Y-153871198D01*
X289734068Y-154064389D01*
X290055332Y-154197461D01*
X290396384Y-154265300D01*
X290744118Y-154265300D01*
X291085170Y-154197461D01*
X291406434Y-154064389D01*
X291695564Y-153871198D01*
X291941449Y-153625313D01*
X292134640Y-153336183D01*
X292267712Y-153014919D01*
X292335551Y-152673867D01*
X292335551Y-152326133D01*
X292267712Y-151985081D01*
X292134640Y-151663817D01*
X291941449Y-151374687D01*
X291695564Y-151128802D01*
X291406434Y-150935611D01*
X291085170Y-150802539D01*
X290744118Y-150734700D01*
X290396384Y-150734700D01*
X290055332Y-150802539D01*
X289734068Y-150935611D01*
X289444938Y-151128802D01*
X289199053Y-151374687D01*
X289005862Y-151663817D01*
X288872790Y-151985081D01*
X288804951Y-152326133D01*
X271335551Y-152326133D01*
X271267712Y-151985081D01*
X271134640Y-151663817D01*
X270941449Y-151374687D01*
X270695564Y-151128802D01*
X270406434Y-150935611D01*
X270085170Y-150802539D01*
X269744118Y-150734700D01*
X269396384Y-150734700D01*
X269055332Y-150802539D01*
X268734068Y-150935611D01*
X268444938Y-151128802D01*
X268199053Y-151374687D01*
X268005862Y-151663817D01*
X267872790Y-151985081D01*
X267804951Y-152326133D01*
X267255348Y-152326133D01*
X267259818Y-144336737D01*
X267256453Y-144302374D01*
X267256453Y-144292161D01*
X267255454Y-144282649D01*
X267238324Y-144129933D01*
X267225418Y-144069214D01*
X267213357Y-144008304D01*
X267210529Y-143999167D01*
X267164063Y-143852687D01*
X267139611Y-143795637D01*
X267115946Y-143738221D01*
X267111397Y-143729808D01*
X267037364Y-143595143D01*
X267002286Y-143543913D01*
X266967932Y-143492206D01*
X266961836Y-143484837D01*
X266863057Y-143367116D01*
X266818699Y-143323677D01*
X266774949Y-143279621D01*
X266767537Y-143273576D01*
X266647773Y-143177284D01*
X266595809Y-143143280D01*
X266544356Y-143108574D01*
X266535911Y-143104084D01*
X266535909Y-143104083D01*
X266535906Y-143104081D01*
X266535903Y-143104080D01*
X266399725Y-143032887D01*
X266342168Y-143009632D01*
X266327777Y-143003583D01*
X266334380Y-142385750D01*
X289910251Y-142385750D01*
X289910251Y-142614250D01*
X289954829Y-142838360D01*
X290042272Y-143049466D01*
X290169220Y-143239457D01*
X290330794Y-143401031D01*
X290520785Y-143527979D01*
X290731891Y-143615422D01*
X290956001Y-143660000D01*
X291184501Y-143660000D01*
X291408611Y-143615422D01*
X291619717Y-143527979D01*
X291809708Y-143401031D01*
X291971282Y-143239457D01*
X292098230Y-143049466D01*
X292185673Y-142838360D01*
X292230251Y-142614250D01*
X292230251Y-142385750D01*
X292185673Y-142161640D01*
X292098230Y-141950534D01*
X291971282Y-141760543D01*
X291809708Y-141598969D01*
X291619717Y-141472021D01*
X291408611Y-141384578D01*
X291184501Y-141340000D01*
X290956001Y-141340000D01*
X290731891Y-141384578D01*
X290520785Y-141472021D01*
X290330794Y-141598969D01*
X290169220Y-141760543D01*
X290042272Y-141950534D01*
X289954829Y-142161640D01*
X289910251Y-142385750D01*
X266334380Y-142385750D01*
X266342883Y-141590150D01*
X266352329Y-141586179D01*
X266409890Y-141562923D01*
X266418330Y-141558435D01*
X266418335Y-141558433D01*
X266418339Y-141558430D01*
X266553512Y-141485342D01*
X266604956Y-141450643D01*
X266656930Y-141416632D01*
X266664342Y-141410587D01*
X266782750Y-141312632D01*
X266826498Y-141268577D01*
X266870856Y-141225139D01*
X266876953Y-141217770D01*
X266974079Y-141098682D01*
X267008450Y-141046948D01*
X267043511Y-140995744D01*
X267048060Y-140987331D01*
X267120206Y-140851645D01*
X267143866Y-140794240D01*
X267168324Y-140737176D01*
X267171153Y-140728039D01*
X267215569Y-140580924D01*
X267227631Y-140520006D01*
X267240535Y-140459297D01*
X267241535Y-140449785D01*
X267249954Y-140363926D01*
X267249966Y-140363885D01*
X267255453Y-140307839D01*
X267256531Y-140296845D01*
X267256531Y-140296828D01*
X267259819Y-140263243D01*
X267255271Y-132533306D01*
X267275584Y-132326134D01*
X267804951Y-132326134D01*
X267804951Y-132673868D01*
X267872790Y-133014920D01*
X268005862Y-133336184D01*
X268199053Y-133625314D01*
X268444938Y-133871199D01*
X268734068Y-134064390D01*
X269055332Y-134197462D01*
X269396384Y-134265301D01*
X269744118Y-134265301D01*
X270085170Y-134197462D01*
X270406434Y-134064390D01*
X270695564Y-133871199D01*
X270941449Y-133625314D01*
X271134640Y-133336184D01*
X271267712Y-133014920D01*
X271298632Y-132859471D01*
X273410251Y-132859471D01*
X273410251Y-133087971D01*
X273454829Y-133312081D01*
X273542272Y-133523187D01*
X273669220Y-133713178D01*
X273830794Y-133874752D01*
X274020785Y-134001700D01*
X274231891Y-134089143D01*
X274456001Y-134133721D01*
X274684501Y-134133721D01*
X274908611Y-134089143D01*
X275119717Y-134001700D01*
X275309708Y-133874752D01*
X275471282Y-133713178D01*
X275598230Y-133523187D01*
X275685673Y-133312081D01*
X275730251Y-133087971D01*
X275730251Y-132859471D01*
X275685673Y-132635361D01*
X275598230Y-132424255D01*
X275532667Y-132326133D01*
X288804951Y-132326133D01*
X288804951Y-132673867D01*
X288872790Y-133014919D01*
X289005862Y-133336183D01*
X289199053Y-133625313D01*
X289444938Y-133871198D01*
X289734068Y-134064389D01*
X290055332Y-134197461D01*
X290396384Y-134265300D01*
X290744118Y-134265300D01*
X291085170Y-134197461D01*
X291406434Y-134064389D01*
X291695564Y-133871198D01*
X291941449Y-133625313D01*
X292134640Y-133336183D01*
X292267712Y-133014919D01*
X292335551Y-132673867D01*
X292335551Y-132326133D01*
X292267712Y-131985081D01*
X292134640Y-131663817D01*
X291941449Y-131374687D01*
X291695564Y-131128802D01*
X291406434Y-130935611D01*
X291085170Y-130802539D01*
X290744118Y-130734700D01*
X290396384Y-130734700D01*
X290055332Y-130802539D01*
X289734068Y-130935611D01*
X289444938Y-131128802D01*
X289199053Y-131374687D01*
X289005862Y-131663817D01*
X288872790Y-131985081D01*
X288804951Y-132326133D01*
X275532667Y-132326133D01*
X275471282Y-132234264D01*
X275309708Y-132072690D01*
X275119717Y-131945742D01*
X274908611Y-131858299D01*
X274684501Y-131813721D01*
X274456001Y-131813721D01*
X274231891Y-131858299D01*
X274020785Y-131945742D01*
X273830794Y-132072690D01*
X273669220Y-132234264D01*
X273542272Y-132424255D01*
X273454829Y-132635361D01*
X273410251Y-132859471D01*
X271298632Y-132859471D01*
X271335551Y-132673868D01*
X271335551Y-132326134D01*
X271267712Y-131985082D01*
X271134640Y-131663818D01*
X270941449Y-131374688D01*
X270695564Y-131128803D01*
X270406434Y-130935612D01*
X270085170Y-130802540D01*
X269744118Y-130734701D01*
X269396384Y-130734701D01*
X269055332Y-130802540D01*
X268734068Y-130935612D01*
X268444938Y-131128803D01*
X268199053Y-131374688D01*
X268005862Y-131663818D01*
X267872790Y-131985082D01*
X267804951Y-132326134D01*
X267275584Y-132326134D01*
X267302563Y-132050985D01*
X267432965Y-131619071D01*
X267644775Y-131220716D01*
X267929926Y-130871087D01*
X268277554Y-130583504D01*
X268674428Y-130368915D01*
X269105412Y-130235503D01*
X269585905Y-130185001D01*
X290536735Y-130184999D01*
X291019267Y-130232312D01*
G37*
G04 #@! TD.AperFunction*
D32*
X303925365Y-130412530D02*
X303925367Y-130412535D01*
X303925370Y-130412539D01*
X303998458Y-130547712D01*
X304033157Y-130599156D01*
X304067168Y-130651130D01*
X304073213Y-130658542D01*
X304171168Y-130776950D01*
X304215223Y-130820698D01*
X304258661Y-130865056D01*
X304266030Y-130871153D01*
X304385118Y-130968279D01*
X304436852Y-131002650D01*
X304488056Y-131037711D01*
X304496469Y-131042260D01*
X304632155Y-131114406D01*
X304689560Y-131138066D01*
X304746624Y-131162524D01*
X304755761Y-131165353D01*
X304902876Y-131209769D01*
X304963794Y-131221831D01*
X305024503Y-131234735D01*
X305034015Y-131235735D01*
X305186955Y-131250731D01*
X305186968Y-131250731D01*
X305219842Y-131253984D01*
X309613338Y-131255985D01*
X309998897Y-131293790D01*
X310337393Y-131395988D01*
X310649588Y-131561985D01*
X310923597Y-131785461D01*
X311148980Y-132057903D01*
X311317153Y-132368932D01*
X311421712Y-132706709D01*
X311462001Y-133090032D01*
X311462000Y-144037496D01*
X311424211Y-144422898D01*
X311322013Y-144761393D01*
X311156016Y-145073589D01*
X310932539Y-145347600D01*
X310660098Y-145572981D01*
X310349069Y-145741154D01*
X310011296Y-145845712D01*
X309887440Y-145858730D01*
X310063566Y-145785776D01*
X310380491Y-145574014D01*
X310650013Y-145304492D01*
X310861775Y-144987567D01*
X311007639Y-144635420D01*
X311082000Y-144261582D01*
X311082000Y-143880420D01*
X311007639Y-143506582D01*
X310861775Y-143154435D01*
X310650013Y-142837510D01*
X310380491Y-142567988D01*
X310063566Y-142356226D01*
X309711419Y-142210362D01*
X309337581Y-142136001D01*
X308956419Y-142136001D01*
X308582581Y-142210362D01*
X308230434Y-142356226D01*
X307913509Y-142567988D01*
X307643987Y-142837510D01*
X307432225Y-143154435D01*
X307286361Y-143506582D01*
X307212000Y-143880420D01*
X307212000Y-144261582D01*
X307286361Y-144635420D01*
X307432225Y-144987567D01*
X307643987Y-145304492D01*
X307913509Y-145574014D01*
X308230434Y-145785776D01*
X308472401Y-145886002D01*
X297821604Y-145886000D01*
X298063567Y-145785776D01*
X298380492Y-145574014D01*
X298650014Y-145304492D01*
X298861776Y-144987567D01*
X299007640Y-144635420D01*
X299082001Y-144261582D01*
X299082001Y-143880420D01*
X299007640Y-143506582D01*
X298861776Y-143154435D01*
X298650014Y-142837510D01*
X298380492Y-142567988D01*
X298063567Y-142356226D01*
X297711420Y-142210362D01*
X297337582Y-142136001D01*
X296956420Y-142136001D01*
X296582582Y-142210362D01*
X296230435Y-142356226D01*
X295913510Y-142567988D01*
X295643988Y-142837510D01*
X295432226Y-143154435D01*
X295286362Y-143506582D01*
X295212001Y-143880420D01*
X295212001Y-144261582D01*
X295286362Y-144635420D01*
X295432226Y-144987567D01*
X295643988Y-145304492D01*
X295913510Y-145574014D01*
X296230435Y-145785776D01*
X296407861Y-145859268D01*
X296295103Y-145848212D01*
X295956608Y-145746014D01*
X295644412Y-145580017D01*
X295370401Y-145356540D01*
X295145020Y-145084099D01*
X294976847Y-144773070D01*
X294872289Y-144435297D01*
X294832000Y-144051978D01*
X294832000Y-139027688D01*
X302752600Y-139027688D01*
X302752600Y-139261112D01*
X302798139Y-139490052D01*
X302887466Y-139705708D01*
X303017150Y-139899794D01*
X303182206Y-140064850D01*
X303376292Y-140194534D01*
X303591948Y-140283861D01*
X303820888Y-140329400D01*
X304054312Y-140329400D01*
X304283252Y-140283861D01*
X304498908Y-140194534D01*
X304692994Y-140064850D01*
X304858050Y-139899794D01*
X304987734Y-139705708D01*
X305077061Y-139490052D01*
X305122600Y-139261112D01*
X305122600Y-139027688D01*
X305077061Y-138798748D01*
X304987734Y-138583092D01*
X304858050Y-138389006D01*
X304692994Y-138223950D01*
X304498908Y-138094266D01*
X304283252Y-138004939D01*
X304054312Y-137959400D01*
X303820888Y-137959400D01*
X303591948Y-138004939D01*
X303376292Y-138094266D01*
X303182206Y-138223950D01*
X303017150Y-138389006D01*
X302887466Y-138583092D01*
X302798139Y-138798748D01*
X302752600Y-139027688D01*
X294832000Y-139027688D01*
X294832000Y-136532737D01*
X305722000Y-136532737D01*
X305722000Y-136746463D01*
X305763696Y-136956083D01*
X305845485Y-137153540D01*
X305964225Y-137331247D01*
X306115353Y-137482375D01*
X306293060Y-137601115D01*
X306490517Y-137682904D01*
X306700137Y-137724600D01*
X306913863Y-137724600D01*
X307123483Y-137682904D01*
X307320940Y-137601115D01*
X307498647Y-137482375D01*
X307649775Y-137331247D01*
X307768515Y-137153540D01*
X307850304Y-136956083D01*
X307892000Y-136746463D01*
X307892000Y-136532737D01*
X307850304Y-136323117D01*
X307768515Y-136125660D01*
X307649775Y-135947953D01*
X307498647Y-135796825D01*
X307320940Y-135678085D01*
X307123483Y-135596296D01*
X306913863Y-135554600D01*
X306700137Y-135554600D01*
X306490517Y-135596296D01*
X306293060Y-135678085D01*
X306115353Y-135796825D01*
X305964225Y-135947953D01*
X305845485Y-136125660D01*
X305763696Y-136323117D01*
X305722000Y-136532737D01*
X294832000Y-136532737D01*
X294832000Y-133104505D01*
X294869789Y-132719104D01*
X294971987Y-132380608D01*
X295110021Y-132121002D01*
X299608928Y-132121002D01*
X299608928Y-133021002D01*
X299625031Y-133184502D01*
X299672722Y-133341718D01*
X299750169Y-133486610D01*
X299854394Y-133613608D01*
X299981392Y-133717833D01*
X300126284Y-133795280D01*
X300283500Y-133842971D01*
X300447000Y-133859074D01*
X300847000Y-133859074D01*
X301010500Y-133842971D01*
X301167716Y-133795280D01*
X301312608Y-133717833D01*
X301439606Y-133613608D01*
X301543831Y-133486610D01*
X301621278Y-133341718D01*
X301668969Y-133184502D01*
X301685072Y-133021002D01*
X301685072Y-132270165D01*
X302112000Y-132270165D01*
X302112000Y-132871840D01*
X302126976Y-133023897D01*
X302186159Y-133218995D01*
X302282267Y-133398799D01*
X302411605Y-133556398D01*
X302569204Y-133685736D01*
X302749008Y-133781843D01*
X302944106Y-133841026D01*
X303147000Y-133861009D01*
X303349895Y-133841026D01*
X303544993Y-133781843D01*
X303724797Y-133685736D01*
X303772001Y-133646997D01*
X303819204Y-133685736D01*
X303999008Y-133781843D01*
X304194106Y-133841026D01*
X304397000Y-133861009D01*
X304599895Y-133841026D01*
X304794993Y-133781843D01*
X304974797Y-133685736D01*
X305022001Y-133646997D01*
X305069204Y-133685736D01*
X305249008Y-133781843D01*
X305444106Y-133841026D01*
X305647000Y-133861009D01*
X305849895Y-133841026D01*
X306044993Y-133781843D01*
X306224797Y-133685736D01*
X306382396Y-133556398D01*
X306511734Y-133398799D01*
X306607841Y-133218994D01*
X306667024Y-133023896D01*
X306682000Y-132871839D01*
X306682000Y-132270164D01*
X306667024Y-132118107D01*
X306607841Y-131923009D01*
X306511734Y-131743205D01*
X306382396Y-131585606D01*
X306224797Y-131456268D01*
X306044992Y-131360161D01*
X305849894Y-131300978D01*
X305647000Y-131280995D01*
X305444105Y-131300978D01*
X305249007Y-131360161D01*
X305069203Y-131456268D01*
X305022000Y-131495006D01*
X304974797Y-131456268D01*
X304794992Y-131360161D01*
X304599894Y-131300978D01*
X304397000Y-131280995D01*
X304194105Y-131300978D01*
X303999007Y-131360161D01*
X303819203Y-131456268D01*
X303772000Y-131495006D01*
X303724797Y-131456268D01*
X303544992Y-131360161D01*
X303349894Y-131300978D01*
X303147000Y-131280995D01*
X302944105Y-131300978D01*
X302749007Y-131360161D01*
X302569203Y-131456268D01*
X302411604Y-131585606D01*
X302282266Y-131743205D01*
X302186159Y-131923010D01*
X302126976Y-132118108D01*
X302112000Y-132270165D01*
X301685072Y-132270165D01*
X301685072Y-132121002D01*
X301668969Y-131957502D01*
X301621278Y-131800286D01*
X301543831Y-131655394D01*
X301439606Y-131528396D01*
X301312608Y-131424171D01*
X301167716Y-131346724D01*
X301010500Y-131299033D01*
X300847000Y-131282930D01*
X300447000Y-131282930D01*
X300283500Y-131299033D01*
X300126284Y-131346724D01*
X299981392Y-131424171D01*
X299854394Y-131528396D01*
X299750169Y-131655394D01*
X299672722Y-131800286D01*
X299625031Y-131957502D01*
X299608928Y-132121002D01*
X295110021Y-132121002D01*
X295137984Y-132068413D01*
X295361460Y-131794404D01*
X295633902Y-131569021D01*
X295944931Y-131400848D01*
X296282708Y-131296289D01*
X296666106Y-131255992D01*
X301287744Y-131253985D01*
X301321422Y-131250653D01*
X301331639Y-131250653D01*
X301341151Y-131249654D01*
X301493867Y-131232524D01*
X301554592Y-131219616D01*
X301615496Y-131207557D01*
X301624633Y-131204729D01*
X301771112Y-131158263D01*
X301828182Y-131133803D01*
X301885579Y-131110145D01*
X301893992Y-131105597D01*
X302028658Y-131031563D01*
X302079896Y-130996479D01*
X302131593Y-130962132D01*
X302138963Y-130956036D01*
X302256683Y-130857257D01*
X302300106Y-130812915D01*
X302344179Y-130769148D01*
X302350224Y-130761737D01*
X302446516Y-130641972D01*
X302480493Y-130590049D01*
X302515226Y-130538556D01*
X302519716Y-130530111D01*
X302574991Y-130424380D01*
X303922759Y-130407630D01*
X303925365Y-130412530D01*
G04 #@! TA.AperFunction,Conductor*
D33*
G36*
X303925365Y-130412530D02*
G01*
X303925367Y-130412535D01*
X303925370Y-130412539D01*
X303998458Y-130547712D01*
X304033157Y-130599156D01*
X304067168Y-130651130D01*
X304073213Y-130658542D01*
X304171168Y-130776950D01*
X304215223Y-130820698D01*
X304258661Y-130865056D01*
X304266030Y-130871153D01*
X304385118Y-130968279D01*
X304436852Y-131002650D01*
X304488056Y-131037711D01*
X304496469Y-131042260D01*
X304632155Y-131114406D01*
X304689560Y-131138066D01*
X304746624Y-131162524D01*
X304755761Y-131165353D01*
X304902876Y-131209769D01*
X304963794Y-131221831D01*
X305024503Y-131234735D01*
X305034015Y-131235735D01*
X305186955Y-131250731D01*
X305186968Y-131250731D01*
X305219842Y-131253984D01*
X309613338Y-131255985D01*
X309998897Y-131293790D01*
X310337393Y-131395988D01*
X310649588Y-131561985D01*
X310923597Y-131785461D01*
X311148980Y-132057903D01*
X311317153Y-132368932D01*
X311421712Y-132706709D01*
X311462001Y-133090032D01*
X311462000Y-144037496D01*
X311424211Y-144422898D01*
X311322013Y-144761393D01*
X311156016Y-145073589D01*
X310932539Y-145347600D01*
X310660098Y-145572981D01*
X310349069Y-145741154D01*
X310011296Y-145845712D01*
X309887440Y-145858730D01*
X310063566Y-145785776D01*
X310380491Y-145574014D01*
X310650013Y-145304492D01*
X310861775Y-144987567D01*
X311007639Y-144635420D01*
X311082000Y-144261582D01*
X311082000Y-143880420D01*
X311007639Y-143506582D01*
X310861775Y-143154435D01*
X310650013Y-142837510D01*
X310380491Y-142567988D01*
X310063566Y-142356226D01*
X309711419Y-142210362D01*
X309337581Y-142136001D01*
X308956419Y-142136001D01*
X308582581Y-142210362D01*
X308230434Y-142356226D01*
X307913509Y-142567988D01*
X307643987Y-142837510D01*
X307432225Y-143154435D01*
X307286361Y-143506582D01*
X307212000Y-143880420D01*
X307212000Y-144261582D01*
X307286361Y-144635420D01*
X307432225Y-144987567D01*
X307643987Y-145304492D01*
X307913509Y-145574014D01*
X308230434Y-145785776D01*
X308472401Y-145886002D01*
X297821604Y-145886000D01*
X298063567Y-145785776D01*
X298380492Y-145574014D01*
X298650014Y-145304492D01*
X298861776Y-144987567D01*
X299007640Y-144635420D01*
X299082001Y-144261582D01*
X299082001Y-143880420D01*
X299007640Y-143506582D01*
X298861776Y-143154435D01*
X298650014Y-142837510D01*
X298380492Y-142567988D01*
X298063567Y-142356226D01*
X297711420Y-142210362D01*
X297337582Y-142136001D01*
X296956420Y-142136001D01*
X296582582Y-142210362D01*
X296230435Y-142356226D01*
X295913510Y-142567988D01*
X295643988Y-142837510D01*
X295432226Y-143154435D01*
X295286362Y-143506582D01*
X295212001Y-143880420D01*
X295212001Y-144261582D01*
X295286362Y-144635420D01*
X295432226Y-144987567D01*
X295643988Y-145304492D01*
X295913510Y-145574014D01*
X296230435Y-145785776D01*
X296407861Y-145859268D01*
X296295103Y-145848212D01*
X295956608Y-145746014D01*
X295644412Y-145580017D01*
X295370401Y-145356540D01*
X295145020Y-145084099D01*
X294976847Y-144773070D01*
X294872289Y-144435297D01*
X294832000Y-144051978D01*
X294832000Y-139027688D01*
X302752600Y-139027688D01*
X302752600Y-139261112D01*
X302798139Y-139490052D01*
X302887466Y-139705708D01*
X303017150Y-139899794D01*
X303182206Y-140064850D01*
X303376292Y-140194534D01*
X303591948Y-140283861D01*
X303820888Y-140329400D01*
X304054312Y-140329400D01*
X304283252Y-140283861D01*
X304498908Y-140194534D01*
X304692994Y-140064850D01*
X304858050Y-139899794D01*
X304987734Y-139705708D01*
X305077061Y-139490052D01*
X305122600Y-139261112D01*
X305122600Y-139027688D01*
X305077061Y-138798748D01*
X304987734Y-138583092D01*
X304858050Y-138389006D01*
X304692994Y-138223950D01*
X304498908Y-138094266D01*
X304283252Y-138004939D01*
X304054312Y-137959400D01*
X303820888Y-137959400D01*
X303591948Y-138004939D01*
X303376292Y-138094266D01*
X303182206Y-138223950D01*
X303017150Y-138389006D01*
X302887466Y-138583092D01*
X302798139Y-138798748D01*
X302752600Y-139027688D01*
X294832000Y-139027688D01*
X294832000Y-136532737D01*
X305722000Y-136532737D01*
X305722000Y-136746463D01*
X305763696Y-136956083D01*
X305845485Y-137153540D01*
X305964225Y-137331247D01*
X306115353Y-137482375D01*
X306293060Y-137601115D01*
X306490517Y-137682904D01*
X306700137Y-137724600D01*
X306913863Y-137724600D01*
X307123483Y-137682904D01*
X307320940Y-137601115D01*
X307498647Y-137482375D01*
X307649775Y-137331247D01*
X307768515Y-137153540D01*
X307850304Y-136956083D01*
X307892000Y-136746463D01*
X307892000Y-136532737D01*
X307850304Y-136323117D01*
X307768515Y-136125660D01*
X307649775Y-135947953D01*
X307498647Y-135796825D01*
X307320940Y-135678085D01*
X307123483Y-135596296D01*
X306913863Y-135554600D01*
X306700137Y-135554600D01*
X306490517Y-135596296D01*
X306293060Y-135678085D01*
X306115353Y-135796825D01*
X305964225Y-135947953D01*
X305845485Y-136125660D01*
X305763696Y-136323117D01*
X305722000Y-136532737D01*
X294832000Y-136532737D01*
X294832000Y-133104505D01*
X294869789Y-132719104D01*
X294971987Y-132380608D01*
X295110021Y-132121002D01*
X299608928Y-132121002D01*
X299608928Y-133021002D01*
X299625031Y-133184502D01*
X299672722Y-133341718D01*
X299750169Y-133486610D01*
X299854394Y-133613608D01*
X299981392Y-133717833D01*
X300126284Y-133795280D01*
X300283500Y-133842971D01*
X300447000Y-133859074D01*
X300847000Y-133859074D01*
X301010500Y-133842971D01*
X301167716Y-133795280D01*
X301312608Y-133717833D01*
X301439606Y-133613608D01*
X301543831Y-133486610D01*
X301621278Y-133341718D01*
X301668969Y-133184502D01*
X301685072Y-133021002D01*
X301685072Y-132270165D01*
X302112000Y-132270165D01*
X302112000Y-132871840D01*
X302126976Y-133023897D01*
X302186159Y-133218995D01*
X302282267Y-133398799D01*
X302411605Y-133556398D01*
X302569204Y-133685736D01*
X302749008Y-133781843D01*
X302944106Y-133841026D01*
X303147000Y-133861009D01*
X303349895Y-133841026D01*
X303544993Y-133781843D01*
X303724797Y-133685736D01*
X303772001Y-133646997D01*
X303819204Y-133685736D01*
X303999008Y-133781843D01*
X304194106Y-133841026D01*
X304397000Y-133861009D01*
X304599895Y-133841026D01*
X304794993Y-133781843D01*
X304974797Y-133685736D01*
X305022001Y-133646997D01*
X305069204Y-133685736D01*
X305249008Y-133781843D01*
X305444106Y-133841026D01*
X305647000Y-133861009D01*
X305849895Y-133841026D01*
X306044993Y-133781843D01*
X306224797Y-133685736D01*
X306382396Y-133556398D01*
X306511734Y-133398799D01*
X306607841Y-133218994D01*
X306667024Y-133023896D01*
X306682000Y-132871839D01*
X306682000Y-132270164D01*
X306667024Y-132118107D01*
X306607841Y-131923009D01*
X306511734Y-131743205D01*
X306382396Y-131585606D01*
X306224797Y-131456268D01*
X306044992Y-131360161D01*
X305849894Y-131300978D01*
X305647000Y-131280995D01*
X305444105Y-131300978D01*
X305249007Y-131360161D01*
X305069203Y-131456268D01*
X305022000Y-131495006D01*
X304974797Y-131456268D01*
X304794992Y-131360161D01*
X304599894Y-131300978D01*
X304397000Y-131280995D01*
X304194105Y-131300978D01*
X303999007Y-131360161D01*
X303819203Y-131456268D01*
X303772000Y-131495006D01*
X303724797Y-131456268D01*
X303544992Y-131360161D01*
X303349894Y-131300978D01*
X303147000Y-131280995D01*
X302944105Y-131300978D01*
X302749007Y-131360161D01*
X302569203Y-131456268D01*
X302411604Y-131585606D01*
X302282266Y-131743205D01*
X302186159Y-131923010D01*
X302126976Y-132118108D01*
X302112000Y-132270165D01*
X301685072Y-132270165D01*
X301685072Y-132121002D01*
X301668969Y-131957502D01*
X301621278Y-131800286D01*
X301543831Y-131655394D01*
X301439606Y-131528396D01*
X301312608Y-131424171D01*
X301167716Y-131346724D01*
X301010500Y-131299033D01*
X300847000Y-131282930D01*
X300447000Y-131282930D01*
X300283500Y-131299033D01*
X300126284Y-131346724D01*
X299981392Y-131424171D01*
X299854394Y-131528396D01*
X299750169Y-131655394D01*
X299672722Y-131800286D01*
X299625031Y-131957502D01*
X299608928Y-132121002D01*
X295110021Y-132121002D01*
X295137984Y-132068413D01*
X295361460Y-131794404D01*
X295633902Y-131569021D01*
X295944931Y-131400848D01*
X296282708Y-131296289D01*
X296666106Y-131255992D01*
X301287744Y-131253985D01*
X301321422Y-131250653D01*
X301331639Y-131250653D01*
X301341151Y-131249654D01*
X301493867Y-131232524D01*
X301554592Y-131219616D01*
X301615496Y-131207557D01*
X301624633Y-131204729D01*
X301771112Y-131158263D01*
X301828182Y-131133803D01*
X301885579Y-131110145D01*
X301893992Y-131105597D01*
X302028658Y-131031563D01*
X302079896Y-130996479D01*
X302131593Y-130962132D01*
X302138963Y-130956036D01*
X302256683Y-130857257D01*
X302300106Y-130812915D01*
X302344179Y-130769148D01*
X302350224Y-130761737D01*
X302446516Y-130641972D01*
X302480493Y-130590049D01*
X302515226Y-130538556D01*
X302519716Y-130530111D01*
X302574991Y-130424380D01*
X303922759Y-130407630D01*
X303925365Y-130412530D01*
G37*
G04 #@! TD.AperFunction*
M02*
